<?xml version="1.0" standalone="no"?>
<!DOCTYPE svg PUBLIC "-//W3C//DTD SVG 1.1//EN" "http://www.w3.org/Graphics/SVG/1.1/DTD/svg11.dtd" >
<svg xmlns="http://www.w3.org/2000/svg" xmlns:xlink="http://www.w3.org/1999/xlink" version="1.1">
<metadata></metadata>
<defs>
<font id="caslon_book_beregular" horiz-adv-x="1024" >
<font-face units-per-em="2048" ascent="1638" descent="-410" />
<missing-glyph horiz-adv-x="555" />
<glyph horiz-adv-x="0" />
<glyph unicode="&#xd;" horiz-adv-x="555" />
<glyph unicode=" "  horiz-adv-x="555" />
<glyph unicode="&#x09;" horiz-adv-x="555" />
<glyph unicode="&#xa0;" horiz-adv-x="555" />
<glyph unicode="!" horiz-adv-x="512" d="M176 109q0 49 35 84.5t86 35.5q49 0 85 -35.5t36 -84.5t-35 -85t-86 -36t-86 35t-35 86zM193 1303q0 49 9 80.5t24.5 49t35 24.5t37.5 7q49 0 78 -41t29 -123q0 -12 -3.5 -53t-7.5 -87t-8 -88t-6 -60q-14 -141 -23.5 -229.5t-14.5 -157t-8 -133t-5 -160.5h-62 q-4 119 -11 228.5t-14 198.5t-13.5 151.5t-8.5 86.5q-6 59 -13 120t-11 120q-2 16 -3 32.5t-1 33.5z" />
<glyph unicode="&#x22;" horiz-adv-x="811" d="M123 1426.5v15.5q0 49 30.5 70.5t63.5 21.5q4 0 18.5 -2t30 -11.5t27.5 -30t10 -56.5l-72 -523h-41l-65 496q-2 12 -2 19.5zM508 1426.5v15.5q0 49 30.5 70.5t63.5 21.5q4 0 18.5 -2t30 -11.5t27.5 -30t10 -56.5l-72 -523h-41l-65 496q-2 12 -2 19.5z" />
<glyph unicode="#" horiz-adv-x="1366" d="M84 530v111h360l27 199h-342v116h356l66 494h129l-72 -494h207l66 494h120l-67 -494h344v-116h-358l-27 -199h344v-111h-356l-76 -530h-125l78 530h-207l-78 -530h-119l74 530h-344zM565 641h207l27 199h-205z" />
<glyph unicode="$" d="M74 258q0 27 10 44t25.5 27.5t32 14.5t28.5 4q45 0 63.5 -29.5t38.5 -82.5q23 -61 51.5 -99.5t56.5 -59t52.5 -28.5t40.5 -12v616q-86 51 -157.5 98.5t-122 96.5t-78 107.5t-27.5 134.5q0 68 25.5 128t75 108t121 79t163.5 37v139h70v-139q92 -8 159.5 -37t110.5 -65.5 t64.5 -77.5t21.5 -74q0 -45 -28.5 -63.5t-53.5 -18.5q-39 0 -55.5 24.5t-28.5 53.5q-8 18 -21.5 47t-36 57.5t-55 52t-77.5 31.5v-538q53 -31 88 -52.5t57.5 -36t37.5 -24.5t32 -21q104 -76 145 -153.5t41 -163.5q0 -90 -35 -168t-94 -133q-72 -66 -145.5 -85.5 t-126.5 -27.5v-143h-70v143q-102 6 -177 37t-124 74t-73.5 90t-24.5 88zM266 1153q0 -51 20.5 -92t51.5 -75t67.5 -60.5t67.5 -46.5v493q-68 -12 -108.5 -39.5t-62 -59.5t-29 -64.5t-7.5 -55.5zM543 33q16 2 36.5 6t49.5 14q51 20 83.5 52t50 66t24 64.5t6.5 53.5 q0 61 -27 110.5t-64.5 89t-82 68.5t-76.5 51v-575z" />
<glyph unicode="%" horiz-adv-x="1536" d="M43 948q0 109 23.5 197t61.5 151.5t88 97t103 33.5q45 0 93.5 -30.5t89.5 -91t67.5 -151.5t26.5 -210q0 -92 -20.5 -176t-57.5 -146.5t-88 -100.5t-113 -38q-55 0 -104 36t-87 99.5t-60.5 148.5t-22.5 181zM197 965q0 -16 1 -53.5t4 -84.5t10 -98t20.5 -93t35 -69.5 t51.5 -27.5q43 0 68 46t37 109.5t15 130t3 107.5q0 43 -3 118.5t-15 149.5t-39 127t-74 47q-43 -4 -65.5 -53t-33.5 -114.5t-13 -133t-2 -108.5zM332 0l807 1446l65 -37l-807 -1448zM936 440q0 109 23.5 197t61.5 151.5t88 97.5t103 34q45 0 93.5 -31t89.5 -91.5 t67.5 -151.5t26.5 -210q0 -92 -20.5 -175t-57.5 -145.5t-88 -100.5t-113 -38q-55 0 -104 36t-87 98.5t-60.5 147.5t-22.5 181zM1090 457q0 -16 1 -53t4 -84.5t10 -98.5t20.5 -93t35 -69.5t51.5 -27.5q43 0 68 46t37 110.5t15 130t3 106.5q0 29 -1 74t-5 95t-12 101t-22.5 91 t-37 63.5t-53.5 19.5q-43 -4 -65.5 -53t-33.5 -115.5t-13 -134t-2 -108.5z" />
<glyph unicode="&#x26;" horiz-adv-x="1492" d="M61 266q0 88 37 164t91.5 139.5t116 114.5t110.5 88q-16 20 -37 46t-37 57.5t-27.5 68.5t-11.5 80q0 68 31 124t78 97t105 64.5t114 23.5q96 0 153.5 -54t57.5 -134q0 -49 -22.5 -92t-57.5 -81t-79 -71t-87 -63q82 -100 133 -162t89 -110t73 -93t86 -113q39 39 72.5 84 t56 90.5t36 87.5t13.5 74q0 41 -13.5 65.5t-35 38t-47 17.5t-47.5 8v54q57 -2 113.5 -4.5t113.5 -2.5q55 0 107.5 1t115.5 6v-54q-45 -6 -77.5 -22.5t-59.5 -44t-50.5 -65.5t-49.5 -83q-33 -55 -56.5 -95t-46 -71.5t-48 -63.5t-62.5 -73q23 -33 47 -64.5t50 -56t55.5 -40 t64.5 -15.5q53 0 86 31t74 88l45 -35q-25 -39 -53.5 -82t-64.5 -80t-78 -60.5t-91 -23.5q-41 0 -74 12.5t-62.5 39t-61 66.5t-70.5 93q-35 -27 -86.5 -63.5t-115 -69.5t-139 -56.5t-157.5 -23.5q-72 0 -131.5 23.5t-101.5 63.5t-64.5 95.5t-22.5 116.5zM248 369 q0 -98 62.5 -170t191.5 -72q109 0 188.5 37t143.5 76q-27 35 -51.5 70.5t-53.5 70.5q-29 37 -63.5 82t-72.5 91t-73.5 90t-64.5 81q-25 -23 -61 -57.5t-68.5 -79.5t-55 -100.5t-22.5 -118.5zM412 1112q0 -25 8 -46.5t25.5 -48t45 -59t68.5 -79.5q70 53 108 94t38 92 q0 31 -17.5 57.5t-45.5 47t-59.5 31.5t-62.5 11q-49 0 -78.5 -28.5t-29.5 -71.5z" />
<glyph unicode="'" horiz-adv-x="425" d="M123 1426.5v15.5q0 49 30.5 70.5t63.5 21.5q4 0 18.5 -2t30 -11.5t27.5 -30t10 -56.5l-72 -523h-41l-65 496q-2 12 -2 19.5z" />
<glyph unicode="(" horiz-adv-x="681" d="M180 514q0 184 51.5 358.5t145.5 329.5q68 111 133 184.5t133 143.5l37 -39q-47 -53 -108.5 -132t-117 -193.5t-94 -272.5t-38.5 -367q0 -199 40.5 -361.5t88.5 -273.5q27 -68 53 -117.5t54 -92.5t57.5 -83t64.5 -85l-37 -33q-68 78 -148.5 177t-150.5 226t-117 284 t-47 347z" />
<glyph unicode=")" horiz-adv-x="681" d="M-2 -481q41 45 102.5 119.5t118.5 191.5t98 278.5t41 380.5q0 53 -4 126t-20.5 162t-48 191.5t-86.5 217.5q-29 57 -54.5 103t-50 83t-48 67.5t-48.5 59.5l39 31q68 -78 149.5 -177.5t151.5 -226.5t117 -285.5t47 -351.5q0 -197 -51.5 -357.5t-125 -285.5t-153.5 -216 t-135 -148z" />
<glyph unicode="*" horiz-adv-x="768" d="M61 967q0 27 11.5 43t29 26.5t36 14.5t32.5 8q33 6 54.5 11t41 10t39 12.5t47.5 17.5q-57 25 -95 34t-81 19q-12 2 -31.5 7.5t-37 15.5t-29.5 27.5t-12 43.5q0 25 18 53.5t59 28.5q35 0 57.5 -19.5t53.5 -59.5q35 -43 58.5 -67t58.5 -52q-6 35 -13.5 66.5t-17.5 62.5 q-10 33 -17.5 52t-10.5 30.5t-4 18.5t-1 15t3 23.5t11.5 29t23.5 24t42 10.5q29 0 45.5 -12.5t23.5 -29t9 -31t2 -16.5q0 -18 -4 -31.5t-14 -39.5q-23 -59 -33.5 -106.5t-14.5 -67.5q35 23 58.5 44t58.5 66q27 35 52.5 58.5t62.5 23.5t58.5 -25.5t21.5 -54.5 q0 -41 -30 -61.5t-75 -30.5q-33 -6 -53 -11t-38.5 -9t-39 -11.5t-53.5 -17.5q20 -10 58 -22.5t108 -28.5q18 -4 39.5 -9.5t40 -15.5t31 -26.5t12.5 -40.5q0 -39 -24.5 -61.5t-53.5 -22.5q-37 0 -62.5 24.5t-48.5 53.5q-37 47 -63.5 70.5t-57.5 47.5q4 -29 9.5 -59.5 t21.5 -71.5q10 -35 17.5 -54.5t10.5 -31.5t4 -19t1 -16q0 -43 -26.5 -63.5t-55.5 -20.5q-35 0 -56.5 22.5t-21.5 61.5q0 20 4 36t17 50q25 68 33 109t10 57q-12 -10 -24.5 -20t-24.5 -21q-6 -6 -20.5 -22.5t-31 -33.5t-31 -33.5t-20.5 -22.5q-10 -10 -28.5 -25.5 t-51.5 -15.5q-29 0 -53.5 23.5t-24.5 58.5z" />
<glyph unicode="+" horiz-adv-x="1366" d="M86 535v122h537v533h122v-533h535v-122h-535v-535h-122v535h-537z" />
<glyph unicode="," horiz-adv-x="425" d="M76 115q0 47 32.5 77.5t79.5 30.5q27 0 52.5 -12t47 -36.5t35 -61.5t13.5 -86q0 -43 -13.5 -91.5t-43 -90.5t-78.5 -74.5t-123 -46.5v71q53 10 94 43t41 86q0 35 -17.5 49.5t-33.5 24.5q-25 14 -55.5 39.5t-30.5 77.5z" />
<glyph unicode="-" horiz-adv-x="681" d="M43 428v109h596v-109h-596z" />
<glyph unicode="." horiz-adv-x="425" d="M90 109q0 49 35 84.5t86 35.5q49 0 85 -35.5t36 -84.5q0 -51 -36 -86t-85 -35q-51 0 -86 35t-35 86z" />
<glyph unicode="/" horiz-adv-x="1067" d="M-2 18l989 1487l78 -53l-987 -1485z" />
<glyph unicode="0" d="M78 692q0 127 29.5 260t86 242t137.5 178.5t185 69.5q94 0 172 -62.5t133.5 -166t86 -235.5t30.5 -273q0 -125 -32 -255.5t-89 -237t-138 -174t-179 -67.5q-96 0 -174 63.5t-133.5 167t-85 232.5t-29.5 258zM307 684q0 -154 7.5 -252t17.5 -158q2 -20 11 -61t27.5 -81 t50.5 -70.5t79 -30.5q53 0 87 36.5t54 88.5q20 55 33.5 130.5t20.5 162t10.5 177.5t3.5 177q0 57 -1 118.5t-5.5 121t-15.5 114.5t-30 98q-23 51 -59.5 87t-83.5 34q-45 0 -82 -34.5t-59 -84.5q-23 -47 -36 -120.5t-19.5 -155.5t-8.5 -161t-2 -136z" />
<glyph unicode="1" d="M193 0v66q92 4 142 12t72.5 34.5t27.5 79t5 144.5v520q0 109 -4 170t-26.5 91t-71.5 36t-137 4v62q35 6 87 17t109.5 37.5t115.5 72t108 116.5l32 -16q-6 -70 -9 -122t-6 -108.5t-4 -125t-1 -172.5v-535q0 -113 4 -174.5t27.5 -92t72.5 -38.5t140 -12v-66q-92 4 -181.5 5 t-185.5 1h-78t-73.5 -1t-76.5 -2t-89 -3z" />
<glyph unicode="2" d="M10 31q135 117 239.5 221t176.5 194q106 135 162.5 257t56.5 247q0 82 -22.5 140.5t-59.5 95.5t-83 54t-91 17q-104 0 -171.5 -70.5t-67.5 -178.5q0 -31 5 -56.5t11 -54.5l-27 -12q-12 12 -29.5 31.5t-33 47t-25.5 62.5t-10 78q0 74 29.5 134t81 103t120 68t148.5 25 q88 0 168 -29t140 -84t95 -133t35 -176q0 -66 -18.5 -141.5t-82 -175t-185 -229.5t-330.5 -304q66 0 128 1t128 1q82 2 133 5t87 17.5t64.5 41t63.5 75.5h59q-27 -61 -44 -104t-30.5 -83t-26.5 -84t-32 -110h-49q-2 57 -36 66.5t-105 11.5h-430q-27 0 -44.5 -1t-29.5 -2 t-22.5 -4t-22.5 -7z" />
<glyph unicode="3" d="M31 205q0 47 28.5 82t77.5 35q27 0 44.5 -10.5t27.5 -25t16 -30.5t11 -29q10 -31 22 -64.5t32.5 -61t52.5 -46t81 -18.5q57 0 108.5 26.5t89 71.5t59 104.5t21.5 125.5q0 84 -33.5 144t-86 100t-114.5 59.5t-120 19.5q-37 0 -80 -6l-6 41q29 14 66 30.5t75 39.5 q92 59 143.5 139t51.5 164q0 53 -19.5 90t-48 59.5t-62.5 32.5t-62 10q-84 0 -136.5 -53t-52.5 -127q0 -35 12 -74l-34 -12q-20 25 -43 64.5t-23 101.5q0 45 20.5 91t60.5 83t98.5 60.5t135.5 23.5q76 0 136.5 -25.5t102.5 -67.5t63.5 -94.5t21.5 -105.5q0 -90 -51 -162.5 t-127 -122.5q-10 -6 -19.5 -12t-19.5 -12q10 0 31 -4q63 -10 117.5 -42t94.5 -83t62.5 -117t22.5 -139q0 -84 -35 -171t-97.5 -159t-152.5 -118t-201 -46q-68 0 -133 19.5t-115.5 52.5t-82 77t-31.5 91z" />
<glyph unicode="4" d="M41 426q2 45 4 71.5t4 43t5 27t9 20.5q18 33 161 248t384 577h160q-2 -72 -3 -126t-2 -102t-1 -96.5v-105.5v-432h182v-125h-182v-133q0 -72 7 -115t26.5 -66.5t53.5 -32.5t89 -16v-63q-78 4 -152.5 5t-158.5 1q-82 0 -145.5 -1t-131.5 -5v66q86 6 132 16t67.5 45 t26 104.5t4.5 194.5h-539zM117 551h463l4 711z" />
<glyph unicode="5" d="M84 186q0 47 27.5 76t68.5 29q25 0 42.5 -9.5t29.5 -23.5t19.5 -28.5t11.5 -24.5q10 -23 15 -47.5t15 -46.5q10 -27 26.5 -43.5t33 -24.5t33 -10t28.5 -2q68 0 123 33.5t93 88t59.5 124t21.5 141.5q0 80 -24.5 143.5t-65.5 108.5t-97.5 69.5t-117.5 24.5q-53 0 -91 -13.5 t-64.5 -32t-43 -40t-28.5 -39.5l-29 4l68 780q70 -8 127 -12t124 -4q102 0 202 12.5t192 57.5l18 -19q-45 -70 -86 -117t-90 -75.5t-110.5 -41t-147.5 -12.5q-53 0 -92 3.5t-86 9.5l-29 -328q23 12 75 33.5t138 21.5q100 0 181 -39t137.5 -101t86 -143t29.5 -165 q0 -94 -35.5 -190.5t-101 -173.5t-159 -125t-208.5 -48q-70 0 -128 19.5t-101 50.5t-66.5 69.5t-23.5 79.5z" />
<glyph unicode="6" d="M84 539q0 178 57.5 332.5t154.5 276.5t226 203t275 109l16 -41q-47 -20 -103.5 -52t-129.5 -107q-100 -104 -164 -233.5t-105 -270.5q18 18 41 38.5t53.5 38t69.5 28.5t90 11q82 0 154 -34.5t123 -93t80.5 -137.5t29.5 -167q0 -104 -33.5 -190t-90 -148.5t-132 -96.5 t-157.5 -34q-98 0 -181.5 39t-144.5 112t-95 178.5t-34 238.5zM276 440q0 -66 12.5 -136.5t42 -129.5t76 -98t113.5 -39q80 0 123 51t64.5 118.5t25.5 133.5t4 94q0 117 -23.5 182.5t-47.5 100.5q-62 84 -160 80q-102 -4 -166 -100.5t-64 -256.5z" />
<glyph unicode="7" d="M113 1063q14 70 24 117t17.5 87t15.5 85t20 112q25 -20 47.5 -30.5t57.5 -15.5t90 -7t143 -2h211q35 0 71 1t71 3q41 4 58 8t46 15l19 -13q-49 -86 -101.5 -191.5t-102.5 -220t-96.5 -231t-80 -225.5t-54 -204t-20.5 -163q0 -76 15.5 -116.5t31.5 -71.5h-373 q25 57 42.5 98t37 84t46 97.5t67.5 138.5q43 86 95 194.5t105.5 221t105.5 220t95 193.5q-57 2 -106 2h-103q-109 0 -179.5 -7t-118.5 -28.5t-81.5 -61.5t-68.5 -105z" />
<glyph unicode="8" d="M90 354q0 78 28.5 147.5t76.5 116.5q39 39 83 63t87 46q-29 18 -68 46t-75 71t-61.5 101.5t-25.5 137.5q0 82 31 147.5t82 112t117.5 72t140.5 25.5q80 0 148.5 -27t118.5 -71t78 -101t28 -121q0 -70 -27 -121t-63.5 -88t-74.5 -60.5t-63 -35.5q31 -23 78 -56.5t91 -84.5 t75 -119t31 -154q0 -82 -32 -159.5t-88 -139t-135 -98.5t-173 -37q-78 0 -151 28t-130 79t-92 122.5t-35 157.5zM262 354q0 -84 21.5 -144t57.5 -100t82 -59.5t93 -19.5q45 0 89 16t80 50t57.5 84t21.5 118q0 70 -23.5 126t-69.5 104.5t-111.5 90.5t-147.5 85 q-78 -66 -114 -158t-36 -193zM311 1159q0 -63 24.5 -110.5t65.5 -84t95.5 -68t113.5 -62.5q59 59 89 137t30 162q0 113 -63.5 180t-155.5 67q-86 0 -142.5 -63.5t-56.5 -157.5z" />
<glyph unicode="9" d="M68 971q0 104 33.5 191t91 148.5t132 95.5t156.5 34q98 0 181 -39t144.5 -111.5t95.5 -178t34 -239.5q0 -176 -57.5 -330.5t-154.5 -276.5t-226 -202.5t-275 -109.5l-16 41q43 18 101.5 50t131.5 110q100 104 164 233t105 270q-18 -18 -41 -38.5t-53.5 -38t-69.5 -28.5 t-90 -11q-84 0 -155 34.5t-122 93t-80.5 136.5t-29.5 166zM283 979q0 -117 23.5 -182.5t47.5 -100.5q62 -84 160 -80q102 4 165.5 100.5t63.5 256.5q0 63 -12 134t-42 130t-76 98t-113 39q-53 0 -89 -23.5t-60.5 -61.5t-38 -84t-20.5 -90t-8 -81t-1 -55z" />
<glyph unicode=":" horiz-adv-x="512" d="M178 109q0 49 35 84.5t86 35.5q49 0 85 -35.5t36 -84.5q0 -51 -36 -86t-85 -35q-51 0 -86 35t-35 86zM178 797q0 49 35 85t86 36q49 0 85 -36t36 -85q0 -51 -36 -86t-85 -35q-51 0 -86 35t-35 86z" />
<glyph unicode=";" horiz-adv-x="512" d="M160 115q0 47 32.5 77.5t79.5 30.5q27 0 52.5 -12t47 -36.5t35 -61.5t13.5 -86q0 -43 -13.5 -91.5t-43 -90.5t-78.5 -74.5t-123 -46.5v71q53 10 94 43t41 86q0 35 -17.5 49.5t-33.5 24.5q-25 14 -55.5 39.5t-30.5 77.5zM160 799q0 49 34.5 85t86.5 36q49 0 84.5 -36 t35.5 -85q0 -51 -35.5 -86t-84.5 -35q-51 0 -86 35t-35 86z" />
<glyph unicode="&#x3c;" horiz-adv-x="1366" d="M0 653v144l1366 655v-131l-1229 -596l1229 -600v-131z" />
<glyph unicode="=" horiz-adv-x="1366" d="M0 354v119h1366v-119h-1366zM0 715v121h1366v-121h-1366z" />
<glyph unicode="&#x3e;" horiz-adv-x="1366" d="M0 -6v131l1229 600l-1229 596v131l1366 -655v-144z" />
<glyph unicode="?" horiz-adv-x="681" d="M150 109q0 49 34.5 84.5t85.5 35.5q49 0 85 -35.5t36 -84.5q0 -51 -36 -86t-85 -35q-51 0 -86 35t-34 86zM188 1376q0 33 28 62.5t87 29.5q51 0 109.5 -24.5t107.5 -73.5t82 -124t33 -175q0 -72 -21.5 -136.5t-63.5 -115.5t-102.5 -85t-136.5 -42v-368h-88v548h70 t73.5 5.5t70.5 16.5t63 34l14 14t21.5 26.5t20.5 41t9 55.5q0 43 -14 74.5t-38 55.5t-53.5 38t-60.5 24q-27 8 -52 12.5t-52 10.5q-45 10 -76 32.5t-31 63.5z" />
<glyph unicode="@" horiz-adv-x="1835" d="M141 498q0 117 30 233.5t86 223t135 198.5t178.5 159.5t216 106.5t247.5 39q156 0 278 -55t206 -147.5t129 -213t45 -254.5q0 -129 -38 -246.5t-98.5 -206.5t-138.5 -141.5t-157 -52.5q-31 0 -61 9.5t-53.5 33t-36.5 61.5t-9 97q-47 -84 -119 -140.5t-166 -56.5 q-49 0 -96 20.5t-85 63.5t-61.5 108.5t-23.5 158.5q0 117 39 222t101.5 184t142 126t163.5 47q86 0 140.5 -45t83.5 -127l26 115h123l-61 -277q-6 -33 -19.5 -93t-27 -124.5t-22.5 -121t-9 -83.5q0 -35 13 -61.5t52 -26.5q45 0 100.5 44t101.5 120t78 176.5t32 212.5 q0 125 -42 233.5t-119 188.5t-182.5 126t-230.5 46q-123 0 -225 -37.5t-186 -103.5t-146.5 -153t-105.5 -186t-64.5 -204.5t-21.5 -206.5q0 -141 45 -262t132 -209t215 -138t296 -50q143 0 255.5 34t194.5 80t135.5 94t81.5 77l50 -62q-92 -98 -191.5 -158.5t-196 -92 t-184.5 -43t-162 -11.5q-190 0 -341.5 55.5t-256 154.5t-160 237.5t-55.5 304.5zM696 444q0 -14 2 -48t16.5 -69.5t46.5 -62t89 -26.5q59 0 107.5 34.5t84 90t62 124t42 134t21.5 121.5t4 89q-6 76 -48 123t-109 47q-74 0 -133.5 -60t-100.5 -147t-62.5 -183.5t-21.5 -166.5 z" />
<glyph unicode="A" horiz-adv-x="1492" d="M0 0v66q68 6 110 17t69.5 34.5t47 63.5t41.5 104q98 272 195.5 540.5t195.5 540.5q-10 16 -15 24.5t-17 24.5q49 10 82.5 19.5t59.5 20.5t47.5 24.5t45.5 31.5q18 -63 31.5 -104t24 -74t20.5 -63.5t25 -73.5l272 -850q27 -84 47.5 -136t47 -82t62 -43t95.5 -19v-66 q-72 2 -148.5 3t-152.5 1t-150.5 -1t-150.5 -3v66q37 2 69.5 6t56 14t38 28.5t14.5 49.5q0 23 -14.5 79t-33 121.5t-38 127t-29.5 96.5h-495q-20 -61 -40 -123t-38 -121q-14 -41 -28.5 -92t-14.5 -74q0 -39 20.5 -60.5t51 -32.5t65.5 -14t61 -5v-66q-66 2 -131 3t-131 1 q-68 0 -134 -1t-134 -3zM485 680h433q-25 76 -52.5 159t-55.5 163.5t-54.5 155.5t-53.5 134z" />
<glyph unicode="B" horiz-adv-x="1280" d="M37 0v68q70 6 111.5 18t54.5 59q2 14 5 55.5t4 88.5t2 91t1 64v469q-2 143 -3 220t-5 124q-4 37 -13.5 58.5t-28 34t-49 18.5t-79.5 12v66q29 0 51.5 -1t38.5 -1h57q29 0 99.5 1t150.5 3q82 0 155 1t101 1q88 0 164 -10t135 -45q47 -27 78 -62t48.5 -72.5t24.5 -75.5 t7 -71q0 -72 -27.5 -130t-78 -102t-119 -73t-148.5 -41q68 -8 111 -15.5t94 -27.5q115 -47 173 -134t58 -198q0 -55 -15 -111.5t-46 -106.5t-77 -90t-107 -60q-47 -16 -112 -21.5t-177 -5.5q-23 0 -80 1t-122.5 2t-125 2t-84.5 1h-60.5t-56.5 -2h-55t-55 -2zM414 322 q2 -96 7 -141.5t32 -71.5q14 -14 38.5 -22.5t51 -13.5t52.5 -7.5t44 -2.5q123 0 193.5 44.5t105.5 102.5t44 114.5t9 83.5q0 72 -26.5 133t-73.5 106q-61 55 -135 68.5t-154 13.5h-32.5t-58.5 -1t-60.5 -1h-36.5v-405zM414 799q35 -1 67 -1q80 0 141 4q85 5 150 34 q51 23 84 57.5t51.5 72.5t24.5 74.5t6 65.5q0 57 -19.5 106.5t-62.5 87.5q-66 57 -143.5 68.5t-163.5 11.5h-67.5t-67.5 -2v-579z" />
<glyph unicode="C" horiz-adv-x="1449" d="M68 709q0 178 60 320t161.5 242.5t233.5 154t278 53.5q90 0 162.5 -17.5t129 -43t100.5 -54.5t75 -53l104 88l6 -428l-43 -4q-16 53 -36.5 104t-61.5 111q-80 121 -186.5 174t-216.5 53q-94 0 -187.5 -38t-167 -114.5t-119 -193.5t-45.5 -275q0 -135 37 -264t110 -230 t178 -162.5t243 -61.5q100 0 177 29.5t132 73.5t93 92t65 85l59 -37q-106 -172 -255.5 -260t-354.5 -88q-152 0 -285 52.5t-232.5 149.5t-156.5 234.5t-57 307.5z" />
<glyph unicode="D" horiz-adv-x="1579" d="M41 0v68q63 6 99 15t52.5 34.5t19.5 77t3 143.5q0 43 1 86t1 86v491q0 25 -1 70t-2 92t-4 88t-9 58q-16 39 -52 50t-108 19v68q51 0 100 -1t101 -1q25 0 87 1t134 3t135.5 3t89.5 1q63 0 148.5 -5t176.5 -31.5t181 -82t166 -155.5q76 -98 110.5 -215t34.5 -234 q0 -72 -14 -148.5t-45 -151.5t-82 -143.5t-125 -123.5q-80 -61 -166 -94t-167 -48.5t-150.5 -17.5t-114.5 -2h-65.5t-100.5 1t-101 1h-69h-128t-136 -2zM424 310q0 -27 1 -53t2 -46.5t1 -28.5q2 -23 8 -43t28.5 -35.5t65.5 -25.5t121 -10q143 0 257 51t194 142t122 215 t42 272q0 88 -20.5 181t-69.5 175q-61 104 -140.5 161.5t-158 84t-148.5 30.5t-113 4h-92t-100 -2v-1022v-50z" />
<glyph unicode="E" horiz-adv-x="1323" d="M45 0v66q57 4 91 14t50.5 27.5t20.5 43t4 60.5q2 37 3 76t2 85t1 104.5v135.5v385v71t-2 94t-5 90t-9 57q-14 41 -48 51t-108 20v66h1063q25 -61 43 -103.5t34.5 -79t35 -76.5t47.5 -97l-39 -29q-61 70 -96 107.5t-53.5 58t-29 30t-24.5 21.5q-33 31 -65.5 50.5 t-75.5 30.5t-103.5 15t-148.5 6h-211v-587h203q72 0 116.5 7t74.5 33.5t47.5 73.5t35.5 127h53q-6 -145 -6 -293q0 -143 6 -280h-53q-18 88 -37.5 137t-54.5 73.5t-88 30t-139 5.5h-158v-349q0 -104 5 -162.5t31.5 -87t84 -34.5t162.5 -8h108q63 0 107.5 6t90.5 38.5 t104.5 103.5t152.5 200l45 -25q-23 -66 -36 -111t-25.5 -84.5t-25 -85t-30.5 -108.5h-1151z" />
<glyph unicode="F" horiz-adv-x="1193" d="M45 0v66q82 8 118 23t46 67q2 8 3 17t2 28.5t2 55.5t1 97v707q0 111 -3 173t-19.5 93t-51 40t-98.5 13v66h1049q25 -57 42 -97t33.5 -77t36 -78t49.5 -102l-38 -29q-94 106 -153.5 168.5t-113 95.5t-115 43t-159.5 10h-256v-589h100q82 0 135.5 4t88 26.5t56 71.5 t40.5 139h51q-2 -82 -4 -172t-2 -151q0 -66 1 -122.5t5 -123.5h-51q-14 78 -31.5 125t-47.5 73.5t-74 36t-114 11.5h-153v-291v-66t2 -83t6 -78.5t10 -51.5q18 -45 61.5 -56t123.5 -17v-66q-72 2 -142.5 4t-142.5 2q-74 0 -146.5 -2t-146.5 -4z" />
<glyph unicode="G" horiz-adv-x="1622" d="M70 719q0 168 64.5 307t172 240.5t244.5 158t285 56.5q98 0 182 -18.5t151.5 -44t119.5 -53.5t85 -46l86 88l8 -440l-49 -6q-20 59 -46.5 123.5t-84.5 129.5q-31 37 -72.5 72t-92 61.5t-110 43t-126.5 16.5q-117 0 -219.5 -48t-178 -136t-118.5 -213t-43 -279 q0 -49 5 -107.5t18.5 -121t37 -125t60.5 -117.5q43 -66 97 -111t110.5 -71.5t112.5 -37.5t105 -11q57 0 108.5 12t91.5 30.5t67.5 39t42.5 36.5q10 12 17 22.5t12.5 30t7.5 54.5t2 94q0 82 -9.5 124t-33.5 60q-10 6 -21.5 11.5t-31 9.5t-48 7t-73.5 9v64q76 -2 150.5 -4 t150.5 -2q66 0 126 1t140 5v-64q-57 -8 -88 -19t-45.5 -52t-16.5 -126t-2 -241q-45 -25 -101 -54.5t-127 -54t-157 -42t-188 -17.5q-182 0 -326.5 64.5t-245 171t-153.5 243t-53 277.5z" />
<glyph unicode="H" horiz-adv-x="1662" d="M41 0v66q47 4 92 14t62 45q8 16 12 53t6 82t2 94v90v392v119.5t-2 122t-4 109.5t-4 83q-4 33 -13.5 53t-29 31.5t-49 16.5t-72.5 9v66q78 -4 145.5 -6t135.5 -2q72 0 144.5 2t143.5 6v-66q-47 -4 -77.5 -8t-50 -12t-30 -20.5t-16.5 -30.5t-11 -53t-8 -94.5t-3 -151.5 v-224q123 -8 242.5 -9t242.5 -1q61 0 106.5 1t83 2t74.5 3t82 6v92.5t-1 123t-3 120t-4 84.5q-4 55 -12 87t-27.5 48.5t-57.5 22.5t-100 14v66q72 -2 144.5 -4t146.5 -2q72 0 141.5 2t141.5 4v-66q-66 -6 -106 -19t-54 -54q-4 -12 -6 -44t-3 -69t-1 -70.5v-52.5v-704 q2 -104 5 -162t19.5 -86.5t50 -37.5t95.5 -15v-66q-72 4 -142.5 6t-142.5 2t-144.5 -2t-144.5 -6v66q76 6 117 15t60.5 39t22.5 90t3 171v152.5t2 152.5q-49 2 -91 5t-83 4t-83 2t-93 1q-115 0 -240 -4t-241 -8v-150.5t2 -152.5q0 -113 4 -173t23.5 -90t58.5 -39t108 -15 v-66q-145 6 -284 6q-143 0 -285 -6z" />
<glyph unicode="I" horiz-adv-x="641" d="M43 0v66q63 6 98 16t51.5 32.5t20.5 63.5t4 109q2 59 2 120.5v122.5v375q0 94 -1 155.5t-2 100.5t-3 62.5t-4 42.5q-4 33 -13.5 53t-27.5 32.5t-48 18.5t-77 10v66q70 -6 139.5 -10t141.5 -4q68 0 135 4t137 10v-66q-66 -6 -100.5 -17t-51 -40t-19.5 -85t-3 -153v-731 q0 -94 3 -148t19.5 -84t51 -40t100.5 -16v-66q-70 4 -135.5 6t-130.5 2q-72 0 -143.5 -2t-143.5 -6z" />
<glyph unicode="J" horiz-adv-x="598" d="M-307 -328q0 33 24.5 59.5t71.5 26.5q18 0 49 -9t74 -56q12 -12 23.5 -25.5t21.5 -25.5q16 -14 37.5 -28.5t56.5 -14.5q45 0 74 29.5t39 64.5q8 23 13 68.5t8 105t5.5 127t3.5 130t1 115v85.5v587v84.5t-2.5 113.5t-4.5 109.5t-6 73.5q-10 51 -48 64.5t-120 23.5v66 q143 -6 289 -6q139 0 279 6v-66q-55 -6 -89 -13t-53.5 -22.5t-26.5 -41t-10 -66.5q-4 -53 -4 -142t-2 -200v-590q0 -80 -2 -156.5t-11 -149.5t-30.5 -141.5t-58.5 -131.5q-20 -35 -50 -73t-72 -68.5t-96 -50t-124 -19.5q-51 0 -98.5 11t-83 30.5t-57 49t-21.5 66.5z" />
<glyph unicode="K" horiz-adv-x="1409" d="M39 0v66q37 2 84 10t70 37q8 10 12 35.5t7 55t4 59.5t1 48v76.5t1 120t1 120v81.5v295q-2 111 -4 191.5t-12 111.5q-10 41 -46 52t-114 21v68q137 -6 279 -6q141 0 282 6v-70q-45 -4 -76.5 -8t-52 -15.5t-32 -34t-15.5 -60.5q-2 -16 -4 -50t-3 -71t-1 -72v-55v-322 q57 59 122.5 127t128 134.5t117 125t89.5 101.5q27 33 42 53t23 34.5t10 23.5t2 20q0 39 -37.5 50t-130.5 21v68q135 -6 269 -6q127 0 260 6v-68q-53 -4 -95 -18t-81 -41t-79 -67t-89 -91q-80 -86 -158 -171t-156 -171q25 -29 50.5 -58.5t52.5 -57.5q14 -18 48 -58.5 t75 -91.5t87 -107.5t89 -108.5t76.5 -93t50.5 -62q31 -37 56.5 -59.5t49 -34.5t48 -17t57.5 -7v-66q-66 2 -134.5 3t-136.5 1t-136 -1t-136 -3v66q53 2 84 9t31 38q0 16 -8.5 28.5t-28.5 40.5l-414 506l-98 -96v-129q2 -94 3 -180t7 -123q8 -53 48 -69.5t126 -24.5v-66 q-84 4 -146.5 5t-129.5 1q-72 0 -144.5 -2t-144.5 -4z" />
<glyph unicode="L" horiz-adv-x="1323" d="M45 0v68q82 8 120 25.5t42 82.5q0 18 1 37.5t2 56.5t3 97.5t4 158.5v535q0 18 -1 54t-2 73t-4 69.5t-7 47.5q-14 41 -47 53t-111 22v68q66 -4 137.5 -5t143.5 -1q143 0 288 6v-68q-43 -4 -73.5 -8t-51 -11t-33 -18.5t-20.5 -31.5q-12 -31 -15 -108t-5 -222v-412 q0 -106 1 -192t5 -156q2 -25 7 -58.5t28 -53.5q20 -20 72.5 -29.5t111.5 -13.5q34 -2 67 -2q22 0 46 2q54 2 84 4q43 2 89 11t97 48t108.5 120t124.5 228l70 -22q-25 -76 -41 -128.5t-30.5 -100.5t-30 -100t-35.5 -126h-1145z" />
<glyph unicode="M" horiz-adv-x="1921" d="M27 0v66q63 6 99 20t53.5 49t21.5 96.5t6 161.5l18 817q0 53 -4 84t-19.5 48.5t-47 24.5t-86.5 13v66q51 -2 102 -3t102 -1t101.5 1t101.5 3l479 -1159l510 1159q49 0 98.5 -1t100.5 -1t101.5 1t101.5 1v-66q-63 -6 -98 -15t-52.5 -30.5t-20.5 -59.5t-3 -101l4 -879 q2 -68 5 -110t19.5 -66.5t50 -35.5t95.5 -17v-66q-72 2 -141.5 3t-141.5 1q-66 0 -130 -1t-144 -3v66q59 4 95 11t55.5 25.5t26.5 51t7 90.5v1083l-594 -1343h-35l-563 1341l-12 -948q0 -92 2 -149.5t18.5 -91.5t52 -48t101.5 -22v-66q-53 2 -108.5 3t-108.5 1 q-55 0 -102.5 -1t-116.5 -3z" />
<glyph unicode="N" horiz-adv-x="1579" d="M18 1380v66q47 -2 95.5 -3t95.5 -1t94 1t94 3q20 -33 39 -59.5t40.5 -56.5t48 -64.5t65.5 -81.5q55 -68 149.5 -181.5t198.5 -238.5t200.5 -239.5t155.5 -184.5q2 215 2 353v224.5t-1 134.5t-1 85q-2 88 -8 136t-29.5 70.5t-70.5 28.5t-131 8v66q63 -2 125.5 -3t128.5 -1 q61 0 118.5 1t126.5 3v-66q-51 -4 -82.5 -9t-51 -23.5t-28 -54.5t-10.5 -101q-2 -27 -3 -114t-3 -206.5t-4 -258t-4 -264.5t-4 -225t-2 -144h-33l-1028 1232v-120.5v-182v-211v-208t2 -171t4 -102.5q4 -47 18.5 -75.5t42 -44t71.5 -21.5t108 -10v-66q-68 2 -134.5 3 t-133.5 1q-61 0 -125 -1t-127 -3v66q47 0 91 6t66 37q8 10 12.5 23t7.5 39t5 68t6 109l12 936q-29 25 -52 40t-46 26.5t-49.5 17.5t-61.5 12z" />
<glyph unicode="O" horiz-adv-x="1622" d="M70 727q0 172 59 309.5t157.5 234.5t226.5 151.5t265 58.5h21q139 -1 268 -49q139 -52 244.5 -151t169 -242.5t63.5 -319.5q0 -182 -63.5 -321.5t-167 -235.5t-234.5 -145.5t-266 -49.5q-152 0 -286 56.5t-236.5 157t-161.5 240.5t-59 306zM324 741q0 -129 30.5 -257 t92 -229t154.5 -164.5t220 -63.5q125 0 215 66.5t146.5 169t83 226t26.5 240.5q0 68 -12 145.5t-37.5 155.5t-65.5 149.5t-96.5 126t-130.5 86.5q-66 28 -145 27h-21q-129 -6 -217 -72.5t-142 -165t-77.5 -216t-23.5 -224.5z" />
<glyph unicode="P" horiz-adv-x="1150" d="M41 0v68q78 8 116 22t48 62q2 16 5 59t4 92t2 95t1 71v420q0 27 -1 89t-2 131t-5 127t-10 75q-14 37 -48 47t-110 20v64q63 0 125.5 -1t124.5 -1q18 0 67.5 1t104.5 3q57 0 107.5 1t70.5 1q78 0 157 -8t150 -43q84 -41 143.5 -126t59.5 -214q0 -45 -10.5 -93.5t-32 -94.5 t-56 -86t-85.5 -68q-39 -20 -85 -31.5t-108.5 -18t-148.5 -7.5t-207 -1q0 -73 -1 -147q0 -37 -1 -72q0 -36 1 -68q1 -66 2 -115.5t5 -72.5q4 -35 14.5 -54.5t29.5 -30.5t50 -17t74 -10v-68q-145 6 -287 6q-133 0 -264 -6zM418 721q72 0 123 1t91 5t70.5 13.5t61.5 25.5 q45 25 76.5 61.5t52 77.5t29 83t8.5 77q0 78 -34 146.5t-105 113.5q-33 20 -65 31.5t-74 16.5t-98 5h-136v-657z" />
<glyph unicode="Q" horiz-adv-x="1622" d="M68 729q0 156 55 292t153.5 237.5t233.5 161t297 59.5q147 0 280.5 -56.5t233.5 -158t159.5 -240.5t59.5 -305q0 -137 -41 -258t-115.5 -216t-180 -162t-234.5 -93q-31 -8 -61.5 -12.5t-59.5 -12.5q-35 -10 -66.5 -21.5t-64.5 -25.5q-23 -10 -46.5 -19.5t-45.5 -19.5h39 q57 -4 108 -22.5t96 -44t83 -57t71 -58.5q33 -29 68.5 -57.5t75.5 -52t84 -39t91 -15.5q127 0 192.5 79t84.5 204h53q-4 -47 -16.5 -105.5t-69.5 -132.5q-49 -61 -106.5 -96t-111.5 -52.5t-98 -21.5t-65 -4q-72 0 -127 17.5t-99 45t-80 64.5t-73 78q-31 33 -64.5 69.5 t-69.5 66.5t-71.5 49.5t-68.5 19.5q-39 0 -60.5 -15.5t-21.5 -38.5q0 -10 2 -14q4 -16 11 -28.5t12 -28.5q8 -18 8 -45q0 -53 -34 -83t-77 -30q-41 0 -76.5 28.5t-35.5 80.5q0 55 46 105t111.5 93t140 79t134.5 60q-139 20 -257 83t-204 161t-134 227.5t-48 280.5zM322 735 q0 -121 28.5 -245.5t89 -227t154.5 -168t225 -65.5q117 0 206 61.5t148.5 159.5t89 220t29.5 243q0 129 -32.5 258t-98 230.5t-163.5 161.5q-88 55 -201 55q-11 0 -23 -1q-117 -6 -203 -67.5t-141 -156.5t-81.5 -215t-26.5 -243z" />
<glyph unicode="R" horiz-adv-x="1409" d="M41 0v66q63 6 98 14t51.5 37.5t19.5 90t3 171.5v590v67t-2 99.5t-5 99.5t-9 70q-10 41 -47 53t-109 22v66q66 0 133.5 -1t132.5 -1h50t78 1t79 1h53q78 0 166 -5t154 -30q53 -18 94 -52t68.5 -77t42 -92t14.5 -98q0 -35 -10.5 -86.5t-38.5 -104.5q-27 -49 -58.5 -83 t-65.5 -57.5t-65.5 -38.5t-58.5 -28q98 -125 194.5 -248.5t194.5 -246.5q31 -39 53.5 -63.5t45 -38t49 -20.5t67.5 -11v-66q-43 2 -85 3t-85 1q-41 0 -77 -1t-79 -3q-29 39 -48 66.5t-37.5 53t-41 54.5t-55.5 72q-80 102 -159.5 203.5t-159.5 205.5q-23 0 -43.5 -1t-42.5 -1 q-23 0 -42.5 1t-41.5 1v-164.5t1 -117.5t2 -82t1 -58q2 -55 11 -85.5t31.5 -46t64.5 -22.5t110 -13v-66q-76 4 -150.5 6t-150.5 2q-72 0 -140.5 -2t-154.5 -6zM416 727q23 -2 44 -3t44 -1q70 0 118 8t82.5 21.5t57 30t41.5 34.5q43 43 67.5 104.5t24.5 139.5 q0 72 -22.5 135.5t-65.5 108.5q-29 27 -55.5 42t-58 22t-69.5 9t-87 2h-121v-653z" />
<glyph unicode="S" horiz-adv-x="1067" d="M53 438l53 4q12 -57 28 -111.5t54 -111.5q59 -86 147.5 -133t180.5 -47q45 0 98.5 15.5t98.5 50t74.5 89t29.5 132.5q0 53 -23.5 114.5t-95.5 114.5q-23 14 -42 25.5t-47.5 23.5t-70.5 25.5t-108 36.5q-41 14 -99.5 37.5t-111.5 67.5t-91 112.5t-38 173.5q0 86 31 161.5 t87 131t134 87t174 31.5q100 0 167 -28.5t124 -61.5l84 64l47 -420l-47 -10q-10 37 -31.5 102.5t-63.5 129t-108.5 109.5t-165.5 46q-66 0 -116 -20.5t-83.5 -55.5t-50 -79t-16.5 -89q0 -51 17.5 -99t54.5 -87q23 -25 48 -41.5t57 -31.5t75 -28.5t98 -31.5q53 -16 121 -42 t127 -74t99 -123t40 -189q0 -100 -37.5 -181.5t-104.5 -137.5t-154 -87t-185 -31q-68 0 -119 10.5t-91 26t-68.5 33.5t-51.5 33l-112 -74q0 80 -1 133t-3.5 98t-5.5 92.5t-7 114.5z" />
<glyph unicode="T" horiz-adv-x="1449" d="M-2 1057q25 63 40 108t28.5 86t28 86t32.5 111h1190q20 -68 33.5 -114t28 -87t29.5 -84t38 -106l-45 -21q-29 39 -66 88.5t-73.5 94.5t-70.5 80.5t-56 48.5q-20 12 -42 18t-54.5 8t-83 2h-130.5v-1014v-58.5t2 -62t4.5 -56t6.5 -40.5q6 -23 19 -36t38 -21t63.5 -13 t96.5 -9v-66q-84 2 -165 4t-165 2q-86 0 -169 -2t-169 -4v66q76 2 120 9t65.5 19t27.5 26.5t10 31.5q4 18 6 43.5t4.5 54.5t2.5 58.5v53.5v1014h-172q-55 -2 -97.5 -10t-89.5 -53q-12 -10 -21.5 -20.5t-31 -38t-60 -78t-108.5 -140.5z" />
<glyph unicode="U" horiz-adv-x="1536" d="M14 1380v66q66 -2 136.5 -4t142.5 -2t143.5 2t145.5 4v-66q-72 -6 -111 -15t-57.5 -40t-22.5 -90t-4 -164v-412q0 -82 5 -169t40 -171q31 -74 78 -124t101.5 -79.5t109.5 -42t102 -12.5q84 0 160 31t135 96q45 49 74 106.5t45 149t22.5 227.5t6.5 339q0 129 -3 200.5 t-22.5 107.5t-61.5 46t-120 16v66q61 -2 123.5 -3t124.5 -1q55 0 111.5 1t111.5 3v-66q-59 -4 -98 -14t-56 -53q-6 -16 -10 -36t-8 -79q-8 -104 -9 -162.5t-1 -77.5q-6 -164 -11.5 -271t-12.5 -180t-19.5 -123t-30.5 -95q-41 -92 -102.5 -153.5t-133 -98.5t-147.5 -51.5 t-143 -14.5q-129 0 -233.5 42t-176.5 108q-55 53 -86 113.5t-46.5 121t-18.5 118.5t-3 110v583q0 68 -5 107t-22.5 60.5t-51 30.5t-91.5 15z" />
<glyph unicode="V" horiz-adv-x="1409" d="M0 1380v68q72 -4 148.5 -5t152.5 -1q156 0 309 6v-68q-47 -4 -84 -7t-61.5 -12t-36.5 -27.5t-12 -49.5q0 -14 13 -63.5t34.5 -116t47.5 -142t50.5 -145t44 -124t27.5 -79.5q20 -61 34.5 -99t26 -71.5t23.5 -73.5t31 -104q51 133 96 247t83 213t70.5 187t61.5 172 q6 18 15 44t17.5 53.5t14.5 52.5t6 39q0 37 -19.5 57.5t-48 31.5t-62.5 14t-62 3v68q119 -6 237 -6q121 0 242 6v-68q-57 -10 -92 -26.5t-61.5 -52t-54.5 -100t-69 -169.5q-104 -268 -209.5 -532t-212.5 -533h-45l-430 1192q-23 61 -42 101t-43.5 65t-57.5 37t-82 18z" />
<glyph unicode="W" horiz-adv-x="2134" d="M-2 1380v66q72 -2 142.5 -3t142.5 -1t144.5 1t143.5 3v-68q-31 0 -59.5 -2t-50 -11t-34.5 -26.5t-13 -50.5q0 -14 7 -42.5t17.5 -61.5t20.5 -63.5t16 -49.5q8 -27 28.5 -87t47.5 -136t55.5 -160t55 -160.5t48 -138t31.5 -92.5l279 801q-27 80 -46.5 131t-44 80.5t-58 45 t-91.5 25.5v66q78 -2 154 -3t151 -1q78 0 153 1t151 3v-66q-100 -4 -148.5 -18t-48.5 -78q0 -25 6 -51.5t23 -81.5l153 -492q20 -59 33.5 -102t26 -83t24.5 -85t29 -113l303 822q6 18 15.5 40.5t16.5 47t12 46t5 36.5q0 39 -16.5 61.5t-44 32.5t-62.5 13t-71 5v66 q61 -2 122.5 -3t122.5 -1q59 0 117.5 1t116.5 3v-66q-53 -8 -86 -21t-59.5 -44t-51 -85t-59.5 -147l-424 -1106h-55l-332 1008l-361 -1008h-45q-59 166 -118.5 332t-120.5 332q-47 129 -94.5 257t-94.5 257q-23 63 -41 105.5t-42.5 68t-57.5 36.5t-84 15z" />
<glyph unicode="X" horiz-adv-x="1366" d="M0 0v66q31 2 59.5 8t61.5 24.5t71.5 54t88.5 99.5q12 16 27.5 36.5t47 65.5t86 123t144.5 209q-78 129 -158 256t-162 254q-37 55 -64.5 88t-57 52.5t-63.5 28.5t-81 15v68q150 -6 305 -6q160 0 320 6v-70q-29 0 -57.5 -2t-52 -10t-39 -23.5t-15.5 -42.5q0 -14 4 -27 l8 -26q12 -27 44 -82t69 -114.5t71.5 -113.5t51.5 -81q31 41 65.5 90t68.5 98.5t60.5 92.5t40.5 71q6 16 14.5 38t8.5 46q0 53 -44 66.5t-120 21.5l-2 68q129 -6 256 -6q129 0 256 6v-68q-61 -8 -103.5 -25.5t-81 -54t-83 -97t-109.5 -154.5l-182 -263q86 -135 168 -268 t168 -268q37 -59 69.5 -95t63 -55.5t61.5 -25.5t66 -8v-66q-78 2 -153 3t-150 1q-74 0 -149 -1t-148 -3v66q23 2 51 4t53 10t41 22.5t16 38.5q0 18 -11 39t-28 49q-59 94 -118.5 189.5t-118.5 191.5l-234 -338q-23 -31 -43 -67.5t-20 -69.5q0 -25 13.5 -38t35 -20t51 -9 t64.5 -2v-66q-63 2 -126 3t-126 1q-61 0 -124 -1t-126 -3z" />
<glyph unicode="Y" horiz-adv-x="1409" d="M0 1380v68q94 -4 172 -5t164 -1q170 0 340 6v-70q-61 -4 -104.5 -7t-69 -10t-36.5 -22.5t-11 -40.5q0 -20 17 -57t32 -63l274 -453l260 442q29 49 41.5 76t12.5 53q0 29 -13.5 45.5t-37 24.5t-53.5 10l-60 4v68q123 -6 241 -6q117 0 234 6v-68q-53 -8 -91 -23.5t-74 -51 t-76 -94t-97 -152.5l-234 -387v-215q0 -63 1.5 -107.5t2.5 -76t2 -55t3 -44.5q4 -35 16 -54.5t37 -30.5t64.5 -16t97.5 -7v-66q-82 4 -163 6t-163 2q-78 0 -157.5 -2t-159.5 -6v66q94 8 138 19t62 48q6 14 10.5 43t6.5 63.5t3 72.5t1 71v213q-96 154 -191.5 303.5 t-191.5 302.5q-37 57 -61.5 91t-49 51.5t-56.5 24.5t-83 11z" />
<glyph unicode="Z" horiz-adv-x="1366" d="M35 0v53l794 1073q35 47 57.5 76t41 53.5t39 51t53.5 67.5h-395q-68 0 -112 -1t-72.5 -5t-47 -12t-39.5 -25q-23 -16 -54.5 -55t-65 -86t-66.5 -95t-55 -81l-68 30q25 57 44.5 101.5t37.5 88.5t38.5 94t49.5 118h1069v-51q-29 -35 -49.5 -58.5t-39.5 -47t-42 -52.5 t-53 -70l-813 -1099h504q47 0 81.5 1t63.5 6t54.5 15t51.5 29q43 31 107.5 112.5t136.5 245.5l74 -22q-25 -76 -41 -127.5t-30.5 -98.5t-30 -99t-35.5 -130h-1188z" />
<glyph unicode="[" horiz-adv-x="724" d="M240 -483v1976h485v-96h-375v-1782h375v-98h-485z" />
<glyph unicode="\" horiz-adv-x="1067" d="M-2 1452l78 53l989 -1487l-80 -51z" />
<glyph unicode="]" horiz-adv-x="724" d="M-2 -385h375v1782h-375v98h485v-1978h-485v98z" />
<glyph unicode="^" horiz-adv-x="1492" d="M319 717l369 729h129l357 -729h-156l-268 559l-275 -559h-156z" />
<glyph unicode="_" d="M-20 -154h1064v-102h-1064v102z" />
<glyph unicode="`" horiz-adv-x="555" d="M6 1288v64h250q51 -51 88 -85t67.5 -62.5t62.5 -56.5t75 -65l-33 -49q-111 61 -182.5 99t-125.5 64t-99.5 46.5t-102.5 44.5z" />
<glyph unicode="a" horiz-adv-x="937" d="M66 668q0 41 39.5 88t105 87t150.5 66.5t178 26.5q88 0 137 -23.5t70.5 -58.5t25.5 -76t4 -76v-489q0 -14 1 -34.5t7.5 -40t20.5 -33t41 -13.5q25 0 39 13.5t26 31.5l43 -16q-31 -59 -81 -102.5t-115 -43.5q-29 0 -52.5 8.5t-43.5 22.5q-37 29 -44.5 64.5t-9.5 64.5 q-59 -63 -138 -113.5t-173 -50.5q-109 0 -162 57.5t-53 135.5q0 72 39 124t108.5 94t166 79t212.5 78v100q0 23 -3 60.5t-19.5 73.5t-54 61.5t-105.5 25.5q-4 0 -28.5 -2t-52.5 -10t-50.5 -26.5t-22.5 -49.5q0 -4 1 -21.5t1 -23.5q0 -72 -34.5 -114t-81.5 -42 q-41 0 -66.5 28t-25.5 69zM268 215q0 -55 39 -92t94 -37q39 0 72 16.5t59.5 38t46 44t29.5 34.5v256q-86 -35 -149.5 -61.5t-106.5 -54t-63.5 -61.5t-20.5 -83z" />
<glyph unicode="b" horiz-adv-x="1067" d="M0 1384v39q49 10 84 18.5t65.5 20t65.5 26.5t84 40q2 -53 3 -86t2 -60.5t2 -57.5t1 -73v-413q20 14 49 30.5t64 30.5t78 24.5t94 10.5q100 0 176 -43t127 -111.5t75.5 -152.5t24.5 -166q0 -104 -35.5 -192.5t-98 -154t-146.5 -102.5t-178 -37q-109 0 -182.5 31t-121.5 60 l-61 -66h-35v709q0 59 -1 149t-4 179t-8 162t-13 101q-10 29 -31 43.5t-80 40.5zM307 315q0 -29 1 -58.5t11 -57.5q8 -23 27 -50.5t47.5 -50t66.5 -38t87 -15.5q127 0 195.5 94t68.5 250q0 94 -25.5 175t-69.5 140.5t-105.5 94.5t-131.5 35q-57 0 -96 -17.5t-76 -40.5v-461z " />
<glyph unicode="c" horiz-adv-x="937" d="M66 453q0 106 34.5 195t98 152.5t150.5 99.5t190 36q76 0 145.5 -18.5t121.5 -49t83 -72.5t31 -87q0 -47 -29 -74t-68 -27q-33 0 -57.5 16.5t-40.5 40t-26.5 47t-16.5 38.5q-6 18 -16.5 39.5t-26.5 39t-42 29.5t-65 12q-59 0 -110 -31.5t-88 -84t-57.5 -122t-20.5 -145.5 q0 -90 27.5 -163.5t75 -128t112 -84t137.5 -29.5q55 0 98.5 15.5t77 37t58 47t43.5 45.5l41 -28q-16 -23 -48 -61t-81 -74.5t-117 -63.5t-158 -27q-96 0 -179 36t-144.5 100.5t-97 151.5t-35.5 192z" />
<glyph unicode="d" horiz-adv-x="1110" d="M66 422q0 98 34.5 191.5t98 164t151.5 113.5t195 43q84 0 131 -20.5t86 -43.5l-2 240q0 57 -1 92t-3 56.5t-6.5 34t-10.5 24.5q-14 23 -39.5 37t-72.5 32v37q51 12 86 21.5t66.5 21t64.5 25.5t82 37q2 -59 3 -97t1 -69v-59.5v-65.5v-1020q0 -37 4 -62.5t18.5 -42 t42 -24.5t76.5 -8v-41q-49 -12 -84 -21.5t-63.5 -17.5t-59 -19.5t-73.5 -25.5q-8 23 -12.5 38t-7.5 29.5t-5 31t-4 40.5q-14 -14 -38 -34.5t-58.5 -40t-82.5 -33t-112 -13.5q-100 0 -176 41t-127 106.5t-76.5 144.5t-25.5 157zM248 506q0 -96 26.5 -176t70.5 -137.5 t101.5 -89t118.5 -31.5q33 0 63.5 9t55.5 22.5t42 28.5t24 30q6 14 9 61t5 101.5t2 104.5v73q0 102 -6 160.5t-41 107.5q-29 38 -84 68q-48 26 -105 26h-16q-63 -2 -113.5 -31.5t-84 -78.5t-51 -114t-17.5 -134z" />
<glyph unicode="e" horiz-adv-x="937" d="M70 442q0 117 36.5 207t99 153.5t146.5 96.5t176 33q88 0 158 -31t118 -81t73.5 -114.5t25.5 -132.5q0 -20 -9 -23t-17 -3h-627q0 -14 -1 -26.5t-1 -28.5q0 -78 22.5 -150t65.5 -126t108.5 -86t151.5 -32q63 0 109.5 16.5t78 41t53 51t33.5 45.5l52 -25 q-43 -78 -94.5 -127t-105.5 -77.5t-107.5 -39t-98.5 -10.5q-96 0 -178 36t-141.5 98.5t-93 148.5t-33.5 186zM262 621h414q6 0 15 2t9 18q0 12 -8 55t-26 78q-27 49 -65 72.5t-85 23.5q-76 0 -147.5 -59t-106.5 -190z" />
<glyph unicode="f" horiz-adv-x="555" d="M27 0v59q49 0 78.5 5.5t47 19.5t22.5 42t5 75v614h-153l41 88h114q4 80 7.5 137.5t11.5 105.5t23.5 89t43.5 86q14 25 44 59.5t75 67.5t107.5 56.5t146.5 23.5q63 0 107.5 -13.5t72 -33t38.5 -44t11 -46.5q0 -41 -29.5 -63.5t-58.5 -22.5q-31 0 -54 17t-46 40 q-45 43 -77 59.5t-66 16.5q-66 0 -104 -40t-57.5 -110.5t-24.5 -169t-5 -215.5h203v-88h-203l6 -604q2 -55 5 -85t18.5 -44t48.5 -17.5t92 -5.5v-59q-59 2 -120.5 4t-121.5 2q-125 0 -249 -6z" />
<glyph unicode="g" d="M45 -262q0 39 16.5 68.5t41 52t53 40t51.5 29.5q-14 6 -35.5 19.5t-41 32t-33 43t-13.5 57.5q0 39 17.5 69.5t45 54t61.5 42t68 35.5q-23 16 -53 39.5t-58 59.5t-46.5 85t-18.5 117q0 78 29 142t80 110.5t118.5 72t145.5 25.5q63 0 111.5 -13.5t84.5 -34t60.5 -42 t42.5 -39.5q8 8 26.5 23.5t43 29.5t57.5 25.5t70 11.5q53 0 76.5 -29.5t23.5 -60.5q0 -41 -22.5 -61.5t-51.5 -20.5q-37 0 -69 27q-33 23 -41 26.5t-25 3.5q-16 0 -29.5 -4t-27.5 -10q20 -41 34.5 -82t14.5 -100q0 -39 -13.5 -98.5t-54.5 -115t-116.5 -94t-198.5 -38.5 q-6 0 -22.5 1t-36 2t-37 2t-25.5 1q-51 0 -83 -27t-32 -65q0 -27 12.5 -43.5t31 -25.5t37 -12t30.5 -3q16 -2 58 -5.5t90.5 -5.5t91.5 -4t61 -4q66 -6 124 -22.5t101 -46t69 -74.5t26 -107q0 -57 -29 -108t-87 -90t-145.5 -61.5t-201.5 -22.5q-209 0 -333 60t-124 163z M180 -236q0 -47 29 -81.5t76 -58t108.5 -36t126.5 -12.5q53 0 105.5 10.5t94.5 31t67.5 53t25.5 79.5q0 59 -46 89t-112 40q-16 2 -57 4t-88 5t-89 5.5t-61 4.5q-20 0 -39.5 2t-39.5 4q-29 -14 -52 -35q-18 -16 -33.5 -43t-15.5 -62zM279 567q0 -43 9 -91t31.5 -88 t60.5 -66.5t97 -26.5q23 0 52.5 7t58.5 32q53 45 69.5 112.5t16.5 137.5q0 123 -39 198q-18 37 -53 64.5t-101 27.5q-51 0 -89 -24.5t-63.5 -67.5t-37.5 -98t-12 -117z" />
<glyph unicode="h" horiz-adv-x="1150" d="M37 0v59q45 0 71.5 6.5t40 19.5t18.5 35.5t5 55.5v551v109.5t-2 140.5t-4 144.5t-6 121.5q-4 35 -9.5 55.5t-17.5 34t-35.5 25.5t-60.5 28v37q53 12 90 22.5t67.5 22t62.5 24.5t77 36q2 -47 4 -80t3 -61.5t2 -59.5t1 -74v-471q25 27 56.5 54.5t70.5 50t87 37t106 14.5 q76 0 130 -19.5t89 -52t54 -71.5t29.5 -80t12.5 -77t4 -60v-314q0 -70 2 -109.5t14.5 -60t40 -27t78.5 -8.5v-59q-55 4 -105 6t-104 2q-55 0 -111.5 -2t-111.5 -6v59q45 2 71.5 9.5t39 38t15.5 94t3 180.5q0 98 -5 182t-26.5 144.5t-66.5 95.5t-127 35q-51 0 -92 -17.5 t-72 -42t-51.5 -50.5t-30.5 -40v-549q2 -53 37 -65.5t94 -14.5v-59q-63 4 -109.5 5t-97.5 1q-59 0 -116.5 -2t-114.5 -4z" />
<glyph unicode="i" horiz-adv-x="512" d="M51 793v38q51 12 87 21.5t68 21t66.5 26.5t85.5 40q-2 -33 -4 -57.5t-3 -54t-2 -69.5t-1 -102v-491q0 -33 5 -53.5t18.5 -30.5t40 -15.5t69.5 -7.5v-59q-53 2 -104 4t-105 2q-55 0 -109 -2t-110 -4v59q66 0 95.5 18.5t33.5 80.5q0 31 1 58.5t1 73.5v122.5v205.5 q0 45 -5 72t-19.5 44.5t-41 29.5t-67.5 29zM188.5 1399q34.5 35 83.5 35q47 0 82 -35t35 -82q0 -49 -35 -84t-82 -35q-53 0 -84 35q-34 30 -34 81q0 50 34.5 85z" />
<glyph unicode="j" horiz-adv-x="468" d="M-254 -393q0 33 23.5 58.5t60.5 25.5t63.5 -22.5t45.5 -45.5q35 -39 58 -59.5t58 -20.5q33 0 52.5 16.5t28.5 39t12.5 46t5.5 40.5q0 14 1 40.5t3 60.5t3 68.5t1 63.5v727q0 33 -4 53.5t-18.5 37t-42 31.5t-72.5 34v35q55 12 94 22t71.5 21.5t66.5 26t83 36.5 q-4 -45 -5 -75.5t-2 -63.5t-2 -78t-1 -117v-504q-2 -59 -5 -130.5t-14.5 -142.5t-35 -137.5t-64.5 -117.5t-104.5 -82t-153.5 -31q-43 0 -80 12.5t-65.5 32t-45 45t-16.5 54.5zM143 1317q0 47 35 82t84 35q47 0 82 -35t35 -82q0 -49 -35 -84t-82 -35q-53 0 -84 35 q-35 31 -35 84z" />
<glyph unicode="k" d="M35 0v59q31 0 58.5 3.5t43.5 17.5q12 8 18.5 16t9.5 23.5t4 40t1 67.5v424q0 20 -1 72.5t-2 119t-2 139.5t-3 136.5t-5 109.5t-5 58q-10 43 -38 63.5t-79 39.5v34q53 12 89 21.5t65.5 21t60.5 24.5t78 36q2 -53 3 -90t2 -69t2 -62.5t1 -73.5v-768q29 27 78 73t97 95 t83 94t35 68q0 33 -31 38t-61 5v67q51 -4 94 -5t90 -1q51 0 102 2t103 6v-61q-49 -6 -84 -16.5t-73 -39t-91 -81t-139 -144.5q39 -49 66.5 -81.5t54 -65.5t58.5 -71t81 -95q37 -43 67.5 -76t59 -55.5t58.5 -36.5t67 -23v-59q-55 2 -109.5 3t-110.5 1q-53 0 -108 -1t-109 -3 v59q51 4 73 7.5t22 25.5q0 10 -6.5 18.5t-12.5 16.5l-272 319l-82 -77v-209q0 -33 7 -52.5t22.5 -29.5t41 -14.5t62.5 -4.5v-59q-53 2 -108.5 4t-108.5 2t-107.5 -2t-109.5 -4z" />
<glyph unicode="l" horiz-adv-x="512" d="M35 0v59q51 0 78.5 8.5t40 28t14.5 54t2 88.5v546v62.5t-2 94.5t-3 108.5t-3 105.5t-5 86t-5 51q-10 35 -35 52.5t-82 39.5v39q53 12 90 22.5t67.5 21t62.5 24.5t77 35q2 -45 3 -78t2 -65.5t2 -70.5t1 -91v-996q0 -55 3 -87t15.5 -48t38 -22.5t72.5 -8.5v-59 q-53 2 -108.5 4t-108.5 2q-55 0 -105.5 -1t-111.5 -5z" />
<glyph unicode="m" horiz-adv-x="1705" d="M47 0v59q45 0 71.5 6.5t40 21.5t17.5 40t4 63v414q0 49 -3 78t-16.5 48.5t-40 34.5t-73.5 38v37q49 12 83 20t62.5 17.5t58.5 22.5t73 32q6 -20 10 -33.5t7 -28t4 -30t3 -37.5q72 57 149.5 94t168.5 37q94 0 165 -49q41 -29 59.5 -56.5t31.5 -54.5q31 25 67.5 52.5 t80.5 52t94 40t110 15.5q72 0 118 -24.5t68 -49.5q29 -31 44.5 -66.5t23.5 -78.5t10 -95.5t2 -113.5v-316q0 -43 5 -68.5t19.5 -38.5t41 -17.5t69.5 -6.5v-59q-55 2 -110.5 4t-108.5 2t-106.5 -2t-106.5 -4v59q45 2 71.5 8.5t39 35t15.5 90t3 176.5q0 109 -5 175t-12 105 t-15.5 55.5t-14.5 26.5q-27 39 -71 58.5t-97 19.5q-45 0 -81 -12.5t-62.5 -29.5t-45 -35.5t-28.5 -31.5q2 -29 3 -45t1 -30.5t1 -32t1 -43.5v-391q0 -57 26.5 -76t106.5 -23v-59q-57 2 -112.5 3t-110.5 1q-53 0 -99 -1t-112 -3v59q47 2 73.5 9.5t39 19.5t14.5 33.5t2 56.5 v187q0 88 -1 149t-4 104.5t-12 73t-24 51.5q-23 35 -67.5 59.5t-104.5 24.5q-45 0 -78.5 -11t-59.5 -27.5t-44.5 -34t-30.5 -31.5v-559q0 -27 4 -45.5t18.5 -31.5t41 -19.5t71.5 -8.5v-59q-53 2 -107 3t-108 1q-55 0 -110.5 -1t-110.5 -3z" />
<glyph unicode="n" horiz-adv-x="1110" d="M49 0v59q37 2 62.5 6.5t42 16.5t22.5 34.5t6 63.5v461q-2 33 -5 54.5t-16.5 38t-40 31.5t-71.5 38v35q51 12 87 21t65.5 19.5t58.5 23.5t68 32q12 -35 16 -59.5t4 -71.5q25 18 56.5 40.5t71.5 41t86 32t97 13.5q104 0 162 -46t83.5 -108.5t30.5 -129t5 -107.5v-396 q0 -23 3 -38t16.5 -25t39 -15.5t68.5 -5.5v-59q-55 2 -109.5 4t-109.5 2q-53 0 -106.5 -2t-106.5 -4v59q41 2 67.5 8.5t42 19.5t21.5 38t6 65v306q0 61 -5 121.5t-34 107.5q-25 37 -72 65.5t-112 28.5q-41 0 -73 -9t-55.5 -23.5t-42 -31t-30.5 -30.5v-504q0 -53 3 -84 t15.5 -47t40 -21.5t78.5 -9.5v-59q-53 4 -108 6t-109 2q-53 0 -108.5 -2t-110.5 -6z" />
<glyph unicode="o" horiz-adv-x="1110" d="M68 457q0 92 30.5 178t91 152.5t149.5 106.5t206 42h11q108 0 195 -37q91 -39 154.5 -105.5t97 -154.5t33.5 -186q0 -104 -35.5 -192.5t-100 -152t-153 -99.5t-194.5 -36q-115 0 -205 40t-152.5 106.5t-95 153.5t-32.5 184zM266 467q0 -47 5 -98.5t22 -104.5 q37 -121 112.5 -175t153.5 -54q68 0 121 31.5t88 87t53.5 131t18.5 164.5q0 94 -22.5 173.5t-63.5 137.5q-42 56 -98 86q-50 26 -108 26h-16q-74 -6 -125 -45t-81.5 -97t-45 -128t-14.5 -135z" />
<glyph unicode="p" horiz-adv-x="1110" d="M31 -416q49 0 74.5 6.5t38 23.5t15.5 48t5 82v750v65.5t-2 68.5t-4 62.5t-4 44.5q-4 23 -12.5 38t-23 28.5t-36 26t-51.5 26.5v33q41 6 71.5 13t61.5 16.5t66.5 21.5t86.5 33q10 -37 15 -65q3 -20 3 -56q0 -16 -1 -35q18 18 43.5 40t59.5 40t78 30.5t99 12.5 q96 0 174 -35t133.5 -95t86 -140t30.5 -168t-29.5 -180.5t-88 -168t-147.5 -123.5t-208 -48q-92 0 -143 23.5t-88 47.5v-383q2 -49 26.5 -64.5t104.5 -19.5v-63q-61 4 -109.5 5t-99.5 1q-113 0 -225 -6v63zM334 150q12 -10 34.5 -28t52.5 -33t67.5 -26.5t80.5 -11.5 q70 0 123 32t88 85t52.5 120.5t17.5 141.5q0 80 -20.5 154.5t-60.5 131t-96.5 90.5t-127.5 34q-45 0 -85 -14.5t-69 -43.5q-41 -37 -49 -85t-8 -107v-440z" />
<glyph unicode="q" horiz-adv-x="1067" d="M63 426q0 121 41 214t108 157.5t150.5 98.5t169.5 34q57 0 104.5 -11.5t84.5 -26.5t64.5 -32.5t45.5 -30.5l101 119q-2 -84 -3 -146.5t-2 -113.5t-2 -98t-1 -101.5t-1 -123t-1 -162.5v-512q0 -39 7 -59.5t24.5 -32t43 -13.5t60.5 -4v-61q-102 6 -211 6q-111 0 -221 -6v61 q74 2 103 22q26 18 26 73v8v409q-61 -59 -130 -90t-157 -31q-86 0 -160 34t-128 94.5t-85 143.5t-31 181zM248 502q0 -96 27.5 -176t72.5 -136.5t102.5 -88t116.5 -31.5q63 0 105.5 29.5t62.5 70.5q8 18 12.5 37.5t6.5 48.5t3 70t1 102v119q0 59 -5 103t-22 81 q-23 47 -73 89t-134 42q-68 0 -119 -29.5t-86.5 -78.5t-53 -115t-17.5 -137z" />
<glyph unicode="r" horiz-adv-x="724" d="M49 0v59q49 2 77 8.5t40 28t14 65.5t2 120v348q0 33 -2 54.5t-15 38.5t-40 34.5t-76 42.5v39q51 12 88 21t66.5 19.5t58.5 22.5t66 31q8 -25 12 -42.5t6 -36.5t2 -43t-2 -56q29 27 64.5 58.5t73.5 58t78 44t75 17.5q39 0 57.5 -31t18.5 -82q0 -119 -66 -119 q-16 0 -27.5 6.5t-23.5 16.5q-23 16 -45.5 28.5t-54.5 12.5q-53 0 -87 -31t-59 -61v-525q0 -27 5 -43t18.5 -25t39 -13.5t68.5 -6.5v-59q-109 6 -219 6q-51 0 -102 -1t-111 -5z" />
<glyph unicode="s" horiz-adv-x="768" d="M61 78l17 250h51q8 -31 25.5 -81t46 -96.5t72.5 -80t106 -33.5q66 0 117 46t51 126q0 55 -24.5 81.5t-53.5 41.5q-12 6 -45 21.5t-70 31.5t-70.5 31.5t-45.5 21.5q-14 6 -40 22.5t-51.5 43t-44 65.5t-18.5 95q0 49 19.5 97t57.5 85t94 60.5t130 23.5q76 0 130 -17.5 t114 -40.5q4 -41 6 -68.5t5 -54t8 -55t11 -69.5l-43 -7q-8 18 -28.5 58.5t-52 82.5t-72.5 72.5t-92 30.5q-35 0 -60.5 -14t-42 -35.5t-23.5 -46.5t-7 -47q0 -49 27.5 -77t56.5 -44q10 -6 39.5 -19.5t63.5 -28.5t63.5 -28.5t41.5 -19.5q20 -10 49 -26.5t57 -45.5t47 -70 t19 -100q0 -57 -20 -108.5t-61 -90t-102.5 -61.5t-143.5 -23q-57 0 -105.5 10.5t-86.5 26t-68.5 32.5t-53.5 32z" />
<glyph unicode="t" horiz-adv-x="641" d="M0 813l8 21q80 59 134.5 116.5t91 107.5t57 91t33.5 70h18l-4 -318h278l-41 -88h-235l-6 -508q0 -31 3 -68.5t23 -70.5q18 -29 52 -48.5t77 -19.5q47 0 77 18.5t52 37.5v-60q-43 -55 -105 -84.5t-134 -29.5q-51 0 -97 17t-75 52q-33 39 -38 84t-5 86l10 594h-174z" />
<glyph unicode="u" horiz-adv-x="1067" d="M8 844v61q49 0 85 -1h35.5h34.5q34 1 69.5 2t86.5 3q0 -43 -1 -99t-2 -116.5t-2 -117t-1 -95.5q0 -72 1 -119t5.5 -80.5t10.5 -57t16 -44.5q27 -57 72 -87t102 -30q25 0 55.5 6.5t60.5 19.5t52.5 34.5t30.5 50.5q4 12 6 38t3 57.5t1 64.5v61v240q0 72 -5 112.5t-21.5 62 t-49 28t-90.5 6.5v59h92h74t74 1t92 3v-706q3 -65 31 -93q27 -26 101 -26h11v-47q-49 -12 -82.5 -20.5t-62.5 -17.5t-59.5 -20.5t-75.5 -27.5q-8 20 -12.5 33.5t-7.5 28t-5 30.5t-4 41q-20 -16 -48 -35.5t-62.5 -36t-78.5 -28t-96 -11.5q-41 0 -90 10.5t-96 38.5 q-43 27 -67.5 60t-36 68.5t-14.5 71.5t-3 71v51q2 43 2 86v88v147.5t-2 81t-6 39t-10 21.5q-16 27 -41 32t-72 7z" />
<glyph unicode="v" horiz-adv-x="980" d="M-2 844v59q59 -2 108.5 -3t104.5 -1q59 0 117.5 1t117.5 3v-61q-23 0 -46 -1t-42.5 -8.5t-32 -22.5t-12.5 -42q0 -16 5.5 -32.5t11.5 -35.5l194 -497l172 415q23 55 33 86t10 54q0 31 -15 47t-37.5 24.5t-48.5 11.5t-46 3v59q49 -4 98 -6t98 -2q47 0 93.5 2t91.5 6v-59 q-33 -2 -53.5 -9.5t-36 -22.5t-27.5 -39.5t-29 -59.5l-338 -744h-40l-330 785q-10 25 -19.5 41t-21.5 26t-30.5 14.5t-49.5 8.5z" />
<glyph unicode="w" horiz-adv-x="1536" d="M-2 844v59q47 -2 101.5 -3t107.5 -1t107.5 1t109.5 3v-59q-20 -2 -43 -4t-41 -8.5t-29.5 -19.5t-11.5 -38q0 -18 10 -43l197 -524l209 510q-14 39 -24.5 61.5t-26 35.5t-39 19.5t-62.5 10.5v59q55 -2 111.5 -3t113.5 -1q55 0 114 1t112 3v-59q-18 -2 -40 -5t-40.5 -11.5 t-29.5 -24t-11 -41.5q0 -31 14 -66l180 -489l179 440q18 53 24 73.5t6 37.5q0 27 -12 43t-32.5 25.5t-44 12.5t-48.5 5v59q47 -2 95.5 -2h97.5h88t88 2v-59q-33 -4 -53.5 -11.5t-39 -27t-37 -56t-46.5 -104.5l-295 -684h-45l-256 653l-281 -653h-49l-285 705q-25 59 -39 93 t-28.5 51t-31.5 23.5t-44 10.5z" />
<glyph unicode="x" horiz-adv-x="980" d="M-2 0v59q45 2 85 20.5t72.5 44.5t60.5 54.5t50 52.5l156 193l-244 303q-25 33 -45 53.5t-38.5 33.5t-39 19.5t-47.5 10.5v59q53 -2 105.5 -3t105.5 -1t107.5 1t107.5 3v-59q-41 0 -62.5 -3t-30.5 -7.5t-11 -9.5t-2 -11q0 -10 6 -21.5t16 -23.5l174 -217l158 192 q25 35 25 56q0 25 -26 33t-85 12v59q45 -2 89 -4t89 -2q41 0 82 1t88 5v-59q-33 -10 -58.5 -21.5t-53 -33t-62.5 -58.5t-84 -96l-117 -139l265 -332q27 -33 45 -53.5t35.5 -31.5t35 -15.5t41.5 -4.5v-59q-55 2 -110.5 3t-110.5 1q-53 0 -104.5 -1t-104.5 -3v59q47 4 77 10.5 t30 28.5q0 10 -8.5 22.5t-16.5 22.5l-174 226l-131 -162q-35 -47 -46 -63.5t-11 -32.5t10 -25.5t23.5 -14.5t28.5 -7.5t28 -4.5v-59q-47 2 -93.5 3t-93.5 1t-93 -1t-93 -3z" />
<glyph unicode="y" d="M-2 844v59q53 -2 109.5 -3t111.5 -1q57 0 113.5 1t113.5 3v-59q-51 -2 -89 -11.5t-38 -58.5q0 -23 8.5 -46t24.5 -58l207 -451l133 305q10 23 23.5 57.5t26 70.5t21.5 68t9 50q0 27 -12 42t-31.5 22.5t-42 8.5t-43.5 1v59q47 -2 96 -3t97 -1q45 0 92 1t90 3v-59 q-31 -4 -52.5 -10.5t-40 -24.5t-38 -53t-45.5 -92q-104 -219 -202.5 -438.5t-195.5 -442.5q-37 -86 -64.5 -145.5t-55 -96.5t-60.5 -53t-80 -16q-63 0 -93 32.5t-30 67.5q0 14 6.5 30.5t19.5 31t35.5 24.5t53.5 10q20 0 43 -5t43 -5q18 0 31.5 10t19.5 21q14 18 36 60 t45.5 92t45 99.5t33.5 82.5q-76 156 -149.5 310t-147.5 310q-29 59 -46 95t-35.5 57.5t-40 32t-56.5 16.5z" />
<glyph unicode="z" horiz-adv-x="937" d="M35 0v55l614 789h-270q-51 0 -80 -5t-57 -28q-12 -10 -25.5 -23.5t-32 -35t-42 -54t-58.5 -77.5l-49 24q20 43 33.5 76t25.5 60.5t23.5 57t27.5 66.5h719v-59l-606 -776h315q45 0 76 7t63.5 32.5t73.5 80t107 150.5l51 -18q-18 -53 -30.5 -89t-23.5 -68t-22.5 -70 t-29.5 -95h-803z" />
<glyph unicode="{" horiz-adv-x="555" d="M96 481v54q49 8 77 32.5t40 65.5t15 97t3 128v225q0 49 1 95.5t8.5 88.5t24 80.5t44.5 71.5q23 25 46.5 40.5t49 23.5t58.5 13t74 9v-51q-72 -18 -110 -49t-56.5 -73t-22.5 -96t-4 -122v-141q0 -121 -3 -202t-17.5 -133t-46 -83t-89.5 -49q57 -23 89 -53.5t47.5 -80.5 t18.5 -125t3 -184v-165q0 -72 5 -125.5t23.5 -94t56.5 -70.5t106 -50v-52q-80 8 -135.5 23.5t-100.5 69.5q-51 59 -59.5 133.5t-8.5 171.5v231q0 86 -3 144.5t-17 97.5t-41 63.5t-76 40.5z" />
<glyph unicode="|" horiz-adv-x="468" d="M174 -512v2048h123v-2048h-123z" />
<glyph unicode="}" horiz-adv-x="555" d="M18 -442q68 20 106 50t56.5 70.5t23.5 94t5 125.5v165q0 109 3 184t18.5 125t46 80.5t90.5 53.5q-57 18 -89 49t-46.5 83t-17.5 133t-3 202v141q0 68 -4 122t-22.5 96t-57.5 73t-109 49v51q41 -4 74 -9t58.5 -13t49 -23.5t46.5 -40.5q57 -66 67.5 -152.5t10.5 -183.5 v-225q0 -72 3 -128t15 -97t40 -65.5t77 -32.5v-54q-49 -16 -76 -40.5t-41 -63.5t-17 -97.5t-3 -144.5v-231q0 -96 -9.5 -171t-58.5 -134q-47 -53 -101.5 -68.5t-134.5 -24.5v52z" />
<glyph unicode="~" horiz-adv-x="1492" d="M274 582q12 18 33 45.5t51.5 53.5t72.5 44t95 18q59 0 115.5 -21.5t116.5 -49.5q45 -23 75.5 -36t52 -21.5t38 -11.5t32.5 -3q35 0 65 12.5t54.5 31t44 41t35.5 42.5l64 -113q-51 -63 -114 -110t-149 -47q-45 0 -87 15t-111 50q-84 41 -133.5 60.5t-96.5 19.5 q-31 0 -52 -7t-41.5 -23.5t-42 -41t-50.5 -61.5z" />
<glyph unicode="&#xa1;" horiz-adv-x="512" d="M88 1339q0 51 36 86t85 35q51 0 86 -35t35 -86q0 -49 -35 -84.5t-86 -35.5q-49 0 -85 35.5t-36 84.5zM102 147q0 12 3.5 53.5t7.5 87.5t8 88t6 58q14 143 23.5 231.5t14.5 157t7 133t6 160.5h62q4 -119 11 -228.5t14 -198.5t13.5 -151.5t8.5 -86.5q6 -59 13 -120t11 -120 q2 -16 3 -32.5t1 -33.5q0 -10 -2 -36.5t-11 -54t-31.5 -49t-61.5 -21.5q-106 0 -107 163z" />
<glyph unicode="&#xa2;" horiz-adv-x="980" d="M66 453q0 82 24.5 163.5t76.5 148t134 112t195 55.5v147h67v-145q86 -6 152.5 -27.5t111.5 -53.5t69 -71t24 -75q0 -47 -29 -73t-68 -26q-33 0 -57.5 16.5t-40.5 40t-26.5 47t-16.5 38.5q-16 43 -37.5 72.5t-81.5 43.5v-782q16 -2 25.5 -2h21.5q55 0 98.5 15.5t76 38 t57 47t43.5 44.5l41 -28q-20 -29 -49 -64t-71 -67.5t-101.5 -59t-141.5 -35.5v-147h-67v147q-96 6 -175 45t-135.5 103.5t-88 149.5t-31.5 182zM256 487q0 -49 11.5 -106t39 -110.5t73.5 -97.5t116 -71v764q-70 -16 -116 -59t-73.5 -98.5t-39 -113.5t-11.5 -108z" />
<glyph unicode="&#xa3;" horiz-adv-x="1409" d="M33 37q0 23 17.5 55.5t70.5 73.5q53 39 108.5 59.5t92.5 32.5q12 51 21 87t18.5 66.5t18.5 62.5t23 79h-247l43 86h229q29 86 60.5 180t72.5 185.5t93.5 173.5t119 144t149.5 99t187 37q53 0 103.5 -13t88 -38t60 -57.5t22.5 -71.5q0 -53 -29.5 -72.5t-56.5 -19.5 q-43 0 -67.5 31.5t-50.5 78.5q-16 29 -44 59.5t-94 30.5t-113.5 -37.5t-81.5 -88t-53.5 -99.5t-27.5 -71q-41 -115 -84 -234t-80 -217h272v-86h-305q-18 -45 -31.5 -74.5t-25.5 -56.5t-26.5 -57.5t-36.5 -77.5q41 6 74.5 10t70.5 4q66 0 116 -16.5t87 -39t61.5 -47 t40.5 -42.5q23 -25 44.5 -51.5t43.5 -53.5q16 -23 47 -49.5t76 -26.5q25 0 45.5 11.5t34.5 29t22.5 39t8.5 41.5t-4.5 32.5t-14.5 23t-28.5 19.5t-47.5 22q-41 18 -55 43.5t-14 50.5q0 39 26.5 66.5t69.5 27.5q31 0 58.5 -16.5t49 -44t35 -66.5t13.5 -84q0 -66 -22.5 -117 t-60.5 -88t-88.5 -56.5t-103.5 -19.5q-49 0 -91 16.5t-79 45.5q-14 10 -25.5 20.5t-26.5 27.5t-37.5 46t-59.5 76q-33 41 -75 75.5t-114 34.5q-31 0 -62.5 -6t-60.5 -12q-20 -33 -47.5 -75t-62.5 -80t-79 -63.5t-97 -25.5q-37 0 -60.5 19.5t-23.5 48.5z" />
<glyph unicode="&#xa4;" horiz-adv-x="1366" d="M117 223l153 150q-14 18 -33.5 47t-37 68.5t-29.5 90t-12 115.5q0 63 10 113.5t26.5 88.5t36 66.5t37.5 53.5l-147 149l92 92l147 -149q18 14 47 33.5t69 37t91 30t117 12.5q63 0 114.5 -12.5t91.5 -30t68.5 -36t47.5 -32.5l149 150l94 -95l-151 -149q14 -20 33.5 -48 t36 -67t28.5 -89t12 -116t-11 -116t-27.5 -88.5t-36 -67.5t-37.5 -51l151 -152l-94 -94l-149 154q-18 -14 -47 -33t-68 -36t-90 -29.5t-115 -12.5q-66 0 -116 11.5t-89 27.5t-67.5 35.5t-51.5 36.5l-151 -150zM281 696q0 -86 31.5 -160.5t87 -129t129 -85t157.5 -30.5 q82 0 154.5 30.5t126 84t85 128t31.5 162.5t-31.5 163t-87 128t-128 83t-154.5 30q-84 0 -156.5 -31t-127 -84t-86 -127t-31.5 -162z" />
<glyph unicode="&#xa5;" horiz-adv-x="1409" d="M6 1362v68q94 -4 171 -5.5t163 -1.5q170 0 340 7v-70q-61 -4 -104.5 -7t-69 -10.5t-36.5 -22.5t-11 -40q0 -20 18.5 -57t32.5 -64l268 -436l254 426q29 49 41 75.5t12 53.5q0 29 -13 45t-36.5 24.5t-53.5 10.5l-60 4v68q123 -6 241 -7q117 0 234 7v-68q-53 -8 -91 -23.5 t-74 -51.5t-76 -94t-97 -153l-144 -231h291v-96h-350l-25 -43v-174h375v-97h-375q0 -63 1.5 -107t3.5 -75t5 -49t7 -31q16 -45 70.5 -56t134.5 -15v-66q-82 4 -162 6t-162 2q-78 0 -157.5 -2t-159.5 -6v66q82 8 127 17t65.5 40t24.5 95.5t4 180.5h-422v97h422v98l-76 119 h-346v96h283l-240 375q-37 57 -61.5 91t-49 51t-55.5 24.5t-82 11.5z" />
<glyph unicode="&#xa6;" horiz-adv-x="468" d="M174 358h123v-716h-123v716zM174 666v716h123v-716h-123z" />
<glyph unicode="&#xa7;" horiz-adv-x="937" d="M49 -150q0 51 33 76t63 25q31 0 49.5 -14.5t31 -35t17.5 -42t9 -35.5q6 -31 16.5 -67t33 -68.5t59 -54t98.5 -21.5q45 0 87 16.5t73.5 44t50 64.5t18.5 78q0 37 -13 68.5t-30.5 56t-36 41t-30.5 26.5q-27 20 -61 45t-69.5 49.5t-70.5 48t-62 42.5q-37 25 -79.5 58.5 t-81.5 78.5t-65 100t-26 127q0 55 18.5 102.5t44.5 83t52.5 62t44.5 43.5q-12 12 -27.5 30.5t-30.5 47t-25.5 66.5t-10.5 87q0 70 26.5 134.5t75 114.5t116 80t147.5 30q70 0 130 -21.5t105 -57.5t70.5 -80t25.5 -89t-24.5 -70.5t-59.5 -25.5q-12 0 -39.5 9t-48.5 54 q-10 16 -14 35.5t-12 36.5q-6 18 -21.5 41.5t-38 43t-54.5 34t-73 14.5t-75.5 -15.5t-61.5 -42t-42 -63.5t-15 -78q0 -45 15 -80.5t43 -67.5t66 -59.5t81 -54.5q55 -33 111 -63.5t110 -67.5q18 -12 50 -37.5t62.5 -64.5t53 -93.5t22.5 -123.5q0 -61 -18.5 -111.5t-44 -89.5 t-53.5 -67t-46 -44q12 -12 29.5 -32.5t34 -49t29 -68.5t12.5 -91q0 -59 -24.5 -123t-73 -117t-118 -88t-161.5 -35q-90 0 -159.5 31t-118 78t-74 102t-25.5 104zM180 647q0 -10 1 -23.5t7 -29.5q8 -31 30 -62.5t52.5 -62.5t65.5 -59.5t72 -55.5q43 -31 87 -58.5t87 -57.5 q20 -14 38.5 -28.5t38.5 -29.5q29 29 55.5 66t26.5 100q0 18 -4 43t-16 54.5t-34.5 61.5t-59.5 64q-12 10 -23.5 18.5t-33 23t-56.5 36t-94 58.5q-53 33 -91 59t-69 49q-29 -31 -54.5 -68.5t-25.5 -97.5z" />
<glyph unicode="&#xa8;" horiz-adv-x="555" d="M-45 1196q0 49 35 84t86 35q49 0 84 -35t35 -84q0 -51 -35 -86t-84 -35q-51 0 -86 35t-35 86zM362 1196q0 49 35 84t86 35q49 0 84 -35t35 -84q0 -51 -35 -86t-84 -35q-51 0 -86 35t-35 86z" />
<glyph unicode="&#xa9;" horiz-adv-x="1705" d="M125 723q0 158 58.5 291t158.5 230t232.5 152.5t279.5 55.5q158 0 292 -58.5t231.5 -158.5t151.5 -232t54 -282q0 -152 -56.5 -284t-154.5 -230t-231 -155.5t-289 -57.5q-141 0 -273.5 53t-232.5 149.5t-160.5 230.5t-60.5 296zM190 723q0 -139 52.5 -261t142.5 -211 t211 -140.5t258 -51.5q141 0 262 52.5t210 141.5t140.5 210t51.5 258q0 135 -49.5 257t-137.5 212t-210 143t-263 53t-263 -52t-212 -142t-141.5 -211t-51.5 -258zM408 739q0 57 7 111.5t27 105.5q33 80 85.5 126t109.5 70t111.5 29t91.5 5h24t29.5 -2t52.5 -4t94 -9 q31 -4 60.5 -6t81.5 -2q4 -49 6 -79.5t5 -58.5t6 -57.5t7 -74.5h-49q-10 39 -23.5 83t-40 81t-71.5 61.5t-119 24.5q-72 0 -122 -22.5t-81.5 -59.5t-49 -81t-27 -88t-10.5 -81t-1 -59q0 -23 1 -58t6.5 -77t15.5 -86t27 -80q39 -88 100 -125t153 -37q82 0 129.5 28.5t73 68.5 t34.5 83t13 72h49v-78v-60.5t1.5 -56.5t1.5 -67q-20 -2 -72.5 -7.5t-111 -11.5t-112 -10t-75.5 -4q-74 0 -129 13t-95 32.5t-66 41t-40 38.5q-51 59 -79.5 153t-28.5 215z" />
<glyph unicode="&#xaa;" horiz-adv-x="724" d="M29 1253q0 39 33.5 77t85 66.5t114 47t121.5 18.5q70 0 107.5 -19.5t55 -48t20.5 -59t3 -51.5v-326q0 -47 5.5 -77.5t33.5 -30.5q20 0 30.5 14.5t14.5 22.5l47 -23q-25 -53 -60.5 -86t-90.5 -33q-102 0 -121 101q-45 -47 -101.5 -76t-115.5 -29q-86 0 -127 48.5 t-41 103.5q0 92 95 150.5t290 125.5v56.5v34t-1 19.5t-3 15q-8 45 -41 68.5t-78 23.5q-10 0 -27.5 -3t-35 -9t-30.5 -17t-13 -28q0 -4 1 -17.5t1 -17.5q0 -45 -25.5 -81.5t-66.5 -36.5q-35 0 -57.5 24.5t-22.5 52.5zM199 928q0 -33 23.5 -58.5t64.5 -25.5q43 0 81 28.5 t60 63.5v164q-66 -27 -109 -45.5t-70.5 -37t-38.5 -39t-11 -50.5z" />
<glyph unicode="&#xab;" horiz-adv-x="894" d="M63 473l359 371h123l-361 -371l361 -360h-123zM338 473l360 371h121l-362 -371l362 -360h-121z" />
<glyph unicode="&#xac;" horiz-adv-x="1366" d="M0 537v120h1366v-657h-123v537h-1243z" />
<glyph unicode="&#xad;" horiz-adv-x="681" d="M43 428v109h596v-109h-596z" />
<glyph unicode="&#xae;" horiz-adv-x="1705" d="M125 723q0 158 58.5 291t157.5 230t231.5 152.5t279.5 55.5q160 0 294 -58.5t231.5 -158.5t151.5 -233t54 -283q0 -152 -57.5 -284t-155.5 -230.5t-231 -154.5t-287 -56q-143 0 -274.5 53t-231.5 149.5t-160.5 230.5t-60.5 296zM190 723q0 -139 52.5 -261t142.5 -211 t210 -140.5t257 -51.5q141 0 262 51.5t210 140.5t141.5 210t52.5 258t-49.5 259t-138.5 212t-211 143t-263 53t-262 -52t-211 -142t-141.5 -211t-51.5 -258zM494 268v70q35 4 53 9t27.5 18.5t11.5 38t2 69.5v533q0 29 -1 48t-10.5 31.5t-28 18.5t-54.5 8v70q47 -2 74.5 -3 t46 -1h30.5h27q12 0 45 1t69.5 1t69.5 1t47 1q59 0 112.5 -6.5t94.5 -28.5q47 -25 79 -72t32 -112q0 -29 -9.5 -62t-34 -63.5t-67.5 -55t-113 -34.5q33 -10 54.5 -29t36 -48.5t25.5 -72.5t26 -100q14 -53 24.5 -80t34.5 -27q18 0 36.5 20.5t33.5 92.5l63 -10q-6 -27 -16 -67 t-28.5 -77t-49.5 -63.5t-76 -26.5t-74.5 18.5t-49 52.5t-32 79t-24.5 98q-18 74 -33.5 117t-40 63.5t-63.5 25.5t-105 5v-248q0 -37 2 -60.5t11.5 -38t31 -21.5t62.5 -13v-70q-49 4 -82 4h-80q-49 0 -95 -1t-95 -3zM739 809q84 0 123 1t68 7q49 10 90 44t41 100 q0 53 -24.5 82.5t-55.5 43t-61.5 15.5t-42.5 2q-51 0 -79 -5t-41.5 -20.5t-15.5 -41t-2 -68.5v-160z" />
<glyph unicode="&#xaf;" horiz-adv-x="555" d="M2 1135v114h549v-114h-549z" />
<glyph unicode="&#xb0;" horiz-adv-x="724" d="M61 1231q0 63 24 117.5t64.5 95.5t96 64.5t116.5 23.5q63 0 118 -23.5t95.5 -64.5t64.5 -96.5t24 -116.5t-24 -116.5t-64.5 -96.5t-95 -64.5t-118.5 -23.5q-61 0 -116.5 23.5t-96 64.5t-64.5 96t-24 117zM184 1231q0 -74 51.5 -126t126.5 -52q74 0 126.5 52t52.5 126 t-52.5 126t-126.5 52q-76 0 -127 -52t-51 -126z" />
<glyph unicode="&#xb1;" horiz-adv-x="1366" d="M84 0v121h1198v-121h-1198zM84 776v121h541v524h120v-524h537v-121h-537v-524h-120v524h-541z" />
<glyph unicode="&#xb2;" horiz-adv-x="641" d="M2 528q37 35 100.5 96.5t155.5 170.5q20 23 46 55.5t48.5 72.5t38 88t15.5 103q0 92 -47.5 141.5t-110.5 49.5q-66 0 -107 -48.5t-41 -109.5q0 -23 4.5 -37t8.5 -29l-27 -14q-20 23 -43 56.5t-23 90.5q0 43 18.5 82t50.5 68t78 46t101 17q47 0 97.5 -15t91.5 -48 t67.5 -84t26.5 -123q0 -68 -27.5 -134.5t-78 -133t-119 -134t-150.5 -137.5q8 0 46 1.5t79 2.5t75 3t36 2q35 4 63.5 16t56.5 62h54q-23 -43 -37 -73t-26.5 -56.5t-25 -56.5t-30.5 -73h-43q6 14 6 25q0 25 -21.5 29t-64.5 4h-260q-29 0 -39 -2t-25 -8z" />
<glyph unicode="&#xb3;" horiz-adv-x="641" d="M10 643q0 27 17.5 47.5t48.5 20.5q35 0 50 -23.5t26 -46.5q6 -14 14 -31.5t21.5 -33t33 -25.5t47.5 -10q31 0 61.5 15t55.5 42t39 63.5t14 79.5q0 94 -63.5 146.5t-153.5 52.5h-17t-22 -2l-10 43q35 12 68.5 34.5t60.5 51.5t43 62.5t16 72.5q0 47 -25.5 82t-78.5 35 q-29 0 -59.5 -16.5t-40.5 -57.5q-4 -18 -4 -34.5v-28.5l-29 -11q-12 14 -26.5 38t-14.5 61q0 31 15.5 60.5t42 52t63.5 36t78 13.5q39 0 75.5 -13.5t64.5 -38t44 -58.5t16 -75q0 -43 -15 -75.5t-36.5 -56t-42 -39t-33.5 -23.5q29 -6 57.5 -14.5t57.5 -30.5 q41 -31 67.5 -85.5t26.5 -117.5q0 -59 -24.5 -117.5t-67.5 -103.5t-100.5 -73t-124.5 -28q-45 0 -88 13.5t-76 35t-52.5 51t-19.5 60.5z" />
<glyph unicode="&#xb4;" horiz-adv-x="555" d="M6 1081q51 43 86 73t65.5 58.5t62.5 59.5t79 78h248v-62q-90 -41 -149.5 -68.5t-112 -54t-108.5 -58.5t-136 -77z" />
<glyph unicode="&#xb5;" horiz-adv-x="1067" d="M6 -416q49 0 74.5 6.5t38 23.5t15.5 48t5 82v719v63v95.5t-1 92.5t-3 52q-4 27 -15 42t-28.5 23.5t-38 10.5t-45.5 2v61q49 0 85 -1t70 0t69.5 2t86.5 3q0 -43 -1 -99t-2 -116.5t-2 -117t-1 -95.5q0 -72 1 -119t5.5 -80.5t10.5 -57t16 -44.5q53 -117 174 -117 q25 0 55.5 6.5t60.5 19.5t52.5 34.5t30.5 50.5q4 12 6 42t3 64.5t1 66.5v48v240q0 72 -5 112.5t-21.5 62t-49 28t-90.5 6.5v59h92h74t74 1t92 3v-706q2 -72 32.5 -96.5t110.5 -22.5v-47q-49 -12 -82.5 -20.5t-62.5 -17.5t-59.5 -20.5t-75.5 -27.5q-8 20 -12.5 34.5t-7.5 28 t-5 29.5t-4 41q-16 -14 -38.5 -33.5t-53.5 -36t-71 -29t-89 -12.5q-31 0 -76 10.5t-75 45.5l-13 18v-377q0 -49 26 -64.5t105 -19.5v-63q-111 6 -215 6q-111 0 -223 -6v63z" />
<glyph unicode="&#xb6;" horiz-adv-x="1366" d="M184 1049q0 111 39 182.5t86 111.5q41 37 85 57.5t87 30t83 12.5t71 3h455v-90h-70v-1698h-94v1698h-322v-1698h-94v1018q-102 12 -165.5 54t-98.5 97.5t-48.5 114.5t-13.5 107z" />
<glyph unicode="&#xb7;" horiz-adv-x="425" d="M90 481q0 49 35 85t86 36q49 0 85 -36t36 -85q0 -51 -36 -86t-85 -35q-51 0 -86 35t-35 86z" />
<glyph unicode="&#xb8;" horiz-adv-x="555" d="M37 -299q0 31 19.5 50.5t45.5 19.5q29 0 50 -25q2 -4 7 -14.5t10 -22.5t10 -23.5t7 -15.5q23 -45 50.5 -52t37.5 -7q39 0 68 25.5t29 70.5q0 37 -26 63.5t-73 26.5h-16t-23 -2l-14 12l8 193l11 8h45l14 -8l-4 -133q16 2 26.5 3t22.5 1q88 0 131 -45t43 -98 q0 -72 -62.5 -125.5t-181.5 -53.5q-53 0 -97 13.5t-74.5 35t-47 48t-16.5 55.5z" />
<glyph unicode="&#xb9;" horiz-adv-x="641" d="M127 504v51q57 0 88 7t45 19.5t17.5 31t3.5 40.5v430q-2 76 -6.5 102.5t-24.5 39.5q-12 10 -51 11t-72 1v49q68 10 114 30.5t77.5 43t50 45t30.5 39.5l25 -10q-2 -23 -3 -39.5t-2 -38t-2 -53t-3 -84.5v-539q0 -45 7 -68.5t24.5 -36t47 -15.5t74.5 -5v-51q-47 0 -105.5 1 t-115.5 1q-53 0 -108.5 -1t-110.5 -1z" />
<glyph unicode="&#xba;" horiz-adv-x="811" d="M45 1104q0 86 29.5 152.5t80 113.5t114.5 70.5t134 23.5q92 0 161 -31.5t115 -83t68.5 -116t22.5 -131.5q0 -84 -29.5 -149.5t-79 -111.5t-113 -71t-132.5 -25q-94 0 -164 31t-116 82t-68.5 114.5t-22.5 131.5zM211 1104q0 -74 17.5 -129t45 -92t63.5 -55.5t73 -18.5 q45 0 81.5 22.5t61.5 62.5t38 92t13 114q0 51 -12 104t-37 95t-61.5 70t-85.5 28q-49 2 -86 -21.5t-61.5 -63.5t-37 -94.5t-12.5 -113.5z" />
<glyph unicode="&#xbb;" horiz-adv-x="894" d="M63 113l365 360l-365 371h121l365 -371l-365 -360h-121zM340 113l360 360l-360 371h121l360 -371l-360 -360h-121z" />
<glyph unicode="&#xbc;" horiz-adv-x="1536" d="M84 504v51q57 0 88 7t45 19.5t17.5 31t3.5 40.5v430q-2 76 -6.5 102.5t-24.5 39.5q-12 10 -51 11t-72 1v49q68 10 114 30.5t77.5 43t50 45t30.5 39.5l25 -10q-2 -23 -3 -39.5t-2 -38t-2 -53t-3 -84.5v-539q0 -45 7 -68.5t24.5 -36t47 -15.5t74.5 -5v-51q-47 0 -105.5 1 t-115.5 1q-53 0 -108.5 -1t-110.5 -1zM289 0l807 1448l65 -39l-805 -1448zM874 264v90l357 547h108v-547h115v-90h-115v-36.5t1 -51t2 -48.5t6 -30q8 -25 30.5 -36t75.5 -15v-47q-66 0 -110 1t-83.5 1t-83.5 -1t-108 -1v47q20 2 54 5t51 14q14 6 21 16t10 31.5t4 56.5t1 94 h-336zM936 354h274v426z" />
<glyph unicode="&#xbd;" horiz-adv-x="1536" d="M78 504v51q57 0 88 7t45 19.5t17 31t3 40.5v428q-2 78 -6 104.5t-24 39.5q-12 10 -51 11t-72 1v49q68 10 114 30.5t77.5 43t50 45t30.5 39.5l25 -10q-2 -23 -3 -39.5t-2 -38t-2 -53t-3 -84.5v-539q0 -45 7 -68.5t24.5 -36t47 -15.5t76.5 -5v-51q-47 0 -106.5 1t-116.5 1 q-53 0 -108.5 -1t-110.5 -1zM283 0l807 1448l67 -39l-807 -1448zM850 25q37 35 100.5 96t155.5 168l46 57.5t48.5 72.5t37.5 88t15 101q0 94 -47 143.5t-110 49.5q-66 0 -107 -48t-41 -110q0 -23 4 -37t9 -31l-27 -14q-20 23 -43 57.5t-23 92.5q0 43 18.5 81.5t50.5 67.5 t78 46.5t101 17.5q47 0 97.5 -15.5t91.5 -48.5t67.5 -85t26.5 -124q0 -68 -28 -133t-78 -132t-118.5 -134.5t-150.5 -136.5q8 0 46 1t79 2t74.5 3t36.5 2q35 4 63.5 16.5t56.5 61.5h54q-23 -43 -37.5 -72t-26.5 -56.5t-24.5 -57t-30.5 -72.5h-43q6 14 6 24q0 25 -21.5 29 t-64.5 4h-260q-31 0 -40 -2t-24 -8z" />
<glyph unicode="&#xbe;" horiz-adv-x="1536" d="M10 643q0 27 17.5 47.5t48.5 20.5q35 0 50 -23.5t26 -46.5q6 -14 14 -31.5t21.5 -33t33 -25.5t47.5 -10q31 0 61.5 15t55.5 42t39 63.5t14 79.5q0 94 -63.5 146.5t-153.5 52.5h-17t-22 -2l-10 43q35 12 68.5 34.5t60.5 51.5t43 62.5t16 72.5q0 47 -25.5 82t-78.5 35 q-29 0 -59.5 -16.5t-40.5 -57.5q-4 -18 -4 -34.5v-28.5l-29 -11q-12 14 -26.5 38t-14.5 61q0 31 15.5 60.5t42 52t63.5 36t78 13.5q39 0 75.5 -13.5t64.5 -38t44 -58.5t16 -75q0 -43 -15 -75.5t-36.5 -56t-42 -39t-33.5 -23.5q29 -6 57.5 -14.5t57.5 -30.5 q41 -31 67.5 -85.5t26.5 -117.5q0 -59 -24.5 -117.5t-67.5 -103.5t-100.5 -73t-124.5 -28q-45 0 -88 13.5t-76 35t-52.5 51t-19.5 60.5zM313 0l807 1446l66 -39l-805 -1446zM918 264v90l356 549h108v-549h115v-90h-115v-36.5t1 -51t2 -48.5t6 -30q8 -25 30.5 -36t75.5 -15 v-47q-66 0 -110 1t-83.5 1t-83.5 -1t-108 -1v47q20 2 54 5t51 14q14 6 21 16t10 31.5t4 56.5t1 94h-335zM979 354h274v428z" />
<glyph unicode="&#xbf;" horiz-adv-x="681" d="M47 375q0 72 21.5 136t63.5 115.5t101.5 85t137.5 42.5v368h88v-549h-70t-73.5 -5t-71.5 -16t-62 -34l-14 -14t-21.5 -26.5t-20.5 -41t-9 -55.5q0 -43 14 -76t38 -55.5t53.5 -37.5t60.5 -24q27 -8 52 -12t52 -10q45 -10 76 -32.5t31 -63.5q0 -35 -29 -64t-86 -29 q-51 0 -109.5 25t-107.5 74t-82 123.5t-33 175.5zM291 1337q0 51 35.5 86t85.5 35q51 0 86 -35t34 -86q0 -49 -34.5 -84.5t-85.5 -35.5q-49 0 -85 35.5t-36 84.5z" />
<glyph unicode="&#xc0;" horiz-adv-x="1492" d="M0 0v66q68 6 110 17t69.5 34.5t47 63.5t41.5 104q98 272 195.5 540.5t195.5 540.5q-10 16 -15 24.5t-17 24.5q49 10 82.5 19.5t59.5 20.5t47.5 24.5t45.5 31.5q18 -63 31.5 -104t24 -74t20.5 -63.5t25 -73.5l272 -850q27 -84 47.5 -136t47 -82t62 -43t95.5 -19v-66 q-72 2 -148.5 3t-152.5 1t-150.5 -1t-150.5 -3v66q37 2 69.5 6t56 14t38 28.5t14.5 49.5q0 23 -14.5 79t-33 121.5t-38 127t-29.5 96.5h-495q-20 -61 -40 -123t-38 -121q-14 -41 -28.5 -92t-14.5 -74q0 -39 20.5 -60.5t51 -32.5t65.5 -14t61 -5v-66q-66 2 -131 3t-131 1 q-68 0 -134 -1t-134 -3zM453 1808v64h249q51 -51 88 -85t68 -62.5t62.5 -56.5t74.5 -64l-32 -50q-111 61 -182.5 99.5t-126 64t-99.5 46t-102 44.5zM485 680h433q-25 76 -52.5 159t-55.5 163.5t-54.5 155.5t-53.5 134z" />
<glyph unicode="&#xc1;" horiz-adv-x="1492" d="M0 0v66q68 6 110 17t69.5 34.5t47 63.5t41.5 104q98 272 195.5 540.5t195.5 540.5q-10 16 -15 24.5t-17 24.5q49 10 82.5 19.5t59.5 20.5t47.5 24.5t45.5 31.5q18 -63 31.5 -104t24 -74t20.5 -63.5t25 -73.5l272 -850q27 -84 47.5 -136t47 -82t62 -43t95.5 -19v-66 q-72 2 -148.5 3t-152.5 1t-150.5 -1t-150.5 -3v66q37 2 69.5 6t56 14t38 28.5t14.5 49.5q0 23 -14.5 79t-33 121.5t-38 127t-29.5 96.5h-495q-20 -61 -40 -123t-38 -121q-14 -41 -28.5 -92t-14.5 -74q0 -39 20.5 -60.5t51 -32.5t65.5 -14t61 -5v-66q-66 2 -131 3t-131 1 q-68 0 -134 -1t-134 -3zM485 680h433q-25 76 -52.5 159t-55.5 163.5t-54.5 155.5t-53.5 134zM539 1602q51 43 85.5 72.5t65.5 58t62.5 59.5t78.5 78h248v-62q-90 -41 -149.5 -68.5t-111.5 -54t-108.5 -58.5t-136.5 -77z" />
<glyph unicode="&#xc2;" horiz-adv-x="1492" d="M0 0v66q68 6 110 17t69.5 34.5t47 63.5t41.5 104q98 272 195.5 540.5t195.5 540.5q-10 16 -15 24.5t-17 24.5q49 10 82.5 19.5t59.5 20.5t47.5 24.5t45.5 31.5q18 -63 31.5 -104t24 -74t20.5 -63.5t25 -73.5l272 -850q27 -84 47.5 -136t47 -82t62 -43t95.5 -19v-66 q-72 2 -148.5 3t-152.5 1t-150.5 -1t-150.5 -3v66q37 2 69.5 6t56 14t38 28.5t14.5 49.5q0 23 -14.5 79t-33 121.5t-38 127t-29.5 96.5h-495q-20 -61 -40 -123t-38 -121q-14 -41 -28.5 -92t-14.5 -74q0 -39 20.5 -60.5t51 -32.5t65.5 -14t61 -5v-66q-66 2 -131 3t-131 1 q-68 0 -134 -1t-134 -3zM451 1616q49 45 80.5 73.5t58 53t55.5 52.5t72 71h114q39 -41 67 -70t54.5 -54.5t57 -55t77.5 -70.5l-38 -49q-47 25 -78 42t-59.5 32.5t-61.5 34t-80 46.5q-45 -25 -74.5 -42t-58.5 -32.5t-62.5 -34t-87.5 -46.5zM485 680h433q-25 76 -52.5 159 t-55.5 163.5t-54.5 155.5t-53.5 134z" />
<glyph unicode="&#xc3;" horiz-adv-x="1492" d="M0 0v66q68 6 110 17t69.5 34.5t47 63.5t41.5 104q98 272 195.5 540.5t195.5 540.5q-10 16 -15 24.5t-17 24.5q49 10 82.5 19.5t59.5 20.5t47.5 24.5t45.5 31.5q18 -63 31.5 -104t24 -74t20.5 -63.5t25 -73.5l272 -850q27 -84 47.5 -136t47 -82t62 -43t95.5 -19v-66 q-72 2 -148.5 3t-152.5 1t-150.5 -1t-150.5 -3v66q37 2 69.5 6t56 14t38 28.5t14.5 49.5q0 23 -14.5 79t-33 121.5t-38 127t-29.5 96.5h-495q-20 -61 -40 -123t-38 -121q-14 -41 -28.5 -92t-14.5 -74q0 -39 20.5 -60.5t51 -32.5t65.5 -14t61 -5v-66q-66 2 -131 3t-131 1 q-68 0 -134 -1t-134 -3zM432 1616q23 33 48.5 66.5t58 61.5t72.5 46t89 18q43 0 89.5 -14t103.5 -39q23 -10 43 -17t43 -7q35 0 61.5 24.5t57.5 61.5l45 -35q-14 -20 -37 -52t-54.5 -62t-72.5 -51.5t-92 -21.5q-47 0 -86 13.5t-53 19.5q-37 14 -59.5 23.5t-36 14.5t-22.5 6 t-22 1q-41 0 -66.5 -22.5t-66.5 -69.5zM485 680h433q-25 76 -52.5 159t-55.5 163.5t-54.5 155.5t-53.5 134z" />
<glyph unicode="&#xc4;" horiz-adv-x="1492" d="M0 0v66q68 6 110 17t69.5 34.5t47 63.5t41.5 104q98 272 195.5 540.5t195.5 540.5q-10 16 -15 24.5t-17 24.5q49 10 82.5 19.5t59.5 20.5t47.5 24.5t45.5 31.5q18 -63 31.5 -104t24 -74t20.5 -63.5t25 -73.5l272 -850q27 -84 47.5 -136t47 -82t62 -43t95.5 -19v-66 q-72 2 -148.5 3t-152.5 1t-150.5 -1t-150.5 -3v66q37 2 69.5 6t56 14t38 28.5t14.5 49.5q0 23 -14.5 79t-33 121.5t-38 127t-29.5 96.5h-495q-20 -61 -40 -123t-38 -121q-14 -41 -28.5 -92t-14.5 -74q0 -39 20.5 -60.5t51 -32.5t65.5 -14t61 -5v-66q-66 2 -131 3t-131 1 q-68 0 -134 -1t-134 -3zM442 1712q0 49 35 84t86 35q49 0 84 -35t35 -84q0 -51 -35 -86t-84 -35q-51 0 -86 35t-35 86zM485 680h433q-25 76 -52.5 159t-55.5 163.5t-54.5 155.5t-53.5 134zM850 1712q0 49 35 84t86 35q49 0 84 -35t35 -84q0 -51 -35 -86t-84 -35 q-51 0 -86 35t-35 86z" />
<glyph unicode="&#xc5;" horiz-adv-x="1492" d="M0 0v66q68 6 110 17t69.5 34.5t47 63.5t41.5 104q98 272 195.5 540.5t195.5 540.5q-10 16 -15 24.5t-17 24.5q49 10 82.5 19.5t59.5 20.5t47.5 24.5t45.5 31.5q18 -63 31.5 -104t24 -74t20.5 -63.5t25 -73.5l272 -850q27 -84 47.5 -136t47 -82t62 -43t95.5 -19v-66 q-72 2 -148.5 3t-152.5 1t-150.5 -1t-150.5 -3v66q37 2 69.5 6t56 14t38 28.5t14.5 49.5q0 23 -14.5 79t-33 121.5t-38 127t-29.5 96.5h-495q-20 -61 -40 -123t-38 -121q-14 -41 -28.5 -92t-14.5 -74q0 -39 20.5 -60.5t51 -32.5t65.5 -14t61 -5v-66q-66 2 -131 3t-131 1 q-68 0 -134 -1t-134 -3zM485 680h433q-25 76 -52.5 159t-55.5 163.5t-54.5 155.5t-53.5 134zM567 1704q0 39 14.5 73.5t40 60.5t60.5 41t74 15q80 0 135 -55t55 -135q0 -39 -15.5 -74t-41 -60.5t-60 -41t-73.5 -15.5q-78 1 -133 56q-27 27 -41.5 62.5t-14.5 72.5zM635 1704 q0 -49 35 -88q35 -35 86 -35t87 36t36 87t-36 87t-87 36q-49 0 -85 -36t-36 -87z" />
<glyph unicode="&#xc6;" horiz-adv-x="1878" d="M-43 0v66q51 6 89 16t66.5 30.5t52 52.5t50.5 81q23 43 56.5 110.5t74.5 148.5t86 170t89 176t84 167t73 143q29 59 39 89t10 53q0 29 -13.5 45t-38 23t-59 8t-75.5 1v66h1083q25 -55 41 -94t33.5 -76t37 -80t50.5 -106l-43 -29q-39 45 -76 90t-76 90t-65.5 72.5t-52 41 t-53 18.5t-68.5 7h-269v-587q102 0 164 3t98.5 25.5t57 72.5t43.5 142h51q-2 -72 -4 -142.5t-2 -141.5q0 -141 6 -283h-51q-18 90 -40 139t-60.5 71.5t-100 27t-162.5 4.5v-320q0 -96 3.5 -156.5t19.5 -96.5t50 -51t95 -19q113 -6 178.5 -3t104.5 16t61.5 34.5t46.5 52.5 q6 8 14.5 18.5t25 36t47 69.5t83.5 120l46 -21q-23 -68 -37.5 -113t-26.5 -84.5t-23.5 -83.5t-27.5 -110h-1032v66q66 6 100.5 15t51 37.5t19.5 84t3 155.5v353h-344l-172 -351q-10 -23 -22.5 -49t-24 -54t-18.5 -53.5t-7 -41.5q0 -35 18.5 -53.5t46 -27.5t59.5 -12t56 -3 v-66q-133 6 -262 6t-258 -6zM580 793h305v575h-21z" />
<glyph unicode="&#xc7;" horiz-adv-x="1449" d="M68 709q0 178 60 320t161.5 242.5t233.5 154t276 53.5q92 0 164.5 -17.5t130 -43t100.5 -54.5t74 -53l104 88l6 -428l-43 -4q-16 53 -36.5 104t-61.5 111q-78 119 -184.5 173t-218.5 54q-94 0 -187.5 -38t-167 -114.5t-119 -193.5t-45.5 -275q0 -133 37 -262t108.5 -230 t178 -163.5t246.5 -62.5q100 0 177 29.5t132 73.5t93 92t63 85l59 -37q-20 -33 -62 -90t-114 -113.5t-179.5 -99.5t-256.5 -45l-2 -98q16 2 27.5 3t21.5 1q90 0 133 -45t43 -98q0 -70 -61.5 -124.5t-184.5 -54.5q-53 0 -97 13.5t-75 35t-47 48t-16 55.5q0 33 20.5 51.5 t44.5 18.5q27 0 49 -25q2 -4 8.5 -14.5t11.5 -22.5t10 -23.5t7 -15.5q23 -45 50.5 -52t37.5 -7q39 0 67.5 26.5t28.5 69.5q0 35 -25.5 62.5t-74.5 27.5h-17t-20 -2l-16 12l8 162q-158 14 -280.5 78t-207.5 163t-129 226t-44 273z" />
<glyph unicode="&#xc8;" horiz-adv-x="1323" d="M45 0v66q57 4 91 14t50.5 27.5t20.5 43t4 60.5q2 37 3 76t2 85t1 104.5v135.5v385v71t-2 94t-5 90t-9 57q-14 41 -48 51t-108 20v66h1063q25 -61 43 -103.5t34.5 -79t35 -76.5t47.5 -97l-39 -29q-61 70 -96 107.5t-53.5 58t-29 30t-24.5 21.5q-33 31 -65.5 50.5 t-75.5 30.5t-103.5 15t-148.5 6h-211v-587h203q72 0 116.5 7t74.5 33.5t47.5 73.5t35.5 127h53q-6 -145 -6 -293q0 -143 6 -280h-53q-18 88 -37.5 137t-54.5 73.5t-88 30t-139 5.5h-158v-349q0 -104 5 -162.5t31.5 -87t84 -34.5t162.5 -8h108q63 0 107.5 6t90.5 38.5 t104.5 103.5t152.5 200l45 -25q-23 -66 -36 -111t-25.5 -84.5t-25 -85t-30.5 -108.5h-1151zM324 1808v64h249q51 -51 88 -85t68 -62.5t62.5 -56.5t74.5 -64l-32 -50q-111 61 -182.5 99.5t-126 64t-99.5 46t-102 44.5z" />
<glyph unicode="&#xc9;" horiz-adv-x="1323" d="M45 0v66q57 4 91 14t50.5 27.5t20.5 43t4 60.5q2 37 3 76t2 85t1 104.5v135.5v385v71t-2 94t-5 90t-9 57q-14 41 -48 51t-108 20v66h1063q25 -61 43 -103.5t34.5 -79t35 -76.5t47.5 -97l-39 -29q-61 70 -96 107.5t-53.5 58t-29 30t-24.5 21.5q-33 31 -65.5 50.5 t-75.5 30.5t-103.5 15t-148.5 6h-211v-587h203q72 0 116.5 7t74.5 33.5t47.5 73.5t35.5 127h53q-6 -145 -6 -293q0 -143 6 -280h-53q-18 88 -37.5 137t-54.5 73.5t-88 30t-139 5.5h-158v-349q0 -104 5 -162.5t31.5 -87t84 -34.5t162.5 -8h108q63 0 107.5 6t90.5 38.5 t104.5 103.5t152.5 200l45 -25q-23 -66 -36 -111t-25.5 -84.5t-25 -85t-30.5 -108.5h-1151zM410 1602q51 43 85.5 72.5t65.5 58t62.5 59.5t78.5 78h248v-62q-90 -41 -149.5 -68.5t-111.5 -54t-108.5 -58.5t-136.5 -77z" />
<glyph unicode="&#xca;" horiz-adv-x="1323" d="M45 0v66q57 4 91 14t50.5 27.5t20.5 43t4 60.5q2 37 3 76t2 85t1 104.5v135.5v385v71t-2 94t-5 90t-9 57q-14 41 -48 51t-108 20v66h1063q25 -61 43 -103.5t34.5 -79t35 -76.5t47.5 -97l-39 -29q-61 70 -96 107.5t-53.5 58t-29 30t-24.5 21.5q-33 31 -65.5 50.5 t-75.5 30.5t-103.5 15t-148.5 6h-211v-587h203q72 0 116.5 7t74.5 33.5t47.5 73.5t35.5 127h53q-6 -145 -6 -293q0 -143 6 -280h-53q-18 88 -37.5 137t-54.5 73.5t-88 30t-139 5.5h-158v-349q0 -104 5 -162.5t31.5 -87t84 -34.5t162.5 -8h108q63 0 107.5 6t90.5 38.5 t104.5 103.5t152.5 200l45 -25q-23 -66 -36 -111t-25.5 -84.5t-25 -85t-30.5 -108.5h-1151zM322 1616q49 45 80.5 73.5t58 53t55.5 52.5t72 71h114q39 -41 67 -70t54.5 -54.5t57 -55t77.5 -70.5l-38 -49q-47 25 -78 42t-59.5 32.5t-61.5 34t-80 46.5q-45 -25 -74.5 -42 t-58.5 -32.5t-62.5 -34t-87.5 -46.5z" />
<glyph unicode="&#xcb;" horiz-adv-x="1323" d="M45 0v66q57 4 91 14t50.5 27.5t20.5 43t4 60.5q2 37 3 76t2 85t1 104.5v135.5v385v71t-2 94t-5 90t-9 57q-14 41 -48 51t-108 20v66h1063q25 -61 43 -103.5t34.5 -79t35 -76.5t47.5 -97l-39 -29q-61 70 -96 107.5t-53.5 58t-29 30t-24.5 21.5q-33 31 -65.5 50.5 t-75.5 30.5t-103.5 15t-148.5 6h-211v-587h203q72 0 116.5 7t74.5 33.5t47.5 73.5t35.5 127h53q-6 -145 -6 -293q0 -143 6 -280h-53q-18 88 -37.5 137t-54.5 73.5t-88 30t-139 5.5h-158v-349q0 -104 5 -162.5t31.5 -87t84 -34.5t162.5 -8h108q63 0 107.5 6t90.5 38.5 t104.5 103.5t152.5 200l45 -25q-23 -66 -36 -111t-25.5 -84.5t-25 -85t-30.5 -108.5h-1151zM315 1712q0 49 35 84t86 35q49 0 84 -35t35 -84q0 -51 -35 -86t-84 -35q-51 0 -86 35t-35 86zM723 1712q0 49 35 84t86 35q49 0 84 -35t35 -84q0 -51 -35 -86t-84 -35q-51 0 -86 35 t-35 86z" />
<glyph unicode="&#xcc;" horiz-adv-x="641" d="M4 1808v64h250q51 -51 88 -85t67.5 -62.5t62.5 -56.5t75 -64l-33 -50q-111 61 -182.5 99.5t-125.5 64t-99.5 46t-102.5 44.5zM43 0v66q63 6 98 16t51.5 32.5t20.5 63.5t4 109q2 59 2 120.5v122.5v375q0 94 -1 155.5t-2 100.5t-3 62.5t-4 42.5q-4 33 -13.5 53t-27.5 32.5 t-48 18.5t-77 10v66q70 -6 139.5 -10t141.5 -4q68 0 135 4t137 10v-66q-66 -6 -100.5 -17t-51 -40t-19.5 -85t-3 -153v-731q0 -94 3 -148t19.5 -84t51 -40t100.5 -16v-66q-70 4 -135.5 6t-130.5 2q-72 0 -143.5 -2t-143.5 -6z" />
<glyph unicode="&#xcd;" horiz-adv-x="641" d="M43 0v66q63 6 98 16t51.5 32.5t20.5 63.5t4 109q2 59 2 120.5v122.5v375q0 94 -1 155.5t-2 100.5t-3 62.5t-4 42.5q-4 33 -13.5 53t-27.5 32.5t-48 18.5t-77 10v66q70 -6 139.5 -10t141.5 -4q68 0 135 4t137 10v-66q-66 -6 -100.5 -17t-51 -40t-19.5 -85t-3 -153v-731 q0 -94 3 -148t19.5 -84t51 -40t100.5 -16v-66q-70 4 -135.5 6t-130.5 2q-72 0 -143.5 -2t-143.5 -6zM90 1602q51 43 86 72.5t65.5 58t62.5 59.5t79 78h248v-62q-90 -41 -149.5 -68.5t-112 -54t-108.5 -58.5t-136 -77z" />
<glyph unicode="&#xce;" horiz-adv-x="641" d="M2 1616q49 45 81 73.5t58.5 53t55 52.5t71.5 71h115q39 -41 66.5 -70t54 -54.5t57.5 -55t78 -70.5l-39 -49q-47 25 -77.5 42t-59.5 32.5t-61.5 34t-79.5 46.5q-45 -25 -75 -42t-58.5 -32.5t-62.5 -34t-87 -46.5zM43 0v66q63 6 98 16t51.5 32.5t20.5 63.5t4 109 q2 59 2 120.5v122.5v375q0 94 -1 155.5t-2 100.5t-3 62.5t-4 42.5q-4 33 -13.5 53t-27.5 32.5t-48 18.5t-77 10v66q70 -6 139.5 -10t141.5 -4q68 0 135 4t137 10v-66q-66 -6 -100.5 -17t-51 -40t-19.5 -85t-3 -153v-731q0 -94 3 -148t19.5 -84t51 -40t100.5 -16v-66 q-70 4 -135.5 6t-130.5 2q-72 0 -143.5 -2t-143.5 -6z" />
<glyph unicode="&#xcf;" horiz-adv-x="641" d="M-4 1712q0 49 35 84t86 35q49 0 84 -35t35 -84q0 -51 -35 -86t-84 -35q-51 0 -86 35t-35 86zM43 0v66q63 6 98 16t51.5 32.5t20.5 63.5t4 109q2 59 2 120.5v122.5v375q0 94 -1 155.5t-2 100.5t-3 62.5t-4 42.5q-4 33 -13.5 53t-27.5 32.5t-48 18.5t-77 10v66 q70 -6 139.5 -10t141.5 -4q68 0 135 4t137 10v-66q-66 -6 -100.5 -17t-51 -40t-19.5 -85t-3 -153v-731q0 -94 3 -148t19.5 -84t51 -40t100.5 -16v-66q-70 4 -135.5 6t-130.5 2q-72 0 -143.5 -2t-143.5 -6zM403 1712q0 49 35 84t86 35q49 0 84 -35t35 -84q0 -51 -35 -86 t-84 -35q-51 0 -86 35t-35 86z" />
<glyph unicode="&#xd0;" horiz-adv-x="1579" d="M41 0v68q63 6 99 15t52.5 35.5t19.5 78t3 141.5q0 43 1 86t1 86v229h-176v95h176v167q0 25 -1 70t-2 92t-4 88t-9 58q-16 39 -52 50t-108 19v70q51 -2 100 -2h101h65.5t93.5 2q29 0 68 1l78 2t72.5 1h52.5q147 0 274 -20.5t246 -96.5q143 -92 228 -249.5t85 -356.5 q0 -72 -14 -148.5t-45 -151.5t-82 -143.5t-125 -123.5q-80 -61 -166 -94t-167 -48.5t-150.5 -17.5t-114.5 -2h-65.5t-100.5 1t-101 1h-69h-128t-136 -2zM424 310q0 -27 1 -53t2 -46.5t1 -28.5q2 -20 7 -40.5t26.5 -37t65.5 -26.5t124 -10q143 0 257 51t194 141t122 215 t42 270q0 147 -53.5 283.5t-168.5 228.5q-55 43 -109 69t-108.5 39t-107.5 16t-103 3h-92t-100 -2v-548h467v-95h-467v-379v-50z" />
<glyph unicode="&#xd1;" horiz-adv-x="1579" d="M18 1380v66q47 -2 95.5 -3t95.5 -1t94 1t94 3q20 -33 39 -59.5t40.5 -56.5t48 -64.5t65.5 -81.5q55 -68 149.5 -181.5t198.5 -238.5t200.5 -239.5t155.5 -184.5q2 215 2 353v224.5t-1 134.5t-1 85q-2 88 -8 136t-29.5 70.5t-70.5 28.5t-131 8v66q63 -2 125.5 -3t128.5 -1 q61 0 118.5 1t126.5 3v-66q-51 -4 -82.5 -9t-51 -23.5t-28 -54.5t-10.5 -101q-2 -27 -3 -114t-3 -206.5t-4 -258t-4 -264.5t-4 -225t-2 -144h-33l-1028 1232v-120.5v-182v-211v-208t2 -171t4 -102.5q4 -47 18.5 -75.5t42 -44t71.5 -21.5t108 -10v-66q-68 2 -134.5 3 t-133.5 1q-61 0 -125 -1t-127 -3v66q47 0 91 6t66 37q8 10 12.5 23t7.5 39t5 68t6 109l12 936q-29 25 -52 40t-46 26.5t-49.5 17.5t-61.5 12zM475 1616q23 33 48.5 66.5t58 61.5t72.5 46t89 18q43 0 89.5 -14t103.5 -39q23 -10 43 -17t43 -7q35 0 61.5 24.5t57.5 61.5 l45 -35q-14 -20 -37 -52t-54.5 -62t-72.5 -51.5t-92 -21.5q-47 0 -86 13.5t-53 19.5q-37 14 -59.5 23.5t-36 14.5t-22.5 6t-22 1q-41 0 -66.5 -22.5t-66.5 -69.5z" />
<glyph unicode="&#xd2;" horiz-adv-x="1622" d="M70 727q0 172 59 309.5t157.5 234.5t226.5 151.5t265 58.5q150 4 289 -48.5t244.5 -151.5t169 -242.5t63.5 -319.5q0 -182 -63.5 -321.5t-167 -235.5t-234.5 -145.5t-266 -49.5q-152 0 -286 56.5t-236.5 157t-161.5 240.5t-59 306zM324 741q0 -129 30.5 -257t92 -229 t154.5 -164.5t220 -63.5q125 0 215 66.5t146.5 169t83 226t26.5 240.5q0 68 -12 145.5t-37.5 155.5t-65.5 149.5t-96.5 126t-130.5 86t-166 27.5q-129 -6 -217 -72.5t-142 -165t-77.5 -216t-23.5 -224.5zM496 1808v64h249q51 -51 88 -85t68 -62.5t62.5 -56.5t74.5 -64 l-32 -50q-111 61 -182.5 99.5t-126 64t-99.5 46t-102 44.5z" />
<glyph unicode="&#xd3;" horiz-adv-x="1622" d="M70 727q0 172 59 309.5t157.5 234.5t226.5 151.5t265 58.5q150 4 289 -48.5t244.5 -151.5t169 -242.5t63.5 -319.5q0 -182 -63.5 -321.5t-167 -235.5t-234.5 -145.5t-266 -49.5q-152 0 -286 56.5t-236.5 157t-161.5 240.5t-59 306zM324 741q0 -129 30.5 -257t92 -229 t154.5 -164.5t220 -63.5q125 0 215 66.5t146.5 169t83 226t26.5 240.5q0 68 -12 145.5t-37.5 155.5t-65.5 149.5t-96.5 126t-130.5 86t-166 27.5q-129 -6 -217 -72.5t-142 -165t-77.5 -216t-23.5 -224.5zM582 1602q51 43 85.5 72.5t65.5 58t62.5 59.5t78.5 78h248v-62 q-90 -41 -149.5 -68.5t-111.5 -54t-108.5 -58.5t-136.5 -77z" />
<glyph unicode="&#xd4;" horiz-adv-x="1622" d="M70 727q0 172 59 309.5t157.5 234.5t226.5 151.5t265 58.5q150 4 289 -48.5t244.5 -151.5t169 -242.5t63.5 -319.5q0 -182 -63.5 -321.5t-167 -235.5t-234.5 -145.5t-266 -49.5q-152 0 -286 56.5t-236.5 157t-161.5 240.5t-59 306zM324 741q0 -129 30.5 -257t92 -229 t154.5 -164.5t220 -63.5q125 0 215 66.5t146.5 169t83 226t26.5 240.5q0 68 -12 145.5t-37.5 155.5t-65.5 149.5t-96.5 126t-130.5 86t-166 27.5q-129 -6 -217 -72.5t-142 -165t-77.5 -216t-23.5 -224.5zM494 1616q49 45 80.5 73.5t58 53t55.5 52.5t72 71h114q39 -41 67 -70 t54.5 -54.5t57 -55t77.5 -70.5l-38 -49q-47 25 -78 42t-59.5 32.5t-61.5 34t-80 46.5q-45 -25 -74.5 -42t-58.5 -32.5t-62.5 -34t-87.5 -46.5z" />
<glyph unicode="&#xd5;" horiz-adv-x="1622" d="M70 727q0 172 59 309.5t157.5 234.5t226.5 151.5t265 58.5q150 4 289 -48.5t244.5 -151.5t169 -242.5t63.5 -319.5q0 -182 -63.5 -321.5t-167 -235.5t-234.5 -145.5t-266 -49.5q-152 0 -286 56.5t-236.5 157t-161.5 240.5t-59 306zM324 741q0 -129 30.5 -257t92 -229 t154.5 -164.5t220 -63.5q125 0 215 66.5t146.5 169t83 226t26.5 240.5q0 68 -12 145.5t-37.5 155.5t-65.5 149.5t-96.5 126t-130.5 86t-166 27.5q-129 -6 -217 -72.5t-142 -165t-77.5 -216t-23.5 -224.5zM475 1616q23 33 48.5 66.5t58 61.5t72.5 46t89 18q43 0 89.5 -14 t103.5 -39q23 -10 43 -17t43 -7q35 0 61.5 24.5t57.5 61.5l45 -35q-14 -20 -37 -52t-54.5 -62t-72.5 -51.5t-92 -21.5q-47 0 -86 13.5t-53 19.5q-37 14 -59.5 23.5t-36 14.5t-22.5 6t-22 1q-41 0 -66.5 -22.5t-66.5 -69.5z" />
<glyph unicode="&#xd6;" horiz-adv-x="1622" d="M70 727q0 172 59 309.5t157.5 234.5t226.5 151.5t265 58.5q150 4 289 -48.5t244.5 -151.5t169 -242.5t63.5 -319.5q0 -182 -63.5 -321.5t-167 -235.5t-234.5 -145.5t-266 -49.5q-152 0 -286 56.5t-236.5 157t-161.5 240.5t-59 306zM324 741q0 -129 30.5 -257t92 -229 t154.5 -164.5t220 -63.5q125 0 215 66.5t146.5 169t83 226t26.5 240.5q0 68 -12 145.5t-37.5 155.5t-65.5 149.5t-96.5 126t-130.5 86t-166 27.5q-129 -6 -217 -72.5t-142 -165t-77.5 -216t-23.5 -224.5zM483 1712q0 49 35 84t86 35q49 0 84 -35t35 -84q0 -51 -35 -86 t-84 -35q-51 0 -86 35t-35 86zM891 1712q0 49 35 84t86 35q49 0 83.5 -35t34.5 -84q0 -51 -34.5 -86t-83.5 -35q-51 0 -86 35t-35 86z" />
<glyph unicode="&#xd7;" horiz-adv-x="1366" d="M172 170l424 426l-424 422l86 86l424 -424l426 424l84 -86l-424 -422l424 -426l-84 -84l-426 424l-424 -424z" />
<glyph unicode="&#xd8;" horiz-adv-x="1622" d="M72 719q0 186 65.5 328.5t169 237.5t233.5 144.5t259 49.5q78 0 139 -11.5t110.5 -30t88.5 -39t71 -38.5l119 168l57 -39l-118 -172q25 -23 71.5 -68t93 -117.5t80 -174t33.5 -234.5q0 -162 -57 -300t-157.5 -238.5t-236 -157t-290.5 -56.5q-80 0 -142.5 12.5t-111.5 31 t-86 40t-68 41.5l-119 -162l-57 41l117 164q-31 31 -77 78t-87 118t-70.5 166t-29.5 218zM319 705q0 -88 10.5 -156t26 -120t35 -92t35.5 -73l711 996q-18 23 -45 50t-64 51.5t-89 41t-124 16.5q-135 0 -230.5 -67.5t-153.5 -173t-85 -231.5t-27 -242zM467 199l45 -50 t66.5 -56.5t95 -45t127.5 -18.5q127 0 220 66.5t154.5 171t91 233.5t29.5 252q0 156 -38.5 265t-79.5 177z" />
<glyph unicode="&#xd9;" horiz-adv-x="1536" d="M14 1380v66q66 -2 136.5 -4t142.5 -2t143.5 2t145.5 4v-66q-72 -6 -111 -15t-57.5 -40t-22.5 -90t-4 -164v-412q0 -82 5 -169t40 -171q31 -74 78 -124t101.5 -79.5t109.5 -42t102 -12.5q84 0 160 31t135 96q45 49 74 106.5t45 149t22.5 227.5t6.5 339q0 129 -3 200.5 t-22.5 107.5t-61.5 46t-120 16v66q61 -2 123.5 -3t124.5 -1q55 0 111.5 1t111.5 3v-66q-59 -4 -98 -14t-56 -53q-6 -16 -10 -36t-8 -79q-8 -104 -9 -162.5t-1 -77.5q-6 -164 -11.5 -271t-12.5 -180t-19.5 -123t-30.5 -95q-41 -92 -102.5 -153.5t-133 -98.5t-147.5 -51.5 t-143 -14.5q-129 0 -233.5 42t-176.5 108q-55 53 -86 113.5t-46.5 121t-18.5 118.5t-3 110v583q0 68 -5 107t-22.5 60.5t-51 30.5t-91.5 15zM496 1808v64h249q51 -51 88 -85t68 -62.5t62.5 -56.5t74.5 -64l-32 -50q-111 61 -182.5 99.5t-126 64t-99.5 46t-102 44.5z" />
<glyph unicode="&#xda;" horiz-adv-x="1536" d="M14 1380v66q66 -2 136.5 -4t142.5 -2t143.5 2t145.5 4v-66q-72 -6 -111 -15t-57.5 -40t-22.5 -90t-4 -164v-412q0 -82 5 -169t40 -171q31 -74 78 -124t101.5 -79.5t109.5 -42t102 -12.5q84 0 160 31t135 96q45 49 74 106.5t45 149t22.5 227.5t6.5 339q0 129 -3 200.5 t-22.5 107.5t-61.5 46t-120 16v66q61 -2 123.5 -3t124.5 -1q55 0 111.5 1t111.5 3v-66q-59 -4 -98 -14t-56 -53q-6 -16 -10 -36t-8 -79q-8 -104 -9 -162.5t-1 -77.5q-6 -164 -11.5 -271t-12.5 -180t-19.5 -123t-30.5 -95q-41 -92 -102.5 -153.5t-133 -98.5t-147.5 -51.5 t-143 -14.5q-129 0 -233.5 42t-176.5 108q-55 53 -86 113.5t-46.5 121t-18.5 118.5t-3 110v583q0 68 -5 107t-22.5 60.5t-51 30.5t-91.5 15zM582 1602q51 43 85.5 72.5t65.5 58t62.5 59.5t78.5 78h248v-62q-90 -41 -149.5 -68.5t-111.5 -54t-108.5 -58.5t-136.5 -77z" />
<glyph unicode="&#xdb;" horiz-adv-x="1536" d="M14 1380v66q66 -2 136.5 -4t142.5 -2t143.5 2t145.5 4v-66q-72 -6 -111 -15t-57.5 -40t-22.5 -90t-4 -164v-412q0 -82 5 -169t40 -171q31 -74 78 -124t101.5 -79.5t109.5 -42t102 -12.5q84 0 160 31t135 96q45 49 74 106.5t45 149t22.5 227.5t6.5 339q0 129 -3 200.5 t-22.5 107.5t-61.5 46t-120 16v66q61 -2 123.5 -3t124.5 -1q55 0 111.5 1t111.5 3v-66q-59 -4 -98 -14t-56 -53q-6 -16 -10 -36t-8 -79q-8 -104 -9 -162.5t-1 -77.5q-6 -164 -11.5 -271t-12.5 -180t-19.5 -123t-30.5 -95q-41 -92 -102.5 -153.5t-133 -98.5t-147.5 -51.5 t-143 -14.5q-129 0 -233.5 42t-176.5 108q-55 53 -86 113.5t-46.5 121t-18.5 118.5t-3 110v583q0 68 -5 107t-22.5 60.5t-51 30.5t-91.5 15zM494 1616q49 45 80.5 73.5t58 53t55.5 52.5t72 71h114q39 -41 67 -70t54.5 -54.5t57 -55t77.5 -70.5l-38 -49q-47 25 -78 42 t-59.5 32.5t-61.5 34t-80 46.5q-45 -25 -74.5 -42t-58.5 -32.5t-62.5 -34t-87.5 -46.5z" />
<glyph unicode="&#xdc;" horiz-adv-x="1536" d="M14 1380v66q66 -2 136.5 -4t142.5 -2t143.5 2t145.5 4v-66q-72 -6 -111 -15t-57.5 -40t-22.5 -90t-4 -164v-412q0 -82 5 -169t40 -171q31 -74 78 -124t101.5 -79.5t109.5 -42t102 -12.5q84 0 160 31t135 96q45 49 74 106.5t45 149t22.5 227.5t6.5 339q0 129 -3 200.5 t-22.5 107.5t-61.5 46t-120 16v66q61 -2 123.5 -3t124.5 -1q55 0 111.5 1t111.5 3v-66q-59 -4 -98 -14t-56 -53q-6 -16 -10 -36t-8 -79q-8 -104 -9 -162.5t-1 -77.5q-6 -164 -11.5 -271t-12.5 -180t-19.5 -123t-30.5 -95q-41 -92 -102.5 -153.5t-133 -98.5t-147.5 -51.5 t-143 -14.5q-129 0 -233.5 42t-176.5 108q-55 53 -86 113.5t-46.5 121t-18.5 118.5t-3 110v583q0 68 -5 107t-22.5 60.5t-51 30.5t-91.5 15zM494 1712q0 49 34.5 84t85.5 35q49 0 84 -35t35 -84q0 -51 -34.5 -86t-84.5 -35q-51 0 -86 35t-34 86zM901 1712q0 49 35 84t86 35 q49 0 84 -35t35 -84q0 -51 -35 -86t-84 -35q-51 0 -86 35t-35 86z" />
<glyph unicode="&#xdd;" horiz-adv-x="1409" d="M0 1380v68q94 -4 172 -5t164 -1q170 0 340 6v-70q-61 -4 -104.5 -7t-69 -10t-36.5 -22.5t-11 -40.5q0 -20 17 -57t32 -63l274 -453l260 442q29 49 41.5 76t12.5 53q0 29 -13.5 45.5t-37 24.5t-53.5 10l-60 4v68q123 -6 241 -6q117 0 234 6v-68q-53 -8 -91 -23.5t-74 -51 t-76 -94t-97 -152.5l-234 -387v-215q0 -63 1.5 -107.5t2.5 -76t2 -55t3 -44.5q4 -35 16 -54.5t37 -30.5t64.5 -16t97.5 -7v-66q-82 4 -163 6t-163 2q-78 0 -157.5 -2t-159.5 -6v66q94 8 138 19t62 48q6 14 10.5 43t6.5 63.5t3 72.5t1 71v213q-96 154 -191.5 303.5 t-191.5 302.5q-37 57 -61.5 91t-49 51.5t-56.5 24.5t-83 11zM518 1602q51 43 86 72.5t65.5 58t62.5 59.5t79 78h248v-62q-90 -41 -149.5 -68.5t-112 -54t-108.5 -58.5t-136 -77z" />
<glyph unicode="&#xde;" horiz-adv-x="1150" d="M39 0v66q51 6 84 13t51.5 20.5t25.5 36t11 57.5q2 20 3 66t1 98.5v100.5v72v375q0 94 -1 155.5t-2 100.5t-3 61.5t-4 41.5q-4 33 -14.5 53t-29 32.5t-48 18.5t-74.5 10v66q70 -4 139.5 -9t140.5 -5q68 0 136.5 5t136.5 9v-66q-63 -6 -97 -16t-51.5 -34.5t-20.5 -69 t-5 -119.5q12 0 43 1t66.5 1t68.5 1t45 1q117 0 187.5 -13.5t119.5 -37.5q82 -39 142.5 -124t60.5 -216q0 -47 -10.5 -95.5t-33 -94.5t-57 -86t-83.5 -66q-37 -18 -72 -29.5t-91 -17t-147.5 -7.5t-238.5 -4q0 -94 3 -148t20.5 -84t52 -39t98.5 -15v-66q-70 2 -135.5 4 t-130.5 2q-72 0 -143.5 -2t-143.5 -4zM418 418h58.5t64 1t61.5 2t49 5q84 12 138.5 52t85 90t43 103.5t12.5 92.5q0 109 -57.5 184.5t-143.5 104.5q-25 8 -47.5 13t-55 7t-82.5 2h-126v-657z" />
<glyph unicode="&#xdf;" horiz-adv-x="1110" d="M8 825l21 58q37 4 63.5 10t45 22.5t29.5 47t19 81.5q10 63 30 138t63 138.5t114.5 106.5t186.5 43q66 0 126 -18t107 -52t76 -83t29 -109q0 -45 -13.5 -80.5t-34 -66.5t-47 -58.5t-53.5 -52.5q-31 -29 -50.5 -48t-30.5 -34.5t-15 -29t-4 -29.5q0 -33 21.5 -56.5 t39.5 -39.5q29 -25 58.5 -47.5t58.5 -47.5q61 -49 102 -91t67.5 -80.5t38 -77.5t11.5 -82q0 -66 -26.5 -124.5t-72.5 -101.5t-110.5 -68.5t-140.5 -25.5q-55 0 -95 14.5t-66 36t-38 48t-12 51.5q0 33 23.5 59.5t60.5 26.5q33 0 52.5 -18.5t29.5 -32.5q23 -29 38 -48.5 t29.5 -31t29.5 -16.5t38 -5t47.5 8.5t46 25.5t35.5 43t14 60q0 57 -45 117q-10 16 -22.5 30.5t-39 38t-70.5 63.5t-120 106q-37 33 -73.5 77t-36.5 109q0 57 28.5 98t81.5 97q57 59 86 107t29 120q0 51 -16.5 97t-45 81t-70.5 55.5t-91 20.5q-39 0 -65.5 -10.5t-43 -24.5 t-27 -28.5t-14.5 -22.5q-10 -20 -18 -42t-13.5 -73t-8.5 -144t-3 -255v-137v-188.5t1 -185.5t3 -126q2 -72 28 -89.5t91 -19.5v-59q-59 4 -117.5 6t-117.5 2q-53 0 -102.5 -2t-108.5 -6v59q47 2 75.5 6.5t45 14.5t22.5 31.5t8 56.5l6 657h-178z" />
<glyph unicode="&#xe0;" horiz-adv-x="937" d="M66 668q0 41 39.5 88t105 87t150.5 66.5t178 26.5q88 0 137 -23.5t70.5 -58.5t25.5 -76t4 -76v-489q0 -14 1 -34.5t7.5 -40t20.5 -33t41 -13.5q25 0 39 13.5t26 31.5l43 -16q-31 -59 -81 -102.5t-115 -43.5q-29 0 -52.5 8.5t-43.5 22.5q-37 29 -44.5 64.5t-9.5 64.5 q-59 -63 -138 -113.5t-173 -50.5q-109 0 -162 57.5t-53 135.5q0 72 39 124t108.5 94t166 79t212.5 78v100q0 23 -3 60.5t-19.5 73.5t-54 61.5t-105.5 25.5q-4 0 -28.5 -2t-52.5 -10t-50.5 -26.5t-22.5 -49.5q0 -4 1 -21.5t1 -23.5q0 -72 -34.5 -114t-81.5 -42 q-41 0 -66.5 28t-25.5 69zM156 1288v64h250q51 -51 88 -85t67.5 -62.5t62.5 -56.5t75 -65l-33 -49q-111 61 -182.5 99t-125.5 64t-99.5 46.5t-102.5 44.5zM268 215q0 -55 39 -92t94 -37q39 0 72 16.5t59.5 38t46 44t29.5 34.5v256q-86 -35 -149.5 -61.5t-106.5 -54 t-63.5 -61.5t-20.5 -83z" />
<glyph unicode="&#xe1;" horiz-adv-x="937" d="M66 668q0 41 39.5 88t105 87t150.5 66.5t178 26.5q88 0 137 -23.5t70.5 -58.5t25.5 -76t4 -76v-489q0 -14 1 -34.5t7.5 -40t20.5 -33t41 -13.5q25 0 39 13.5t26 31.5l43 -16q-31 -59 -81 -102.5t-115 -43.5q-29 0 -52.5 8.5t-43.5 22.5q-37 29 -44.5 64.5t-9.5 64.5 q-59 -63 -138 -113.5t-173 -50.5q-109 0 -162 57.5t-53 135.5q0 72 39 124t108.5 94t166 79t212.5 78v100q0 23 -3 60.5t-19.5 73.5t-54 61.5t-105.5 25.5q-4 0 -28.5 -2t-52.5 -10t-50.5 -26.5t-22.5 -49.5q0 -4 1 -21.5t1 -23.5q0 -72 -34.5 -114t-81.5 -42 q-41 0 -66.5 28t-25.5 69zM242 1081q51 43 86 73t65.5 58.5t62.5 59.5t79 78h248v-62q-90 -41 -149.5 -68.5t-112 -54t-108.5 -58.5t-136 -77zM268 215q0 -55 39 -92t94 -37q39 0 72 16.5t59.5 38t46 44t29.5 34.5v256q-86 -35 -149.5 -61.5t-106.5 -54t-63.5 -61.5 t-20.5 -83z" />
<glyph unicode="&#xe2;" horiz-adv-x="937" d="M66 668q0 41 39.5 88t105 87t150.5 66.5t178 26.5q88 0 137 -23.5t70.5 -58.5t25.5 -76t4 -76v-489q0 -14 1 -34.5t7.5 -40t20.5 -33t41 -13.5q25 0 39 13.5t26 31.5l43 -16q-31 -59 -81 -102.5t-115 -43.5q-29 0 -52.5 8.5t-43.5 22.5q-37 29 -44.5 64.5t-9.5 64.5 q-59 -63 -138 -113.5t-173 -50.5q-109 0 -162 57.5t-53 135.5q0 72 39 124t108.5 94t166 79t212.5 78v100q0 23 -3 60.5t-19.5 73.5t-54 61.5t-105.5 25.5q-4 0 -28.5 -2t-52.5 -10t-50.5 -26.5t-22.5 -49.5q0 -4 1 -21.5t1 -23.5q0 -72 -34.5 -114t-81.5 -42 q-41 0 -66.5 28t-25.5 69zM154 1096q49 45 81 73.5t58.5 53t55 52.5t71.5 71h115q39 -41 66.5 -69t54 -54.5t57.5 -56t78 -70.5l-39 -49q-47 25 -77.5 42t-59.5 32.5t-61.5 34t-79.5 46.5q-45 -25 -75 -42t-58.5 -32.5t-62.5 -34t-87 -46.5zM268 215q0 -55 39 -92t94 -37 q39 0 72 16.5t59.5 38t46 44t29.5 34.5v256q-86 -35 -149.5 -61.5t-106.5 -54t-63.5 -61.5t-20.5 -83z" />
<glyph unicode="&#xe3;" horiz-adv-x="937" d="M66 668q0 41 39.5 88t105 87t150.5 66.5t178 26.5q88 0 137 -23.5t70.5 -58.5t25.5 -76t4 -76v-489q0 -14 1 -34.5t7.5 -40t20.5 -33t41 -13.5q25 0 39 13.5t26 31.5l43 -16q-31 -59 -81 -102.5t-115 -43.5q-29 0 -52.5 8.5t-43.5 22.5q-37 29 -44.5 64.5t-9.5 64.5 q-59 -63 -138 -113.5t-173 -50.5q-109 0 -162 57.5t-53 135.5q0 72 39 124t108.5 94t166 79t212.5 78v100q0 23 -3 60.5t-19.5 73.5t-54 61.5t-105.5 25.5q-4 0 -28.5 -2t-52.5 -10t-50.5 -26.5t-22.5 -49.5q0 -4 1 -21.5t1 -23.5q0 -72 -34.5 -114t-81.5 -42 q-41 0 -66.5 28t-25.5 69zM135 1096q23 33 48.5 66.5t58 61t72.5 46t89 18.5q43 0 89.5 -14t103.5 -37q23 -10 43 -17.5t43 -7.5q35 0 61.5 25t57.5 61l45 -34q-14 -20 -37 -52t-54.5 -62t-72.5 -51.5t-92 -21.5q-47 0 -86 13.5t-53 17.5q-37 14 -59.5 23.5t-36 14.5 t-22.5 6t-22 1q-41 0 -66.5 -22.5t-66.5 -69.5zM268 215q0 -55 39 -92t94 -37q39 0 72 16.5t59.5 38t46 44t29.5 34.5v256q-86 -35 -149.5 -61.5t-106.5 -54t-63.5 -61.5t-20.5 -83z" />
<glyph unicode="&#xe4;" horiz-adv-x="937" d="M66 668q0 41 39.5 88t105 87t150.5 66.5t178 26.5q88 0 137 -23.5t70.5 -58.5t25.5 -76t4 -76v-489q0 -14 1 -34.5t7.5 -40t20.5 -33t41 -13.5q25 0 39 13.5t26 31.5l43 -16q-31 -59 -81 -102.5t-115 -43.5q-29 0 -52.5 8.5t-43.5 22.5q-37 29 -44.5 64.5t-9.5 64.5 q-59 -63 -138 -113.5t-173 -50.5q-109 0 -162 57.5t-53 135.5q0 72 39 124t108.5 94t166 79t212.5 78v100q0 23 -3 60.5t-19.5 73.5t-54 61.5t-105.5 25.5q-4 0 -28.5 -2t-52.5 -10t-50.5 -26.5t-22.5 -49.5q0 -4 1 -21.5t1 -23.5q0 -72 -34.5 -114t-81.5 -42 q-41 0 -66.5 28t-25.5 69zM158 1196q0 49 35 84t86 35q49 0 84 -35t35 -84q0 -51 -35 -86t-84 -35q-51 0 -86 35t-35 86zM268 215q0 -55 39 -92t94 -37q39 0 72 16.5t59.5 38t46 44t29.5 34.5v256q-86 -35 -149.5 -61.5t-106.5 -54t-63.5 -61.5t-20.5 -83zM565 1196 q0 49 35 84t86 35q49 0 84 -35t35 -84q0 -51 -35 -86t-84 -35q-51 0 -86 35t-35 86z" />
<glyph unicode="&#xe5;" horiz-adv-x="937" d="M66 668q0 41 39.5 88t105 87t150.5 66.5t178 26.5q88 0 137 -23.5t70.5 -58.5t25.5 -76t4 -76v-489q0 -14 1 -34.5t7.5 -40t20.5 -33t41 -13.5q25 0 39 13.5t26 31.5l43 -16q-31 -59 -81 -102.5t-115 -43.5q-29 0 -52.5 8.5t-43.5 22.5q-37 29 -44.5 64.5t-9.5 64.5 q-59 -63 -138 -113.5t-173 -50.5q-109 0 -162 57.5t-53 135.5q0 72 39 124t108.5 94t166 79t212.5 78v100q0 23 -3 60.5t-19.5 73.5t-54 61.5t-105.5 25.5q-4 0 -28.5 -2t-52.5 -10t-50.5 -26.5t-22.5 -49.5q0 -4 1 -21.5t1 -23.5q0 -72 -34.5 -114t-81.5 -42 q-41 0 -66.5 28t-25.5 69zM268 215q0 -55 39 -92t94 -37q39 0 72 16.5t59.5 38t46 44t29.5 34.5v256q-86 -35 -149.5 -61.5t-106.5 -54t-63.5 -61.5t-20.5 -83zM283 1190q0 39 14.5 73.5t41 60.5t60.5 41t74 15q80 0 135.5 -55t55.5 -135q0 -39 -15.5 -73t-41 -59.5 t-60.5 -41t-74 -15.5q-80 1 -135 56t-55 133zM351 1190q-1 -51 34 -86t88 -35q51 0 87 36t36 85q0 51 -35.5 87t-87.5 36q-51 0 -86.5 -36t-35.5 -87z" />
<glyph unicode="&#xe6;" horiz-adv-x="1449" d="M31 664q0 41 41 88t106.5 87t150.5 66.5t175 26.5q74 0 134 -24.5t89 -92.5q18 14 44 33.5t63.5 38t87 31t112.5 12.5q78 0 146.5 -25.5t119 -73t80 -116t29.5 -154.5q0 -16 -6 -24.5t-27 -8.5h-628q0 -113 30.5 -194.5t81.5 -134t116.5 -77t133.5 -24.5q63 0 108.5 17.5 t77 42t52 50t32.5 44.5l50 -25q-16 -29 -36 -58.5t-57 -64.5q-66 -66 -148.5 -97.5t-166.5 -31.5t-146.5 24t-106.5 56.5t-71.5 65.5t-40.5 49q-27 -29 -62.5 -62.5t-81.5 -63.5t-103.5 -50.5t-126.5 -20.5q-45 0 -88 12.5t-77 38t-54.5 64.5t-20.5 92q0 70 41 121t112.5 91 t169 74t207.5 66v86t-1 54.5t-3 35t-4 27.5q-16 63 -59 92t-100 29q-27 0 -57 -6t-54.5 -17.5t-40.5 -29t-16 -39.5q0 -4 1 -20.5t1 -20.5q0 -66 -34 -110t-83 -44q-33 0 -62.5 26t-29.5 69zM236 217q0 -59 38.5 -98t102.5 -39q51 0 91 17.5t70.5 42t51 51t33.5 42.5 q-12 29 -19.5 52.5t-11.5 48t-7 55.5t-5 78q-82 -29 -145.5 -52.5t-107.5 -51t-67.5 -62.5t-23.5 -84zM756 594h434q6 0 13 4t7 33q0 25 -7 65.5t-27.5 78.5t-57.5 65.5t-94 27.5q-84 0 -162 -69.5t-106 -204.5z" />
<glyph unicode="&#xe7;" horiz-adv-x="937" d="M66 453q0 106 34.5 195t98 152.5t149.5 99.5t189 36q78 0 147.5 -18.5t121.5 -50t83 -72.5t31 -86q0 -47 -29 -74t-68 -27q-33 0 -57.5 16.5t-40.5 40t-26.5 47t-16.5 38.5q-6 18 -16.5 39.5t-26.5 40t-43 29.5t-66 11q-59 0 -109 -31.5t-87 -84t-57.5 -122t-20.5 -145.5 q0 -90 27.5 -163.5t75 -128t112 -84t137.5 -29.5q55 0 98.5 15.5t77 38t58 47t43.5 44.5l41 -28q-23 -29 -53.5 -68t-79 -73.5t-116 -59.5t-159.5 -27l-4 -104q16 2 27.5 3t21.5 1q90 0 133 -45t43 -98q0 -70 -61.5 -124.5t-183.5 -54.5q-53 0 -96.5 13.5t-74 35t-47 48 t-16.5 55.5q0 33 19.5 51.5t44.5 18.5q10 0 24 -5.5t25 -19.5q2 -4 8 -14.5t11 -22.5t10.5 -23.5t7.5 -15.5q23 -45 50 -52t38 -7q39 0 67.5 26.5t28.5 69.5q0 35 -25.5 62.5t-74.5 27.5h-17.5t-19.5 -2l-17 12l9 170q-86 14 -157 57.5t-121 106t-77.5 142t-27.5 170.5z" />
<glyph unicode="&#xe8;" horiz-adv-x="937" d="M70 442q0 117 36.5 207t99 153.5t146.5 96.5t176 33q88 0 158 -31t118 -81t73.5 -114.5t25.5 -132.5q0 -20 -9 -23t-17 -3h-627q0 -14 -1 -26.5t-1 -28.5q0 -78 22.5 -150t65.5 -126t108.5 -86t151.5 -32q63 0 109.5 16.5t78 41t53 51t33.5 45.5l52 -25 q-43 -78 -94.5 -127t-105.5 -77.5t-107.5 -39t-98.5 -10.5q-96 0 -178 36t-141.5 98.5t-93 148.5t-33.5 186zM199 1288v64h250q51 -51 88 -85t67.5 -62.5t62.5 -56.5t75 -65l-33 -49q-111 61 -182.5 99t-125.5 64t-99.5 46.5t-102.5 44.5zM262 621h414q6 0 15 2t9 18 q0 12 -8 55t-26 78q-27 49 -65 72.5t-85 23.5q-76 0 -147.5 -59t-106.5 -190z" />
<glyph unicode="&#xe9;" horiz-adv-x="937" d="M70 442q0 117 36.5 207t99 153.5t146.5 96.5t176 33q88 0 158 -31t118 -81t73.5 -114.5t25.5 -132.5q0 -20 -9 -23t-17 -3h-627q0 -14 -1 -26.5t-1 -28.5q0 -78 22.5 -150t65.5 -126t108.5 -86t151.5 -32q63 0 109.5 16.5t78 41t53 51t33.5 45.5l52 -25 q-43 -78 -94.5 -127t-105.5 -77.5t-107.5 -39t-98.5 -10.5q-96 0 -178 36t-141.5 98.5t-93 148.5t-33.5 186zM262 621h414q6 0 15 2t9 18q0 12 -8 55t-26 78q-27 49 -65 72.5t-85 23.5q-76 0 -147.5 -59t-106.5 -190zM285 1081q51 43 86 73t65.5 58.5t62.5 59.5t79 78h248 v-62q-90 -41 -149.5 -68.5t-112 -54t-108.5 -58.5t-136 -77z" />
<glyph unicode="&#xea;" horiz-adv-x="937" d="M70 442q0 117 36.5 207t99 153.5t146.5 96.5t176 33q88 0 158 -31t118 -81t73.5 -114.5t25.5 -132.5q0 -20 -9 -23t-17 -3h-627q0 -14 -1 -26.5t-1 -28.5q0 -78 22.5 -150t65.5 -126t108.5 -86t151.5 -32q63 0 109.5 16.5t78 41t53 51t33.5 45.5l52 -25 q-43 -78 -94.5 -127t-105.5 -77.5t-107.5 -39t-98.5 -10.5q-96 0 -178 36t-141.5 98.5t-93 148.5t-33.5 186zM197 1096q49 45 81 73.5t58.5 53t55 52.5t71.5 71h115q39 -41 66.5 -69t54 -54.5t57.5 -56t78 -70.5l-39 -49q-47 25 -77.5 42t-59.5 32.5t-61.5 34t-79.5 46.5 q-45 -25 -75 -42t-58.5 -32.5t-62.5 -34t-87 -46.5zM262 621h414q6 0 15 2t9 18q0 12 -8 55t-26 78q-27 49 -65 72.5t-85 23.5q-76 0 -147.5 -59t-106.5 -190z" />
<glyph unicode="&#xeb;" horiz-adv-x="937" d="M70 442q0 117 36.5 207t99 153.5t146.5 96.5t176 33q88 0 158 -31t118 -81t73.5 -114.5t25.5 -132.5q0 -20 -9 -23t-17 -3h-627q0 -14 -1 -26.5t-1 -28.5q0 -78 22.5 -150t65.5 -126t108.5 -86t151.5 -32q63 0 109.5 16.5t78 41t53 51t33.5 45.5l52 -25 q-43 -78 -94.5 -127t-105.5 -77.5t-107.5 -39t-98.5 -10.5q-96 0 -178 36t-141.5 98.5t-93 148.5t-33.5 186zM191 1196q0 49 35 84t86 35q49 0 84 -35t35 -84q0 -51 -35 -86t-84 -35q-51 0 -86 35t-35 86zM262 621h414q6 0 15 2t9 18q0 12 -8 55t-26 78q-27 49 -65 72.5 t-85 23.5q-76 0 -147.5 -59t-106.5 -190zM598 1196q0 49 35 84t86 35q49 0 84 -35t35 -84q0 -51 -35 -86t-84 -35q-51 0 -86 35t-35 86z" />
<glyph unicode="&#xec;" horiz-adv-x="512" d="M-57 1288v64h250q51 -51 88 -85t67.5 -62.5t62.5 -56.5t75 -65l-33 -49q-111 61 -182.5 99t-125.5 64t-99.5 46.5t-102.5 44.5zM51 793v38q51 12 87 21.5t68 21t66.5 25.5t85.5 39q-2 -31 -4 -56.5t-3 -54t-2 -68.5t-1 -102v-491q0 -33 5 -53.5t18.5 -30.5t40 -15.5 t69.5 -7.5v-59q-53 2 -104 4t-105 2q-55 0 -109 -2t-110 -4v59q66 0 95.5 18.5t33.5 80.5q0 31 1 58.5t1 73.5v122.5v205.5q0 45 -5 72t-19.5 44.5t-41 29.5t-67.5 29z" />
<glyph unicode="&#xed;" horiz-adv-x="512" d="M26 1081q51 43 86 73t65.5 58.5t62.5 59.5t79 78h248v-62q-90 -41 -149.5 -68.5t-112 -54t-108.5 -58.5t-136 -77zM51 793v38q51 12 87 21.5t68 21t66.5 25.5t85.5 39q-2 -31 -4 -56.5t-3 -54t-2 -68.5t-1 -102v-491q0 -33 5 -53.5t18.5 -30.5t40 -15.5t69.5 -7.5v-59 q-53 2 -104 4t-105 2q-55 0 -109 -2t-110 -4v59q66 0 95.5 18.5t33.5 80.5q0 31 1 58.5t1 73.5v122.5v205.5q0 45 -5 72t-19.5 44.5t-41 29.5t-67.5 29z" />
<glyph unicode="&#xee;" horiz-adv-x="512" d="M-59 1096q49 45 81 73.5t58.5 53t55 52.5t71.5 71h115q39 -41 66.5 -69t54 -54.5t57.5 -56t78 -70.5l-39 -49q-47 25 -77.5 42t-59.5 32.5t-61.5 34t-79.5 46.5q-45 -25 -75 -42t-58.5 -32.5t-62.5 -34t-87 -46.5zM51 793v38q51 12 87 21.5t68 21t66.5 25.5t85.5 39 q-2 -31 -4 -56.5t-3 -54t-2 -68.5t-1 -102v-491q0 -33 5 -53.5t18.5 -30.5t40 -15.5t69.5 -7.5v-59q-53 2 -104 4t-105 2q-55 0 -109 -2t-110 -4v59q66 0 95.5 18.5t33.5 80.5q0 31 1 58.5t1 73.5v122.5v205.5q0 45 -5 72t-19.5 44.5t-41 29.5t-67.5 29z" />
<glyph unicode="&#xef;" horiz-adv-x="512" d="M-65 1196q0 49 35 84t86 35q49 0 84 -35t35 -84q0 -51 -35 -86t-84 -35q-51 0 -86 35t-35 86zM51 793v38q51 12 87 21.5t68 21t66.5 25.5t85.5 39q-2 -31 -4 -56.5t-3 -54t-2 -68.5t-1 -102v-491q0 -33 5 -53.5t18.5 -30.5t40 -15.5t69.5 -7.5v-59q-53 2 -104 4t-105 2 q-55 0 -109 -2t-110 -4v59q66 0 95.5 18.5t33.5 80.5q0 31 1 58.5t1 73.5v122.5v205.5q0 45 -5 72t-19.5 44.5t-41 29.5t-67.5 29zM342 1196q0 49 35 84t86 35q49 0 84 -35t35 -84q0 -51 -35 -86t-84 -35q-51 0 -86 35t-35 86z" />
<glyph unicode="&#xf0;" horiz-adv-x="1110" d="M68 457q0 102 34.5 190t97 152.5t148.5 100.5t187 36q63 0 111 -13.5t81 -29.5t50.5 -31.5t21.5 -19.5q10 -6 16 -17q0 6 -7 31t-16.5 53.5t-19.5 56t-14 40.5q-29 66 -52.5 105.5t-39.5 64.5l-363 -123l-37 80l346 118q-66 86 -133 144.5t-112 89.5l61 45 q63 -31 144 -83t180 -151l211 72l36 -80l-184 -61q109 -145 165 -315.5t56 -352.5q0 -119 -26.5 -225.5t-85 -187t-149.5 -128t-218 -47.5q-121 0 -212 42t-152.5 109.5t-93 155t-31.5 179.5zM266 467q0 -47 5 -98.5t22 -104.5q37 -121 112.5 -175t155.5 -54q68 0 121 31.5 t88 87t53.5 131t18.5 164.5q0 94 -22.5 173.5t-63.5 137t-97 87t-124 25.5q-74 -4 -125.5 -42.5t-83 -97t-46 -128t-14.5 -137.5z" />
<glyph unicode="&#xf1;" horiz-adv-x="1110" d="M49 0v59q37 2 62.5 6.5t42 16.5t22.5 34.5t6 63.5v461q-2 33 -5 54.5t-16.5 38t-40 31.5t-71.5 38v35q51 12 87 21t65.5 19.5t58.5 23.5t68 32q12 -35 16 -59.5t4 -71.5q25 18 56.5 40.5t71.5 41t86 32t97 13.5q104 0 162 -46t83.5 -108.5t30.5 -129t5 -107.5v-396 q0 -23 3 -38t16.5 -25t39 -15.5t68.5 -5.5v-59q-55 2 -109.5 4t-109.5 2q-53 0 -106.5 -2t-106.5 -4v59q41 2 67.5 8.5t42 19.5t21.5 38t6 65v306q0 61 -5 121.5t-34 107.5q-25 37 -72 65.5t-112 28.5q-41 0 -73 -9t-55.5 -23.5t-42 -31t-30.5 -30.5v-504q0 -53 3 -84 t15.5 -47t40 -21.5t78.5 -9.5v-59q-53 4 -108 6t-109 2q-53 0 -108.5 -2t-110.5 -6zM221 1096q23 33 48.5 66.5t58 61t72.5 46t89 18.5q43 0 89.5 -14t103.5 -37q23 -10 43 -17.5t43 -7.5q35 0 61.5 25t57.5 61l45 -34q-14 -20 -37 -52t-54.5 -62t-72.5 -51.5t-92 -21.5 q-47 0 -86 13.5t-53 17.5q-37 14 -59.5 23.5t-36 14.5t-22.5 6t-22 1q-41 0 -66.5 -22.5t-66.5 -69.5z" />
<glyph unicode="&#xf2;" horiz-adv-x="1110" d="M68 457q0 92 30.5 178t91 152.5t149.5 106.5t206 42q115 2 206 -37t154.5 -105.5t97 -154.5t33.5 -186q0 -104 -35.5 -192.5t-100 -152t-153 -99.5t-194.5 -36q-115 0 -205 40t-152.5 106.5t-95 153.5t-32.5 184zM242 1288v64h250q51 -51 88 -85t67.5 -62.5t62.5 -56.5 t75 -65l-33 -49q-111 61 -182.5 99t-125.5 64t-99.5 46.5t-102.5 44.5zM266 467q0 -47 5 -98.5t22 -104.5q37 -121 112.5 -175t153.5 -54q68 0 121 31.5t88 87t53.5 131t18.5 164.5q0 94 -22.5 173.5t-63.5 137t-97.5 87t-124.5 25.5q-74 -6 -125 -45t-81.5 -97t-45 -128 t-14.5 -135z" />
<glyph unicode="&#xf3;" horiz-adv-x="1110" d="M68 457q0 92 30.5 178t91 152.5t149.5 106.5t206 42q115 2 206 -37t154.5 -105.5t97 -154.5t33.5 -186q0 -104 -35.5 -192.5t-100 -152t-153 -99.5t-194.5 -36q-115 0 -205 40t-152.5 106.5t-95 153.5t-32.5 184zM266 467q0 -47 5 -98.5t22 -104.5q37 -121 112.5 -175 t153.5 -54q68 0 121 31.5t88 87t53.5 131t18.5 164.5q0 94 -22.5 173.5t-63.5 137t-97.5 87t-124.5 25.5q-74 -6 -125 -45t-81.5 -97t-45 -128t-14.5 -135zM328 1081q51 43 86 73t65.5 58.5t62.5 59.5t79 78h248v-62q-90 -41 -149.5 -68.5t-112 -54t-108.5 -58.5t-136 -77z " />
<glyph unicode="&#xf4;" horiz-adv-x="1110" d="M68 457q0 92 30.5 178t91 152.5t149.5 106.5t206 42q115 2 206 -37t154.5 -105.5t97 -154.5t33.5 -186q0 -104 -35.5 -192.5t-100 -152t-153 -99.5t-194.5 -36q-115 0 -205 40t-152.5 106.5t-95 153.5t-32.5 184zM240 1096q49 45 81 73.5t58.5 53t55 52.5t71.5 71h115 q39 -41 66.5 -69t54 -54.5t57.5 -56t78 -70.5l-39 -49q-47 25 -77.5 42t-59.5 32.5t-61.5 34t-79.5 46.5q-45 -25 -75 -42t-58.5 -32.5t-62.5 -34t-87 -46.5zM266 467q0 -47 5 -98.5t22 -104.5q37 -121 112.5 -175t153.5 -54q68 0 121 31.5t88 87t53.5 131t18.5 164.5 q0 94 -22.5 173.5t-63.5 137t-97.5 87t-124.5 25.5q-74 -6 -125 -45t-81.5 -97t-45 -128t-14.5 -135z" />
<glyph unicode="&#xf5;" horiz-adv-x="1110" d="M68 457q0 92 30.5 178t91 152.5t149.5 106.5t206 42q115 2 206 -37t154.5 -105.5t97 -154.5t33.5 -186q0 -104 -35.5 -192.5t-100 -152t-153 -99.5t-194.5 -36q-115 0 -205 40t-152.5 106.5t-95 153.5t-32.5 184zM221 1096q23 33 48.5 66.5t58 61t72.5 46t89 18.5 q43 0 89.5 -14t103.5 -37q23 -10 43 -17.5t43 -7.5q35 0 61.5 25t57.5 61l45 -34q-14 -20 -37 -52t-54.5 -62t-72.5 -51.5t-92 -21.5q-47 0 -86 13.5t-53 17.5q-37 14 -59.5 23.5t-36 14.5t-22.5 6t-22 1q-41 0 -66.5 -22.5t-66.5 -69.5zM266 467q0 -47 5 -98.5t22 -104.5 q37 -121 112.5 -175t153.5 -54q68 0 121 31.5t88 87t53.5 131t18.5 164.5q0 94 -22.5 173.5t-63.5 137t-97.5 87t-124.5 25.5q-74 -6 -125 -45t-81.5 -97t-45 -128t-14.5 -135z" />
<glyph unicode="&#xf6;" horiz-adv-x="1110" d="M68 457q0 92 30.5 178t91 152.5t149.5 106.5t206 42q115 2 206 -37t154.5 -105.5t97 -154.5t33.5 -186q0 -104 -35.5 -192.5t-100 -152t-153 -99.5t-194.5 -36q-115 0 -205 40t-152.5 106.5t-95 153.5t-32.5 184zM236 1196q0 49 35 84t86 35q49 0 84 -35t35 -84 q0 -51 -35 -86t-84 -35q-51 0 -86 35t-35 86zM266 467q0 -47 5 -98.5t22 -104.5q37 -121 112.5 -175t153.5 -54q68 0 121 31.5t88 87t53.5 131t18.5 164.5q0 94 -22.5 173.5t-63.5 137t-97.5 87t-124.5 25.5q-74 -6 -125 -45t-81.5 -97t-45 -128t-14.5 -135zM643 1196 q0 49 35 84t86 35q49 0 84 -35t35 -84q0 -51 -35 -86t-84 -35q-51 0 -86 35t-35 86z" />
<glyph unicode="&#xf7;" horiz-adv-x="1366" d="M0 535v120h1364v-120h-1364zM592 328q0 35 25.5 64.5t68.5 29.5t68.5 -28.5t25.5 -65.5q0 -35 -25.5 -63.5t-68.5 -28.5q-41 0 -67.5 26.5t-26.5 65.5zM592 860q0 35 25.5 64.5t68.5 29.5t68.5 -28.5t25.5 -65.5q0 -35 -25.5 -63.5t-68.5 -28.5q-41 0 -67.5 26.5 t-26.5 65.5z" />
<glyph unicode="&#xf8;" horiz-adv-x="1110" d="M70 451q0 106 36.5 195t101 152.5t150.5 98.5t185 35q55 0 96 -7t73.5 -17.5t58.5 -23t48 -24.5l88 117l49 -37l-84 -119q86 -72 126 -166t40 -204q0 -109 -36.5 -198t-101 -151.5t-150.5 -97.5t-183 -35q-109 0 -174 24.5t-100 43.5l-88 -117l-51 37l86 117 q-25 25 -54.5 56.5t-55.5 75.5t-43 104.5t-17 140.5zM258 420q0 -57 11.5 -125t45.5 -119l445 602q-27 27 -71 57.5t-126 30.5q-78 0 -135 -39t-95 -102t-56.5 -143t-18.5 -162zM352 119q23 -29 49.5 -45.5t53 -26.5t50 -13t42.5 -3q76 0 133 37.5t95 99t56.5 140.5 t18.5 163q0 104 -18.5 159.5t-34.5 88.5z" />
<glyph unicode="&#xf9;" horiz-adv-x="1067" d="M8 844v61q49 0 85 -1t70 0t69.5 2t86.5 3q0 -43 -1 -99t-2 -116.5t-2 -117t-1 -95.5q0 -72 1 -119t5.5 -80.5t10.5 -57t16 -44.5q27 -57 72 -87t102 -30q25 0 55.5 6.5t60.5 19.5t52.5 34.5t30.5 50.5q4 12 6 38t3 57.5t1 64.5v61v240q0 72 -5 112.5t-21.5 62t-49 28 t-90.5 6.5v59h92h74t74 1t92 3v-706q2 -66 30.5 -93.5t112.5 -25.5v-47q-49 -12 -82.5 -20.5t-62.5 -17.5t-59.5 -20.5t-75.5 -27.5q-8 20 -12.5 33.5t-7.5 28t-5 30.5t-4 41q-20 -16 -48 -35.5t-62.5 -36t-78.5 -28t-96 -11.5q-41 0 -90 10.5t-96 38.5q-43 27 -67.5 60 t-36 68.5t-14.5 71.5t-3 71v51q2 43 2 86v88v147.5t-2 81t-6 39t-10 21.5q-16 27 -41 32t-72 7zM217 1288v64h250q51 -51 88 -85t67.5 -62.5t62.5 -56.5t75 -65l-33 -49q-111 61 -182.5 99t-125.5 64t-99.5 46.5t-102.5 44.5z" />
<glyph unicode="&#xfa;" horiz-adv-x="1067" d="M8 844v61q49 0 85 -1t70 0t69.5 2t86.5 3q0 -43 -1 -99t-2 -116.5t-2 -117t-1 -95.5q0 -72 1 -119t5.5 -80.5t10.5 -57t16 -44.5q27 -57 72 -87t102 -30q25 0 55.5 6.5t60.5 19.5t52.5 34.5t30.5 50.5q4 12 6 38t3 57.5t1 64.5v61v240q0 72 -5 112.5t-21.5 62t-49 28 t-90.5 6.5v59h92h74t74 1t92 3v-706q2 -66 30.5 -93.5t112.5 -25.5v-47q-49 -12 -82.5 -20.5t-62.5 -17.5t-59.5 -20.5t-75.5 -27.5q-8 20 -12.5 33.5t-7.5 28t-5 30.5t-4 41q-20 -16 -48 -35.5t-62.5 -36t-78.5 -28t-96 -11.5q-41 0 -90 10.5t-96 38.5q-43 27 -67.5 60 t-36 68.5t-14.5 71.5t-3 71v51q2 43 2 86v88v147.5t-2 81t-6 39t-10 21.5q-16 27 -41 32t-72 7zM303 1081q51 43 86 73t65.5 58.5t62.5 59.5t79 78h248v-62q-90 -41 -149.5 -68.5t-112 -54t-108.5 -58.5t-136 -77z" />
<glyph unicode="&#xfb;" horiz-adv-x="1067" d="M8 844v61q49 0 85 -1t70 0t69.5 2t86.5 3q0 -43 -1 -99t-2 -116.5t-2 -117t-1 -95.5q0 -72 1 -119t5.5 -80.5t10.5 -57t16 -44.5q27 -57 72 -87t102 -30q25 0 55.5 6.5t60.5 19.5t52.5 34.5t30.5 50.5q4 12 6 38t3 57.5t1 64.5v61v240q0 72 -5 112.5t-21.5 62t-49 28 t-90.5 6.5v59h92h74t74 1t92 3v-706q2 -66 30.5 -93.5t112.5 -25.5v-47q-49 -12 -82.5 -20.5t-62.5 -17.5t-59.5 -20.5t-75.5 -27.5q-8 20 -12.5 33.5t-7.5 28t-5 30.5t-4 41q-20 -16 -48 -35.5t-62.5 -36t-78.5 -28t-96 -11.5q-41 0 -90 10.5t-96 38.5q-43 27 -67.5 60 t-36 68.5t-14.5 71.5t-3 71v51q2 43 2 86v88v147.5t-2 81t-6 39t-10 21.5q-16 27 -41 32t-72 7zM215 1096q49 45 81 73.5t58.5 53t55 52.5t71.5 71h115q39 -41 66.5 -69t54 -54.5t57.5 -56t78 -70.5l-39 -49q-47 25 -77.5 42t-59.5 32.5t-61.5 34t-79.5 46.5 q-45 -25 -75 -42t-58.5 -32.5t-62.5 -34t-87 -46.5z" />
<glyph unicode="&#xfc;" horiz-adv-x="1067" d="M8 844v61q49 0 85 -1t70 0t69.5 2t86.5 3q0 -43 -1 -99t-2 -116.5t-2 -117t-1 -95.5q0 -72 1 -119t5.5 -80.5t10.5 -57t16 -44.5q27 -57 72 -87t102 -30q25 0 55.5 6.5t60.5 19.5t52.5 34.5t30.5 50.5q4 12 6 38t3 57.5t1 64.5v61v240q0 72 -5 112.5t-21.5 62t-49 28 t-90.5 6.5v59h92h74t74 1t92 3v-706q2 -66 30.5 -93.5t112.5 -25.5v-47q-49 -12 -82.5 -20.5t-62.5 -17.5t-59.5 -20.5t-75.5 -27.5q-8 20 -12.5 33.5t-7.5 28t-5 30.5t-4 41q-20 -16 -48 -35.5t-62.5 -36t-78.5 -28t-96 -11.5q-41 0 -90 10.5t-96 38.5q-43 27 -67.5 60 t-36 68.5t-14.5 71.5t-3 71v51q2 43 2 86v88v147.5t-2 81t-6 39t-10 21.5q-16 27 -41 32t-72 7zM223 1196q0 49 35 84t86 35q49 0 84 -35t35 -84q0 -51 -35 -86t-84 -35q-51 0 -86 35t-35 86zM630 1196q0 49 35 84t86 35q49 0 84 -35t35 -84q0 -51 -35 -86t-84 -35 q-51 0 -86 35t-35 86z" />
<glyph unicode="&#xfd;" d="M-2 844v59q53 -2 109.5 -3t111.5 -1q57 0 113.5 1t113.5 3v-59q-51 -2 -89 -11.5t-38 -58.5q0 -23 8.5 -46t24.5 -58l207 -451l133 305q10 23 23.5 57.5t26 70.5t21.5 68t9 50q0 27 -12 42t-31.5 22.5t-42 8.5t-43.5 1v59q47 -2 96 -3t97 -1q45 0 92 1t90 3v-59 q-31 -4 -52.5 -10.5t-40 -24.5t-38 -53t-45.5 -92q-104 -219 -202.5 -438.5t-195.5 -442.5q-37 -86 -64.5 -145.5t-55 -96.5t-60.5 -53t-80 -16q-63 0 -93 32.5t-30 67.5q0 14 6.5 30.5t19.5 31t35.5 24.5t53.5 10q20 0 43 -5t43 -5q18 0 31.5 10t19.5 21q14 18 36 60 t45.5 92t45 99.5t33.5 82.5q-76 156 -149.5 310t-147.5 310q-29 59 -46 95t-35.5 57.5t-40 32t-56.5 16.5zM285 1081q51 43 86 73t65.5 58.5t62.5 59.5t79 78h248v-62q-90 -41 -149.5 -68.5t-112 -54t-108.5 -58.5t-136 -77z" />
<glyph unicode="&#xfe;" horiz-adv-x="1110" d="M27 1384v39q49 10 82.5 19.5t65.5 21t66.5 26.5t84.5 40q2 -53 4 -87t3 -61.5t1 -56.5v-72v-438q119 123 280 123q96 0 174 -35t133.5 -95t86 -140t30.5 -168t-29.5 -180.5t-88 -168t-147.5 -123.5t-208 -48q-92 0 -144 24.5t-87 46.5v-383q0 -49 25.5 -64.5t105.5 -19.5 v-63q-61 4 -109.5 5t-99.5 1q-113 0 -225 -6v63q49 0 74.5 6.5t38 23.5t15.5 48t5 82v950q0 18 -1 67.5t-2 105t-2 105.5t-1 70q-2 37 -4 95.5t-9 115.5q-4 31 -9 50.5t-17.5 32t-35 22.5t-56.5 26zM334 150q12 -10 34.5 -28t52.5 -33t67.5 -26.5t80.5 -11.5q70 0 123 32 t88 85t52.5 120.5t17.5 141.5q0 82 -21.5 155.5t-60.5 130t-96.5 90.5t-126.5 34q-18 0 -53 -5.5t-70 -27t-61.5 -64.5t-26.5 -118v-475z" />
<glyph unicode="&#xff;" d="M-2 844v59q53 -2 109.5 -3t111.5 -1q57 0 113.5 1t113.5 3v-59q-51 -2 -89 -11.5t-38 -58.5q0 -23 8.5 -46t24.5 -58l207 -451l133 305q10 23 23.5 57.5t26 70.5t21.5 68t9 50q0 27 -12 42t-31.5 22.5t-42 8.5t-43.5 1v59q47 -2 96 -3t97 -1q45 0 92 1t90 3v-59 q-31 -4 -52.5 -10.5t-40 -24.5t-38 -53t-45.5 -92q-104 -219 -202.5 -438.5t-195.5 -442.5q-37 -86 -64.5 -145.5t-55 -96.5t-60.5 -53t-80 -16q-63 0 -93 32.5t-30 67.5q0 14 6.5 30.5t19.5 31t35.5 24.5t53.5 10q20 0 43 -5t43 -5q18 0 31.5 10t19.5 21q14 18 36 60 t45.5 92t45 99.5t33.5 82.5q-76 156 -149.5 310t-147.5 310q-29 59 -46 95t-35.5 57.5t-40 32t-56.5 16.5zM191 1196q0 49 35 84t86 35q49 0 84 -35t35 -84q0 -51 -35 -86t-84 -35q-51 0 -86 35t-35 86zM598 1196q0 49 35 84t86 35q49 0 84 -35t35 -84q0 -51 -35 -86 t-84 -35q-51 0 -86 35t-35 86z" />
<glyph unicode="&#x152;" horiz-adv-x="2217" d="M70 727q0 158 54 293t150.5 234.5t230.5 155.5t294 56q20 0 38.5 -1t36.5 -3q39 -4 77 -8t77 -6q12 -2 25.5 -2h25.5h883q23 -57 39 -97t33.5 -77t37 -80t50.5 -105l-43 -28q-12 14 -44 53t-70 83t-76 85t-60 59q-18 12 -33.5 19.5t-37 11.5t-55.5 5t-89 1h-182v-583 q100 -2 159.5 2t94 26.5t55 72.5t43.5 140h49q-2 -72 -4 -144.5t-2 -144.5t2 -141t4 -141h-49q-16 92 -37 141t-57.5 71.5t-98 28t-159.5 5.5v-371q0 -86 4 -139.5t28.5 -83t76.5 -39.5t149 -10q84 0 131 4t80 22q10 6 23 16.5t39 42t69 92t116 169.5l43 -23 q-23 -66 -36 -109.5t-25 -83.5t-24.5 -84t-30.5 -112h-981h-43.5t-42.5 -4q-39 -4 -76 -9t-76 -10q-16 -2 -31.5 -2h-31.5q-145 0 -276.5 54.5t-231 153t-157.5 236.5t-58 308zM322 741q0 -63 9 -140t30.5 -154.5t58.5 -151.5t91 -130t128 -91t172 -35q68 0 132.5 16.5 t119.5 43t96 61.5t58 69q12 27 19 90.5t11 137t5 142.5t1 106q0 96 -3 182t-7 164q-4 72 -9 104.5t-15 54.5q-16 41 -59.5 78t-104 64.5t-132 42t-147.5 10.5q-111 -6 -194.5 -58.5t-142 -141.5t-88 -207.5t-29.5 -256.5z" />
<glyph unicode="&#x153;" horiz-adv-x="1662" d="M68 459q0 100 34.5 187t98 151.5t152.5 101.5t198 37q76 0 134 -15.5t101 -37t73 -48t52 -47.5q18 18 47 43t70 47.5t95.5 38t123.5 15.5q88 0 159 -30t120 -80t74.5 -114.5t25.5 -132.5q0 -10 -3 -19t-24 -9h-628q-2 -59 4 -117.5t29 -116.5q31 -80 80 -124t97 -64.5 t87 -23.5t51 -3q63 0 108.5 16.5t77 40t53 49t35.5 46.5l52 -23q-23 -39 -51.5 -81t-88.5 -85q-47 -35 -114.5 -61.5t-151.5 -26.5q-70 0 -123 15.5t-93 38t-66.5 47t-45.5 43.5q-25 -23 -56.5 -48.5t-73.5 -47t-98 -35t-130 -13.5q-115 0 -205 40t-152.5 107.5t-95 154.5 t-32.5 184zM266 449q0 -94 22.5 -171t61.5 -130.5t92.5 -83t116.5 -29.5q66 0 118 29.5t88 83t55.5 127t19.5 163.5q0 115 -26 199t-69 137t-99.5 77.5t-115.5 20.5q-63 -6 -112 -38.5t-83 -88t-51.5 -131t-17.5 -165.5zM985 621h422q8 0 12 3t4 17q0 18 -9 57t-25 74 q-4 8 -13.5 24.5t-28 33t-46 28.5t-66.5 12q-47 0 -88 -20.5t-73 -55t-54.5 -79.5t-34.5 -94z" />
<glyph unicode="&#x178;" horiz-adv-x="1409" d="M0 1380v68q94 -4 172 -5t164 -1q170 0 340 6v-70q-61 -4 -104.5 -7t-69 -10t-36.5 -22.5t-11 -40.5q0 -20 17 -57t32 -63l274 -453l260 442q29 49 41.5 76t12.5 53q0 29 -13.5 45.5t-37 24.5t-53.5 10l-60 4v68q123 -6 241 -6q117 0 234 6v-68q-53 -8 -91 -23.5t-74 -51 t-76 -94t-97 -152.5l-234 -387v-215q0 -63 1.5 -107.5t2.5 -76t2 -55t3 -44.5q4 -35 16 -54.5t37 -30.5t64.5 -16t97.5 -7v-66q-82 4 -163 6t-163 2q-78 0 -157.5 -2t-159.5 -6v66q94 8 138 19t62 48q6 14 10.5 43t6.5 63.5t3 72.5t1 71v213q-96 154 -191.5 303.5 t-191.5 302.5q-37 57 -61.5 91t-49 51.5t-56.5 24.5t-83 11zM424 1712q0 49 35 84t86 35q49 0 84 -35t35 -84q0 -51 -35 -86t-84 -35q-51 0 -86 35t-35 86zM831 1712q0 49 35 84t86 35q49 0 84 -35t35 -84q0 -51 -35 -86t-84 -35q-51 0 -86 35t-35 86z" />
<glyph unicode="&#x2c6;" horiz-adv-x="555" d="M-41 1096q49 45 81 73.5t58.5 53t55 52.5t71.5 71h115q39 -41 66.5 -69t54 -54.5t57.5 -56t78 -70.5l-39 -49q-47 25 -77.5 42t-59.5 32.5t-61.5 34t-79.5 46.5q-45 -25 -75 -42t-58.5 -32.5t-62.5 -34t-87 -46.5z" />
<glyph unicode="&#x2dc;" horiz-adv-x="555" d="M-78 1096q23 33 48.5 66.5t58 61t72.5 46t89 18.5q43 0 89.5 -14t103.5 -37q23 -10 43 -17.5t43 -7.5q35 0 61.5 25t57.5 61l45 -34q-14 -20 -37 -52t-54.5 -62t-72.5 -51.5t-92 -21.5q-47 0 -86 13.5t-53 17.5q-37 14 -59.5 23.5t-36 14.5t-22.5 6t-22 1 q-41 0 -66.5 -22.5t-66.5 -69.5z" />
<glyph unicode="&#x2000;" horiz-adv-x="947" />
<glyph unicode="&#x2001;" horiz-adv-x="1894" />
<glyph unicode="&#x2002;" horiz-adv-x="947" />
<glyph unicode="&#x2003;" horiz-adv-x="1894" />
<glyph unicode="&#x2004;" horiz-adv-x="631" />
<glyph unicode="&#x2005;" horiz-adv-x="473" />
<glyph unicode="&#x2006;" horiz-adv-x="315" />
<glyph unicode="&#x2007;" horiz-adv-x="315" />
<glyph unicode="&#x2008;" horiz-adv-x="236" />
<glyph unicode="&#x2009;" horiz-adv-x="378" />
<glyph unicode="&#x200a;" horiz-adv-x="105" />
<glyph unicode="&#x2010;" horiz-adv-x="681" d="M43 428v109h596v-109h-596z" />
<glyph unicode="&#x2011;" horiz-adv-x="681" d="M43 428v109h596v-109h-596z" />
<glyph unicode="&#x2012;" horiz-adv-x="681" d="M43 428v109h596v-109h-596z" />
<glyph unicode="&#x2013;" d="M49 428v109h922v-109h-922z" />
<glyph unicode="&#x2014;" horiz-adv-x="1193" d="M45 426v111h1098v-111h-1098z" />
<glyph unicode="&#x2018;" horiz-adv-x="425" d="M84 1159q0 51 15.5 101.5t47 91.5t78.5 70.5t109 43.5v-67q-49 -12 -76 -32.5t-39 -41t-14 -38t-2 -23.5q0 -16 3 -26.5t12 -20t24.5 -19.5t42.5 -27q37 -23 50 -50t13 -48q0 -41 -29.5 -76.5t-82.5 -35.5q-57 0 -104.5 53t-47.5 145z" />
<glyph unicode="&#x2019;" horiz-adv-x="425" d="M84 1350q0 49 34 79.5t77 30.5q63 0 108 -57t45 -148q0 -47 -15.5 -94t-46 -89t-76.5 -73.5t-108 -44.5v70q37 8 62.5 24.5t40 36t20.5 39t6 33.5q0 35 -18 50.5t-45 31.5q-41 23 -62.5 47.5t-21.5 63.5z" />
<glyph unicode="&#x201a;" horiz-adv-x="425" d="M84 119q0 49 34 79.5t77 30.5q66 0 109.5 -58t43.5 -146q0 -47 -15.5 -94.5t-46 -89.5t-76.5 -73.5t-108 -43.5v69q37 8 62.5 24.5t40 36t20.5 39t6 33.5q0 35 -19 51.5t-44 30.5q-41 23 -62.5 47.5t-21.5 63.5z" />
<glyph unicode="&#x201c;" horiz-adv-x="768" d="M84 1165q0 37 11 82t40 88t76 79t121 52v-69q-49 -10 -76 -30.5t-39 -41t-14 -37t-2 -18.5q0 -41 18.5 -57.5t38.5 -26.5q33 -16 61.5 -41t28.5 -72q0 -43 -28.5 -77.5t-81.5 -34.5q-57 0 -105.5 53t-48.5 151zM424 1165q0 35 11 80t40 88t76 79t121 52v-67 q-49 -10 -76 -30.5t-39 -41t-14 -38t-2 -19.5q0 -39 18.5 -55.5t38.5 -26.5q31 -16 60.5 -41t29.5 -72q0 -43 -28.5 -77.5t-81.5 -34.5q-57 0 -105.5 52t-48.5 152z" />
<glyph unicode="&#x201d;" horiz-adv-x="768" d="M82 1350q0 41 28.5 75.5t82.5 34.5q57 0 105 -52t48 -153q0 -35 -11 -80t-40 -88t-76 -78.5t-121 -52.5v68q49 10 76 30.5t39 42t14 38t2 18.5q0 39 -18 55.5t-39 26.5q-31 16 -60.5 42t-29.5 73zM422 1348q0 43 28.5 77.5t79.5 34.5q57 0 105.5 -52t48.5 -153 q0 -35 -11 -80t-40 -88t-76 -78.5t-121 -52.5v68q49 10 76 30.5t39 41t14 37t2 20.5q0 39 -18.5 55.5t-38.5 26.5q-31 16 -59.5 40.5t-28.5 72.5z" />
<glyph unicode="&#x201e;" horiz-adv-x="768" d="M82 117q0 43 28.5 77.5t82.5 34.5q57 0 105 -53t48 -151q0 -35 -11 -80t-40 -88t-76 -79t-121 -52v67q49 10 76 30.5t39 41t14 37t2 20.5q0 39 -18 55.5t-39 26.5q-31 16 -60.5 41t-29.5 72zM422 117q0 43 28.5 77.5t79.5 34.5q57 0 105.5 -53t48.5 -153q0 -35 -11 -80 t-40 -88t-76 -79t-121 -52v69q49 10 76 30.5t39 41t14 37t2 18.5q0 41 -18.5 57.5t-38.5 26.5q-31 16 -59.5 41t-28.5 72z" />
<glyph unicode="&#x2022;" horiz-adv-x="681" d="M96 723q0 45 17.5 89t50.5 79t79 55.5t101 20.5q51 0 96 -19.5t77 -52.5t50.5 -77t18.5 -95q0 -49 -17.5 -94t-49.5 -78t-76 -52.5t-97 -19.5q-55 0 -100 19.5t-79 52.5t-52.5 78t-18.5 94z" />
<glyph unicode="&#x2026;" horiz-adv-x="2048" d="M221 109q0 49 35 84.5t86 35.5q49 0 85 -35.5t36 -84.5q0 -51 -36 -86t-85 -35q-51 0 -86 35t-35 86zM903 109q0 49 35 84.5t86 35.5q49 0 85 -35.5t36 -84.5q0 -51 -36 -86t-85 -35q-51 0 -86 35t-35 86zM1585 109q0 49 35 84.5t86 35.5q49 0 85 -35.5t36 -84.5 q0 -51 -36 -86t-85 -35q-51 0 -86 35t-35 86z" />
<glyph unicode="&#x202f;" horiz-adv-x="378" />
<glyph unicode="&#x2039;" horiz-adv-x="598" d="M53 475l363 369h119l-361 -369l361 -362h-119z" />
<glyph unicode="&#x203a;" horiz-adv-x="598" d="M59 113l361 358l-361 373h121l363 -373l-363 -358h-121z" />
<glyph unicode="&#x205f;" horiz-adv-x="473" />
<glyph unicode="&#x2122;" horiz-adv-x="1579" d="M45 1272q2 25 3 44t2 37.5t2 40t1 52.5q72 0 144.5 -1t144.5 -1t143.5 1t143.5 1q0 -31 1 -52.5t2 -40t2 -38t3 -43.5h-62q-14 41 -24 62.5t-26.5 31.5t-43 12t-75.5 2v-454q2 -45 3 -57.5t9 -20.5q10 -10 27.5 -12t52.5 -7v-63q-63 2 -100.5 3t-57.5 1t-57 -1t-101 -3 v63q33 2 52.5 5.5t28.5 12.5t11 27.5t2 51.5v454q-49 0 -75.5 -2t-43 -12t-26.5 -31.5t-25 -62.5h-61zM696 766v63q25 4 40.5 8.5t22.5 13.5t10 27.5t3 53.5v428q-14 16 -31.5 19t-33.5 5v64q25 -2 49 -3t49 -1q23 0 46 1t46 3l207 -508l213 506h51.5h39.5t42 1t59 1v-64 q-31 -2 -46 -6t-23 -16t-9 -33.5t-1 -56.5v-340q0 -51 1 -63.5t7 -20.5q6 -10 18 -12t41 -7v-63q-31 2 -63.5 3t-67.5 1q-31 0 -62.5 -1t-64.5 -3v63q35 4 50.5 10.5t17.5 34.5v373l-203 -479h-45l-203 485v-321q0 -33 2 -52.5t10.5 -29.5t24.5 -14.5t45 -6.5v-63 q-39 0 -65.5 1t-51 1t-53.5 -1t-72 -1z" />
<glyph unicode="&#x25fc;" horiz-adv-x="901" d="M0 0v901h901v-901h-901z" />
<glyph unicode="&#xfb01;" horiz-adv-x="1067" d="M27 0v59q53 0 83.5 5.5t46 20.5t19.5 43t4 73v614h-153l41 88h114q4 80 9.5 146.5t18.5 125t37.5 109.5t69.5 100q39 43 83 72t88 45.5t85 22.5t74 6q98 0 165 -41t67 -107q0 -14 -5.5 -31.5t-16.5 -32.5t-29.5 -25.5t-47.5 -10.5q-47 0 -69.5 22.5t-40.5 51.5 q-16 27 -43 55.5t-86 28.5q-74 0 -113 -51.5t-56.5 -130t-20.5 -174t-3 -181.5h195l98 2q49 2 80 4t57.5 5.5t56 8.5t76.5 15q-2 -31 -4 -56.5t-3 -54t-2 -68.5t-1 -102v-491q0 -33 5 -53.5t18.5 -30.5t40 -15.5t69.5 -7.5v-59q-53 2 -104 4t-105 2q-55 0 -109 -2l-108 -4 v59q23 0 48.5 2t45.5 17q12 8 19.5 18t10.5 29.5t4 50.5t1 84v555h-389l6 -604q0 -55 4 -85t19.5 -44t47.5 -17.5t91 -5.5v-59q-59 2 -119.5 4t-120.5 2q-125 0 -249 -6z" />
<glyph unicode="&#xfb02;" horiz-adv-x="1067" d="M27 0v59q53 0 83.5 5.5t46 20.5t19.5 43t4 73v614h-153l41 88h114q4 80 9.5 146.5t18.5 125t37.5 109.5t69.5 100q41 47 88.5 76t91.5 44.5t84 20.5t66 5q68 0 107 -13.5t55 -23.5l86 33v-1303q0 -55 3 -87t15.5 -47t38 -21.5t72.5 -8.5v-59q-53 2 -108.5 4t-108.5 2 q-55 0 -105.5 -1t-111.5 -5v59q51 0 78.5 8.5t40 28t14.5 53t2 89.5v577h-377l6 -604q0 -55 4 -85t18.5 -43t43.5 -17.5t80 -6.5v-59q-121 6 -230 6q-121 0 -243 -6zM348 903h377v393q-18 10 -27.5 20.5t-25.5 39.5q-16 27 -45 55.5t-86 28.5q-72 0 -111 -49.5t-57.5 -127 t-21.5 -173t-3 -187.5z" />
</font>
</defs>
</svg>
