<?xml version="1.0" standalone="no"?>
<!DOCTYPE svg PUBLIC "-//W3C//DTD SVG 1.1//EN" "http://www.w3.org/Graphics/SVG/1.1/DTD/svg11.dtd" >
<svg xmlns="http://www.w3.org/2000/svg" xmlns:xlink="http://www.w3.org/1999/xlink" version="1.1">
<metadata></metadata>
<defs>
<font id="gt_sectraregular_italic" horiz-adv-x="1269" >
<font-face units-per-em="2048" ascent="1536" descent="-512" />
<missing-glyph horiz-adv-x="491" />
<glyph unicode="&#xfb01;" horiz-adv-x="1114" d="M-256 -481l35 168h227q32 35 55 83t29 87l172 983h-199l11 37l76 67h131l18 111q29 178 133 245l260 164h414l-33 -161h-500q-33 -32 -57 -83t-31 -94l-32 -188h358l123 55l63 -65l-141 -805l170 106l35 -51l-291 -209l-104 66l145 817l-106 -12h-271l-158 -912 q-32 -179 -135 -245l-254 -164h-143z" />
<glyph unicode="&#xfb02;" horiz-adv-x="1097" d="M-256 -481l35 168h227q32 35 55 83t29 87l172 983h-199l11 37l76 67h131l18 111q29 178 133 245l260 164h336l49 -47l-227 -1294l170 106l35 -51l-291 -209l-105 66l142 805h-367l-158 -912q-32 -179 -135 -245l-254 -164h-143zM453 938h366l72 405l-154 -40h-164 q-33 -32 -57 -83t-31 -94z" />
<glyph unicode="&#xfb03;" horiz-adv-x="1677" d="M-256 -481l35 168h227q32 35 55 83t29 87l172 983h-199l11 37l76 67h131l18 111q29 178 133 245l260 164h312l-234 -161h-197q-33 -32 -57 -83t-31 -94l-32 -188h389l20 117q29 178 133 245l260 164h414l-33 -161h-499q-33 -32 -57 -83t-31 -94l-33 -188h358l123 55 l64 -65l-142 -805l170 106l35 -51l-291 -209l-104 66l145 817l-106 -12h-271l-157 -912q-32 -179 -135 -245l-254 -164h-144l35 168h227q32 35 55 83t29 87l172 983h-391l-158 -912q-32 -179 -135 -245l-254 -164h-143z" />
<glyph unicode="&#xfb04;" horiz-adv-x="1660" d="M-256 -481l35 168h227q32 35 55 83t29 87l172 983h-199l11 37l76 67h131l18 111q29 178 133 245l260 164h312l-234 -161h-197q-33 -32 -57 -83t-31 -94l-32 -188h389l20 117q29 178 133 245l260 164h336l49 -47l-227 -1294l170 106l35 -51l-291 -209l-104 66l141 805 h-367l-157 -912q-32 -179 -135 -245l-254 -164h-144l35 168h227q32 35 55 83t29 87l172 983h-391l-158 -912q-32 -179 -135 -245l-254 -164h-143zM1016 938h366l72 405l-154 -40h-163q-33 -32 -57 -83t-31 -94z" />
<glyph horiz-adv-x="0" />
<glyph horiz-adv-x="0" />
<glyph horiz-adv-x="682" />
<glyph unicode="&#xd;" horiz-adv-x="737" />
<glyph unicode=" "  horiz-adv-x="491" />
<glyph unicode="&#x09;" horiz-adv-x="491" />
<glyph unicode="&#xa0;" horiz-adv-x="491" />
<glyph unicode="!" horiz-adv-x="616" d="M113 0l10 117l29 98l155 10l60 -10l-11 -115l-28 -100l-156 -10zM262 481l31 420l86 553h186l-112 -551l-119 -422h-72z" />
<glyph unicode="&#x22;" horiz-adv-x="804" d="M205 963q37 62 75.5 141.5t45.5 116.5l-80 8l10 117l37 98l131 10l74 -10l-11 -115l-26 -100l-187 -297zM532 963q37 62 75.5 141.5t45.5 116.5l-80 8l11 117l37 98l131 10l73 -10l-10 -115l-27 -100l-186 -297z" />
<glyph unicode="#" horiz-adv-x="1271" d="M61 399l31 103h266l101 338h-262l30 102h262l119 399h113l-119 -399h297l119 399h112l-118 -399h270l-31 -102h-270l-100 -338h266l-31 -103h-268l-117 -399h-113l117 399h-297l-116 -399h-113l117 399h-265zM471 502h297l100 338h-297z" />
<glyph unicode="$" horiz-adv-x="1130" d="M72 92l49 287h131v-170q32 -38 92 -76t125 -59l100 571l-149 117q-81 63 -124.5 134.5t-43.5 168.5q0 226 305 338l156 55l24 141h82l-22 -131q203 -11 323 -104l-49 -289h-110l-11 189q-80 68 -174 94l-90 -512l127 -96q41 -31 70.5 -60.5t59.5 -72.5t45.5 -98.5 t15.5 -121.5q0 -123 -76 -217.5t-211 -142.5l-185 -64l-22 -137h-82l23 129q-117 7 -215 42t-164 85zM465 1147q0 -80 38.5 -135.5t110.5 -110.5l82 471h-16q-215 -67 -215 -225zM549 59h18q112 30 166.5 99.5t54.5 167.5q0 65 -20 114.5t-48.5 80t-78.5 69.5z" />
<glyph unicode="%" horiz-adv-x="1685" d="M82 -10l1374 1454h148l-1375 -1454h-147zM221 977q0 178 81 289t282 168q118 0 187 -76t69 -184q0 -179 -81 -295.5t-276 -161.5q-110 0 -186 72t-76 188zM369 989q0 -91 36.5 -138.5t106.5 -47.5q61 0 103.5 59t59.5 137t17 162q0 89 -34.5 138t-94.5 49 q-52 0 -91 -33.5t-60.5 -88.5t-32 -115t-10.5 -122zM844 260q0 178 80.5 289t281.5 168q118 0 187 -76t69 -184q0 -86 -17.5 -155.5t-57 -130.5t-110 -104.5t-171.5 -66.5q-110 0 -186 72t-76 188zM991 272q0 -91 37 -138.5t107 -47.5q61 0 103.5 59t59.5 137t17 162 q0 89 -34.5 138t-94.5 49q-52 0 -91.5 -34t-61 -88.5t-32 -114.5t-10.5 -122z" />
<glyph unicode="&#x26;" horiz-adv-x="1202" d="M61 340q0 290 349 428l92 37q-76 12 -143.5 88.5t-67.5 181.5q0 234 418 357l133 38q51 -5 133 -48t121 -74l-121 -156q-43 41 -129 95t-139 67q-222 -99 -222 -258q0 -100 61 -173t120 -73l-15 -80q-93 0 -179.5 -53t-141 -144t-54.5 -194q0 -134 78.5 -221.5 t225.5 -87.5q119 44 182 124t88 216l24 143h-106l-29 -45h-51l35 188h434l31 45h45l-35 -188h-137l-31 -164q-14 -71 -33 -118t-57 -94.5t-101.5 -84.5t-160.5 -72q-82 -31 -186 -57q-208 0 -319.5 104t-111.5 273z" />
<glyph unicode="'" horiz-adv-x="477" d="M205 963q37 62 75.5 141.5t45.5 116.5l-80 8l10 117l37 98l131 10l74 -10l-11 -115l-26 -100l-187 -297z" />
<glyph unicode="(" horiz-adv-x="698" d="M123 203q0 140 12 251.5t43.5 217t72 191.5t113.5 191.5t150 200t199 232.5l47 -37q-481 -550 -481 -1266q0 -355 141 -614l-53 -57q-137 237 -190.5 377t-53.5 313z" />
<glyph unicode=")" horiz-adv-x="698" d="M-61 -451q481 550 481 1266q0 356 -141 615l53 57q69 -120 107.5 -194t73 -160.5t48.5 -165.5t14 -170q0 -140 -11.5 -251.5t-43.5 -217t-72 -191.5t-113 -191.5t-150 -200t-199 -232.5z" />
<glyph unicode="*" horiz-adv-x="774" d="M133 1167l47 146l234 -105l-27 256h154l-25 -256l232 105l47 -146l-252 -51l172 -192l-125 -90l-127 217l-125 -217l-125 90l176 192z" />
<glyph unicode="+" d="M106 451v133h461v471h133v-471h461v-133h-461v-451h-133v451h-461z" />
<glyph unicode="," horiz-adv-x="477" d="M61 -266q37 62 75.5 141.5t45.5 116.5l-80 8l11 117l37 98l131 10l73 -10l-10 -115l-27 -100l-186 -297z" />
<glyph unicode="-" horiz-adv-x="802" d="M102 496l25 133h625l-25 -133h-625z" />
<glyph unicode="." horiz-adv-x="509" d="M102 0l11 117l28 98l156 10l59 -10l-10 -115l-29 -100l-155 -10z" />
<glyph unicode="/" horiz-adv-x="1034" d="M-246 -471l1264 1941h119l-1264 -1941h-119z" />
<glyph unicode="0" horiz-adv-x="1132" d="M92 389q0 397 424 553l141 51q186 0 300 -118.5t114 -301.5q0 -397 -424 -553l-141 -51q-186 0 -300 118.5t-114 301.5zM297 420q0 -136 75.5 -231t192.5 -119q141 53 221 177t80 296q0 133 -81.5 230.5t-186.5 119.5q-141 -53 -221 -177t-80 -296z" />
<glyph unicode="1" horiz-adv-x="974" d="M10 -2l2 72l348 30l119 660l21 45l-84 -31l-279 -72l-16 66l500 215h88l-158 -883l342 -30l-23 -72l-428 6z" />
<glyph unicode="2" horiz-adv-x="1019" d="M-10 92l266 178q72 48 111.5 75t95.5 67.5t86 66.5t65.5 62t53 65t29.5 63t12 68q0 156 -152 156l-149 -43l-70 -174h-166l21 190l430 127q148 0 226.5 -62t78.5 -163q0 -50 -21.5 -100t-51.5 -90t-84.5 -86t-96 -75.5t-112 -70.5t-107.5 -60.5t-105 -54.5l-198 -102 l368 55h459v-61l-61 -123h-875z" />
<glyph unicode="3" horiz-adv-x="927" d="M-92 -481l31 174h442q207 121 207 297q0 260 -357 260l-12 57l103 41q157 63 236 143t79 203q0 80 -47 135t-129 64l-119 -43l-78 -195h-160l23 211l399 127q159 0 236.5 -77.5t77.5 -204.5q0 -230 -348 -359q148 -10 228.5 -97.5t80.5 -217.5q0 -55 -16 -104.5t-42 -87 t-65.5 -72.5t-80.5 -60.5t-93.5 -50.5t-97 -43t-98.5 -39q-7 -3 -11 -4l-150 -57h-239z" />
<glyph unicode="4" horiz-adv-x="1165" d="M10 80l811 883h195l-12 -74l-838 -787l104 31h375l31 186l164 121h43l-54 -307h295l-24 -133h-295l-84 -471h-184l84 471h-553z" />
<glyph unicode="5" horiz-adv-x="972" d="M-41 -481l31 174h444q103 70 162 162t59 186q0 124 -67 200t-197 76q-54 0 -97.5 -11.5t-103.5 -39.5l-73 -55l-41 53l209 699h702l-10 -64l-70 -119h-577l-135 -432l254 133q97 0 172 -23.5t119 -60t72 -85.5t38 -93.5t10 -91.5q0 -361 -502 -551l-149 -57h-250z" />
<glyph unicode="6" horiz-adv-x="1118" d="M102 430q0 244 127 461t349.5 367t500.5 206l29 -82q-111 -20 -218 -71.5t-190.5 -119.5t-152 -147t-112 -156.5t-60.5 -146.5l323 195q133 0 234.5 -115t101.5 -268q0 -178 -98.5 -321.5t-286.5 -211.5l-147 -51q-182 0 -291 121t-109 340zM317 430q0 -151 64 -249 t186 -111q121 40 186.5 157.5t65.5 264.5q0 139 -51 208.5t-119 69.5q-83 0 -223 -90l-70 -45q-39 -93 -39 -205z" />
<glyph unicode="7" horiz-adv-x="997" d="M10 -471l10 65l832 1221l-61 -37h-707l33 185h880l31 -43l-829 -1391h-189z" />
<glyph unicode="8" horiz-adv-x="1093" d="M82 291q0 88 33.5 162.5t94 129t129.5 93.5t153 69q-111 75 -166.5 147t-55.5 171q0 123 90.5 219t249.5 148l109 34q161 0 262.5 -68t101.5 -188q0 -65 -20.5 -122t-52 -99t-80.5 -80.5t-95 -64.5t-106 -54q117 -82 158 -120q117 -109 117 -246q0 -283 -441 -428 l-86 -29q-75 0 -145.5 23t-126.5 63.5t-89.5 103t-33.5 136.5zM287 336q0 -124 77.5 -197t182.5 -73q123 57 182 131.5t59 181.5q0 29 -7 57.5t-16 50.5t-27.5 47t-31.5 40.5t-38.5 38.5t-38 33.5t-40.5 32.5t-36 28q-62 -39 -106 -74.5t-82.5 -81t-58 -99.5t-19.5 -116z M475 1114q0 -67 50.5 -141.5t142.5 -141.5q110 73 159.5 151t49.5 181q0 87 -55 140.5t-169 60.5q-101 -42 -139.5 -101t-38.5 -149z" />
<glyph unicode="9" horiz-adv-x="1087" d="M10 -420q111 20 218 71.5t190.5 119.5t152 147t112 156.5t60.5 146.5l-323 -194q-133 0 -234.5 115t-101.5 268q0 177 98.5 320.5t286.5 211.5l147 51q182 0 291 -121t109 -340q0 -244 -127 -461t-349.5 -367t-500.5 -206zM299 471q0 -139 51 -208.5t119 -69.5 q83 0 223 90l70 45q39 93 39 204q0 151 -64 249.5t-186 111.5q-81 -26 -139 -91.5t-85.5 -150.5t-27.5 -180z" />
<glyph unicode=":" horiz-adv-x="534" d="M102 0l11 117l28 98l156 10l59 -10l-10 -115l-29 -100l-155 -10zM219 768l10 117l29 98l156 10l59 -10l-10 -115l-29 -100l-155 -10z" />
<glyph unicode=";" horiz-adv-x="534" d="M61 -266q37 62 75.5 141.5t45.5 116.5l-80 8l11 117l37 98l131 10l73 -10l-10 -115l-27 -100l-186 -297zM219 768l10 117l29 98l156 10l59 -10l-10 -115l-29 -100l-155 -10z" />
<glyph unicode="&#x3c;" d="M102 524v123l1065 475v-161l-874 -373l874 -373v-164z" />
<glyph unicode="=" d="M106 236v133h1055v-133h-1055zM106 635v133h1055v-133h-1055z" />
<glyph unicode="&#x3e;" d="M102 51v164l875 373l-875 373v161l1065 -475v-123z" />
<glyph unicode="?" horiz-adv-x="808" d="M133 0l10 117l29 98l156 10l59 -10l-10 -115l-29 -100l-155 -10zM246 1174v147l336 133q117 0 202.5 -90t85.5 -225q0 -136 -71 -228.5t-209 -156.5l-139 -64l-78 -239h-107l41 235l187 109q87 51 129.5 128t42.5 160q0 59 -11.5 111t-46.5 98.5t-90 59.5l-100 -33 l-35 -145h-137z" />
<glyph unicode="@" horiz-adv-x="1898" d="M154 498q0 301 194 537t514 335l191 60q186 0 336 -45.5t247 -126.5t149 -190.5t52 -238.5q0 -131 -51.5 -251.5t-135.5 -206t-196 -136.5t-229 -51l-121 127l94 248q-73 -97 -315 -379q-121 0 -206 81t-85 210q0 171 98 311.5t264 214.5l224 101l235 -135l-170 -705 q68 0 143 39.5t139.5 108t107 175.5t42.5 228q0 224 -160 371t-425 147q-107 0 -215.5 -37t-204 -108t-170.5 -166.5t-118.5 -222.5t-43.5 -265q0 -128 37.5 -235t102.5 -181t154 -125.5t190.5 -75.5t213.5 -24q178 0 396 99l32 -60q-112 -57 -250 -102t-237 -57 q-182 0 -336 55t-260.5 152t-166.5 232t-60 292zM774 532q0 -83 42.5 -129.5t115.5 -46.5l237 258l70 260l-164 109q-71 -29 -125.5 -73t-87 -90.5t-53 -100t-28 -98.5t-7.5 -89z" />
<glyph unicode="A" horiz-adv-x="1361" d="M-41 -2v72l164 22l751 1338l138 40l145 -1378l154 -22l-19 -72l-266 6l-262 -6v72l178 26l-39 383h-450l-205 -383l174 -26l-21 -72l-221 6zM504 575h389l-49 492v147z" />
<glyph unicode="B" horiz-adv-x="1196" d="M-20 -2v72l188 26l199 1252l-183 18l21 70l282 -6l334 6h7q86 0 154 -24q70 -24 111 -65.5t62 -90.5t21 -101q0 -102 -74.5 -194.5t-216.5 -145.5l-105 -39q174 -10 279.5 -104.5t105.5 -227.5q0 -66 -19 -120t-49.5 -92.5t-79.5 -73t-97 -57t-115 -48.5l-146 -55l-397 6 zM375 111h366q199 126 199 317q0 60 -16.5 109t-51 88t-94.5 60.5t-141 21.5h-168zM483 799h119q79 0 146.5 31t111 80.5t68 108.5t24.5 118q0 83 -53.5 147t-155.5 64h-172z" />
<glyph unicode="C" horiz-adv-x="1261" d="M102 594q0 99 17 192t59 190t105.5 178t164 150.5t228.5 112.5l172 58q138 0 251.5 -47t182.5 -109l-10 -295h-109l-43 199q-98 98 -370 141q-207 -90 -314.5 -278.5t-107.5 -450.5q0 -134 34.5 -241t95 -175t138.5 -106t168 -43q76 29 125.5 57.5t99.5 71.5l121 243h113 l-80 -344l-467 -135q-264 0 -419 170t-155 461z" />
<glyph unicode="D" horiz-adv-x="1374" d="M-20 70l184 26l198 1252l-184 18l21 70l270 -6l348 6h12q245 0 388 -162q147 -166 147 -445q0 -116 -33 -228t-100.5 -218t-183 -193t-267.5 -137l-166 -55l-362 6l-270 -6zM373 119h360q82 44 153.5 109t129 150t90.5 194t33 227q0 132 -32 236t-88.5 169.5t-129.5 102 t-158 41.5h-164z" />
<glyph unicode="E" horiz-adv-x="1208" d="M-20 -2v72l186 26l199 1243l-181 27l21 70l282 -6l752 6v-351h-70l-90 248l-510 6l-86 -544l287 8l125 215h61l-71 -268l-19 -265h-61l-49 215l-287 9l-98 -615l555 6l157 277h78l-88 -379l-813 6z" />
<glyph unicode="F" horiz-adv-x="1136" d="M-20 -2v72l186 26l199 1243l-181 27l21 70l282 -6l752 6v-351h-70l-90 248l-510 6l-90 -573l287 8l125 215h61l-71 -268l-19 -264h-61l-49 215l-287 8l-94 -586l252 -24l-21 -72l-342 6z" />
<glyph unicode="G" horiz-adv-x="1351" d="M61 573q0 99 20.5 196.5t68.5 197.5t119 185t180 156.5t243 112.5l158 49q129 0 239.5 -46.5t172.5 -108.5l-5 -281h-108l-49 191q-45 54 -142 96.5t-198 42.5q-110 -48 -194 -112t-148 -153t-97.5 -208.5t-33.5 -265.5q0 -134 33.5 -239.5t93 -172t136 -102.5t167.5 -41 q132 45 217 106l63 397l-172 27l21 66h256l239 6v-72l-139 -27l-74 -464l-487 -146q-267 0 -423.5 161t-156.5 449z" />
<glyph unicode="H" horiz-adv-x="1421" d="M-20 -2v72l184 26l198 1241l-180 27l21 72l276 -6l266 6v-72l-178 -27l-88 -542h576l86 542l-176 27l20 72l279 -6l260 6v-72l-178 -27l-199 -1241l170 -26l-21 -72l-260 6l-278 -6v72l184 26l96 596h-575l-94 -596l170 -26l-21 -72l-266 6z" />
<glyph unicode="I" horiz-adv-x="643" d="M-20 -2v72l184 26l198 1241l-180 27l21 72l272 -6l270 6v-72l-178 -27l-198 -1241l170 -26l-21 -72l-270 6z" />
<glyph unicode="J" horiz-adv-x="638" d="M-164 -358l35 168h209q50 68 71.5 141t43.5 223l184 1163l-180 27l20 72l273 -6l270 6v-72l-178 -27l-183 -1153q-21 -134 -54.5 -210t-100.5 -132l-248 -200h-162z" />
<glyph unicode="K" horiz-adv-x="1386" d="M-20 -2l2 72l186 26l194 1241l-178 27l21 72l270 -6l250 6v-72l-156 -27l-86 -542l52 32l565 510l-127 27l10 72l236 -6l198 6v-72l-176 -27l-602 -538l51 -33l516 -666l105 -30l-21 -72l-153 6l-140 -6l-493 698l-27 62l-104 -662l149 -26l-22 -72l-248 6z" />
<glyph unicode="L" horiz-adv-x="1134" d="M-20 -2v72l184 26l198 1241l-180 27l21 72l272 -6l281 6v-72l-189 -27l-198 -1243l473 6l194 279h78l-125 -381l-731 6z" />
<glyph unicode="M" horiz-adv-x="1771" d="M-20 -2v72l165 26l195 1227l-186 41l20 72l252 -6l199 6l229 -1110l-6 -123l612 1233l182 -6l232 6v-72l-178 -27l-199 -1241l160 -26l-21 -72l-235 6l-287 -6v72l189 26l161 1020l66 232l-680 -1348h-125l-238 1159l-18 189l-190 -1252l170 -26l-21 -72l-219 6z" />
<glyph unicode="N" horiz-adv-x="1445" d="M-20 -2v72l184 26l194 1227l-170 41l21 72l190 -6l142 6l514 -1004l35 -156l157 1061l-170 27l21 72l219 -6l242 6v-72l-189 -27l-211 -1337h-115l-552 1098l-21 168l-184 -1170l170 -26l-21 -72l-219 6z" />
<glyph unicode="O" horiz-adv-x="1423" d="M102 573q0 101 20 200.5t65 200t112 184.5t168 153t225 108l164 51q255 0 401 -163.5t146 -446.5q0 -101 -20 -200.5t-65 -200t-112 -184.5t-168 -153t-225 -108l-164 -51q-255 0 -401 163.5t-146 446.5zM328 604q0 -129 31.5 -229t88.5 -162.5t128.5 -97.5t158.5 -45 q202 78 322.5 285.5t120.5 473.5q0 129 -32 229.5t-89 163t-128.5 97.5t-158.5 45q-202 -78 -322 -285.5t-120 -474.5z" />
<glyph unicode="P" horiz-adv-x="1148" d="M-20 -2v72l184 26l201 1252l-183 18l21 70l272 -6l334 6h13q182 0 288 -84q110 -86 111 -232q0 -160 -108 -269.5t-351 -195.5l-111 -39h-198l-84 -520l247 -26l-20 -72l-348 6zM471 737h307q94 46 155.5 139t61.5 205q0 122 -62.5 191.5t-189.5 75.5h-174z" />
<glyph unicode="Q" horiz-adv-x="1423" d="M102 573q0 101 20 200.5t65 200t112 184.5t168 153t225 108l164 51q255 0 401 -163.5t146 -446.5q0 -101 -20 -200.5t-65 -200t-112 -184.5t-168 -153t-225 -108l-92 -28l176 -66l188 -158l123 -45v-59h-284l-338 309q-226 20 -355 180.5t-129 425.5zM328 604 q0 -129 31.5 -229t88.5 -162.5t128.5 -97.5t158.5 -45q202 78 322.5 285.5t120.5 473.5q0 129 -32 229.5t-89 163t-128.5 97.5t-158.5 45q-202 -78 -322 -285.5t-120 -474.5z" />
<glyph unicode="R" horiz-adv-x="1306" d="M-20 -2v72l184 26l201 1252l-183 18l21 70l272 -6l334 6h12q181 0 289 -85q112 -88 111 -227q0 -143 -90.5 -237t-284.5 -170l-98 -37l131 -86l249 -500l107 -28l-12 -68l-170 6l-123 -6l-287 637l-25 22h-159l-90 -561l200 -26l-20 -72l-301 6zM477 778h291 q99 41 163 123.5t64 194.5q0 113 -62 179.5t-190 72.5h-174z" />
<glyph unicode="S" horiz-adv-x="1038" d="M31 92l49 287h131v-170q46 -55 138 -102.5t177 -47.5q112 30 167 100t55 167q0 67 -22.5 119t-52.5 82t-85 73l-209 162q-81 63 -124.5 134.5t-43.5 168.5q0 226 305 338l186 67q242 0 377 -106l-49 -289h-110l-11 189q-48 43 -121.5 75.5t-148.5 32.5 q-215 -67 -215 -225q0 -82 41 -137.5t121 -116.5l186 -143q41 -31 70.5 -60.5t59.5 -72.5t45.5 -98.5t15.5 -121.5q0 -123 -76 -217.5t-211 -142.5l-209 -74q-135 0 -248 36t-188 93z" />
<glyph unicode="T" horiz-adv-x="1214" d="M133 1075l57 361l566 -6l561 6l-53 -361h-82l-47 260l-293 6l-199 -1245l170 -26l-20 -72l-271 6l-268 -6v72l184 26l199 1245l-287 -6l-135 -260h-82z" />
<glyph unicode="U" horiz-adv-x="1363" d="M154 1364l20 72l272 -6l281 6v-72l-180 -27l-146 -882q-5 -39 -5 -77q0 -19 1 -38q4 -56 28 -105t60.5 -85.5t94.5 -58t129 -21.5q90 33 146 75.5t97.5 124t61.5 209.5l137 858l-178 27l20 72l234 -6l260 6v-72l-182 -27l-138 -858q-15 -95 -40 -163.5t-73 -132 t-128 -109t-195 -74.5l-145 -37q-242 0 -334 139q-65 97 -65 250q0 66 12 142l133 843z" />
<glyph unicode="V" horiz-adv-x="1288" d="M154 1364l20 72l268 -6l252 6v-72l-178 -27l174 -1005l-18 -123l495 1128l-174 27l21 72l237 -6l160 6v-72l-102 -23l-629 -1337l-111 -41l-262 1378z" />
<glyph unicode="W" horiz-adv-x="1855" d="M154 1364l20 72l268 -6l211 6v-72l-137 -27l139 -1009l-20 -117l352 907l-31 223l-112 23l20 72l228 -6l251 6v-72l-178 -27l140 -1009l-21 -117l453 1126l-174 27l20 72l236 -6l159 6v-72l-102 -23l-580 -1337l-125 -41l-149 918l4 112l-379 -989l-125 -41l-215 1378z " />
<glyph unicode="X" horiz-adv-x="1335" d="M-41 -2v72l117 26l532 611l-340 634l-114 23l20 72l238 -6l274 6v-72l-178 -27l221 -434l2 -76l438 510l-170 27l21 72l250 -6l157 6v-72l-106 -23l-520 -591l348 -654l104 -26l-20 -72l-217 6l-291 -6v72l178 26l-225 463v78l-442 -541l163 -26l-20 -72l-244 6z" />
<glyph unicode="Y" horiz-adv-x="1255" d="M154 1364l20 72l232 -6l270 6v-72l-178 -27l231 -577v-78l416 655l-174 27l20 72l230 -6l157 6v-72l-102 -23l-492 -757l-75 -488l231 -26l-20 -72l-332 6l-334 -6v72l250 26l76 490l-312 755z" />
<glyph unicode="Z" horiz-adv-x="1062" d="M-31 0v82l883 1190l123 80l-604 -21l-138 -262h-69l59 365h891l41 -82l-883 -1188l-114 -72l626 10l207 318h78l-137 -420h-963z" />
<glyph unicode="[" horiz-adv-x="694" d="M20 -471q117 663 185 1049l155 886l168 -6l269 6l-13 -71l-297 -21q-96 -490 -147 -782q-28 -156 -68.5 -398t-67.5 -406l-26 -165l289 -20l-12 -72l-265 6z" />
<glyph unicode="\" horiz-adv-x="866" d="M195 1470h106l586 -1941h-107z" />
<glyph unicode="]" horiz-adv-x="694" d="M-102 -471l12 72l295 20q119 620 182 969q23 130 54.5 325.5t52.5 326.5l20 130l-289 21l13 71l264 -6l172 6q-121 -675 -160 -886l-182 -1049l-168 6z" />
<glyph unicode="^" horiz-adv-x="780" d="M143 942l252 502h92l252 -502h-164l-133 322l-135 -322h-164z" />
<glyph unicode="_" horiz-adv-x="1144" d="M-82 -225l19 112h1136l-18 -112h-1137z" />
<glyph unicode="`" horiz-adv-x="1024" d="M397 1464h205l25 -354h-70z" />
<glyph unicode="a" horiz-adv-x="989" d="M82 354q0 390 375 578l123 61q55 -3 149.5 -28t181.5 -58l-137 -784l170 106l35 -51l-291 -209l-104 66l20 121l35 88l-291 -275q-266 61 -266 385zM276 395q0 -100 40.5 -171t95.5 -99l221 186l88 498q-38 27 -112.5 46t-129.5 19q-86 -69 -144.5 -193t-58.5 -286z" />
<glyph unicode="b" horiz-adv-x="960" d="M82 63l223 1280l-199 -55l-24 64l360 112l50 -47l-103 -594l-37 -92l307 262q116 -22 188.5 -113.5t72.5 -256.5q0 -131 -42.5 -249t-129.5 -213t-209 -143l-127 -49q-167 16 -330 94zM274 172q56 -36 124.5 -61t119.5 -25q69 32 117.5 111.5t69 169t20.5 180.5 q0 127 -35.5 200t-83.5 87l-246 -177z" />
<glyph unicode="c" horiz-adv-x="843" d="M82 367q0 193 109.5 347.5t308.5 233.5l112 45q39 0 108 -23t114 -50l-99 -166q-98 69 -229 127q-109 -59 -169.5 -177.5t-60.5 -277.5q0 -139 60 -212.5t153 -90.5q49 20 124 60t114 67l39 -49q-99 -80 -264 -181l-82 -51q-143 0 -240.5 106t-97.5 292z" />
<glyph unicode="d" horiz-adv-x="1034" d="M82 358q0 191 89 342.5t267 231.5l137 61q64 -3 183 -41l69 391l-198 -55l-25 64l361 112l49 -47l-230 -1294l170 106l35 -51l-291 -209l-104 68l22 121l37 88l-295 -277q-276 53 -276 389zM276 397q0 -112 37.5 -179t96.5 -95l235 196l86 490q-37 26 -121 45.5 t-135 19.5q-93 -66 -146 -198.5t-53 -278.5z" />
<glyph unicode="e" horiz-adv-x="872" d="M82 346q0 199 109 365.5t301 238.5l114 43q107 -19 166 -68.5t59 -146.5q0 -72 -36 -176l-516 -164q-3 -27 -3 -53q0 -126 64.5 -194t146.5 -70q131 56 242 131l37 -51q-43 -36 -120.5 -90.5t-145.5 -94.5l-80 -47q-151 0 -244.5 105t-93.5 272zM287 510l334 137 q20 64 20 111q0 119 -111 137q-192 -80 -243 -385z" />
<glyph unicode="f" horiz-adv-x="645" d="M-256 -481l35 168h227q32 35 55 83t29 87l172 983h-199l11 37l76 67h131l18 111q29 178 133 245l260 164h168l-33 -161h-254q-33 -32 -57 -83t-31 -94l-32 -188h231l-22 -98h-228l-158 -912q-32 -179 -135 -245l-254 -164h-143z" />
<glyph unicode="g" horiz-adv-x="978" d="M41 -481l29 168h376q50 34 93.5 107t56.5 157l33 205l35 88l-291 -275q-277 53 -277 389q0 191 89.5 342.5t267.5 231.5l137 61q64 0 166.5 -27t181.5 -69l-178 -991q-11 -61 -64.5 -117t-160.5 -137l-179 -133h-315zM291 397q0 -112 37 -179t96 -95l233 188l91 492 q-39 30 -115 50.5t-144 20.5q-92 -65 -145 -198t-53 -279z" />
<glyph unicode="h" horiz-adv-x="1042" d="M92 0l238 1343l-199 -55l-25 64l361 112l49 -47l-102 -586l-31 -63l350 225q115 0 165 -66q37 -50 38 -117q0 -22 -4 -46l-115 -641l170 106l35 -51l-291 -209l-104 66l116 657q6 31 6 55q1 27 -7 46q-14 36 -64 36q-80 0 -193 -79l-98 -68l-121 -682h-174z" />
<glyph unicode="i" horiz-adv-x="587" d="M72 842l336 151l63 -65l-141 -805l170 106l35 -51l-291 -209l-105 66l146 817l-191 -68zM338 1223l8 102l37 84l59 10l115 -10v-98l-35 -88l-55 -11z" />
<glyph unicode="j" horiz-adv-x="559" d="M-225 -481l28 168h240q62 77 78 172l176 993l-191 -68l-22 58l336 151l63 -65l-178 -998q-32 -181 -133 -245l-254 -166h-143zM348 1223l8 102l37 84l60 10l114 -10v-98l-35 -88l-55 -11z" />
<glyph unicode="k" horiz-adv-x="983" d="M92 0l236 1348l-201 -56l-23 62l361 112l49 -47l-147 -844l39 11l370 387h197l-41 -191h-125q-52 -13 -96 -37t-97 -67l-143 -119l55 -20l224 -420l176 110l35 -51l-291 -209l-80 49l-234 506l-90 -524h-174z" />
<glyph unicode="l" horiz-adv-x="550" d="M113 35l231 1308l-199 -55l-24 64l360 112l49 -47l-227 -1294l170 106l35 -51l-291 -209z" />
<glyph unicode="m" horiz-adv-x="1568" d="M72 842l336 151l63 -65l-18 -99l-29 -61l330 225q112 -1 160 -61q39 -49 38 -120q0 -16 -2 -34l310 215q116 0 165 -66q37 -50 37 -117q0 -22 -4 -46l-115 -641l170 106l35 -51l-291 -209l-104 66l117 657q5 27 5 49q0 28 -8 50q-14 38 -53 38q-73 0 -182 -79l-94 -68 l-123 -682h-174l123 692q5 27 5 49q0 28 -8 50q-14 38 -52 38q-68 0 -183 -79l-98 -68l-121 -682h-174l152 852l-191 -68z" />
<glyph unicode="n" horiz-adv-x="1083" d="M72 842l336 151l63 -65l-18 -99l-29 -61l350 225q116 0 166 -66q37 -50 37 -117q0 -22 -4 -46l-115 -641l170 106l35 -51l-291 -209l-104 66l116 657q6 31 6 55q0 27 -8 46q-14 36 -63 36q-80 0 -193 -79l-98 -68l-121 -682h-174l152 852l-191 -68z" />
<glyph unicode="o" horiz-adv-x="976" d="M82 377q0 191 104.5 346t290.5 223l125 47q67 0 126.5 -27t106 -77t74 -128.5t27.5 -174.5q0 -191 -105 -346.5t-290 -223.5l-125 -47q-139 0 -236.5 109t-97.5 299zM276 406q0 -160 61.5 -240.5t158.5 -97.5q66 22 116 77t77 127t39.5 143.5t12.5 141.5q0 159 -62.5 240 t-160.5 98q-66 -22 -115.5 -77t-76 -127t-38.5 -143.5t-12 -141.5z" />
<glyph unicode="p" horiz-adv-x="1024" d="M51 -471l232 1323l-191 -68l-22 58l336 151l63 -65l-16 -105l-37 -92l307 262q116 -22 188 -113.5t72 -256.5q0 -131 -42.5 -249t-129.5 -213t-209 -143l-127 -49q-115 21 -170 49l-12 -120l-68 -369h-174zM338 172q56 -36 124.5 -61t119.5 -25q69 32 117 111.5 t68.5 168.5t20.5 181q0 127 -35 200t-83 87l-246 -177z" />
<glyph unicode="q" horiz-adv-x="954" d="M82 340q0 131 42.5 249t129.5 212.5t209 142.5l127 49q77 -3 174 -27t160 -59l-244 -1378h-174l106 610l37 92l-287 -262q-126 22 -203 113.5t-77 257.5zM276 416q0 -127 41.5 -200.5t98.5 -86.5l229 176l90 516q-48 30 -122 43t-130 13q-69 -32 -117.5 -111.5t-69 -169 t-20.5 -180.5z" />
<glyph unicode="r" horiz-adv-x="786" d="M72 842l336 151l53 -55l-27 -168l-65 -221l274 424h164l-43 -189h-90q-43 -26 -98.5 -77.5t-98.5 -106.5l-80 -102l-90 -498h-174l152 852l-191 -68z" />
<glyph unicode="s" horiz-adv-x="761" d="M10 88l99 145q41 -28 123 -74.5t137 -74.5q54 17 77 49t23 88q0 83 -59 137l-174 160q-38 36 -62 84t-24 96q0 82 63 142.5t201 111.5l110 41q35 -7 109.5 -39.5t118.5 -56.5l-95 -145q-105 68 -237 129q-96 -34 -96 -119q0 -77 69 -141l162 -148q94 -88 94 -192 q0 -91 -48 -151.5t-163 -98.5l-182 -62q-55 22 -136.5 60t-109.5 59z" />
<glyph unicode="t" horiz-adv-x="692" d="M82 840l10 34l76 72h123l26 144l148 131h49l-51 -285h260l-21 -96h-256l-122 -717l266 108l33 -55l-385 -207l-105 58l139 813h-190z" />
<glyph unicode="u" horiz-adv-x="1073" d="M61 842l336 151l62 -63l-115 -668q-4 -25 -4 -45q0 -33 11 -53q18 -32 57 -31q12 0 26 3t31 10.5t28.5 13t32 18t27 16.5t27.5 18l22 15l94 64l115 672h174l-147 -840l170 106l34 -51l-290 -209l-90 58l16 118l29 62l-353 -238q-47 0 -84.5 14.5t-59.5 38t-36.5 54 t-16 62.5t2.5 63l114 651l-190 -68z" />
<glyph unicode="v" horiz-adv-x="913" d="M0 840l336 153l55 -57v-764l-16 -92l407 631l-135 174l176 108l80 -108l-43 -238l-463 -678l-166 41l-24 838l-184 -66z" />
<glyph unicode="w" horiz-adv-x="1386" d="M0 840l336 153l55 -57v-764l-16 -92l313 491l-8 330l184 66v-795l-16 -92l407 631l-135 174l176 108l80 -108l-43 -238l-463 -678l-165 41l-11 334l17 123l-314 -498l-166 41l-24 838l-184 -66z" />
<glyph unicode="x" horiz-adv-x="999" d="M0 -10l43 178h119q48 13 87.5 44.5t98.5 109.5l98 129l-127 411l-180 -67l-22 57l311 141l64 -55l77 -270v-101l254 406h197l-43 -178h-90q-45 -12 -78.5 -41t-95.5 -109l-99 -127l119 -391l176 96l33 -53l-291 -201l-71 49l-86 279v94l-297 -401h-197z" />
<glyph unicode="y" horiz-adv-x="956" d="M-31 -481l33 188h156l280 305l-114 -12l-123 842l-174 -64l-31 51l283 164l110 -51l90 -860l346 629l-135 174l176 108l80 -108l-43 -238l-672 -1128h-262z" />
<glyph unicode="z" horiz-adv-x="837" d="M-20 27l686 784l-140 -53l-305 41l-57 -60l-51 15l108 225l533 -55l63 39l51 -39l-663 -762l127 49l332 -51l67 67l53 -16l-110 -246l-553 80l-84 -57z" />
<glyph unicode="{" horiz-adv-x="643" d="M51 522l4 29q41 13 71 31.5t47.5 37.5t30 49.5t17.5 54.5t12 64l66 390q23 129 119.5 207.5t228.5 78.5h98l-12 -71h-98q-65 0 -121 -51.5t-72 -163.5l-55 -390q-6 -40 -16 -70t-31 -64t-59.5 -63.5t-94.5 -53.5l138 -107l-121 -614q-18 -81 -1 -128.5t46 -67t69 -19.5 h99l-13 -72h-98q-132 0 -200.5 79t-45.5 208l105 583z" />
<glyph unicode="|" horiz-adv-x="835" d="M184 -502l346 1972h121l-346 -1972h-121z" />
<glyph unicode="}" horiz-adv-x="643" d="M-102 -471l12 72h96q65 0 121 51.5t72 163.5l65 446q6 40 16 70.5t31 64.5t59.5 63.5t94.5 53.5l-137 107l110 557q18 81 1 128.5t-46 67t-69 19.5h-99l13 71h98q132 0 200.5 -78.5t45.5 -207.5l-95 -527l113 -123l-4 -28q-51 -16 -84 -38.5t-51.5 -57t-26.5 -63 t-16 -79.5l-76 -446q-23 -129 -119.5 -208t-228.5 -79h-96z" />
<glyph unicode="~" horiz-adv-x="1503" d="M150 399l110 195l211 55l709 -114l110 120h72l-117 -204l-198 -45l-715 114l-111 -121h-71z" />
<glyph unicode="&#xa1;" horiz-adv-x="546" d="M53 -502l113 551l119 422h71l-30 -420l-86 -553h-187zM252 737l10 115l29 100l155 11l60 -11l-10 -116l-29 -99l-156 -10z" />
<glyph unicode="&#xa2;" horiz-adv-x="884" d="M102 367q0 193 109.5 347.5t308.5 233.5l12 4l31 174h109l-25 -133l-2 -2q41 -3 103 -24.5t106 -46.5l-98 -166q-96 68 -230 127q-109 -59 -169 -177.5t-60 -277.5q0 -139 60 -212.5t153 -90.5q49 20 124 60t114 67l38 -49q-99 -80 -264 -181l-73 -45l-21 -139h-106 l18 148q-106 32 -172 131.5t-66 251.5z" />
<glyph unicode="&#xa3;" horiz-adv-x="1140" d="M20 0l5 72l219 92l86 487h-180l6 35l73 72h119l55 323q26 143 94 220t232 126l143 43q142 -50 238 -122l-121 -148q-40 44 -115.5 95.5t-123.5 64.5q-58 -31 -100.5 -102t-55.5 -146l-62 -354h381l-20 -109l-379 2l-72 -401l-88 -154l482 6l114 215h119l-108 -317l-658 6 z" />
<glyph unicode="&#xa4;" d="M213 346l135 115q-59 110 -35 256q27 156 146 278l-101 123l111 94l102 -127q132 82 273 82q133 0 241 -80l144 121l78 -96l-140 -119q73 -124 47 -276q-23 -135 -127 -258l91 -107l-111 -94l-86 104q-142 -96 -297 -96t-260 94l-131 -110zM422 717q-25 -141 58.5 -241.5 t224.5 -100.5t258.5 100.5t142.5 241.5t-57.5 241.5t-223.5 100.5t-259.5 -100.5t-143.5 -241.5z" />
<glyph unicode="&#xa5;" horiz-adv-x="1255" d="M113 1364l20 72l232 -6l270 6v-72l-178 -27l231 -577v-78l416 655l-174 27l20 72l230 -6l157 6v-72l-102 -23l-492 -757l-6 -31h330l-16 -92h-328l-14 -103h323l-16 -92h-322l-26 -170l231 -26l-20 -72l-332 6l-334 -6v72l250 26l26 170h-303l17 92h301l14 103h-297 l17 92h294l7 33l-312 755z" />
<glyph unicode="&#xa6;" horiz-adv-x="833" d="M184 -502l154 881h119l-154 -881h-119zM377 590l153 880h119l-153 -880h-119z" />
<glyph unicode="&#xa7;" horiz-adv-x="1028" d="M31 -283l123 133q36 -44 137 -131t155 -118l25 18q107 82 107 197q0 94 -50 170.5t-178 197.5q-52 49 -76 72.5t-58.5 59.5t-49 59t-30.5 55t-21.5 63.5t-5.5 69.5q0 107 65 188t172 130q-49 89 -49 178q0 142 70.5 233t238.5 140l133 38q56 -27 128.5 -85t109.5 -99 l-146 -112q-29 46 -104 108.5t-129 85.5l-31 -22q-46 -36 -73 -91.5t-27 -117.5q0 -85 43.5 -165t159.5 -177l266 -226v-57q0 -86 -17.5 -149t-59 -109.5t-69.5 -68t-88 -58.5q-15 -9 -22 -14q29 -36 48.5 -99t19.5 -110q0 -133 -59 -223.5t-181 -124.5l-203 -58 q-72 35 -153 102.5t-121 116.5zM274 633q0 -72 50.5 -141t171.5 -185q13 -12 48.5 -45t55.5 -54t39 -44q62 51 96.5 108.5t34.5 147.5v51l-221 184q-98 81 -172 183q-103 -86 -103 -205z" />
<glyph unicode="&#xa8;" horiz-adv-x="1024" d="M244 1188l8 96l37 78l49 10l104 -10v-92l-34 -82l-46 -10zM580 1188l8 96l37 78l49 10l104 -10v-92l-35 -82l-45 -10z" />
<glyph unicode="&#xa9;" horiz-adv-x="1703" d="M143 729q0 158 53.5 286.5t152.5 218.5t235 147.5t307 82.5q151 -2 286.5 -54t239 -146.5t164.5 -239t61 -319.5q0 -158 -53 -286.5t-152.5 -218.5t-235 -148t-306.5 -83q-151 2 -286.5 54t-239.5 147t-165 239.5t-61 319.5zM268 729q0 -134 40.5 -248.5t106 -191.5 t148.5 -132.5t166.5 -80.5t161.5 -25q124 0 237 45t200 127t138.5 207t51.5 275q0 134 -40.5 248.5t-106 191.5t-148.5 132t-166.5 80t-161.5 25q-124 0 -237 -45t-200 -126.5t-138.5 -206.5t-51.5 -275zM487 705q0 195 118.5 303t326.5 137q85 0 163.5 -28.5t125.5 -61.5 v-162h-74l-37 104q-27 33 -76.5 56.5t-113.5 23.5q-128 0 -204.5 -88.5t-76.5 -253.5q0 -96 35 -180.5t106.5 -139.5t165.5 -55q83 0 154 62l63 131h72l-29 -174q-192 -76 -293 -90q-113 0 -208.5 47t-156.5 143.5t-61 225.5z" />
<glyph unicode="&#xaa;" horiz-adv-x="886" d="M102 944q0 158 88 274.5t250 188.5l99 49q108 -6 301 -70l-135 -616l131 74l30 -49l-235 -168l-107 53l19 96l30 76l-247 -225q-224 49 -224 317zM268 977q0 -68 32 -126.5t67 -78.5l202 152l80 385q-31 22 -88.5 36.5t-103.5 14.5q-77 -55 -133 -154.5t-56 -228.5z" />
<glyph unicode="&#xab;" horiz-adv-x="1007" d="M72 481l450 451h99l-340 -453l182 -448h-101zM449 481l450 451h98l-340 -453l183 -448h-101z" />
<glyph unicode="&#xac;" d="M106 635v133h1055v-399h-133v266h-922z" />
<glyph unicode="&#xad;" horiz-adv-x="698" d="M41 506l22 123h584l-22 -123h-584z" />
<glyph unicode="&#xae;" horiz-adv-x="1212" d="M154 899q0 215 136.5 342t375.5 162q140 -1 256 -61t188 -180t72 -279q0 -215 -136.5 -342t-375.5 -162q-104 1 -197 36.5t-164.5 100.5t-113 164t-41.5 219zM240 899q0 -91 28 -169.5t72.5 -131.5t101 -91t114 -55.5t110.5 -17.5q178 0 304 122.5t126 326.5 q0 92 -28 170.5t-72.5 131.5t-101.5 90.5t-114 55t-110 17.5q-178 0 -304 -122.5t-126 -326.5zM391 657l68 11v454l-68 8l4 41l127 -2l193 2q81 0 133.5 -36.5t52.5 -100.5q0 -58 -52 -94.5t-136 -52.5l92 -39l129 -178l41 -13l-2 -41l-96 2l-70 -2l-166 244l-12 8h-39v-200 l65 -11l-4 -41l-127 2l-129 -2zM590 918h55q51 0 84 29.5t33 80.5q0 49 -30 75.5t-77 26.5l-65 -6v-206z" />
<glyph unicode="&#xaf;" horiz-adv-x="1024" d="M215 1229l18 112h574l-19 -112h-573z" />
<glyph unicode="&#xb0;" horiz-adv-x="833" d="M236 1229q0 123 77.5 193.5t237.5 119.5q129 0 221 -92t92 -221t-74 -204t-239 -112q-129 0 -222 93.5t-93 222.5zM350 1229q0 -82 59.5 -141.5t141.5 -59.5t140.5 59.5t58.5 141.5t-58.5 140t-140.5 58t-141.5 -58.5t-59.5 -139.5z" />
<glyph unicode="&#xb1;" d="M96 0v133h1075v-133h-1075zM96 739v133h461v471h133v-471h461v-133h-461v-450h-133v450h-461z" />
<glyph unicode="&#xb2;" horiz-adv-x="706" d="M113 874l258 220q117 92 181 176t64 170q0 53 -24.5 85.5t-67.5 33.5l-69 -23l-58 -129h-112l18 137l277 84q108 0 163.5 -47t55.5 -129q0 -202 -324 -387l-235 -152l206 43h293v-51l-53 -86h-549z" />
<glyph unicode="&#xb3;" horiz-adv-x="620" d="M102 817l25 133h276q91 63 91 146q0 48 -42 76t-128 28l-13 39l58 23q78 30 123 83t45 119q0 40 -21.5 64t-56.5 26l-72 -18l-55 -125h-127l18 137l287 80q105 0 154 -39.5t49 -105.5q0 -78 -65.5 -129t-166.5 -78q99 -7 150 -50.5t51 -101.5q0 -24 -6 -46.5t-14 -40 t-25 -35t-29.5 -29t-38 -25.5t-39 -21t-44.5 -19t-43 -16.5t-45 -15.5l-42 -14l-120 -45h-134z" />
<glyph unicode="&#xb4;" horiz-adv-x="1024" d="M324 1110l159 354h215l-297 -354h-77z" />
<glyph unicode="&#xb5;" d="M133 -471l248 1434h174l-119 -701q-11 -66 7 -97.5t57 -31.5q12 0 26 3t31 10.5t28.5 13t32 18t27 16.5t27.5 18l22 15l94 64l115 672h174l-147 -840l170 106l35 -51l-291 -209l-90 58l16 118l29 62l-353 -238q-61 0 -110 27l-8 -57l30 -410h-225z" />
<glyph unicode="&#xb6;" horiz-adv-x="1026" d="M82 1104q0 48 21.5 92t67 86t91 74.5t117.5 77.5h565v-103l-104 -20v-1637h-119v1637h-225v-1637h-119v1166q-126 0 -210.5 72t-84.5 192z" />
<glyph unicode="&#xb7;" horiz-adv-x="888" d="M369 717l10 117l29 98l155 10l60 -10l-11 -115l-28 -100l-156 -10z" />
<glyph unicode="&#xb8;" horiz-adv-x="1024" d="M291 -492l59 82h172q34 20 53 54t19 69q0 63 -52.5 93t-121.5 30l178 197l51 -33l-84 -96q65 0 115.5 -36.5t50.5 -100.5q0 -45 -20.5 -83.5t-55 -65.5t-68.5 -44.5t-73 -30.5l-104 -35h-119z" />
<glyph unicode="&#xb9;" horiz-adv-x="630" d="M143 817l4 60l185 18l112 567l19 31l-64 -31l-129 -20l-14 53l299 119h88l-139 -719l178 -18l-16 -60l-256 4z" />
<glyph unicode="&#xba;" horiz-adv-x="878" d="M123 956q0 153 91.5 278.5t250.5 180.5l102 39q122 0 206.5 -88.5t84.5 -241.5t-91 -278.5t-251 -181.5l-100 -37q-122 0 -207.5 87.5t-85.5 241.5zM309 979q0 -125 48.5 -188.5t123.5 -77.5q50 17 88.5 61t59.5 101.5t31 115t10 111.5q0 124 -48.5 188t-123.5 78 q-50 -17 -88.5 -61t-59.5 -101.5t-31 -115t-10 -111.5z" />
<glyph unicode="&#xbb;" horiz-adv-x="1060" d="M72 31l338 448l-181 453h99l295 -451l-451 -450h-100zM449 31l337 448l-180 453h99l294 -451l-450 -450h-100z" />
<glyph unicode="&#xbc;" horiz-adv-x="1675" d="M102 643l4 59l185 19l112 567l19 31l-64 -31l-129 -20l-14 53l299 119h88l-139 -719l178 -19l-16 -59l-256 4zM242 -102l1067 1556h125l-1063 -1556h-129zM897 324l469 479h166l-12 -68l-523 -401l78 28h189l20 89l135 98h35l-39 -187h158l-21 -118h-157l-47 -244h-150 l45 244h-309z" />
<glyph unicode="&#xbd;" horiz-adv-x="1677" d="M102 643l4 59l185 19l112 567l19 31l-64 -31l-129 -20l-14 53l299 119h88l-139 -719l178 -19l-16 -59l-256 4zM242 -102l1067 1556h125l-1063 -1556h-129zM889 55l258 219q118 93 182 177t64 170q0 53 -25 85t-68 33l-69 -22l-57 -129h-113l18 137l277 84 q108 0 163.5 -47t55.5 -129q0 -202 -324 -387l-235 -152l207 43h293v-51l-54 -86h-549z" />
<glyph unicode="&#xbe;" horiz-adv-x="1619" d="M102 643l25 133h276q91 63 91 146q0 48 -42 76t-128 28l-13 39l58 22q78 30 123 83.5t45 119.5q0 40 -21.5 64t-56.5 26l-72 -18l-55 -125h-127l18 137l287 80q105 0 154 -39.5t49 -105.5q0 -78 -65.5 -129t-166.5 -78q99 -7 150 -50.5t51 -101.5q0 -24 -6 -46.5t-14 -40 t-25 -35t-29.5 -29t-38 -25.5t-39 -21t-44.5 -19t-43 -16.5t-45 -15.5l-42 -14l-120 -45h-134zM186 -102l1067 1556h125l-1063 -1556h-129zM842 324l469 479h166l-13 -68l-522 -401l78 28h188l21 89l135 98h35l-39 -187h158l-21 -118h-158l-47 -244h-149l45 244h-309z" />
<glyph unicode="&#xbf;" horiz-adv-x="768" d="M-10 -186q0 136 71 228.5t209 156.5l140 63l77 240h107l-41 -236l-186 -108q-87 -51 -129.5 -128.5t-42.5 -160.5q0 -43 7 -83t22.5 -79.5t45.5 -67.5t72 -38l100 32l35 146h137v-148l-335 -133q-117 0 -203 90.5t-86 225.5zM473 737l10 115l29 100l156 11l59 -11 l-10 -116l-29 -99l-156 -10z" />
<glyph unicode="&#xc0;" horiz-adv-x="1361" d="M-41 -2v72l164 22l751 1338l138 40l145 -1378l154 -22l-19 -72l-266 6l-262 -6v72l178 26l-39 383h-450l-205 -383l174 -26l-21 -72l-221 6zM504 575h389l-49 492v147zM725 1843h225l49 -272h-88z" />
<glyph unicode="&#xc1;" horiz-adv-x="1361" d="M-41 -2v72l164 22l751 1338l138 40l145 -1378l154 -22l-19 -72l-266 6l-262 -6v72l178 26l-39 383h-450l-205 -383l174 -26l-21 -72l-221 6zM504 575h389l-49 492v147zM915 1571l127 272h246l-284 -272h-89z" />
<glyph unicode="&#xc2;" horiz-adv-x="1361" d="M-41 -2v72l164 22l751 1338l138 40l145 -1378l154 -22l-19 -72l-266 6l-262 -6v72l178 26l-39 383h-450l-205 -383l174 -26l-21 -72l-221 6zM504 575h389l-49 492v147zM702 1571l226 272h170l131 -272h-99l-141 158l-188 -158h-99z" />
<glyph unicode="&#xc3;" horiz-adv-x="1361" d="M-41 -2v72l164 22l751 1338l138 40l145 -1378l154 -22l-19 -72l-266 6l-262 -6v72l178 26l-39 383h-450l-205 -383l174 -26l-21 -72l-221 6zM504 575h389l-49 492v147zM686 1587l84 195l141 45l281 -123l100 119h41l-88 -205l-137 -35l-283 123l-98 -119h-41z" />
<glyph unicode="&#xc4;" horiz-adv-x="1361" d="M-41 -2v72l164 22l751 1338l138 40l145 -1378l154 -22l-19 -72l-266 6l-262 -6v72l178 26l-39 383h-450l-205 -383l174 -26l-21 -72l-221 6zM504 575h389l-49 492v147zM686 1593l8 107l37 78l49 10l115 -10v-92l-35 -93l-55 -10zM1104 1593l8 107l37 78l49 10l115 -10 v-92l-35 -93l-55 -10z" />
<glyph unicode="&#xc5;" horiz-adv-x="1361" d="M-41 -2v72l164 22l751 1338l138 40l145 -1378l154 -22l-19 -72l-266 6l-262 -6v72l178 26l-39 383h-450l-205 -383l174 -26l-21 -72l-221 6zM504 575h389l-49 492v147zM754 1710q0 37 12.5 66.5t30 48t48 35t55.5 25.5t63 20q211 0 211 -195q0 -33 -8.5 -58.5 t-18.5 -40.5t-34 -29.5t-39.5 -20.5t-51.5 -18t-53 -19q-42 0 -78 9.5t-68 29.5t-50.5 58t-18.5 89zM850 1710q0 -46 33.5 -76t81.5 -30t81 30t33 76q0 47 -33.5 81t-80.5 34t-81 -34t-34 -81z" />
<glyph unicode="&#xc6;" horiz-adv-x="1798" d="M-51 -2l4 72l162 22l839 1344l166 -6l709 6v-351h-70l-88 246l-469 6l-94 -598l235 9l132 245h51l-78 -297l-18 -307h-52l-51 246l-235 8l-88 -549l493 6l164 299h78l-94 -401l-752 4l-270 -4v72l186 26l86 547h-313l-332 -547l174 -26l-25 -72l-231 6zM633 739h278 l99 602z" />
<glyph unicode="&#xc7;" horiz-adv-x="1261" d="M104 594q0 99 17 192t59 190t105.5 178t164 150.5t228.5 112.5l172 58q138 0 251.5 -47t182.5 -109l-10 -295h-109l-43 199q-98 98 -370 141q-207 -90 -314.5 -278.5t-107.5 -450.5q0 -134 34.5 -241t95 -175t138.5 -106t168 -43q76 29 125.5 57.5t99.5 71.5l121 243h113 l-80 -344l-467 -135l-51 -59q65 0 115.5 -36.5t50.5 -100.5q0 -45 -20.5 -83.5t-55.5 -65.5t-69 -44.5t-73 -30.5l-104 -35h-119l60 82h172q34 19 52.5 53t18.5 70q0 63 -52.5 93t-121.5 30l119 131q-231 25 -363.5 191.5t-132.5 435.5z" />
<glyph unicode="&#xc8;" horiz-adv-x="1208" d="M-20 -2v72l186 26l199 1243l-181 27l21 70l282 -6l752 6v-351h-70l-90 248l-510 6l-86 -544l287 8l125 215h61l-71 -268l-19 -265h-61l-49 215l-287 9l-98 -615l555 6l157 277h78l-88 -379l-813 6zM571 1843h226l49 -272h-88z" />
<glyph unicode="&#xc9;" horiz-adv-x="1208" d="M-20 -2v72l186 26l199 1243l-181 27l21 70l282 -6l752 6v-351h-70l-90 248l-510 6l-86 -544l287 8l125 215h61l-71 -268l-19 -265h-61l-49 215l-287 9l-98 -615l555 6l157 277h78l-88 -379l-813 6zM721 1571l127 272h246l-285 -272h-88z" />
<glyph unicode="&#xca;" horiz-adv-x="1208" d="M-20 -2v72l186 26l199 1243l-181 27l21 70l282 -6l752 6v-351h-70l-90 248l-510 6l-86 -544l287 8l125 215h61l-71 -268l-19 -265h-61l-49 215l-287 9l-98 -615l555 6l157 277h78l-88 -379l-813 6zM504 1571l225 272h170l131 -272h-98l-141 158l-189 -158h-98z" />
<glyph unicode="&#xcb;" horiz-adv-x="1208" d="M-20 -2v72l186 26l199 1243l-181 27l21 70l282 -6l752 6v-351h-70l-90 248l-510 6l-86 -544l287 8l125 215h61l-71 -268l-19 -265h-61l-49 215l-287 9l-98 -615l555 6l157 277h78l-88 -379l-813 6zM492 1593l8 107l37 78l49 10l114 -10v-92l-34 -93l-56 -10zM909 1593 l9 107l36 78l50 10l114 -10v-92l-35 -93l-55 -10z" />
<glyph unicode="&#xcc;" horiz-adv-x="643" d="M-20 -2v72l184 26l198 1241l-180 27l21 72l272 -6l270 6v-72l-178 -27l-198 -1241l170 -26l-21 -72l-270 6zM264 1843h225l50 -272h-88z" />
<glyph unicode="&#xcd;" horiz-adv-x="643" d="M-20 -2v72l184 26l198 1241l-180 27l21 72l272 -6l270 6v-72l-178 -27l-198 -1241l170 -26l-21 -72l-270 6zM442 1571l127 272h246l-285 -272h-88z" />
<glyph unicode="&#xce;" horiz-adv-x="643" d="M-20 -2v72l184 26l198 1241l-180 27l21 72l272 -6l270 6v-72l-178 -27l-198 -1241l170 -26l-21 -72l-270 6zM231 1571l226 272h170l131 -272h-99l-141 158l-188 -158h-99z" />
<glyph unicode="&#xcf;" horiz-adv-x="643" d="M-20 -2v72l184 26l198 1241l-180 27l21 72l272 -6l270 6v-72l-178 -27l-198 -1241l170 -26l-21 -72l-270 6zM225 1604l8 96l37 78l49 10l105 -10v-92l-35 -82l-45 -11zM602 1604l8 96l37 78l49 10l105 -10v-92l-35 -82l-45 -11z" />
<glyph unicode="&#xd0;" horiz-adv-x="1374" d="M-20 70l184 26l94 596h-180l18 103h178l88 553l-184 18l21 70l270 -6l348 6q253 4 400 -161.5t147 -445.5q0 -116 -33 -228t-100.5 -218t-183 -193t-267.5 -137l-166 -55l-362 6l-270 -6zM373 119h360q82 44 153.5 109t129 150t90.5 194t33 227q0 132 -32 236 t-88.5 169.5t-129.5 102t-158 41.5h-164l-88 -553h252l-18 -103h-250z" />
<glyph unicode="&#xd1;" horiz-adv-x="1445" d="M-20 -2v72l184 26l194 1227l-170 41l21 72l190 -6l142 6l514 -1004l35 -156l157 1061l-170 27l21 72l219 -6l242 6v-72l-189 -27l-211 -1337h-115l-552 1098l-21 168l-184 -1170l170 -26l-21 -72l-219 6zM584 1587l84 195l141 45l281 -123l100 119h41l-88 -205l-137 -35 l-283 123l-98 -119h-41z" />
<glyph unicode="&#xd2;" horiz-adv-x="1423" d="M102 573q0 101 20 200.5t65 200t112 184.5t168 153t225 108l164 51q255 0 401 -163.5t146 -446.5q0 -101 -20 -200.5t-65 -200t-112 -184.5t-168 -153t-225 -108l-164 -51q-255 0 -401 163.5t-146 446.5zM328 604q0 -129 31.5 -229t88.5 -162.5t128.5 -97.5t158.5 -45 q202 78 322.5 285.5t120.5 473.5q0 129 -32 229.5t-89 163t-128.5 97.5t-158.5 45q-202 -78 -322 -285.5t-120 -474.5zM637 1843h225l49 -272h-88z" />
<glyph unicode="&#xd3;" horiz-adv-x="1423" d="M102 573q0 101 20 200.5t65 200t112 184.5t168 153t225 108l164 51q255 0 401 -163.5t146 -446.5q0 -101 -20 -200.5t-65 -200t-112 -184.5t-168 -153t-225 -108l-164 -51q-255 0 -401 163.5t-146 446.5zM328 604q0 -129 31.5 -229t88.5 -162.5t128.5 -97.5t158.5 -45 q202 78 322.5 285.5t120.5 473.5q0 129 -32 229.5t-89 163t-128.5 97.5t-158.5 45q-202 -78 -322 -285.5t-120 -474.5zM844 1571l127 272h246l-285 -272h-88z" />
<glyph unicode="&#xd4;" horiz-adv-x="1423" d="M102 573q0 101 20 200.5t65 200t112 184.5t168 153t225 108l164 51q255 0 401 -163.5t146 -446.5q0 -101 -20 -200.5t-65 -200t-112 -184.5t-168 -153t-225 -108l-164 -51q-255 0 -401 163.5t-146 446.5zM328 604q0 -129 31.5 -229t88.5 -162.5t128.5 -97.5t158.5 -45 q202 78 322.5 285.5t120.5 473.5q0 129 -32 229.5t-89 163t-128.5 97.5t-158.5 45q-202 -78 -322 -285.5t-120 -474.5zM631 1571l225 272h170l131 -272h-98l-141 158l-189 -158h-98z" />
<glyph unicode="&#xd5;" horiz-adv-x="1423" d="M102 573q0 101 20 200.5t65 200t112 184.5t168 153t225 108l164 51q255 0 401 -163.5t146 -446.5q0 -101 -20 -200.5t-65 -200t-112 -184.5t-168 -153t-225 -108l-164 -51q-255 0 -401 163.5t-146 446.5zM328 604q0 -129 31.5 -229t88.5 -162.5t128.5 -97.5t158.5 -45 q202 78 322.5 285.5t120.5 473.5q0 129 -32 229.5t-89 163t-128.5 97.5t-158.5 45q-202 -78 -322 -285.5t-120 -474.5zM614 1587l84 195l142 45l280 -123l101 119h41l-88 -205l-138 -35l-282 123l-99 -119h-41z" />
<glyph unicode="&#xd6;" horiz-adv-x="1423" d="M102 573q0 101 20 200.5t65 200t112 184.5t168 153t225 108l164 51q255 0 401 -163.5t146 -446.5q0 -101 -20 -200.5t-65 -200t-112 -184.5t-168 -153t-225 -108l-164 -51q-255 0 -401 163.5t-146 446.5zM328 604q0 -129 31.5 -229t88.5 -162.5t128.5 -97.5t158.5 -45 q202 78 322.5 285.5t120.5 473.5q0 129 -32 229.5t-89 163t-128.5 97.5t-158.5 45q-202 -78 -322 -285.5t-120 -474.5zM614 1593l9 107l36 78l50 10l114 -10v-92l-35 -93l-55 -10zM1032 1593l8 107l37 78l49 10l115 -10v-92l-35 -93l-55 -10z" />
<glyph unicode="&#xd7;" d="M199 127l342 340l-342 342l94 94l340 -342l342 342l94 -94l-342 -342l342 -340l-94 -94l-342 342l-340 -342z" />
<glyph unicode="&#xd8;" horiz-adv-x="1423" d="M27 -31l182 209q-107 153 -107 395q0 101 20 200.5t65 200t112 184.5t168 153t225 108l164 51q226 0 367 -129l106 123h105l-158 -182q127 -161 127 -422q0 -101 -20 -200.5t-65 -200t-112 -184.5t-168 -153t-225 -108l-164 -51q-242 0 -389 150l-125 -144h-108zM328 604 q0 -137 37 -246l720 826q-107 157 -315 180q-202 -78 -322 -285.5t-120 -474.5zM401 276q105 -183 334 -206q202 78 322.5 285.5t120.5 473.5q0 161 -52 281z" />
<glyph unicode="&#xd9;" horiz-adv-x="1363" d="M154 1364l20 72l272 -6l281 6v-72l-180 -27l-146 -882q-8 -59 -4 -115t28 -105t60.5 -85.5t94.5 -58t129 -21.5q90 33 146 75.5t97.5 124t61.5 209.5l137 858l-178 27l20 72l234 -6l260 6v-72l-182 -27l-138 -858q-15 -95 -40 -163.5t-73 -132t-128 -109t-195 -74.5 l-145 -37q-242 0 -334.5 139t-52.5 392l133 843zM635 1843h225l49 -272h-88z" />
<glyph unicode="&#xda;" horiz-adv-x="1363" d="M154 1364l20 72l272 -6l281 6v-72l-180 -27l-146 -882q-8 -59 -4 -115t28 -105t60.5 -85.5t94.5 -58t129 -21.5q90 33 146 75.5t97.5 124t61.5 209.5l137 858l-178 27l20 72l234 -6l260 6v-72l-182 -27l-138 -858q-15 -95 -40 -163.5t-73 -132t-128 -109t-195 -74.5 l-145 -37q-242 0 -334.5 139t-52.5 392l133 843zM784 1571l127 272h246l-285 -272h-88z" />
<glyph unicode="&#xdb;" horiz-adv-x="1363" d="M154 1364l20 72l272 -6l281 6v-72l-180 -27l-146 -882q-8 -59 -4 -115t28 -105t60.5 -85.5t94.5 -58t129 -21.5q90 33 146 75.5t97.5 124t61.5 209.5l137 858l-178 27l20 72l234 -6l260 6v-72l-182 -27l-138 -858q-15 -95 -40 -163.5t-73 -132t-128 -109t-195 -74.5 l-145 -37q-242 0 -334.5 139t-52.5 392l133 843zM612 1571l226 272h170l131 -272h-99l-141 158l-188 -158h-99z" />
<glyph unicode="&#xdc;" horiz-adv-x="1363" d="M154 1364l20 72l272 -6l281 6v-72l-180 -27l-146 -882q-8 -59 -4 -115t28 -105t60.5 -85.5t94.5 -58t129 -21.5q90 33 146 75.5t97.5 124t61.5 209.5l137 858l-178 27l20 72l234 -6l260 6v-72l-182 -27l-138 -858q-15 -95 -40 -163.5t-73 -132t-128 -109t-195 -74.5 l-145 -37q-242 0 -334.5 139t-52.5 392l133 843zM592 1593l8 107l37 78l49 10l115 -10v-92l-35 -93l-55 -10zM1010 1593l8 107l37 78l49 10l115 -10v-92l-35 -93l-56 -10z" />
<glyph unicode="&#xdd;" horiz-adv-x="1255" d="M154 1364l20 72l232 -6l270 6v-72l-178 -27l231 -577v-78l416 655l-174 27l20 72l230 -6l157 6v-72l-102 -23l-492 -757l-75 -488l231 -26l-20 -72l-332 6l-334 -6v72l250 26l76 490l-312 755zM754 1571l127 272h245l-284 -272h-88z" />
<glyph unicode="&#xde;" horiz-adv-x="1132" d="M-20 -2v72l184 26l198 1241l-180 27l21 72l272 -6l270 6v-72l-178 -27l-32 -200l227 6q191 4 301.5 -83.5t110.5 -234.5q0 -160 -108 -269.5t-351 -195.5l-111 -38h-201l-34 -226l231 -26l-20 -72l-332 6zM424 442h307q94 46 155.5 139t61.5 205q0 122 -62.5 191.5 t-189.5 75.5h-176z" />
<glyph unicode="&#xdf;" horiz-adv-x="1083" d="M-215 -481l35 168h186q32 35 55 83t29 87l172 983h-199l11 37l76 67h131l16 100q28 176 133 246l260 174q54 -1 96.5 -6.5t89 -21t76.5 -40.5t50 -68.5t20 -102.5q0 -49 -16.5 -92.5t-50 -81t-59.5 -60.5t-69 -55l-127 -96q-14 -18 -14 -58q0 -51 28 -93t95 -101 q2 -2 30 -26t33 -29t29 -27t30.5 -31.5t24 -30.5t23.5 -35.5t15.5 -36t12.5 -42t3 -43.5q0 -97 -50.5 -159.5t-171.5 -102.5l-182 -62q-46 21 -114 59.5t-91 59.5l99 139q39 -31 105 -76.5t110 -70.5q114 29 114 149q0 17 -3 34t-6 30t-12 29.5t-13 25.5t-18 25.5t-18 22 t-22 23t-21.5 20.5t-24.5 21.5t-23 20.5q-43 38 -68.5 65.5t-47.5 73.5t-22 97q0 68 33 114l107 95q37 33 58.5 55.5t47.5 57.5t38.5 73.5t12.5 83.5q0 88 -43 125t-104 37l-35 -21q-69 -41 -109.5 -88.5t-54.5 -126.5l-207 -1188q-32 -181 -133 -245l-254 -164h-102z" />
<glyph unicode="&#xe0;" horiz-adv-x="989" d="M82 354q0 390 375 578l123 61q55 -3 149.5 -28t181.5 -58l-137 -784l170 106l35 -51l-291 -209l-104 66l20 121l35 88l-291 -275q-266 61 -266 385zM276 395q0 -100 40.5 -171t95.5 -99l221 186l88 498q-38 27 -112.5 46t-129.5 19q-86 -69 -144.5 -193t-58.5 -286z M506 1464h205l24 -354h-69z" />
<glyph unicode="&#xe1;" horiz-adv-x="989" d="M82 354q0 390 375 578l123 61q55 -3 149.5 -28t181.5 -58l-137 -784l170 106l35 -51l-291 -209l-104 66l20 121l35 88l-291 -275q-266 61 -266 385zM276 395q0 -100 40.5 -171t95.5 -99l221 186l88 498q-38 27 -112.5 46t-129.5 19q-86 -69 -144.5 -193t-58.5 -286z M621 1110l159 354h215l-297 -354h-77z" />
<glyph unicode="&#xe2;" horiz-adv-x="989" d="M82 354q0 390 375 578l123 61q55 -3 149.5 -28t181.5 -58l-137 -784l170 106l35 -51l-291 -209l-104 66l20 121l35 88l-291 -275q-266 61 -266 385zM276 395q0 -100 40.5 -171t95.5 -99l221 186l88 498q-38 27 -112.5 46t-129.5 19q-86 -69 -144.5 -193t-58.5 -286z M440 1110l242 354h139l115 -354h-78l-137 205l-203 -205h-78z" />
<glyph unicode="&#xe3;" horiz-adv-x="989" d="M82 354q0 390 375 578l123 61q55 -3 149.5 -28t181.5 -58l-137 -784l170 106l35 -51l-291 -209l-104 66l20 121l35 88l-291 -275q-266 61 -266 385zM276 395q0 -100 40.5 -171t95.5 -99l221 186l88 498q-38 27 -112.5 46t-129.5 19q-86 -69 -144.5 -193t-58.5 -286z M383 1198l84 195l141 45l281 -123l100 119h41l-88 -205l-137 -35l-283 123l-98 -119h-41z" />
<glyph unicode="&#xe4;" horiz-adv-x="989" d="M82 354q0 390 375 578l123 61q55 -3 149.5 -28t181.5 -58l-137 -784l170 106l35 -51l-291 -209l-104 66l20 121l35 88l-291 -275q-266 61 -266 385zM276 395q0 -100 40.5 -171t95.5 -99l221 186l88 498q-38 27 -112.5 46t-129.5 19q-86 -69 -144.5 -193t-58.5 -286z M438 1188l8 96l37 78l49 10l105 -10v-92l-35 -82l-45 -10zM774 1188l8 96l37 78l49 10l105 -10v-92l-35 -82l-45 -10z" />
<glyph unicode="&#xe5;" horiz-adv-x="989" d="M82 354q0 390 375 578l123 61q55 -3 149.5 -28t181.5 -58l-137 -784l170 106l35 -51l-291 -209l-104 66l20 121l35 88l-291 -275q-266 61 -266 385zM276 395q0 -100 40.5 -171t95.5 -99l221 186l88 498q-38 27 -112.5 46t-129.5 19q-86 -69 -144.5 -193t-58.5 -286z M526 1290q0 37 12.5 66.5t30 48t48 35t55.5 25.5t63 20q211 0 211 -195q0 -33 -8.5 -58.5t-18.5 -40.5t-34 -29.5t-39.5 -20.5t-51.5 -18t-53 -19q-42 0 -78 9.5t-68 29.5t-50.5 58t-18.5 89zM623 1290q0 -46 33 -76t81 -30t81.5 30t33.5 76q0 47 -34 81t-81 34t-80.5 -34 t-33.5 -81z" />
<glyph unicode="&#xe6;" horiz-adv-x="1345" d="M72 354q0 391 374 578l123 61q105 -6 318 -78l192 78q107 -19 166.5 -68.5t59.5 -146.5q0 -69 -37 -176l-516 -164q-2 -18 -2 -53q0 -126 64.5 -194t146.5 -70q128 55 241 131l37 -51q-43 -36 -120.5 -90.5t-145.5 -94.5l-80 -47q-111 0 -192.5 58t-118.5 161l-234 -219 q-276 61 -276 385zM266 395q0 -100 43.5 -171t102.5 -99l151 127q-24 144 23 294.5t151 256.5q-61 33 -137.5 52t-130.5 19q-86 -69 -144.5 -193t-58.5 -286zM760 510l334 137q20 64 20 111q0 119 -110 137q-103 -43 -162 -146t-82 -239z" />
<glyph unicode="&#xe7;" horiz-adv-x="843" d="M82 367q0 193 109.5 347.5t308.5 233.5l112 45q39 0 108 -23t114 -50l-99 -166q-98 69 -229 127q-109 -59 -169.5 -177.5t-60.5 -277.5q0 -139 60 -212.5t153 -90.5q49 20 124 60t114 67l39 -49q-99 -80 -264 -181l-82 -51l-58 -65q65 0 115.5 -36.5t50.5 -100.5 q0 -45 -20.5 -83.5t-55 -65.5t-68.5 -44.5t-73 -30.5l-104 -35h-119l59 82h172q34 20 53 54t19 69q0 63 -52.5 93t-121.5 30l129 141q-117 26 -190.5 128t-73.5 262z" />
<glyph unicode="&#xe8;" horiz-adv-x="872" d="M82 346q0 199 109 365.5t301 238.5l114 43q107 -19 166 -68.5t59 -146.5q0 -72 -36 -176l-516 -164q-3 -27 -3 -53q0 -126 64.5 -194t146.5 -70q131 56 242 131l37 -51q-43 -36 -120.5 -90.5t-145.5 -94.5l-80 -47q-151 0 -244.5 105t-93.5 272zM287 510l334 137 q20 64 20 111q0 119 -111 137q-192 -80 -243 -385zM418 1464h205l24 -354h-69z" />
<glyph unicode="&#xe9;" horiz-adv-x="872" d="M82 346q0 199 109 365.5t301 238.5l114 43q107 -19 166 -68.5t59 -146.5q0 -72 -36 -176l-516 -164q-3 -27 -3 -53q0 -126 64.5 -194t146.5 -70q131 56 242 131l37 -51q-43 -36 -120.5 -90.5t-145.5 -94.5l-80 -47q-151 0 -244.5 105t-93.5 272zM287 510l334 137 q20 64 20 111q0 119 -111 137q-192 -80 -243 -385zM541 1110l159 354h215l-297 -354h-77z" />
<glyph unicode="&#xea;" horiz-adv-x="872" d="M82 346q0 199 109 365.5t301 238.5l114 43q107 -19 166 -68.5t59 -146.5q0 -72 -36 -176l-516 -164q-3 -27 -3 -53q0 -126 64.5 -194t146.5 -70q131 56 242 131l37 -51q-43 -36 -120.5 -90.5t-145.5 -94.5l-80 -47q-151 0 -244.5 105t-93.5 272zM287 510l334 137 q20 64 20 111q0 119 -111 137q-192 -80 -243 -385zM356 1110l242 354h139l115 -354h-78l-137 205l-203 -205h-78z" />
<glyph unicode="&#xeb;" horiz-adv-x="872" d="M82 346q0 199 109 365.5t301 238.5l114 43q107 -19 166 -68.5t59 -146.5q0 -72 -36 -176l-516 -164q-3 -27 -3 -53q0 -126 64.5 -194t146.5 -70q131 56 242 131l37 -51q-43 -36 -120.5 -90.5t-145.5 -94.5l-80 -47q-151 0 -244.5 105t-93.5 272zM287 510l334 137 q20 64 20 111q0 119 -111 137q-192 -80 -243 -385zM360 1188l9 96l37 78l49 10l104 -10v-92l-35 -82l-45 -10zM696 1188l9 96l36 78l50 10l104 -10v-92l-35 -82l-45 -10z" />
<glyph unicode="&#xec;" horiz-adv-x="587" d="M72 842l336 151l63 -65l-141 -805l170 106l35 -51l-291 -209l-105 66l146 817l-191 -68zM258 1464h205l24 -354h-69z" />
<glyph unicode="&#xed;" horiz-adv-x="587" d="M72 842l336 151l63 -65l-141 -805l170 106l35 -51l-291 -209l-105 66l146 817l-191 -68zM369 1110l159 354h215l-297 -354h-77z" />
<glyph unicode="&#xee;" horiz-adv-x="587" d="M72 842l336 151l63 -65l-141 -805l170 106l35 -51l-291 -209l-105 66l146 817l-191 -68zM166 1110l242 354h139l115 -354h-78l-138 205l-202 -205h-78z" />
<glyph unicode="&#xef;" horiz-adv-x="587" d="M72 842l336 151l63 -65l-141 -805l170 106l35 -51l-291 -209l-105 66l146 817l-191 -68zM166 1188l8 96l37 78l49 10l105 -10v-92l-35 -82l-45 -10zM502 1188l8 96l37 78l49 10l104 -10v-92l-34 -82l-45 -10z" />
<glyph unicode="&#xf0;" horiz-adv-x="995" d="M82 367q0 195 107.5 353t302.5 230l114 43q105 -26 152 -55q0 45 -46 126.5t-112 147.5l-229 -112v96l159 78q-104 81 -194 104l31 88q153 -43 268 -125l252 125v-98l-174 -88q75 -68 126.5 -152t74.5 -168t31.5 -148t8.5 -128q0 -263 -102 -424t-307 -248l-115 -43 q-148 0 -248 106t-100 292zM287 406q0 -159 59.5 -238t153.5 -96q68 20 120.5 76t81.5 129.5t43.5 148t14.5 143.5v207q-54 38 -139 65t-129 27q-55 -24 -96.5 -75.5t-64 -117.5t-33.5 -133t-11 -136z" />
<glyph unicode="&#xf1;" horiz-adv-x="1083" d="M72 842l336 151l63 -65l-18 -99l-29 -61l350 225q116 0 165.5 -66t33.5 -163l-115 -641l170 106l35 -51l-291 -209l-104 66l116 657q12 65 -1.5 101t-63.5 36q-80 0 -193 -79l-98 -68l-121 -682h-174l152 852l-191 -68zM385 1198l84 195l141 45l281 -123l100 119h41 l-88 -205l-137 -35l-283 123l-98 -119h-41z" />
<glyph unicode="&#xf2;" horiz-adv-x="976" d="M82 377q0 191 104.5 346t290.5 223l125 47q67 0 126.5 -27t106 -77t74 -128.5t27.5 -174.5q0 -191 -105 -346.5t-290 -223.5l-125 -47q-139 0 -236.5 109t-97.5 299zM276 406q0 -160 61.5 -240.5t158.5 -97.5q66 22 116 77t77 127t39.5 143.5t12.5 141.5q0 159 -62.5 240 t-160.5 98q-66 -22 -115.5 -77t-76 -127t-38.5 -143.5t-12 -141.5zM440 1464h205l25 -354h-70z" />
<glyph unicode="&#xf3;" horiz-adv-x="976" d="M82 377q0 191 104.5 346t290.5 223l125 47q67 0 126.5 -27t106 -77t74 -128.5t27.5 -174.5q0 -191 -105 -346.5t-290 -223.5l-125 -47q-139 0 -236.5 109t-97.5 299zM276 406q0 -160 61.5 -240.5t158.5 -97.5q66 22 116 77t77 127t39.5 143.5t12.5 141.5q0 159 -62.5 240 t-160.5 98q-66 -22 -115.5 -77t-76 -127t-38.5 -143.5t-12 -141.5zM573 1110l160 354h215l-297 -354h-78z" />
<glyph unicode="&#xf4;" horiz-adv-x="976" d="M82 377q0 191 104.5 346t290.5 223l125 47q67 0 126.5 -27t106 -77t74 -128.5t27.5 -174.5q0 -191 -105 -346.5t-290 -223.5l-125 -47q-139 0 -236.5 109t-97.5 299zM276 406q0 -160 61.5 -240.5t158.5 -97.5q66 22 116 77t77 127t39.5 143.5t12.5 141.5q0 159 -62.5 240 t-160.5 98q-66 -22 -115.5 -77t-76 -127t-38.5 -143.5t-12 -141.5zM389 1110l242 354h139l115 -354h-78l-137 205l-203 -205h-78z" />
<glyph unicode="&#xf5;" horiz-adv-x="976" d="M82 377q0 191 104.5 346t290.5 223l125 47q67 0 126.5 -27t106 -77t74 -128.5t27.5 -174.5q0 -191 -105 -346.5t-290 -223.5l-125 -47q-139 0 -236.5 109t-97.5 299zM276 406q0 -160 61.5 -240.5t158.5 -97.5q66 22 116 77t77 127t39.5 143.5t12.5 141.5q0 159 -62.5 240 t-160.5 98q-66 -22 -115.5 -77t-76 -127t-38.5 -143.5t-12 -141.5zM354 1198l84 195l142 45l280 -123l101 119h40l-88 -205l-137 -35l-282 123l-99 -119h-41z" />
<glyph unicode="&#xf6;" horiz-adv-x="976" d="M82 377q0 191 104.5 346t290.5 223l125 47q67 0 126.5 -27t106 -77t74 -128.5t27.5 -174.5q0 -191 -105 -346.5t-290 -223.5l-125 -47q-139 0 -236.5 109t-97.5 299zM276 406q0 -160 61.5 -240.5t158.5 -97.5q66 22 116 77t77 127t39.5 143.5t12.5 141.5q0 159 -62.5 240 t-160.5 98q-66 -22 -115.5 -77t-76 -127t-38.5 -143.5t-12 -141.5zM412 1188l8 96l37 78l49 10l104 -10v-92l-35 -82l-45 -10zM748 1188l8 96l37 78l49 10l104 -10v-92l-35 -82l-45 -10z" />
<glyph unicode="&#xf7;" d="M96 434v133h1075v-133h-1075zM520 117l10 98l154 10l61 -10l11 -115l-11 -100l-153 -10l-62 10zM520 874l10 99l154 10l61 -10l11 -115l-11 -100l-153 -10l-62 10z" />
<glyph unicode="&#xf8;" horiz-adv-x="976" d="M-8 0l139 150q-49 96 -49 227q0 191 104.5 346t290.5 223l125 47q137 0 229 -100l84 90h105l-143 -154q59 -100 59 -243q0 -191 -105 -346.5t-290 -223.5l-125 -47q-147 0 -240 113l-78 -82h-106zM276 406q0 -44 7 -95l419 445q-57 114 -184 139q-66 -22 -115.5 -77 t-76 -127t-38.5 -143.5t-12 -141.5zM307 221q54 -132 189 -153q66 22 116 77t77 127t39.5 143.5t12.5 141.5q0 65 -12 117z" />
<glyph unicode="&#xf9;" horiz-adv-x="1073" d="M61 842l336 151l62 -63l-115 -668q-11 -66 7 -97.5t57 -31.5q12 0 26 3t31 10.5t28.5 13t32 18t27 16.5t27.5 18l22 15l94 64l115 672h174l-147 -840l170 106l34 -51l-290 -209l-90 58l16 118l29 62l-353 -238q-47 0 -84.5 14.5t-59.5 38t-36.5 54t-16 62.5t2.5 63 l114 651l-190 -68zM461 1464h205l24 -354h-69z" />
<glyph unicode="&#xfa;" horiz-adv-x="1073" d="M61 842l336 151l62 -63l-115 -668q-11 -66 7 -97.5t57 -31.5q12 0 26 3t31 10.5t28.5 13t32 18t27 16.5t27.5 18l22 15l94 64l115 672h174l-147 -840l170 106l34 -51l-290 -209l-90 58l16 118l29 62l-353 -238q-47 0 -84.5 14.5t-59.5 38t-36.5 54t-16 62.5t2.5 63 l114 651l-190 -68zM580 1110l159 354h215l-297 -354h-77z" />
<glyph unicode="&#xfb;" horiz-adv-x="1073" d="M61 842l336 151l62 -63l-115 -668q-11 -66 7 -97.5t57 -31.5q12 0 26 3t31 10.5t28.5 13t32 18t27 16.5t27.5 18l22 15l94 64l115 672h174l-147 -840l170 106l34 -51l-290 -209l-90 58l16 118l29 62l-353 -238q-47 0 -84.5 14.5t-59.5 38t-36.5 54t-16 62.5t2.5 63 l114 651l-190 -68zM414 1110l241 354h140l114 -354h-78l-137 205l-202 -205h-78z" />
<glyph unicode="&#xfc;" horiz-adv-x="1073" d="M61 842l336 151l62 -63l-115 -668q-11 -66 7 -97.5t57 -31.5q12 0 26 3t31 10.5t28.5 13t32 18t27 16.5t27.5 18l22 15l94 64l115 672h174l-147 -840l170 106l34 -51l-290 -209l-90 58l16 118l29 62l-353 -238q-47 0 -84.5 14.5t-59.5 38t-36.5 54t-16 62.5t2.5 63 l114 651l-190 -68zM422 1188l8 96l37 78l49 10l105 -10v-92l-35 -82l-45 -10zM758 1188l8 96l37 78l49 10l104 -10v-92l-34 -82l-45 -10z" />
<glyph unicode="&#xfd;" horiz-adv-x="956" d="M-31 -481l33 188h156l280 305l-114 -12l-123 842l-174 -64l-31 51l283 164l110 -51l90 -860l346 629l-135 174l176 108l80 -108l-43 -238l-672 -1128h-262zM489 1110l160 354h215l-297 -354h-78z" />
<glyph unicode="&#xfe;" horiz-adv-x="1024" d="M51 -471l318 1814l-199 -55l-25 64l361 112l49 -47l-102 -594l-37 -92l286 262q126 -22 203.5 -113.5t77.5 -256.5q0 -131 -42.5 -249t-129.5 -213t-209 -143l-127 -49q-115 21 -170 49l-12 -120l-68 -369h-174zM338 172q56 -36 124.5 -61t119.5 -25q69 32 117 111.5 t68.5 168.5t20.5 181q0 127 -41 200.5t-98 86.5l-225 -177z" />
<glyph unicode="&#xff;" horiz-adv-x="956" d="M-31 -481l33 188h156l280 305l-114 -12l-123 842l-174 -64l-31 51l283 164l110 -51l90 -860l346 629l-135 174l176 108l80 -108l-43 -238l-672 -1128h-262zM356 1188l9 96l36 78l50 10l104 -10v-92l-35 -82l-45 -10zM692 1188l8 96l37 78l49 10l105 -10v-92l-35 -82 l-45 -10z" />
<glyph unicode="&#x152;" horiz-adv-x="1882" d="M102 573q0 101 20 200.5t65 200t112 184.5t168 153t225 108l164 51l346 -40l711 6v-351h-70l-90 248l-469 6l-86 -544l246 8l125 215h61l-71 -268l-19 -265h-61l-49 215l-246 9l-99 -615l514 6l158 277h78l-88 -379l-772 6l-326 -41q-255 0 -401 163.5t-146 446.5z M328 604q0 -129 31.5 -229t88.5 -162.5t128.5 -97.5t158.5 -45l146 26l198 1243l-309 25q-202 -78 -322 -285.5t-120 -474.5z" />
<glyph unicode="&#x153;" horiz-adv-x="1525" d="M82 367q0 194 106.5 351.5t298.5 231.5l115 43q102 0 183.5 -50.5t123.5 -147.5q95 102 236 155l115 43q107 -19 166 -68.5t59 -146.5q0 -69 -37 -176l-516 -164q-2 -18 -2 -53q0 -126 64.5 -194t146.5 -70q128 55 241 131l37 -51q-43 -36 -120.5 -90.5t-145.5 -94.5 l-80 -47q-105 0 -184 51.5t-119 143.5q-98 -101 -229 -152l-115 -43q-144 0 -244 106.5t-100 291.5zM276 406q0 -159 61.5 -239t158.5 -97q70 22 122.5 79t80 131t40.5 146.5t13 142.5q0 110 -30.5 181t-77.5 101.5t-116 41.5q-69 -22 -121 -76.5t-79 -126.5t-39.5 -143 t-12.5 -141zM940 510l334 137q20 64 20 111q0 119 -110 137q-103 -43 -162 -146t-82 -239z" />
<glyph unicode="&#x178;" horiz-adv-x="1255" d="M154 1364l20 72l232 -6l270 6v-72l-178 -27l231 -577v-78l416 655l-174 27l20 72l230 -6l157 6v-72l-102 -23l-492 -757l-75 -488l231 -26l-20 -72l-332 6l-334 -6v72l250 26l76 490l-312 755zM549 1593l8 107l37 78l49 10l115 -10v-92l-35 -93l-55 -10zM967 1593l8 107 l37 78l49 10l115 -10v-92l-35 -93l-56 -10z" />
<glyph unicode="&#x2c6;" horiz-adv-x="1024" d="M264 1110l242 354h139l115 -354h-78l-137 205l-203 -205h-78z" />
<glyph unicode="&#x2dc;" horiz-adv-x="1024" d="M188 1198l84 195l142 45l280 -123l101 119h41l-88 -205l-138 -35l-282 123l-99 -119h-41z" />
<glyph unicode="&#x2000;" horiz-adv-x="952" />
<glyph unicode="&#x2001;" horiz-adv-x="1905" />
<glyph unicode="&#x2002;" horiz-adv-x="952" />
<glyph unicode="&#x2003;" horiz-adv-x="1905" />
<glyph unicode="&#x2004;" horiz-adv-x="635" />
<glyph unicode="&#x2005;" horiz-adv-x="476" />
<glyph unicode="&#x2006;" horiz-adv-x="317" />
<glyph unicode="&#x2007;" horiz-adv-x="317" />
<glyph unicode="&#x2008;" horiz-adv-x="238" />
<glyph unicode="&#x2009;" horiz-adv-x="381" />
<glyph unicode="&#x200a;" horiz-adv-x="105" />
<glyph unicode="&#x2010;" horiz-adv-x="802" d="M102 496l25 133h625l-25 -133h-625z" />
<glyph unicode="&#x2011;" horiz-adv-x="802" d="M102 496l25 133h625l-25 -133h-625z" />
<glyph unicode="&#x2012;" horiz-adv-x="802" d="M102 496l25 133h625l-25 -133h-625z" />
<glyph unicode="&#x2013;" horiz-adv-x="1361" d="M133 516l21 113h1136l-20 -113h-1137z" />
<glyph unicode="&#x2014;" horiz-adv-x="1771" d="M143 516l21 113h1526l-21 -113h-1526z" />
<glyph unicode="&#x2018;" horiz-adv-x="446" d="M184 963l11 114l26 101l187 297l69 -31q-37 -62 -75.5 -141.5t-45.5 -116.5l80 -8l-10 -117l-37 -98l-131 -11z" />
<glyph unicode="&#x2019;" horiz-adv-x="477" d="M205 963q37 62 75.5 141.5t45.5 116.5l-80 8l10 117l37 98l131 10l74 -10l-11 -115l-26 -100l-187 -297z" />
<glyph unicode="&#x201a;" horiz-adv-x="487" d="M31 -266q37 62 75.5 141.5t45.5 116.5l-80 8l10 117l37 98l131 10l74 -10l-11 -115l-26 -100l-187 -297z" />
<glyph unicode="&#x201c;" horiz-adv-x="774" d="M184 963l11 114l26 101l187 297l69 -31q-37 -62 -75.5 -141.5t-45.5 -116.5l80 -8l-10 -117l-37 -98l-131 -11zM512 963l10 114l27 101l186 297l70 -31q-37 -62 -75.5 -141.5t-45.5 -116.5l80 -8l-10 -117l-37 -98l-131 -11z" />
<glyph unicode="&#x201d;" horiz-adv-x="804" d="M205 963q37 62 75.5 141.5t45.5 116.5l-80 8l10 117l37 98l131 10l74 -10l-11 -115l-26 -100l-187 -297zM532 963q37 62 75.5 141.5t45.5 116.5l-80 8l11 117l37 98l131 10l73 -10l-10 -115l-27 -100l-186 -297z" />
<glyph unicode="&#x201e;" horiz-adv-x="815" d="M31 -266q37 62 75.5 141.5t45.5 116.5l-80 8l10 117l37 98l131 10l74 -10l-11 -115l-26 -100l-187 -297zM358 -266q37 62 75.5 141.5t45.5 116.5l-80 8l11 117l36 98l132 10l73 -10l-10 -115l-27 -100l-186 -297z" />
<glyph unicode="&#x2022;" horiz-adv-x="569" d="M133 494l14 137l33 119l174 10l82 -10l-14 -136l-33 -120l-174 -11z" />
<glyph unicode="&#x2026;" horiz-adv-x="1454" d="M143 0l11 117l28 98l156 10l59 -10l-10 -115l-29 -100l-155 -10zM604 0l10 117l29 98l156 10l59 -10l-10 -115l-29 -100l-155 -10zM1067 0l10 117l29 98l156 10l59 -10l-10 -115l-29 -100l-156 -10z" />
<glyph unicode="&#x202f;" horiz-adv-x="381" />
<glyph unicode="&#x2039;" horiz-adv-x="630" d="M72 481l450 451h99l-340 -453l182 -448h-101z" />
<glyph unicode="&#x203a;" horiz-adv-x="684" d="M72 31l338 448l-181 453h99l295 -451l-451 -450h-100z" />
<glyph unicode="&#x205f;" horiz-adv-x="476" />
<glyph unicode="&#x20ac;" horiz-adv-x="1296" d="M41 522l18 113h131q3 78 19 164h-119l19 112h131q158 388 653 521l143 38q117 -32 291 -149l-108 -147q-49 47 -142.5 105.5t-156.5 78.5q-153 -31 -279 -154t-192 -293h673l-80 -112h-620q-16 -85 -16 -164h544l-80 -113h-458q22 -179 123 -292t243 -113 q62 0 136.5 23.5t116 44t99.5 53.5l39 -60q-185 -140 -419 -215q-237 0 -385 150.5t-170 408.5h-154z" />
<glyph unicode="&#x2122;" horiz-adv-x="2115" d="M246 1198v238l375 -4l360 4v-238h-61l-62 164l-149 4v-649l129 -15l-7 -59l-217 4l-221 -4l-6 59l133 15v649l-151 -4l-60 -164h-63zM1042 1378l7 58l114 -4l201 4l229 -551v-101l254 652l168 -4l135 4l7 -58l-93 -14v-647l90 -15l-6 -59l-174 4l-180 -4l-6 59l94 15v516 l19 137l-283 -725h-115l-237 578l-35 139v-645l92 -15l-6 -59l-133 4l-133 -4l-7 59l93 15v647z" />
<glyph unicode="&#x25fc;" horiz-adv-x="993" d="M0 0v993h993v-993h-993z" />
</font>
</defs>
</svg>
