<?xml version="1.0" standalone="no"?>
<!DOCTYPE svg PUBLIC "-//W3C//DTD SVG 1.1//EN" "http://www.w3.org/Graphics/SVG/1.1/DTD/svg11.dtd" >
<svg xmlns="http://www.w3.org/2000/svg" xmlns:xlink="http://www.w3.org/1999/xlink" version="1.1">
<metadata></metadata>
<defs>
<font id="gt_sectra_fineblack" horiz-adv-x="1269" >
<font-face units-per-em="2048" ascent="1536" descent="-512" />
<missing-glyph horiz-adv-x="483" />
<glyph unicode="&#xfb01;" horiz-adv-x="1366" d="M47 858v47l39 47h94v21q0 148 148 270l250 213h655v-301h-57l-236 72h-375l-16 -37q-21 -52 -21 -199v-45h312l295 55h92v-901l98 -22l-6 -80l-268 4l-267 -4l-6 80l99 22v721l8 47l-45 -10h-312v-758l140 -22l-4 -76h-345l-241 -4l-4 80l106 22v758h-133z" />
<glyph unicode="&#xfb02;" horiz-adv-x="1361" d="M47 858v47l39 47h94v21q0 148 148 270l250 213h352l237 2h66v-1358l98 -22l-6 -80l-268 4l-266 -4l-7 80l101 22v758h-357v-758l150 -22l-4 -80l-361 4l-227 -4l-4 80l98 22v758h-133zM528 946h357v303l-60 -22h-260l-16 -37q-21 -52 -21 -199v-45z" />
<glyph unicode="&#xfb03;" horiz-adv-x="2070" d="M47 858v47l39 47h94v15q0 75 37 135t111 123l250 211h448l-268 -228h-193l-16 -39q-21 -53 -21 -196v-27h357v27q0 149 147 270l252 213h653v-301h-55l-235 72h-377l-15 -37q-20 -50 -20 -199v-45h311l293 55h92v-901l99 -22l-5 -80l-268 4l-268 -4l-4 80l98 22v721l8 47 l-45 -10h-311v-758l139 -22l-4 -80l-334 4l-254 -4l-4 80l107 22v758h-357v-758l150 -22l-4 -80l-355 4l-241 -4l-4 80l106 22v758h-133z" />
<glyph unicode="&#xfb04;" horiz-adv-x="2066" d="M47 858v47l39 47h94v15q0 75 37 135t111 123l250 211h456l-268 -228h-201l-16 -39q-21 -53 -21 -196v-27h357v27q0 145 147 270l250 211h350l162 2h141v-1356l101 -22l-6 -80l-269 4l-266 -4l-6 80l98 22v758h-354v-758l149 -22l-4 -80l-352 4l-235 -4l-7 80l101 22v758 h-357v-758l150 -22l-4 -80l-346 4l-250 -4l-4 80l106 22v758h-133zM1233 946h354v301l-59 -20h-260l-15 -39q-20 -50 -20 -197v-45z" />
<glyph horiz-adv-x="0" />
<glyph horiz-adv-x="0" />
<glyph horiz-adv-x="682" />
<glyph unicode="&#xd;" horiz-adv-x="655" />
<glyph unicode=" "  horiz-adv-x="483" />
<glyph unicode="&#x09;" horiz-adv-x="483" />
<glyph unicode="&#xa0;" horiz-adv-x="483" />
<glyph unicode="!" horiz-adv-x="698" d="M164 1454h368l-28 -651l-80 -332h-150l-81 330zM184 162l21 133l211 18l76 -18l16 -156l-23 -137l-211 -16l-75 16z" />
<glyph unicode="&#x22;" horiz-adv-x="944" d="M102 1307l21 133l213 16l80 -16l14 -154l-20 -141l-195 -334l-72 29q1 3 37 81t63 141t27 75l-153 8zM524 1307l21 133l213 16l78 -16l16 -154l-21 -141l-194 -334l-72 29q4 12 37 83.5t60.5 136.5t27.5 77l-151 8z" />
<glyph unicode="#" horiz-adv-x="1282" d="M82 412l12 100h256l39 315h-252l13 101h251l52 413h118l-51 -413h301l51 413h119l-51 -413h260l-14 -101h-258l-39 -315h256l-12 -100h-256l-50 -412h-118l49 412h-301l-49 -412h-119l49 412h-256zM469 512h301l39 315h-301z" />
<glyph unicode="$" horiz-adv-x="1232" d="M94 487h119l96 -239q132 -166 277 -168v461l-219 135q-87 51 -140.5 99.5t-86.5 116.5t-34 152q-1 67 22 124.5t76 112.5t149.5 100.5t232.5 76.5v141h82v-129q117 -1 210 -23.5t203 -70.5v-372h-106l-105 256q-94 94 -202 102v-422l202 -121q157 -90 214 -175.5 t57 -207.5q0 -163 -116.5 -269t-356.5 -175v-156h-82v133l-23 -6q-225 0 -446 133zM434 1196q0 -66 37 -113t115 -94v369q-71 -12 -111.5 -55t-40.5 -107zM668 90q63 19 100 68t37 121q0 120 -137 210v-399z" />
<glyph unicode="%" horiz-adv-x="1705" d="M92 1061q0 72 21.5 129.5t56 96.5t87 70t105.5 49.5t121 33.5q139 0 231.5 -94t92.5 -246q0 -89 -30.5 -155.5t-88.5 -109.5t-123 -69.5t-153 -46.5q-137 0 -228.5 94t-91.5 248zM272 -10l1014 1454h148l-1012 -1454h-150zM348 1137q0 -174 32.5 -262.5t80.5 -88.5 q86 0 86 234q0 176 -32.5 265t-80.5 89q-86 0 -86 -237zM899 342q0 71 21.5 128.5t56 96.5t87 70t105.5 49.5t121 34.5q139 0 231.5 -94t92.5 -248q0 -88 -30.5 -154.5t-88.5 -110t-123 -70t-153 -46.5q-137 0 -228.5 94.5t-91.5 249.5zM1155 418q0 -175 32.5 -262.5 t80.5 -87.5q86 0 86 233q0 175 -32.5 263.5t-80.5 88.5q-86 0 -86 -235z" />
<glyph unicode="&#x26;" horiz-adv-x="1531" d="M92 338q0 133 80.5 225t249.5 189l-25 26q-112 123 -153 193t-41 147q0 128 115 209t376 143q198 0 309 -68t111 -175q0 -50 -18.5 -94.5t-46.5 -78.5t-78 -72t-96.5 -65.5t-118.5 -66.5l311 -350l129 164l-119 12l4 76l205 -4l166 4l6 -76l-139 -19l-186 -229l292 -332 l76 -18l-10 -80l-209 4l-180 -4l-172 192q-137 -133 -328 -225q-142 0 -258 45.5t-184 131.5t-68 196zM420 465q0 -112 78.5 -193.5t193.5 -81.5q98 0 170 66l4 4l-379 418q-67 -72 -67 -213zM520 1233q0 -113 174 -315l2 -3q101 98 101 287q0 77 -35.5 126.5t-99.5 49.5 t-103 -38t-39 -107z" />
<glyph unicode="'" horiz-adv-x="512" d="M102 1307l21 133l213 16l80 -16l14 -154l-20 -141l-195 -334l-72 29q2 5 37.5 81.5t62.5 139t27 74.5l-153 10z" />
<glyph unicode="(" horiz-adv-x="647" d="M82 500q0 211 52 375.5t157.5 305.5t290.5 304l45 -45q-156 -195 -225.5 -421t-69.5 -519t69.5 -519t225.5 -423l-45 -45q-275 243 -387.5 460t-112.5 527z" />
<glyph unicode=")" horiz-adv-x="647" d="M20 -442q156 197 225.5 423t69.5 519t-69.5 519t-225.5 421l46 45q184 -160 290 -302t157.5 -307t51.5 -376t-51.5 -376t-157.5 -307.5t-290 -303.5z" />
<glyph unicode="*" horiz-adv-x="937" d="M92 1090l92 276l240 -186l-100 284h292l-106 -284l244 182l92 -275l-305 9l252 -168l-236 -174l-90 295l-88 -295l-234 172l248 170z" />
<glyph unicode="+" d="M106 463v119h469v473h119v-473h467v-119h-467v-463h-119v463h-469z" />
<glyph unicode="," horiz-adv-x="552" d="M150 168l20 139l219 19l78 -19l18 -162l-24 -143l-191 -330l-77 33q23 51 67.5 159.5t44.5 125.5l-141 12z" />
<glyph unicode="-" horiz-adv-x="788" d="M82 506v143h625v-143h-625z" />
<glyph unicode="." horiz-adv-x="552" d="M143 168l23 139l219 17l78 -17l18 -162l-26 -143l-217 -16l-78 16z" />
<glyph unicode="/" horiz-adv-x="999" d="M-20 -471l927 1941h113l-924 -1941h-116z" />
<glyph unicode="0" horiz-adv-x="1251" d="M82 479q0 101 32.5 184t86 139.5t132.5 100.5t161.5 70.5t183.5 46.5q213 0 352 -139.5t139 -368.5q0 -102 -32 -185t-85 -140.5t-131.5 -101.5t-161.5 -70.5t-184 -45.5q-211 0 -352 140.5t-141 369.5zM446 555q0 -227 50 -350t139 -123q160 0 160 350q0 227 -50 350 t-139 123q-160 0 -160 -350z" />
<glyph unicode="1" horiz-adv-x="966" d="M49 791l512 217h119v-904l254 -26l-6 -80l-424 4l-428 -4l-6 80l256 26v670l6 19l-43 -21l-209 -55z" />
<glyph unicode="2" horiz-adv-x="1157" d="M41 70l336 266q156 122 223.5 216.5t67.5 209.5q0 69 -33 109t-90 40q-45 0 -90 -18l-68 -309h-274v266l495 172q215 0 322.5 -75t107.5 -202q0 -128 -118.5 -227.5t-352.5 -195.5l-245 -101l190 43h584v-71l-78 -193h-940z" />
<glyph unicode="3" horiz-adv-x="1097" d="M59 -195h516q41 48 59.5 96t18.5 119q0 110 -79.5 179.5t-225.5 68.5l-18 64l106 65q96 55 136 123t40 174q0 93 -38.5 147t-98.5 54q-36 0 -72 -16l-71 -287h-271v256l519 172q106 0 184 -21.5t122 -59.5t64.5 -83t20.5 -98q0 -235 -379 -320q93 -3 168.5 -26.5 t123.5 -58.5t80.5 -79t46 -87t13.5 -85q0 -55 -12 -100.5t-39.5 -82t-58 -64.5t-81.5 -56.5t-95.5 -49.5t-112.5 -52q-28 -12 -43 -19l-332 -149h-191v276z" />
<glyph unicode="4" horiz-adv-x="1202" d="M25 37l641 952h358v-88l-862 -844l53 23h387v223l295 203h33v-428h246v-141h-246v-398h-328v398h-518z" />
<glyph unicode="5" horiz-adv-x="1067" d="M82 -186h457q86 91 86 239q0 101 -55.5 173t-161.5 71q-57 0 -101 -12t-102 -41l-70 -33l-39 33l97 747h782v-51l-70 -225h-661l-56 -406l387 203q188 0 306 -98.5t118 -243.5q0 -61 -14 -113t-44 -95t-62 -76t-85 -67t-93.5 -56.5t-106.5 -55.5l-330 -170h-182v277z" />
<glyph unicode="6" horiz-adv-x="1247" d="M94 547q0 150 48.5 283.5t150.5 254t270.5 220.5t397.5 172l22 -72q-88 -41 -158 -84.5t-119.5 -86.5t-86.5 -93.5t-60 -96.5t-38.5 -106t-23 -112.5t-12.5 -123.5v-4l306 228q94 0 167 -35t115 -93.5t63 -128t21 -145.5q0 -97 -28 -177t-75.5 -137t-121 -104t-154 -78.5 t-184.5 -58.5q-233 0 -366.5 157.5t-133.5 420.5zM485 606q2 -280 38.5 -413.5t117.5 -133.5q141 0 141 371q0 136 -29.5 206.5t-84.5 70.5q-50 0 -136 -66z" />
<glyph unicode="7" horiz-adv-x="1067" d="M41 705v286h936l53 -59l-633 -1391h-262v90l682 1096l-45 -22h-731z" />
<glyph unicode="8" horiz-adv-x="1214" d="M90 317q0 124 73.5 203.5t239.5 151.5q-286 179 -286 395q0 151 137 251.5t387 147.5q208 0 338.5 -83t130.5 -209q0 -117 -79.5 -199t-250.5 -144q183 -109 266.5 -206.5t83.5 -216.5q0 -87 -33.5 -154.5t-105 -119t-166.5 -90t-235 -75.5q-138 0 -251 41.5t-181 121.5 t-68 185zM434 338q0 -132 55 -204.5t127 -72.5q64 0 105 49.5t41 151.5q0 95 -57.5 167.5t-198.5 170.5q-31 -45 -51.5 -117.5t-20.5 -144.5zM473 1214q0 -86 52 -160t165 -155q70 106 70 264q0 93 -43.5 151t-112.5 58q-58 0 -94.5 -40.5t-36.5 -117.5z" />
<glyph unicode="9" horiz-adv-x="1253" d="M78 469q0 97 28 176.5t76 136.5t122 103t153.5 77.5t183.5 59.5q234 0 367 -154.5t133 -416.5q0 -151 -49.5 -286t-152 -256.5t-271 -222.5t-394.5 -173l-22 71q119 55 205 117.5t139.5 124.5t86.5 139.5t47 151.5t20 172v4l-301 -230q-94 0 -167 35.5t-116.5 95 t-65.5 129.5t-22 146zM453 582q0 -149 31 -225t89 -76q8 0 15 1t15 3.5t13 4t14 6.5t13 7t14 9.5t13 9.5t15 11t15 11l50 37q0 276 -37.5 413.5t-118.5 137.5q-141 0 -141 -350z" />
<glyph unicode=":" horiz-adv-x="593" d="M154 168l22 139l219 17l78 -17l19 -162l-27 -143l-217 -16l-78 16zM154 838l22 139l219 18l78 -18l19 -162l-27 -141l-217 -17l-78 17z" />
<glyph unicode=";" horiz-adv-x="634" d="M154 838l22 139l219 18l78 -18l19 -162l-27 -141l-217 -17l-78 17zM156 168l20 139l219 19l78 -19l19 -162l-25 -143l-191 -330l-77 33q120 262 120 285l-149 12z" />
<glyph unicode="&#x3c;" d="M102 543v88l1065 487v-133l-909 -397l909 -398v-133z" />
<glyph unicode="=" d="M102 244v118h1063v-118h-1063zM102 641v121h1063v-121h-1063z" />
<glyph unicode="&#x3e;" d="M102 57v133l910 398l-910 397v133l1065 -487v-88z" />
<glyph unicode="?" horiz-adv-x="962" d="M98 1133v301l281 22q231 -26 352 -120.5t121 -245.5q0 -78 -31 -141t-87.5 -108.5t-121 -76.5t-147.5 -57l-47 -19l-29 -235h-102l-17 256l70 47q70 54 112 147t42 219q0 113 -42 178.5t-116 73.5l-113 -241h-125zM172 162l21 133l210 18l76 -18l17 -156l-23 -137 l-211 -16l-76 16z" />
<glyph unicode="@" horiz-adv-x="1935" d="M102 512q0 146 54.5 283t151.5 247.5t233 195.5t297 134l198 60q387 0 597 -160t210 -424q0 -134 -52.5 -255.5t-141 -210t-208.5 -144.5t-251 -66l-141 129l65 213q-170 -205 -291 -346q-113 8 -195.5 93.5t-82.5 217.5q0 168 105 309t276 216l219 94l278 -121 l-170 -737q67 13 131 57.5t117.5 114.5t86 173.5t32.5 223.5q0 230 -163 381t-419 151q-104 0 -205 -34.5t-189 -102t-155 -159.5t-106 -215.5t-39 -260.5q0 -140 42 -255.5t111 -192t160.5 -129t188 -75.5t196.5 -23q76 0 156 19t119 35.5t100 45.5l27 -49 q-117 -63 -253 -110.5t-243 -67.5q-188 0 -346.5 55.5t-268 154t-170.5 236.5t-61 299zM778 571q0 -85 33 -137t92 -67l203 229l70 274l-164 103q-118 -67 -176 -179t-58 -223z" />
<glyph unicode="A" horiz-adv-x="1478" d="M10 78l105 22l452 1278l328 92l459 -1372l114 -20l-4 -80l-368 4l-293 -4l-6 80l143 22l-119 371h-463l-125 -371l150 -22l-4 -80l-191 4l-172 -4zM387 559h406l-187 596l-2 59z" />
<glyph unicode="B" horiz-adv-x="1335" d="M53 78l125 22v1235l-125 23l6 78l252 -4l537 4q92 0 166 -28t119.5 -74t69.5 -102.5t24 -117.5q0 -141 -114.5 -233.5t-328.5 -112.5q255 -10 378.5 -107t123.5 -251q0 -179 -141 -282t-387 -130l-439 4l-260 -4zM559 94l100 -16q82 0 139 48t81 120t24 160 q0 146 -66.5 230.5t-172.5 84.5h-105v-627zM559 795h98q85 0 136 85t51 218q0 121 -46 190.5t-141 69.5l-98 -17v-546z" />
<glyph unicode="C" horiz-adv-x="1449" d="M63 676q0 354 213.5 546t622.5 248q256 0 475 -112v-404h-102l-125 285q-46 62 -108 96.5t-156 34.5q-174 0 -285 -167t-111 -468q0 -195 47 -345.5t139 -237t216 -86.5q82 0 144 31t122 93l139 316h97l-15 -416q-129 -50 -246 -79t-288 -48q-158 0 -297.5 45.5 t-247.5 132t-171 224.5t-63 311z" />
<glyph unicode="D" horiz-adv-x="1542" d="M53 78l127 22v1235l-127 23l6 78l263 -4l450 4h4q338 0 520 -178q184 -179 183 -504q0 -154 -40.5 -281.5t-124.5 -228.5t-222.5 -165t-323.5 -81l-442 4l-267 -4zM561 94l154 -16h10q105 0 185 84q84 88 125.5 237t41.5 334q0 186 -43.5 326.5t-133.5 220.5 q-85 76 -202 76h-12l-125 -15v-1247z" />
<glyph unicode="E" horiz-adv-x="1292" d="M53 78l125 22v1235l-125 23l6 78l283 -4l877 4l10 -406h-86l-148 311l-436 2v-544l207 4l94 241h84l-10 -290l10 -291h-84l-94 242l-207 4v-619l451 4l147 324h86l-31 -420l-872 4l-281 -4z" />
<glyph unicode="F" horiz-adv-x="1251" d="M53 78l125 22v1235l-125 23l6 78l277 -4l878 4l11 -424h-86l-154 329l-426 2v-577l207 4l94 244h84l-10 -295l10 -293h-84l-94 246l-207 4v-576l197 -22l-6 -80l-400 4l-291 -4z" />
<glyph unicode="G" horiz-adv-x="1525" d="M63 668q0 361 214.5 554.5t631.5 247.5q140 0 251 -30.5t220 -85.5v-400h-102l-127 283q-92 133 -260 133q-184 0 -294 -167t-110 -462q0 -196 41 -346t126.5 -238.5t205.5 -88.5q90 0 152 51v448l-160 23l4 88l338 -4l291 4l8 -88l-100 -23v-463q-219 -103 -594 -141 q-116 0 -224.5 30t-201 90.5t-162 144t-109 197t-39.5 243.5z" />
<glyph unicode="H" horiz-adv-x="1581" d="M53 78l125 22v1235l-125 23l6 78l308 -4l297 4l6 -78l-111 -23v-542h463v542l-111 23l4 78l297 -4l310 4l6 -78l-125 -23v-1235l125 -22l-6 -80l-310 4l-297 -4l-4 80l111 22v594h-463v-594l111 -22l-6 -80l-297 4l-308 -4z" />
<glyph unicode="I" horiz-adv-x="737" d="M53 78l125 22v1235l-125 23l6 78l310 -4l309 4l6 -78l-125 -23v-1235l125 -22l-6 -80l-309 4l-310 -4z" />
<glyph unicode="J" horiz-adv-x="808" d="M10 -76h230l10 51q16 76 16 220v1140l-194 23l4 78l383 -4l303 4l4 -78l-119 -23v-979q0 -72 -21.5 -145t-49.5 -127t-74.5 -114.5t-78 -94.5t-77.5 -80l-151 -153h-185v282z" />
<glyph unicode="K" horiz-adv-x="1558" d="M53 78l125 22v1235l-125 23l6 78l308 -4l303 4l4 -78l-115 -23v-571l33 14l577 557l-165 25l4 76l235 -4l240 4l6 -76l-174 -25l-592 -557l197 29l532 -707l90 -22l-4 -80l-211 4l-264 -4l-483 672l-21 45v-615l115 -22l-4 -80l-303 4l-308 -4z" />
<glyph unicode="L" horiz-adv-x="1228" d="M53 78l125 22v1235l-125 23l6 78l289 -4l330 4l6 -78l-125 -23v-1237l410 4l184 330h76l-37 -434l-840 6l-293 -6z" />
<glyph unicode="M" horiz-adv-x="1951" d="M53 78l125 22v1235l-125 23l6 78l203 -4l354 4l375 -1002l-8 -100l383 1102l266 -4l260 4l6 -78l-129 -23v-1235l129 -22l-6 -80l-307 4l-303 -4l-6 80l123 22v1063l14 125l-452 -1294h-211l-435 1190l-24 129v-1213l131 -22l-2 -80l-182 4l-179 -4z" />
<glyph unicode="N" horiz-adv-x="1443" d="M53 78l125 22v1235l-125 23l6 78l156 -4l328 4l610 -813l33 -107v819l-133 23l2 78l188 -4l174 4l6 -78l-125 -23v-1343h-178l-801 1122l-28 109v-1123l133 -22l-2 -80l-189 4l-174 -4z" />
<glyph unicode="O" horiz-adv-x="1642" d="M63 684q0 334 182 516t601 270q221 0 388 -91.5t256 -254t89 -372.5q0 -336 -181.5 -518.5t-600.5 -270.5q-166 0 -304 53t-232 148t-146 228.5t-52 291.5zM487 762q0 -191 42.5 -346t127 -249.5t197.5 -94.5q104 0 173 82.5t98.5 214t29.5 305.5q0 189 -41.5 344 t-125 250.5t-195.5 95.5q-104 0 -174.5 -82.5t-101 -214.5t-30.5 -305z" />
<glyph unicode="P" horiz-adv-x="1286" d="M53 78l125 22v1235l-125 23l6 78l306 -4l471 4q89 0 166.5 -22.5t137.5 -66.5t95 -115.5t35 -162.5q0 -57 -17 -106.5t-43 -87t-71 -71.5t-87.5 -57.5t-108 -48t-115.5 -40.5t-126 -37h-143v-521l174 -22l-4 -80l-360 4l-310 -4zM559 717h92q91 0 154 90t63 240 q0 140 -61.5 225.5t-155.5 85.5l-92 -17v-624z" />
<glyph unicode="Q" horiz-adv-x="1642" d="M63 684q0 334 182 516t601 270q221 0 388 -91.5t256 -254t89 -372.5q0 -313 -158 -492t-514 -270l281 -37l231 -184l119 -29l-8 -82h-393l-340 305q-166 0 -304 53t-232 148t-146 228.5t-52 291.5zM487 762q0 -191 42.5 -346t127 -249.5t197.5 -94.5q104 0 173 82.5 t98.5 214t29.5 305.5q0 189 -41.5 344t-125 250.5t-195.5 95.5q-104 0 -174.5 -82.5t-101 -214.5t-30.5 -305z" />
<glyph unicode="R" horiz-adv-x="1445" d="M53 78l125 22v1235l-125 23l6 78l306 -4l485 4q117 0 211 -39t152.5 -121t58.5 -195q0 -163 -139 -260.5t-388 -126.5l334 -96l275 -496l82 -24l-4 -80l-254 4l-203 -4l-340 655l-14 11h-62v-564l121 -22l-6 -80l-307 4l-308 -4zM559 754h88q97 0 158 83.5t61 225.5 q0 134 -56.5 214.5t-143.5 80.5l-107 -17v-587z" />
<glyph unicode="S" horiz-adv-x="1167" d="M61 487h119l96 -239q137 -168 281 -168q96 0 155.5 53.5t59.5 145.5q0 67 -38.5 122t-129.5 109l-270 166q-87 51 -140.5 100t-86 116.5t-33.5 151.5v5q0 67 24 125q26 60 85 117.5t167.5 103t261.5 75.5q128 0 227 -22t210 -72v-372h-107l-104 256q-100 104 -226 104 q-97 0 -154 -45.5t-57 -122.5q0 -66 38 -113t118 -96l281 -168q157 -90 213.5 -175t56.5 -208q0 -179 -141.5 -290.5t-436.5 -182.5q-225 0 -446 133z" />
<glyph unicode="T" horiz-adv-x="1261" d="M27 995v441l614 -4l594 4v-441h-80l-151 348l-183 3v-1246l189 -22l-6 -80l-373 4l-373 -4l-4 80l186 22v1246l-182 -3l-149 -348h-82z" />
<glyph unicode="U" horiz-adv-x="1454" d="M27 1358l4 78l284 -4l330 4l6 -78l-119 -23v-835q0 -174 84.5 -277.5t233.5 -103.5q147 0 232 104t85 277v835l-139 23l4 78l203 -4l188 4l4 -78l-129 -23v-835q0 -81 -13 -145t-47 -126.5t-90 -110.5t-145 -88t-210 -67q-326 0 -484.5 142.5t-158.5 392.5v837z" />
<glyph unicode="V" horiz-adv-x="1452" d="M10 1358l6 78l385 -4l256 4l5 -78l-134 -23l328 -995l-4 -84l356 1079l-147 23l6 78l195 -4l176 4l4 -78l-115 -23l-444 -1300l-291 -72l-473 1372z" />
<glyph unicode="W" horiz-adv-x="2177" d="M16 1358l4 78l351 -4l293 4l6 -78l-138 -23l287 -913v-86l209 721l-92 278l-90 23l6 78l334 -4l284 4l5 -78l-136 -23l289 -917l4 -84l291 1001l-151 23l4 78l186 -4l195 4l6 -78l-127 -23l-402 -1308l-248 -60l-294 899l-2 76l-265 -915l-245 -60l-453 1368z" />
<glyph unicode="X" horiz-adv-x="1540" d="M20 78l175 22l411 553l-442 682l-105 25l4 76l275 -4l367 4l4 -78l-113 -23l264 -409l14 -47l318 456l-154 23l6 78l240 -4l189 4l4 -78l-152 -23l-375 -524l469 -711l99 -22l-7 -80l-278 4l-361 -4l-6 80l115 22l-285 430l-16 50l-340 -480l147 -22l-4 -80l-247 4 l-209 -4z" />
<glyph unicode="Y" horiz-adv-x="1474" d="M10 1358l6 78l334 -4l340 4l6 -78l-141 -23l330 -622l-4 -58l352 680l-148 23l7 78l196 -4l170 4l6 -78l-118 -23l-404 -766v-469l199 -22l-6 -80l-385 4l-385 -4l-5 80l199 22v463l-428 772z" />
<glyph unicode="Z" horiz-adv-x="1239" d="M29 70l704 1239l55 34l-452 -4l-156 -327h-86v422h1090l12 -62l-707 -1249l-55 -33l465 4l197 348h86l-39 -442h-1100z" />
<glyph unicode="[" horiz-adv-x="675" d="M154 -473v1937l174 -2l276 2v-78l-221 -18q-4 -490 -4 -782l4 -961l221 -20v-78l-274 4z" />
<glyph unicode="\" horiz-adv-x="886" d="M-78 1470h115l928 -1941h-119z" />
<glyph unicode="]" horiz-adv-x="675" d="M72 -395l221 20q4 608 4 957l-4 786l-221 18v78l280 -2l154 2v-1937l-152 4l-282 -4v78z" />
<glyph unicode="^" horiz-adv-x="792" d="M102 942l260 502h68l260 -502h-139l-154 315l-153 -315h-142z" />
<glyph unicode="_" horiz-adv-x="1157" d="M10 -135h1137v-111h-1137v111z" />
<glyph unicode="`" horiz-adv-x="1024" d="M315 1520h291l88 -363h-110z" />
<glyph unicode="a" horiz-adv-x="1118" d="M57 242q0 69 28 128.5t81 98.5l457 135v172q0 80 -21.5 109.5t-73.5 29.5q-43 0 -84 -20l-30 -260h-318v209l457 176q233 0 331.5 -64.5t98.5 -240.5v-420q0 -97 23 -162l90 4l12 -78l-412 -86l-61 166l-254 -170q-140 0 -232 73t-92 200zM416 309q0 -73 28.5 -114 t67.5 -41q37 0 86 30l25 17v334l-146 -56q-61 -58 -61 -170z" />
<glyph unicode="b" horiz-adv-x="1185" d="M20 1403l363 53l92 2v-643l289 205q149 0 257.5 -123t108.5 -324q0 -158 -57.5 -278.5t-185 -205.5t-320.5 -120q-248 0 -440 80v1276l-98 -6zM475 109q39 -50 98 -50q82 0 132.5 101.5t50.5 288.5q0 342 -138 342q-12 0 -24 -2.5t-25.5 -8.5t-20.5 -9.5t-23.5 -13.5 t-20.5 -12l-29 -18v-618z" />
<glyph unicode="c" horiz-adv-x="999" d="M53 453q0 115 42.5 211.5t118.5 165t171.5 115.5t210.5 75q193 0 332 -109v-276h-289l-53 270q-20 13 -39 13q-60 0 -108 -79t-48 -229q0 -170 89.5 -280.5t230.5 -110.5q100 0 198 60l39 -64q-91 -86 -178 -141.5t-211 -104.5q-221 0 -363.5 134.5t-142.5 349.5z" />
<glyph unicode="d" horiz-adv-x="1208" d="M59 451q0 231 116.5 374.5t344.5 194.5q46 0 103 -16t92 -39v358l-99 -6l-8 80l346 59l109 4v-1188q0 -60 5.5 -88.5t21.5 -62.5l79 2l9 -78l-387 -72l-66 195l-244 -199q-187 0 -304.5 133.5t-117.5 348.5zM434 539q0 -158 43 -248t117 -90q46 0 96 32l25 17v606 q-37 43 -97 43q-90 0 -137 -95.5t-47 -264.5z" />
<glyph unicode="e" horiz-adv-x="1028" d="M53 449q0 207 128 356.5t390 214.5q183 0 292.5 -104t109.5 -281v-111h-584q17 -139 98.5 -219t200.5 -80q127 0 242 70l41 -66q-94 -93 -184.5 -149.5t-225.5 -110.5q-222 0 -365 133.5t-143 346.5zM383 635q0 -6 1 -18t1 -17l240 10v60q0 123 -26 182t-87 59 q-129 0 -129 -276z" />
<glyph unicode="f" horiz-adv-x="798" d="M47 858v47l39 47h94v21q0 148 148 270l250 211h262v-227h-275l-16 -37q-21 -52 -21 -199v-45h260v-88h-260v-758l179 -22l-5 -80l-393 4l-231 -4l-4 80l106 22v758h-133z" />
<glyph unicode="g" horiz-adv-x="1167" d="M33 -227l246 153q-99 23 -153 84.5t-54 143.5v57l221 149q-98 43 -154.5 123.5t-56.5 180.5q1 60 22.5 108.5t59 84.5t98 66t129 52t160.5 43q297 0 391 -213l82 213h133v-262h-186l-13 -13q9 -24 9 -53q-1 -78 -31 -136.5t-94 -101t-142.5 -72.5t-197.5 -61 q-86 0 -150 21l-47 -57q0 -70 98 -70h437q117 0 184.5 -66.5t67.5 -169.5q0 -70 -30 -130.5t-77.5 -106.5t-127.5 -91t-156.5 -77.5t-188.5 -73.5q-85 0 -153.5 6.5t-130.5 22.5t-104 41.5t-66.5 66t-24.5 93.5v45zM307 -172q0 -63 61 -102t175 -39h133q106 1 159.5 42 t53.5 95q0 43 -29 70.5t-84 27.5h-426q-43 -37 -43 -94zM408 692q0 -289 127 -289q56 0 80 61t24 181q0 291 -127 291q-104 0 -104 -244z" />
<glyph unicode="h" horiz-adv-x="1275" d="M57 1401l365 55l92 2v-647l336 209q156 0 223 -64q36 -35 52 -89t16 -150v-617l102 -22l-6 -80l-266 4l-254 -4l-6 80l69 22v605q0 98 -84 98q-24 0 -50 -9t-44 -19.5t-47 -29.5l-41 -26v-619l70 -22l-6 -80l-244 4l-260 -4l-6 80l98 22v1225l-100 -6z" />
<glyph unicode="i" horiz-adv-x="655" d="M61 934l363 65l92 2v-901l98 -22l-4 -80l-268 4l-268 -4l-4 80l98 22v762l-98 -8zM184 1305l29 129l215 14l76 -14l16 -152l-28 -135l-218 -14l-73 14z" />
<glyph unicode="j" horiz-adv-x="634" d="M-57 -203h211l8 47q14 105 14 265v753l-98 -8l-8 80l362 65l92 2v-823q0 -87 -15.5 -157t-48 -126t-68 -97.5t-89.5 -90.5l-205 -192h-155v282zM188 1305l29 129l215 14l78 -14l14 -152l-28 -135l-215 -14l-76 14z" />
<glyph unicode="k" horiz-adv-x="1273" d="M61 1401l365 55l94 2v-891l29 15l395 307l-141 22v78l213 -2l198 2l7 -78l-136 -22l-407 -303l166 4l350 -492l70 -20l-11 -80l-225 4l-186 -4l-303 491l-19 52v-441l78 -22l-4 -80l-266 4l-250 -4l-4 80l98 22v1225l-102 -6z" />
<glyph unicode="l" horiz-adv-x="645" d="M57 1401l365 55l92 2v-1358l100 -22l-6 -80l-268 4l-266 -4l-6 80l98 22v1225l-100 -6z" />
<glyph unicode="m" horiz-adv-x="1875" d="M61 932l357 67l94 2l6 -188l316 207q139 0 210 -53q70 -51 80 -156l324 209q150 0 223 -64q37 -34 52.5 -86t15.5 -149v-621l102 -22l-4 -80l-258 4l-258 -4l-6 80l63 22v602q0 101 -80 101q-47 0 -137 -58l-31 -24v-621l64 -22l-4 -80l-246 4l-233 -4l-6 80l63 22v602 q0 101 -80 101q-21 0 -47.5 -10.5t-41 -19t-46.5 -28.5l-33 -24v-621l64 -22l-4 -80l-254 4l-248 -4l-4 80l98 22v760l-102 -6z" />
<glyph unicode="n" horiz-adv-x="1282" d="M61 932l365 67l94 2v-188l336 207q153 0 223 -64q38 -35 53 -87.5t15 -151.5v-617l100 -22l-4 -80l-266 4l-254 -4l-6 80l67 22v605q0 98 -82 98q-55 0 -143 -58l-39 -26v-619l68 -22l-4 -80l-246 4l-260 -4l-4 80l98 22v758l-102 -8z" />
<glyph unicode="o" horiz-adv-x="1140" d="M53 467q0 103 31.5 187t81.5 140.5t126.5 102t151.5 72.5t172 51q202 0 336.5 -137.5t134.5 -360.5q0 -75 -16 -139t-44 -113.5t-70.5 -92t-89 -73t-106.5 -56.5t-117 -44t-126 -35q-96 0 -181.5 35.5t-148 99.5t-99 158t-36.5 205zM422 578q0 -251 49 -380.5t117 -129.5 q123 0 123 340q0 256 -48 384t-116 128q-125 0 -125 -342z" />
<glyph unicode="p" horiz-adv-x="1189" d="M31 932l344 65l90 2l18 -182l275 203q72 0 140.5 -32.5t122.5 -90t87 -145t33 -189.5q0 -242 -116.5 -391.5t-383.5 -202.5q-92 0 -156 37v-381l160 -20l-6 -78l-324 4l-272 -4l-4 78l98 20v1237l-98 -6zM485 121q43 -49 103 -49q85 1 131.5 99t46.5 273q0 174 -42.5 259 t-113.5 85q-41 0 -98 -40l-27 -19v-608z" />
<glyph unicode="q" horiz-adv-x="1179" d="M59 432q0 235 132 387t382 201q203 0 353 -72l73 64h64v-1387l106 -20l-6 -78l-268 4l-332 -4l-6 78l158 20v539l-248 -195q-182 0 -295 125.5t-113 337.5zM434 539q0 -155 39.5 -249.5t118.5 -94.5q8 0 15.5 1t16 3.5t13 3.5t14.5 6t11.5 6t13.5 7l12 7l27 19v620 q-38 45 -99 45q-88 0 -135 -97.5t-47 -276.5z" />
<glyph unicode="r" horiz-adv-x="909" d="M61 932l334 67l84 5l29 -355l182 361h193v-338h-267q-12 -6 -28 -24.5t-33.5 -43t-26.5 -33.5l-10 -10v-461l193 -22l-6 -80l-355 4l-276 -4l-4 80l100 22v760l-100 -6z" />
<glyph unicode="s" horiz-adv-x="911" d="M70 369h92l90 -203q97 -100 188 -100q59 0 94 26t35 70q0 43 -26 71.5t-99 71.5l-182 113q-59 33 -98 67.5t-64.5 85.5t-25.5 113q0 119 93.5 201.5t315.5 134.5q87 0 154.5 -10.5t100 -21.5t81.5 -32v-299h-84l-106 199q-62 72 -146 72q-56 0 -88.5 -26.5t-32.5 -67.5 q0 -42 31 -74t119 -82l182 -109q85 -48 127.5 -109t42.5 -149q-2 -132 -100 -214.5t-313 -129.5q-87 0 -186.5 19.5t-174.5 52.5z" />
<glyph unicode="t" horiz-adv-x="813" d="M10 864v41l43 45h107v135l286 177h62v-314h248v-84h-248v-573q0 -59 30 -91t74 -32q70 0 158 45l33 -72l-338 -172q-59 0 -112 16t-97 49t-70 89.5t-26 130.5v610h-150z" />
<glyph unicode="u" horiz-adv-x="1226" d="M31 928l348 69l108 4v-696q0 -57 24.5 -84.5t76.5 -27.5q44 0 106 40l35 21v604l-92 -8l-6 78l336 69l110 4v-718q0 -91 25 -158l76 2l6 -78l-393 -72l-50 193l-311 -201q-163 0 -231 62q-40 35 -56 90t-16 153v584l-92 -8z" />
<glyph unicode="v" horiz-adv-x="1136" d="M10 913l6 76l287 -2l262 2l4 -76l-96 -22l211 -604l8 -90l226 694l-103 22l4 76l172 -2l129 2l6 -76l-94 -22l-297 -858l-289 -72l-358 930z" />
<glyph unicode="w" horiz-adv-x="1792" d="M10 913l6 76l277 -2l252 2l4 -76l-92 -22l194 -619l8 -92l183 557l-54 154l-73 22l6 76l276 -2l252 2l6 -76l-94 -22l195 -619l8 -92l217 711l-98 22l6 76l162 -2l125 2l6 -76l-92 -22l-273 -858l-299 -70l-207 590l-6 74l-192 -594l-299 -70l-330 928z" />
<glyph unicode="x" horiz-adv-x="1218" d="M27 911l4 78l268 -2l315 2l4 -78l-81 -18l153 -225l8 -41l228 266l-84 18l6 78l168 -2l147 2l6 -78l-106 -18l-279 -322l344 -475l80 -18l-6 -80l-252 4l-321 -4l-6 80l90 18l-178 238l-17 43l-242 -281l117 -18l-6 -80l-199 4l-153 -4l-6 80l104 18l307 340l-323 457z " />
<glyph unicode="y" horiz-adv-x="1169" d="M10 911l6 78l287 -2l262 2l6 -78l-98 -18l221 -619l17 -98l227 715l-102 20l4 78l170 -2l143 2l6 -78l-96 -20l-287 -807l-262 -565h-346v309h309l217 291l-284 -99l-322 873z" />
<glyph unicode="z" horiz-adv-x="1052" d="M49 59l518 826l43 30l-280 -12l-137 -280h-82v366h872l18 -55l-503 -825l-43 -35l299 14l145 315h90l-28 -403h-893z" />
<glyph unicode="{" horiz-adv-x="727" d="M92 530v15q39 16 65 36.5t40 39.5t21 50t8 53t1 64v390q0 126 97 206t231 80h98v-78h-63q-132 0 -129 -215l6 -366q1 -44 -3.5 -75.5t-18.5 -67t-46 -64t-82 -49.5l150 -119l-6 -608q-3 -215 131 -215h63v-78h-116q-133 0 -222.5 79.5t-89.5 207.5v583z" />
<glyph unicode="|" horiz-adv-x="559" d="M225 -502v1972h109v-1972h-109z" />
<glyph unicode="}" horiz-adv-x="727" d="M72 1386v78h106q134 0 228 -79.5t94 -206.5v-494l135 -129v-14q-33 -13 -56.5 -28.5t-38 -35.5t-23 -36.5t-12 -44t-4.5 -46t-1 -53.5v-481q0 -127 -92.5 -207t-225.5 -80h-108v78h63q132 0 129 215q-6 264 -6 459q-1 44 3.5 75.5t18.5 66.5t46 63.5t82 50.5l-152 116 l8 518q3 215 -131 215h-63z" />
<glyph unicode="~" horiz-adv-x="1370" d="M102 420l76 164l201 80l715 -136l96 117h78l-78 -168l-195 -76l-719 136l-96 -117h-78z" />
<glyph unicode="&#xa1;" horiz-adv-x="661" d="M145 -475l29 653l82 332h150l81 -330l27 -655h-369zM170 842l25 137l211 14l75 -14l15 -160l-21 -133l-211 -16l-76 16z" />
<glyph unicode="&#xa2;" horiz-adv-x="1028" d="M82 453q0 191 111.5 323t298.5 201v147h112v-110l21 6q192 0 331 -109v-276h-288l-54 270q-20 13 -39 13q-60 0 -107.5 -79t-47.5 -229q0 -171 88 -281t231 -110q101 0 199 60l39 -64q-52 -50 -135.5 -104.5t-123 -76.5t-110.5 -59v-139h-112v141q-185 28 -299.5 156 t-114.5 320z" />
<glyph unicode="&#xa3;" horiz-adv-x="1167" d="M82 682v37l68 57h75v264q0 72 35 136t89 109t127.5 82t142.5 59.5t141 37.5q201 0 299 -82v-297h-103l-71 222q-28 32 -58 47.5t-79 15.5q-44 0 -76.5 -16.5t-50 -41t-28 -63t-13 -72.5t-2.5 -79v-322h268v-94h-268v-324q0 -64 -7 -112t-20.5 -77.5t-23.5 -43.5t-27 -31 l364 4l129 250h92l-26 -350l-658 4l-305 -4l-6 59l135 56v569h-143z" />
<glyph unicode="&#xa4;" d="M166 334l125 127q-82 108 -82 256q0 156 96 272q-18 20 -135 137l72 72l137 -137q115 88 260 88q138 0 258 -86l133 133l74 -74l-133 -131q100 -117 100 -274q0 -143 -90 -260l125 -121l-74 -72l-119 119q-120 -96 -274 -96q-159 0 -277 98l-122 -125zM315 717 q0 -134 95.5 -231t228.5 -97t228.5 97t95.5 231t-95.5 232t-228.5 98t-228.5 -98t-95.5 -232z" />
<glyph unicode="&#xa5;" horiz-adv-x="1460" d="M41 1360l6 78l334 -4l340 4l4 -78l-135 -23l280 -616l4 -76l314 692l-148 23l7 78l190 -4l178 2l4 -76l-119 -23l-364 -770v-10h256v-78h-262v-133h262v-76h-262v-170l198 -22l-4 -80l-381 4l-378 -4l-7 80l201 22v170h-244v76h244v133h-244v78h238v6l-391 774z" />
<glyph unicode="&#xa6;" horiz-adv-x="559" d="M225 379h109v-881h-109v881zM225 590v880h109v-880h-109z" />
<glyph unicode="&#xa7;" horiz-adv-x="1204" d="M82 469q0 106 69 188.5t187 122.5q-143 120 -143 283q0 311 456 407q221 0 338 -96v-270h-106l-68 205q-57 75 -160 75q-79 0 -124.5 -45t-45.5 -129q0 -80 47 -148.5t154 -137.5l436 -273v-94q0 -284 -260 -424q4 -5 63 -55.5t62 -59.5q10 -27 10 -94q0 -172 -117 -272 t-356 -154q-100 0 -191.5 29t-146.5 70v282h105l49 -184q16 -22 29 -36.5t36.5 -34t54.5 -30t68 -10.5q75 0 128.5 58t52.5 165q0 61 -326 265q-301 199 -301 397zM348 600q0 -77 60 -137t198 -148l187 -120q69 69 69 184v31l-311 206q-22 14 -80 55t-70 52 q-53 -44 -53 -123z" />
<glyph unicode="&#xa8;" horiz-adv-x="1024" d="M176 1346l25 108l164 12l65 -12l16 -129l-28 -113l-158 -12l-70 12zM578 1346l26 108l160 12l67 -12l17 -129l-27 -113l-162 -12l-67 12z" />
<glyph unicode="&#xa9;" horiz-adv-x="1728" d="M102 729q0 158 54.5 286.5t155.5 218.5t239 147.5t311 82.5q154 -2 291.5 -54t243 -146.5t167.5 -239t62 -319.5q0 -158 -54 -286.5t-155 -218.5t-239 -148t-312 -83q-154 2 -291.5 54t-243 147t-167.5 239.5t-62 319.5zM262 729q0 -133 39 -247t102 -191t142.5 -131.5 t160 -79.5t156.5 -25q121 0 230 44.5t192.5 126t132.5 206t49 273.5q0 134 -39 248t-101.5 190.5t-142 131t-160.5 79t-157 24.5q-120 0 -229 -44.5t-192.5 -125.5t-133 -205.5t-49.5 -273.5zM430 694q0 201 127.5 310t370.5 141q155 0 282 -72v-231h-59l-80 168 q-30 37 -64.5 57t-88.5 20q-101 0 -164.5 -94t-63.5 -264t61.5 -274.5t168.5 -104.5q82 0 155 70l88 188h58l-9 -239q-159 -63 -319 -78q-94 0 -176.5 25.5t-147 74t-102 127t-37.5 176.5z" />
<glyph unicode="&#xaa;" horiz-adv-x="976" d="M82 854q0 115 86 180l358 105v135q0 63 -17 85.5t-58 22.5q-37 0 -64 -14l-25 -205h-249v164l358 137q110 0 170.5 -13t99.5 -44q68 -59 68 -182v-330q0 -68 16 -127l74 4l6 -61l-321 -68l-49 131l-199 -133q-110 0 -182 56.5t-72 156.5zM365 907q0 -58 21 -90.5 t52 -32.5q33 0 66 25l22 14v260l-114 -43q-47 -41 -47 -133z" />
<glyph unicode="&#xab;" horiz-adv-x="1044" d="M31 481l375 451h139l-262 -453l262 -448h-144zM469 481l375 451h139l-262 -453l262 -448h-143z" />
<glyph unicode="&#xac;" d="M106 625v118h1055v-374h-119v256h-936z" />
<glyph unicode="&#xad;" horiz-adv-x="747" d="M61 520v129h625v-129h-625z" />
<glyph unicode="&#xae;" horiz-adv-x="1222" d="M92 899q0 215 138 342t380 162q142 -1 258.5 -61t189 -179.5t72.5 -279.5q0 -214 -137.5 -341.5t-378.5 -162.5q-142 1 -259.5 61.5t-190 180t-72.5 278.5zM188 899q0 -95 27.5 -175.5t72 -133.5t100.5 -90.5t112.5 -54.5t109.5 -17q85 0 161 30t135 86t93.5 144 t34.5 195q0 96 -27.5 176.5t-71.5 134t-100 90.5t-112 53.5t-109 16.5q-85 0 -161.5 -30t-135.5 -86t-94 -144t-35 -195zM352 649l47 6v480l-47 6l2 30l119 -2l201 2q73 0 122.5 -36t49.5 -101q0 -63 -55.5 -100.5t-155.5 -48.5l135 -37l109 -191l32 -8l-2 -33l-108 2 l-78 -2l-133 254l-4 4h-33v-219l49 -6l-2 -33l-123 2l-123 -2zM553 909h35q41 0 66.5 32t25.5 87q0 52 -24 82.5t-62 30.5l-41 -4v-228z" />
<glyph unicode="&#xaf;" horiz-adv-x="1024" d="M207 1235v151h610v-151h-610z" />
<glyph unicode="&#xb0;" horiz-adv-x="880" d="M113 1217q0 130 80.5 205.5t248.5 119.5q142 0 234 -94.5t92 -230.5q0 -135 -77.5 -212.5t-248.5 -115.5q-143 0 -236 96t-93 232zM254 1212q0 -87 54.5 -141.5t133.5 -54.5q78 0 131.5 54.5t53.5 141.5q0 89 -54 146t-131 57q-79 0 -133.5 -57t-54.5 -146z" />
<glyph unicode="&#xb1;" d="M102 0v121h1055v-121h-1055zM106 729v119h467v475h119v-475h469v-119h-469v-461h-119v461h-467z" />
<glyph unicode="&#xb2;" horiz-adv-x="768" d="M31 858l209 215q198 198 198 354q0 59 -22.5 96.5t-61.5 37.5q-23 0 -59 -9l-41 -188h-195v160l332 102q140 0 216.5 -57t76.5 -148q0 -101 -77.5 -186.5t-237.5 -175.5l-185 -105l99 29h413v-45l-49 -119h-592z" />
<glyph unicode="&#xb3;" horiz-adv-x="720" d="M51 1382v148l340 96q126 0 181 -40t55 -101q0 -58 -53.5 -101t-180.5 -69q73 -2 127 -19t83 -44t42.5 -55.5t13.5 -59.5q0 -22 -6.5 -42t-15.5 -35.5t-28.5 -31.5t-34 -26.5t-43.5 -25.5t-46 -23t-52.5 -24t-53.5 -24l-201 -90h-112v170h329q21 49 21 98q0 61 -44.5 98 t-127.5 36l-11 36l62 39q54 28 76 62.5t22 91.5q0 50 -21.5 79t-56.5 29q-21 0 -34 -8l-41 -164h-189z" />
<glyph unicode="&#xb4;" horiz-adv-x="1024" d="M317 1157l86 363h291l-268 -363h-109z" />
<glyph unicode="&#xb5;" d="M113 -471v1460h356v-690q0 -106 94 -106q43 0 101 38l36 23v735h349v-805q0 -29 11 -50.5t32.5 -33.5t33 -16.5t31.5 -9.5l-10 -74h-334l-102 168l-275 -199q-138 0 -205 70v-111l205 -399h-323z" />
<glyph unicode="&#xb6;" horiz-adv-x="1107" d="M61 1075q0 209 355 359h610v-82l-102 -21v-1659h-121v1667h-228v-1667h-120v1078q-75 0 -145 21.5t-126 61t-89.5 102.5t-33.5 140z" />
<glyph unicode="&#xb7;" horiz-adv-x="532" d="M113 836l14 125l199 18l75 -18l19 -144l-19 -131l-198 -12l-76 12z" />
<glyph unicode="&#xb8;" horiz-adv-x="1024" d="M274 -510l68 111h156q43 37 43 108q0 107 -115 115l160 229l63 -20l-78 -121q82 -6 126 -47t42 -103q0 -23 -5 -43.5t-17.5 -38t-24 -31t-32.5 -27.5l-34.5 -23t-40.5 -21t-39 -17t-40 -16l-135 -55h-97z" />
<glyph unicode="&#xb9;" horiz-adv-x="614" d="M51 1497l311 121h84v-737l148 -15l-2 -47l-260 2l-262 -2l-2 47l145 15v600l10 20l-33 -22l-118 -27z" />
<glyph unicode="&#xba;" horiz-adv-x="950" d="M72 1034q0 81 24.5 146.5t63.5 109.5t99 79t118.5 56t134.5 39q159 0 263 -106t104 -281q0 -81 -24.5 -146.5t-64 -109.5t-99.5 -79.5t-119 -56.5t-136 -40q-156 0 -260 107t-104 282zM360 1120q0 -197 37.5 -297t91.5 -100q97 0 97 264q0 199 -38 300.5t-91 101.5 q-97 0 -97 -269z" />
<glyph unicode="&#xbb;" horiz-adv-x="1044" d="M61 31l263 448l-263 453h142l372 -451l-370 -450h-144zM500 31l262 448l-262 453h141l373 -451l-371 -450h-143z" />
<glyph unicode="&#xbc;" horiz-adv-x="1753" d="M72 1323l311 121h84v-737l147 -15l-2 -47l-260 2l-262 -2l-2 47l145 15v600l11 20l-33 -22l-119 -27zM393 -102l793 1556h114l-788 -1556h-119zM985 268l383 520h227v-55l-522 -452l33 14h219v108l195 123h20v-231h141v-88h-141v-207h-215v207h-303z" />
<glyph unicode="&#xbd;" horiz-adv-x="1742" d="M72 1323l311 121h84v-737l147 -15l-2 -47l-260 2l-262 -2l-2 47l145 15v600l11 20l-33 -22l-119 -27zM393 -102l793 1556h114l-788 -1556h-119zM1006 39l208 215q197 200 197 354q0 60 -22.5 96.5t-61.5 36.5q-27 0 -59 -8l-39 -188h-197v160l334 102q140 0 216.5 -57 t76.5 -148q0 -100 -78.5 -186t-239.5 -176l-184 -105l98 29h416v-45l-51 -119h-590z" />
<glyph unicode="&#xbe;" horiz-adv-x="1798" d="M72 1208v148l340 96q126 0 180.5 -39.5t54.5 -101.5q0 -122 -233 -170q73 -2 127 -19t83 -44t42.5 -55.5t13.5 -59.5q0 -22 -6.5 -42t-16 -35.5t-28.5 -31.5t-33.5 -26.5t-43.5 -25.5t-46.5 -23t-53 -24t-53.5 -24l-200 -90h-113v170h330q20 47 20 98q0 61 -44.5 97.5 t-127.5 35.5l-10 37l61 39q54 28 76.5 62.5t22.5 91.5q0 50 -22 79t-56 29q-22 0 -35 -8l-41 -164h-188zM438 -102l793 1556h115l-789 -1556h-119zM1030 268l385 520h225v-55l-522 -452l33 14h219v108l195 123h20v-231h141v-88h-141v-207h-215v207h-303z" />
<glyph unicode="&#xbf;" horiz-adv-x="919" d="M41 -115q0 77 31 140t88.5 108t121 76.5t146.5 58.5l47 19l29 231h104l15 -252l-70 -47q-154 -123 -154 -369q0 -113 42 -178t118 -73l111 241h127v-299l-281 -24q-232 26 -353.5 121t-121.5 247zM397 836l25 137l211 14l74 -14l14 -160l-21 -133l-211 -18l-75 18z" />
<glyph unicode="&#xc0;" horiz-adv-x="1478" d="M10 78l105 22l452 1278l328 92l459 -1372l114 -20l-4 -80l-368 4l-293 -4l-6 80l143 22l-119 371h-463l-125 -371l150 -22l-4 -80l-191 4l-172 -4zM387 559h406l-187 596l-2 59zM422 1860h305l88 -281h-119z" />
<glyph unicode="&#xc1;" horiz-adv-x="1478" d="M10 78l105 22l452 1278l328 92l459 -1372l114 -20l-4 -80l-368 4l-293 -4l-6 80l143 22l-119 371h-463l-125 -371l150 -22l-4 -80l-191 4l-172 -4zM387 559h406l-187 596l-2 59zM631 1579l88 281h305l-272 -281h-121z" />
<glyph unicode="&#xc2;" horiz-adv-x="1478" d="M10 78l105 22l452 1278l328 92l459 -1372l114 -20l-4 -80l-368 4l-293 -4l-6 80l143 22l-119 371h-463l-125 -371l150 -22l-4 -80l-191 4l-172 -4zM387 559h406l-187 596l-2 59zM391 1579l256 283h172l256 -283h-129l-188 119l-25 28l-26 -28l-187 -119h-129z" />
<glyph unicode="&#xc3;" horiz-adv-x="1478" d="M10 78l105 22l452 1278l328 92l459 -1372l114 -20l-4 -80l-368 4l-293 -4l-6 80l143 22l-119 371h-463l-125 -371l150 -22l-4 -80l-191 4l-172 -4zM371 1561l69 264l117 35l416 -119l76 117h57l-70 -271l-116 -28l-418 122l-74 -120h-57zM387 559h406l-187 596l-2 59z " />
<glyph unicode="&#xc4;" horiz-adv-x="1478" d="M10 78l105 22l452 1278l328 92l459 -1372l114 -20l-4 -80l-368 4l-293 -4l-6 80l143 22l-119 371h-463l-125 -371l150 -22l-4 -80l-191 4l-172 -4zM369 1708l24 109l162 14l66 -14l16 -129l-27 -111l-159 -12l-70 12zM387 559h406l-187 596l-2 59zM854 1708l25 109 l161 14l68 -14l14 -129l-26 -111l-160 -12l-68 12z" />
<glyph unicode="&#xc5;" horiz-adv-x="1478" d="M10 78l105 22l452 1278l328 92l459 -1372l114 -20l-4 -80l-368 4l-293 -4l-6 80l143 22l-119 371h-463l-125 -371l150 -22l-4 -80l-191 4l-172 -4zM387 559h406l-187 596l-2 59zM477 1737q0 51 19.5 89t58.5 64t76.5 42t93.5 32q246 0 246 -225q0 -44 -13 -78t-33 -56 t-54 -40.5t-65 -29t-77 -22.5q-48 0 -91 12t-80 36.5t-59 70t-22 105.5zM586 1737q0 -60 39.5 -97.5t99.5 -37.5q61 0 101 38t40 97q0 60 -40.5 100.5t-100.5 40.5t-99.5 -40.5t-39.5 -100.5z" />
<glyph unicode="&#xc6;" horiz-adv-x="2107" d="M10 76l111 20l862 1340l217 -2l823 2l13 -389h-76l-148 294l-428 5v-609l205 4l92 242h74l-10 -291l10 -291h-74l-92 242l-205 4v-557l437 4l153 307h76l-37 -403l-823 4l-297 -4l-4 80l123 22v547h-414l-344 -549l145 -22l-4 -76l-209 4l-170 -4zM645 731h367v590z" />
<glyph unicode="&#xc7;" horiz-adv-x="1449" d="M63 676q0 354 213.5 546t622.5 248q256 0 475 -112v-404h-102l-125 285q-46 62 -108 96.5t-156 34.5q-174 0 -285 -167t-111 -468q0 -195 47 -345.5t139 -237t216 -86.5q82 0 144 31t122 93l139 316h97l-15 -416q-129 -50 -246 -79t-288 -48l-39 -51q82 -6 126 -47 t44 -103q0 -26 -9 -49.5t-20 -40.5t-33.5 -35t-37.5 -28.5t-45.5 -25t-44.5 -20t-46 -18.5l-135 -55h-96l67 111h156q43 37 43 108q0 107 -115 115l107 143q-145 10 -270.5 60t-222.5 136.5t-152.5 218.5t-55.5 294z" />
<glyph unicode="&#xc8;" horiz-adv-x="1292" d="M53 78l125 22v1235l-125 23l6 78l283 -4l877 4l10 -406h-86l-148 311l-436 2v-544l207 4l94 241h84l-10 -290l10 -291h-84l-94 242l-207 4v-619l451 4l147 324h86l-31 -420l-872 4l-281 -4zM397 1860h305l89 -281h-121z" />
<glyph unicode="&#xc9;" horiz-adv-x="1292" d="M53 78l125 22v1235l-125 23l6 78l283 -4l877 4l10 -406h-86l-148 311l-436 2v-544l207 4l94 241h84l-10 -290l10 -291h-84l-94 242l-207 4v-619l451 4l147 324h86l-31 -420l-872 4l-281 -4zM578 1579l86 281h307l-275 -281h-118z" />
<glyph unicode="&#xca;" horiz-adv-x="1292" d="M53 78l125 22v1235l-125 23l6 78l283 -4l877 4l10 -406h-86l-148 311l-436 2v-544l207 4l94 241h84l-10 -290l10 -291h-84l-94 242l-207 4v-619l451 4l147 324h86l-31 -420l-872 4l-281 -4zM332 1579l256 283h172l258 -283h-131l-187 119l-26 28l-25 -28l-188 -119h-129z " />
<glyph unicode="&#xcb;" horiz-adv-x="1292" d="M53 78l125 22v1235l-125 23l6 78l283 -4l877 4l10 -406h-86l-148 311l-436 2v-544l207 4l94 241h84l-10 -290l10 -291h-84l-94 242l-207 4v-619l451 4l147 324h86l-31 -420l-872 4l-281 -4zM311 1708l25 109l162 14l67 -14l17 -129l-29 -111l-160 -12l-67 12zM797 1708 l24 109l162 14l68 -14l16 -129l-29 -111l-159 -12l-68 12z" />
<glyph unicode="&#xcc;" horiz-adv-x="737" d="M53 78l125 22v1235l-125 23l6 78l310 -4l309 4l6 -78l-125 -23v-1235l125 -22l-6 -80l-309 4l-310 -4zM82 1860h307l86 -281h-119z" />
<glyph unicode="&#xcd;" horiz-adv-x="737" d="M53 78l125 22v1235l-125 23l6 78l310 -4l309 4l6 -78l-125 -23v-1235l125 -22l-6 -80l-309 4l-310 -4zM299 1579l88 281h305l-272 -281h-121z" />
<glyph unicode="&#xce;" horiz-adv-x="737" d="M27 1579l256 283h172l258 -283h-131l-187 119l-26 28l-25 -28l-188 -119h-129zM53 78l125 22v1235l-125 23l6 78l310 -4l309 4l6 -78l-125 -23v-1235l125 -22l-6 -80l-309 4l-310 -4z" />
<glyph unicode="&#xcf;" horiz-adv-x="737" d="M33 1708l24 109l162 14l68 -14l16 -129l-29 -111l-159 -12l-68 12zM53 78l125 22v1235l-125 23l6 78l310 -4l309 4l6 -78l-125 -23v-1235l125 -22l-6 -80l-309 4l-310 -4zM440 1708l25 109l162 14l67 -14l15 -129l-27 -111l-160 -12l-67 12z" />
<glyph unicode="&#xd0;" horiz-adv-x="1542" d="M53 78l127 22v605h-110v79h110v551l-127 23l6 78l263 -4l450 4q340 1 523.5 -178t183.5 -504q0 -154 -40.5 -281.5t-124.5 -228.5t-222.5 -165t-323.5 -81l-442 4l-267 -4zM561 94l154 -16q111 -4 194.5 84.5t125.5 237t42 333.5q0 186 -43.5 326.5t-133 220.5t-214.5 76 l-125 -15v-557h217v-79h-217v-611z" />
<glyph unicode="&#xd1;" horiz-adv-x="1443" d="M53 78l125 22v1235l-125 23l6 78l156 -4l328 4l610 -813l33 -107v819l-133 23l2 78l188 -4l174 4l6 -78l-125 -23v-1343h-178l-801 1122l-28 109v-1123l133 -22l-2 -80l-189 4l-174 -4zM422 1561l70 264l116 35l416 -119l76 117h57l-70 -271l-116 -28l-418 122l-74 -120 h-57z" />
<glyph unicode="&#xd2;" horiz-adv-x="1642" d="M63 684q0 334 182 516t601 270q221 0 388 -91.5t256 -254t89 -372.5q0 -336 -181.5 -518.5t-600.5 -270.5q-166 0 -304 53t-232 148t-146 228.5t-52 291.5zM487 762q0 -191 42.5 -346t127 -249.5t197.5 -94.5q104 0 173 82.5t98.5 214t29.5 305.5q0 189 -41.5 344 t-125 250.5t-195.5 95.5q-104 0 -174.5 -82.5t-101 -214.5t-30.5 -305zM512 1860h305l88 -281h-119z" />
<glyph unicode="&#xd3;" horiz-adv-x="1642" d="M63 684q0 334 182 516t601 270q221 0 388 -91.5t256 -254t89 -372.5q0 -336 -181.5 -518.5t-600.5 -270.5q-166 0 -304 53t-232 148t-146 228.5t-52 291.5zM487 762q0 -191 42.5 -346t127 -249.5t197.5 -94.5q104 0 173 82.5t98.5 214t29.5 305.5q0 189 -41.5 344 t-125 250.5t-195.5 95.5q-104 0 -174.5 -82.5t-101 -214.5t-30.5 -305zM760 1579l86 281h307l-274 -281h-119z" />
<glyph unicode="&#xd4;" horiz-adv-x="1642" d="M63 684q0 334 182 516t601 270q221 0 388 -91.5t256 -254t89 -372.5q0 -336 -181.5 -518.5t-600.5 -270.5q-166 0 -304 53t-232 148t-146 228.5t-52 291.5zM487 762q0 -191 42.5 -346t127 -249.5t197.5 -94.5q104 0 173 82.5t98.5 214t29.5 305.5q0 189 -41.5 344 t-125 250.5t-195.5 95.5q-104 0 -174.5 -82.5t-101 -214.5t-30.5 -305zM489 1579l256 283h173l256 -283h-130l-186 119l-27 28l-26 -28l-187 -119h-129z" />
<glyph unicode="&#xd5;" horiz-adv-x="1642" d="M63 684q0 334 182 516t601 270q221 0 388 -91.5t256 -254t89 -372.5q0 -336 -181.5 -518.5t-600.5 -270.5q-166 0 -304 53t-232 148t-146 228.5t-52 291.5zM465 1561l67 264l119 35l416 -119l74 117h59l-70 -271l-116 -28l-420 122l-72 -120h-57zM487 762 q0 -191 42.5 -346t127 -249.5t197.5 -94.5q104 0 173 82.5t98.5 214t29.5 305.5q0 189 -41.5 344t-125 250.5t-195.5 95.5q-104 0 -174.5 -82.5t-101 -214.5t-30.5 -305z" />
<glyph unicode="&#xd6;" horiz-adv-x="1642" d="M63 684q0 334 182 516t601 270q221 0 388 -91.5t256 -254t89 -372.5q0 -336 -181.5 -518.5t-600.5 -270.5q-166 0 -304 53t-232 148t-146 228.5t-52 291.5zM455 1708l24 109l162 14l66 -14l16 -129l-27 -111l-159 -12l-70 12zM487 762q0 -191 42.5 -346t127 -249.5 t197.5 -94.5q104 0 173 82.5t98.5 214t29.5 305.5q0 189 -41.5 344t-125 250.5t-195.5 95.5q-104 0 -174.5 -82.5t-101 -214.5t-30.5 -305zM940 1708l25 109l161 14l68 -14l14 -129l-26 -111l-160 -12l-68 12z" />
<glyph unicode="&#xd7;" d="M215 772l84 86l338 -338l332 334l84 -86l-332 -332l330 -327l-86 -86l-328 329l-332 -334l-86 86l334 332z" />
<glyph unicode="&#xd8;" horiz-adv-x="1642" d="M63 684q0 334 182 516t601 270q265 0 452 -133l107 127h127l-160 -188q207 -198 207 -524q0 -336 -181.5 -518.5t-600.5 -270.5q-255 0 -437 121l-96 -115h-131l150 176q-106 96 -163 234.5t-57 304.5zM487 762q0 -190 39 -332l561 662q-46 127 -121 199.5t-173 72.5 q-104 0 -174.5 -82.5t-101 -214.5t-30.5 -305zM561 322q49 -119 123 -184.5t170 -65.5q104 0 173 82.5t98.5 214t29.5 305.5q0 152 -33 307z" />
<glyph unicode="&#xd9;" horiz-adv-x="1454" d="M33 1358l4 78l285 -4l329 4l6 -78l-118 -23v-835q0 -174 84 -277.5t233 -103.5q147 0 232.5 104t85.5 277v835l-140 23l4 78l203 -4l189 4l4 -78l-129 -23v-835q0 -102 -22 -179.5t-76.5 -148.5t-156 -123t-251.5 -86q-326 0 -484.5 142.5t-158.5 392.5v837zM528 1860 h306l88 -281h-119z" />
<glyph unicode="&#xda;" horiz-adv-x="1454" d="M33 1358l4 78l285 -4l329 4l6 -78l-118 -23v-835q0 -174 84 -277.5t233 -103.5q147 0 232.5 104t85.5 277v835l-140 23l4 78l203 -4l189 4l4 -78l-129 -23v-835q0 -102 -22 -179.5t-76.5 -148.5t-156 -123t-251.5 -86q-326 0 -484.5 142.5t-158.5 392.5v837zM758 1579 l88 281h305l-274 -281h-119z" />
<glyph unicode="&#xdb;" horiz-adv-x="1454" d="M33 1358l4 78l285 -4l329 4l6 -78l-118 -23v-835q0 -174 84 -277.5t233 -103.5q147 0 232.5 104t85.5 277v835l-140 23l4 78l203 -4l189 4l4 -78l-129 -23v-835q0 -102 -22 -179.5t-76.5 -148.5t-156 -123t-251.5 -86q-326 0 -484.5 142.5t-158.5 392.5v837zM481 1579 l258 283h172l256 -283h-129l-188 119l-25 28l-26 -28l-187 -119h-131z" />
<glyph unicode="&#xdc;" horiz-adv-x="1454" d="M33 1358l4 78l285 -4l329 4l6 -78l-118 -23v-835q0 -174 84 -277.5t233 -103.5q147 0 232.5 104t85.5 277v835l-140 23l4 78l203 -4l189 4l4 -78l-129 -23v-835q0 -102 -22 -179.5t-76.5 -148.5t-156 -123t-251.5 -86q-326 0 -484.5 142.5t-158.5 392.5v837zM453 1708 l24 109l162 14l66 -14l16 -129l-27 -111l-159 -12l-70 12zM938 1708l25 109l161 14l68 -14l14 -129l-26 -111l-160 -12l-68 12z" />
<glyph unicode="&#xdd;" horiz-adv-x="1474" d="M10 1358l6 78l334 -4l340 4l6 -78l-141 -23l330 -622l-4 -58l352 680l-148 23l7 78l196 -4l170 4l6 -78l-118 -23l-404 -766v-469l199 -22l-6 -80l-385 4l-385 -4l-5 80l199 22v463l-428 772zM825 1579l88 281h306l-275 -281h-119z" />
<glyph unicode="&#xde;" horiz-adv-x="1210" d="M29 78l123 22v1235l-123 23l4 78l307 -4l367 4l6 -78l-178 -23v-188l274 2q89 1 166.5 -22t138.5 -67.5t96 -117.5t35 -166q0 -59 -17 -109.5t-42.5 -88.5t-71 -72.5t-88 -58t-108 -48t-116 -40.5t-126.5 -37h-141v-222l176 -22l-4 -80l-363 4l-311 -4zM535 416h92 q90 0 152.5 92t62.5 246q0 142 -61 229.5t-154 87.5l-92 -8v-647z" />
<glyph unicode="&#xdf;" horiz-adv-x="1384" d="M51 858v47l41 45l92 2v35q0 104 73.5 205t215.5 164l256 114q232 0 365.5 -72.5t132.5 -211.5q0 -110 -99.5 -193.5t-267.5 -136.5q2 -26 12 -47t36.5 -44.5t47.5 -38t72 -48.5l152 -103q163 -110 163 -260q0 -133 -96 -213.5t-301 -138.5q-163 0 -319 68l-9 303h80 l84 -195q74 -78 142 -78q56 0 89.5 33.5t33.5 89.5q0 86 -117 181l-150 112q-86 60 -122.5 124t-39.5 175l119 90q127 107 127 295q0 91 -38.5 150t-106.5 59q-90 0 -135 -77t-45 -208v-1087l-195 4l-260 -4l-6 80l106 18v762h-133z" />
<glyph unicode="&#xe0;" horiz-adv-x="1118" d="M57 242q0 69 28 128.5t81 98.5l457 135v172q0 80 -21.5 109.5t-73.5 29.5q-43 0 -84 -20l-30 -260h-318v209l457 176q233 0 331.5 -64.5t98.5 -240.5v-420q0 -97 23 -162l90 4l12 -78l-412 -86l-61 166l-254 -170q-140 0 -232 73t-92 200zM299 1520h291l82 -363h-109z M416 309q0 -73 28.5 -114t67.5 -41q37 0 86 30l25 17v334l-146 -56q-61 -58 -61 -170z" />
<glyph unicode="&#xe1;" horiz-adv-x="1118" d="M57 242q0 69 28 128.5t81 98.5l457 135v172q0 80 -21.5 109.5t-73.5 29.5q-43 0 -84 -20l-30 -260h-318v209l457 176q233 0 331.5 -64.5t98.5 -240.5v-420q0 -97 23 -162l90 4l12 -78l-412 -86l-61 166l-254 -170q-140 0 -232 73t-92 200zM416 309q0 -73 28.5 -114 t67.5 -41q37 0 86 30l25 17v334l-146 -56q-61 -58 -61 -170zM471 1157l84 363h291l-264 -363h-111z" />
<glyph unicode="&#xe2;" horiz-adv-x="1118" d="M57 242q0 69 28 128.5t81 98.5l457 135v172q0 80 -21.5 109.5t-73.5 29.5q-43 0 -84 -20l-30 -260h-318v209l457 176q233 0 331.5 -64.5t98.5 -240.5v-420q0 -97 23 -162l90 4l12 -78l-412 -86l-61 166l-254 -170q-140 0 -232 73t-92 200zM248 1157l239 365h134l239 -365 h-104l-181 162l-22 29l-21 -29l-180 -162h-104zM416 309q0 -73 28.5 -114t67.5 -41q37 0 86 30l25 17v334l-146 -56q-61 -58 -61 -170z" />
<glyph unicode="&#xe3;" horiz-adv-x="1118" d="M57 242q0 69 28 128.5t81 98.5l457 135v172q0 80 -21.5 109.5t-73.5 29.5q-43 0 -84 -20l-30 -260h-318v209l457 176q233 0 331.5 -64.5t98.5 -240.5v-420q0 -97 23 -162l90 4l12 -78l-412 -86l-61 166l-254 -170q-140 0 -232 73t-92 200zM188 1182l70 262l117 35 l416 -119l75 119h58l-70 -271l-117 -28l-418 120l-73 -118h-58zM416 309q0 -73 28.5 -114t67.5 -41q37 0 86 30l25 17v334l-146 -56q-61 -58 -61 -170z" />
<glyph unicode="&#xe4;" horiz-adv-x="1118" d="M57 242q0 69 28 128.5t81 98.5l457 135v172q0 80 -21.5 109.5t-73.5 29.5q-43 0 -84 -20l-30 -260h-318v209l457 176q233 0 331.5 -64.5t98.5 -240.5v-420q0 -97 23 -162l90 4l12 -78l-412 -86l-61 166l-254 -170q-140 0 -232 73t-92 200zM236 1346l22 108l164 12l65 -12 l17 -129l-29 -113l-158 -12l-69 12zM416 309q0 -73 28.5 -114t67.5 -41q37 0 86 30l25 17v334l-146 -56q-61 -58 -61 -170zM635 1346l27 108l159 12l68 -12l16 -129l-26 -113l-162 -12l-68 12z" />
<glyph unicode="&#xe5;" horiz-adv-x="1118" d="M57 242q0 69 28 128.5t81 98.5l457 135v172q0 80 -21.5 109.5t-73.5 29.5q-43 0 -84 -20l-30 -260h-318v209l457 176q233 0 331.5 -64.5t98.5 -240.5v-420q0 -97 23 -162l90 4l12 -78l-412 -86l-61 166l-254 -170q-140 0 -232 73t-92 200zM315 1348q0 41 14 74.5t35.5 56 t56 41.5t65.5 30.5t75 24.5q246 0 246 -227q0 -44 -13 -78t-32.5 -55.5t-54 -39.5t-64.5 -28.5t-76 -22.5q-105 0 -178.5 54t-73.5 170zM416 309q0 -73 28.5 -114t67.5 -41q37 0 86 30l25 17v334l-146 -56q-61 -58 -61 -170zM422 1348q0 -60 39.5 -99t99.5 -39t100.5 39 t40.5 99t-40.5 100.5t-100.5 40.5t-99.5 -40.5t-39.5 -100.5z" />
<glyph unicode="&#xe6;" horiz-adv-x="1581" d="M57 242q0 69 28 128.5t81 98.5l455 135v172q0 81 -17 109t-65 28q-51 0 -97 -18l-30 -242h-312v191l443 176q153 0 235 -20t127 -72q86 54 230 92q179 0 284 -109.5t105 -289.5v-97h-586v-6q13 -142 96 -219.5t207 -77.5q133 0 242 66l43 -66q-89 -88 -179.5 -145 t-216.5 -107q-140 0 -252 54t-178 155l-319 -209q-140 0 -232 73t-92 200zM416 309q0 -73 28.5 -114t67.5 -41q37 0 86 30l25 17v334l-146 -56q-61 -58 -61 -170zM934 604l258 10q0 158 -25 225.5t-90 67.5q-67 0 -105 -73.5t-38 -200.5v-29z" />
<glyph unicode="&#xe7;" horiz-adv-x="999" d="M53 453q0 115 42.5 211.5t118.5 165t171.5 115.5t210.5 75q193 0 332 -109v-276h-289l-53 270q-20 13 -39 13q-60 0 -108 -79t-48 -229q0 -170 89.5 -280.5t230.5 -110.5q100 0 198 60l39 -64q-91 -86 -178 -141.5t-211 -104.5l-37 -57q83 -6 125.5 -46.5t40.5 -103.5 q0 -23 -5 -43.5t-17.5 -38t-24 -31t-32.5 -27.5l-34.5 -23t-40.5 -21t-39 -17t-40 -16l-138 -55h-94l68 111h153q45 39 45 108q0 107 -112 115l106 151q-193 24 -311.5 153t-118.5 325z" />
<glyph unicode="&#xe8;" horiz-adv-x="1028" d="M53 449q0 207 128 356.5t390 214.5q183 0 292.5 -104t109.5 -281v-111h-584q17 -139 98.5 -219t200.5 -80q127 0 242 70l41 -66q-94 -93 -184.5 -149.5t-225.5 -110.5q-222 0 -365 133.5t-143 346.5zM270 1520h289l84 -363h-108zM383 635q0 -6 1 -18t1 -17l240 10v60 q0 123 -26 182t-87 59q-129 0 -129 -276z" />
<glyph unicode="&#xe9;" horiz-adv-x="1028" d="M53 449q0 207 128 356.5t390 214.5q183 0 292.5 -104t109.5 -281v-111h-584q17 -139 98.5 -219t200.5 -80q127 0 242 70l41 -66q-94 -93 -184.5 -149.5t-225.5 -110.5q-222 0 -365 133.5t-143 346.5zM383 635q0 -6 1 -18t1 -17l240 10v60q0 123 -26 182t-87 59 q-129 0 -129 -276zM492 1157l81 363h291l-264 -363h-108z" />
<glyph unicode="&#xea;" horiz-adv-x="1028" d="M53 449q0 207 128 356.5t390 214.5q183 0 292.5 -104t109.5 -281v-111h-584q17 -139 98.5 -219t200.5 -80q127 0 242 70l41 -66q-94 -93 -184.5 -149.5t-225.5 -110.5q-222 0 -365 133.5t-143 346.5zM242 1157l239 365h133l240 -365h-104l-181 162l-22 29l-21 -29 l-180 -162h-104zM383 635q0 -6 1 -18t1 -17l240 10v60q0 123 -26 182t-87 59q-129 0 -129 -276z" />
<glyph unicode="&#xeb;" horiz-adv-x="1028" d="M53 449q0 207 128 356.5t390 214.5q183 0 292.5 -104t109.5 -281v-111h-584q17 -139 98.5 -219t200.5 -80q127 0 242 70l41 -66q-94 -93 -184.5 -149.5t-225.5 -110.5q-222 0 -365 133.5t-143 346.5zM219 1346l25 108l162 12l65 -12l16 -129l-26 -113l-160 -12l-70 12z M383 635q0 -6 1 -18t1 -17l240 10v60q0 123 -26 182t-87 59q-129 0 -129 -276zM618 1346l27 108l162 12l65 -12l17 -129l-27 -113l-160 -12l-67 12z" />
<glyph unicode="&#xec;" horiz-adv-x="655" d="M61 936l363 63l92 5v-904l98 -22l-4 -80l-268 4l-268 -4l-4 80l98 22v764l-98 -8zM70 1520h288l84 -363h-108z" />
<glyph unicode="&#xed;" horiz-adv-x="655" d="M61 936l363 63l92 5v-904l98 -22l-4 -80l-268 4l-268 -4l-4 80l98 22v764l-98 -8zM264 1157l82 363h291l-264 -363h-109z" />
<glyph unicode="&#xee;" horiz-adv-x="655" d="M31 1157l239 365h133l240 -365h-106l-181 162l-20 29l-21 -29l-180 -162h-104zM61 936l363 63l92 5v-904l98 -22l-4 -80l-268 4l-268 -4l-4 80l98 22v764l-98 -8z" />
<glyph unicode="&#xef;" horiz-adv-x="651" d="M-6 1346l26 108l162 12l66 -12l16 -129l-26 -113l-160 -12l-68 12zM57 936l363 63l92 5v-904l98 -22l-4 -80l-268 4l-268 -4l-4 80l98 22v764l-98 -8zM397 1346l25 108l162 12l67 -12l15 -129l-27 -113l-160 -12l-67 12z" />
<glyph unicode="&#xf0;" horiz-adv-x="1189" d="M61 504q0 191 122.5 307.5t324.5 134.5l250 -143q-37 240 -172 387l-203 -98v75l147 70q-79 83 -231 162l39 78q189 -63 352 -160l209 100v-74l-151 -73q366 -269 366 -746q0 -126 -41 -228t-115 -170.5t-173 -108t-218 -48.5q-235 36 -370.5 173t-135.5 362zM434 506 q0 -225 42.5 -336t113.5 -111q67 0 101.5 88t35.5 291q3 87 -8 191q-2 13 -9.5 29t-17.5 33t-12 20q-58 73 -119 73q-63 0 -95 -64.5t-32 -213.5z" />
<glyph unicode="&#xf1;" horiz-adv-x="1282" d="M61 932l365 67l94 2v-188l336 207q153 0 223 -64q38 -35 53 -87.5t15 -151.5v-617l100 -22l-4 -80l-266 4l-254 -4l-6 80l67 22v605q0 98 -82 98q-55 0 -143 -58l-39 -26v-619l68 -22l-4 -80l-246 4l-260 -4l-4 80l98 22v758l-102 -8zM301 1180l70 264l116 35l416 -119 l76 119h57l-69 -271l-117 -28l-420 120l-72 -120h-57z" />
<glyph unicode="&#xf2;" horiz-adv-x="1140" d="M53 467q0 103 31.5 187t81.5 140.5t126.5 102t151.5 72.5t172 51q202 0 336.5 -137.5t134.5 -360.5q0 -75 -16 -139t-44 -113.5t-70.5 -92t-89 -73t-106.5 -56.5t-117 -44t-126 -35q-96 0 -181.5 35.5t-148 99.5t-99 158t-36.5 205zM293 1520h289l84 -363h-109zM422 578 q0 -251 49 -380.5t117 -129.5q123 0 123 340q0 256 -48 384t-116 128q-125 0 -125 -342z" />
<glyph unicode="&#xf3;" horiz-adv-x="1140" d="M53 467q0 103 31.5 187t81.5 140.5t126.5 102t151.5 72.5t172 51q202 0 336.5 -137.5t134.5 -360.5q0 -75 -16 -139t-44 -113.5t-70.5 -92t-89 -73t-106.5 -56.5t-117 -44t-126 -35q-96 0 -181.5 35.5t-148 99.5t-99 158t-36.5 205zM422 578q0 -251 49 -380.5t117 -129.5 q123 0 123 340q0 256 -48 384t-116 128q-125 0 -125 -342zM506 1157l84 363h291l-265 -363h-110z" />
<glyph unicode="&#xf4;" horiz-adv-x="1140" d="M53 467q0 103 31.5 187t81.5 140.5t126.5 102t151.5 72.5t172 51q202 0 336.5 -137.5t134.5 -360.5q0 -75 -16 -139t-44 -113.5t-70.5 -92t-89 -73t-106.5 -56.5t-117 -44t-126 -35q-96 0 -181.5 35.5t-148 99.5t-99 158t-36.5 205zM270 1157l240 365h133l240 -365h-105 l-180 162l-23 29l-20 -29l-180 -162h-105zM422 578q0 -251 49 -380.5t117 -129.5q123 0 123 340q0 256 -48 384t-116 128q-125 0 -125 -342z" />
<glyph unicode="&#xf5;" horiz-adv-x="1140" d="M53 467q0 103 31.5 187t81.5 140.5t126.5 102t151.5 72.5t172 51q202 0 336.5 -137.5t134.5 -360.5q0 -75 -16 -139t-44 -113.5t-70.5 -92t-89 -73t-106.5 -56.5t-117 -44t-126 -35q-96 0 -181.5 35.5t-148 99.5t-99 158t-36.5 205zM205 1180l69 264l117 35l416 -119 l76 119h57l-68 -271l-118 -28l-418 120l-72 -120h-59zM422 578q0 -251 49 -380.5t117 -129.5q123 0 123 340q0 256 -48 384t-116 128q-125 0 -125 -342z" />
<glyph unicode="&#xf6;" horiz-adv-x="1140" d="M53 467q0 103 31.5 187t81.5 140.5t126.5 102t151.5 72.5t172 51q202 0 336.5 -137.5t134.5 -360.5q0 -75 -16 -139t-44 -113.5t-70.5 -92t-89 -73t-106.5 -56.5t-117 -44t-126 -35q-96 0 -181.5 35.5t-148 99.5t-99 158t-36.5 205zM248 1346l22 108l164 12l66 -12 l16 -129l-29 -113l-157 -12l-70 12zM422 578q0 -251 49 -380.5t117 -129.5q123 0 123 340q0 256 -48 384t-116 128q-125 0 -125 -342zM647 1346l27 108l160 12l67 -12l17 -129l-27 -113l-162 -12l-67 12z" />
<glyph unicode="&#xf7;" d="M96 475v119h1075v-119h-1075zM487 156l13 123l196 16l76 -16l16 -144l-18 -129l-195 -14l-75 14zM487 920l13 122l196 19l76 -19l16 -143l-18 -127l-195 -14l-75 14z" />
<glyph unicode="&#xf8;" horiz-adv-x="1167" d="M63 467q0 103 31.5 187t81.5 140.5t127 102t152 72.5t172 51q170 0 297 -102l75 83h97l-121 -133q123 -139 123 -346q0 -103 -31.5 -187t-82 -141t-127.5 -102t-153.5 -72t-175.5 -51q-164 0 -284 94l-76 -83h-100l122 133q-127 137 -127 354zM432 578q0 -116 8 -189 l262 285q-21 123 -60 184.5t-85 61.5q-125 0 -125 -342zM455 295q22 -113 60.5 -170t82.5 -57q123 0 123 340q0 104 -8 172z" />
<glyph unicode="&#xf9;" horiz-adv-x="1226" d="M31 928l348 69l108 4v-696q0 -57 24.5 -84.5t76.5 -27.5q44 0 106 40l35 21v604l-92 -8l-6 78l336 69l110 4v-718q0 -91 25 -158l76 2l6 -78l-393 -72l-50 193l-311 -201q-163 0 -231 62q-40 35 -56 90t-16 153v584l-92 -8zM324 1520h290l82 -363h-108z" />
<glyph unicode="&#xfa;" horiz-adv-x="1226" d="M31 928l348 69l108 4v-696q0 -57 24.5 -84.5t76.5 -27.5q44 0 106 40l35 21v604l-92 -8l-6 78l336 69l110 4v-718q0 -91 25 -158l76 2l6 -78l-393 -72l-50 193l-311 -201q-163 0 -231 62q-40 35 -56 90t-16 153v584l-92 -8zM545 1157l84 363h291l-267 -363h-108z" />
<glyph unicode="&#xfb;" horiz-adv-x="1226" d="M31 928l348 69l108 4v-696q0 -57 24.5 -84.5t76.5 -27.5q44 0 106 40l35 21v604l-92 -8l-6 78l336 69l110 4v-718q0 -91 25 -158l76 2l6 -78l-393 -72l-50 193l-311 -201q-163 0 -231 62q-40 35 -56 90t-16 153v584l-92 -8zM305 1157l240 365h133l240 -365h-105l-180 162 l-23 29l-20 -29l-180 -162h-105z" />
<glyph unicode="&#xfc;" horiz-adv-x="1226" d="M31 928l348 69l108 4v-696q0 -57 24.5 -84.5t76.5 -27.5q44 0 106 40l35 21v604l-92 -8l-6 78l336 69l110 4v-718q0 -91 25 -158l76 2l6 -78l-393 -72l-50 193l-311 -201q-163 0 -231 62q-40 35 -56 90t-16 153v584l-92 -8zM287 1346l24 108l162 12l68 -12l14 -129 l-27 -113l-159 -12l-68 12zM688 1346l25 108l161 12l68 -12l14 -129l-26 -113l-160 -12l-68 12z" />
<glyph unicode="&#xfd;" horiz-adv-x="1169" d="M10 911l6 78l287 -2l262 2l6 -78l-98 -18l221 -619l17 -98l227 715l-102 20l4 78l170 -2l143 2l6 -78l-96 -20l-287 -807l-262 -565h-346v309h309l217 291l-284 -99l-322 873zM588 1157l84 363h291l-265 -363h-110z" />
<glyph unicode="&#xfe;" horiz-adv-x="1177" d="M35 1401l362 55l92 2v-639l273 201q72 0 140.5 -32.5t122.5 -90t87 -145t33 -189.5q0 -242 -116.5 -391.5t-383.5 -202.5q-92 0 -156 37v-381l158 -20l-4 -78l-319 4l-277 -4l-4 78l98 20v1704l-98 -8zM489 121q43 -49 103 -49q84 2 131 100t47 272t-42.5 259t-113.5 85 q-41 0 -98 -40l-27 -19v-608z" />
<glyph unicode="&#xff;" horiz-adv-x="1169" d="M10 911l6 78l287 -2l262 2l6 -78l-98 -18l221 -619l17 -98l227 715l-102 20l4 78l170 -2l143 2l6 -78l-96 -20l-287 -807l-262 -565h-346v309h309l217 291l-284 -99l-322 873zM338 1346l24 108l164 12l66 -12l16 -129l-28 -113l-160 -12l-68 12zM739 1346l25 108l162 12 l67 -12l17 -129l-29 -113l-160 -12l-67 12z" />
<glyph unicode="&#x152;" horiz-adv-x="2097" d="M63 684q0 334 184 516t607 268l291 -34l880 2l11 -389h-76l-145 294l-431 5v-547l205 4l94 241h72l-10 -290l10 -291h-72l-94 242l-205 4v-619l439 4l151 307h76l-37 -403l-932 4l-272 -37q-169 0 -309 53t-236 147.5t-148.5 227.5t-52.5 291zM483 758q0 -196 50 -355 t135 -247t188 -88l145 32v1235l-210 33q-81 0 -142 -50.5t-96 -138t-52.5 -193.5t-17.5 -228z" />
<glyph unicode="&#x153;" horiz-adv-x="1720" d="M53 477q0 102 31 185t82 140t126 101t152 70.5t172 46.5q207 0 340 -152q119 105 314 152q179 0 285 -109.5t106 -289.5v-97h-588v-4q12 -141 96.5 -220t210.5 -79q130 0 242 66l41 -66q-91 -87 -181 -145t-214 -107q-117 0 -215 39t-166 111q-135 -104 -369 -150 q-198 0 -331.5 140.5t-133.5 367.5zM420 578q0 -252 48.5 -381t119.5 -129q61 0 93 78.5t32 261.5q0 256 -48 384t-118 128q-61 0 -94 -78.5t-33 -263.5zM1067 635q0 -21 2 -29l262 8q0 158 -26.5 225.5t-92.5 67.5q-67 0 -105 -73t-40 -199z" />
<glyph unicode="&#x178;" horiz-adv-x="1474" d="M10 1358l6 78l334 -4l340 4l6 -78l-141 -23l330 -622l-4 -58l352 680l-148 23l7 78l196 -4l170 4l6 -78l-118 -23l-404 -766v-469l199 -22l-6 -80l-385 4l-385 -4l-5 80l199 22v463l-428 772zM469 1708l23 109l163 14l66 -14l16 -129l-28 -111l-158 -12l-70 12zM954 1708 l25 109l162 14l67 -14l15 -129l-27 -111l-160 -12l-67 12z" />
<glyph unicode="&#x2c6;" horiz-adv-x="1024" d="M205 1157l225 365h164l223 -365h-104l-203 182l-199 -182h-106z" />
<glyph unicode="&#x2dc;" horiz-adv-x="1024" d="M141 1180l70 264l117 35l417 -119l74 119h60l-70 -271l-117 -28l-420 120l-71 -120h-60z" />
<glyph unicode="&#x2000;" horiz-adv-x="982" />
<glyph unicode="&#x2001;" horiz-adv-x="1964" />
<glyph unicode="&#x2002;" horiz-adv-x="982" />
<glyph unicode="&#x2003;" horiz-adv-x="1964" />
<glyph unicode="&#x2004;" horiz-adv-x="654" />
<glyph unicode="&#x2005;" horiz-adv-x="491" />
<glyph unicode="&#x2006;" horiz-adv-x="327" />
<glyph unicode="&#x2007;" horiz-adv-x="327" />
<glyph unicode="&#x2008;" horiz-adv-x="245" />
<glyph unicode="&#x2009;" horiz-adv-x="392" />
<glyph unicode="&#x200a;" horiz-adv-x="109" />
<glyph unicode="&#x2010;" horiz-adv-x="788" d="M82 506v143h625v-143h-625z" />
<glyph unicode="&#x2011;" horiz-adv-x="788" d="M82 506v143h625v-143h-625z" />
<glyph unicode="&#x2012;" horiz-adv-x="788" d="M82 506v143h625v-143h-625z" />
<glyph unicode="&#x2013;" horiz-adv-x="1040" d="M82 518v105h876v-105h-876z" />
<glyph unicode="&#x2014;" horiz-adv-x="1904" d="M78 518v105h1751v-105h-1751z" />
<glyph unicode="&#x2018;" horiz-adv-x="507" d="M109 985l20 139l195 334l71 -28q-1 -3 -18.5 -40t-33.5 -72t-34.5 -76.5t-29.5 -70t-11 -36.5l154 -11l14 -159l-20 -136l-213 -14l-80 14z" />
<glyph unicode="&#x2019;" horiz-adv-x="528" d="M92 1305l21 135l213 14l80 -14l14 -156l-21 -139l-194 -334l-72 29q1 3 18.5 40t33.5 72t34.5 76.5t29.5 70t11 36.5l-154 10z" />
<glyph unicode="&#x201a;" horiz-adv-x="481" d="M102 170l21 135l213 14l80 -14l14 -155l-20 -140l-195 -336l-72 29q2 5 37.5 81.5t62.5 139t27 74.5l-153 12z" />
<glyph unicode="&#x201c;" horiz-adv-x="886" d="M88 983l21 141l194 334l72 -28q-2 -5 -37.5 -81.5t-62.5 -139t-27 -74.5l153 -11l15 -161l-21 -134l-213 -16l-80 16zM508 983l22 141l195 334l72 -28q-2 -5 -37.5 -81.5t-62.5 -139t-27 -74.5l151 -11l15 -161l-19 -134l-215 -16l-78 16z" />
<glyph unicode="&#x201d;" horiz-adv-x="911" d="M98 1307l21 133l213 16l78 -16l16 -154l-23 -141l-194 -334l-70 29q4 12 37 83.5t60.5 136.5t27.5 77l-151 8zM518 1307l21 133l215 16l77 -16l15 -154l-21 -141l-194 -334l-72 29q1 3 37 81t63 141t27 75l-151 8z" />
<glyph unicode="&#x201e;" horiz-adv-x="907" d="M109 170l20 135l213 14l78 -14l16 -155l-22 -140l-195 -336l-69 29q4 12 36.5 83t60 135.5t27.5 76.5l-151 12zM528 170l21 135l215 14l78 -14l14 -155l-20 -140l-195 -336l-72 29q2 5 37.5 81.5t62.5 139t27 74.5l-151 12z" />
<glyph unicode="&#x2022;" horiz-adv-x="528" d="M102 631l15 139l200 14l97 -14l12 -156l-14 -141l-201 -12l-94 12z" />
<glyph unicode="&#x2026;" horiz-adv-x="1800" d="M154 162l22 135l209 16l78 -16l18 -156l-26 -139l-207 -16l-78 16zM735 162l23 135l209 16l77 -16l19 -156l-25 -139l-209 -16l-77 16zM1321 162l20 135l209 16l78 -16l19 -156l-25 -139l-209 -16l-78 16z" />
<glyph unicode="&#x202f;" horiz-adv-x="392" />
<glyph unicode="&#x2039;" horiz-adv-x="651" d="M68 481l374 451h138l-261 -453l261 -448h-142z" />
<glyph unicode="&#x203a;" horiz-adv-x="651" d="M82 31l262 448l-262 453h141l373 -451l-371 -450h-143z" />
<glyph unicode="&#x205f;" horiz-adv-x="491" />
<glyph unicode="&#x20ac;" horiz-adv-x="1429" d="M92 545v98h88v49q0 52 6 99h-94v100h109q53 231 236 375t483 200q213 0 423 -137v-371h-98l-123 302q-40 54 -92 79t-125 25q-126 0 -209 -119t-106 -354h481l-70 -100h-417v-23q0 -84 4 -125h334l-72 -98h-248q36 -184 130 -294t243 -110q160 0 330 99l41 -72 q-70 -48 -194 -107.5t-247 -91.5q-102 0 -195 19t-180.5 63t-155 109.5t-115.5 164t-66 220.5h-101z" />
<glyph unicode="&#x2122;" horiz-adv-x="2113" d="M102 1169v267h758v-267h-55l-94 205l-103 2v-665l115 -13l-4 -55l-238 2l-237 -2l-2 55l112 13v665l-102 -2l-94 -205h-56zM891 698l72 13v659l-72 12l4 54l133 -2l219 2l215 -518l-4 -70l223 588l170 -2l158 2l2 -54l-74 -12v-659l74 -13l-2 -55l-192 2l-183 -2l-4 55 l68 13v553l8 71l-264 -694h-137l-258 637l-15 76v-643l78 -13l-2 -55l-111 2l-104 -2z" />
<glyph unicode="&#x25fc;" horiz-adv-x="993" d="M0 0v993h993v-993h-993z" />
</font>
</defs>
</svg>
