<?xml version="1.0" standalone="no"?>
<!DOCTYPE svg PUBLIC "-//W3C//DTD SVG 1.1//EN" "http://www.w3.org/Graphics/SVG/1.1/DTD/svg11.dtd" >
<svg xmlns="http://www.w3.org/2000/svg" xmlns:xlink="http://www.w3.org/1999/xlink" version="1.1">
<metadata></metadata>
<defs>
<font id="gt_sectrablack" horiz-adv-x="1269" >
<font-face units-per-em="2048" ascent="1536" descent="-512" />
<missing-glyph horiz-adv-x="481" />
<glyph unicode="&#xfb01;" horiz-adv-x="1398" d="M41 811v51l80 92h76v27q0 143 131 262l235 213h701v-291h-70l-201 62h-397l-25 -45q-13 -23 -19 -58.5t-6.5 -59t-0.5 -77.5v-43h284l285 53h141v-860l103 -26l-10 -113l-267 6l-266 -6l-10 113l102 26v600l15 94l-88 -20h-289v-674l133 -26l-10 -109l-363 2l-201 -6 l-10 113l103 26v674h-156z" />
<glyph unicode="&#xfb02;" horiz-adv-x="1402" d="M41 811v51l80 92h76v27q0 143 131 262l235 213h402l174 4h131v-1323l102 -26l-10 -113l-266 6l-267 -6l-10 113l103 26v674h-377v-674l153 -26l-10 -113l-389 6l-195 -6l-10 113l103 26v674h-156zM545 944h377v326l-119 -43h-207l-25 -45q-13 -23 -19 -58.5t-6.5 -59 t-0.5 -77.5v-43z" />
<glyph unicode="&#xfb03;" horiz-adv-x="2125" d="M41 811v51l80 92h76v19q0 72 29.5 122t101.5 115l235 213h467l-250 -229h-184l-25 -45q-13 -23 -19 -58.5t-6.5 -59t-0.5 -77.5v-10h377v37q0 143 131 262l235 213h703v-291h-70l-201 62h-397l-25 -45q-13 -23 -19 -58.5t-6.5 -59t-0.5 -77.5v-43h284l285 53h141v-860 l103 -26l-10 -113l-267 6l-266 -6l-10 113l102 26v600l15 94l-88 -20h-289v-674l133 -26l-10 -113l-363 6l-203 -6l-10 113l103 26v674h-377v-674l153 -26l-10 -113l-389 6l-195 -6l-10 113l103 26v674h-156z" />
<glyph unicode="&#xfb04;" horiz-adv-x="2127" d="M41 811v51l80 92h76v19q0 72 29.5 122t101.5 115l235 213h467l-250 -229h-184l-25 -45q-13 -23 -19 -58.5t-6.5 -59t-0.5 -77.5v-10h377v37q0 75 32 137t99 123l235 213h402l174 4h131v-1321l102 -26l-10 -113l-266 6l-267 -6l-10 113l103 26v674h-377v-674l153 -26 l-10 -113l-389 6l-195 -6l-10 113l103 26v674h-377v-674l153 -26l-10 -113l-389 6l-195 -6l-10 113l103 26v674h-156zM1270 944h377v324l-119 -43h-207l-25 -45q-13 -23 -19 -58t-6.5 -58t-0.5 -77v-43z" />
<glyph horiz-adv-x="0" />
<glyph horiz-adv-x="0" />
<glyph horiz-adv-x="682" />
<glyph unicode="&#xd;" horiz-adv-x="655" />
<glyph unicode=" "  horiz-adv-x="481" />
<glyph unicode="&#x09;" horiz-adv-x="481" />
<glyph unicode="&#xa0;" horiz-adv-x="481" />
<glyph unicode="!" horiz-adv-x="686" d="M164 1454h358l-30 -674l-31 -299h-236l-30 297zM170 170l14 -166l80 -14l228 14l18 146l-18 161l-80 19l-228 -19z" />
<glyph unicode="&#x22;" horiz-adv-x="970" d="M102 1292l15 144l227 18l80 -18l18 -164l-18 -146l-170 -346l-111 45q30 71 61.5 162.5t31.5 126.5l-119 12zM539 1292l14 144l227 18l80 -18l19 -164l-19 -146l-170 -346l-110 45q30 69 61 161t31 128l-119 12z" />
<glyph unicode="#" horiz-adv-x="1288" d="M82 399l16 144h226l32 256h-221l17 143h221l49 399h174l-49 -399h256l49 399h174l-49 -399h229l-16 -143h-229l-33 -256h225l-16 -144h-228l-47 -399h-174l47 399h-256l-47 -399h-174l47 399h-223zM498 543h256l32 256h-256z" />
<glyph unicode="$" horiz-adv-x="1271" d="M92 471h195l69 -195q103 -123 222 -141v430l-175 90q-145 75 -217.5 164t-72.5 215q0 62 22 117t72.5 109.5t144 102t226.5 83.5v153h118v-129q114 -3 228.5 -34.5t203.5 -83.5v-348h-172l-61 190q-97 97 -199 111v-381l170 -86q132 -67 202.5 -132.5t91 -123 t20.5 -140.5q0 -168 -120 -270t-364 -176v-160h-118v127q-110 1 -226 38.5t-215 100.5zM442 1159q0 -56 33 -97t103 -77v313q-65 -14 -100.5 -52.5t-35.5 -86.5zM696 143q56 20 89.5 64.5t33.5 111.5q0 109 -123 183v-359z" />
<glyph unicode="%" horiz-adv-x="1693" d="M82 1059q0 73 22 131.5t57 98t88 70t104.5 48.5t117.5 33q138 0 230 -93.5t92 -246.5q0 -73 -22 -131.5t-57.5 -98t-89 -70.5t-106.5 -49t-121 -34q-134 0 -224.5 94t-90.5 248zM229 -10l1014 1454h219l-1013 -1454h-220zM334 1143q0 -113 17.5 -191.5t42 -110.5 t52.5 -32q84 0 84 205q0 115 -17 193.5t-41 110.5t-52 32q-86 0 -86 -207zM901 342q0 73 22 131.5t57 98t88 70t104.5 48.5t117.5 33q138 0 230 -93.5t92 -246.5q0 -73 -22 -131.5t-57.5 -98t-89 -70.5t-106 -49.5t-120.5 -33.5q-134 0 -225 94t-91 248zM1153 426 q0 -113 17.5 -191.5t42.5 -110.5t53 -32q84 0 84 205q0 87 -9.5 154t-26 105.5t-35.5 57.5t-40 19q-86 0 -86 -207z" />
<glyph unicode="&#x26;" horiz-adv-x="1556" d="M92 342q0 57 15 106t39.5 87t69 79t88 73t112.5 77q-54 59 -71.5 79t-52.5 61.5t-45.5 59t-27 47.5t-20.5 53t-4 50q0 130 112.5 210t382.5 146q166 0 270.5 -69t104.5 -166q0 -46 -11.5 -87.5t-37 -79t-51 -66.5t-68.5 -62.5t-74 -54.5t-82 -54l316 -335l90 139l-92 10 l8 107l219 -7l156 7l14 -107l-133 -20l-166 -232l246 -262l86 -20l-21 -113l-184 4l-168 -4l-141 156q-129 -125 -371 -191q-218 0 -363 105.5t-145 273.5zM451 416q0 -104 71 -177t174 -73q106 0 187 84l-367 403q-65 -80 -65 -237zM506 1194q0 -97 149 -266 q121 96 121 266q0 64 -32 103.5t-91 39.5q-62 0 -104.5 -36t-42.5 -107z" />
<glyph unicode="'" horiz-adv-x="524" d="M102 1292l15 144l227 18l80 -18l18 -164l-18 -146l-170 -346l-111 45q30 71 61.5 162.5t31.5 126.5l-119 12z" />
<glyph unicode="(" horiz-adv-x="622" d="M72 500q0 161 25 288t84.5 244t143.5 221.5t216 233.5l71 -68q-143 -219 -203.5 -424.5t-60.5 -494.5t60.5 -495.5t203.5 -424.5l-71 -67q-132 129 -216 233.5t-143.5 221.5t-84.5 244t-25 288z" />
<glyph unicode=")" horiz-adv-x="622" d="M10 -420q143 218 203.5 424.5t60.5 495.5t-60.5 494.5t-203.5 424.5l72 68q174 -164 272.5 -304t147.5 -304.5t49 -378.5t-49 -378.5t-147.5 -304.5t-272.5 -304z" />
<glyph unicode="*" horiz-adv-x="944" d="M92 1094l88 260l209 -125l-55 235h276l-57 -235l211 125l88 -260l-244 -23l185 -156l-220 -163l-102 229l-100 -229l-219 163l180 156z" />
<glyph unicode="+" d="M106 434v174h441v447h174v-447h440v-174h-440v-434h-174v434h-441z" />
<glyph unicode="," horiz-adv-x="524" d="M123 170l14 143l228 19l79 -19l19 -163l-19 -146l-170 -346l-110 45q30 69 61 161t31 128l-119 12z" />
<glyph unicode="-" horiz-adv-x="788" d="M82 496v174h625v-174h-625z" />
<glyph unicode="." horiz-adv-x="544" d="M143 170l15 141l227 19l80 -19l18 -161l-18 -146l-227 -14l-80 14z" />
<glyph unicode="/" horiz-adv-x="1042" d="M-20 -471l927 1941h156l-924 -1941h-159z" />
<glyph unicode="0" horiz-adv-x="1251" d="M82 489q0 102 33 185.5t88 141t133.5 101t162 68.5t181.5 39q210 0 349.5 -142t139.5 -376q0 -102 -33 -186t-87.5 -141.5t-133 -101t-161.5 -68.5t-181 -40q-210 0 -350.5 143t-140.5 377zM444 592q0 -228 60.5 -343.5t140.5 -115.5q75 0 116.5 60.5t41.5 209.5 q0 228 -59.5 342.5t-139.5 114.5q-76 0 -118 -60t-42 -208z" />
<glyph unicode="1" horiz-adv-x="1003" d="M41 788l461 216h194v-859l277 -34l-10 -113l-441 6l-450 -6l-11 113l277 34v572l10 37l-86 -41l-174 -29z" />
<glyph unicode="2" horiz-adv-x="1169" d="M41 100l346 262q41 31 56.5 42.5t49.5 39t48 40.5t40 38.5t36.5 43t27 43.5t22.5 49t11.5 52t5.5 60q0 52 -29.5 81.5t-85.5 29.5q-54 0 -123 -31l-59 -264h-233v284l458 154q215 0 327 -76.5t112 -212.5q0 -52 -24.5 -100.5t-62 -87t-102 -80t-124 -72.5t-148.5 -73 l-307 -144l381 88h444v-102l-74 -164h-944z" />
<glyph unicode="3" horiz-adv-x="1071" d="M51 -205h486q44 45 64 93.5t20 121.5q0 107 -70 174.5t-205 67.5l-20 88l65 31q91 44 135.5 115t44.5 182q0 95 -33 149.5t-85 54.5q-45 0 -88 -24l-60 -262h-244v284l449 154q209 0 305 -79.5t96 -207.5q0 -124 -82 -204t-243 -132q103 -7 183.5 -42t126.5 -86.5 t69.5 -107.5t23.5 -112q0 -51 -11.5 -94.5t-28.5 -75.5t-48.5 -62t-59.5 -49.5t-75 -42.5t-80.5 -37t-91 -37t-92.5 -38l-205 -88h-246v266z" />
<glyph unicode="4" horiz-adv-x="1175" d="M20 47l670 946h268v-135l-716 -782l106 45h256v196l244 203h63v-399h234v-236h-234v-356h-307v356h-491z" />
<glyph unicode="5" horiz-adv-x="1060" d="M92 250l98 743h787v-102l-74 -164h-614l-56 -373l279 144q130 0 239 -43t178.5 -131t69.5 -205q0 -69 -12.5 -124.5t-47 -102t-62 -77t-91 -68t-98.5 -55.5t-119 -58l-6 -3l-215 -102h-254v266h469q68 71 68 217q0 118 -53 194.5t-158 76.5q-54 0 -97.5 -12.5 t-105.5 -41.5l-67 -30z" />
<glyph unicode="6" horiz-adv-x="1245" d="M102 545q0 641 863 932l30 -115q-122 -47 -211.5 -104.5t-143 -115.5t-87.5 -132.5t-47.5 -143t-20.5 -159.5l260 219q82 0 150.5 -25t115.5 -67t79.5 -97.5t47.5 -116t15 -124.5q0 -73 -17 -135.5t-44 -108.5t-72 -86t-89.5 -67t-108.5 -52.5t-117.5 -42t-126.5 -35.5 q-222 0 -349 155t-127 421zM481 565q0 -211 41 -337t125 -126q66 0 102.5 74.5t36.5 229.5q0 128 -30.5 201t-81.5 73q-53 0 -137 -70z" />
<glyph unicode="7" horiz-adv-x="1071" d="M41 707v286h922l77 -84l-645 -1380h-280v147l655 1078l-90 -47h-639z" />
<glyph unicode="8" horiz-adv-x="1206" d="M92 338q0 122 65.5 200.5t245.5 149.5q-138 69 -207 173t-69 210q0 141 125 237.5t373 155.5q209 0 339 -90.5t130 -224.5q0 -123 -81 -202t-243 -136q170 -73 262 -176t92 -225q0 -70 -24.5 -127t-67 -100t-114 -82t-149.5 -68.5t-189 -63.5q-210 0 -349 107t-139 262z M449 348q0 -107 46.5 -176.5t110.5 -69.5q63 0 103.5 55.5t40.5 159.5q0 95 -58.5 163.5t-165.5 133.5q-27 -32 -52 -115t-25 -151zM492 1159q0 -157 161 -264q86 97 86 242q0 77 -34 135.5t-95 58.5q-57 0 -87.5 -45t-30.5 -127z" />
<glyph unicode="9" horiz-adv-x="1245" d="M92 498q0 73 17 135t44 108.5t72 86t90 66.5t109 52.5t117 42t127 35.5q222 0 348.5 -154t126.5 -421q0 -641 -862 -932l-31 114q122 47 211.5 104.5t143 116t87.5 133t47.5 143t20.5 159.5l-260 -219q-82 0 -150.5 25t-115.5 67t-79.5 97.5t-47.5 116t-15 124.5z M459 588q0 -128 30.5 -201.5t81.5 -73.5q54 0 138 70l55 45q0 211 -41 337t-125 126q-66 0 -102.5 -74.5t-36.5 -228.5z" />
<glyph unicode=":" horiz-adv-x="595" d="M154 170l14 141l227 19l80 -19l19 -161l-19 -146l-227 -14l-80 14zM154 823l14 142l227 18l80 -18l19 -162l-19 -146l-227 -14l-80 14z" />
<glyph unicode=";" horiz-adv-x="638" d="M154 823l14 142l227 18l80 -18l19 -162l-19 -146l-227 -14l-80 14zM156 170l14 143l227 19l80 -19l19 -163l-19 -146l-170 -346l-110 45q30 69 61 161t31 128l-119 12z" />
<glyph unicode="&#x3c;" d="M102 524v123l1065 475v-192l-843 -342l843 -342v-195z" />
<glyph unicode="=" d="M106 215v174h1055v-174h-1055zM106 614v174h1055v-174h-1055z" />
<glyph unicode="&#x3e;" d="M102 51v195l844 342l-844 342v192l1065 -475v-123z" />
<glyph unicode="?" horiz-adv-x="1001" d="M133 1190v244l277 22q234 -32 361.5 -128.5t127.5 -256.5q0 -238 -377 -366l-59 -21l-14 -213h-142l-12 279l80 45q52 30 96.5 112.5t44.5 184.5q0 117 -42 178t-114 61l-38 -141h-189zM203 170l14 -166l80 -14l227 14l19 146l-19 161l-80 19l-227 -19z" />
<glyph unicode="@" horiz-adv-x="1898" d="M102 518q0 293 200 522t529 330l191 60q186 0 336 -45.5t247 -126.5t149 -190.5t52 -238.5q0 -131 -51.5 -251.5t-135.5 -206t-196 -136.5t-229 -51l-121 127l82 219q-40 -67 -283 -350q-127 0 -224 82t-97 209q0 170 101.5 310t271.5 216l223 101l274 -144l-164 -678 q60 13 120 55t111.5 108t83.5 163t32 207q0 218 -158.5 363t-407.5 145q-102 0 -203 -35t-188 -102.5t-154.5 -158.5t-106 -210.5t-38.5 -251.5q0 -138 42 -250.5t110 -185.5t159 -122.5t185 -71t192 -21.5q45 0 87 5t87.5 18.5t66 20t69 26.5t49.5 20l39 -72 q-112 -57 -250.5 -102t-237.5 -57q-248 0 -441 97t-298 268t-105 386zM784 532q0 -81 31 -122t86 -41l225 270l56 203l-138 106q-66 -32 -117.5 -83t-82 -108.5t-45.5 -114.5t-15 -110z" />
<glyph unicode="A" horiz-adv-x="1509" d="M10 111l109 26l448 1260l353 71l450 -1335l129 -22l-10 -113l-420 6l-229 -6l-11 113l134 26l-103 316h-469l-102 -316l147 -26l-10 -113l-207 6l-199 -6zM434 575h385l-170 539l-2 121z" />
<glyph unicode="B" horiz-adv-x="1363" d="M61 111l144 26v1161l-144 27l11 111l241 -6l588 6h3q168 0 262 -97q94 -98 94 -229q0 -129 -103.5 -221t-282.5 -121q224 -10 341.5 -104.5t117.5 -255.5q0 -89 -40.5 -161t-114 -121.5t-168.5 -81t-211 -46.5l-486 6l-241 -6zM584 127l102 -16q72 0 126 27t84 72t44 94 t14 102q0 131 -68 213.5t-186 82.5h-116v-575zM584 805h108q87 0 138 78t51 194q0 248 -205 248l-92 -16v-504z" />
<glyph unicode="C" horiz-adv-x="1454" d="M61 674q0 145 37.5 262t107.5 203.5t177 152t239 108t300 70.5q239 0 469 -122v-398h-162l-66 205q-31 48 -64 80t-94.5 57t-140.5 25q-169 0 -281 -154.5t-112 -417.5q0 -179 49 -321.5t140.5 -224.5t209.5 -82q97 0 165 38t143 115l94 248h151l-30 -416 q-215 -91 -557 -139q-123 0 -237 28.5t-212 87.5t-170.5 142.5t-114 199.5t-41.5 253z" />
<glyph unicode="D" horiz-adv-x="1587" d="M61 111l144 26v1161l-144 27l11 111l245 -6l492 6h11q329 0 516 -175q190 -178 190 -507q0 -118 -25 -222t-80.5 -196.5t-138 -162.5t-203.5 -116t-272 -59l-500 6l-235 -6zM584 127l186 -14q10 -1 21 -1q72 0 132 44q69 50 112.5 136.5t67 198t23.5 232.5 q0 275 -112 442q-103 155 -267 155q-13 0 -26 -1l-137 -10v-1182z" />
<glyph unicode="E" horiz-adv-x="1343" d="M61 111l144 26v1161l-144 27l11 111l282 -6l899 6l23 -410h-129l-127 266l-436 6v-477l204 8l82 222h123l-20 -297l20 -297h-123l-82 221l-204 8v-551l460 6l140 277h129l-64 -420l-895 6l-282 -6z" />
<glyph unicode="F" horiz-adv-x="1306" d="M61 111l144 26v1161l-144 27l11 111l282 -6l899 6l23 -430h-129l-127 286l-436 6v-512l204 9l82 221h123l-20 -297l20 -297h-123l-82 221l-204 8v-514l245 -26l-10 -113l-465 6l-282 -6z" />
<glyph unicode="G" horiz-adv-x="1552" d="M61 659q0 150 38 270t108.5 208.5t178.5 154.5t239.5 108.5t300.5 69.5q226 0 477 -131v-387h-162l-67 201q-45 77 -120.5 120.5t-170.5 43.5q-194 0 -303 -149t-109 -425q0 -181 48.5 -322.5t143 -222.5t220.5 -81q95 0 161 47v368l-184 27l10 123l365 -6l270 6l17 -123 l-99 -27v-409q-193 -106 -604 -160q-119 0 -230.5 29.5t-207 88.5t-167 141.5t-112.5 195t-41 241.5z" />
<glyph unicode="H" horiz-adv-x="1658" d="M61 111l144 26v1161l-144 27l11 111l323 -6l301 6l11 -111l-123 -27v-485h491v485l-123 27l11 111l301 -6l323 6l10 -111l-143 -27v-1161l143 -26l-10 -113l-323 6l-301 -6l-11 113l123 26v533h-491v-533l123 -26l-11 -113l-301 6l-323 -6z" />
<glyph unicode="I" horiz-adv-x="788" d="M61 111l144 26v1161l-144 27l11 111l323 -6l322 6l10 -111l-143 -27v-1161l143 -26l-10 -113l-322 6l-323 -6z" />
<glyph unicode="J" horiz-adv-x="860" d="M10 -72h246l14 43q27 77 27 224v1103l-225 27l10 111l405 -9l312 9l10 -111l-133 -27v-960q0 -49 -11.5 -99t-24.5 -87.5t-44 -87t-46.5 -73.5t-58 -72.5t-52 -58t-52.5 -54.5l-7.5 -7.5t-6 -6.5t-6.5 -7l-140 -143h-217v286z" />
<glyph unicode="K" horiz-adv-x="1591" d="M61 111l144 26v1161l-144 27l11 111l323 -6l312 6l10 -111l-133 -27v-522l63 31l522 491l-149 27l10 111l232 -6l272 6l10 -111l-155 -27l-562 -512l115 -43l533 -606l106 -26l-10 -113l-174 6l-283 -6l-489 633l-41 90v-584l133 -26l-10 -113l-312 6l-323 -6z" />
<glyph unicode="L" horiz-adv-x="1265" d="M61 111l144 26v1161l-144 27l11 111l282 -6l363 6l10 -111l-143 -27v-1163l424 6l170 297h108l-74 -440l-858 8l-282 -8z" />
<glyph unicode="M" horiz-adv-x="2017" d="M61 111l144 26v1161l-144 27l11 111l180 -6l407 6l351 -977l-15 -201l383 1178l316 -6l252 6l10 -111l-144 -27v-1161l144 -26l-10 -113l-318 6l-307 -6l-10 113l143 26v942l29 250l-439 -1331h-235l-383 1055l-47 258v-1174l137 -26l-4 -113l-225 6l-215 -6z" />
<glyph unicode="N" horiz-adv-x="1507" d="M61 111l144 26v1161l-144 27l11 111l153 -6l260 6l621 -731l63 -213v806l-137 27l4 111l226 -6l215 6l10 -111l-144 -27v-1304h-169l-740 926l-55 219v-1002l137 -26l-4 -113l-225 6l-215 -6z" />
<glyph unicode="O" horiz-adv-x="1689" d="M61 676q0 233 79 385.5t254.5 251t475.5 157.5q172 0 315 -54t239.5 -149t150 -226t53.5 -283q0 -233 -79 -386t-255 -251.5t-475 -157.5q-172 0 -315 54t-239.5 149.5t-150 226.5t-53.5 283zM471 752q0 -121 25 -232.5t72.5 -202.5t125.5 -145.5t176 -54.5 q177 0 263 150t86 417q0 119 -24.5 230t-71.5 202t-124 146t-174 55q-179 0 -266.5 -149.5t-87.5 -415.5z" />
<glyph unicode="P" horiz-adv-x="1337" d="M61 111l144 26v1161l-144 27l11 111l317 -6l512 6h6q117 0 209 -40q95 -40 153 -125.5t58 -203.5q0 -56 -19 -105.5t-41.5 -85t-75.5 -73t-85.5 -58.5t-109 -52t-109 -42.5t-119.5 -41.5q-13 -5 -20 -7h-164v-465l245 -26l-10 -113l-424 6l-323 -6zM584 748h114 q92 0 161 78t69 216q0 131 -75.5 207t-176.5 76l-92 -16v-561z" />
<glyph unicode="Q" horiz-adv-x="1689" d="M61 676q0 233 79 385.5t254.5 251t475.5 157.5q172 0 315 -54t239.5 -149t150 -226t53.5 -283q0 -308 -142 -482.5t-478 -267.5l198 -61l193 -140l157 -32l-8 -113h-415l-314 301q-172 0 -315 54t-239.5 149.5t-150 226.5t-53.5 283zM471 752q0 -121 25 -232.5 t72.5 -202.5t125.5 -145.5t176 -54.5q177 0 263 150t86 417q0 119 -24.5 230t-71.5 202t-124 146t-174 55q-179 0 -266.5 -149.5t-87.5 -415.5z" />
<glyph unicode="R" horiz-adv-x="1505" d="M61 111l144 26v1161l-144 27l11 111l317 -6l512 6h7q177 0 297 -96q122 -98 122 -261q0 -147 -128 -240.5t-339 -131.5l266 -113l279 -451l90 -32l-8 -113l-262 6l-185 -6l-370 629l-29 22h-57v-512l143 -26l-10 -113l-322 6l-323 -6zM584 784h125q90 0 154.5 74.5 t64.5 204.5q0 125 -62 193.5t-159 68.5l-123 -16v-525z" />
<glyph unicode="S" horiz-adv-x="1200" d="M51 471h195l69 -195q122 -143 263 -143q88 0 144 48.5t56 137.5q0 125 -162 205l-254 131q-145 75 -217.5 164t-72.5 215q0 312 559 436q120 0 241.5 -31.5t214.5 -86.5v-348h-172l-61 190q-109 113 -240 113q-101 0 -157 -43t-56 -105q0 -56 34 -97t106 -79l284 -145 q132 -67 202.5 -132.5t91 -123t20.5 -140.5q0 -96 -39.5 -170.5t-121 -130.5t-183.5 -97t-250 -81q-111 0 -229 37.5t-220 101.5z" />
<glyph unicode="T" horiz-adv-x="1320" d="M31 989v447l649 -6l610 6v-447h-121l-104 307l-215 7v-1166l205 -26l-11 -113l-382 6l-386 -6l-10 113l205 26v1166l-215 -7l-104 -307h-121z" />
<glyph unicode="U" horiz-adv-x="1556" d="M31 1325l10 111l272 -6l363 6l10 -111l-133 -27v-768q0 -181 79.5 -282t231.5 -101t233 101.5t81 283.5v766l-164 27l10 111l262 -6l230 6l10 -111l-154 -27v-772q0 -108 -24 -191t-81.5 -155.5t-160 -126.5t-252.5 -90q-680 0 -680 547v788z" />
<glyph unicode="V" horiz-adv-x="1456" d="M10 1325l10 111l400 -6l225 6l10 -111l-133 -27l299 -907l-6 -166l352 1073l-147 27l10 111l209 -6l197 6l10 -111l-109 -27l-448 -1263l-305 -72l-455 1335z" />
<glyph unicode="W" horiz-adv-x="2179" d="M10 1325l10 111l396 -6l239 6l11 -111l-140 -27l254 -763v-173l238 756l-60 180l-86 27l11 111l354 -6l229 6l11 -111l-134 -27l256 -772l9 -168l266 940l-158 27l10 111l193 -6l240 6l10 -111l-139 -27l-398 -1273l-231 -62l-285 868l-4 152l-299 -958l-223 -62 l-451 1335z" />
<glyph unicode="X" horiz-adv-x="1562" d="M20 111l160 26l416 557l-414 604l-119 27l11 111l231 -6l414 6l10 -111l-133 -27l233 -344l29 -94l301 438l-137 27l10 111l281 -6l178 6l10 -111l-139 -27l-383 -522l455 -639l108 -26l-10 -113l-242 6l-403 -6l-10 113l133 26l-260 359l-31 96l-316 -455l127 -26 l-10 -113l-280 6l-209 -6z" />
<glyph unicode="Y" horiz-adv-x="1499" d="M10 1325l10 111l314 -6l321 6l11 -111l-134 -27l314 -526l-6 -115l360 641l-137 27l10 111l215 -6l191 6l10 -111l-119 -27l-426 -731v-430l215 -26l-10 -113l-395 6l-394 -6l-10 113l215 26v430l-434 731z" />
<glyph unicode="Z" horiz-adv-x="1239" d="M31 111l674 1116l112 71l-479 -10l-105 -266h-131v412h1055l25 -99l-680 -1136l-113 -66l518 10l162 295h139l-78 -438h-1069z" />
<glyph unicode="[" horiz-adv-x="681" d="M133 -473v1937l170 -6l307 6v-112l-231 -21q-10 -156 -10 -741q0 -311 2.5 -543.5t4.5 -309.5l3 -77l231 -20v-113l-307 6z" />
<glyph unicode="\" horiz-adv-x="919" d="M-82 1470h156l927 -1941h-159z" />
<glyph unicode="]" horiz-adv-x="681" d="M72 -360l231 20q10 231 10 930q0 260 -2.5 445.5t-4.5 240.5l-3 55l-231 21v112l307 -6l170 6v-1937l-170 6l-307 -6v113z" />
<glyph unicode="^" horiz-adv-x="800" d="M102 942l252 502h92l252 -502h-215l-82 199l-84 -199h-215z" />
<glyph unicode="_" horiz-adv-x="1157" d="M10 -133h1137v-154h-1137v154z" />
<glyph unicode="`" horiz-adv-x="1024" d="M317 1526h308l82 -365h-160z" />
<glyph unicode="a" horiz-adv-x="1120" d="M61 252q0 70 29 127.5t76 95.5l450 139v127q0 85 -24.5 112.5t-67.5 27.5q-52 0 -96 -27l-27 -227h-309v217l461 180q229 0 325.5 -70.5t96.5 -238.5v-396q0 -108 22 -153h97l16 -113l-412 -84l-67 168l-232 -168q-149 0 -243.5 77.5t-94.5 205.5zM408 301 q0 -65 28.5 -101t63.5 -36q34 0 86 33l30 20v297l-159 -63q-23 -23 -36 -66t-13 -84z" />
<glyph unicode="b" horiz-adv-x="1196" d="M20 1403l320 51l141 6v-633l285 197q69 0 136 -32.5t121.5 -90t88 -144.5t33.5 -188q0 -243 -140 -397.5t-434 -202.5q-115 0 -238.5 25.5t-199.5 60.5v1239l-102 -4zM481 160q50 -62 111 -62q82 0 133 94t51 269q0 162 -39.5 234.5t-95.5 72.5q-51 0 -129 -53l-31 -21 v-534z" />
<glyph unicode="c" horiz-adv-x="1021" d="M51 461q0 410 547 563q228 0 348 -104v-299h-295l-41 241q-20 17 -45 17q-60 0 -102.5 -82t-42.5 -228q0 -152 82 -254t215 -102q101 0 188 66l66 -105q-162 -137 -400 -205q-230 0 -375 137.5t-145 354.5z" />
<glyph unicode="d" horiz-adv-x="1216" d="M61 461q0 455 484 563q33 0 94 -18t86 -35v311l-102 -4l-11 113l287 63l174 8v-1190q0 -40 4.5 -65t9 -34.5t17.5 -29.5h74l8 -112l-383 -62l-66 183l-237 -183q-200 0 -319.5 136t-119.5 356zM430 516q0 -140 45 -218.5t115 -78.5q54 0 104 35l31 22v531q-45 53 -117 53 q-85 0 -131.5 -90.5t-46.5 -253.5z" />
<glyph unicode="e" horiz-adv-x="1032" d="M51 455q0 70 10.5 128.5t43.5 126t87.5 122t149 105.5t221.5 87q107 0 189 -31.5t131 -87t73.5 -125.5t24.5 -153v-129h-573q8 -125 77.5 -205t180.5 -80q72 0 143 24.5t113 53.5l55 -101q-85 -79 -174.5 -125.5t-237.5 -95.5q-227 0 -370.5 136.5t-143.5 349.5zM406 606 l239 19q0 254 -113 254q-60 0 -93 -72.5t-33 -200.5z" />
<glyph unicode="f" horiz-adv-x="831" d="M41 811v51l80 92h76v27q0 143 131 262l235 211h299v-229h-266l-25 -43q-13 -22 -19 -57.5t-6.5 -59.5t-0.5 -78v-43h270v-133h-270v-674l194 -26l-10 -113l-424 6l-201 -6l-10 113l103 26v674h-156z" />
<glyph unicode="g" horiz-adv-x="1185" d="M31 -209l254 135q-103 21 -160 87.5t-57 152.5v61l225 125q-100 46 -156.5 129t-56.5 183q1 62 23.5 111.5t60 85.5t100.5 66.5t130 51.5t163 45q83 0 146 -14t107.5 -42.5t74 -61t57.5 -79.5l82 197h152v-246h-189l-18 -18q10 -42 10 -74q-1 -65 -23.5 -116.5t-59 -89 t-99 -69.5t-128.5 -55t-163 -49q-84 0 -137 19l-39 -58q0 -39 29 -55t87 -16h379q128 0 208.5 -71t80.5 -179q0 -64 -31.5 -120t-81 -99t-132.5 -86t-162 -74t-193 -70q-98 0 -181 12.5t-153 39t-109.5 74.5t-39.5 114v53zM336 -172q0 -156 248 -156q119 0 176 43.5t57 96.5 q0 47 -31.5 77.5t-91.5 30.5h-309q-23 -15 -36 -40.5t-13 -51.5zM395 692q0 -129 39 -196.5t107 -67.5q60 0 89 57.5t29 151.5q0 128 -38.5 196t-104.5 68q-60 0 -90.5 -58.5t-30.5 -150.5z" />
<glyph unicode="h" horiz-adv-x="1298" d="M51 1401l324 53l145 6v-629l316 193q89 0 146.5 -13t99.5 -47t60.5 -93.5t18.5 -151.5v-582l103 -26l-11 -113l-266 6l-246 -6l-10 113l72 26v547q0 49 -24 73.5t-68 24.5q-58 0 -156 -67l-35 -25v-553l72 -26l-10 -113l-236 6l-266 -6l-10 113l102 26v1151l-111 -4z" />
<glyph unicode="i" horiz-adv-x="665" d="M61 942l320 51l141 6v-862l103 -26l-11 -113l-266 6l-266 -6l-10 113l102 26v697l-102 -5zM186 1300l29 130l223 14l74 -14l16 -154l-30 -127l-222 -16l-75 16z" />
<glyph unicode="j" horiz-adv-x="647" d="M-72 -211h228l10 45q18 88 18 281v719l-102 -5l-10 113l319 51l141 6v-843q0 -72 -17.5 -140t-40.5 -114.5t-61 -94.5t-62 -72t-60 -57l-176 -159h-187v270zM193 1300l28 130l223 14l74 -14l17 -154l-31 -127l-221 -16l-76 16z" />
<glyph unicode="k" horiz-adv-x="1273" d="M61 1401l324 53l145 6v-891l58 31l325 256l-143 27v112l238 -6l209 6l12 -112l-127 -27l-338 -260l82 -45l338 -414l80 -26l-21 -113l-221 6l-148 -6l-305 444l-39 101v-406l62 -26l-10 -113l-260 6l-232 -6l-10 113l102 26v1151l-110 -4z" />
<glyph unicode="l" horiz-adv-x="653" d="M51 1401l324 53l145 6v-1323l103 -26l-11 -113l-266 6l-266 -6l-10 113l102 26v1151l-111 -4z" />
<glyph unicode="m" horiz-adv-x="1910" d="M61 938l306 55l145 6l12 -165l281 190q156 0 235 -41.5t101 -151.5l295 193q91 0 150.5 -13t103 -47t63 -93t19.5 -150v-584l104 -26l-10 -113l-252 6l-252 -6l-12 113l63 26v547q0 100 -80 100q-53 0 -147 -61l-35 -27v-559l63 -26l-10 -113l-243 6l-222 -6l-10 113 l64 26v547q0 49 -21.5 74.5t-60.5 25.5q-34 0 -66 -15t-78 -46l-37 -27v-559l64 -26l-10 -113l-254 6l-240 -6l-10 113l102 26v688l-110 -4z" />
<glyph unicode="n" horiz-adv-x="1308" d="M61 938l324 55l145 6v-168l316 193q89 0 146.5 -13t99.5 -47t60.5 -93.5t18.5 -151.5v-582l103 -26l-10 -113l-267 6l-245 -6l-11 113l72 26v547q0 49 -24 73.5t-68 24.5q-62 0 -156 -67l-35 -25v-553l72 -26l-10 -113l-236 6l-266 -6l-10 113l102 26v688l-110 -4z" />
<glyph unicode="o" horiz-adv-x="1138" d="M51 469q0 105 32 190t83 142t128 102.5t152.5 72t171.5 48.5q201 0 335 -136.5t134 -361.5q0 -105 -32.5 -190t-83.5 -142.5t-129.5 -102.5t-155 -72t-174.5 -50q-197 0 -329 137.5t-132 362.5zM420 592q0 -244 49 -367t115 -123q121 0 121 301q0 245 -48 366.5 t-114 121.5q-123 0 -123 -299z" />
<glyph unicode="p" horiz-adv-x="1196" d="M31 938l305 51l137 6l19 -166l274 195q65 0 133 -32t125.5 -88t94 -141.5t36.5 -182.5q0 -265 -136 -417.5t-425 -193.5q-42 0 -102 17v-324l174 -22l-11 -113l-344 6l-260 -6l-10 113l102 22v1167l-102 -4zM492 162q29 -35 56.5 -49.5t65.5 -14.5q75 0 123.5 99 t48.5 272q0 305 -155 305q-40 0 -107 -51l-32 -25v-536z" />
<glyph unicode="q" horiz-adv-x="1185" d="M61 457q0 464 486 567q191 0 360 -78l82 66h84v-1352l103 -20l-11 -113l-250 6l-354 -6l-10 113l174 20v490l-217 -181q-204 0 -325.5 134.5t-121.5 353.5zM428 530q0 -142 46.5 -228.5t121.5 -86.5q34 0 96 37l33 20v545q-45 49 -107 49q-88 0 -139 -90t-51 -246z" />
<glyph unicode="r" horiz-adv-x="942" d="M61 938l285 55l127 8l37 -348l205 361h207v-332h-246q-18 -10 -35.5 -25.5t-29 -27.5t-32.5 -36t-34 -38l-19 -20v-398l222 -26l-11 -113l-381 6l-274 -6l-10 113l106 26v688l-106 -4z" />
<glyph unicode="s" horiz-adv-x="946" d="M72 371h139l45 -148q41 -48 94 -78t101 -30q120 0 120 88q0 40 -22.5 67t-89.5 60l-146 73q-110 55 -165.5 120t-55.5 159q0 48 10.5 85.5t39 74.5t77.5 67t125.5 59t183.5 56q199 0 320 -57q5 -3 8 -4v-297h-125l-49 137q-64 84 -154 84q-64 0 -98.5 -26t-34.5 -62 q0 -41 31 -70t127 -74l147 -69q195 -90 195 -275q0 -75 -26.5 -129t-85 -94t-137 -67t-197.5 -52q-60 0 -156 19.5t-182 52.5z" />
<glyph unicode="t" horiz-adv-x="858" d="M10 823v37l84 90h92v146l226 164h120v-314h256v-123h-253v-516q0 -60 29 -94.5t71 -34.5q70 0 164 51l49 -106l-295 -154q-49 0 -95 7t-97 27t-88.5 51.5t-62 85t-24.5 122.5v561h-176z" />
<glyph unicode="u" horiz-adv-x="1241" d="M31 928l284 65l179 8v-665q0 -61 25 -90t83 -29q43 0 105 43l32 23v540l-94 -8l-10 113l274 65l178 8v-720q0 -90 31 -138h74l8 -112l-383 -62l-61 189l-279 -189q-94 0 -155 13t-105 47t-63 93t-19 150v551l-94 -8z" />
<glyph unicode="v" horiz-adv-x="1163" d="M10 885l10 110l297 -6l246 6l10 -110l-94 -27l170 -483l17 -178l213 661l-99 27l11 110l198 -4l154 4l10 -110l-113 -27l-303 -833l-268 -56l-373 889z" />
<glyph unicode="w" horiz-adv-x="1824" d="M10 885l10 110l287 -6l238 6l10 -110l-90 -27l164 -483l16 -182l197 544l-49 121l-84 27l10 110l287 -6l237 6l10 -110l-90 -27l164 -483l16 -182l213 665l-94 27l11 110l184 -6l147 6l11 -110l-109 -27l-293 -833l-260 -56l-207 512l-12 148l-219 -604l-260 -56 l-361 889z" />
<glyph unicode="x" horiz-adv-x="1232" d="M20 111l97 20l313 326l-299 405l-111 21l11 112l243 -6l338 6l11 -112l-84 -21l110 -155l19 -82l215 237l-62 21l10 112l199 -6l156 6l10 -112l-100 -21l-289 -305l330 -426l86 -20l-13 -113l-209 6l-346 -6l-12 113l88 20l-143 164l-31 86l-219 -250l98 -20l-10 -113 l-242 6l-153 -6z" />
<glyph unicode="y" horiz-adv-x="1193" d="M10 883l10 112l297 -6l246 6l10 -112l-94 -21l183 -487l30 -197l197 680l-98 23l10 114l198 -6l175 6l10 -114l-113 -23l-289 -795l-237 -544h-363v321h283l207 256l-248 -82l-328 848z" />
<glyph unicode="z" horiz-adv-x="1048" d="M41 82l489 739l88 62l-319 -23l-70 -211h-123v344h855l36 -73l-477 -738l-88 -69l332 28l96 250h137l-57 -391h-860z" />
<glyph unicode="{" horiz-adv-x="712" d="M82 522v29q33 11 56.5 24.5t38 32.5t23 35.5t12 44t4.5 46.5t1 54l-2 390q0 126 101 206t237 80h98v-112h-57q-131 0 -123 -215l12 -349q1 -35 -0.5 -56.5t-9 -52t-22 -52.5t-43.5 -46t-70 -44l145 -107l-12 -573q-5 -215 123 -215h57v-113h-119q-134 0 -225.5 79.5 t-91.5 207.5l2 583z" />
<glyph unicode="|" horiz-adv-x="600" d="M225 -502v1972h150v-1972h-150z" />
<glyph unicode="}" horiz-adv-x="702" d="M51 -358h58q127 0 122 215q-2 88 -6.5 229.5t-5.5 198.5q-1 34 0.5 56.5t9 53t22.5 52.5t44 46t70 44l-148 106l14 494q5 215 -122 215h-58v112h99q136 0 236.5 -80t100.5 -206l-2 -504l136 -123v-29q-39 -13 -65 -31.5t-40 -37.5t-21 -50t-8.5 -54t-1.5 -64l2 -469 q0 -128 -91.5 -207.5t-225.5 -79.5h-119v113z" />
<glyph unicode="~" horiz-adv-x="1370" d="M102 420l76 164l201 96l688 -115l88 80h113l-80 -174l-191 -86l-694 115l-88 -80h-113z" />
<glyph unicode="&#xa1;" horiz-adv-x="665" d="M154 -471l30 674l31 299h236l30 -297l31 -676h-358zM166 834l18 145l228 14l80 -14l14 -166l-14 -141l-228 -19l-80 19z" />
<glyph unicode="&#xa2;" horiz-adv-x="1052" d="M82 461q0 334 364 497v168h185v-102q226 0 346 -104v-299h-295l-41 241q-20 17 -45 17q-60 0 -102.5 -82t-42.5 -228q0 -152 82 -254t215 -102q101 0 188 66l65 -105q-146 -124 -362 -194v-144h-184v148q-169 44 -271 170t-102 307z" />
<glyph unicode="&#xa3;" horiz-adv-x="1204" d="M82 631v35l135 112h45v287q0 65 35.5 123t89.5 100t128 78t141.5 58.5t138.5 39.5q206 0 290 -100v-227h-163l-35 153q-47 41 -117 41q-29 0 -51.5 -6.5t-38 -19.5t-27 -27.5t-18 -37.5t-10.5 -41.5t-4.5 -46.5t-0.5 -46t0.5 -47t0.5 -43v-238h258v-147h-258v-264 q0 -55 -7 -98.5t-16.5 -67t-21 -40t-17.5 -21t-10 -5.5l338 6l96 174h139l-51 -317l-680 6l-282 -6l-11 72l164 92v469h-180z" />
<glyph unicode="&#xa4;" d="M154 346l114 115q-80 113 -80 256q0 154 97 278l-123 123l94 94l125 -127q119 82 258 82q135 0 256 -80l121 121l96 -96l-119 -119q97 -125 97 -276q0 -139 -82 -258l108 -107l-94 -94l-104 104q-123 -96 -279 -96q-155 0 -279 94l-110 -110zM330 717q0 -126 91.5 -217.5 t217.5 -91.5t217.5 91.5t91.5 217.5t-91.5 217.5t-217.5 91.5t-217.5 -91.5t-91.5 -217.5z" />
<glyph unicode="&#xa5;" horiz-adv-x="1458" d="M41 1327l10 113l314 -6l321 6l10 -113l-133 -27l254 -514l8 -151l303 668l-137 24l10 113l216 -6l190 4l10 -111l-119 -24l-364 -734h276v-112h-286v-99h286v-112h-286v-109l215 -26l-11 -113l-385 6l-383 -6l-10 113l215 26v109h-266v112h266v99h-266v112h254l-391 731z " />
<glyph unicode="&#xa6;" horiz-adv-x="600" d="M225 379h150v-881h-150v881zM225 590v880h150v-880h-150z" />
<glyph unicode="&#xa7;" horiz-adv-x="1191" d="M82 492q0 192 213 290q-107 130 -107 265q0 174 121.5 274t366.5 149q105 0 184.5 -27t116.5 -73v-227h-168l-27 153q-11 22 -44.5 37t-82.5 15q-63 0 -105 -49.5t-42 -139.5q0 -184 201 -307l401 -244v-110q0 -270 -192 -408q75 -95 75 -192q0 -160 -112 -254.5 t-365 -145.5q-103 0 -194.5 30t-141.5 71v247h168l25 -153q15 -25 51.5 -48.5t79.5 -23.5q76 0 127 52.5t51 142.5q0 23 -6 43.5t-13.5 37t-25 34.5t-30.5 30t-39.5 30t-42.5 28t-49.5 31t-51.5 32q-39 25 -63.5 41t-64.5 45t-66 52.5t-56.5 57.5t-48.5 65.5t-30.5 70.5 t-12.5 78zM360 580q0 -65 62 -125.5t209 -151.5l184 -113q33 65 33 164v31l-383 250q-45 30 -76 57q-29 -42 -29 -112z" />
<glyph unicode="&#xa8;" horiz-adv-x="1024" d="M170 1352l25 110l165 15l68 -15l16 -131l-28 -112l-162 -15l-70 15zM580 1352l26 110l164 15l70 -15l14 -131l-27 -112l-163 -15l-68 15z" />
<glyph unicode="&#xa9;" horiz-adv-x="1703" d="M102 729q0 158 53.5 286.5t152.5 218.5t235 147.5t307 82.5q151 -2 286.5 -54t239.5 -146.5t165 -239t61 -319.5q0 -158 -53.5 -286.5t-152.5 -218.5t-235 -148t-307 -83q-151 2 -286.5 54t-239.5 147t-165 239.5t-61 319.5zM266 729q0 -126 38 -234t99 -180.5 t138.5 -124t156 -75t152.5 -23.5q118 0 224 42t187 118.5t129 194t48 258.5q0 126 -38 233.5t-99 180t-138.5 124t-156 75t-152.5 23.5q-118 0 -224 -42t-187 -118.5t-129 -193.5t-48 -258zM434 692q0 201 123 307t367 146q134 0 266 -70v-225h-92l-37 117q-29 42 -67 66 t-103 24q-97 0 -160 -87t-63 -237q0 -156 62.5 -256t164.5 -100q55 0 93 21.5t81 64.5l53 141h86l-16 -235q-130 -55 -318 -80q-118 0 -216.5 44.5t-161 138t-62.5 220.5z" />
<glyph unicode="&#xaa;" horiz-adv-x="968" d="M82 862q0 108 80 174l352 109v98q0 67 -19 88t-55 21q-41 0 -71 -21l-21 -176h-242v168l357 141q179 0 254.5 -54.5t75.5 -186.5v-310q0 -75 16 -116h78l10 -88l-319 -66l-54 129l-178 -129q-117 0 -190.5 60t-73.5 159zM352 901q0 -51 21.5 -78.5t48.5 -27.5q34 0 67 26 l25 15v231l-125 -49q-18 -18 -27.5 -51.5t-9.5 -65.5z" />
<glyph unicode="&#xab;" horiz-adv-x="1185" d="M31 481l372 451h222l-260 -453l260 -448h-224zM530 481l373 451h221l-260 -453l260 -448h-223z" />
<glyph unicode="&#xac;" d="M106 594v174h1055v-399h-174v225h-881z" />
<glyph unicode="&#xad;" horiz-adv-x="747" d="M61 526v144h625v-144h-625z" />
<glyph unicode="&#xae;" horiz-adv-x="1232" d="M92 899q0 215 139 342t383 162q144 -1 262 -61t191.5 -179.5t73.5 -279.5q0 -214 -139.5 -341.5t-383.5 -162.5q-144 1 -262 61.5t-191 180t-73 278.5zM199 899q0 -89 27 -166t70.5 -129t99 -89t111 -54t107.5 -17q113 0 207.5 51t153.5 153t59 235q0 90 -27 167 t-71 128.5t-99 88.5t-111 53.5t-108 16.5q-113 0 -207.5 -51t-153 -152.5t-58.5 -234.5zM356 662l54 8v450l-54 8l4 46l123 -5l197 5q70 0 118 -38t48 -102q0 -57 -49.5 -92.5t-130.5 -50.5l102 -43l106 -176l35 -10l-2 -46l-102 5l-70 -5l-145 244l-8 8h-25v-198l55 -8 l-4 -46l-123 5l-125 -5zM557 922h49q35 0 59.5 28.5t24.5 79.5q0 48 -24 73t-62 25l-47 -4v-202z" />
<glyph unicode="&#xaf;" horiz-adv-x="1024" d="M205 1229v164h614v-164h-614z" />
<glyph unicode="&#xb0;" horiz-adv-x="862" d="M102 1214q0 134 79 211.5t251 116.5q153 0 240.5 -94t87.5 -234q0 -135 -78 -212.5t-250 -116.5q-153 0 -241.5 95t-88.5 234zM254 1208q0 -95 50.5 -145.5t127.5 -50.5q76 0 126 50.5t50 145.5q0 96 -50.5 151.5t-125.5 55.5t-126.5 -55.5t-51.5 -151.5z" />
<glyph unicode="&#xb1;" d="M106 0v174h1035v-174h-1035zM106 698v174h441v447h174v-447h440v-174h-440v-434h-174v434h-441z" />
<glyph unicode="&#xb2;" horiz-adv-x="780" d="M41 877l225 225q176 173 176 319q0 56 -18 87.5t-53 31.5q-32 0 -74 -10l-33 -160h-186v168l319 86q129 0 211 -59t82 -154q0 -98 -69.5 -177t-217.5 -173l-221 -137l197 57h319v-63l-47 -99h-579z" />
<glyph unicode="&#xb3;" horiz-adv-x="716" d="M61 1370v168l322 86q233 0 233 -151q0 -65 -48.5 -106t-155.5 -69q131 -8 192.5 -58.5t61.5 -121.5q0 -37 -19.5 -67t-56.5 -54t-72.5 -40.5t-87.5 -38.5t-80 -37l-119 -62h-149v176h328q4 66 4 86q0 59 -35.5 93t-110.5 34l-12 54l35 16q47 21 70.5 55.5t23.5 91.5 q0 109 -63 109q-24 0 -41 -10l-31 -154h-189z" />
<glyph unicode="&#xb4;" horiz-adv-x="1024" d="M317 1161l82 365h308l-230 -365h-160z" />
<glyph unicode="&#xb5;" d="M109 -471v1464h348v-667q0 -115 100 -115q43 0 105 45l30 23v714h348v-686q0 -49 7.5 -85t16.5 -55.5t28 -33.5t31.5 -19t37.5 -12l-20 -102h-328l-104 150l-203 -181q-111 0 -205 60v-111l176 -389h-368z" />
<glyph unicode="&#xb6;" horiz-adv-x="1124" d="M61 1053q0 45 19 88t46 76.5t78 74.5t93 69t113 73h632v-123l-112 -21v-1618h-174v1618h-174v-1618h-174v1065q-150 0 -248.5 86.5t-98.5 229.5z" />
<glyph unicode="&#xb7;" horiz-adv-x="544" d="M113 836l14 131l207 18l80 -18l18 -152l-18 -135l-207 -14l-80 14z" />
<glyph unicode="&#xb8;" horiz-adv-x="1024" d="M281 -512l59 102h131q51 39 51 123q0 63 -36.5 93t-86.5 30l170 230l93 -33l-87 -129q79 0 122.5 -35t43.5 -102q0 -40 -15.5 -75t-37 -58.5t-55 -45t-59 -33.5t-60.5 -26l-104 -41h-129z" />
<glyph unicode="&#xb9;" horiz-adv-x="665" d="M61 1491l277 123h139v-707l158 -20l-6 -70l-271 4l-278 -4l-6 70l157 20v535l19 43l-64 -45l-94 -13z" />
<glyph unicode="&#xba;" horiz-adv-x="948" d="M72 1034q0 81 25 147t64.5 110.5t99.5 79.5t118 55t133 38q156 0 260.5 -105.5t104.5 -281.5q0 -81 -25.5 -147.5t-65 -110.5t-101 -79t-120.5 -56t-135 -39q-153 0 -255.5 106.5t-102.5 282.5zM358 1128q0 -189 37.5 -283.5t89.5 -94.5q95 0 95 233q0 189 -37.5 284 t-89.5 95q-95 0 -95 -234z" />
<glyph unicode="&#xbb;" horiz-adv-x="1185" d="M61 31l261 448l-261 453h222l372 -451l-370 -450h-224zM561 31l260 448l-260 453h221l373 -451l-371 -450h-223z" />
<glyph unicode="&#xbc;" horiz-adv-x="1785" d="M82 1317l276 123h140v-707l157 -20l-6 -70l-270 4l-279 -4l-6 70l158 20v535l18 43l-63 -45l-94 -13zM416 -102l792 1556h156l-789 -1556h-159zM1026 276l401 512h175v-86l-431 -409l66 29h131v86l166 127h41v-213h129v-150h-129v-172h-207v172h-283z" />
<glyph unicode="&#xbd;" horiz-adv-x="1777" d="M82 1317l276 123h140v-707l157 -20l-6 -70l-270 4l-279 -4l-6 70l158 20v535l18 43l-63 -45l-94 -13zM416 -102l792 1556h156l-789 -1556h-159zM1038 57l31 -57h580l47 98v64h-320l-196 -58l221 138q148 94 217.5 173t69.5 177q0 95 -82 154t-211 59l-320 -86v-168h187 l32 160q42 10 74 10q35 0 53.5 -31.5t18.5 -87.5q0 -146 -176 -319z" />
<glyph unicode="&#xbe;" horiz-adv-x="1814" d="M82 1196h188l31 154q17 10 41 10q64 0 64 -109q0 -105 -95 -147l-35 -17l13 -53q75 0 110 -34t35 -93q0 -20 -4 -86h-328v-176h150l119 62q26 13 67 31t72 31t66 32.5t57.5 38.5t37.5 46t15 58q0 71 -61.5 121.5t-192.5 58.5q108 28 156.5 68.5t48.5 105.5 q0 152 -234 152l-321 -86v-168zM444 -102l793 1556h156l-789 -1556h-160zM1055 276l401 512h174v-86l-430 -409l66 29h131v86l166 127h41v-213h129v-150h-129v-172h-207v172h-283z" />
<glyph unicode="&#xbf;" horiz-adv-x="929" d="M41 -88q0 239 377 367l59 20l15 213h141l12 -279l-80 -45q-52 -30 -96.5 -112.5t-44.5 -184.5q0 -117 42 -178t114 -61l38 141h189v-244l-277 -22q-234 32 -361.5 128.5t-127.5 256.5zM397 834l19 145l227 14l80 -14l14 -166l-14 -141l-227 -19l-80 19z" />
<glyph unicode="&#xc0;" horiz-adv-x="1509" d="M10 111l109 26l448 1260l353 71l450 -1335l129 -22l-10 -113l-420 6l-229 -6l-11 113l134 26l-103 316h-469l-102 -316l147 -26l-10 -113l-207 6l-199 -6zM426 1862h328l82 -283h-181zM434 575h385l-170 539l-2 121z" />
<glyph unicode="&#xc1;" horiz-adv-x="1509" d="M10 111l109 26l448 1260l353 71l450 -1335l129 -22l-10 -113l-420 6l-229 -6l-11 113l134 26l-103 316h-469l-102 -316l147 -26l-10 -113l-207 6l-199 -6zM434 575h385l-170 539l-2 121zM618 1579l82 283h328l-229 -283h-181z" />
<glyph unicode="&#xc2;" horiz-adv-x="1509" d="M10 111l109 26l448 1260l353 71l450 -1335l129 -22l-10 -113l-420 6l-229 -6l-11 113l134 26l-103 316h-469l-102 -316l147 -26l-10 -113l-207 6l-199 -6zM391 1579l246 283h213l246 -283h-201l-109 94l-43 58l-43 -58l-108 -94h-201zM434 575h385l-170 539l-2 121z" />
<glyph unicode="&#xc3;" horiz-adv-x="1509" d="M10 111l109 26l448 1260l353 71l450 -1335l129 -22l-10 -113l-420 6l-229 -6l-11 113l134 26l-103 316h-469l-102 -316l147 -26l-10 -113l-207 6l-199 -6zM369 1577l63 244l154 45l383 -105l59 101h82l-66 -254l-151 -35l-385 104l-57 -100h-82zM434 575h385l-170 539 l-2 121z" />
<glyph unicode="&#xc4;" horiz-adv-x="1509" d="M10 111l109 26l448 1260l353 71l450 -1335l129 -22l-10 -113l-420 6l-229 -6l-11 113l134 26l-103 316h-469l-102 -316l147 -26l-10 -113l-207 6l-199 -6zM381 1710l25 111l165 14l68 -14l16 -131l-28 -113l-162 -14l-70 14zM434 575h385l-170 539l-2 121zM872 1710 l27 111l164 14l70 -14l14 -131l-27 -113l-164 -14l-67 14z" />
<glyph unicode="&#xc5;" horiz-adv-x="1509" d="M10 111l109 26l448 1260l353 71l450 -1335l129 -22l-10 -113l-420 6l-229 -6l-11 113l134 26l-103 316h-469l-102 -316l147 -26l-10 -113l-207 6l-199 -6zM434 575h385l-170 539l-2 121zM492 1741q0 54 19.5 94t59.5 66.5t76.5 41t95.5 31.5q252 0 252 -233 q0 -35 -7.5 -63t-17 -48t-30.5 -37t-36 -26.5t-47 -20.5t-50 -16t-57 -14q-50 0 -93.5 11.5t-82 36t-60.5 70t-22 107.5zM623 1741q0 -52 34.5 -84.5t87.5 -32.5t88 32.5t35 84.5t-35.5 88.5t-87.5 36.5t-87 -36.5t-35 -88.5z" />
<glyph unicode="&#xc6;" horiz-adv-x="2162" d="M10 109l119 22l848 1305l240 -2l835 4l23 -379h-109l-127 235l-436 6v-540l215 8l82 221h102l-20 -297l20 -297h-102l-82 221l-215 9v-490l450 6l150 246h108l-73 -389l-844 4l-283 -4l-10 113l143 26v490h-419l-303 -492l137 -26l-10 -109l-230 6l-199 -6zM692 750h352 v571z" />
<glyph unicode="&#xc7;" horiz-adv-x="1454" d="M61 674q0 145 37.5 262t107.5 203.5t177 152t239 108t300 70.5q239 0 469 -122l2 -398h-164l-66 205q-31 48 -64 80t-94.5 57t-140.5 25q-169 0 -281 -154.5t-112 -417.5q0 -179 49 -321.5t140.5 -224.5t209.5 -82q97 0 165 38t143 115l94 248h151l-30 -416 q-215 -91 -557 -139l-52 -59q79 0 122.5 -35t43.5 -102q0 -40 -15.5 -75t-37 -58.5t-55 -45t-59 -33.5t-60.5 -26l-105 -41h-129l60 102h131q51 39 51 123q0 63 -36.5 93t-86.5 30l113 133q-136 16 -254.5 69t-209.5 139.5t-143.5 214.5t-52.5 282z" />
<glyph unicode="&#xc8;" horiz-adv-x="1343" d="M61 111l144 26v1161l-144 27l11 111l282 -6l899 6l23 -410h-129l-127 266l-436 6v-477l204 8l82 222h123l-20 -297l20 -297h-123l-82 221l-204 8v-551l460 6l140 277h129l-64 -420l-895 6l-282 -6zM395 1862h328l82 -283h-180z" />
<glyph unicode="&#xc9;" horiz-adv-x="1343" d="M61 111l144 26v1161l-144 27l11 111l282 -6l899 6l23 -410h-129l-127 266l-436 6v-477l204 8l82 222h123l-20 -297l20 -297h-123l-82 221l-204 8v-551l460 6l140 277h129l-64 -420l-895 6l-282 -6zM567 1579l82 283h328l-229 -283h-181z" />
<glyph unicode="&#xca;" horiz-adv-x="1343" d="M61 111l144 26v1161l-144 27l11 111l282 -6l899 6l23 -410h-129l-127 266l-436 6v-477l204 8l82 222h123l-20 -297l20 -297h-123l-82 221l-204 8v-551l460 6l140 277h129l-64 -420l-895 6l-282 -6zM319 1579l246 283h213l246 -283h-201l-108 94l-43 58l-43 -58l-109 -94 h-201z" />
<glyph unicode="&#xcb;" horiz-adv-x="1343" d="M61 111l144 26v1161l-144 27l11 111l282 -6l899 6l23 -410h-129l-127 266l-436 6v-477l204 8l82 222h123l-20 -297l20 -297h-123l-82 221l-204 8v-551l460 6l140 277h129l-64 -420l-895 6l-282 -6zM305 1710l25 111l166 14l67 -14l17 -131l-29 -113l-162 -14l-70 14z M797 1710l26 111l164 14l70 -14l14 -131l-27 -113l-163 -14l-68 14z" />
<glyph unicode="&#xcc;" horiz-adv-x="788" d="M61 111l144 26v1161l-144 27l11 111l323 -6l322 6l10 -111l-143 -27v-1161l143 -26l-10 -113l-322 6l-323 -6zM86 1862h328l82 -283h-181z" />
<glyph unicode="&#xcd;" horiz-adv-x="788" d="M61 111l144 26v1161l-144 27l11 111l323 -6l322 6l10 -111l-143 -27v-1161l143 -26l-10 -113l-322 6l-323 -6zM301 1579l82 283h328l-230 -283h-180z" />
<glyph unicode="&#xce;" horiz-adv-x="788" d="M43 1579l246 283h213l246 -283h-201l-109 94l-43 58l-43 -58l-108 -94h-201zM61 111l144 26v1161l-144 27l11 111l323 -6l322 6l10 -111l-143 -27v-1161l143 -26l-10 -113l-322 6l-323 -6z" />
<glyph unicode="&#xcf;" horiz-adv-x="788" d="M55 1710l25 111l166 14l67 -14l17 -131l-29 -113l-162 -14l-69 14zM61 111l144 26v1161l-144 27l11 111l323 -6l322 6l10 -111l-143 -27v-1161l143 -26l-10 -113l-322 6l-323 -6zM465 1710l27 111l163 14l70 -14l14 -131l-26 -113l-164 -14l-68 14z" />
<glyph unicode="&#xd0;" horiz-adv-x="1587" d="M61 111l144 26v545h-133v123h133v493l-144 27l11 111l245 -6l492 6q337 3 527 -175t190 -507q0 -118 -25 -222t-80.5 -196.5t-138 -162.5t-203.5 -116t-272 -59l-500 6l-235 -6zM584 127l186 -14q84 -7 153 42.5t112.5 136.5t67 198.5t23.5 232.5q0 275 -111.5 442 t-293.5 154l-137 -10v-504h204v-123h-204v-555z" />
<glyph unicode="&#xd1;" horiz-adv-x="1507" d="M61 111l144 26v1161l-144 27l11 111l153 -6l260 6l621 -731l63 -213v806l-137 27l4 111l226 -6l215 6l10 -111l-144 -27v-1304h-169l-740 926l-55 219v-1002l137 -26l-4 -113l-225 6l-215 -6zM420 1577l63 244l154 45l383 -105l59 101h82l-65 -254l-152 -35l-385 104 l-57 -100h-82z" />
<glyph unicode="&#xd2;" horiz-adv-x="1689" d="M61 676q0 233 79 385.5t254.5 251t475.5 157.5q172 0 315 -54t239.5 -149t150 -226t53.5 -283q0 -233 -79 -386t-255 -251.5t-475 -157.5q-172 0 -315 54t-239.5 149.5t-150 226.5t-53.5 283zM471 752q0 -121 25 -232.5t72.5 -202.5t125.5 -145.5t176 -54.5 q177 0 263 150t86 417q0 119 -24.5 230t-71.5 202t-124 146t-174 55q-179 0 -266.5 -149.5t-87.5 -415.5zM549 1862h328l81 -283h-180z" />
<glyph unicode="&#xd3;" horiz-adv-x="1689" d="M61 676q0 233 79 385.5t254.5 251t475.5 157.5q172 0 315 -54t239.5 -149t150 -226t53.5 -283q0 -233 -79 -386t-255 -251.5t-475 -157.5q-172 0 -315 54t-239.5 149.5t-150 226.5t-53.5 283zM471 752q0 -121 25 -232.5t72.5 -202.5t125.5 -145.5t176 -54.5 q177 0 263 150t86 417q0 119 -24.5 230t-71.5 202t-124 146t-174 55q-179 0 -266.5 -149.5t-87.5 -415.5zM762 1579l82 283h327l-229 -283h-180z" />
<glyph unicode="&#xd4;" horiz-adv-x="1689" d="M61 676q0 233 79 385.5t254.5 251t475.5 157.5q172 0 315 -54t239.5 -149t150 -226t53.5 -283q0 -233 -79 -386t-255 -251.5t-475 -157.5q-172 0 -315 54t-239.5 149.5t-150 226.5t-53.5 283zM471 752q0 -121 25 -232.5t72.5 -202.5t125.5 -145.5t176 -54.5 q177 0 263 150t86 417q0 119 -24.5 230t-71.5 202t-124 146t-174 55q-179 0 -266.5 -149.5t-87.5 -415.5zM514 1579l246 283h213l246 -283h-201l-109 94l-43 58l-43 -58l-108 -94h-201z" />
<glyph unicode="&#xd5;" horiz-adv-x="1689" d="M61 676q0 233 79 385.5t254.5 251t475.5 157.5q172 0 315 -54t239.5 -149t150 -226t53.5 -283q0 -233 -79 -386t-255 -251.5t-475 -157.5q-172 0 -315 54t-239.5 149.5t-150 226.5t-53.5 283zM471 752q0 -121 25 -232.5t72.5 -202.5t125.5 -145.5t176 -54.5 q177 0 263 150t86 417q0 119 -24.5 230t-71.5 202t-124 146t-174 55q-179 0 -266.5 -149.5t-87.5 -415.5zM492 1577l63 244l154 45l383 -105l59 101h82l-66 -254l-151 -35l-385 104l-58 -100h-81z" />
<glyph unicode="&#xd6;" horiz-adv-x="1689" d="M61 676q0 233 79 385.5t254.5 251t475.5 157.5q172 0 315 -54t239.5 -149t150 -226t53.5 -283q0 -233 -79 -386t-255 -251.5t-475 -157.5q-172 0 -315 54t-239.5 149.5t-150 226.5t-53.5 283zM471 752q0 -121 25 -232.5t72.5 -202.5t125.5 -145.5t176 -54.5 q177 0 263 150t86 417q0 119 -24.5 230t-71.5 202t-124 146t-174 55q-179 0 -266.5 -149.5t-87.5 -415.5zM473 1710l25 111l166 14l67 -14l17 -131l-29 -113l-162 -14l-70 14zM965 1710l26 111l164 14l70 -14l14 -131l-27 -113l-163 -14l-68 14z" />
<glyph unicode="&#xd7;" d="M197 748l122 122l318 -317l311 313l123 -125l-311 -311l307 -307l-123 -123l-307 307l-311 -311l-125 123l313 311z" />
<glyph unicode="&#xd8;" horiz-adv-x="1689" d="M61 676q0 233 79 385.5t254.5 251t475.5 157.5q249 0 433 -110l90 104h176l-158 -184q105 -97 161 -231t56 -291q0 -233 -79 -386t-255 -251.5t-475 -157.5q-251 0 -438 113l-92 -107h-180l163 191q-102 96 -156.5 228t-54.5 288zM471 752q0 -171 45 -310l594 695 q-50 83 -122.5 131.5t-162.5 48.5q-179 0 -266.5 -149.5t-87.5 -415.5zM575 303q109 -186 295 -186q177 0 263 150t86 417q0 166 -48 315z" />
<glyph unicode="&#xd9;" horiz-adv-x="1556" d="M41 1325l10 111l273 -6l362 6l10 -111l-133 -27v-768q0 -181 79.5 -282t231.5 -101t233 101.5t81 283.5v766l-164 27l10 111l262 -6l230 6l10 -111l-154 -27v-772q0 -108 -24 -191t-81.5 -155.5t-160 -126.5t-252.5 -90q-680 0 -680 547v788zM528 1862h328l82 -283h-180z " />
<glyph unicode="&#xda;" horiz-adv-x="1556" d="M41 1325l10 111l273 -6l362 6l10 -111l-133 -27v-768q0 -181 79.5 -282t231.5 -101t233 101.5t81 283.5v766l-164 27l10 111l262 -6l230 6l10 -111l-154 -27v-772q0 -108 -24 -191t-81.5 -155.5t-160 -126.5t-252.5 -90q-680 0 -680 547v788zM741 1579l82 283h328 l-229 -283h-181z" />
<glyph unicode="&#xdb;" horiz-adv-x="1556" d="M41 1325l10 111l273 -6l362 6l10 -111l-133 -27v-768q0 -181 79.5 -282t231.5 -101t233 101.5t81 283.5v766l-164 27l10 111l262 -6l230 6l10 -111l-154 -27v-772q0 -108 -24 -191t-81.5 -155.5t-160 -126.5t-252.5 -90q-680 0 -680 547v788zM500 1579l245 283h213 l246 -283h-200l-109 94l-43 58l-43 -58l-109 -94h-200z" />
<glyph unicode="&#xdc;" horiz-adv-x="1556" d="M41 1325l10 111l273 -6l362 6l10 -111l-133 -27v-768q0 -181 79.5 -282t231.5 -101t233 101.5t81 283.5v766l-164 27l10 111l262 -6l230 6l10 -111l-154 -27v-772q0 -108 -24 -191t-81.5 -155.5t-160 -126.5t-252.5 -90q-680 0 -680 547v788zM471 1710l25 111l166 14 l67 -14l16 -131l-28 -113l-162 -14l-70 14zM963 1710l26 111l164 14l70 -14l14 -131l-27 -113l-163 -14l-68 14z" />
<glyph unicode="&#xdd;" horiz-adv-x="1499" d="M10 1325l10 111l314 -6l321 6l11 -111l-134 -27l314 -526l-6 -115l360 641l-137 27l10 111l215 -6l191 6l10 -111l-119 -27l-426 -731v-430l215 -26l-10 -113l-395 6l-394 -6l-10 113l215 26v430l-434 731zM750 1579l81 283h328l-229 -283h-180z" />
<glyph unicode="&#xde;" horiz-adv-x="1185" d="M10 111l144 26v1159l-144 27l10 113l324 -6l424 6l10 -113l-246 -27v-147l318 4q120 1 215 -40t153 -127t58 -204q0 -56 -17.5 -105t-44.5 -86t-72.5 -72t-88 -59.5t-106.5 -51t-112 -43.5t-118 -41q-5 -1 -7.5 -2t-6.5 -2.5t-7 -2.5h-164v-180l246 -26l-10 -113l-424 6 l-324 -6zM532 463h115q92 0 161 78.5t69 216.5q0 131 -75.5 206.5t-176.5 75.5l-93 -16v-561z" />
<glyph unicode="&#xdf;" horiz-adv-x="1433" d="M51 811v51l80 92h76v50q0 108 77.5 207t247.5 171l207 88q240 0 387 -80.5t146 -222.5q-1 -75 -48 -138.5t-125 -109t-186 -79.5q0 -59 32 -93t122 -83l147 -80q84 -48 131.5 -109.5t47.5 -148.5q0 -50 -11 -90t-36 -73t-57 -58.5t-84 -50.5t-105.5 -45t-132.5 -46 q-124 0 -297 78l-19 268h119l49 -135q61 -65 117 -65q59 0 96 28t37 86q0 89 -96 156l-146 90q-96 60 -134 132.5t-38 195.5l144 96q114 75 114 264q0 80 -41 130t-112 50q-195 0 -195 -323v-1016l-256 6l-194 -6l-11 113l103 20v680h-156z" />
<glyph unicode="&#xe0;" horiz-adv-x="1120" d="M61 252q0 70 29 127.5t76 95.5l450 139v127q0 85 -24.5 112.5t-67.5 27.5q-52 0 -96 -27l-27 -227h-309v217l461 180q229 0 325.5 -70.5t96.5 -238.5v-396q0 -108 22 -153h97l16 -113l-412 -84l-67 168l-232 -168q-149 0 -243.5 77.5t-94.5 205.5zM301 1526h307l82 -365 h-160zM408 301q0 -65 28.5 -101t63.5 -36q34 0 86 33l30 20v297l-159 -63q-23 -23 -36 -66t-13 -84z" />
<glyph unicode="&#xe1;" horiz-adv-x="1120" d="M61 252q0 70 29 127.5t76 95.5l450 139v127q0 85 -24.5 112.5t-67.5 27.5q-52 0 -96 -27l-27 -227h-309v217l461 180q229 0 325.5 -70.5t96.5 -238.5v-396q0 -108 22 -153h97l16 -113l-412 -84l-67 168l-232 -168q-149 0 -243.5 77.5t-94.5 205.5zM408 301 q0 -65 28.5 -101t63.5 -36q34 0 86 33l30 20v297l-159 -63q-23 -23 -36 -66t-13 -84zM473 1161l82 365h307l-229 -365h-160z" />
<glyph unicode="&#xe2;" horiz-adv-x="1120" d="M61 252q0 70 29 127.5t76 95.5l450 139v127q0 85 -24.5 112.5t-67.5 27.5q-52 0 -96 -27l-27 -227h-309v217l461 180q229 0 325.5 -70.5t96.5 -238.5v-396q0 -108 22 -153h97l16 -113l-412 -84l-67 168l-232 -168q-149 0 -243.5 77.5t-94.5 205.5zM258 1161l236 365h151 l236 -365h-160l-117 137l-35 60l-34 -60l-117 -137h-160zM408 301q0 -65 28.5 -101t63.5 -36q34 0 86 33l30 20v297l-159 -63q-23 -23 -36 -66t-13 -84z" />
<glyph unicode="&#xe3;" horiz-adv-x="1120" d="M61 252q0 70 29 127.5t76 95.5l450 139v127q0 85 -24.5 112.5t-67.5 27.5q-52 0 -96 -27l-27 -227h-309v217l461 180q229 0 325.5 -70.5t96.5 -238.5v-396q0 -108 22 -153h97l16 -113l-412 -84l-67 168l-232 -168q-149 0 -243.5 77.5t-94.5 205.5zM203 1198l63 244 l154 45l383 -105l59 101h82l-65 -254l-152 -35l-385 104l-57 -100h-82zM408 301q0 -65 28.5 -101t63.5 -36q34 0 86 33l30 20v297l-159 -63q-23 -23 -36 -66t-13 -84z" />
<glyph unicode="&#xe4;" horiz-adv-x="1120" d="M61 252q0 70 29 127.5t76 95.5l450 139v127q0 85 -24.5 112.5t-67.5 27.5q-52 0 -96 -27l-27 -227h-309v217l461 180q229 0 325.5 -70.5t96.5 -238.5v-396q0 -108 22 -153h97l16 -113l-412 -84l-67 168l-232 -168q-149 0 -243.5 77.5t-94.5 205.5zM238 1352l24 110 l166 15l68 -15l16 -131l-29 -112l-161 -15l-70 15zM408 301q0 -65 28.5 -101t63.5 -36q34 0 86 33l30 20v297l-159 -63q-23 -23 -36 -66t-13 -84zM647 1352l27 110l164 15l69 -15l15 -131l-27 -112l-164 -15l-67 15z" />
<glyph unicode="&#xe5;" horiz-adv-x="1120" d="M61 252q0 70 29 127.5t76 95.5l450 139v127q0 85 -24.5 112.5t-67.5 27.5q-52 0 -96 -27l-27 -227h-309v217l461 180q229 0 325.5 -70.5t96.5 -238.5v-396q0 -108 22 -153h97l16 -113l-412 -84l-67 168l-232 -168q-149 0 -243.5 77.5t-94.5 205.5zM326 1352q0 54 19.5 94 t60 66.5t77 41t95.5 31.5q251 0 251 -233q0 -35 -7 -63.5t-17 -48t-30.5 -36.5t-36.5 -27t-47 -21t-50 -16t-57 -14q-50 0 -93.5 11.5t-82 36.5t-60.5 70.5t-22 107.5zM408 301q0 -65 28.5 -101t63.5 -36q34 0 86 33l30 20v297l-159 -63q-23 -23 -36 -66t-13 -84zM457 1352 q0 -52 35 -84.5t88 -32.5t87.5 32.5t34.5 84.5t-35 88.5t-87 36.5t-87.5 -36.5t-35.5 -88.5z" />
<glyph unicode="&#xe6;" horiz-adv-x="1572" d="M61 252q0 70 29 127.5t76 95.5l450 137v127q0 87 -17.5 113.5t-57.5 26.5q-50 0 -119 -25l-27 -192h-293v182l430 180q138 0 227 -20t138 -68q87 50 221 88q85 0 153.5 -24t113.5 -64t75 -95.5t43 -115.5t13 -127v-100h-584q0 -135 76 -215t202 -80q147 0 252 71l60 -100 q-81 -70 -170 -119.5t-211 -85.5q-145 0 -258.5 51.5t-180.5 149.5l-303 -201q-149 0 -243.5 77.5t-94.5 205.5zM408 301q0 -57 26 -88t64 -31q34 0 86 33l30 21v258l-157 -62q-49 -49 -49 -131zM930 616l284 19q0 122 -30 177.5t-97 55.5q-72 0 -114.5 -72.5t-42.5 -179.5z " />
<glyph unicode="&#xe7;" horiz-adv-x="1021" d="M51 461q0 410 547 563q228 0 348 -104v-299h-295l-41 241q-20 17 -45 17q-60 0 -102.5 -82t-42.5 -228q0 -152 82 -254t215 -102q101 0 188 66l66 -105q-162 -137 -400 -205l-45 -65q78 0 119 -35t41 -102q0 -40 -15.5 -75t-37 -58.5t-55 -45t-59 -33.5t-60.5 -26 l-105 -41h-129l60 102h131q51 39 51 123q0 64 -34 93.5t-83 29.5l107 144q-184 32 -295 162.5t-111 318.5z" />
<glyph unicode="&#xe8;" horiz-adv-x="1032" d="M51 455q0 70 10.5 128.5t43.5 126t87.5 122t149 105.5t221.5 87q107 0 189 -31.5t131 -87t73.5 -125.5t24.5 -153v-129h-573q8 -125 77.5 -205t180.5 -80q72 0 143 24.5t113 53.5l55 -101q-85 -79 -174.5 -125.5t-237.5 -95.5q-227 0 -370.5 136.5t-143.5 349.5z M270 1526h308l81 -365h-159zM406 606l239 19q0 254 -113 254q-60 0 -93 -72.5t-33 -200.5z" />
<glyph unicode="&#xe9;" horiz-adv-x="1032" d="M51 455q0 70 10.5 128.5t43.5 126t87.5 122t149 105.5t221.5 87q107 0 189 -31.5t131 -87t73.5 -125.5t24.5 -153v-129h-573q8 -125 77.5 -205t180.5 -80q72 0 143 24.5t113 53.5l55 -101q-85 -79 -174.5 -125.5t-237.5 -95.5q-227 0 -370.5 136.5t-143.5 349.5zM406 606 l239 19q0 254 -113 254q-60 0 -93 -72.5t-33 -200.5zM492 1161l81 365h308l-230 -365h-159z" />
<glyph unicode="&#xea;" horiz-adv-x="1032" d="M51 455q0 70 10.5 128.5t43.5 126t87.5 122t149 105.5t221.5 87q107 0 189 -31.5t131 -87t73.5 -125.5t24.5 -153v-129h-573q8 -125 77.5 -205t180.5 -80q72 0 143 24.5t113 53.5l55 -101q-85 -79 -174.5 -125.5t-237.5 -95.5q-227 0 -370.5 136.5t-143.5 349.5z M244 1161l235 365h152l235 -365h-159l-117 137l-35 60l-35 -60l-117 -137h-159zM406 606l239 19q0 254 -113 254q-60 0 -93 -72.5t-33 -200.5z" />
<glyph unicode="&#xeb;" horiz-adv-x="1032" d="M51 455q0 70 10.5 128.5t43.5 126t87.5 122t149 105.5t221.5 87q107 0 189 -31.5t131 -87t73.5 -125.5t24.5 -153v-129h-573q8 -125 77.5 -205t180.5 -80q72 0 143 24.5t113 53.5l55 -101q-85 -79 -174.5 -125.5t-237.5 -95.5q-227 0 -370.5 136.5t-143.5 349.5z M223 1352l25 110l166 15l67 -15l17 -131l-29 -112l-162 -15l-69 15zM406 606l239 19q0 254 -113 254q-60 0 -93 -72.5t-33 -200.5zM633 1352l26 110l164 15l70 -15l14 -131l-26 -112l-164 -15l-68 15z" />
<glyph unicode="&#xec;" horiz-adv-x="665" d="M61 944l320 51l141 6v-862l103 -26l-11 -115l-266 6l-266 -6l-10 115l102 26v697l-102 -5zM74 1526h307l82 -365h-160z" />
<glyph unicode="&#xed;" horiz-adv-x="665" d="M61 944l320 51l141 6v-862l103 -26l-11 -115l-266 6l-266 -6l-10 115l102 26v697l-102 -5zM258 1161l82 365h307l-229 -365h-160z" />
<glyph unicode="&#xee;" horiz-adv-x="665" d="M33 1161l235 365h152l235 -365h-159l-117 137l-35 60l-35 -60l-116 -137h-160zM61 944l320 51l141 6v-862l103 -26l-11 -115l-266 6l-266 -6l-10 115l102 26v697l-102 -5z" />
<glyph unicode="&#xef;" horiz-adv-x="657" d="M-6 1352l24 110l166 15l68 -15l16 -131l-28 -112l-162 -15l-70 15zM53 944l320 51l141 6v-862l102 -26l-10 -115l-266 6l-266 -6l-11 115l103 26v697l-103 -5zM403 1352l27 110l164 15l70 -15l14 -131l-27 -112l-164 -15l-67 15z" />
<glyph unicode="&#xf0;" horiz-adv-x="1169" d="M72 455q0 95 31 173.5t83 132t126 93.5t153 63t172 37l151 -73q-38 160 -178 290l-207 -102v113l123 57q-73 63 -172 113l66 123q166 -63 289 -144l211 103v-113l-129 -64q307 -263 307 -757q0 -101 -31 -184t-83 -140.5t-126.5 -100.5t-153.5 -67.5t-172 -38.5 q-199 0 -329.5 133t-130.5 353zM434 553q0 -228 49 -339.5t119 -111.5q42 0 69 22t43.5 83t16.5 164q0 228 -49 339t-119 111q-64 0 -96.5 -58.5t-32.5 -209.5z" />
<glyph unicode="&#xf1;" horiz-adv-x="1308" d="M61 938l324 55l145 6v-168l316 193q89 0 146.5 -13t99.5 -47t60.5 -93.5t18.5 -151.5v-582l103 -26l-10 -113l-267 6l-245 -6l-11 113l72 26v547q0 49 -24 73.5t-68 24.5q-62 0 -156 -67l-35 -25v-553l72 -26l-10 -113l-236 6l-266 -6l-10 113l102 26v688l-110 -4z M307 1198l64 244l153 45l383 -105l60 101h82l-66 -254l-152 -35l-385 104l-57 -100h-82z" />
<glyph unicode="&#xf2;" horiz-adv-x="1140" d="M51 469q0 105 32 190t83 142t128 102.5t152.5 72t171.5 48.5q201 0 335 -136.5t134 -361.5q0 -105 -32.5 -190t-83.5 -142.5t-129.5 -102.5t-155 -72t-174.5 -50q-197 0 -329 137.5t-132 362.5zM289 1526h307l82 -365h-160zM420 592q0 -244 49 -367t115 -123 q121 0 121 301q0 245 -48 366.5t-114 121.5q-123 0 -123 -299z" />
<glyph unicode="&#xf3;" horiz-adv-x="1140" d="M51 469q0 105 32 190t83 142t128 102.5t152.5 72t171.5 48.5q201 0 335 -136.5t134 -361.5q0 -105 -32.5 -190t-83.5 -142.5t-129.5 -102.5t-155 -72t-174.5 -50q-197 0 -329 137.5t-132 362.5zM420 592q0 -244 49 -367t115 -123q121 0 121 301q0 245 -48 366.5 t-114 121.5q-123 0 -123 -299zM498 1161l82 365h307l-230 -365h-159z" />
<glyph unicode="&#xf4;" horiz-adv-x="1140" d="M51 469q0 105 32 190t83 142t128 102.5t152.5 72t171.5 48.5q201 0 335 -136.5t134 -361.5q0 -105 -32.5 -190t-83.5 -142.5t-129.5 -102.5t-155 -72t-174.5 -50q-197 0 -329 137.5t-132 362.5zM270 1161l236 365h151l236 -365h-160l-117 137l-34 60l-35 -60l-117 -137 h-160zM420 592q0 -244 49 -367t115 -123q121 0 121 301q0 245 -48 366.5t-114 121.5q-123 0 -123 -299z" />
<glyph unicode="&#xf5;" horiz-adv-x="1140" d="M51 469q0 105 32 190t83 142t128 102.5t152.5 72t171.5 48.5q201 0 335 -136.5t134 -361.5q0 -105 -32.5 -190t-83.5 -142.5t-129.5 -102.5t-155 -72t-174.5 -50q-197 0 -329 137.5t-132 362.5zM209 1198l63 244l154 45l383 -105l59 101h82l-65 -254l-152 -35l-385 104 l-57 -100h-82zM420 592q0 -244 49 -367t115 -123q121 0 121 301q0 245 -48 366.5t-114 121.5q-123 0 -123 -299z" />
<glyph unicode="&#xf6;" horiz-adv-x="1140" d="M51 469q0 105 32 190t83 142t128 102.5t152.5 72t171.5 48.5q201 0 335 -136.5t134 -361.5q0 -105 -32.5 -190t-83.5 -142.5t-129.5 -102.5t-155 -72t-174.5 -50q-197 0 -329 137.5t-132 362.5zM240 1352l24 110l166 15l68 -15l16 -131l-29 -112l-161 -15l-70 15z M420 592q0 -244 49 -367t115 -123q121 0 121 301q0 245 -48 366.5t-114 121.5q-123 0 -123 -299zM649 1352l27 110l164 15l69 -15l15 -131l-27 -112l-164 -15l-67 15z" />
<glyph unicode="&#xf7;" d="M96 451v174h1075v-174h-1075zM477 156l15 131l206 18l80 -18l19 -152l-19 -135l-207 -14l-79 14zM477 924l15 131l206 18l80 -18l19 -152l-19 -135l-207 -14l-79 14z" />
<glyph unicode="&#xf8;" horiz-adv-x="1191" d="M51 -20l133 145q-114 133 -114 344q0 105 32 190t83 142t128 102.5t152.5 72t171.5 48.5q166 0 289 -94l67 74h146l-138 -150q105 -134 105 -328q0 -105 -32.5 -190t-84 -142.5t-129.5 -102.5t-155 -72t-175 -50q-150 0 -264 82l-65 -71h-150zM438 592q0 -111 8 -182 l252 272q-22 105 -59 157t-78 52q-123 0 -123 -299zM471 274q22 -87 57 -129.5t74 -42.5q121 0 121 301q0 77 -6 142z" />
<glyph unicode="&#xf9;" horiz-adv-x="1241" d="M31 928l284 65l179 8v-665q0 -61 25 -90t83 -29q43 0 105 43l32 23v540l-94 -8l-10 113l274 65l178 8v-720q0 -90 31 -138h74l8 -112l-383 -62l-61 189l-279 -189q-94 0 -155 13t-105 47t-63 93t-19 150v551l-94 -8zM324 1526h307l82 -365h-160z" />
<glyph unicode="&#xfa;" horiz-adv-x="1241" d="M31 928l284 65l179 8v-665q0 -61 25 -90t83 -29q43 0 105 43l32 23v540l-94 -8l-10 113l274 65l178 8v-720q0 -90 31 -138h74l8 -112l-383 -62l-61 189l-279 -189q-94 0 -155 13t-105 47t-63 93t-19 150v551l-94 -8zM549 1161l82 365h307l-229 -365h-160z" />
<glyph unicode="&#xfb;" horiz-adv-x="1241" d="M31 928l284 65l179 8v-665q0 -61 25 -90t83 -29q43 0 105 43l32 23v540l-94 -8l-10 113l274 65l178 8v-720q0 -90 31 -138h74l8 -112l-383 -62l-61 189l-279 -189q-94 0 -155 13t-105 47t-63 93t-19 150v551l-94 -8zM309 1161l236 365h151l236 -365h-160l-117 137l-34 60 l-35 -60l-117 -137h-160z" />
<glyph unicode="&#xfc;" horiz-adv-x="1241" d="M31 928l284 65l179 8v-665q0 -61 25 -90t83 -29q43 0 105 43l32 23v540l-94 -8l-10 113l274 65l178 8v-720q0 -90 31 -138h74l8 -112l-383 -62l-61 189l-279 -189q-94 0 -155 13t-105 47t-63 93t-19 150v551l-94 -8zM293 1352l24 110l166 15l68 -15l16 -131l-28 -112 l-162 -15l-70 15zM702 1352l27 110l164 15l70 -15l14 -131l-27 -112l-164 -15l-67 15z" />
<glyph unicode="&#xfd;" horiz-adv-x="1193" d="M10 883l10 112l297 -6l246 6l10 -112l-94 -21l183 -487l30 -197l197 680l-98 23l10 114l198 -6l175 6l10 -114l-113 -23l-289 -795l-237 -544h-363v321h283l207 256l-248 -82l-328 848zM590 1161l82 365h307l-229 -365h-160z" />
<glyph unicode="&#xfe;" horiz-adv-x="1196" d="M31 1403l319 51l142 6v-631l274 195q65 0 133 -32t125.5 -88t94 -141.5t36.5 -182.5q0 -265 -136 -417.5t-425 -193.5q-42 0 -102 17v-324l172 -22l-9 -113l-344 6l-260 -6l-10 113l102 22v1632l-102 -4zM492 162q29 -35 56.5 -49.5t65.5 -14.5q75 0 123.5 99t48.5 272 q0 305 -155 305q-40 0 -107 -51l-32 -25v-536z" />
<glyph unicode="&#xff;" horiz-adv-x="1193" d="M10 883l10 112l297 -6l246 6l10 -112l-94 -21l183 -487l30 -197l197 680l-98 23l10 114l198 -6l175 6l10 -114l-113 -23l-289 -795l-237 -544h-363v321h283l207 256l-248 -82l-328 848zM317 1352l25 110l166 15l67 -15l17 -131l-29 -112l-162 -15l-69 15zM727 1352 l27 110l164 15l69 -15l14 -131l-26 -112l-164 -15l-68 15z" />
<glyph unicode="&#x152;" horiz-adv-x="2121" d="M61 676q0 175 42 301.5t138 223t246.5 161t372.5 108.5l293 -36l879 4l22 -379h-108l-127 235l-437 6v-479l215 8l82 222h103l-21 -297l21 -297h-103l-82 221l-215 8v-551l451 6l149 246h109l-74 -389l-864 4l-344 -39q-226 0 -397 93.5t-261 254.5t-90 365zM461 750 q0 -176 57.5 -325t152 -234t201.5 -85l132 31v1161l-218 29q-86 0 -150.5 -46.5t-101.5 -129t-55 -183t-18 -218.5z" />
<glyph unicode="&#x153;" horiz-adv-x="1697" d="M51 489q0 102 31.5 185.5t84 141t127 101t153.5 68.5t171 39q200 0 326 -141q120 92 299 141q106 0 185 -35.5t124 -97.5t66.5 -135t21.5 -158v-100h-583q0 -135 76 -215t202 -80q147 0 252 71l60 -100q-81 -70 -170 -119.5t-211 -85.5q-243 0 -383 137 q-133 -96 -371 -137q-197 0 -329 143t-132 377zM414 592q0 -127 15 -224.5t39.5 -153.5t54 -84t61.5 -28q61 0 94 67.5t33 233.5q0 245 -49.5 366.5t-118.5 121.5q-40 0 -67 -24.5t-44.5 -93t-17.5 -181.5zM1055 616l284 19q0 122 -30 177.5t-97 55.5q-72 0 -114.5 -72.5 t-42.5 -179.5z" />
<glyph unicode="&#x178;" horiz-adv-x="1499" d="M10 1325l10 111l314 -6l321 6l11 -111l-134 -27l314 -526l-6 -115l360 641l-137 27l10 111l215 -6l191 6l10 -111l-119 -27l-426 -731v-430l215 -26l-10 -113l-395 6l-394 -6l-10 113l215 26v430l-434 731zM418 1710l24 111l166 14l68 -14l16 -131l-28 -113l-162 -14 l-70 14zM909 1710l27 111l164 14l69 -14l15 -131l-27 -113l-164 -14l-67 14z" />
<glyph unicode="&#x2c6;" horiz-adv-x="1024" d="M201 1161l205 365h212l205 -365h-159l-152 178l-152 -178h-159z" />
<glyph unicode="&#x2dc;" horiz-adv-x="1024" d="M141 1198l64 244l153 45l383 -105l60 101h82l-66 -254l-151 -35l-385 104l-58 -100h-82z" />
<glyph unicode="&#x2000;" horiz-adv-x="987" />
<glyph unicode="&#x2001;" horiz-adv-x="1974" />
<glyph unicode="&#x2002;" horiz-adv-x="987" />
<glyph unicode="&#x2003;" horiz-adv-x="1974" />
<glyph unicode="&#x2004;" horiz-adv-x="658" />
<glyph unicode="&#x2005;" horiz-adv-x="493" />
<glyph unicode="&#x2006;" horiz-adv-x="329" />
<glyph unicode="&#x2007;" horiz-adv-x="329" />
<glyph unicode="&#x2008;" horiz-adv-x="246" />
<glyph unicode="&#x2009;" horiz-adv-x="394" />
<glyph unicode="&#x200a;" horiz-adv-x="109" />
<glyph unicode="&#x2010;" horiz-adv-x="788" d="M82 496v174h625v-174h-625z" />
<glyph unicode="&#x2011;" horiz-adv-x="788" d="M82 496v174h625v-174h-625z" />
<glyph unicode="&#x2012;" horiz-adv-x="788" d="M82 496v174h625v-174h-625z" />
<glyph unicode="&#x2013;" horiz-adv-x="1095" d="M82 496v143h932v-143h-932z" />
<glyph unicode="&#x2014;" horiz-adv-x="2027" d="M82 496v143h1864v-143h-1864z" />
<glyph unicode="&#x2018;" horiz-adv-x="462" d="M82 979l18 145l170 346l111 -45q-30 -70 -61 -161t-31 -127l119 -13l14 -166l-14 -143l-228 -18l-80 18z" />
<glyph unicode="&#x2019;" horiz-adv-x="514" d="M82 1292l14 144l228 18l79 -18l19 -164l-19 -146l-170 -346l-110 45q30 69 61 161t31 128l-119 12z" />
<glyph unicode="&#x201a;" horiz-adv-x="503" d="M123 170l14 143l228 19l79 -19l19 -163l-19 -146l-170 -346l-110 45q30 69 61 161t31 128l-119 12z" />
<glyph unicode="&#x201c;" horiz-adv-x="897" d="M82 979l18 145l170 346l111 -45q-30 -70 -61 -161t-31 -127l119 -13l14 -166l-14 -143l-228 -18l-80 18zM518 979l19 145l170 346l110 -45q-30 -70 -61 -161t-31 -127l119 -13l14 -166l-14 -143l-228 -18l-79 18z" />
<glyph unicode="&#x201d;" horiz-adv-x="948" d="M102 1292l15 144l227 18l80 -18l18 -164l-18 -146l-170 -346l-111 45q30 71 61.5 162.5t31.5 126.5l-119 12zM539 1292l14 144l227 18l80 -18l19 -164l-19 -146l-170 -346l-110 45q30 69 61 161t31 128l-119 12z" />
<glyph unicode="&#x201e;" horiz-adv-x="937" d="M123 170l14 143l228 19l79 -19l19 -163l-19 -146l-170 -346l-110 45q30 69 61 161t31 128l-119 12zM559 170l14 143l228 19l80 -19l18 -163l-18 -146l-170 -346l-111 45q30 69 61 161t31 128l-119 12z" />
<glyph unicode="&#x2022;" horiz-adv-x="542" d="M102 631l15 145l209 15l100 -15l14 -162l-14 -147l-209 -14l-100 14z" />
<glyph unicode="&#x2026;" horiz-adv-x="1814" d="M154 160l14 131l207 18l80 -18l18 -152l-18 -135l-207 -14l-80 14zM745 160l15 131l207 18l80 -18l18 -152l-18 -135l-207 -14l-80 14zM1341 160l15 131l207 18l79 -18l19 -152l-19 -135l-206 -14l-80 14z" />
<glyph unicode="&#x202f;" horiz-adv-x="394" />
<glyph unicode="&#x2039;" horiz-adv-x="686" d="M31 481l375 451h219l-260 -453l260 -448h-224z" />
<glyph unicode="&#x203a;" horiz-adv-x="686" d="M61 31l261 448l-261 453h222l372 -451l-370 -450h-224z" />
<glyph unicode="&#x205f;" horiz-adv-x="493" />
<glyph unicode="&#x20ac;" horiz-adv-x="1468" d="M92 502v153h107v54q0 46 2 69h-109v154h131q56 222 235.5 347.5t497.5 184.5q204 0 430 -174v-317h-153l-59 215q-75 117 -244 117q-116 0 -200 -91.5t-118 -281.5h494l-102 -154h-406v-33q0 -61 2 -90h342l-102 -153h-217q42 -158 137 -248t231 -90q96 0 186.5 25 t147.5 57l57 -103q-69 -41 -194 -93t-248 -81q-130 0 -245 32.5t-211.5 96t-165.5 167t-99 237.5h-127z" />
<glyph unicode="&#x2122;" horiz-adv-x="2201" d="M102 1145v293l424 -2l392 2v-293h-82l-70 194l-121 4v-602l125 -14l-6 -86l-252 4l-254 -4l-6 86l125 14v602l-123 -4l-70 -194h-82zM938 727l84 14v600l-82 13l6 84l105 -4l274 4l197 -484l-6 -141l223 625l190 -4l164 4l4 -84l-80 -15v-598l82 -14l-4 -86l-203 2 l-186 -2l-8 86l80 14v463l18 144l-254 -707h-158l-225 549l-29 153v-602l80 -14l-2 -86l-137 2l-127 -2z" />
<glyph unicode="&#x25fc;" horiz-adv-x="993" d="M0 0v993h993v-993h-993z" />
</font>
</defs>
</svg>
