<?xml version="1.0" standalone="no"?>
<!DOCTYPE svg PUBLIC "-//W3C//DTD SVG 1.1//EN" "http://www.w3.org/Graphics/SVG/1.1/DTD/svg11.dtd" >
<svg xmlns="http://www.w3.org/2000/svg" xmlns:xlink="http://www.w3.org/1999/xlink" version="1.1">
<metadata></metadata>
<defs>
<font id="gt_sectra_displaylight_italic" horiz-adv-x="1269" >
<font-face units-per-em="2048" ascent="1536" descent="-512" />
<missing-glyph horiz-adv-x="491" />
<glyph unicode="&#xfb01;" horiz-adv-x="958" d="M-256 -481l23 123h237q26 40 39 86.5t27 128.5l188 1075h-131l2 10h131l19 92q45 219 161 297l199 133h319l-24 -123h-457q-47 -76 -71 -223l-31 -176h370l105 31l8 -6l-166 -942l203 155l6 -6l-239 -205l-87 51l162 912h-364l-176 -1004q-32 -199 -164 -282l-197 -127 h-92z" />
<glyph unicode="&#xfb02;" horiz-adv-x="968" d="M-256 -481l23 123h237q26 40 39 86.5t27 128.5l188 1075h-131l2 10h131l19 92q45 219 161 297l199 133h319l-253 -1435l202 151l6 -6l-239 -205l-86 51l160 912h-375l-176 -1004q-32 -199 -164 -282l-197 -127h-92zM375 942h375l69 399h-342q-47 -76 -71 -223z" />
<glyph unicode="&#xfb03;" horiz-adv-x="1423" d="M-256 -481l23 123h237q26 40 39 86.5t27 128.5l188 1075h-131l2 10h131l19 92q45 219 161 297l199 133h256l-184 -123h-234q-47 -76 -71 -223l-31 -176h360l19 92q45 219 161 297l199 133h309l-24 -123h-447q-47 -76 -71 -223l-31 -176h360l105 31l8 -6l-166 -942 l203 155l6 -6l-240 -205l-86 51l162 912h-354l-176 -1004q-32 -199 -164 -282l-197 -127h-71l22 123h217q26 40 39 86.5t27 128.5l188 1075h-360l-176 -1004q-32 -199 -164 -282l-197 -127h-92z" />
<glyph unicode="&#xfb04;" horiz-adv-x="1443" d="M-256 -481l23 123h237q26 40 39 86.5t27 128.5l188 1075h-131l2 10h131l19 92q45 219 161 297l199 133h256l-184 -123h-234q-47 -76 -71 -223l-31 -176h360l19 92q45 219 161 297l199 133h320l-254 -1435l202 151l7 -6l-240 -205l-86 51l160 912h-375l-176 -1004 q-32 -199 -164 -282l-197 -127h-71l22 123h217q26 40 39 86.5t27 128.5l188 1075h-360l-176 -1004q-32 -199 -164 -282l-197 -127h-92zM850 942h375l71 399h-344q-47 -76 -71 -223z" />
<glyph horiz-adv-x="0" />
<glyph horiz-adv-x="0" />
<glyph horiz-adv-x="682" />
<glyph unicode="&#xd;" horiz-adv-x="737" />
<glyph unicode=" "  horiz-adv-x="491" />
<glyph unicode="&#x09;" horiz-adv-x="491" />
<glyph unicode="&#xa0;" horiz-adv-x="491" />
<glyph unicode="!" horiz-adv-x="608" d="M133 0l4 80l25 63l100 7l39 -7l-8 -75l-23 -68l-102 -8zM256 387l23 416l104 651h154l-125 -649l-125 -418h-31z" />
<glyph unicode="&#x22;" horiz-adv-x="745" d="M205 954l176 320l-74 -4l-45 8l8 96l27 76l123 8l49 -8l-6 -90l-31 -82l-223 -326zM502 954l176 320l-74 -4l-45 8l8 96l27 76l123 8l49 -8l-6 -90l-31 -82l-223 -326z" />
<glyph unicode="#" horiz-adv-x="1206" d="M61 424l13 41h282l123 407h-286l12 41h287l126 428h41l-129 -428h371l127 428h41l-129 -428h277l-11 -41h-278l-121 -407h280l-12 -41h-280l-125 -424h-41l125 424h-369l-125 -424h-41l125 424h-283zM397 465h369l123 407h-371z" />
<glyph unicode="$" horiz-adv-x="1011" d="M72 82l65 297l13 -2v-180q39 -47 117 -92.5t167 -71.5l113 643l-144 115q-163 127 -163 286q0 108 65 196t195 136l170 61h16l23 129h20l-22 -129q177 -5 294 -86l-49 -309h-10l-27 219q-81 86 -221 113l-102 -594l186 -151q72 -58 107 -121t35 -160q0 -114 -80.5 -220 t-216.5 -147l-162 -51h-19l-22 -127h-21l23 129q-210 8 -350 117zM348 1161q0 -44 9.5 -80t21.5 -61t43.5 -58t53 -52t74.5 -62q11 -9 17 -14l6 -7l103 584q-67 8 -96 10q-127 -36 -179.5 -101t-52.5 -159zM453 27q68 -15 110 -17q121 37 178.5 117t57.5 188 q0 99 -43.5 165.5t-157.5 156.5l-33 25z" />
<glyph unicode="%" horiz-adv-x="1597" d="M82 -10l1380 1454h54l-1377 -1454h-57zM221 981q0 65 16 128t48 122.5t88.5 106.5t130.5 71l78 25q95 0 158 -74.5t63 -192.5q0 -64 -16.5 -127.5t-49.5 -123.5t-90.5 -106.5t-132.5 -68.5l-76 -24q-95 0 -156 73.5t-61 190.5zM340 1004q0 -114 36.5 -180.5t96.5 -82.5 q95 46 153 156.5t58 247.5q0 115 -38 181.5t-101 80.5q-93 -46 -149 -156t-56 -247zM813 264q0 65 16 128t48 122.5t88.5 106.5t130.5 71l78 25q95 0 158 -74t63 -192q0 -64 -16.5 -127.5t-49.5 -123.5t-90.5 -106.5t-132.5 -68.5l-76 -25q-95 0 -156 73.5t-61 190.5z M932 287q0 -114 36.5 -180t96.5 -82q95 46 153 156.5t58 246.5q0 115 -38 181.5t-101 80.5q-93 -46 -149 -156t-56 -247z" />
<glyph unicode="&#x26;" horiz-adv-x="1103" d="M61 319q0 152 90.5 265t256.5 172l84 28q-88 29 -155 107.5t-67 183.5q0 128 104.5 217t282.5 140l134 38q52 -5 118.5 -37.5t118.5 -70.5l-76 -111q-166 127 -307 168q-252 -90 -252 -323q0 -118 74 -207.5t145 -89.5v-11q-103 0 -199 -56t-157 -154t-61 -209 q0 -105 36 -187t112.5 -132t184.5 -50q130 56 197.5 150t95.5 260l33 186h-149l-29 -45h-10l26 145h408l24 45h11l-27 -145h-137l-37 -207q-11 -63 -24 -105.5t-40 -88.5t-68 -79t-106.5 -65t-156.5 -59l-99 -29q-168 0 -273.5 100.5t-105.5 255.5z" />
<glyph unicode="'" horiz-adv-x="440" d="M195 950l178 320l-76 -4l-45 8l8 96l29 76l123 8l49 -8l-8 -90l-31 -82l-221 -326z" />
<glyph unicode="(" horiz-adv-x="684" d="M174 293q0 88 5.5 160t21.5 157t44 160.5t74.5 162t110 170t154 177.5t204.5 190l9 -6q-96 -81 -169 -159.5t-143.5 -185.5t-116 -224t-73 -271.5t-27.5 -332.5q0 -217 46 -418.5t141 -343.5l-9 -6q-272 369 -272 770z" />
<glyph unicode=")" horiz-adv-x="612" d="M-123 -471q96 81 169 159.5t143.5 185t116 223.5t73 271.5t27.5 331.5q0 217 -46 419.5t-141 344.5l8 6q273 -371 273 -770q0 -103 -8.5 -187t-30.5 -182t-65.5 -189.5t-110 -192t-167.5 -207.5t-233 -219z" />
<glyph unicode="*" horiz-adv-x="585" d="M133 1202l57 119l230 -143l-4 286h123l-107 -286l279 143l18 -117l-297 -35l180 -196l-110 -74l-78 264l-168 -264l-88 72l248 198z" />
<glyph unicode="+" d="M106 502v41h508v512h41v-512h506v-41h-506v-502h-41v502h-508z" />
<glyph unicode="," horiz-adv-x="446" d="M61 -281l170 277l-71 -4l-43 8l8 98l27 76l118 8l54 -8l-7 -90l-28 -84l-221 -283z" />
<glyph unicode="-" horiz-adv-x="784" d="M102 547l7 41h624l-6 -41h-625z" />
<glyph unicode="." horiz-adv-x="432" d="M61 -2l9 96l24 80l127 8l47 -8l-8 -94l-22 -82l-127 -8z" />
<glyph unicode="/" horiz-adv-x="921" d="M-287 -471l1268 1941h43l-1264 -1941h-47z" />
<glyph unicode="0" horiz-adv-x="1040" d="M82 379q0 377 383 539l131 55q169 0 276 -116.5t107 -293.5q0 -380 -383 -538l-131 -56q-169 0 -276 116.5t-107 293.5zM215 410q0 -329 299 -410q332 188 332 532q0 167 -68.5 268.5t-230.5 141.5q-155 -77 -243.5 -211.5t-88.5 -320.5z" />
<glyph unicode="1" horiz-adv-x="819" d="M10 0v10l314 10l151 871l-387 -143l-2 10l504 205h10l-164 -943l301 -10v-10h-727z" />
<glyph unicode="2" horiz-adv-x="952" d="M-10 0v12l444 299q132 96 205.5 177t96 137.5t22.5 122.5q0 78 -48.5 126.5t-138.5 55.5l-147 -45l-125 -281h-55l22 244l391 125q114 0 174 -57t60 -138q0 -108 -101.5 -216.5t-297.5 -239.5l-314 -199h733v-21l-39 -102h-882z" />
<glyph unicode="3" horiz-adv-x="837" d="M-92 -502l24 133h437q111 70 158.5 156t47.5 193q0 52 -18 99.5t-57 90.5t-113 68.5t-174 25.5l-2 12l98 46q162 75 244 164t82 219q0 89 -53 152.5t-140 72.5l-161 -47l-117 -258h-55l14 223l391 125q112 0 182 -64t70 -161q0 -135 -109 -239.5t-297 -172.5 q159 -11 253 -90.5t94 -218.5q0 -55 -15.5 -104.5t-39.5 -88t-62.5 -74t-76 -61.5t-89 -52t-92 -43t-94.5 -38l-177 -68h-153z" />
<glyph unicode="4" horiz-adv-x="1050" d="M10 27l783 936h149l-2 -11l-901 -923h563l72 407l119 68h10l-84 -475h291v-21h-295l-84 -479h-117l84 479h-580z" />
<glyph unicode="5" horiz-adv-x="923" d="M-102 -481l32 133h418q125 89 189.5 192.5t64.5 237.5q0 137 -57.5 220t-167.5 83q-64 0 -115 -18.5t-125 -61.5l-74 -49l-20 8l215 699h645l-41 -123h-618l-176 -564l307 205q88 0 154.5 -21.5t104.5 -55t61.5 -80t31.5 -88.5t8 -89q0 -97 -42.5 -187t-115.5 -160 t-161.5 -123.5t-188.5 -90.5l-176 -67h-153z" />
<glyph unicode="6" horiz-adv-x="1030" d="M102 410q0 186 71 360.5t195 312t297.5 238t372.5 143.5l2 -14q-116 -24 -227 -85t-196.5 -141.5t-156.5 -174.5t-116 -185t-65 -172l368 223q115 0 205 -115.5t90 -267.5q0 -188 -81.5 -321t-252.5 -191l-147 -51q-163 0 -261 115.5t-98 325.5zM236 430 q0 -172 80 -289.5t221 -130.5q132 57 202 187t70 274q0 92 -19 162.5t-50.5 110t-67.5 58.5t-74 19q-45 0 -84 -15t-123 -61l-117 -67q-38 -116 -38 -248z" />
<glyph unicode="7" horiz-adv-x="915" d="M10 -492l2 11l858 1300h-788l20 123h836l8 -10l-821 -1424h-115z" />
<glyph unicode="8" horiz-adv-x="1011" d="M82 291q0 70 26 133t65.5 108.5t98 86t111.5 67t117 51.5q-106 91 -143 135q-87 102 -87 211q0 119 80 212.5t219 134.5l109 34q142 0 232.5 -68t90.5 -188q0 -47 -12.5 -90t-30 -75.5t-49.5 -65.5t-58 -54.5t-69.5 -48t-69 -40.5t-71.5 -37q11 -9 58.5 -45.5t66.5 -52.5 t56 -53.5t54 -66t31.5 -71t14.5 -86.5q0 -290 -400 -424l-86 -29q-142 0 -248 88.5t-106 233.5zM225 336q0 -148 84.5 -242t196.5 -94q262 137 262 379q0 54 -21.5 104.5t-61.5 93.5t-75.5 74t-82.5 67q-10 7 -15 11q-287 -167 -287 -393zM403 1135q0 -81 53 -156t173 -174 q237 134 237 358q0 114 -62.5 189t-191.5 82q-209 -91 -209 -299z" />
<glyph unicode="9" horiz-adv-x="1019" d="M10 -508q116 24 227 85t197 141.5t157 174.5t116 185t65 172l-369 -223q-115 0 -204.5 115t-89.5 268q0 188 81 321t252 191l148 51q163 0 260.5 -115.5t97.5 -325.5q0 -186 -71 -360.5t-195 -312t-297.5 -238t-372.5 -143.5zM242 471q0 -92 19 -162.5t50.5 -110 t67.5 -58.5t74 -19q45 0 83.5 15t122.5 61l117 67q39 119 39 248q0 172 -80 289.5t-221 130.5q-132 -57 -202 -187t-70 -274z" />
<glyph unicode=":" horiz-adv-x="495" d="M82 -2l8 96l25 80l127 8l47 -8l-8 -94l-23 -82l-127 -8zM207 799l8 96l25 80l127 8l47 -8l-8 -94l-23 -82l-127 -8z" />
<glyph unicode=";" horiz-adv-x="509" d="M41 -281l170 277l-72 -4l-43 8l8 98l27 76l119 8l53 -8l-6 -90l-29 -84l-221 -283zM221 799l8 96l25 80l127 8l47 -8l-8 -94l-23 -82l-127 -8z" />
<glyph unicode="&#x3c;" d="M102 575v21l1063 485v-43l-1007 -452l1007 -451v-43z" />
<glyph unicode="=" d="M106 287v41h1055v-41h-1055zM106 676v41h1055v-41h-1055z" />
<glyph unicode="&#x3e;" d="M102 92v43l1008 451l-1008 452v43l1063 -485v-21z" />
<glyph unicode="?" horiz-adv-x="770" d="M133 0l4 80l25 63l100 7l39 -7l-8 -75l-23 -68l-102 -8zM246 410l51 286l100 62q146 90 223.5 195.5t77.5 238.5q0 114 -52.5 178.5t-172.5 71.5l-100 -223h-109l37 204l174 31q85 0 150 -19t103 -48.5t62 -71t32.5 -79.5t8.5 -81q0 -211 -286 -346l-166 -78l-103 -321 h-30z" />
<glyph unicode="@" horiz-adv-x="1839" d="M154 528q0 288 182.5 511.5t484.5 330.5l191 64q181 0 327.5 -45.5t241.5 -125.5t146 -188t51 -235q0 -133 -51 -255.5t-134 -209.5t-193.5 -139t-225.5 -52l-97 138l45 213l-282 -355q-104 8 -183 98.5t-79 229.5q0 159 92.5 286.5t247.5 202.5l219 105l194 -139 l-149 -766q79 0 161.5 44t152.5 120.5t114.5 194.5t44.5 253q0 123 -42.5 230t-120 185.5t-192 123.5t-251.5 45q-116 0 -229.5 -36.5t-211 -108t-172 -168.5t-117.5 -226.5t-43 -273.5q0 -180 61.5 -324t166 -234.5t238.5 -138t284 -47.5q179 0 391 129l6 -8 q-112 -68 -250 -121.5t-237 -68.5q-230 0 -408.5 98t-276 271.5t-97.5 391.5zM705 559q0 -110 47.5 -181.5t140.5 -92.5l233 274l76 352l-178 123q-90 -45 -155.5 -107t-99.5 -127.5t-49 -124.5t-15 -116z" />
<glyph unicode="A" horiz-adv-x="1374" d="M-51 0v10l184 10l782 1399l105 27l110 -1426l183 -10v-10h-502v10l184 10l-37 498h-507l-277 -498l182 -10v-10h-407zM461 539h495l-59 782z" />
<glyph unicode="B" horiz-adv-x="1103" d="M-20 0v10l184 10l209 1393l-172 10v11h489q184 0 283.5 -73.5t99.5 -203.5q0 -140 -94.5 -238t-261.5 -133l-88 -18q111 -1 199 -27.5t143 -71.5t83.5 -102.5t28.5 -122.5q0 -141 -93 -239t-253 -156l-135 -49h-622zM301 31h350q279 139 279 397q0 137 -88 228.5 t-252 91.5h-182zM412 768h131q38 0 86.5 14.5t99.5 46t94 74t70.5 104.5t28.5 132q-2 138 -70 206t-223 68h-121z" />
<glyph unicode="C" horiz-adv-x="1181" d="M102 573q0 126 32.5 248t96.5 235t171 206t245 149l148 59q132 0 236.5 -35.5t170.5 -84.5l-10 -316h-12l-80 248q-149 115 -375 139q-220 -78 -344.5 -287t-124.5 -479q0 -308 117 -467.5t321 -187.5q67 26 161 73.5t122 69.5l158 269h12l-70 -310l-426 -139 q-235 0 -392 172.5t-157 437.5z" />
<glyph unicode="D" horiz-adv-x="1288" d="M-20 0v10l184 10l209 1393l-172 10v11h510q117 0 222 -45t180.5 -122t120 -186t44.5 -231q0 -97 -18.5 -191.5t-60 -189t-102.5 -173.5t-153 -144t-205 -101l-159 -51h-600zM301 33h350q218 104 345.5 324.5t127.5 492.5q0 270 -117.5 416.5t-310.5 146.5h-188z" />
<glyph unicode="E" horiz-adv-x="1122" d="M-20 0v10l184 10l209 1393l-172 10v11h983l-58 -361h-10l-72 340h-536l-98 -653h290l119 233h10l-77 -485h-11l-45 231h-288l-109 -719h545l180 349h10l-59 -369h-995z" />
<glyph unicode="F" horiz-adv-x="1081" d="M-20 0v10l184 10l209 1393l-172 10v11h983l-58 -361h-10l-72 340h-536l-100 -672h290l119 234h10l-77 -486h-11l-45 232h-288l-107 -701l252 -10v-10h-571z" />
<glyph unicode="G" horiz-adv-x="1277" d="M102 584q0 130 33 253.5t100 237t179 204t258 140.5l149 51q137 0 247 -47t181 -110l-32 -281h-11l-57 201q-154 166 -428 188q-95 -40 -176.5 -105.5t-147.5 -158t-103.5 -219t-37.5 -272.5q0 -161 34 -286t95.5 -203.5t141.5 -122.5t178 -54q70 24 153.5 65t120.5 66 l72 483l-170 11v10h428v-10l-123 -11l-78 -512l-459 -139q-158 0 -283.5 80.5t-194.5 222.5t-69 318z" />
<glyph unicode="H" horiz-adv-x="1351" d="M-20 0v10l184 10l209 1393l-172 10v11h481v-11l-174 -10l-98 -657h637l98 657l-172 10v11h481v-11l-174 -10l-209 -1393l182 -10v-10h-501v10l184 10l106 715h-636l-107 -715l182 -10v-10h-501z" />
<glyph unicode="I" horiz-adv-x="579" d="M-20 0v10l184 10l209 1393l-172 10v11h481v-11l-174 -10l-209 -1393l182 -10v-10h-501z" />
<glyph unicode="J" horiz-adv-x="565" d="M-143 -358l22 143h223q52 123 76 289l201 1339l-172 10v11h481v-11l-174 -10l-190 -1278q-4 -30 -11 -57.5t-19 -54t-21 -46.5t-26 -44t-26.5 -37.5t-30.5 -36.5t-28.5 -31t-30.5 -31.5t-27 -27.5l-129 -127h-118z" />
<glyph unicode="K" horiz-adv-x="1331" d="M-20 0v10l184 10l209 1393l-172 10v11h481v-11l-174 -10l-96 -643l739 643l-182 10v11h393v-11l-166 -10l-737 -637l104 -12l541 -744l141 -10v-10h-305l-530 756l-111 -736l182 -10v-10h-501z" />
<glyph unicode="L" horiz-adv-x="1054" d="M-20 0v10l184 10l209 1393l-172 10v11h481v-11l-174 -10l-209 -1393h504l201 349h10l-80 -369h-954z" />
<glyph unicode="M" horiz-adv-x="1744" d="M-20 0v10l184 10l223 1393l-172 10v11h330l284 -1309l691 1309h327v-11l-174 -10l-209 -1393l183 -10v-10h-502v10l184 10l209 1381l-735 -1401h-82l-305 1397l-217 -1377l182 -10v-10h-401z" />
<glyph unicode="N" horiz-adv-x="1366" d="M-20 0v10l184 10l223 1393l-172 10v11h332l530 -1231l193 1210l-183 10v11h402v-11l-184 -10l-228 -1413h-63l-596 1395l-219 -1375l182 -10v-10h-401z" />
<glyph unicode="O" horiz-adv-x="1310" d="M102 563q0 102 18 203.5t59.5 204t102.5 188.5t153.5 156t205.5 108l143 47q106 0 201 -45t164.5 -123.5t110 -190.5t40.5 -241q0 -102 -18.5 -202.5t-60 -201.5t-102.5 -186t-153 -155.5t-204 -110.5l-144 -51q-106 0 -201 45t-164.5 123.5t-110 190.5t-40.5 241z M256 604q0 -278 115.5 -430t302.5 -172q137 36 246.5 162.5t168 301.5t58.5 363q0 278 -115.5 431.5t-302.5 173.5q-103 -23 -192.5 -103.5t-150.5 -194.5t-95.5 -253t-34.5 -279z" />
<glyph unicode="P" horiz-adv-x="1052" d="M-20 0v10l184 10l209 1393l-172 10v11h592q172 0 267 -85t95 -219q0 -145 -90 -249.5t-289 -171.5l-149 -52h-232l-96 -637l252 -10v-10h-571zM399 688h285q50 22 87.5 42t83.5 56.5t75.5 77.5t50 102.5t20.5 133.5q0 149 -73.5 231t-227.5 82h-192z" />
<glyph unicode="Q" horiz-adv-x="1310" d="M102 563q0 102 18 203.5t59.5 204t102.5 188.5t153.5 156t205.5 108l143 47q106 0 201 -45t164.5 -123.5t110 -190.5t40.5 -241q0 -102 -18.5 -202.5t-60 -201.5t-102.5 -186t-153 -155.5t-204 -110.5l-144 -51q-106 0 -201 45t-164.5 123.5t-110 190.5t-40.5 241z M256 604q0 -278 115.5 -430t302.5 -172q137 36 246.5 162.5t168 301.5t58.5 363q0 278 -115.5 431.5t-302.5 173.5q-103 -23 -192.5 -103.5t-150.5 -194.5t-95.5 -253t-34.5 -279zM618 -37l209 -45l248 -246l101 -10v-10h-269z" />
<glyph unicode="R" horiz-adv-x="1257" d="M-20 0v10l184 10l209 1393l-172 10v11h592q172 0 267 -82t95 -211q0 -285 -377 -393l-155 -46l180 -75l297 -607l86 -8v-12h-236l-327 702h-222l-102 -682l211 -10v-10h-530zM406 733h282q33 15 54 25t53.5 27.5t53.5 34t47.5 39t43 47.5t32 56t22.5 68.5t7 79.5 q0 144 -73.5 223.5t-227.5 79.5h-192z" />
<glyph unicode="S" horiz-adv-x="919" d="M31 82l65 297l13 -2v-180q56 -66 176 -123t237 -64q121 37 178.5 117t57.5 188q0 99 -43.5 165.5t-157.5 156.5l-195 154q-163 127 -163 286q0 108 65 196t195 136l170 61q116 0 192 -21t140 -65l-50 -309h-10l-27 219q-102 112 -335 127q-127 -36 -179.5 -101 t-52.5 -159q0 -44 9.5 -80t21.5 -61t43.5 -58t53 -52t74.5 -62q11 -9 17 -14l211 -172q72 -58 107 -121t35 -160q0 -114 -80.5 -220t-216.5 -147l-162 -51q-120 0 -221 33.5t-168 85.5z" />
<glyph unicode="T" horiz-adv-x="1081" d="M143 1085l56 349h1015l-53 -349h-10l-53 328h-332l-207 -1393l211 -10v-10h-530v10l184 10l207 1393h-336l-141 -328h-11z" />
<glyph unicode="U" horiz-adv-x="1239" d="M154 1423v11h481v-11l-174 -10l-144 -952q-8 -52 -8 -99q0 -134 64 -218q86 -114 299 -115q73 29 123.5 61.5t96 84t74.5 127.5t46 181l151 930l-182 10v11h401v-11l-184 -10l-149 -928q-16 -96 -39 -165t-64 -131t-106 -106.5t-158 -74.5l-125 -41q-388 0 -388 346 q0 53 9 115l148 985z" />
<glyph unicode="V" horiz-adv-x="1304" d="M154 1423v11h501v-11l-184 -10l197 -1304l567 1304l-186 10v11h409v-11l-184 -10l-615 -1403l-108 -30l-215 1433z" />
<glyph unicode="W" horiz-adv-x="1906" d="M154 1423v11h501v-11l-184 -10l197 -1304l372 915l-57 389l-141 10v11h481v-11l-205 -10l197 -1304l522 1304l-182 10v11h405v-11l-184 -10l-571 -1403l-107 -30l-147 989l-392 -959l-108 -30l-215 1433z" />
<glyph unicode="X" horiz-adv-x="1333" d="M-41 0v10l143 10l551 676l-334 717l-131 10v11h459v-11l-174 -10l279 -610l497 610l-172 10v11h348v-11l-133 -10l-524 -643l350 -750l121 -10v-10h-461v10l185 10l-295 644l-523 -644l183 -10v-10h-369z" />
<glyph unicode="Y" horiz-adv-x="1216" d="M154 1423v11h479v-11l-184 -10l280 -774l479 774l-186 10v11h348v-11l-123 -10l-504 -803l-90 -590l183 -10v-10h-502v10l184 10l86 572l-309 821z" />
<glyph unicode="Z" horiz-adv-x="1050" d="M-10 20l979 1393h-613l-188 -360h-10l59 381h885l20 -23l-966 -1391h649l182 369h10l-51 -389h-936z" />
<glyph unicode="[" horiz-adv-x="610" d="M20 -471l342 1935h371l-2 -10l-285 -10l-333 -1895l282 -10l-2 -10h-373z" />
<glyph unicode="\" horiz-adv-x="823" d="M184 1470h43l586 -1941h-47z" />
<glyph unicode="]" horiz-adv-x="569" d="M-154 -471l2 10l285 10l334 1895l-283 10l2 10h373l-342 -1935h-371z" />
<glyph unicode="^" horiz-adv-x="718" d="M174 942l340 502h12l162 -502h-31l-143 467l-309 -467h-31z" />
<glyph unicode="_" horiz-adv-x="1316" d="M-20 -195l6 41h1136l-6 -41h-1136z" />
<glyph unicode="`" horiz-adv-x="1024" d="M397 1464h148l82 -354h-11z" />
<glyph unicode="a" horiz-adv-x="899" d="M72 317q0 187 107.5 348.5t291.5 247.5l127 60q41 0 114.5 -24.5t110.5 -49.5l-153 -870l202 151l7 -6l-240 -205l-86 51l47 259l-324 -310q-204 101 -204 348zM184 403q0 -221 162 -333l256 223l94 534q-53 32 -116.5 53t-112.5 21q-139 -77 -211 -206.5t-72 -291.5z " />
<glyph unicode="b" horiz-adv-x="882" d="M82 63l235 1342l-196 -57l-2 10l309 110l14 -10l-129 -729l289 244q107 -22 173.5 -108t66.5 -242q0 -176 -92.5 -336.5t-255.5 -237.5l-170 -80q-70 9 -122 29.5t-120 64.5zM209 135q45 -47 110 -72.5t111 -25.5q82 33 140.5 90t89.5 127.5t45 142t14 150.5 q0 141 -48 219.5t-143 112.5l-217 -168z" />
<glyph unicode="c" horiz-adv-x="800" d="M82 356q0 368 418 564l112 53q78 -10 179 -76l-70 -104q-80 56 -229 112q-79 -42 -136.5 -96.5t-89.5 -115.5t-46.5 -121.5t-14.5 -125.5q0 -171 68 -266t171 -123q47 22 141 76.5t140 87.5l8 -10q-40 -30 -128.5 -90t-127.5 -88l-88 -64q-51 0 -103.5 26t-98.5 72.5 t-75.5 122.5t-29.5 166z" />
<glyph unicode="d" horiz-adv-x="954" d="M82 330q0 188 112 347.5t302 235.5l149 60q18 -1 94 -29l80 461l-196 -57l-2 10l309 110l14 -10l-254 -1429l203 151l6 -6l-240 -205l-86 51l48 259l-316 -310q-94 44 -158.5 141.5t-64.5 219.5zM205 414q0 -218 180 -338l238 217l94 536q-51 29 -117.5 49.5t-112.5 22.5 q-138 -69 -210 -196.5t-72 -290.5z" />
<glyph unicode="e" horiz-adv-x="823" d="M82 356q0 189 111.5 340.5t310.5 227.5l119 47q75 -17 117 -63.5t42 -139.5q0 -78 -41 -152l-540 -167q0 -306 252 -394q212 126 256 158l10 -12q-131 -97 -242 -170l-94 -62q-55 8 -107.5 36.5t-96.5 75.5t-70.5 118.5t-26.5 156.5zM201 463l413 143q33 62 33 137 q0 144 -131 177q-310 -153 -315 -457z" />
<glyph unicode="f" horiz-adv-x="516" d="M-256 -481l23 123h237q26 40 39 86.5t27 128.5l188 1075h-131l2 10h131l19 92q45 219 161 297l199 133h113l-21 -123h-254q-47 -76 -71 -223l-31 -176h205l-2 -10h-205l-176 -1004q-32 -199 -164 -282l-197 -127h-92z" />
<glyph unicode="g" horiz-adv-x="886" d="M20 -481l21 112h354q52 45 102.5 145.5t67.5 194.5l56 305l-316 -307q-223 131 -223 357q0 188 111 349t301 238l145 60q42 -5 106.5 -26t100.5 -42l-174 -979q-23 -126 -240 -280l-178 -127h-234zM205 424q0 -105 45 -194.5t133 -151.5l240 215l94 530q-51 31 -118 54 t-112 24q-140 -76 -211 -197.5t-71 -279.5z" />
<glyph unicode="h" horiz-adv-x="950" d="M82 0l248 1405l-197 -57l-2 10l309 110l15 -10l-129 -725l340 240q106 0 150 -53q33 -39 32 -99q0 -21 -4 -45l-133 -747l202 151l7 -6l-240 -205l-86 51l127 705q4 26 4 47q0 105 -102 105q-40 0 -87 -23t-128 -78l-84 -57l-127 -719h-115z" />
<glyph unicode="i" horiz-adv-x="497" d="M72 836l317 137l8 -6l-166 -942l203 155l6 -6l-239 -205l-86 51l155 879l-194 -74zM313 1249l9 86l32 68l49 10l84 -10v-82l-34 -72l-45 -10z" />
<glyph unicode="j" horiz-adv-x="489" d="M-225 -481l24 123h242q32 65 59 215l183 1042l-195 -74l-4 11l317 137l9 -6l-183 -1039q-37 -199 -161 -278l-199 -131h-92zM326 1249l8 86l33 68l49 10l84 -10v-82l-35 -72l-45 -10z" />
<glyph unicode="k" horiz-adv-x="862" d="M82 0l248 1405l-197 -57l-2 10l309 110l15 -10l-158 -889l436 383h119l-25 -143h-219l-291 -246l127 -39l213 -487l177 139l6 -8l-232 -199l-76 31l-235 561l-100 -561h-115z" />
<glyph unicode="l" horiz-adv-x="481" d="M102 20l244 1385l-196 -57l-3 10l310 110l14 -10l-252 -1429l203 151l6 -6l-240 -205z" />
<glyph unicode="m" horiz-adv-x="1452" d="M72 836l317 137l8 -6l-41 -234l330 240q99 -1 140 -53q31 -40 32 -102q0 -20 -4 -42l-6 -43l330 240q98 0 140 -53q31 -40 32 -101q0 -21 -4 -43l-134 -747l203 151l6 -6l-239 -205l-86 51l127 705q4 25 4 46q0 106 -92 106q-39 0 -82.5 -22.5t-122.5 -78.5l-84 -57 l-127 -719h-115l127 725q5 28 5 50q0 102 -93 102q-39 0 -82.5 -22.5t-122.5 -78.5l-84 -57l-127 -719h-114l157 899l-194 -74z" />
<glyph unicode="n" horiz-adv-x="980" d="M72 836l317 137l8 -6l-41 -234l340 240q106 0 150 -53q33 -39 32 -99q0 -21 -4 -45l-133 -747l203 151l6 -6l-239 -205l-86 51l127 705q4 26 4 47q0 105 -103 105q-40 0 -87 -23t-128 -78l-84 -57l-127 -719h-114l157 899l-194 -74z" />
<glyph unicode="o" horiz-adv-x="884" d="M82 356q0 189 92.5 338.5t261.5 223.5l125 55q117 0 200 -98t83 -277q0 -191 -93.5 -345t-261.5 -228l-124 -56q-116 0 -199.5 103.5t-83.5 283.5zM205 395q0 -178 66.5 -268t172.5 -107q76 26 132.5 87t86.5 140t44 157t14 155q0 95 -17.5 163.5t-52 108.5t-76.5 60.5 t-98 28.5q-75 -25 -131 -84t-85 -135.5t-42.5 -152.5t-13.5 -153z" />
<glyph unicode="p" horiz-adv-x="923" d="M31 -471l239 1370l-194 -74l-4 11l317 137l8 -6l-41 -236l277 242q109 -13 179.5 -102.5t70.5 -247.5q0 -176 -88 -330.5t-248 -235.5l-178 -88q-48 5 -138 54l-86 -494h-114zM252 133q45 -46 107.5 -70t111.5 -26q88 37 147.5 94.5t89 128t41 138.5t11.5 149 q0 141 -56 225t-151 105l-201 -166z" />
<glyph unicode="q" horiz-adv-x="876" d="M82 317q0 190 111 355.5t299 240.5l147 60q43 -5 107 -25t100 -41l-244 -1378h-115l131 743l-311 -303q-225 107 -225 348zM205 403q0 -99 46.5 -184.5t133.5 -136.5l238 211l94 532q-142 73 -230 76q-139 -77 -210.5 -206t-71.5 -292z" />
<glyph unicode="r" horiz-adv-x="710" d="M72 836l317 137l8 -6l-75 -432l284 417h125l-31 -153h-170l-215 -301l-88 -498h-116l159 899l-194 -74z" />
<glyph unicode="s" horiz-adv-x="677" d="M10 84l94 90q104 -83 234 -149q68 21 103.5 65t35.5 96q0 63 -22 104t-84 103l-140 139q-75 75 -75 175q0 68 55.5 128.5t169.5 96.5l129 41q75 -9 158 -64l-76 -100q-99 68 -225 109q-52 -19 -80.5 -62.5t-28.5 -89.5q0 -88 74 -162l143 -143q65 -65 90 -113t25 -112 q0 -145 -195 -205l-205 -62q-36 19 -93.5 55.5t-86.5 59.5z" />
<glyph unicode="t" horiz-adv-x="542" d="M92 20l160 912h-131l2 10h131l25 127l122 131h13l-45 -258h204l-2 -10h-204l-158 -903l244 153l6 -8l-281 -205z" />
<glyph unicode="u" horiz-adv-x="970" d="M61 854l316 119l8 -6l-137 -772q-4 -23 -4 -42q0 -87 82 -87q47 0 93.5 21.5t137.5 84.5l82 57l125 713h117l-160 -913l213 141l6 -6l-266 -195l-70 51l33 193l-334 -244q-106 0 -149 50q-31 36 -31 95q0 22 4 46l133 749l-194 -65z" />
<glyph unicode="v" horiz-adv-x="804" d="M-10 836l313 137l8 -6l4 -934l439 715l-136 161l113 64l64 -70l-29 -186l-455 -733l-104 28l-19 887l-194 -74z" />
<glyph unicode="w" horiz-adv-x="1228" d="M-10 836l313 137l8 -6l4 -934l306 491l-9 375l123 53l4 -919l439 710l-136 166l113 64l64 -70l-29 -186l-457 -733l-102 28l-10 471l-312 -499l-102 28l-19 887l-194 -74z" />
<glyph unicode="x" horiz-adv-x="880" d="M-10 -10l28 133h158l238 321l-138 455l-204 -70l-4 11l294 129l13 -6l127 -416l282 405h107l-27 -133h-151l-205 -291l154 -495l202 147l6 -6l-249 -201l-70 41l-131 412l-316 -436h-114z" />
<glyph unicode="y" horiz-adv-x="843" d="M-10 836l317 141l8 -6l111 -920l371 699l-140 159l113 64l64 -70l-7 -164l-381 -716l-282 -506l-166 2l33 133h162l225 383l-111 -27l-112 895l-201 -78z" />
<glyph unicode="z" horiz-adv-x="772" d="M-10 0l661 795l-440 63l-59 -117l-9 4l84 228l512 -68l60 53l14 -6l-653 -790l508 -58l67 113l10 -4l-104 -227l-567 69l-72 -65z" />
<glyph unicode="{" horiz-adv-x="612" d="M92 489l2 11q50 17 84.5 45.5t54 71.5t28.5 77t18 90l69 394q23 129 104 207.5t185 78.5h98l-2 -10h-106q-61 0 -108.5 -52.5t-69.5 -172.5l-78 -443q-31 -184 -197 -260l135 -92l-119 -670q-21 -119 14 -172t101 -53h107l-2 -10h-99q-113 0 -169 78.5t-33 208.5l102 587 z" />
<glyph unicode="|" horiz-adv-x="757" d="M225 -502l348 1972h41l-348 -1972h-41z" />
<glyph unicode="}" horiz-adv-x="514" d="M-164 -471l2 10h107q60 0 107 52.5t69 172.5l82 463q14 81 61.5 152.5t136.5 112.5l-137 88l115 649q21 119 -13.5 172t-99.5 53h-106l2 10h98q113 0 169.5 -78t33.5 -208l-101 -568l121 -86l-2 -10q-34 -11 -61 -28.5t-45.5 -41t-31.5 -45.5t-22.5 -54.5t-14.5 -56 t-11 -59.5l-72 -413q-23 -129 -104 -208t-185 -79h-98z" />
<glyph unicode="~" horiz-adv-x="1337" d="M82 414l108 164l195 24l774 -108l117 151h10l-106 -153l-197 -35l-770 116l-121 -159h-10z" />
<glyph unicode="&#xa1;" horiz-adv-x="464" d="M10 -502l125 649l125 418h31l-23 -415l-104 -652h-154zM246 809l8 76l22 67l103 9l35 -9l-4 -80l-25 -63l-100 -6z" />
<glyph unicode="&#xa2;" horiz-adv-x="821" d="M82 356q0 368 418 564l59 28l29 158h20l-24 -148l28 15q78 -10 179 -76l-70 -104q-80 56 -229 112q-79 -42 -136.5 -96.5t-89.5 -115.5t-46.5 -121.5t-14.5 -125.5q0 -171 68 -266t171 -123q47 22 141 76.5t140 87.5l8 -10q-40 -30 -128.5 -90t-127.5 -88l-67 -47 l-27 -150h-21l23 133q-51 1 -103 27t-97.5 73t-74 122t-28.5 165z" />
<glyph unicode="&#xa3;" horiz-adv-x="1075" d="M20 0l3 10l192 21l125 712h-188l2 11h188l41 229q15 83 36.5 143.5t57 113t90 91.5t130 72t180.5 61q24 0 75 -24t92 -60v-2l-75 -100q-66 49 -110.5 73t-125.5 58q-38 -16 -65 -34.5t-56.5 -51.5t-51 -87.5t-34.5 -129.5l-61 -352h381l-2 -11h-381l-80 -450 q-24 -136 -45.5 -184.5t-73.5 -88.5h570l167 297h11l-56 -317h-936z" />
<glyph unicode="&#xa4;" d="M115 311l166 142q-56 88 -56 204q0 201 140 332l-125 154l34 28l125 -153q135 104 289 104q75 0 147.5 -27t118.5 -73l176 149l23 -28l-174 -148q70 -90 70 -221q0 -185 -146 -325l115 -138l-35 -28l-113 137q-138 -109 -295 -109q-81 0 -153.5 30t-118.5 83l-166 -141z M266 664q0 -139 88 -227.5t228 -88.5q105 0 202.5 57.5t159.5 157t62 211.5q0 136 -91.5 224.5t-236.5 88.5q-163 0 -287.5 -127.5t-124.5 -295.5z" />
<glyph unicode="&#xa5;" horiz-adv-x="1175" d="M154 1423v11h479v-11l-184 -10l260 -774l458 774l-186 10v11h348v-11l-123 -10l-483 -803l-8 -51h225l-2 -10h-225l-27 -182h219l-2 -11h-219l-51 -336l182 -10v-10h-502v10l185 10l49 336h-219l2 11h219l29 182h-216l3 10h213l6 33l-289 821z" />
<glyph unicode="&#xa6;" horiz-adv-x="757" d="M225 -502l156 881h41l-156 -881h-41zM418 590l155 880h41l-155 -880h-41z" />
<glyph unicode="&#xa7;" horiz-adv-x="1128" d="M-31 -342l113 96q16 -12 59.5 -44t68 -49t73 -45t104.5 -54q123 31 194.5 98t71.5 141q0 96 -31 152t-137 162q-196 196 -252.5 277.5t-56.5 164.5q0 81 71.5 161.5t209.5 131.5q-54 54 -77.5 103.5t-23.5 115.5q0 101 83 204.5t235 143.5l180 47q89 -15 203 -90 l-96 -108q-131 90 -289 141q-109 -33 -156 -89t-47 -144q0 -144 104 -248l388 -387v-93q0 -108 -82.5 -197.5t-221.5 -117.5q70 -75 98.5 -130.5t28.5 -127.5q0 -207 -272 -289l-289 -86q-51 24 -132 75.5t-122 84.5zM295 639q0 -83 27.5 -135t93.5 -121l237 -246 q62 21 104 65.5t57 89.5t15 89v90l-182 188l-182 183q-82 -26 -126 -80t-44 -123z" />
<glyph unicode="&#xa8;" horiz-adv-x="1024" d="M268 1219v79l31 66l41 8l88 -8v-78l-29 -67l-39 -9zM596 1219v79l33 66l41 8l86 -8v-78l-29 -67l-37 -9z" />
<glyph unicode="&#xa9;" horiz-adv-x="1703" d="M143 729q0 158 53.5 286.5t152.5 218.5t235 147.5t307 82.5q151 -2 286.5 -54t239 -146.5t164.5 -239t61 -319.5q0 -158 -53 -286.5t-152.5 -218.5t-235 -148t-306.5 -83q-151 2 -286.5 54t-239.5 147t-165 239.5t-61 319.5zM238 729q0 -144 42.5 -267t111 -206 t155.5 -142.5t174.5 -86.5t169.5 -27q130 0 248.5 48.5t209.5 136.5t145 223t54 297q0 144 -42.5 267t-111 206t-155.5 142.5t-174.5 86.5t-169.5 27q-130 0 -248.5 -49t-209.5 -137t-145 -223t-54 -296zM471 700q0 194 124 310t337 135q164 0 295 -62v-194h-13l-81 164 q-82 75 -199 75q-133 0 -220 -106.5t-87 -302.5q0 -114 32 -204.5t106 -149t181 -58.5q55 0 105 21t82 53l81 176h13v-197q-145 -58 -309 -73q-89 0 -169.5 27.5t-142.5 78t-98.5 130.5t-36.5 177z" />
<glyph unicode="&#xaa;" horiz-adv-x="794" d="M102 928q0 153 91 285t247 202l103 49q34 0 94 -20t92 -41l-127 -709l166 121l6 -4l-196 -168l-82 41l39 211l-265 -252q-168 80 -168 285zM205 997q0 -177 123 -268l209 180l77 426q-41 30 -90 49t-88 19q-114 -64 -172.5 -168.5t-58.5 -237.5z" />
<glyph unicode="&#xab;" horiz-adv-x="892" d="M72 481l452 451h11l-351 -451l191 -450h-13zM420 481l452 451h11l-351 -451l191 -450h-12z" />
<glyph unicode="&#xac;" d="M106 686v41h1055v-360h-41v319h-1014z" />
<glyph unicode="&#xad;" horiz-adv-x="784" d="M102 547l7 41h624l-6 -41h-625z" />
<glyph unicode="&#xae;" horiz-adv-x="1191" d="M154 899q0 215 136.5 342t375.5 162q140 -1 256 -61t188 -180t72 -279q0 -215 -136.5 -342t-375.5 -162q-104 1 -197 36.5t-164.5 100.5t-113 164t-41.5 219zM240 899q0 -97 28 -180.5t72.5 -140.5t101 -97.5t114 -59t110.5 -18.5q85 0 163 33t137.5 93.5t94.5 152 t35 201.5q0 121 -42 219.5t-107 156.5t-137 88.5t-140 30.5q-85 0 -163 -33t-137.5 -93t-94.5 -151.5t-35 -201.5zM414 618v9l67 4v528l-67 4v8h276q75 0 127.5 -33.5t52.5 -101.5q0 -69 -63 -106t-168 -47l113 -23l151 -229l43 -4v-9h-139l-170 265h-64v-252l66 -4v-9h-225 zM573 893h50q70 0 107.5 36.5t37.5 100.5q0 62 -33.5 97.5t-85.5 35.5l-76 -4v-266z" />
<glyph unicode="&#xaf;" horiz-adv-x="1024" d="M221 1290l6 41h574l-6 -41h-574z" />
<glyph unicode="&#xb0;" horiz-adv-x="761" d="M225 1229q0 122 78 193t238 120q129 0 221 -92t92 -221t-74 -204t-239 -112q-129 0 -222.5 93.5t-93.5 222.5zM272 1229q0 -115 81 -202t188 -87q119 0 192.5 84.5t73.5 204.5q0 116 -79.5 201.5t-186.5 85.5q-120 0 -194.5 -84t-74.5 -203z" />
<glyph unicode="&#xb1;" d="M96 0v41h1075v-41h-1075zM96 786v41h506v516h41v-516h508v-41h-508v-497h-41v497h-506z" />
<glyph unicode="&#xb2;" horiz-adv-x="659" d="M113 829l258 213q137 113 197.5 204t60.5 186q0 69 -32 112t-93 53l-74 -20l-84 -166h-61l10 137l256 78q98 0 149.5 -49.5t51.5 -120.5q0 -54 -21 -104t-66.5 -99.5t-93 -89.5t-122.5 -96l-216 -154h469v-14l-40 -80h-547z" />
<glyph unicode="&#xb3;" horiz-adv-x="565" d="M102 813l21 100h272q103 66 103 172q0 60 -49.5 104.5t-153.5 45.5l-2 10l76 39q170 78 170 199q0 44 -28 75.5t-71 36.5l-73 -20l-80 -156h-60l11 129l256 78q77 0 120 -34.5t43 -86.5q0 -72 -67.5 -127t-179.5 -86q102 -7 156.5 -50t54.5 -114q0 -49 -24 -90t-69.5 -71 t-85 -48.5t-96.5 -39.5l-162 -66h-82z" />
<glyph unicode="&#xb4;" horiz-adv-x="1024" d="M324 1110l227 354h147l-364 -354h-10z" />
<glyph unicode="&#xb5;" d="M205 -471l248 1380l-195 -65l-4 10l315 119l9 -6l-138 -772q-22 -129 78 -129q47 0 94 21.5t138 84.5l81 57l125 713h117l-160 -913l213 141l7 -6l-267 -195l-69 51l32 193l-333 -244q-148 0 -177 97l-22 -127l82 -410h-174z" />
<glyph unicode="&#xb6;" horiz-adv-x="1013" d="M123 1104q0 48 21.5 92t67 86t91 74.5t117.5 77.5h491v-11l-104 -10v-1739h-41v1739h-307v-1739h-41v1166q-126 0 -210.5 72t-84.5 192z" />
<glyph unicode="&#xb7;" horiz-adv-x="839" d="M410 739l8 97l28 77l123 9l45 -9l-8 -90l-28 -84l-125 -8z" />
<glyph unicode="&#xb8;" horiz-adv-x="1024" d="M319 -492l54 62h151q48 24 73.5 56.5t25.5 84.5q0 115 -123 125l123 152h12l-74 -90q66 -6 103.5 -41t37.5 -95q0 -41 -18 -76t-48.5 -59t-59 -39t-60.5 -26l-149 -54h-48z" />
<glyph unicode="&#xb9;" horiz-adv-x="593" d="M143 819v12l203 7l135 712l-215 -71l-4 12l328 123h16l-149 -776l188 -7v-12h-502z" />
<glyph unicode="&#xba;" horiz-adv-x="784" d="M123 961q0 155 77.5 276t219.5 182l102 45q101 0 171.5 -80t70.5 -227q0 -154 -79 -280t-220 -187l-103 -45q-99 0 -169 84.5t-70 231.5zM236 993q0 -147 53 -219.5t139 -85.5q61 21 106.5 70.5t69 114t34.5 127.5t11 126q0 102 -25.5 166t-66 90.5t-102.5 36.5 q-61 -20 -106 -67.5t-68.5 -110t-34 -124t-10.5 -124.5z" />
<glyph unicode="&#xbb;" horiz-adv-x="944" d="M72 31l350 450l-191 451h11l293 -451l-451 -450h-12zM420 31l350 450l-190 451h10l293 -451l-451 -450h-12z" />
<glyph unicode="&#xbc;" horiz-adv-x="1599" d="M166 645v12l203 7l135 712l-215 -71l-4 12l327 123h17l-150 -776l189 -7v-12h-502zM276 -102l1065 1556h50l-1061 -1556h-54zM850 266l461 522h147l-2 -10l-582 -508h320l37 195l112 59h13l-49 -256h161l-2 -16h-163l-48 -252h-114l49 252h-334z" />
<glyph unicode="&#xbd;" horiz-adv-x="1599" d="M166 645v12l203 7l135 712l-215 -71l-4 12l327 123h17l-150 -776l189 -7v-12h-502zM276 -102l1065 1556h50l-1061 -1556h-54zM827 10l258 213q137 113 197.5 203.5t60.5 185.5q0 70 -31.5 113t-92.5 53l-74 -20l-84 -166h-62l11 137l256 78q98 0 149 -49.5t51 -120.5 q0 -54 -21 -104t-66.5 -99.5t-93 -89.5t-122.5 -96l-215 -154h469v-14l-41 -80h-547z" />
<glyph unicode="&#xbe;" horiz-adv-x="1542" d="M164 639l20 100h273q102 66 102 172q0 60 -49.5 104.5t-153.5 45.5l-2 10l76 39q170 78 170 199q0 44 -27.5 76t-70.5 36l-74 -20l-80 -156h-59l10 129l256 78q77 0 120.5 -34.5t43.5 -86.5q0 -72 -67.5 -127t-180.5 -86q102 -7 156.5 -50t54.5 -114q0 -40 -17.5 -75 t-42.5 -59.5t-65 -47.5t-72 -37t-77 -30l-162 -66h-82zM221 -102l1065 1556h49l-1061 -1556h-53zM793 266l460 522h148l-2 -10l-582 -508h320l37 195l112 59h12l-49 -256h162l-2 -16h-164l-47 -252h-115l50 252h-334z" />
<glyph unicode="&#xbf;" horiz-adv-x="729" d="M-10 -203q0 211 286 346l166 78l103 322h30l-51 -287l-100 -61q-146 -90 -223.5 -195.5t-77.5 -239.5q0 -114 52.5 -178t172.5 -71l101 223h108l-37 -205l-174 -31q-85 0 -150 19t-103 48.5t-62 71t-32.5 79.5t-8.5 81zM520 809l8 76l23 67l102 9l35 -9l-4 -80l-25 -63 l-100 -6z" />
<glyph unicode="&#xc0;" horiz-adv-x="1374" d="M-51 0v10l184 10l782 1399l105 27l110 -1426l183 -10v-10h-502v10l184 10l-37 498h-507l-277 -498l182 -10v-10h-407zM461 539h495l-59 782zM768 1843h135l82 -303h-10z" />
<glyph unicode="&#xc1;" horiz-adv-x="1374" d="M-51 0v10l184 10l782 1399l105 27l110 -1426l183 -10v-10h-502v10l184 10l-37 498h-507l-277 -498l182 -10v-10h-407zM461 539h495l-59 782zM965 1540l82 303h135l-207 -303h-10z" />
<glyph unicode="&#xc2;" horiz-adv-x="1374" d="M-51 0v10l184 10l782 1399l105 27l110 -1426l183 -10v-10h-502v10l184 10l-37 498h-507l-277 -498l182 -10v-10h-407zM461 539h495l-59 782zM719 1540l319 330h9l174 -330h-11l-190 205h-4l-287 -205h-10z" />
<glyph unicode="&#xc3;" horiz-adv-x="1384" d="M-51 0v10l184 10l782 1399l105 27l110 -1426l183 -10v-10h-502v10l184 10l-37 498h-507l-277 -498l182 -10v-10h-407zM461 539h495l-59 782zM678 1587l92 195l129 45l311 -189l103 185h10l-96 -195l-129 -45l-312 191l-98 -187h-10z" />
<glyph unicode="&#xc4;" horiz-adv-x="1374" d="M-51 0v10l184 10l782 1399l105 27l110 -1426l183 -10v-10h-502v10l184 10l-37 498h-507l-277 -498l182 -10v-10h-407zM461 539h495l-59 782zM770 1610v80l31 65l41 8l88 -8v-78l-29 -67l-39 -8zM1098 1610v80l32 65l41 8l86 -8v-78l-28 -67l-37 -8z" />
<glyph unicode="&#xc5;" horiz-adv-x="1374" d="M-51 0v10l184 10l782 1399l105 27l110 -1426l183 -10v-10h-502v10l184 10l-37 498h-507l-277 -498l182 -10v-10h-407zM461 539h495l-59 782zM793 1710q0 43 12 73t44 52.5t52 32t72 29.5q13 5 20 8q84 0 143.5 -47t59.5 -140q0 -19 -3.5 -35.5t-7 -29.5t-14 -25.5 t-16 -20.5t-21.5 -18.5t-23 -15t-28 -13.5t-27.5 -12t-31.5 -12.5t-31 -11.5q-83 0 -141.5 46.5t-58.5 139.5zM844 1714q0 -72 40.5 -115t108.5 -43t110 43t42 115t-42 115t-110 43t-108.5 -43t-40.5 -115z" />
<glyph unicode="&#xc6;" horiz-adv-x="1777" d="M-51 0v10l184 10l887 1414h819l-57 -361h-10l-72 340h-537l-106 -711h291l118 234h11l-78 -485h-10l-46 231h-290l-99 -662h545l180 349h11l-60 -369h-995v10l184 10l99 662h-336l-408 -662l182 -10v-10h-407zM594 702h328l104 701z" />
<glyph unicode="&#xc7;" horiz-adv-x="1181" d="M102 573q0 126 32.5 248t96.5 235t171 206t245 149l148 59q132 0 236.5 -35.5t170.5 -84.5l-10 -316h-12l-80 248q-149 115 -375 139q-220 -78 -344.5 -287t-124.5 -479q0 -308 117 -467.5t321 -187.5q67 26 161 73.5t122 69.5l158 269h12l-70 -310l-426 -139l-53 -65 q66 -6 103.5 -41t37.5 -95q0 -41 -18 -76t-48.5 -59t-59 -39t-60.5 -26l-150 -54h-47l54 62h151q47 24 72.5 56.5t25.5 84.5q0 115 -122 125l102 127q-151 3 -273.5 81t-193 217t-70.5 312z" />
<glyph unicode="&#xc8;" horiz-adv-x="1122" d="M-20 0v10l184 10l209 1393l-172 10v11h983l-58 -361h-10l-72 340h-536l-98 -653h290l119 233h10l-77 -485h-11l-45 231h-288l-109 -719h545l180 349h10l-59 -369h-995zM606 1843h135l82 -303h-10z" />
<glyph unicode="&#xc9;" horiz-adv-x="1122" d="M-20 0v10l184 10l209 1393l-172 10v11h983l-58 -361h-10l-72 340h-536l-98 -653h290l119 233h10l-77 -485h-11l-45 231h-288l-109 -719h545l180 349h10l-59 -369h-995zM778 1540l82 303h135l-207 -303h-10z" />
<glyph unicode="&#xca;" horiz-adv-x="1122" d="M-20 0v10l184 10l209 1393l-172 10v11h983l-58 -361h-10l-72 340h-536l-98 -653h290l119 233h10l-77 -485h-11l-45 231h-288l-109 -719h545l180 349h10l-59 -369h-995zM537 1540l319 330h8l174 -330h-10l-190 205h-4l-287 -205h-10z" />
<glyph unicode="&#xcb;" horiz-adv-x="1122" d="M-20 0v10l184 10l209 1393l-172 10v11h983l-58 -361h-10l-72 340h-536l-98 -653h290l119 233h10l-77 -485h-11l-45 231h-288l-109 -719h545l180 349h10l-59 -369h-995zM551 1610v80l31 65l41 8l88 -8v-78l-29 -67l-39 -8zM879 1610v80l32 65l41 8l86 -8v-78l-28 -67 l-37 -8z" />
<glyph unicode="&#xcc;" horiz-adv-x="579" d="M-20 0v10l184 10l209 1393l-172 10v11h481v-11l-174 -10l-209 -1393l182 -10v-10h-501zM311 1843h135l82 -303h-10z" />
<glyph unicode="&#xcd;" horiz-adv-x="579" d="M-20 0v10l184 10l209 1393l-172 10v11h481v-11l-174 -10l-209 -1393l182 -10v-10h-501zM459 1540l82 303h135l-207 -303h-10z" />
<glyph unicode="&#xce;" horiz-adv-x="579" d="M-20 0v10l184 10l209 1393l-172 10v11h481v-11l-174 -10l-209 -1393l182 -10v-10h-501zM213 1540l319 330h9l174 -330h-10l-191 205h-4l-287 -205h-10z" />
<glyph unicode="&#xcf;" horiz-adv-x="579" d="M-20 0v10l184 10l209 1393l-172 10v11h481v-11l-174 -10l-209 -1393l182 -10v-10h-501zM248 1610v80l31 65l40 8l89 -8v-78l-29 -67l-39 -8zM575 1610v80l33 65l41 8l86 -8v-78l-28 -67l-37 -8z" />
<glyph unicode="&#xd0;" horiz-adv-x="1288" d="M-20 0v10l184 10l108 723h-194l2 11h192l101 659l-172 10v11h510q117 0 222 -45t180.5 -122t120 -186t44.5 -231q0 -97 -18.5 -191.5t-60 -189t-102.5 -173.5t-153 -144t-205 -101l-159 -51h-600zM301 33h350q218 104 345.5 324.5t127.5 492.5q0 270 -117.5 416.5 t-310.5 146.5h-188l-100 -659h297l-3 -11h-294z" />
<glyph unicode="&#xd1;" horiz-adv-x="1366" d="M-20 0v10l184 10l223 1393l-172 10v11h332l530 -1231l193 1210l-183 10v11h402v-11l-184 -10l-228 -1413h-63l-596 1395l-219 -1375l182 -10v-10h-401zM586 1587l92 195l129 45l311 -189l103 185h10l-96 -195l-129 -45l-312 191l-98 -187h-10z" />
<glyph unicode="&#xd2;" horiz-adv-x="1310" d="M102 563q0 102 18 203.5t59.5 204t102.5 188.5t153.5 156t205.5 108l143 47q106 0 201 -45t164.5 -123.5t110 -190.5t40.5 -241q0 -102 -18.5 -202.5t-60 -201.5t-102.5 -186t-153 -155.5t-204 -110.5l-144 -51q-106 0 -201 45t-164.5 123.5t-110 190.5t-40.5 241z M256 604q0 -278 115.5 -430t302.5 -172q137 36 246.5 162.5t168 301.5t58.5 363q0 278 -115.5 431.5t-302.5 173.5q-103 -23 -192.5 -103.5t-150.5 -194.5t-95.5 -253t-34.5 -279zM666 1843h135l82 -303h-11z" />
<glyph unicode="&#xd3;" horiz-adv-x="1310" d="M102 563q0 102 18 203.5t59.5 204t102.5 188.5t153.5 156t205.5 108l143 47q106 0 201 -45t164.5 -123.5t110 -190.5t40.5 -241q0 -102 -18.5 -202.5t-60 -201.5t-102.5 -186t-153 -155.5t-204 -110.5l-144 -51q-106 0 -201 45t-164.5 123.5t-110 190.5t-40.5 241z M256 604q0 -278 115.5 -430t302.5 -172q137 36 246.5 162.5t168 301.5t58.5 363q0 278 -115.5 431.5t-302.5 173.5q-103 -23 -192.5 -103.5t-150.5 -194.5t-95.5 -253t-34.5 -279zM739 1540l82 303h135l-206 -303h-11z" />
<glyph unicode="&#xd4;" horiz-adv-x="1310" d="M102 563q0 102 18 203.5t59.5 204t102.5 188.5t153.5 156t205.5 108l143 47q106 0 201 -45t164.5 -123.5t110 -190.5t40.5 -241q0 -102 -18.5 -202.5t-60 -201.5t-102.5 -186t-153 -155.5t-204 -110.5l-144 -51q-106 0 -201 45t-164.5 123.5t-110 190.5t-40.5 241z M256 604q0 -278 115.5 -430t302.5 -172q137 36 246.5 162.5t168 301.5t58.5 363q0 278 -115.5 431.5t-302.5 173.5q-103 -23 -192.5 -103.5t-150.5 -194.5t-95.5 -253t-34.5 -279zM592 1540l319 330h9l174 -330h-11l-190 205h-4l-287 -205h-10z" />
<glyph unicode="&#xd5;" horiz-adv-x="1310" d="M102 563q0 102 18 203.5t59.5 204t102.5 188.5t153.5 156t205.5 108l143 47q106 0 201 -45t164.5 -123.5t110 -190.5t40.5 -241q0 -102 -18.5 -202.5t-60 -201.5t-102.5 -186t-153 -155.5t-204 -110.5l-144 -51q-106 0 -201 45t-164.5 123.5t-110 190.5t-40.5 241z M256 604q0 -278 115.5 -430t302.5 -172q137 36 246.5 162.5t168 301.5t58.5 363q0 278 -115.5 431.5t-302.5 173.5q-103 -23 -192.5 -103.5t-150.5 -194.5t-95.5 -253t-34.5 -279zM528 1587l93 195l129 45l311 -189l102 185h11l-97 -195l-129 -45l-311 191l-98 -187h-11z " />
<glyph unicode="&#xd6;" horiz-adv-x="1310" d="M102 563q0 102 18 203.5t59.5 204t102.5 188.5t153.5 156t205.5 108l143 47q106 0 201 -45t164.5 -123.5t110 -190.5t40.5 -241q0 -102 -18.5 -202.5t-60 -201.5t-102.5 -186t-153 -155.5t-204 -110.5l-144 -51q-106 0 -201 45t-164.5 123.5t-110 190.5t-40.5 241z M256 604q0 -278 115.5 -430t302.5 -172q137 36 246.5 162.5t168 301.5t58.5 363q0 278 -115.5 431.5t-302.5 173.5q-103 -23 -192.5 -103.5t-150.5 -194.5t-95.5 -253t-34.5 -279zM618 1610v80l31 65l41 8l88 -8v-78l-28 -67l-39 -8zM946 1610v80l33 65l41 8l86 -8v-78 l-29 -67l-37 -8z" />
<glyph unicode="&#xd7;" d="M231 94l373 375l-373 375l29 28l375 -374l371 372l28 -28l-370 -373l374 -373l-28 -28l-375 372l-375 -374z" />
<glyph unicode="&#xd8;" horiz-adv-x="1310" d="M14 -31l195 221q-107 157 -107 373q0 102 18 203.5t59.5 204t102.5 188.5t153.5 156t205.5 108l143 47q113 0 211.5 -50t169.5 -140l154 174h10l-158 -180q129 -168 129 -404q0 -102 -18.5 -202.5t-60 -201.5t-102.5 -186t-153 -155.5t-204 -110.5l-144 -51 q-122 0 -227 57.5t-176 159.5l-186 -211h-15zM256 604q0 -172 49 -305l772 881q-54 114 -144 178t-204 76q-103 -23 -192.5 -103.5t-150.5 -194.5t-95.5 -253t-34.5 -279zM309 289q51 -130 146 -202.5t219 -84.5q137 36 246.5 162.5t168 301.5t58.5 363q0 197 -66 342z" />
<glyph unicode="&#xd9;" horiz-adv-x="1239" d="M154 1423v11h481v-11l-174 -10l-144 -952q-30 -203 56 -317.5t299 -114.5q73 29 123.5 61.5t96 84t74.5 127.5t46 181l151 930l-182 10v11h401v-11l-184 -10l-149 -928q-16 -96 -39 -165t-64 -131t-106 -106.5t-158 -74.5l-125 -41q-448 0 -379 461l148 985zM674 1843 h135l82 -303h-10z" />
<glyph unicode="&#xda;" horiz-adv-x="1239" d="M154 1423v11h481v-11l-174 -10l-144 -952q-30 -203 56 -317.5t299 -114.5q73 29 123.5 61.5t96 84t74.5 127.5t46 181l151 930l-182 10v11h401v-11l-184 -10l-149 -928q-16 -96 -39 -165t-64 -131t-106 -106.5t-158 -74.5l-125 -41q-448 0 -379 461l148 985zM827 1540 l82 303h135l-206 -303h-11z" />
<glyph unicode="&#xdb;" horiz-adv-x="1239" d="M154 1423v11h481v-11l-174 -10l-144 -952q-30 -203 56 -317.5t299 -114.5q73 29 123.5 61.5t96 84t74.5 127.5t46 181l151 930l-182 10v11h401v-11l-184 -10l-149 -928q-16 -96 -39 -165t-64 -131t-106 -106.5t-158 -74.5l-125 -41q-448 0 -379 461l148 985zM610 1540 l320 330h8l174 -330h-10l-191 205h-4l-286 -205h-11z" />
<glyph unicode="&#xdc;" horiz-adv-x="1239" d="M154 1423v11h481v-11l-174 -10l-144 -952q-30 -203 56 -317.5t299 -114.5q73 29 123.5 61.5t96 84t74.5 127.5t46 181l151 930l-182 10v11h401v-11l-184 -10l-149 -928q-16 -96 -39 -165t-64 -131t-106 -106.5t-158 -74.5l-125 -41q-448 0 -379 461l148 985zM608 1610v80 l31 65l41 8l88 -8v-78l-29 -67l-39 -8zM936 1610v80l33 65l41 8l86 -8v-78l-29 -67l-37 -8z" />
<glyph unicode="&#xdd;" horiz-adv-x="1216" d="M154 1423v11h479v-11l-184 -10l280 -774l479 774l-186 10v11h348v-11l-123 -10l-504 -803l-90 -590l183 -10v-10h-502v10l184 10l86 572l-309 821zM827 1540l82 303h135l-206 -303h-11z" />
<glyph unicode="&#xde;" horiz-adv-x="1046" d="M-20 0v10l184 10l209 1393l-172 10v11h481v-11l-174 -10l-43 -289h280q172 0 267.5 -84.5t95.5 -218.5q0 -145 -90 -250t-289 -172l-149 -51h-232l-49 -328l252 -10v-10h-571zM352 379h285q50 22 87.5 42t83.5 56.5t75.5 77.5t50 102.5t20.5 133.5q0 149 -73.5 231 t-227.5 82h-192z" />
<glyph unicode="&#xdf;" horiz-adv-x="940" d="M-256 -481l25 123h241q38 77 60 215l184 1075h-129l2 10h129q34 174 74.5 261t109.5 130l209 131q44 -1 77.5 -6t69.5 -19.5t59.5 -37.5t38.5 -62.5t15 -93.5q0 -171 -221 -311l-110 -72q-21 -47 -21 -100q0 -49 20 -84.5t58 -73.5l143 -143q65 -65 90 -113t25 -112 q0 -145 -195 -205l-204 -62q-101 52 -181 115l95 90q105 -85 233 -149q68 21 103.5 65t35.5 96q0 63 -22 104t-84 103l-139 139q-78 78 -78 175q0 43 16 75l156 131q157 130 157 297q0 46 -12 83t-31 59t-43.5 36t-47 19.5t-44.5 5.5q-56 -31 -95 -67t-60.5 -77t-31.5 -73 t-18 -78l-206 -1194q-31 -190 -162 -274l-199 -131h-92z" />
<glyph unicode="&#xe0;" horiz-adv-x="899" d="M72 317q0 187 107.5 348.5t291.5 247.5l127 60q41 0 114.5 -24.5t110.5 -49.5l-153 -870l202 151l7 -6l-240 -205l-86 51l47 259l-324 -310q-204 101 -204 348zM184 403q0 -221 162 -333l256 223l94 534q-53 32 -116.5 53t-112.5 21q-139 -77 -211 -206.5t-72 -291.5z M496 1464h147l82 -354h-10z" />
<glyph unicode="&#xe1;" horiz-adv-x="899" d="M72 317q0 187 107.5 348.5t291.5 247.5l127 60q41 0 114.5 -24.5t110.5 -49.5l-153 -870l202 151l7 -6l-240 -205l-86 51l47 259l-324 -310q-204 101 -204 348zM184 403q0 -221 162 -333l256 223l94 534q-53 32 -116.5 53t-112.5 21q-139 -77 -211 -206.5t-72 -291.5z M481 1110l228 354h147l-364 -354h-11z" />
<glyph unicode="&#xe2;" horiz-adv-x="899" d="M72 317q0 187 107.5 348.5t291.5 247.5l127 60q41 0 114.5 -24.5t110.5 -49.5l-153 -870l202 151l7 -6l-240 -205l-86 51l47 259l-324 -310q-204 101 -204 348zM184 403q0 -221 162 -333l256 223l94 534q-53 32 -116.5 53t-112.5 21q-139 -77 -211 -206.5t-72 -291.5z M369 1110l313 379h8l174 -379h-10l-190 236h-5l-280 -236h-10z" />
<glyph unicode="&#xe3;" horiz-adv-x="899" d="M72 317q0 187 107.5 348.5t291.5 247.5l127 60q41 0 114.5 -24.5t110.5 -49.5l-153 -870l202 151l7 -6l-240 -205l-86 51l47 259l-324 -310q-204 101 -204 348zM184 403q0 -221 162 -333l256 223l94 534q-53 32 -116.5 53t-112.5 21q-139 -77 -211 -206.5t-72 -291.5z M375 1198l92 195l129 45l311 -189l103 185h10l-96 -195l-129 -45l-312 190l-98 -186h-10z" />
<glyph unicode="&#xe4;" horiz-adv-x="899" d="M72 317q0 187 107.5 348.5t291.5 247.5l127 60q41 0 114.5 -24.5t110.5 -49.5l-153 -870l202 151l7 -6l-240 -205l-86 51l47 259l-324 -310q-204 101 -204 348zM184 403q0 -221 162 -333l256 223l94 534q-53 32 -116.5 53t-112.5 21q-139 -77 -211 -206.5t-72 -291.5z M459 1219v79l30 66l41 8l88 -8v-78l-28 -67l-39 -9zM786 1219v79l33 66l41 8l86 -8v-78l-28 -67l-37 -9z" />
<glyph unicode="&#xe5;" horiz-adv-x="899" d="M72 317q0 187 107.5 348.5t291.5 247.5l127 60q41 0 114.5 -24.5t110.5 -49.5l-153 -870l202 151l7 -6l-240 -205l-86 51l47 259l-324 -310q-204 101 -204 348zM184 403q0 -221 162 -333l256 223l94 534q-53 32 -116.5 53t-112.5 21q-139 -77 -211 -206.5t-72 -291.5z M526 1290q0 34 10.5 61.5t24 44.5t41 33.5t47 25t57.5 22.5q14 5 21 8q84 0 143.5 -47t59.5 -140q0 -19 -3.5 -35.5t-7 -29.5t-14 -25.5t-16 -20.5t-21.5 -18.5t-23 -15t-28 -13.5t-27.5 -12t-31.5 -12.5t-31 -11.5q-84 0 -142.5 46.5t-58.5 139.5zM578 1294 q0 -72 40.5 -114.5t108.5 -42.5t110 43t42 114q0 72 -42 115t-110 43t-108.5 -43t-40.5 -115z" />
<glyph unicode="&#xe6;" horiz-adv-x="1275" d="M72 317q0 187 107.5 348.5t291.5 247.5l127 60q58 0 133.5 -27t124.5 -69q39 23 100 47l119 47q75 -17 117.5 -63.5t42.5 -139.5q0 -78 -41 -152l-541 -163q0 -310 252 -398q212 126 256 158l10 -12q-138 -103 -241 -170l-94 -62q-98 13 -180.5 88t-110.5 197l-269 -285 q-204 101 -204 348zM184 403q0 -221 162 -333l197 194q-8 39 -8 92q0 128 50.5 240t147.5 197q-131 108 -266 108q-139 -77 -211 -206.5t-72 -291.5zM653 463l414 135q33 62 33 145q0 144 -131 177q-139 -68 -219 -172q-91 -123 -97 -285z" />
<glyph unicode="&#xe7;" horiz-adv-x="800" d="M82 356q0 368 418 564l112 53q78 -10 179 -76l-70 -104q-80 56 -229 112q-79 -42 -136.5 -96.5t-89.5 -115.5t-46.5 -121.5t-14.5 -125.5q0 -171 68 -266t171 -123q47 22 141 76.5t140 87.5l8 -10q-40 -30 -128.5 -90t-127.5 -88l-86 -62l-59 -73q66 -6 103.5 -41 t37.5 -95q0 -41 -18 -76t-48.5 -59t-59 -39t-60.5 -26l-150 -54h-47l53 62h152q47 24 72.5 56.5t25.5 84.5q0 115 -123 125l107 133q-50 3 -101 30t-95 73.5t-71.5 121t-27.5 162.5z" />
<glyph unicode="&#xe8;" horiz-adv-x="823" d="M82 356q0 189 111.5 340.5t310.5 227.5l119 47q75 -17 117 -63.5t42 -139.5q0 -78 -41 -152l-540 -167q0 -306 252 -394q212 126 256 158l10 -12q-131 -97 -242 -170l-94 -62q-55 8 -107.5 36.5t-96.5 75.5t-70.5 118.5t-26.5 156.5zM201 463l413 143q33 62 33 137 q0 144 -131 177q-310 -153 -315 -457zM414 1464h147l82 -354h-10z" />
<glyph unicode="&#xe9;" horiz-adv-x="823" d="M82 356q0 189 111.5 340.5t310.5 227.5l119 47q75 -17 117 -63.5t42 -139.5q0 -78 -41 -152l-540 -167q0 -306 252 -394q212 126 256 158l10 -12q-131 -97 -242 -170l-94 -62q-55 8 -107.5 36.5t-96.5 75.5t-70.5 118.5t-26.5 156.5zM201 463l413 143q33 62 33 137 q0 144 -131 177q-310 -153 -315 -457zM471 1110l227 354h148l-365 -354h-10z" />
<glyph unicode="&#xea;" horiz-adv-x="823" d="M82 356q0 189 111.5 340.5t310.5 227.5l119 47q75 -17 117 -63.5t42 -139.5q0 -78 -41 -152l-540 -167q0 -306 252 -394q212 126 256 158l10 -12q-131 -97 -242 -170l-94 -62q-55 8 -107.5 36.5t-96.5 75.5t-70.5 118.5t-26.5 156.5zM201 463l413 143q33 62 33 137 q0 144 -131 177q-310 -153 -315 -457zM367 1110l313 379h8l174 -379h-10l-190 236h-5l-280 -236h-10z" />
<glyph unicode="&#xeb;" horiz-adv-x="823" d="M82 356q0 189 111.5 340.5t310.5 227.5l119 47q75 -17 117 -63.5t42 -139.5q0 -78 -41 -152l-540 -167q0 -306 252 -394q212 126 256 158l10 -12q-131 -97 -242 -170l-94 -62q-55 8 -107.5 36.5t-96.5 75.5t-70.5 118.5t-26.5 156.5zM201 463l413 143q33 62 33 137 q0 144 -131 177q-310 -153 -315 -457zM393 1219v79l31 66l41 8l88 -8v-78l-29 -67l-39 -9zM721 1219v79l33 66l41 8l86 -8v-78l-29 -67l-37 -9z" />
<glyph unicode="&#xec;" horiz-adv-x="497" d="M72 836l317 137l8 -6l-166 -942l203 155l6 -6l-239 -205l-86 51l155 879l-194 -74zM209 1464h147l82 -354h-10z" />
<glyph unicode="&#xed;" horiz-adv-x="497" d="M72 836l317 137l8 -6l-166 -942l203 155l6 -6l-239 -205l-86 51l155 879l-194 -74zM223 1110l228 354h147l-365 -354h-10z" />
<glyph unicode="&#xee;" horiz-adv-x="497" d="M72 836l317 137l8 -6l-166 -942l203 155l6 -6l-239 -205l-86 51l155 879l-194 -74zM109 1110l313 379h8l174 -379h-10l-191 236h-4l-280 -236h-10z" />
<glyph unicode="&#xef;" horiz-adv-x="497" d="M72 836l317 137l8 -6l-166 -942l203 155l6 -6l-239 -205l-86 51l155 879l-194 -74zM150 1219v79l30 66l41 8l88 -8v-78l-28 -67l-39 -9zM477 1219v79l33 66l41 8l86 -8v-78l-29 -67l-37 -9z" />
<glyph unicode="&#xf0;" horiz-adv-x="962" d="M82 459q0 166 92 299.5t270 185.5l127 37l224 -176q-3 294 -160 479l-293 -131l2 12l283 127q-102 118 -271 172l6 11q171 -51 302 -166l241 108l-2 -12l-231 -105q128 -120 189 -285t61 -347q0 -133 -31 -244.5t-86.5 -190.5t-124.5 -133t-152 -86l-116 -45 q-109 34 -186 115t-110.5 176.5t-33.5 198.5zM207 416q0 -295 229 -412q132 49 207 131.5t113.5 239.5t38.5 413l-39 29q-115 45 -199 45q-160 0 -255 -124t-95 -322z" />
<glyph unicode="&#xf1;" horiz-adv-x="980" d="M72 836l317 137l8 -6l-41 -234l340 240q105 0 149.5 -53t28.5 -144l-133 -747l203 151l6 -6l-239 -205l-86 51l127 705q25 152 -99 152q-40 0 -87 -23t-128 -78l-84 -57l-127 -719h-114l157 899l-194 -74zM389 1198l92 195l129 45l312 -189l102 185h10l-96 -195l-129 -45 l-311 190l-99 -186h-10z" />
<glyph unicode="&#xf2;" horiz-adv-x="884" d="M82 356q0 189 92.5 338.5t261.5 223.5l125 55q117 0 200 -98t83 -277q0 -191 -93.5 -345t-261.5 -228l-124 -56q-116 0 -199.5 103.5t-83.5 283.5zM205 395q0 -178 66.5 -268t172.5 -107q76 26 132.5 87t86.5 140t44 157t14 155q0 95 -17.5 163.5t-52 108.5t-76.5 60.5 t-98 28.5q-75 -25 -131 -84t-85 -135.5t-42.5 -152.5t-13.5 -153zM432 1464h148l82 -354h-11z" />
<glyph unicode="&#xf3;" horiz-adv-x="884" d="M82 356q0 189 92.5 338.5t261.5 223.5l125 55q117 0 200 -98t83 -277q0 -191 -93.5 -345t-261.5 -228l-124 -56q-116 0 -199.5 103.5t-83.5 283.5zM205 395q0 -178 66.5 -268t172.5 -107q76 26 132.5 87t86.5 140t44 157t14 155q0 95 -17.5 163.5t-52 108.5t-76.5 60.5 t-98 28.5q-75 -25 -131 -84t-85 -135.5t-42.5 -152.5t-13.5 -153zM510 1110l227 354h148l-365 -354h-10z" />
<glyph unicode="&#xf4;" horiz-adv-x="884" d="M82 356q0 189 92.5 338.5t261.5 223.5l125 55q117 0 200 -98t83 -277q0 -191 -93.5 -345t-261.5 -228l-124 -56q-116 0 -199.5 103.5t-83.5 283.5zM205 395q0 -178 66.5 -268t172.5 -107q76 26 132.5 87t86.5 140t44 157t14 155q0 95 -17.5 163.5t-52 108.5t-76.5 60.5 t-98 28.5q-75 -25 -131 -84t-85 -135.5t-42.5 -152.5t-13.5 -153zM348 1110l314 379h8l174 -379h-10l-191 236h-4l-281 -236h-10z" />
<glyph unicode="&#xf5;" horiz-adv-x="884" d="M82 356q0 189 92.5 338.5t261.5 223.5l125 55q117 0 200 -98t83 -277q0 -191 -93.5 -345t-261.5 -228l-124 -56q-116 0 -199.5 103.5t-83.5 283.5zM205 395q0 -178 66.5 -268t172.5 -107q76 26 132.5 87t86.5 140t44 157t14 155q0 95 -17.5 163.5t-52 108.5t-76.5 60.5 t-98 28.5q-75 -25 -131 -84t-85 -135.5t-42.5 -152.5t-13.5 -153zM358 1198l93 195l129 45l311 -189l102 185h11l-97 -195l-129 -45l-311 190l-98 -186h-11z" />
<glyph unicode="&#xf6;" horiz-adv-x="884" d="M82 356q0 189 92.5 338.5t261.5 223.5l125 55q117 0 200 -98t83 -277q0 -191 -93.5 -345t-261.5 -228l-124 -56q-116 0 -199.5 103.5t-83.5 283.5zM205 395q0 -178 66.5 -268t172.5 -107q76 26 132.5 87t86.5 140t44 157t14 155q0 95 -17.5 163.5t-52 108.5t-76.5 60.5 t-98 28.5q-75 -25 -131 -84t-85 -135.5t-42.5 -152.5t-13.5 -153zM444 1219v79l31 66l41 8l88 -8v-78l-29 -67l-38 -9zM772 1219v79l33 66l41 8l86 -8v-78l-29 -67l-37 -9z" />
<glyph unicode="&#xf7;" d="M96 481v41h1075v-41h-1075zM559 141l12 64l101 6l39 -6l6 -76l-12 -68l-101 -8l-37 8zM559 874l12 64l101 6l39 -6l6 -76l-12 -67l-101 -9l-37 9z" />
<glyph unicode="&#xf8;" horiz-adv-x="884" d="M-16 -31l147 158q-49 93 -49 229q0 189 92.5 338.5t261.5 223.5l125 55q69 0 130 -37t100 -107l145 154h14l-153 -164q47 -92 47 -221q0 -191 -93.5 -345t-261.5 -228l-124 -56q-69 0 -130 38t-100 110l-137 -148h-14zM205 395q0 -104 20 -168l475 504 q-26 89 -82.5 132.5t-140.5 56.5q-75 -25 -131 -84t-85 -135.5t-42.5 -152.5t-13.5 -153zM229 215q53 -170 215 -195q76 26 132.5 87t86.5 140t44 157t14 155q0 91 -19 162z" />
<glyph unicode="&#xf9;" horiz-adv-x="970" d="M61 854l316 119l8 -6l-137 -772q-22 -129 78 -129q47 0 93.5 21.5t137.5 84.5l82 57l125 713h117l-160 -913l213 141l6 -6l-266 -195l-70 51l33 193l-334 -244q-106 0 -149 50t-27 141l133 749l-194 -65zM457 1464h147l82 -354h-10z" />
<glyph unicode="&#xfa;" horiz-adv-x="970" d="M61 854l316 119l8 -6l-137 -772q-22 -129 78 -129q47 0 93.5 21.5t137.5 84.5l82 57l125 713h117l-160 -913l213 141l6 -6l-266 -195l-70 51l33 193l-334 -244q-106 0 -149 50t-27 141l133 749l-194 -65zM467 1110l227 354h148l-365 -354h-10z" />
<glyph unicode="&#xfb;" horiz-adv-x="970" d="M61 854l316 119l8 -6l-137 -772q-22 -129 78 -129q47 0 93.5 21.5t137.5 84.5l82 57l125 713h117l-160 -913l213 141l6 -6l-266 -195l-70 51l33 193l-334 -244q-106 0 -149 50t-27 141l133 749l-194 -65zM360 1110l314 379h8l174 -379h-10l-191 236h-4l-280 -236h-11z " />
<glyph unicode="&#xfc;" horiz-adv-x="970" d="M61 854l316 119l8 -6l-137 -772q-22 -129 78 -129q47 0 93.5 21.5t137.5 84.5l82 57l125 713h117l-160 -913l213 141l6 -6l-266 -195l-70 51l33 193l-334 -244q-106 0 -149 50t-27 141l133 749l-194 -65zM440 1219v79l31 66l41 8l88 -8v-78l-29 -67l-39 -9zM768 1219v79 l33 66l41 8l86 -8v-78l-29 -67l-37 -9z" />
<glyph unicode="&#xfd;" horiz-adv-x="843" d="M-10 836l317 141l8 -6l111 -920l371 699l-140 159l113 64l64 -70l-7 -164l-381 -716l-282 -506l-166 2l33 133h162l225 383l-111 -27l-112 895l-201 -78zM483 1110l228 354h147l-364 -354h-11z" />
<glyph unicode="&#xfe;" horiz-adv-x="923" d="M31 -471l329 1876l-196 -57l-2 10l309 110l14 -10l-129 -727l277 242q109 -13 179.5 -102.5t70.5 -247.5q0 -176 -88 -330.5t-248 -235.5l-178 -88q-48 5 -138 54l-86 -494h-114zM252 133q45 -46 107.5 -70t111.5 -26q88 37 147.5 94.5t89 128t41 138.5t11.5 149 q0 141 -56 225t-151 105l-201 -166z" />
<glyph unicode="&#xff;" horiz-adv-x="843" d="M-10 836l317 141l8 -6l111 -920l371 699l-140 159l113 64l64 -70l-7 -164l-381 -716l-282 -506l-166 2l33 133h162l225 383l-111 -27l-112 895l-201 -78zM412 1219v79l30 66l41 8l88 -8v-78l-28 -67l-39 -9zM739 1219v79l33 66l41 8l86 -8v-78l-29 -67l-36 -9z" />
<glyph unicode="&#x152;" horiz-adv-x="1869" d="M123 563q0 130 33 256.5t100.5 246.5t185 215t271.5 142l143 47q158 -7 305 -36h770l-57 -361h-10l-72 340h-537l-98 -653h291l119 233h10l-78 -485h-10l-45 231h-289l-108 -719h544l181 349h10l-60 -369h-780l-293 -37q-108 0 -205 45t-167.5 123.5t-112 190.5 t-41.5 241zM276 604q0 -139 33 -249.5t92 -182t135.5 -112t168.5 -50.5l206 10l205 1360q-164 54 -315 54q-151 -30 -273 -158t-187 -306t-65 -366z" />
<glyph unicode="&#x153;" horiz-adv-x="1458" d="M82 356q0 188 92.5 335.5t261.5 226.5l117 55q100 0 177 -73t99 -210q115 159 310 234l118 47q75 -17 117.5 -63.5t42.5 -139.5q0 -78 -41 -152l-540 -165q0 -308 251 -396q212 126 256 158l11 -12q-131 -97 -242 -170l-94 -62q-91 13 -171.5 84.5t-111.5 186.5 q-94 -146 -246 -215l-124 -56q-116 0 -199.5 103.5t-83.5 283.5zM205 395q0 -178 66.5 -268t172.5 -107q76 26 132.5 87t86.5 140t44 157t14 155q0 95 -17.5 163.5t-52 108.5t-76.5 60.5t-98 28.5q-75 -25 -131 -84t-85 -135.5t-42.5 -152.5t-13.5 -153zM836 463l413 143 q33 62 33 137q0 144 -131 177q-307 -154 -315 -457z" />
<glyph unicode="&#x178;" horiz-adv-x="1216" d="M154 1423v11h479v-11l-184 -10l280 -774l479 774l-186 10v11h348v-11l-123 -10l-504 -803l-90 -590l183 -10v-10h-502v10l184 10l86 572l-309 821zM633 1610v80l31 65l41 8l88 -8v-78l-29 -67l-39 -8zM961 1610v80l32 65l41 8l86 -8v-78l-28 -67l-37 -8z" />
<glyph unicode="&#x2c6;" horiz-adv-x="1024" d="M264 1110l314 379h8l174 -379h-10l-191 236h-4l-281 -236h-10z" />
<glyph unicode="&#x2dc;" horiz-adv-x="1024" d="M188 1198l93 195l129 45l311 -189l102 185h11l-97 -195l-129 -45l-311 190l-98 -186h-11z" />
<glyph unicode="&#x2000;" horiz-adv-x="952" />
<glyph unicode="&#x2001;" horiz-adv-x="1905" />
<glyph unicode="&#x2002;" horiz-adv-x="952" />
<glyph unicode="&#x2003;" horiz-adv-x="1905" />
<glyph unicode="&#x2004;" horiz-adv-x="635" />
<glyph unicode="&#x2005;" horiz-adv-x="476" />
<glyph unicode="&#x2006;" horiz-adv-x="317" />
<glyph unicode="&#x2007;" horiz-adv-x="317" />
<glyph unicode="&#x2008;" horiz-adv-x="238" />
<glyph unicode="&#x2009;" horiz-adv-x="381" />
<glyph unicode="&#x200a;" horiz-adv-x="105" />
<glyph unicode="&#x2010;" horiz-adv-x="784" d="M102 547l7 41h624l-6 -41h-625z" />
<glyph unicode="&#x2011;" horiz-adv-x="784" d="M102 547l7 41h624l-6 -41h-625z" />
<glyph unicode="&#x2012;" horiz-adv-x="784" d="M102 547l7 41h624l-6 -41h-625z" />
<glyph unicode="&#x2013;" horiz-adv-x="1032" d="M113 547l8 41h819l-8 -41h-819z" />
<glyph unicode="&#x2014;" horiz-adv-x="1869" d="M143 547l7 41h1638l-6 -41h-1639z" />
<glyph unicode="&#x2018;" horiz-adv-x="419" d="M184 961l9 90l30 82l221 325l7 -2l-179 -319l76 4l45 -8l-8 -97l-29 -75l-123 -9z" />
<glyph unicode="&#x2019;" horiz-adv-x="430" d="M205 950l178 320l-76 -4l-45 8l8 96l29 76l123 8l49 -8l-8 -90l-31 -82l-221 -326z" />
<glyph unicode="&#x201a;" horiz-adv-x="460" d="M31 -281l178 320l-76 -4l-45 8l8 96l29 76l123 8l49 -8l-8 -90l-31 -82l-221 -326z" />
<glyph unicode="&#x201c;" horiz-adv-x="716" d="M184 961l9 90l30 82l221 325l7 -2l-179 -319l76 4l45 -8l-8 -97l-29 -75l-123 -9zM481 961l8 90l31 82l221 325l7 -2l-179 -319l76 4l45 -8l-8 -97l-29 -75l-123 -9z" />
<glyph unicode="&#x201d;" horiz-adv-x="745" d="M205 954l176 320l-74 -4l-45 8l8 96l27 76l123 8l49 -8l-6 -90l-31 -82l-223 -326zM502 954l176 320l-74 -4l-45 8l8 96l27 76l123 8l49 -8l-6 -90l-31 -82l-223 -326z" />
<glyph unicode="&#x201e;" horiz-adv-x="757" d="M31 -281l178 320l-76 -4l-45 8l8 96l29 76l123 8l49 -8l-8 -90l-31 -82l-221 -326zM328 -281l178 320l-76 -4l-45 8l8 96l29 76l123 8l49 -8l-8 -90l-31 -82l-221 -326z" />
<glyph unicode="&#x2022;" horiz-adv-x="489" d="M133 526l10 107l33 84l131 8l49 -8l-8 -101l-35 -90l-131 -8z" />
<glyph unicode="&#x2026;" horiz-adv-x="1505" d="M102 -2l9 96l24 80l127 8l47 -8l-8 -94l-22 -82l-127 -8zM588 -2l8 96l25 80l127 8l47 -8l-9 -94l-22 -82l-127 -8zM1073 -2l8 96l25 80l127 8l47 -8l-8 -94l-23 -82l-127 -8z" />
<glyph unicode="&#x202f;" horiz-adv-x="381" />
<glyph unicode="&#x2039;" horiz-adv-x="544" d="M72 481l452 451h11l-351 -451l191 -450h-13z" />
<glyph unicode="&#x203a;" horiz-adv-x="595" d="M72 31l350 450l-191 451h11l293 -451l-451 -450h-12z" />
<glyph unicode="&#x205f;" horiz-adv-x="476" />
<glyph unicode="&#x20ac;" horiz-adv-x="1177" d="M20 604l5 10h116q6 108 45 215h-127l4 11h127q131 351 592 551l183 79q155 -41 264 -114l-76 -115q-138 85 -336 158q-435 -219 -518 -559h700l-6 -11h-696q-16 -71 -16 -159v-56h546l-6 -10h-538q7 -123 40.5 -219.5t91.5 -163.5t132 -111.5t170 -72.5q120 54 350 184 l4 -6q-259 -147 -448 -252q-63 3 -128.5 27.5t-129.5 73.5t-114 115.5t-81 161.5t-31 204q0 39 2 59h-121z" />
<glyph unicode="&#x2122;" horiz-adv-x="1869" d="M184 1210v224h680v-224h-12l-90 207h-172v-753l108 -7v-12h-350v12l111 7v753h-174l-88 -207h-13zM905 645v12l96 7v751l-96 8v11h240l293 -668l270 668h234v-11l-99 -8v-751l99 -7v-12h-316v12l84 7v729l-303 -754h-66l-321 762v-737l92 -7v-12h-207z" />
<glyph unicode="&#x25fc;" horiz-adv-x="972" d="M0 0v973h973v-973h-973z" />
</font>
</defs>
</svg>
