<?xml version="1.0" standalone="no"?>
<!DOCTYPE svg PUBLIC "-//W3C//DTD SVG 1.1//EN" "http://www.w3.org/Graphics/SVG/1.1/DTD/svg11.dtd" >
<svg xmlns="http://www.w3.org/2000/svg" xmlns:xlink="http://www.w3.org/1999/xlink" version="1.1">
<metadata></metadata>
<defs>
<font id="gt_sectra_finebook" horiz-adv-x="1269" >
<font-face units-per-em="2048" ascent="1536" descent="-512" />
<missing-glyph horiz-adv-x="491" />
<glyph unicode="&#xfb01;" horiz-adv-x="1153" d="M53 891v24l29 33h131v23q0 98 21 161t73 121l178 201h486v-186h-31l-145 41h-359l-24 -37q-20 -37 -27.5 -87.5t-7.5 -156.5v-84h397l133 19l56 4v-914l149 -14l-6 -41l-223 4l-197 -4l-6 43l119 12v781l6 63l-70 -6h-358v-838l190 -12l-6 -43l-250 4l-237 -4l-4 41 l143 14v838h-160z" />
<glyph unicode="&#xfb02;" horiz-adv-x="1165" d="M53 891v24l29 33h131v23q0 98 21 161t73 121l178 201h289l137 4h62v-1405l149 -14l-4 -41l-221 4l-213 -4l-4 41l131 14v838h-434v-838l201 -12l-7 -43l-260 4l-235 -4l-6 41l143 14v838h-160zM377 944h434v385l-106 -20h-269l-24 -37q-20 -37 -27.5 -87.5t-7.5 -156.5 v-84z" />
<glyph unicode="&#xfb03;" horiz-adv-x="1748" d="M53 891v24l29 33h131v2q0 98 25 163t79 124l168 188h314l-125 -145h-240l-22 -37q-19 -37 -27 -85.5t-8 -149.5v-64h434v27q0 99 20 161.5t72 120.5l178 201h486v-186h-31l-145 41h-359l-26 -37q-18 -37 -25.5 -87.5t-7.5 -156.5v-84h395l135 19l56 4v-914l149 -14 l-6 -41l-219 4l-203 -4l-4 43l119 12v754l4 90l-82 -6h-344v-838l190 -12l-6 -43l-250 4l-237 -4l-4 41l145 14v838h-434v-838l201 -12l-7 -43l-262 4l-235 -4l-4 41l143 14v838h-160z" />
<glyph unicode="&#xfb04;" horiz-adv-x="1761" d="M53 891v24l29 33h131v2q0 98 25 163t79 124l168 188h314l-123 -145h-242l-22 -37q-19 -37 -27 -85.5t-8 -149.5v-64h434v27q0 99 20 161.5t72 120.5l178 201h260l162 4h66v-1405l149 -14l-6 -41l-219 4l-213 -4l-6 41l131 14v838h-432v-838l201 -12l-7 -43l-258 4 l-213 -4l-4 41l119 14v838h-434v-838l201 -12l-7 -43l-262 4l-235 -4l-4 41l143 14v838h-160zM973 944h432v385l-119 -20h-254l-26 -37q-18 -37 -25.5 -87.5t-7.5 -156.5v-84z" />
<glyph horiz-adv-x="0" />
<glyph horiz-adv-x="0" />
<glyph horiz-adv-x="682" />
<glyph unicode="&#xd;" horiz-adv-x="655" />
<glyph unicode=" "  horiz-adv-x="491" />
<glyph unicode="&#x09;" horiz-adv-x="491" />
<glyph unicode="&#xa0;" horiz-adv-x="491" />
<glyph unicode="!" horiz-adv-x="532" d="M166 100l12 82l129 8l51 -8l9 -98l-13 -84l-127 -10l-51 10zM176 1454h178l-10 -610l-59 -402h-39l-60 400z" />
<glyph unicode="&#x22;" horiz-adv-x="720" d="M102 1360l15 88l135 8l57 -8l10 -102l-14 -93l-149 -305l-39 15q98 259 98 284l-102 6zM414 1360l14 88l137 8l56 -8l8 -102l-13 -93l-149 -305l-41 15q18 41 59 153.5t41 130.5l-102 6z" />
<glyph unicode="#" horiz-adv-x="1265" d="M82 412l8 69h281l45 379h-279l10 68h277l51 413h72l-51 -413h335l52 413h71l-51 -413h281l-10 -68h-279l-45 -379h278l-8 -69h-280l-49 -412h-72l49 412h-336l-49 -412h-72l49 412h-278zM442 481h336l45 379h-336z" />
<glyph unicode="$" horiz-adv-x="1112" d="M92 387h76l80 -197q55 -64 137 -104t174 -41v610l-178 90q-57 27 -98 54.5t-77.5 66t-55.5 89.5t-19 114q0 150 115.5 249t312.5 142v139h62v-131q191 -9 342 -102v-291h-54l-80 217q-94 90 -208 103v-555l118 -58q64 -33 110.5 -66t86.5 -77t61 -101t21 -126 q0 -63 -20 -121t-64 -114.5t-123.5 -105t-189.5 -81.5v-154h-62v137l-31 -8q-131 0 -227.5 32.5t-185.5 96.5zM295 1155q0 -87 54 -147.5t157 -110.5l53 -27v529q-121 -3 -192.5 -69.5t-71.5 -174.5zM621 47q110 15 173.5 89t63.5 183q0 102 -58 174t-175 130l-4 2v-578z " />
<glyph unicode="%" horiz-adv-x="1628" d="M92 1079q0 156 84.5 245.5t274.5 121.5q142 0 224.5 -96t82.5 -250q0 -155 -85.5 -246.5t-273.5 -118.5q-143 0 -225 95t-82 249zM238 1108q0 -149 49 -238.5t151 -89.5q88 0 131 80.5t43 210.5q0 148 -49 239t-151 91q-86 0 -130 -82.5t-44 -210.5zM289 -10l1011 1454 h89l-1012 -1454h-88zM870 334q0 156 84.5 245t274.5 121q143 0 225 -97t82 -251t-84.5 -245t-273.5 -119q-142 0 -225 96t-83 250zM1016 362q0 -150 49.5 -239.5t151.5 -89.5q88 0 131 81.5t43 211.5q0 147 -49 237t-150 90q-88 0 -132 -81.5t-44 -209.5z" />
<glyph unicode="&#x26;" horiz-adv-x="1415" d="M94 322q0 66 19.5 124.5t46.5 99t71 81t77.5 64.5t80.5 56q16 10 23 15q-110 122 -159.5 201t-49.5 159q0 125 92 206t293 142q155 0 248.5 -82t93.5 -196q0 -55 -22 -104t-68 -95.5t-99.5 -86.5t-134.5 -91l340 -393l207 276l-115 17l6 37l158 -2l168 2l4 -37l-135 -17 l-250 -321l281 -320l112 -16l-4 -41l-166 2l-135 -2l-203 231q-153 -167 -339 -266q-186 0 -314 99.5t-127 257.5zM262 401q0 -119 83 -204.5t204 -85.5q139 0 282 168l-382 444q-97 -64 -142 -142t-45 -180zM375 1192q0 -36 15 -76t50 -90.5t58.5 -81t72.5 -90.5 q102 78 139.5 153t37.5 175q0 98 -52 159.5t-137 61.5q-83 0 -133.5 -56.5t-50.5 -154.5z" />
<glyph unicode="'" horiz-adv-x="401" d="M102 1358l15 88l135 8l57 -8l10 -103l-14 -92l-149 -305l-39 17q22 55 60 160t38 122l-102 6z" />
<glyph unicode="(" horiz-adv-x="561" d="M94 506q0 157 20.5 279.5t71 238t124 220.5t190.5 237l28 -27q-160 -191 -227.5 -417t-67.5 -529q0 -612 295 -965l-28 -26q-119 144 -190.5 249.5t-123.5 222.5t-72 238t-20 279z" />
<glyph unicode=")" horiz-adv-x="561" d="M33 -457q295 350 295 965q0 304 -67 530t-228 416l28 27q156 -178 240 -315t125 -294.5t41 -365.5q0 -158 -20 -279t-72 -238t-123.5 -222.5t-190.5 -249.5z" />
<glyph unicode="*" horiz-adv-x="817" d="M92 1182l43 137l248 -131l-45 276h141l-45 -276l246 129l45 -135l-279 -39l201 -197l-115 -84l-124 248l-121 -248l-117 84l205 197z" />
<glyph unicode="+" d="M106 477v86h486v492h86v-492h485v-86h-485v-477h-86v477h-486z" />
<glyph unicode="," horiz-adv-x="438" d="M156 109l12 88l135 10l59 -10l9 -105l-13 -92l-151 -289l-39 17q2 6 20 51.5t33.5 85t29 79t13.5 48.5l-98 8z" />
<glyph unicode="-" horiz-adv-x="788" d="M82 518v90h625v-90h-625z" />
<glyph unicode="." horiz-adv-x="444" d="M143 109l15 88l137 10l55 -10l10 -105l-14 -92l-139 -10l-53 10z" />
<glyph unicode="/" horiz-adv-x="970" d="M-20 -471l927 1941h84l-923 -1941h-88z" />
<glyph unicode="0" horiz-adv-x="1165" d="M82 457q0 212 129 340.5t393 187.5q209 0 344 -138t135 -349q0 -213 -130 -344t-392 -185q-209 0 -344 138.5t-135 349.5zM272 506q0 -97 19 -179t58.5 -147.5t105.5 -102t153 -36.5q91 0 157.5 58.5t97 149t30.5 200.5q0 97 -19 178.5t-58.5 146t-105.5 101t-153 36.5 q-92 0 -158.5 -58.5t-96.5 -148.5t-30 -198z" />
<glyph unicode="1" horiz-adv-x="888" d="M61 782l447 189h39v-908l305 -24l-4 -41l-387 4l-391 -4l-4 41l311 24v738l6 39l-82 -35l-219 -64z" />
<glyph unicode="2" horiz-adv-x="980" d="M41 51l283 215q177 134 250 237.5t73 196.5q0 102 -50.5 155.5t-143.5 53.5q-57 0 -134 -37l-65 -231h-141v195l376 157q167 0 255.5 -73t86.5 -187q0 -135 -97 -245t-300 -232l-201 -117l156 23h531v-33l-52 -129h-802z" />
<glyph unicode="3" horiz-adv-x="946" d="M55 -307h443q174 107 174 287q0 122 -105 203t-295 81l-12 37l100 47q144 64 200 143t56 189q0 101 -55.5 163t-136.5 62q-78 0 -150 -39l-73 -231h-138v207l416 151q81 0 144 -23.5t99 -62t54.5 -83.5t18.5 -93q0 -237 -316 -373q164 -7 268.5 -93.5t104.5 -209.5 q0 -65 -19 -120t-50.5 -97t-82 -81t-102 -68t-123.5 -62l-209 -98h-211v164z" />
<glyph unicode="4" horiz-adv-x="1112" d="M20 53l646 905h202v-38l-743 -852l76 12h430v301l119 84l49 14v-399h288v-70h-288v-483h-168v483h-568z" />
<glyph unicode="5" horiz-adv-x="962" d="M90 -305h391q232 128 232 360q0 115 -67.5 192t-196.5 77q-60 0 -107 -12t-117 -46l-78 -37l-32 19l78 715h688l-4 -60l-27 -100h-608l-56 -496l310 164q91 0 163 -23.5t115 -59t71.5 -82.5t39 -90t10.5 -85q0 -82 -24 -150.5t-60 -117t-96.5 -94t-114.5 -75t-133 -65.5 l-209 -100h-168v166z" />
<glyph unicode="6" horiz-adv-x="1097" d="M98 545q0 149 40.5 284t125 258t227 223.5t334.5 166.5l19 -47q-133 -55 -231 -122t-158.5 -136.5t-97.5 -156t-52 -169t-18 -187.5l336 259q97 0 171.5 -36.5t118.5 -98.5t66 -136t22 -155q0 -197 -120 -332t-359 -191q-133 0 -231 80t-145.5 208.5t-47.5 287.5z M287 598q2 -113 18.5 -209t48.5 -175.5t86 -125t125 -45.5q123 0 191.5 102.5t68.5 286.5q0 167 -64.5 259.5t-160.5 92.5q-52 0 -102.5 -29t-135.5 -96z" />
<glyph unicode="7" horiz-adv-x="980" d="M41 801v162h877l22 -25l-578 -1407h-153v31l582 1202l38 37h-788z" />
<glyph unicode="8" horiz-adv-x="1095" d="M102 332q0 121 86 223.5t232 173.5q-144 102 -210.5 190.5t-66.5 186.5q0 130 105 217.5t317 140.5q190 0 296 -77.5t106 -212.5q0 -219 -305 -390q91 -64 146.5 -109t100.5 -95.5t64.5 -99.5t19.5 -107q0 -159 -116.5 -256.5t-354.5 -147.5q-179 0 -299.5 100.5 t-120.5 262.5zM279 381q0 -144 83 -243t197 -99q48 0 92.5 15t82.5 44.5t60.5 79.5t22.5 113q0 44 -15.5 85t-38.5 73.5t-67 71.5t-81.5 68t-102.5 76q-33 24 -51 37q-97 -68 -139.5 -141t-42.5 -180zM322 1186q0 -94 73.5 -178t227.5 -195q92 70 128.5 144.5t36.5 170.5 q0 116 -65.5 192.5t-185.5 76.5q-96 0 -155.5 -57t-59.5 -154z" />
<glyph unicode="9" horiz-adv-x="1089" d="M72 473q0 401 479 520q134 0 231.5 -79.5t145 -209t47.5 -290.5q0 -115 -25.5 -222.5t-81 -210.5t-139 -191t-204.5 -163t-271 -127l-18 47q129 55 226.5 124.5t156.5 140.5t96.5 156t52.5 162.5t18 168.5l-331 -252q-96 0 -171.5 37.5t-120.5 99.5t-68 135.5t-23 153.5z M248 528q0 -158 66.5 -251t160.5 -93q56 0 94.5 20.5t132.5 92.5l84 68q-2 116 -18 213t-48 175.5t-86.5 122.5t-125.5 44q-122 0 -191 -102t-69 -290z" />
<glyph unicode=":" horiz-adv-x="473" d="M154 109l14 88l137 10l55 -10l11 -105l-15 -92l-139 -10l-53 10zM154 887l14 90l137 8l55 -8l11 -105l-15 -92l-139 -10l-53 10z" />
<glyph unicode=";" horiz-adv-x="514" d="M154 109l12 88l137 10l57 -10l11 -105l-15 -92l-149 -289l-41 17q1 4 29.5 73.5t48.5 124t20 66.5l-100 8zM154 887l14 90l137 8l55 -8l11 -105l-15 -92l-139 -10l-53 10z" />
<glyph unicode="&#x3c;" d="M102 549v76l1065 481v-102l-942 -416l942 -416v-102z" />
<glyph unicode="=" d="M106 262v86h1057v-86h-1057zM106 657v84h1057v-84h-1057z" />
<glyph unicode="&#x3e;" d="M102 70v102l942 416l-942 416v102l1065 -481v-76z" />
<glyph unicode="?" horiz-adv-x="819" d="M127 1184v239l178 25q106 -6 187.5 -38t128.5 -80t70.5 -103.5t23.5 -116.5q0 -128 -59 -210.5t-181 -145.5l-115 -56l-10 -262h-71l-27 279l80 53q106 71 156.5 154.5t50.5 191.5q0 121 -55.5 197t-176.5 80l-59 -207h-121zM221 94l12 82l129 8l52 -8l8 -98l-12 -84 l-127 -10l-52 10z" />
<glyph unicode="@" horiz-adv-x="1859" d="M102 528q0 291 190.5 519t504.5 329l190 58q186 0 335 -46.5t245.5 -128.5t148 -193t51.5 -241q0 -128 -52 -247t-137 -204.5t-197 -138t-228 -53.5l-115 131l70 234q-182 -228 -303 -369q-110 5 -190 90.5t-80 218.5q0 167 96 302t258 210l221 101l219 -133l-164 -740 q74 0 153.5 41t147 112t111 181.5t43.5 235.5q0 262 -156 413.5t-424 151.5q-115 0 -227.5 -33t-212 -100t-175.5 -159.5t-120.5 -220.5t-44.5 -274q0 -138 39.5 -255t108 -200.5t162 -142t202.5 -86.5t227 -28q177 0 381 112l19 -32q-113 -63 -252 -112.5t-238 -63.5 q-178 0 -329 57t-256 157.5t-163.5 241.5t-58.5 305zM692 551q0 -94 45.5 -153.5t128.5 -69.5l232 256l73 311l-174 115q-88 -41 -151 -100t-94.5 -123.5t-45.5 -122t-14 -113.5z" />
<glyph unicode="A" horiz-adv-x="1476" d="M16 39l164 18l504 1352l98 45l518 -1397l160 -18l-4 -41l-262 4l-272 -4l-4 41l178 20l-156 445h-516l-156 -445l181 -20l-5 -41l-219 4l-202 -4zM444 563h474l-162 453l-68 239z" />
<glyph unicode="B" horiz-adv-x="1290" d="M61 39l183 20v1317l-183 19l5 41l309 -4l346 4q190 0 294.5 -91t104.5 -221q0 -136 -108.5 -236.5t-259.5 -121.5q111 -2 198 -30.5t142 -76.5t83.5 -109.5t28.5 -133.5q0 -369 -545 -418l-299 4l-294 -4zM428 59l199 -10q104 0 181 30t119.5 82t62.5 113t20 132 q0 149 -93 234t-249 85h-240v-666zM428 784h199q137 0 219 94.5t82 235.5q0 123 -71.5 196t-197.5 74l-231 -10v-590z" />
<glyph unicode="C" horiz-adv-x="1406" d="M84 698q0 171 54 309.5t153 233t234 152t300 75.5q140 0 265 -40t217 -97v-289h-60l-92 230q-135 135 -344 135q-231 0 -375.5 -175t-144.5 -497q0 -107 21.5 -207.5t67.5 -190t111 -157t158.5 -106.5t204.5 -39q85 0 161 35.5t126 83.5l116 258h62l-29 -297 q-259 -121 -489 -150q-141 0 -269.5 48.5t-228.5 139t-159.5 231.5t-59.5 314z" />
<glyph unicode="D" horiz-adv-x="1486" d="M61 39l191 20v1317l-191 19l5 41l303 -4l356 4q316 0 498 -180t182 -506q0 -332 -177 -530t-515 -222l-344 4l-303 -4zM436 68l269 -17q222 2 358.5 187.5t136.5 494.5q0 142 -32 259t-96.5 205.5t-169 138t-240.5 50.5l-226 -12v-1306z" />
<glyph unicode="E" horiz-adv-x="1255" d="M61 39l183 20v1317l-183 19l5 41l282 -4l805 4l8 -365h-37l-123 305l-573 2v-602l326 4l84 228h39l-11 -250l11 -262h-39l-84 225l-326 4v-670l592 4l135 314h41l-37 -375l-811 4l-282 -4z" />
<glyph unicode="F" horiz-adv-x="1191" d="M61 39l183 20v1317l-183 19l5 41l284 -4l801 4l10 -369h-37l-125 309l-571 2v-628l326 4l84 239h39l-11 -264l11 -276h-39l-84 241l-326 4v-639l213 -20l-4 -41l-291 4l-280 -4z" />
<glyph unicode="G" horiz-adv-x="1497" d="M84 700q0 335 197 532t540 236q144 0 276 -42.5t206 -94.5v-289h-54l-92 226q-139 139 -352 139q-236 0 -375 -185t-139 -495q0 -135 36.5 -259t103 -222t170 -156.5t228.5 -58.5q94 0 174 38.5t125 88.5v436l-176 22l4 39l254 -4l230 4l4 -39l-131 -22v-483 q-112 -48 -257 -91.5t-268 -54.5q-114 0 -218.5 30t-193 91.5t-153.5 148t-102 206t-37 259.5z" />
<glyph unicode="H" horiz-adv-x="1533" d="M61 39l183 20v1317l-183 19l5 41l270 -4l264 4l6 -41l-178 -19v-602h684v602l-184 19l6 41l272 -4l262 4l7 -41l-179 -19v-1317l179 -20l-7 -41l-262 4l-272 -4l-6 41l184 20v656h-684v-656l178 -20l-6 -41l-264 4l-270 -4z" />
<glyph unicode="I" horiz-adv-x="671" d="M61 41l183 18v1317l-183 19l5 41l270 -4l270 4l4 -41l-182 -19v-1317l182 -18l-4 -43l-270 4l-270 -4z" />
<glyph unicode="J" horiz-adv-x="671" d="M0 -193h223l13 43q13 39 17.5 107t4.5 231v1188l-217 19l6 41l303 -4l266 4l5 -41l-177 -19v-1186q0 -122 -22 -195.5t-76 -135.5l-190 -217h-156v165z" />
<glyph unicode="K" horiz-adv-x="1411" d="M61 39l183 20v1317l-183 19l5 41l270 -4l252 4l4 -41l-164 -19v-622l49 37l619 585l-168 19l6 41l209 -4l186 4l6 -41l-164 -23l-636 -610l90 6l643 -713l121 -16l-5 -41l-206 4l-121 -4l-598 682l-31 47v-668l164 -20l-4 -41l-252 4l-270 -4z" />
<glyph unicode="L" horiz-adv-x="1167" d="M61 39l183 20v1317l-183 19l5 41l274 -4l266 4l4 -41l-182 -19v-1319l537 4l133 316h45l-35 -379l-764 4l-278 -4z" />
<glyph unicode="M" horiz-adv-x="1869" d="M61 1395l5 41l200 -4l191 4l456 -1135l29 -94l483 1229l191 -4l188 4l6 -41l-178 -19v-1317l172 -20l-6 -41l-252 4l-266 -4l-6 41l172 20v1059l12 203l-522 -1327h-100l-451 1132l-72 201v-1268l174 -20l-10 -41l-194 4l-211 -4l-4 41l170 20v1313z" />
<glyph unicode="N" horiz-adv-x="1470" d="M61 39l183 20v1307l-178 29l6 41l194 -4l164 4l717 -1088l45 -88v1116l-178 19l4 41l203 -4l223 4l6 -41l-184 -19v-1384h-103l-796 1222l-48 113v-1268l181 -20l-6 -41l-203 4l-225 -4z" />
<glyph unicode="O" horiz-adv-x="1564" d="M84 688q0 670 719 780q196 0 352 -95t242 -260t86 -368q0 -670 -721 -780q-196 0 -351.5 95t-241 260t-85.5 368zM291 752q0 -111 21 -214.5t65 -194t105.5 -158.5t148 -107t188.5 -39q147 0 252 87t155 230.5t50 327.5q0 137 -34.5 263t-98.5 227t-166.5 161t-228.5 60 q-147 0 -252 -86.5t-155 -229.5t-50 -327z" />
<glyph unicode="P" horiz-adv-x="1183" d="M61 39l183 20v1317l-183 19l5 41l270 -4l377 4q195 0 319.5 -95.5t124.5 -269.5q0 -331 -493 -436h-236v-576l217 -20l-4 -41l-303 4l-272 -4zM428 694h184q152 0 247 100t95 255q0 72 -17.5 131.5t-53.5 106.5t-97.5 73t-144.5 26l-213 -12v-680z" />
<glyph unicode="Q" horiz-adv-x="1564" d="M84 688q0 670 719 780q196 0 352 -95t242 -260t86 -368q0 -640 -656 -768l230 -69l246 -193l102 -22l-4 -39h-293l-344 311h-2q-196 0 -351.5 95t-241 260t-85.5 368zM291 752q0 -111 21 -214.5t65 -194t105.5 -158.5t148 -107t188.5 -39q147 0 252 87t155 230.5 t50 327.5q0 137 -34.5 263t-98.5 227t-166.5 161t-228.5 60q-147 0 -252 -86.5t-155 -229.5t-50 -327z" />
<glyph unicode="R" horiz-adv-x="1349" d="M61 39l183 20v1317l-183 19l5 41l270 -4l360 4q94 0 173.5 -20t144 -61t101 -111.5t36.5 -164.5q0 -71 -26.5 -131.5t-70 -103t-106.5 -76t-128.5 -54.5t-143.5 -36l178 -66l375 -555l110 -20l-4 -39l-166 4l-129 -4l-424 641l-24 33h-164v-613l170 -20l-4 -41l-258 4 l-270 -4zM428 725h137q179 0 280 93.5t101 246.5t-86 235.5t-223 85.5l-209 -12v-649z" />
<glyph unicode="S" horiz-adv-x="1107" d="M88 387h76l80 -197q57 -65 140.5 -105t176.5 -40q135 0 214 75.5t79 198.5q0 102 -58 174t-175 130l-244 122q-57 27 -98 54.5t-77.5 66t-55.5 89.5t-19 114q0 157 125 258t336 141q209 0 370 -102v-291h-53l-80 217q-107 107 -260 107q-125 0 -199.5 -66.5t-74.5 -177.5 q0 -87 54 -147.5t157 -110.5l233 -115q64 -33 110.5 -66t86.5 -77t61 -101t21 -126q0 -55 -14 -105.5t-49.5 -102.5t-90 -95t-140.5 -81t-196 -63q-131 0 -227.5 32.5t-185.5 96.5z" />
<glyph unicode="T" horiz-adv-x="1196" d="M27 1063v373l569 -4l573 4v-373h-43l-114 313h-322v-1317l213 -20l-4 -41l-301 4l-307 -4l-4 41l219 20v1317h-322l-114 -313h-43z" />
<glyph unicode="U" horiz-adv-x="1413" d="M27 1395l4 41l276 -4l264 4l7 -41l-179 -19v-901q0 -195 94 -309.5t275 -114.5q161 0 253.5 116.5t92.5 311.5v897l-180 19l4 41l227 -4l217 4l7 -41l-177 -19v-880q0 -82 -13.5 -148.5t-47 -128.5t-88 -109t-140 -84.5t-200.5 -60.5q-514 0 -514 541v870z" />
<glyph unicode="V" horiz-adv-x="1472" d="M10 1395l6 41l258 -4l281 4l4 -39l-176 -21l387 -1087l25 -96l419 1183l-182 21l4 39l226 -4l194 4l6 -41l-166 -17l-499 -1362l-92 -43l-535 1405z" />
<glyph unicode="W" horiz-adv-x="2007" d="M23 1395l4 41l225 -4l264 4l4 -41l-176 -19l328 -1052l20 -109l271 883l-95 280l-133 17l4 41l236 -4l264 4l4 -41l-176 -19l328 -1057l20 -102l361 1161l-183 17l6 41l224 -4l157 4l7 -41l-127 -17l-437 -1362l-98 -34l-303 921l-14 96l-308 -983l-98 -34l-457 1396z " />
<glyph unicode="X" horiz-adv-x="1433" d="M20 41l187 16l430 621l-449 700l-155 19l6 39l283 -4l264 4l4 -39l-170 -21l297 -487l35 -72l370 559l-207 19l5 41l245 -4l230 4l4 -41l-185 -17l-421 -610l460 -711l150 -16l-6 -43l-273 4l-272 -4l-4 43l174 18l-303 490l-41 78l-381 -568l203 -18l-6 -43l-234 4 l-233 -4z" />
<glyph unicode="Y" horiz-adv-x="1425" d="M10 1397l6 39l275 -4l268 4l6 -39l-184 -21l373 -661l26 -68l385 729l-194 21l4 39l237 -4l197 4l6 -39l-160 -17l-440 -807l2 -514l232 -20l-5 -41l-319 4l-328 -4l-4 41l240 20v502l-463 817z" />
<glyph unicode="Z" horiz-adv-x="1155" d="M41 57l790 1248l62 75l-614 -6l-127 -309h-50v369h977l11 -52l-795 -1253l-57 -74l659 4l150 324h51l-35 -383h-1012z" />
<glyph unicode="[" horiz-adv-x="655" d="M178 -473v1937l162 -2l244 2v-39l-275 -16l-4 -791l4 -1034l275 -16v-41l-240 4z" />
<glyph unicode="\" horiz-adv-x="882" d="M-66 1470h86l928 -1941h-88z" />
<glyph unicode="]" horiz-adv-x="655" d="M74 -432l274 16q6 1008 6 1010l-6 815l-274 16v39l250 -2l153 2v-1937l-149 4l-254 -4v41z" />
<glyph unicode="^" horiz-adv-x="765" d="M102 942l254 502h56l252 -502h-95l-184 404l-186 -404h-97z" />
<glyph unicode="_" horiz-adv-x="1157" d="M10 -156h1137v-73h-1137v73z" />
<glyph unicode="`" horiz-adv-x="1024" d="M291 1462h190l113 -352h-41z" />
<glyph unicode="a" horiz-adv-x="923" d="M61 219q0 106 89 195l450 149v111q0 46 -1.5 71t-10 57t-25 48t-47.5 27.5t-76 11.5q-60 0 -155 -31l-43 -184h-150v145l361 166q78 0 131 -10.5t89 -32t55.5 -61t27.5 -90t8 -125.5v-424q0 -83 37 -170l108 8l4 -39l-256 -51l-49 168l-266 -189q-128 0 -204.5 66.5 t-76.5 183.5zM231 248q0 -75 39 -116.5t97 -41.5q64 0 153 62l80 55v309l-301 -121q-68 -59 -68 -147z" />
<glyph unicode="b" horiz-adv-x="1087" d="M20 1393l259 65l55 4v-674l282 197q165 0 276.5 -123t111.5 -330q0 -134 -37 -236t-106 -167t-155.5 -103t-197.5 -57q-84 0 -151.5 14t-100.5 28.5t-86 43.5v1311l-141 -14zM334 127q68 -92 213 -92q123 0 202.5 119.5t79.5 316.5q0 173 -61.5 278t-173.5 105 q-83 0 -201 -82l-59 -43v-602z" />
<glyph unicode="c" horiz-adv-x="894" d="M80 449q0 118 39.5 214t108 159.5t150.5 103.5t177 59q60 0 141.5 -32t128.5 -72v-181h-127l-67 189q-48 26 -109 26q-122 0 -201 -104.5t-79 -288.5q0 -182 92.5 -301t243.5 -119q116 0 249 95l17 -41q-138 -114 -320 -187q-196 0 -320 127t-124 353z" />
<glyph unicode="d" horiz-adv-x="1120" d="M72 436q0 227 124.5 369.5t356.5 179.5q87 0 188 -55v438l-141 -14l-8 39l262 65l51 4v-1214q0 -93 37 -168l131 8l6 -41l-274 -57l-53 174l-281 -195q-177 0 -288 133.5t-111 333.5zM248 502q0 -176 66 -289t171 -113q46 0 90 19t109 67l57 45v600q-70 91 -200 91 q-138 -1 -215.5 -113.5t-77.5 -306.5z" />
<glyph unicode="e" horiz-adv-x="948" d="M74 453q0 94 23 173.5t63.5 137.5t97.5 103t121.5 73.5t140.5 44.5q181 0 264.5 -101.5t83.5 -275.5v-65h-635q0 -203 99 -321t268 -118q115 0 258 91l19 -43q-147 -111 -342 -183q-91 0 -173 31.5t-146.5 91t-103 153t-38.5 208.5zM236 590l448 10q0 75 -8.5 127.5 t-30.5 97t-64.5 66.5t-105.5 22q-105 0 -166.5 -87.5t-72.5 -235.5z" />
<glyph unicode="f" horiz-adv-x="665" d="M53 891v24l29 33h131v23q0 98 21 161t73 121l178 201h234v-145h-285l-24 -41q-18 -35 -25.5 -87.5t-7.5 -158.5v-78h254v-53h-254v-836l233 -12l-4 -45l-299 4l-233 -4l-4 41l143 16v836h-160z" />
<glyph unicode="g" horiz-adv-x="1011" d="M41 -188l225 178q-98 31 -131 79t-33 124v16l201 145q-94 33 -150.5 104t-56.5 163q0 130 92 219.5t291 142.5q98 0 181.5 -38t125.5 -103l115 141h100v-162h-141l-47 -26q23 -51 23 -103q0 -263 -383 -362q-55 0 -99 12l-106 -115q0 -51 27.5 -77.5t74.5 -26.5h367 q120 0 180.5 -54.5t60.5 -142.5q0 -127 -137.5 -242.5t-363.5 -183.5q-212 0 -314 68.5t-102 210.5v33zM199 -221q0 -83 72 -135q71 -52 180 -52h4q147 0 251.5 78.5t104.5 186.5q0 61 -44.5 90.5t-145.5 29.5h-312q-67 -66 -88.5 -111t-21.5 -87zM266 678q0 -47 10 -92 t33 -90t68.5 -73t107.5 -28q85 0 133 61t48 167q0 38 -5.5 76t-21.5 79t-39.5 71.5t-63.5 50.5t-90 20q-86 0 -133 -64t-47 -178z" />
<glyph unicode="h" horiz-adv-x="1169" d="M63 1393l256 65l56 4v-690l336 213q156 0 215 -80q49 -67 49 -243v-607l160 -16l-7 -41l-233 4l-184 -4l-4 41l104 16v627q0 92 -34 132t-103 40q-34 0 -73.5 -14t-68.5 -30.5t-81 -49.5l-76 -43v-662l112 -16l-6 -41l-182 4l-225 -4l-6 41l143 16v1313l-141 -14z" />
<glyph unicode="i" horiz-adv-x="567" d="M61 891l261 72l55 4v-912l149 -16l-4 -41l-223 4l-223 -4l-4 41l141 16v819l-145 -24zM193 1327l18 86l129 10l51 -10l10 -100l-18 -90l-129 -11l-49 11z" />
<glyph unicode="j" horiz-adv-x="524" d="M-39 -324h209l14 37q31 90 31 213v948l-145 -24l-9 41l263 72l55 4v-1006q0 -71 -18 -119.5t-66 -107.5l-180 -217h-154v159zM193 1327l18 86l129 10l51 -10l10 -100l-18 -90l-129 -11l-49 11z" />
<glyph unicode="k" horiz-adv-x="1079" d="M61 1393l258 65l56 4v-919l55 35l375 321l-94 16v39l157 -2l152 2l6 -39l-123 -16l-432 -354h84l422 -492l92 -14l-4 -41l-162 4l-117 -4l-385 475l-26 43v-461l127 -16l-4 -41l-199 4l-227 -4l-4 41l143 16v1311l-141 -14z" />
<glyph unicode="l" horiz-adv-x="555" d="M63 1393l256 65l56 4v-1407l149 -16l-6 -41l-223 4l-221 -4l-6 41l143 16v1311l-141 -14z" />
<glyph unicode="m" horiz-adv-x="1728" d="M61 891l263 72l47 4l4 -197l319 215q122 0 185 -51q65 -53 71 -166l322 217q158 -6 213 -78q49 -68 49 -243v-609l160 -16l-4 -41l-236 4l-184 -4l-6 41l106 16v627q0 92 -32.5 132t-96.5 40q-80 0 -213 -92l-72 -49v-658l101 -16l-6 -41l-172 4l-183 -4l-4 41l101 16 v627q0 92 -32.5 132t-98.5 40q-78 0 -211 -92l-74 -49v-658l106 -16l-4 -41l-180 4l-223 -4l-6 41l143 16v819l-145 -22z" />
<glyph unicode="n" horiz-adv-x="1171" d="M61 891l261 72l47 4l6 -199l336 217q156 -3 209 -67q55 -63 55 -234v-629l162 -16l-7 -41l-233 4l-186 -4l-4 41l104 16v627q0 93 -34 132.5t-105 39.5q-36 0 -75.5 -14.5t-66 -30t-79.5 -49.5l-74 -45v-660l112 -16l-6 -41l-184 4l-223 -4l-6 41l143 16v819l-145 -24z " />
<glyph unicode="o" horiz-adv-x="1077" d="M74 455q0 437 487 530q197 0 321 -138.5t124 -348.5q0 -222 -126 -354.5t-362 -174.5q-130 0 -232 64.5t-157 175t-55 246.5zM248 496q0 -123 39 -227.5t112.5 -168t167.5 -63.5q126 0 195 117t69 303q0 204 -89.5 331t-229.5 127q-128 0 -196 -115.5t-68 -303.5z" />
<glyph unicode="p" horiz-adv-x="1089" d="M31 891l260 72l47 4l6 -183l279 201q184 0 289.5 -127.5t105.5 -335.5q0 -232 -124.5 -370.5t-356.5 -182.5q-115 0 -191 56v-441l215 -16l-4 -41l-289 4l-225 -4l-4 41l143 16v1293l-145 -25zM346 147q33 -52 91 -82t128 -30q125 2 201 116t76 304q0 176 -64 289.5 t-174 113.5q-47 0 -89 -21t-114 -71l-55 -39v-580z" />
<glyph unicode="q" horiz-adv-x="1062" d="M72 434q0 229 138 374.5t368 176.5q119 0 251 -80l58 70h20v-1391l146 -16l-6 -41l-228 4l-284 -4l-7 41l215 16v568l-268 -183q-176 0 -289.5 126.5t-113.5 338.5zM248 500q0 -176 68 -289t184 -113q32 0 61 8.5t45.5 17t44.5 26.5l92 63v578q-54 131 -198 131 q-131 0 -214 -111t-83 -311z" />
<glyph unicode="r" horiz-adv-x="765" d="M61 891l263 72l45 4v-285l223 293h141v-182h-178q-17 -3 -64 -45.5t-73 -73.5l-45 -60v-555l202 -16l-6 -45l-276 4l-217 -4l-4 41l141 16v819l-145 -22z" />
<glyph unicode="s" horiz-adv-x="808" d="M61 297h72l90 -193q85 -67 183 -67q86 0 131 46t45 114q0 69 -35 107t-129 93l-162 92q-74 43 -119 96t-45 134q0 98 84.5 161t249.5 105q151 0 287 -86v-221h-62l-73 184q-68 58 -175 58q-68 0 -113.5 -36.5t-45.5 -99.5q0 -55 35.5 -91t115.5 -83l162 -90 q101 -56 141 -114q39 -55 39 -134v-8q0 -115 -89.5 -185t-262.5 -110q-82 0 -165.5 29.5t-137.5 64.5z" />
<glyph unicode="t" horiz-adv-x="681" d="M10 889v26l35 33h150v148l139 110h18v-266h310v-51h-308v-662q0 -61 28.5 -96t88.5 -35q77 0 174 51l21 -38l-248 -140q-45 0 -80 6.5t-59 16.5t-41 28.5t-26 37t-14 48t-6.5 55t-1.5 64.5v664h-180z" />
<glyph unicode="u" horiz-adv-x="1122" d="M20 907l265 51l53 5v-695q0 -91 34.5 -131.5t104.5 -40.5q48 0 96.5 23t120.5 71l72 43v644l-135 -15l-4 45l252 51l51 5v-701q0 -103 26 -186l111 6l4 -39l-256 -51l-45 180l-326 -203q-167 3 -223 76q-27 36 -37 92t-10 146v594l-147 -15z" />
<glyph unicode="v" horiz-adv-x="1089" d="M10 915l6 39l217 -2l209 2l7 -39l-132 -16l246 -676l29 -119l272 795l-123 16l7 39l174 -2l153 2l4 -39l-129 -16l-325 -864l-133 -68l-357 932z" />
<glyph unicode="w" horiz-adv-x="1683" d="M10 915l6 39l211 -2l197 2l6 -39l-119 -16l230 -682l28 -108l230 667l-43 123l-101 16l7 39l186 -2l196 2l5 -39l-119 -16l233 -688l25 -102l272 790l-123 16l6 39l152 -2l172 2l6 -39l-129 -16l-315 -864l-146 -66l-221 623l-20 110l-234 -667l-143 -66l-330 930z" />
<glyph unicode="x" horiz-adv-x="1077" d="M23 39l153 16l303 394l-305 448l-121 16l6 41l228 -2l168 2l4 -41l-74 -16l176 -274l27 -52l223 326l-143 16l4 41l176 -2l194 2l5 -41l-156 -16l-268 -358l319 -484l125 -16l-6 -41l-219 4l-180 -4l-7 41l80 16l-196 301l-25 50l-252 -351l137 -16l-6 -41l-174 4 l-192 -4z" />
<glyph unicode="y" horiz-adv-x="1083" d="M10 915l6 39l217 -2l209 2l7 -39l-132 -16l244 -676l25 -110l272 786l-121 16l6 39l170 -2l156 2l4 -39l-131 -16l-315 -848l-236 -532h-213v176h182l207 356l-96 -43l-336 891z" />
<glyph unicode="z" horiz-adv-x="929" d="M74 37l542 792l70 78l-407 -4l-103 -233h-45v284h725l14 -39l-546 -800l-60 -68l436 4l123 238h47l-28 -289h-756z" />
<glyph unicode="{" horiz-adv-x="698" d="M104 510v14q39 14 65.5 35.5t40 43.5t20.5 56.5t8.5 59t1.5 67.5v392q0 130 74.5 208t195.5 78h98v-39h-104q-62 0 -102.5 -52t-39.5 -167l7 -415q4 -177 -162 -256l162 -103l-7 -645q-1 -115 42.5 -167t107.5 -52h102v-39h-96q-125 0 -201.5 78.5t-76.5 208.5v585z" />
<glyph unicode="|" horiz-adv-x="530" d="M225 -502v1972h80v-1972h-80z" />
<glyph unicode="}" horiz-adv-x="698" d="M84 1425v39h100q124 0 200.5 -78t76.5 -208l-2 -541l135 -109v-14q-32 -11 -56 -27t-38.5 -37.5t-23 -41t-12 -50t-4.5 -50.5t-1 -56l2 -436q0 -129 -76.5 -208t-196.5 -79h-96v39h103q62 0 103 52t38 167l-4 270l-2 191q0 83 35 147.5t127 108.5l-162 102l6 600 q1 115 -41.5 167t-106.5 52h-104z" />
<glyph unicode="~" horiz-adv-x="1370" d="M102 406l78 182l197 39l760 -115l90 139h41l-80 -182l-191 -39l-764 119l-90 -143h-41z" />
<glyph unicode="&#xa1;" horiz-adv-x="509" d="M156 877l10 84l129 10l51 -10l8 -101l-12 -82l-127 -8l-51 8zM166 -494l10 611l62 403h36l62 -401l8 -613h-178z" />
<glyph unicode="&#xa2;" horiz-adv-x="915" d="M82 449q0 110 36.5 201.5t100 154.5t141 105t168.5 65v143h56v-137q73 -4 145 -32.5t117 -67.5v-181h-127l-66 189q-51 26 -114 26q-128 0 -210.5 -104t-82.5 -289q0 -182 96.5 -301t255.5 -119q115 0 252 95l14 -41q-39 -33 -112.5 -77.5t-127.5 -72.5l-53 -29v-141h-55 v133q-192 9 -313 136t-121 344z" />
<glyph unicode="&#xa3;" horiz-adv-x="1144" d="M80 45l194 55v598h-178v27l60 31h118v235q0 107 17 176t65.5 126.5t131.5 96.5t219 74q200 0 280 -96v-242h-69l-62 191q-42 45 -81.5 64.5t-98.5 19.5q-110 0 -175 -78t-65 -201v-366h383v-58h-383v-362q0 -210 -74 -279l537 4l111 263h53l-25 -324l-680 4l-272 -4z" />
<glyph unicode="&#xa4;" d="M170 330l129 129q-88 112 -88 258q0 157 100 274l-137 139l64 64l139 -141q119 94 262 94q139 0 260 -90l135 135l64 -66l-133 -133q104 -122 104 -276q0 -143 -92 -262l123 -121l-64 -64l-121 121q-117 -102 -276 -102q-156 0 -279 102l-124 -125zM285 717 q0 -147 104 -252t250 -105q143 0 248.5 105t105.5 252q0 148 -103.5 253t-250.5 105q-146 0 -250 -105t-104 -253z" />
<glyph unicode="&#xa5;" horiz-adv-x="1370" d="M41 1395l6 41l275 -4l268 4l4 -41l-182 -19l319 -684l25 -63l323 745l-196 21l6 41l237 -4l197 4l6 -39l-160 -19l-376 -807v-18h270v-51h-268v-142h268v-53h-268v-248l231 -20l-4 -41l-322 4l-327 -4l-4 41l239 20v248h-264v53h264v142h-264v51h264v2l-407 823z" />
<glyph unicode="&#xa6;" horiz-adv-x="530" d="M225 379h80v-881h-80v881zM225 590v880h80v-880h-80z" />
<glyph unicode="&#xa7;" horiz-adv-x="1071" d="M82 528q0 212 240 318q-36 38 -53.5 58.5t-40.5 55t-32.5 70t-9.5 78.5q0 134 105 227.5t293 128.5q104 0 182 -26.5t117 -73.5v-225h-62l-59 174q-70 90 -199 90q-48 0 -89.5 -10.5t-77.5 -33t-56.5 -64t-20.5 -97.5q0 -50 18 -93.5t62 -91t98.5 -91.5t147.5 -111 l344 -244v-78q0 -278 -272 -397q137 -108 147 -135q10 -23 10 -98q0 -148 -104 -236.5t-283 -124.5q-91 0 -184 35t-145 80v242h61l62 -181q107 -112 237 -112q104 0 164 58.5t57 174.5q0 16 -14.5 38t-40 48.5t-53 51t-63.5 52.5t-59.5 46t-52 39t-32.5 24 q-86 64 -139.5 110t-104.5 101.5t-74.5 110t-23.5 112.5zM219 627q0 -23 5 -45t10.5 -40.5t20 -40.5t23.5 -36t32.5 -37t34 -34t41 -36t42 -34t47.5 -37t47 -37l168 -131q166 93 166 284v31l-299 219q-145 106 -209 164q-129 -51 -129 -190z" />
<glyph unicode="&#xa8;" horiz-adv-x="1024" d="M240 1313l16 73l111 9l45 -9l10 -88l-19 -75l-110 -11l-45 11zM590 1313l16 73l111 9l45 -9l10 -88l-18 -75l-111 -11l-45 11z" />
<glyph unicode="&#xa9;" horiz-adv-x="1708" d="M102 729q0 158 53.5 286.5t153.5 218.5t236 147.5t307 82.5q152 -2 288 -54t240 -146.5t165 -239t61 -319.5q0 -158 -53.5 -286.5t-153 -218.5t-236 -148t-307.5 -83q-151 2 -287 54t-240 147t-165.5 239.5t-61.5 319.5zM213 729q0 -117 29.5 -219.5t79 -178t114 -135.5 t136.5 -96.5t143 -55.5t137 -19q128 0 244 47t205 132t141.5 215t52.5 286q0 140 -42 259t-109 199.5t-152 138t-170.5 83.5t-165.5 26q-127 0 -243 -47t-205 -132.5t-142 -216t-53 -286.5zM440 702q0 196 121 307.5t332 135.5q164 0 293 -78v-176h-41l-64 137 q-76 76 -192 76q-131 0 -212 -97t-81 -280q0 -105 33.5 -192t106.5 -144t173 -57q97 0 164 63l78 158h43l-16 -182q-181 -71 -299 -84q-87 0 -165.5 27.5t-140 78t-97.5 130.5t-36 177z" />
<glyph unicode="&#xaa;" horiz-adv-x="854" d="M82 840q0 84 72 159l370 123v92q0 37 -1 57t-8 47t-20 40t-38.5 23t-63.5 10q-47 0 -127 -25l-35 -156h-122v121l297 135q152 0 202 -55q28 -29 38.5 -77t10.5 -128v-348q0 -67 31 -139l90 6l4 -33l-211 -41l-41 140l-219 -156q-103 0 -166 55t-63 150zM221 864 q0 -63 32 -97t81 -34q54 0 127 49l63 47v254l-245 -100q-58 -45 -58 -119z" />
<glyph unicode="&#xab;" horiz-adv-x="864" d="M31 481l372 451h48l-265 -451l265 -450h-50zM385 481l373 451h45l-264 -451l264 -450h-47z" />
<glyph unicode="&#xac;" d="M109 662v86h1052v-379h-84v293h-968z" />
<glyph unicode="&#xad;" horiz-adv-x="747" d="M74 516v92h600v-92h-600z" />
<glyph unicode="&#xae;" horiz-adv-x="1210" d="M92 899q0 215 136.5 342t375.5 162q139 -1 254.5 -61t187.5 -180t72 -279q0 -214 -136.5 -341.5t-373.5 -162.5q-104 1 -197 36.5t-164.5 100.5t-113 164t-41.5 219zM176 899q0 -95 28 -176t73 -135.5t102 -93.5t114.5 -56.5t110.5 -17.5q178 0 304 126t126 337 q0 95 -28 177t-72.5 136.5t-101.5 93.5t-114 56.5t-110 17.5q-86 0 -163.5 -31.5t-137.5 -89.5t-95.5 -147.5t-35.5 -196.5zM338 643l68 8v490l-68 6l2 24h301q80 0 133 -34.5t53 -100.5q0 -64 -57.5 -101t-153.5 -50l107 -31l137 -203l41 -8v-25h-158l-159 244l-13 15h-51 v-226l66 -8l-2 -25h-244zM520 905h51q60 0 95.5 33.5t35.5 91.5q0 54 -31.5 85.5t-80.5 31.5l-70 -6v-236z" />
<glyph unicode="&#xaf;" horiz-adv-x="1024" d="M227 1292v80h572v-80h-572z" />
<glyph unicode="&#xb0;" horiz-adv-x="854" d="M113 1229q0 122 78 193t237 120q127 0 220 -92.5t93 -220.5t-74 -202.5t-239 -111.5q-126 0 -220.5 93.5t-94.5 220.5zM197 1231q0 -91 69 -160.5t162 -69.5q98 0 163.5 68.5t65.5 161.5q0 91 -68 158t-161 67q-98 0 -164.5 -66.5t-66.5 -158.5z" />
<glyph unicode="&#xb1;" d="M96 0v86h1080v-86h-1080zM96 764v86h486v493h86v-493h485v-86h-485v-475h-86v475h-486z" />
<glyph unicode="&#xb2;" horiz-adv-x="714" d="M31 852l180 180q126 124 180.5 213.5t54.5 173.5q0 68 -33.5 109t-86.5 41q-43 0 -82 -17l-45 -159h-123v139l276 94q124 0 192 -56t68 -143q0 -107 -70 -194t-227 -197l-165 -114l96 20h397v-31l-41 -92h-551z" />
<glyph unicode="&#xb3;" horiz-adv-x="634" d="M51 817v127h291q72 52 72 129q0 64 -55.5 106t-157.5 42l-8 26l59 31q74 33 103.5 72t29.5 98q0 54 -28 86.5t-72 32.5q-34 0 -72 -17l-41 -143h-121v129l281 90q105 0 155 -41.5t50 -101.5q0 -126 -203 -191q111 -4 175 -55.5t64 -118.5q0 -43 -17.5 -77t-57 -62.5 t-74.5 -47t-98 -46.5l-150 -68h-125z" />
<glyph unicode="&#xb4;" horiz-adv-x="1024" d="M293 1110l113 352h188l-260 -352h-41z" />
<glyph unicode="&#xb5;" d="M174 -471v1425h164v-649q0 -108 42.5 -158.5t115.5 -50.5q16 0 34.5 4t31.5 8.5t36 16.5t33.5 18t39 23.5t38.5 23.5l71 43v721h164v-835q0 -24 48.5 -47.5t103.5 -36.5l-4 -35h-226l-84 170l-299 -201q-209 0 -243 115v-143l129 -412h-195z" />
<glyph unicode="&#xb6;" horiz-adv-x="970" d="M61 1108q0 49 22.5 94t68 86t92 73t116.5 73h529v-58l-103 -16v-1686h-75v1688h-269v-1688h-77v1170q-128 0 -216 72t-88 192z" />
<glyph unicode="&#xb7;" horiz-adv-x="440" d="M113 836l12 88l137 8l55 -8l11 -105l-13 -90l-139 -10l-53 10z" />
<glyph unicode="&#xb8;" horiz-adv-x="1024" d="M346 -492l55 76h156q31 19 47.5 54.5t16.5 72.5q0 61 -45 90.5t-109 32.5l125 178l29 -18l-60 -94q68 -3 118 -42.5t50 -103.5q0 -76 -52 -125t-122 -75l-125 -46h-84z" />
<glyph unicode="&#xb9;" horiz-adv-x="579" d="M51 1503l287 113h47v-750l174 -12l-4 -35l-244 2l-245 -2l-5 35l175 12v627l4 33l-50 -25l-122 -28z" />
<glyph unicode="&#xba;" horiz-adv-x="892" d="M72 1038q0 354 393 428q158 0 257 -111.5t99 -279.5q0 -180 -101 -286.5t-290 -139.5q-158 0 -258 110.5t-100 278.5zM213 1073q0 -154 71 -262.5t185 -108.5q102 0 157.5 94.5t55.5 243.5q0 166 -71.5 267.5t-184.5 101.5q-104 0 -158.5 -92.5t-54.5 -243.5z" />
<glyph unicode="&#xbb;" horiz-adv-x="864" d="M61 31l265 450l-265 451h48l372 -451l-370 -450h-50zM416 31l264 450l-264 451h45l373 -451l-371 -450h-47z" />
<glyph unicode="&#xbc;" horiz-adv-x="1622" d="M72 1329l286 113h48v-750l174 -12l-5 -35l-243 2l-246 -2l-4 35l174 12v629l4 31l-47 -25l-125 -29zM367 -102l792 1556h80l-788 -1556h-84zM893 272l385 516h156v-36l-473 -471l71 10h217v155l107 78l33 8v-241h161v-64h-161v-227h-140v227h-327z" />
<glyph unicode="&#xbd;" horiz-adv-x="1679" d="M72 1329l286 113h48v-750l174 -12l-5 -35l-243 2l-246 -2l-4 35l174 12v627l4 33l-53 -25l-119 -29zM367 -102l792 1556h80l-788 -1556h-84zM997 33l179 180q126 125 181.5 214t55.5 173q0 69 -33.5 109.5t-87.5 40.5q-45 0 -84 -17l-43 -160h-125v140l277 94 q125 0 193.5 -56t68.5 -143q0 -107 -70.5 -193.5t-228.5 -197.5l-164 -115l107 21h385v-31l-39 -92h-553z" />
<glyph unicode="&#xbe;" horiz-adv-x="1593" d="M72 643v127h290q72 52 72 129q0 64 -55.5 106t-157.5 42l-8 26l59 31q75 33 104.5 72t29.5 98q0 54 -28.5 86.5t-72.5 32.5q-34 0 -72 -17l-40 -143h-121v129l280 90q105 0 155 -41.5t50 -101.5q0 -126 -203 -191q111 -4 174.5 -55.5t63.5 -118.5q0 -35 -13.5 -64.5 t-32.5 -51t-55.5 -44t-65.5 -37t-79 -36.5l-149 -68h-125zM338 -102l792 1556h80l-788 -1556h-84zM864 272l385 516h156v-36l-473 -471l65 10h224v155l106 76l33 10v-241h162v-64h-162v-227h-139v227h-328z" />
<glyph unicode="&#xbf;" horiz-adv-x="753" d="M41 -160q0 128 59.5 211t182.5 146l110 55l10 248h80l19 -264l-82 -54q-104 -72 -152.5 -155.5t-48.5 -192.5q0 -120 55 -195t177 -79l59 204h121v-237l-180 -27q-106 6 -187 38t-128.5 80t-71 104t-23.5 118zM336 870l10 86l129 11l51 -11l9 -100l-13 -82l-127 -8l-51 8 z" />
<glyph unicode="&#xc0;" horiz-adv-x="1476" d="M16 39l164 18l504 1352l98 45l518 -1397l160 -18l-4 -41l-262 4l-272 -4l-4 41l178 20l-156 445h-516l-156 -445l181 -20l-5 -41l-219 4l-202 -4zM440 1843h193l123 -272h-64zM444 563h474l-162 453l-68 239z" />
<glyph unicode="&#xc1;" horiz-adv-x="1476" d="M16 39l164 18l504 1352l98 45l518 -1397l160 -18l-4 -41l-262 4l-272 -4l-4 41l178 20l-156 445h-516l-156 -445l181 -20l-5 -41l-219 4l-202 -4zM444 563h474l-162 453l-68 239zM727 1571l123 272h192l-254 -272h-61z" />
<glyph unicode="&#xc2;" horiz-adv-x="1476" d="M16 39l164 18l504 1352l98 45l518 -1397l160 -18l-4 -41l-262 4l-272 -4l-4 41l178 20l-156 445h-516l-156 -445l181 -20l-5 -41l-219 4l-202 -4zM444 563h474l-162 453l-68 239zM449 1571l237 278h94l240 -278h-62l-213 155l-14 13l-10 -13l-211 -155h-61z" />
<glyph unicode="&#xc3;" horiz-adv-x="1476" d="M16 39l164 18l504 1352l98 45l518 -1397l160 -18l-4 -41l-262 4l-272 -4l-4 41l178 20l-156 445h-516l-156 -445l181 -20l-5 -41l-219 4l-202 -4zM436 1575l51 199l138 43l358 -138l68 144h30l-49 -197l-139 -45l-356 139l-70 -145h-31zM444 563h474l-162 453l-68 239z " />
<glyph unicode="&#xc4;" horiz-adv-x="1476" d="M16 39l164 18l504 1352l98 45l518 -1397l160 -18l-4 -41l-262 4l-272 -4l-4 41l178 20l-156 445h-516l-156 -445l181 -20l-5 -41l-219 4l-202 -4zM418 1710l16 74l111 10l47 -10l8 -86l-16 -78l-111 -8l-45 8zM444 563h474l-162 453l-68 239zM860 1710l17 74l110 10 l45 -10l10 -86l-16 -78l-111 -8l-47 8z" />
<glyph unicode="&#xc5;" horiz-adv-x="1476" d="M16 39l164 18l504 1352l98 45l518 -1397l160 -18l-4 -41l-262 4l-272 -4l-4 41l178 20l-156 445h-516l-156 -445l181 -20l-5 -41l-219 4l-202 -4zM444 563h474l-162 453l-68 239zM518 1679q0 36 12.5 65t28.5 46.5t48.5 34.5t54 25t63.5 22q83 0 144 -46.5t61 -137.5 q0 -36 -12.5 -64.5t-29 -47t-47.5 -35.5t-54.5 -26t-63.5 -22q-84 0 -144.5 46.5t-60.5 139.5zM590 1681q0 -61 36.5 -98t96.5 -37t97.5 37t37.5 98q0 63 -37.5 100.5t-97.5 37.5t-96.5 -37.5t-36.5 -100.5z" />
<glyph unicode="&#xc6;" horiz-adv-x="2000" d="M10 39l162 18l864 1379l107 -4l762 4l10 -367h-41l-121 307l-518 2v-663l266 4l84 227h41l-10 -250l10 -260h-41l-84 226l-266 4v-611l537 4l133 318h43l-35 -379l-770 4l-273 -4l-6 41l183 20v605h-416l-369 -605l170 -20l-4 -41l-215 4l-197 -4zM662 715h385v649z" />
<glyph unicode="&#xc7;" horiz-adv-x="1406" d="M84 698q0 171 54 309.5t153 233t234 152t300 75.5q140 0 265 -40t217 -97v-289h-60l-92 230q-135 135 -344 135q-231 0 -375.5 -175t-144.5 -497q0 -107 21.5 -207.5t67.5 -190t111 -157t158.5 -106.5t204.5 -39q85 0 161 35.5t126 83.5l116 258h62l-29 -297 q-222 -108 -424 -140q-10 -2 -39.5 -5t-40.5 -5l-43 -65q67 -3 117.5 -42.5t50.5 -103.5q0 -40 -16.5 -74.5t-44.5 -58.5t-56 -40t-59 -27l-123 -46h-84l54 76h157q30 20 47 55t17 72q0 60 -45.5 89.5t-108.5 33.5l94 135q-133 9 -251 61t-209.5 142t-145 226t-53.5 300z " />
<glyph unicode="&#xc8;" horiz-adv-x="1255" d="M61 39l183 20v1317l-183 19l5 41l282 -4l805 4l8 -365h-37l-123 305l-573 2v-602l326 4l84 228h39l-11 -250l11 -262h-39l-84 225l-326 4v-670l592 4l135 314h41l-37 -375l-811 4l-282 -4zM416 1843h192l121 -272h-61z" />
<glyph unicode="&#xc9;" horiz-adv-x="1255" d="M61 39l183 20v1317l-183 19l5 41l282 -4l805 4l8 -365h-37l-123 305l-573 2v-602l326 4l84 228h39l-11 -250l11 -262h-39l-84 225l-326 4v-670l592 4l135 314h41l-37 -375l-811 4l-282 -4zM631 1571l123 272h192l-252 -272h-63z" />
<glyph unicode="&#xca;" horiz-adv-x="1255" d="M61 39l183 20v1317l-183 19l5 41l282 -4l805 4l8 -365h-37l-123 305l-573 2v-602l326 4l84 228h39l-11 -250l11 -262h-39l-84 225l-326 4v-670l592 4l135 314h41l-37 -375l-811 4l-282 -4zM420 1571l235 278h97l237 -278h-61l-213 155l-13 13l-12 -13l-211 -155h-59z" />
<glyph unicode="&#xcb;" horiz-adv-x="1255" d="M61 39l183 20v1317l-183 19l5 41l282 -4l805 4l8 -365h-37l-123 305l-573 2v-602l326 4l84 228h39l-11 -250l11 -262h-39l-84 225l-326 4v-670l592 4l135 314h41l-37 -375l-811 4l-282 -4zM393 1710l17 74l112 10l45 -10l8 -86l-18 -78l-111 -8l-43 8zM836 1710l16 74 l113 10l45 -10l8 -86l-19 -78l-110 -8l-43 8z" />
<glyph unicode="&#xcc;" horiz-adv-x="677" d="M68 41l182 18v1317l-182 19l4 41l270 -4l270 4l4 -41l-182 -19v-1317l182 -18l-4 -43l-270 4l-270 -4zM102 1843h193l123 -272h-64z" />
<glyph unicode="&#xcd;" horiz-adv-x="677" d="M68 41l182 18v1317l-182 19l4 41l270 -4l270 4l4 -41l-182 -19v-1317l182 -18l-4 -43l-270 4l-270 -4zM311 1571l123 272h193l-252 -272h-64z" />
<glyph unicode="&#xce;" horiz-adv-x="677" d="M57 1571l236 278h96l238 -278h-60l-213 155l-14 13l-10 -13l-211 -155h-62zM68 41l182 18v1317l-182 19l4 41l270 -4l270 4l4 -41l-182 -19v-1317l182 -18l-4 -43l-270 4l-270 -4z" />
<glyph unicode="&#xcf;" horiz-adv-x="677" d="M43 1710l14 74l113 10l45 -10l10 -86l-18 -78l-111 -8l-45 8zM68 41l182 18v1317l-182 19l4 41l270 -4l270 4l4 -41l-182 -19v-1317l182 -18l-4 -43l-270 4l-270 -4zM461 1710l16 74l111 10l47 -10l8 -86l-18 -78l-111 -8l-45 8z" />
<glyph unicode="&#xd0;" horiz-adv-x="1486" d="M61 39l191 20v666h-170v45h170v606l-191 19l5 41l303 -4l356 4q316 0 498 -180t182 -506q0 -332 -177 -530t-515 -222l-344 4l-303 -4zM436 68l269 -17q222 2 358.5 187.5t136.5 494.5q0 142 -32 259t-96.5 205.5t-169 138t-240.5 50.5l-226 -12v-604h279v-45h-279v-657z " />
<glyph unicode="&#xd1;" horiz-adv-x="1470" d="M61 39l183 20v1307l-178 29l6 41l194 -4l164 4l717 -1088l45 -88v1116l-178 19l4 41l203 -4l223 4l6 -41l-184 -19v-1384h-103l-796 1222l-48 113v-1268l181 -20l-6 -41l-203 4l-225 -4zM475 1575l49 199l138 43l356 -138l69 144h31l-51 -197l-135 -45l-359 139l-69 -145 h-29z" />
<glyph unicode="&#xd2;" horiz-adv-x="1564" d="M84 688q0 670 719 780q196 0 352 -95t242 -260t86 -368q0 -670 -721 -780q-196 0 -351.5 95t-241 260t-85.5 368zM291 752q0 -111 21 -214.5t65 -194t105.5 -158.5t148 -107t188.5 -39q147 0 252 87t155 230.5t50 327.5q0 137 -34.5 263t-98.5 227t-166.5 161t-228.5 60 q-147 0 -252 -86.5t-155 -229.5t-50 -327zM541 1843h192l123 -272h-63z" />
<glyph unicode="&#xd3;" horiz-adv-x="1564" d="M84 688q0 670 719 780q196 0 352 -95t242 -260t86 -368q0 -670 -721 -780q-196 0 -351.5 95t-241 260t-85.5 368zM291 752q0 -111 21 -214.5t65 -194t105.5 -158.5t148 -107t188.5 -39q147 0 252 87t155 230.5t50 327.5q0 137 -34.5 263t-98.5 227t-166.5 161t-228.5 60 q-147 0 -252 -86.5t-155 -229.5t-50 -327zM727 1571l123 272h192l-251 -272h-64z" />
<glyph unicode="&#xd4;" horiz-adv-x="1564" d="M84 688q0 670 719 780q196 0 352 -95t242 -260t86 -368q0 -670 -721 -780q-196 0 -351.5 95t-241 260t-85.5 368zM291 752q0 -111 21 -214.5t65 -194t105.5 -158.5t148 -107t188.5 -39q147 0 252 87t155 230.5t50 327.5q0 137 -34.5 263t-98.5 227t-166.5 161t-228.5 60 q-147 0 -252 -86.5t-155 -229.5t-50 -327zM504 1571l235 278h97l237 -278h-61l-211 155l-15 13l-12 -13l-211 -155h-59z" />
<glyph unicode="&#xd5;" horiz-adv-x="1564" d="M84 688q0 670 719 780q196 0 352 -95t242 -260t86 -368q0 -670 -721 -780q-196 0 -351.5 95t-241 260t-85.5 368zM291 752q0 -111 21 -214.5t65 -194t105.5 -158.5t148 -107t188.5 -39q147 0 252 87t155 230.5t50 327.5q0 137 -34.5 263t-98.5 227t-166.5 161t-228.5 60 q-147 0 -252 -86.5t-155 -229.5t-50 -327zM498 1575l51 199l135 43l358 -138l70 144h29l-49 -197l-138 -45l-358 139l-68 -145h-30z" />
<glyph unicode="&#xd6;" horiz-adv-x="1564" d="M84 688q0 670 719 780q196 0 352 -95t242 -260t86 -368q0 -670 -721 -780q-196 0 -351.5 95t-241 260t-85.5 368zM291 752q0 -111 21 -214.5t65 -194t105.5 -158.5t148 -107t188.5 -39q147 0 252 87t155 230.5t50 327.5q0 137 -34.5 263t-98.5 227t-166.5 161t-228.5 60 q-147 0 -252 -86.5t-155 -229.5t-50 -327zM483 1710l19 74l110 10l45 -10l11 -86l-19 -78l-110 -8l-45 8zM926 1710l18 74l111 10l45 -10l10 -86l-18 -78l-111 -8l-45 8z" />
<glyph unicode="&#xd7;" d="M215 111l360 358l-360 360l61 60l359 -359l356 359l62 -60l-359 -360l359 -356l-60 -62l-358 361l-359 -361z" />
<glyph unicode="&#xd8;" horiz-adv-x="1564" d="M84 688q0 670 719 780q244 0 422 -145l110 141h66l-135 -176q103 -100 160 -240.5t57 -302.5q0 -670 -721 -780q-238 0 -412 135l-102 -131h-72l131 170q-107 99 -165 241t-58 308zM291 752q0 -282 123 -476l712 920q-145 199 -378 199q-147 0 -252 -86.5t-155 -229.5 t-50 -327zM446 227q144 -188 373 -188q147 0 252 87t155 230.5t50 327.5q0 268 -119 465z" />
<glyph unicode="&#xd9;" horiz-adv-x="1413" d="M25 1395l4 41l276 -4l264 4l6 -41l-178 -19v-901q0 -195 94 -309.5t275 -114.5q161 0 253.5 116.5t92.5 311.5v897l-180 19l4 41l227 -4l217 4l6 -41l-176 -19v-880q0 -82 -13.5 -148.5t-47 -128.5t-88 -109t-140 -84.5t-200.5 -60.5q-514 0 -514 541v870zM502 1843h192 l123 -272h-63z" />
<glyph unicode="&#xda;" horiz-adv-x="1413" d="M25 1395l4 41l276 -4l264 4l6 -41l-178 -19v-901q0 -195 94 -309.5t275 -114.5q161 0 253.5 116.5t92.5 311.5v897l-180 19l4 41l227 -4l217 4l6 -41l-176 -19v-880q0 -82 -13.5 -148.5t-47 -128.5t-88 -109t-140 -84.5t-200.5 -60.5q-514 0 -514 541v870zM694 1571 l123 272h193l-254 -272h-62z" />
<glyph unicode="&#xdb;" horiz-adv-x="1413" d="M25 1395l4 41l276 -4l264 4l6 -41l-178 -19v-901q0 -195 94 -309.5t275 -114.5q161 0 253.5 116.5t92.5 311.5v897l-180 19l4 41l227 -4l217 4l6 -41l-176 -19v-880q0 -82 -13.5 -148.5t-47 -128.5t-88 -109t-140 -84.5t-200.5 -60.5q-514 0 -514 541v870zM475 1571 l236 278h96l237 -278h-59l-213 155l-14 13l-10 -13l-211 -155h-62z" />
<glyph unicode="&#xdc;" horiz-adv-x="1413" d="M25 1395l4 41l276 -4l264 4l6 -41l-178 -19v-901q0 -195 94 -309.5t275 -114.5q161 0 253.5 116.5t92.5 311.5v897l-180 19l4 41l227 -4l217 4l6 -41l-176 -19v-880q0 -82 -13.5 -148.5t-47 -128.5t-88 -109t-140 -84.5t-200.5 -60.5q-514 0 -514 541v870zM446 1710 l19 74l108 10l48 -10l8 -86l-17 -78l-110 -8l-45 8zM889 1710l16 74l111 10l47 -10l8 -86l-16 -78l-111 -8l-45 8z" />
<glyph unicode="&#xdd;" horiz-adv-x="1425" d="M10 1397l6 39l275 -4l268 4l6 -39l-184 -21l373 -661l26 -68l385 729l-194 21l4 39l237 -4l197 4l6 -39l-160 -17l-440 -807l2 -514l232 -20l-5 -41l-319 4l-328 -4l-4 41l240 20v502l-463 817zM731 1571l123 272h193l-252 -272h-64z" />
<glyph unicode="&#xde;" horiz-adv-x="1200" d="M66 41l182 18v1317l-182 19l6 41l274 -4l258 4l6 -41l-178 -19v-243l287 2q196 2 321 -94.5t125 -270.5q0 -78 -28 -144t-74.5 -113t-112.5 -84t-134 -60t-148 -39h-236v-271l213 -18l-4 -43l-295 4l-274 -4zM432 389h184q153 0 249 101.5t96 257.5q0 149 -76.5 242 t-237.5 93l-215 -6v-688z" />
<glyph unicode="&#xdf;" horiz-adv-x="1169" d="M51 885v24l62 37l100 2v78q0 69 24.5 137t82 133.5t141.5 104.5l149 69q176 0 283.5 -70.5t107.5 -197.5q1 -120 -81.5 -205.5t-241.5 -154.5q5 -59 38 -106.5t115 -100.5l134 -90q88 -56 125.5 -116t37.5 -138q0 -113 -100 -203.5t-244 -122.5q-80 0 -158 28.5 t-130 63.5l-7 234h60l74 -182q98 -74 190 -74q75 0 120.5 51t45.5 121q0 64 -33.5 114t-109.5 105l-127 88q-83 58 -124.5 128.5t-45.5 164.5l127 74q72 42 116.5 117.5t44.5 181.5q0 39 -12.5 77.5t-37.5 73.5t-68 56.5t-97 21.5q-116 0 -176.5 -89t-60.5 -257v-1063l-72 2 l-229 -4l-6 35l145 16v836h-162z" />
<glyph unicode="&#xe0;" horiz-adv-x="923" d="M61 219q0 106 89 195l450 149v111q0 46 -1.5 71t-10 57t-25 48t-47.5 27.5t-76 11.5q-60 0 -155 -31l-43 -184h-150v145l361 166q78 0 131 -10.5t89 -32t55.5 -61t27.5 -90t8 -125.5v-424q0 -83 37 -170l108 8l4 -39l-256 -51l-49 168l-266 -189q-128 0 -204.5 66.5 t-76.5 183.5zM231 248q0 -75 39 -116.5t97 -41.5q64 0 153 62l80 55v309l-301 -121q-68 -59 -68 -147zM272 1462h191l112 -352h-40z" />
<glyph unicode="&#xe1;" horiz-adv-x="923" d="M61 219q0 106 89 195l450 149v111q0 46 -1.5 71t-10 57t-25 48t-47.5 27.5t-76 11.5q-60 0 -155 -31l-43 -184h-150v145l361 166q78 0 131 -10.5t89 -32t55.5 -61t27.5 -90t8 -125.5v-424q0 -83 37 -170l108 8l4 -39l-256 -51l-49 168l-266 -189q-128 0 -204.5 66.5 t-76.5 183.5zM231 248q0 -75 39 -116.5t97 -41.5q64 0 153 62l80 55v309l-301 -121q-68 -59 -68 -147zM418 1110l110 352h191l-260 -352h-41z" />
<glyph unicode="&#xe2;" horiz-adv-x="923" d="M61 219q0 106 89 195l450 149v111q0 46 -1.5 71t-10 57t-25 48t-47.5 27.5t-76 11.5q-60 0 -155 -31l-43 -184h-150v145l361 166q78 0 131 -10.5t89 -32t55.5 -61t27.5 -90t8 -125.5v-424q0 -83 37 -170l108 8l4 -39l-256 -51l-49 168l-266 -189q-128 0 -204.5 66.5 t-76.5 183.5zM168 1110l235 365h82l238 -365h-41l-217 207l-21 20l-20 -20l-217 -207h-39zM231 248q0 -75 39 -116.5t97 -41.5q64 0 153 62l80 55v309l-301 -121q-68 -59 -68 -147z" />
<glyph unicode="&#xe3;" horiz-adv-x="923" d="M61 219q0 106 89 195l450 149v111q0 46 -1.5 71t-10 57t-25 48t-47.5 27.5t-76 11.5q-60 0 -155 -31l-43 -184h-150v145l361 166q78 0 131 -10.5t89 -32t55.5 -61t27.5 -90t8 -125.5v-424q0 -83 37 -170l108 8l4 -39l-256 -51l-49 168l-266 -189q-128 0 -204.5 66.5 t-76.5 183.5zM127 1192l49 197l137 45l361 -144l59 144h37l-51 -203l-135 -39l-361 145l-59 -145h-37zM231 248q0 -75 39 -116.5t97 -41.5q64 0 153 62l80 55v309l-301 -121q-68 -59 -68 -147z" />
<glyph unicode="&#xe4;" horiz-adv-x="923" d="M61 219q0 106 89 195l450 149v111q0 46 -1.5 71t-10 57t-25 48t-47.5 27.5t-76 11.5q-60 0 -155 -31l-43 -184h-150v145l361 166q78 0 131 -10.5t89 -32t55.5 -61t27.5 -90t8 -125.5v-424q0 -83 37 -170l108 8l4 -39l-256 -51l-49 168l-266 -189q-128 0 -204.5 66.5 t-76.5 183.5zM180 1313l17 73l110 9l45 -9l10 -88l-18 -75l-111 -11l-45 11zM231 248q0 -75 39 -116.5t97 -41.5q64 0 153 62l80 55v309l-301 -121q-68 -59 -68 -147zM530 1313l15 73l112 9l45 -9l11 -88l-19 -75l-110 -11l-45 11z" />
<glyph unicode="&#xe5;" horiz-adv-x="923" d="M61 219q0 106 89 195l450 149v111q0 46 -1.5 71t-10 57t-25 48t-47.5 27.5t-76 11.5q-60 0 -155 -31l-43 -184h-150v145l361 166q78 0 131 -10.5t89 -32t55.5 -61t27.5 -90t8 -125.5v-424q0 -83 37 -170l108 8l4 -39l-256 -51l-49 168l-266 -189q-128 0 -204.5 66.5 t-76.5 183.5zM231 248q0 -75 39 -116.5t97 -41.5q64 0 153 62l80 55v309l-301 -121q-68 -59 -68 -147zM246 1290q0 36 12.5 65t28 46.5t47.5 34.5t53.5 25t63.5 22q82 0 143 -47t61 -138q0 -30 -7 -55t-23.5 -43.5t-31.5 -31.5t-43.5 -26t-46.5 -19.5t-52 -18.5 q-84 0 -144.5 46.5t-60.5 139.5zM315 1292q0 -61 38 -99t98 -38t97.5 38t37.5 99q0 63 -37.5 100.5t-97.5 37.5q-61 0 -98.5 -38t-37.5 -100z" />
<glyph unicode="&#xe6;" horiz-adv-x="1441" d="M61 213q0 58 20 105t69 96l434 149v111q0 42 -1.5 67.5t-9 57t-22 48.5t-42 29.5t-67.5 12.5q-70 0 -155 -31l-41 -188h-152v149l357 166q130 0 191 -30.5t85 -114.5q97 95 297 145q174 0 255 -100.5t81 -274.5v-71h-608q0 -203 93.5 -319t254.5 -116q104 0 250 93 l18 -45q-151 -112 -350 -183q-124 0 -228.5 55.5t-160.5 161.5l-285 -217q-126 0 -204.5 66.5t-78.5 177.5zM231 248q0 -75 39 -116.5t97 -41.5q69 0 153 62l64 45v319l-285 -121q-68 -59 -68 -147zM754 586l417 10q0 59 -4 103t-16 86t-33 69t-55.5 43t-81.5 16 q-104 0 -161.5 -90t-65.5 -237z" />
<glyph unicode="&#xe7;" horiz-adv-x="894" d="M80 449q0 118 39.5 214t108 159.5t150.5 103.5t177 59q60 0 141.5 -32t128.5 -72v-181h-127l-67 189q-48 26 -109 26q-122 0 -201 -104.5t-79 -288.5q0 -182 92.5 -301t243.5 -119q116 0 249 95l17 -41q-132 -109 -312 -183q-1 -1 -7 -2t-7 -2l-45 -69q68 -3 118 -42.5 t50 -103.5q0 -76 -51.5 -125.5t-122.5 -74.5l-125 -46h-82l53 76h156q31 20 48.5 55t17.5 72q0 60 -45.5 89.5t-110.5 33.5l96 137q-177 15 -286 141.5t-109 336.5z" />
<glyph unicode="&#xe8;" horiz-adv-x="948" d="M74 453q0 94 23 173.5t63.5 137.5t97.5 103t121.5 73.5t140.5 44.5q181 0 264.5 -101.5t83.5 -275.5v-65h-635q0 -203 99 -321t268 -118q115 0 258 91l19 -43q-147 -111 -342 -183q-91 0 -173 31.5t-146.5 91t-103 153t-38.5 208.5zM236 590l448 10q0 75 -8.5 127.5 t-30.5 97t-64.5 66.5t-105.5 22q-105 0 -166.5 -87.5t-72.5 -235.5zM266 1462h189l112 -352h-41z" />
<glyph unicode="&#xe9;" horiz-adv-x="948" d="M74 453q0 94 23 173.5t63.5 137.5t97.5 103t121.5 73.5t140.5 44.5q181 0 264.5 -101.5t83.5 -275.5v-65h-635q0 -203 99 -321t268 -118q115 0 258 91l19 -43q-147 -111 -342 -183q-91 0 -173 31.5t-146.5 91t-103 153t-38.5 208.5zM236 590l448 10q0 75 -8.5 127.5 t-30.5 97t-64.5 66.5t-105.5 22q-105 0 -166.5 -87.5t-72.5 -235.5zM496 1110l112 352h189l-260 -352h-41z" />
<glyph unicode="&#xea;" horiz-adv-x="948" d="M74 453q0 94 23 173.5t63.5 137.5t97.5 103t121.5 73.5t140.5 44.5q181 0 264.5 -101.5t83.5 -275.5v-65h-635q0 -203 99 -321t268 -118q115 0 258 91l19 -43q-147 -111 -342 -183q-91 0 -173 31.5t-146.5 91t-103 153t-38.5 208.5zM236 590l448 10q0 75 -8.5 127.5 t-30.5 97t-64.5 66.5t-105.5 22q-105 0 -166.5 -87.5t-72.5 -235.5zM240 1110l235 365h82l238 -365h-39l-219 207l-21 20l-18 -20l-219 -207h-39z" />
<glyph unicode="&#xeb;" horiz-adv-x="948" d="M74 453q0 94 23 173.5t63.5 137.5t97.5 103t121.5 73.5t140.5 44.5q181 0 264.5 -101.5t83.5 -275.5v-65h-635q0 -203 99 -321t268 -118q115 0 258 91l19 -43q-147 -111 -342 -183q-91 0 -173 31.5t-146.5 91t-103 153t-38.5 208.5zM236 590l448 10q0 75 -8.5 127.5 t-30.5 97t-64.5 66.5t-105.5 22q-105 0 -166.5 -87.5t-72.5 -235.5zM244 1313l18 73l109 9l47 -9l8 -88l-16 -75l-111 -11l-45 11zM594 1313l16 73l111 9l47 -9l8 -88l-16 -75l-111 -11l-45 11z" />
<glyph unicode="&#xec;" horiz-adv-x="567" d="M47 1462h191l112 -352h-41zM61 889l261 74l55 4v-912l149 -16l-4 -41l-223 4l-223 -4l-4 41l141 16v819l-145 -24z" />
<glyph unicode="&#xed;" horiz-adv-x="567" d="M61 889l261 74l55 4v-912l149 -16l-4 -41l-223 4l-223 -4l-4 41l141 16v819l-145 -24zM262 1110l111 352h190l-262 -352h-39z" />
<glyph unicode="&#xee;" horiz-adv-x="567" d="M8 1110l236 365h82l237 -365h-39l-219 207l-20 20l-19 -20l-217 -207h-41zM61 889l261 74l55 4v-912l149 -16l-4 -41l-223 4l-223 -4l-4 41l141 16v819l-145 -24z" />
<glyph unicode="&#xef;" horiz-adv-x="569" d="M18 1313l19 73l108 9l48 -9l8 -88l-17 -75l-110 -11l-45 11zM63 889l261 74l55 4v-912l149 -16l-4 -41l-223 4l-223 -4l-4 41l141 16v819l-145 -24zM369 1313l16 73l111 9l47 -9l8 -88l-16 -75l-111 -11l-45 11z" />
<glyph unicode="&#xf0;" horiz-adv-x="1060" d="M61 483q0 204 114.5 333.5t318.5 144.5l286 -156q-46 272 -231 448l-262 -127v66l209 100q-28 27 -115.5 77.5t-126.5 62.5l22 43q196 -74 299 -144l228 111v-64l-172 -86q181 -139 266.5 -338.5t85.5 -433.5q0 -230 -125.5 -383t-341.5 -168q-222 31 -338.5 170 t-116.5 344zM240 471q0 -202 71.5 -314t208.5 -112q82 0 145.5 57t97.5 150t40 209q6 103 -10 203q-62 72 -103 108q-93 84 -201 84q-118 0 -183.5 -102t-65.5 -283z" />
<glyph unicode="&#xf1;" horiz-adv-x="1171" d="M61 891l261 72l47 4l6 -199l336 217q156 -3 209 -67q55 -63 55 -234v-629l162 -16l-7 -41l-233 4l-186 -4l-4 41l104 16v627q0 93 -34 132.5t-105 39.5q-36 0 -75.5 -14.5t-66 -30t-79.5 -49.5l-74 -45v-660l112 -16l-6 -41l-184 4l-223 -4l-6 41l143 16v819l-145 -24z M285 1192l51 197l137 43l358 -144l62 144h35l-51 -203l-136 -37l-360 145l-59 -145h-37z" />
<glyph unicode="&#xf2;" horiz-adv-x="1077" d="M74 455q0 437 487 530q197 0 321 -138.5t124 -348.5q0 -222 -126 -354.5t-362 -174.5q-130 0 -232 64.5t-157 175t-55 246.5zM248 496q0 -123 39 -227.5t112.5 -168t167.5 -63.5q126 0 195 117t69 303q0 204 -89.5 331t-229.5 127q-128 0 -196 -115.5t-68 -303.5z M326 1462h190l113 -352h-41z" />
<glyph unicode="&#xf3;" horiz-adv-x="1077" d="M74 455q0 437 487 530q197 0 321 -138.5t124 -348.5q0 -222 -126 -354.5t-362 -174.5q-130 0 -232 64.5t-157 175t-55 246.5zM248 496q0 -123 39 -227.5t112.5 -168t167.5 -63.5q126 0 195 117t69 303q0 204 -89.5 331t-229.5 127q-128 0 -196 -115.5t-68 -303.5z M541 1110l110 352h191l-262 -352h-39z" />
<glyph unicode="&#xf4;" horiz-adv-x="1077" d="M74 455q0 437 487 530q197 0 321 -138.5t124 -348.5q0 -222 -126 -354.5t-362 -174.5q-130 0 -232 64.5t-157 175t-55 246.5zM248 496q0 -123 39 -227.5t112.5 -168t167.5 -63.5q126 0 195 117t69 303q0 204 -89.5 331t-229.5 127q-128 0 -196 -115.5t-68 -303.5z M274 1110l236 365h82l235 -365h-39l-217 207l-20 20l-21 -20l-217 -207h-39z" />
<glyph unicode="&#xf5;" horiz-adv-x="1077" d="M74 455q0 437 487 530q197 0 321 -138.5t124 -348.5q0 -222 -126 -354.5t-362 -174.5q-130 0 -232 64.5t-157 175t-55 246.5zM236 1192l51 197l137 43l358 -144l62 144h35l-52 -203l-135 -37l-360 145l-60 -145h-36zM248 496q0 -123 39 -227.5t112.5 -168t167.5 -63.5 q126 0 195 117t69 303q0 204 -89.5 331t-229.5 127q-128 0 -196 -115.5t-68 -303.5z" />
<glyph unicode="&#xf6;" horiz-adv-x="1077" d="M74 455q0 437 487 530q197 0 321 -138.5t124 -348.5q0 -222 -126 -354.5t-362 -174.5q-130 0 -232 64.5t-157 175t-55 246.5zM248 496q0 -123 39 -227.5t112.5 -168t167.5 -63.5q126 0 195 117t69 303q0 204 -89.5 331t-229.5 127q-128 0 -196 -115.5t-68 -303.5z M274 1313l17 73l110 9l48 -9l8 -88l-17 -75l-112 -11l-43 11zM625 1313l16 73l111 9l47 -9l8 -88l-19 -75l-110 -11l-45 11z" />
<glyph unicode="&#xf7;" d="M96 457v86h1078v-86h-1078zM539 127l10 82l131 8l51 -8l8 -96l-12 -86l-129 -11l-49 11zM539 872l10 84l131 9l51 -9l8 -96l-12 -86l-129 -10l-49 10z" />
<glyph unicode="&#xf8;" horiz-adv-x="1071" d="M72 455q0 437 487 530q164 0 281 -100l82 98h61l-109 -131q130 -140 130 -354q0 -222 -126 -354.5t-362 -174.5q-168 0 -289 105l-77 -94h-66l109 131q-121 133 -121 344zM246 496q0 -146 53 -258l449 536q-89 141 -238 141q-128 0 -196 -115.5t-68 -303.5zM324 188 q42 -71 104 -111t137 -40q126 0 195 117t69 303q0 160 -57 274z" />
<glyph unicode="&#xf9;" horiz-adv-x="1122" d="M20 907l265 51l53 5v-695q0 -91 34.5 -131.5t104.5 -40.5q48 0 96.5 23t120.5 71l72 43v644l-135 -15l-4 45l252 51l51 5v-701q0 -103 26 -186l111 6l4 -39l-256 -51l-45 180l-326 -203q-167 3 -223 76q-27 36 -37 92t-10 146v594l-147 -15zM305 1462h189l112 -352h-39z " />
<glyph unicode="&#xfa;" horiz-adv-x="1122" d="M20 907l265 51l53 5v-695q0 -91 34.5 -131.5t104.5 -40.5q48 0 96.5 23t120.5 71l72 43v644l-135 -15l-4 45l252 51l51 5v-701q0 -103 26 -186l111 6l4 -39l-256 -51l-45 180l-326 -203q-167 3 -223 76q-27 36 -37 92t-10 146v594l-147 -15zM500 1110l112 352h189 l-262 -352h-39z" />
<glyph unicode="&#xfb;" horiz-adv-x="1122" d="M20 907l265 51l53 5v-695q0 -91 34.5 -131.5t104.5 -40.5q48 0 96.5 23t120.5 71l72 43v644l-135 -15l-4 45l252 51l51 5v-701q0 -103 26 -186l111 6l4 -39l-256 -51l-45 180l-326 -203q-167 3 -223 76q-27 36 -37 92t-10 146v594l-147 -15zM274 1110l236 365h82 l237 -365h-41l-217 207l-20 20l-21 -20l-217 -207h-39z" />
<glyph unicode="&#xfc;" horiz-adv-x="1122" d="M20 907l265 51l53 5v-695q0 -91 34.5 -131.5t104.5 -40.5q48 0 96.5 23t120.5 71l72 43v644l-135 -15l-4 45l252 51l51 5v-701q0 -103 26 -186l111 6l4 -39l-256 -51l-45 180l-326 -203q-167 3 -223 76q-27 36 -37 92t-10 146v594l-147 -15zM281 1313l16 73l111 9l47 -9 l8 -88l-17 -75l-112 -11l-43 11zM631 1313l16 73l111 9l47 -9l8 -88l-18 -75l-111 -11l-45 11z" />
<glyph unicode="&#xfd;" horiz-adv-x="1083" d="M10 915l6 39l217 -2l209 2l7 -39l-132 -16l244 -676l25 -110l272 786l-121 16l6 39l170 -2l156 2l4 -39l-131 -16l-315 -848l-236 -532h-213v176h182l207 356l-96 -43l-336 891zM559 1110l111 352h188l-260 -352h-39z" />
<glyph unicode="&#xfe;" horiz-adv-x="1093" d="M33 1386l260 72l55 4v-678l277 201q183 0 288 -127.5t105 -335.5q0 -232 -124.5 -370.5t-356.5 -182.5q-116 0 -189 56v-441l213 -16l-4 -41l-285 4l-227 -4l-6 41l145 16v1788l-145 -22zM348 147q33 -52 90 -82t127 -30q125 2 201 116t76 304q0 176 -64 289.5 t-172 113.5q-48 0 -90.5 -21t-114.5 -71l-53 -39v-580z" />
<glyph unicode="&#xff;" horiz-adv-x="1083" d="M10 915l6 39l217 -2l209 2l7 -39l-132 -16l244 -676l25 -110l272 786l-121 16l6 39l170 -2l156 2l4 -39l-131 -16l-315 -848l-236 -532h-213v176h182l207 356l-96 -43l-336 891zM315 1313l17 73l110 9l47 -9l9 -88l-17 -75l-110 -11l-45 11zM666 1313l16 73l111 9l47 -9 l8 -88l-19 -75l-110 -11l-43 11z" />
<glyph unicode="&#x152;" horiz-adv-x="1929" d="M84 688q0 333 172.5 518.5t552.5 247.5l268 -20l760 2l8 -367h-37l-122 307l-531 2v-602l272 4l84 228h41l-10 -250l10 -262h-41l-84 225l-272 4v-670l543 4l133 318h43l-35 -379l-819 4l-250 -22q-198 0 -355.5 92t-244 253.5t-86.5 362.5zM291 750q0 -194 70.5 -353.5 t195 -251.5t277.5 -92l137 2v1317l-223 12q-216 0 -336.5 -174.5t-120.5 -459.5z" />
<glyph unicode="&#x153;" horiz-adv-x="1703" d="M74 453q0 437 487 530q119 0 214 -55.5t153 -153.5q110 156 346 211q181 0 264.5 -100.5t83.5 -274.5v-67h-623q0 -204 99.5 -321.5t267.5 -117.5q107 0 246 93l18 -43q-152 -114 -346 -185q-118 0 -219.5 54t-163.5 155q-119 -158 -383 -209q-197 0 -320.5 138 t-123.5 346zM246 496q0 -123 39 -227.5t112.5 -168t167.5 -63.5q126 0 196 117.5t70 302.5q0 204 -89 330t-230 126q-128 0 -197 -114.5t-69 -302.5zM999 590l435 10q0 59 -4.5 102.5t-17 85t-34 67.5t-57.5 42t-86 16q-104 0 -164 -86t-72 -237z" />
<glyph unicode="&#x178;" horiz-adv-x="1425" d="M10 1397l6 39l275 -4l268 4l6 -39l-184 -21l373 -661l26 -68l385 729l-194 21l4 39l237 -4l197 4l6 -39l-160 -17l-440 -807l2 -514l232 -20l-5 -41l-319 4l-328 -4l-4 41l240 20v502l-463 817zM465 1710l16 74l111 10l45 -10l10 -86l-18 -78l-111 -8l-45 8zM907 1710 l17 74l110 10l45 -10l11 -86l-19 -78l-110 -8l-46 8z" />
<glyph unicode="&#x2c6;" horiz-adv-x="1024" d="M221 1110l240 365h76l239 -365h-39l-239 205l-236 -205h-41z" />
<glyph unicode="&#x2dc;" horiz-adv-x="1024" d="M190 1192l50 197l137 43l358 -144l62 144h34l-49 -203l-137 -37l-360 145l-60 -145h-35z" />
<glyph unicode="&#x2000;" horiz-adv-x="936" />
<glyph unicode="&#x2001;" horiz-adv-x="1872" />
<glyph unicode="&#x2002;" horiz-adv-x="936" />
<glyph unicode="&#x2003;" horiz-adv-x="1872" />
<glyph unicode="&#x2004;" horiz-adv-x="624" />
<glyph unicode="&#x2005;" horiz-adv-x="468" />
<glyph unicode="&#x2006;" horiz-adv-x="312" />
<glyph unicode="&#x2007;" horiz-adv-x="312" />
<glyph unicode="&#x2008;" horiz-adv-x="234" />
<glyph unicode="&#x2009;" horiz-adv-x="374" />
<glyph unicode="&#x200a;" horiz-adv-x="104" />
<glyph unicode="&#x2010;" horiz-adv-x="788" d="M82 518v90h625v-90h-625z" />
<glyph unicode="&#x2011;" horiz-adv-x="788" d="M82 518v90h625v-90h-625z" />
<glyph unicode="&#x2012;" horiz-adv-x="788" d="M82 518v90h625v-90h-625z" />
<glyph unicode="&#x2013;" horiz-adv-x="1040" d="M82 532v70h876v-70h-876z" />
<glyph unicode="&#x2014;" horiz-adv-x="1904" d="M-111 518v98h2126v-98h-2126z" />
<glyph unicode="&#x2018;" horiz-adv-x="407" d="M109 1069l12 90l151 307l39 -16q-16 -35 -58 -150t-42 -133l102 -8l11 -106l-13 -86l-137 -11l-57 11z" />
<glyph unicode="&#x2019;" horiz-adv-x="403" d="M98 1358l15 88l135 8l57 -8l10 -103l-14 -92l-149 -305l-39 15q98 259 98 284l-102 6z" />
<glyph unicode="&#x201a;" horiz-adv-x="382" d="M90 125l14 86l136 8l57 -8l10 -102l-14 -93l-150 -305l-39 17q24 60 61.5 162.5t37.5 121.5l-103 4z" />
<glyph unicode="&#x201c;" horiz-adv-x="677" d="M88 1069l12 90l152 307l39 -16q-16 -35 -58.5 -151t-42.5 -134l103 -6l10 -106l-12 -86l-137 -11l-58 11zM399 1069l13 90l149 307l41 -16q-16 -35 -58 -151t-42 -134l104 -6l8 -106l-12 -86l-137 -11l-57 11z" />
<glyph unicode="&#x201d;" horiz-adv-x="677" d="M92 1360l12 88l138 8l57 -8l8 -102l-12 -93l-152 -305l-39 15q18 43 59.5 154.5t41.5 129.5l-103 6zM403 1360l13 88l137 8l57 -8l8 -102l-12 -93l-149 -305l-41 15q100 264 100 284l-104 6z" />
<glyph unicode="&#x201e;" horiz-adv-x="698" d="M96 125l13 86l137 8l57 -8l8 -102l-12 -93l-152 -305l-38 17q17 36 58.5 150.5t41.5 133.5l-103 4zM408 125l12 86l137 8l57 -8l9 -102l-13 -93l-149 -305l-41 17q100 250 100 284l-104 4z" />
<glyph unicode="&#x2022;" horiz-adv-x="450" d="M102 633l15 102l153 10l68 -10l10 -119l-14 -106l-154 -10l-67 10z" />
<glyph unicode="&#x2026;" horiz-adv-x="1521" d="M154 109l14 90l139 10l55 -10l11 -105l-15 -94l-141 -10l-53 10zM653 109l13 90l141 10l53 -10l10 -105l-12 -94l-141 -10l-55 10zM1151 109l14 90l140 10l55 -10l8 -105l-12 -94l-142 -10l-53 10z" />
<glyph unicode="&#x202f;" horiz-adv-x="374" />
<glyph unicode="&#x2039;" horiz-adv-x="557" d="M68 481l372 451h45l-264 -451l264 -450h-47z" />
<glyph unicode="&#x203a;" horiz-adv-x="557" d="M82 31l264 450l-264 451h47l373 -451l-371 -450h-49z" />
<glyph unicode="&#x205f;" horiz-adv-x="468" />
<glyph unicode="&#x20ac;" horiz-adv-x="1359" d="M92 559v66h125q-2 25 -2 71q0 78 4 115h-127v63h135q42 252 204 400.5t425 193.5q139 0 244.5 -38.5t173.5 -92.5v-309h-53l-95 250q-105 133 -295 133q-152 0 -269.5 -143.5t-141.5 -393.5h651l-35 -63h-622v-53q0 -68 6 -133h528l-35 -66h-481q17 -100 54 -182.5 t93.5 -146t138 -99t181.5 -35.5q172 0 340 119l27 -49q-70 -56 -182.5 -112.5t-233.5 -84.5q-255 0 -423 153t-204 437h-131z" />
<glyph unicode="&#x2122;" horiz-adv-x="2037" d="M102 1208v228l355 -2l348 2v-228h-37l-78 183l-155 2v-703l118 -10l-2 -35l-198 2l-199 -2l-2 35l121 10v703l-158 -2l-76 -183h-37zM860 680l92 10v701l-92 12l2 33l123 -2l156 2l260 -607v-47l262 654l121 -2l147 2l4 -33l-94 -12v-701l92 -10l-4 -35l-166 2l-170 -2 l-2 35l88 10v621l9 67l-293 -735h-90l-279 670l-16 67v-690l90 -10l-2 -35l-117 2l-117 -2z" />
<glyph unicode="&#x25fc;" horiz-adv-x="952" d="M0 0v952h952v-952h-952z" />
</font>
</defs>
</svg>
