<?xml version="1.0" standalone="no"?>
<!DOCTYPE svg PUBLIC "-//W3C//DTD SVG 1.1//EN" "http://www.w3.org/Graphics/SVG/1.1/DTD/svg11.dtd" >
<svg xmlns="http://www.w3.org/2000/svg" xmlns:xlink="http://www.w3.org/1999/xlink" version="1.1">
<metadata></metadata>
<defs>
<font id="gt_sectra_finebold" horiz-adv-x="1269" >
<font-face units-per-em="2048" ascent="1536" descent="-512" />
<missing-glyph horiz-adv-x="485" />
<glyph unicode="&#xfb01;" horiz-adv-x="1296" d="M49 868v41l35 41h106v23q0 84 32.5 148.5t99.5 125.5l225 209h600v-264h-49l-207 61h-369l-18 -36q-27 -61 -27 -213v-58h340l242 43h80v-905l116 -18l-6 -68l-254 4l-243 -4l-7 68l105 18v741l8 54l-53 -11h-328v-784l158 -18l-6 -66l-312 2l-241 -4l-4 68l118 18v784 h-141z" />
<glyph unicode="&#xfb02;" horiz-adv-x="1296" d="M49 868v41l35 41h106v23q0 84 32.5 148.5t99.5 125.5l225 209h332l204 2h64v-1374l115 -18l-5 -68l-253 4l-248 -4l-6 68l110 18v784h-383v-784l168 -18l-6 -68l-326 4l-231 -4l-4 68l112 18v784h-141zM477 946h383v330l-76 -23h-262l-18 -36q-27 -61 -27 -213v-58z" />
<glyph unicode="&#xfb03;" horiz-adv-x="1964" d="M49 868v41l35 41h106v11q0 83 33 145t101 123l223 203h403l-221 -199h-207l-18 -39q-27 -61 -27 -209v-39h383v27q0 84 32 148.5t97 125.5l228 209h598v-264h-48l-204 61h-371l-18 -36q-25 -56 -25 -213v-58h338l242 43h79v-905l115 -18l-4 -68l-252 4l-248 -4l-4 68 l105 18v733l8 62l-58 -11h-321v-784l156 -18l-5 -68l-307 4l-248 -4l-4 68l119 18v784h-383v-784l168 -18l-6 -68l-324 4l-239 -4l-4 68l118 18v784h-141z" />
<glyph unicode="&#xfb04;" horiz-adv-x="1966" d="M49 868v41l35 41h106v11q0 83 33 145t101 123l223 203h409l-221 -199h-213l-18 -39q-27 -61 -27 -209v-39h383v27q0 84 32 148.5t97 125.5l225 207h322l162 2h117v-1372l116 -18l-6 -68l-252 4l-250 -4l-6 68l109 18v784h-379v-784l166 -18l-4 -68l-322 4l-227 -4l-6 68 l106 18v784h-383v-784l168 -18l-6 -68l-317 4l-246 -4l-4 68l118 18v784h-141zM1147 946h379v328l-78 -21h-258l-19 -36q-24 -56 -24 -213v-58z" />
<glyph horiz-adv-x="0" />
<glyph horiz-adv-x="0" />
<glyph horiz-adv-x="682" />
<glyph unicode="&#xd;" horiz-adv-x="655" />
<glyph unicode=" "  horiz-adv-x="485" />
<glyph unicode="&#x09;" horiz-adv-x="485" />
<glyph unicode="&#xa0;" horiz-adv-x="485" />
<glyph unicode="!" horiz-adv-x="643" d="M168 1454h305l-22 -637l-74 -356h-113l-74 354zM178 141l19 117l182 14l67 -14l15 -137l-19 -119l-184 -14l-68 14z" />
<glyph unicode="&#x22;" horiz-adv-x="870" d="M102 1325l19 117l186 14l74 -14l12 -135l-18 -125l-180 -326l-60 25q4 10 35 82t56.5 135.5t25.5 75.5l-137 8zM487 1325l19 117l188 14l70 -14l14 -135l-18 -125l-180 -326l-62 25q117 271 117 293l-135 8z" />
<glyph unicode="#" horiz-adv-x="1275" d="M82 412l10 90h264l41 336h-260l13 90h260l51 413h102l-51 -413h313l52 413h102l-51 -413h266l-12 -90h-264l-41 -336h262l-11 -90h-264l-49 -412h-102l49 412h-313l-50 -412h-102l49 412h-264zM461 502h311l41 336h-311z" />
<glyph unicode="$" horiz-adv-x="1191" d="M92 455h105l92 -226q129 -158 289 -161v510l-207 120q-127 71 -191.5 152t-64.5 203q-2 143 109.5 247.5t353.5 159.5v139h73v-129q199 -5 389 -98v-344h-88l-96 242q-90 94 -205 104v-469l174 -98q150 -84 212.5 -169t62.5 -210q0 -152 -110 -261t-339 -177v-154h-73 v133l-27 -6q-225 0 -436 133zM387 1182q0 -73 43 -125t131 -101l17 -10v428q-89 -11 -140 -62t-51 -130zM651 76q79 19 124.5 75.5t45.5 141.5q0 74 -40.5 132t-129.5 112v-461z" />
<glyph unicode="%" horiz-adv-x="1679" d="M92 1067q0 84 27 149t79.5 109t119 71.5t155.5 45.5q139 0 228.5 -95t89.5 -247q0 -84 -27 -149t-80 -109t-120 -71.5t-156 -45.5q-139 0 -227.5 94t-88.5 248zM279 -10l1011 1454h129l-1011 -1454h-129zM311 1126q0 -166 38 -254t104 -88q116 0 116 252q0 169 -38 257.5 t-105 88.5q-115 0 -115 -256zM889 340q0 84 27.5 148.5t80 108t119 71.5t154.5 47q140 0 228.5 -95.5t88.5 -248.5q0 -163 -99 -251t-284 -126q-138 0 -226.5 95.5t-88.5 250.5zM1108 399q0 -167 38 -255.5t105 -88.5q115 0 115 254q0 167 -37.5 255.5t-103.5 88.5 q-117 0 -117 -254z" />
<glyph unicode="&#x26;" horiz-adv-x="1492" d="M92 332q0 61 18 114.5t44.5 93t73 80.5t87 69.5t103.5 66.5l-17 16q-111 125 -154.5 197t-43.5 151q0 126 107.5 207t348.5 143q183 0 288.5 -73t105.5 -183q0 -47 -17.5 -90.5t-44.5 -77.5t-75.5 -72t-93.5 -67t-115 -69l319 -365l156 203l-117 12l4 64l188 -4l168 4 l5 -64l-138 -16l-207 -260l289 -328l88 -18l-8 -68l-194 4l-166 -4l-183 207q-151 -151 -331 -240q-135 0 -246 45t-176.5 129.5t-65.5 192.5zM367 444q0 -115 80.5 -197.5t197.5 -82.5q112 0 207 100l2 2l-379 426q-108 -89 -108 -248zM471 1219q0 -66 49 -144t133 -178 l2 -2q125 109 125 301q0 84 -40.5 137t-112.5 53q-71 0 -113.5 -43.5t-42.5 -123.5z" />
<glyph unicode="'" horiz-adv-x="475" d="M102 1323l19 119l186 14l74 -14l12 -137l-18 -125l-180 -324l-60 25q4 11 35 81.5t56.5 133.5t25.5 75l-137 9z" />
<glyph unicode="(" horiz-adv-x="618" d="M86 502q0 210 48 372t146.5 302.5t274.5 306.5l39 -39q-157 -193 -226 -419.5t-69 -522.5q0 -290 69.5 -522.5t225.5 -425.5l-39 -39q-177 173 -275 313.5t-146 302t-48 371.5z" />
<glyph unicode=")" horiz-adv-x="618" d="M25 -446q156 192 225 424t69 524q0 298 -68.5 524t-225.5 418l38 39q175 -164 274.5 -305t147 -303t47.5 -373q0 -210 -48 -372t-146.5 -303t-274.5 -312z" />
<glyph unicode="*" horiz-adv-x="897" d="M92 1120l76 230l242 -168l-82 282h243l-86 -282l244 166l76 -230l-295 -6l233 -178l-194 -143l-103 278l-98 -278l-194 141l233 180z" />
<glyph unicode="+" d="M106 467v108h476v480h106v-480h473v-108h-473v-467h-106v467h-476z" />
<glyph unicode="," horiz-adv-x="514" d="M152 147l18 123l190 17l72 -17l14 -143l-20 -125l-176 -317l-66 28q21 47 64 153.5t43 123.5l-127 12z" />
<glyph unicode="-" horiz-adv-x="788" d="M82 510v125h625v-125h-625z" />
<glyph unicode="." horiz-adv-x="516" d="M143 147l21 123l190 15l72 -15l14 -143l-22 -125l-191 -14l-69 14z" />
<glyph unicode="/" horiz-adv-x="989" d="M-20 -471l927 1941h103l-924 -1941h-106z" />
<glyph unicode="0" horiz-adv-x="1222" d="M82 471q0 119 42.5 212t122 155.5t178.5 103t228 66.5q212 0 350 -138.5t138 -361.5q0 -120 -42 -213.5t-121 -156.5t-178.5 -103.5t-228.5 -65.5q-212 0 -350.5 139.5t-138.5 362.5zM389 539q0 -220 61 -345.5t177 -125.5q100 0 150 98.5t50 271.5q0 220 -60.5 344.5 t-176.5 124.5q-100 0 -150.5 -98.5t-50.5 -269.5z" />
<glyph unicode="1" horiz-adv-x="940" d="M53 788l490 207h92v-905l272 -24l-6 -68l-412 4l-415 -4l-6 68l274 24v692l6 27l-55 -27l-213 -57z" />
<glyph unicode="2" horiz-adv-x="1097" d="M41 63l317 250q163 124 233.5 222t70.5 206q0 79 -39.5 124.5t-108.5 45.5q-49 0 -104 -24l-68 -285h-229v244l456 166q198 0 300 -74.5t102 -196.5q0 -131 -111.5 -233.5t-337.5 -208.5l-229 -104l178 34h565v-57l-67 -172h-895z" />
<glyph unicode="3" horiz-adv-x="1046" d="M57 -231h492q58 49 84 105.5t26 131.5q0 114 -88 187.5t-247 72.5l-17 56l105 59q112 59 157 130t45 179q0 94 -44.5 151.5t-110.5 57.5q-51 0 -99 -25l-71 -268h-228v240l486 166q97 0 170 -22t114 -60t60.5 -83t19.5 -97q0 -237 -356 -338q104 -4 185.5 -35.5 t129.5 -79t72.5 -101.5t24.5 -110q0 -38 -7 -72.5t-17 -62t-31 -54.5t-38.5 -46.5t-51 -43t-56.5 -38t-67.5 -36.5t-72 -34.5t-79.5 -36.5l-291 -133h-199v240z" />
<glyph unicode="4" horiz-adv-x="1171" d="M23 43l643 936h307v-72l-823 -846l61 19h401v250l236 162l39 6v-420h260v-117h-260v-426h-275v426h-534z" />
<glyph unicode="5" horiz-adv-x="1032" d="M84 -225h436q133 105 133 278q0 106 -58.5 179.5t-172.5 72.5q-58 0 -103 -11.5t-108 -41.5l-72 -35l-37 29l91 735h751l-2 -53l-55 -185h-643l-56 -434l361 189q100 0 181 -29t131 -77.5t77 -108.5t27 -125q0 -54 -12 -102.5t-30.5 -86.5t-51.5 -74t-63.5 -62 t-78.5 -55.5t-85 -49t-93 -47.5l-289 -146h-178v240z" />
<glyph unicode="6" horiz-adv-x="1198" d="M96 547q0 150 46 283.5t141.5 255t255.5 221.5t376 170l21 -64q-91 -40 -163 -84t-124 -88.5t-90.5 -96.5t-63 -101t-40.5 -110.5t-23.5 -117t-11.5 -127.5v-2l315 238q95 0 168.5 -35.5t116.5 -95.5t64.5 -130.5t21.5 -148.5q0 -113 -37.5 -202.5t-109.5 -155 t-167.5 -110.5t-222.5 -77q-221 0 -347 160t-126 418zM420 604q3 -551 196 -551q87 0 134 95t47 282q0 146 -42 224.5t-110 78.5q-27 0 -57.5 -13t-52.5 -28t-60 -45z" />
<glyph unicode="7" horiz-adv-x="1038" d="M41 737v244h915l43 -47l-614 -1397h-225v72l649 1130l-18 -2h-750z" />
<glyph unicode="8" horiz-adv-x="1175" d="M94 322q0 124 78 211t238 157q-285 185 -285 389q0 283 491 387q202 0 324.5 -81.5t122.5 -210.5q0 -117 -80 -203.5t-242 -155.5q181 -114 262.5 -209t81.5 -211q0 -164 -126 -262t-392 -164q-131 0 -238 42.5t-171 123.5t-64 187zM383 352q0 -136 64 -217.5t151 -81.5 q76 0 129 55t53 164q0 52 -17 96t-58 89t-87.5 83t-125.5 95q-109 -109 -109 -283zM422 1204q0 -88 59.5 -165.5t186.5 -168.5q102 108 102 281q0 101 -51 165t-137 64q-71 0 -115.5 -46t-44.5 -130z" />
<glyph unicode="9" horiz-adv-x="1198" d="M76 471q0 90 24.5 165t69 132.5t112 104t147.5 79.5t181 60q148 0 256.5 -73.5t163.5 -202.5t55 -298q0 -149 -46.5 -283t-142.5 -255.5t-255.5 -222t-372.5 -169.5l-22 64q123 55 212.5 119.5t145 129.5t90 145.5t49 155.5t19.5 171v2l-311 -238q-76 0 -139.5 24 t-106 64.5t-72.5 94t-43.5 112t-13.5 119.5zM385 563q0 -151 43 -233t113 -82q27 0 54 11t42.5 22t62.5 47l62 47q-3 553 -197 553q-86 0 -133 -92t-47 -273z" />
<glyph unicode=":" horiz-adv-x="552" d="M154 147l20 123l191 15l71 -15l15 -143l-23 -125l-190 -14l-70 14zM154 854l20 123l191 14l71 -14l15 -143l-23 -125l-190 -15l-70 15z" />
<glyph unicode=";" horiz-adv-x="593" d="M154 854l20 123l191 14l71 -14l15 -143l-23 -125l-190 -15l-70 15zM156 147l16 123l193 17l71 -17l15 -143l-21 -125l-176 -317l-66 28q3 7 33.5 76.5t55 129t24.5 71.5l-133 12z" />
<glyph unicode="&#x3c;" d="M102 545v84l1065 485v-123l-919 -403l919 -404v-123z" />
<glyph unicode="=" d="M104 250v108h1061v-108h-1061zM104 647v109h1061v-109h-1061z" />
<glyph unicode="&#x3e;" d="M102 61v123l920 404l-920 403v123l1065 -485v-84z" />
<glyph unicode="?" horiz-adv-x="915" d="M109 1149v281l245 24q223 -23 338 -118.5t115 -239.5q0 -73 -25.5 -133.5t-74.5 -104.5t-106 -75.5t-132 -59.5l-70 -31l-22 -246h-92l-21 265l74 49q170 124 170 360q0 115 -46 184t-136 76l-95 -231h-122zM188 139l19 117l182 14l68 -14l14 -137l-18 -119l-185 -14 l-67 14z" />
<glyph unicode="@" horiz-adv-x="1910" d="M102 518q0 292 199 523.5t522 332.5l197 58q381 0 590 -163t209 -429q0 -131 -52.5 -251.5t-140 -208.5t-205 -142.5t-243.5 -61.5l-134 129l68 219q-174 -211 -295 -352q-113 6 -194.5 91t-81.5 218q0 168 102 306.5t270 213.5l220 97l260 -125l-168 -737q69 9 138 52 t127 113.5t94 176.5t36 227q0 240 -161 391.5t-421 151.5q-107 0 -211.5 -34t-196.5 -101.5t-162.5 -159.5t-111.5 -217t-41 -265t41.5 -256t110.5 -194.5t161.5 -133t193 -79.5t206.5 -25q76 0 156 20t121 37.5t100 47.5l25 -43q-116 -63 -253 -111.5t-241 -66.5 q-185 0 -341.5 56t-264.5 155t-168 238t-60 302zM750 565q0 -89 37 -143t104 -68l213 238l70 287l-166 106q-70 -36 -122.5 -89t-81 -111t-41.5 -112.5t-13 -107.5z" />
<glyph unicode="A" horiz-adv-x="1478" d="M12 66l125 20l469 1303l252 75l477 -1380l131 -18l-4 -68l-334 4l-286 -4l-4 68l153 20l-131 395h-479l-135 -395l160 -20l-5 -68l-200 4l-183 -4zM406 561h428l-179 547l-22 121z" />
<glyph unicode="B" horiz-adv-x="1320" d="M55 66l146 20v1264l-146 20l6 66l271 -4l473 4q93 0 168.5 -27.5t122 -72.5t71.5 -101t25 -117q0 -140 -112.5 -235t-305.5 -115q242 -9 364 -107t122 -249q0 -184 -142.5 -286t-392.5 -128l-391 4l-273 -4zM516 82l133 -14q76 0 133.5 28t90.5 77t49 107.5t16 125.5 q0 147 -75 232t-197 85h-150v-641zM516 791h131q102 0 163.5 88.5t61.5 224.5q0 121 -54.5 191.5t-160.5 70.5l-141 -14v-561z" />
<glyph unicode="C" horiz-adv-x="1435" d="M70 684q0 348 209.5 542.5t594.5 243.5q248 0 478 -120v-367h-88l-115 266q-105 133 -291 133q-193 0 -314.5 -169.5t-121.5 -477.5q0 -142 30 -265.5t86.5 -216t143.5 -145.5t195 -53q151 0 274 123l131 297h84l-18 -377q-251 -102 -521 -135q-121 0 -232.5 29 t-207 88.5t-166.5 144t-111 202.5t-40 257z" />
<glyph unicode="D" horiz-adv-x="1523" d="M55 66l150 20v1264l-150 20l6 66l277 -4l418 4h4q329 0 511 -178q183 -180 183 -506q0 -157 -42 -286t-126 -229t-220 -161.5t-316 -77.5l-410 4l-279 -4zM520 86l191 -16h8q180 0 288 184q111 188 111 479q0 188 -48 329q-48 142 -148 224q-98 81 -237 80h-7l-158 -14 v-1266z" />
<glyph unicode="E" horiz-adv-x="1280" d="M55 66l146 20v1264l-146 20l6 66l283 -4l852 4l10 -392h-69l-140 310l-481 2v-565l246 4l90 237h70l-11 -276l11 -283h-70l-90 238l-246 4v-637l498 4l143 321h70l-33 -405l-852 4l-281 -4z" />
<glyph unicode="F" horiz-adv-x="1230" d="M55 66l146 20v1264l-146 20l6 66l279 -4l854 4l10 -406h-69l-146 324l-473 2v-596l246 4l90 244h70l-11 -285l11 -289h-70l-90 246l-246 4v-598l201 -20l-4 -68l-365 4l-287 -4z" />
<glyph unicode="G" horiz-adv-x="1515" d="M70 678q0 352 209.5 547.5t601.5 244.5q247 0 473 -124v-363h-86l-115 264q-105 135 -291 135q-201 0 -320.5 -172.5t-119.5 -472.5q0 -192 48 -344t146.5 -245t233.5 -93q117 0 201 76v444l-166 23l4 72l311 -4l270 4l7 -72l-111 -23v-469q-244 -110 -571 -143 q-145 0 -275 48.5t-230.5 137.5t-160 226t-59.5 303z" />
<glyph unicode="H" horiz-adv-x="1564" d="M55 66l146 20v1264l-146 20l6 66l295 -4l287 4l6 -66l-133 -20v-564h537v564l-135 20l4 66l288 -4l293 4l6 -66l-141 -20v-1264l141 -20l-6 -68l-293 4l-288 -4l-4 68l135 20v614h-537v-614l133 -20l-6 -68l-287 4l-295 -4z" />
<glyph unicode="I" horiz-adv-x="714" d="M55 66l146 20v1264l-146 20l6 66l297 -4l295 4l6 -66l-143 -20v-1264l143 -20l-6 -68l-295 4l-297 -4z" />
<glyph unicode="J" horiz-adv-x="763" d="M6 -115h227l13 49q18 71 18 259v1157l-203 20l5 66l356 -4l291 4l4 -66l-137 -20v-1049q0 -79 -21 -152.5t-59.5 -136t-72.5 -105t-81 -91.5l-164 -174h-176v243z" />
<glyph unicode="K" horiz-adv-x="1509" d="M55 66l146 20v1264l-146 20l6 66l295 -4l287 4l4 -66l-131 -20v-590l37 22l592 568l-166 22l4 64l227 -4l222 4l6 -64l-170 -24l-609 -576l162 23l570 -709l100 -20l-4 -68l-209 4l-217 -4l-522 676l-23 45v-633l131 -20l-4 -68l-287 4l-295 -4z" />
<glyph unicode="L" horiz-adv-x="1208" d="M55 66l146 20v1264l-146 20l6 66l285 -4l307 4l6 -66l-143 -20v-1266l451 4l168 326h65l-37 -416l-813 6l-289 -6z" />
<glyph unicode="M" horiz-adv-x="1925" d="M55 1370l6 66l203 -4l299 4l402 -1047l4 -98l417 1145l240 -4l238 4l6 -66l-146 -20v-1264l144 -20l-6 -68l-289 4l-291 -4l-6 68l139 20v1063l12 149l-475 -1304h-174l-440 1171l-39 152v-1231l145 -20l-6 -68l-186 4l-189 -4l-6 68l142 20v1262z" />
<glyph unicode="N" horiz-adv-x="1452" d="M55 66l146 20v1260l-144 24l6 66l168 -4l275 4l645 -904l37 -100v918l-148 20l2 66l193 -4l190 4l7 -66l-144 -20v-1358h-153l-799 1155l-35 110v-1171l148 -20l-3 -68l-194 4l-191 -4z" />
<glyph unicode="O" horiz-adv-x="1615" d="M70 686q0 333 181 520.5t580 263.5q212 0 375.5 -92.5t251.5 -256t88 -371.5q0 -335 -181 -523t-581 -264q-212 0 -375.5 93t-251 257t-87.5 373zM422 758q0 -190 47.5 -346t145 -253.5t227.5 -97.5q119 0 200.5 84t117.5 219.5t36 313.5q0 188 -47 344t-144 254t-227 98 q-119 0 -201 -83.5t-118.5 -219.5t-36.5 -313z" />
<glyph unicode="P" horiz-adv-x="1251" d="M55 66l146 20v1264l-146 20l6 66l293 -4l441 4q123 0 220 -39t157.5 -123.5t60.5 -204.5q0 -57 -16 -106.5t-42 -87.5t-67.5 -71.5t-85 -58t-102.5 -47.5t-111 -39t-119 -34h-174v-539l189 -20l-5 -68l-342 4l-297 -4zM516 709h123q111 0 184.5 93.5t73.5 244.5 q0 145 -66.5 233t-183.5 88l-131 -16v-643z" />
<glyph unicode="Q" horiz-adv-x="1615" d="M70 686q0 333 181 520.5t580 263.5q212 0 375.5 -92.5t251.5 -256t88 -371.5q0 -314 -157.5 -496.5t-503.5 -267.5l260 -47l235 -189l113 -26l-6 -68h-361l-340 307h-2q-212 0 -375.5 93t-251 257t-87.5 373zM422 758q0 -190 47.5 -346t145 -253.5t227.5 -97.5 q119 0 200.5 84t117.5 219.5t36 313.5q0 188 -47 344t-144 254t-227 98q-119 0 -201 -83.5t-118.5 -219.5t-36.5 -313z" />
<glyph unicode="R" horiz-adv-x="1413" d="M55 66l146 20v1264l-146 20l6 66l293 -4l445 4q120 0 215.5 -37t156 -119.5t60.5 -198.5q0 -85 -37.5 -153t-106.5 -115.5t-159.5 -78t-204.5 -46.5l283 -86l307 -514l90 -25l-4 -65l-223 4l-179 -4l-368 651l-19 17h-94v-580l137 -20l-6 -68l-291 4l-295 -4zM516 743 h105q124 0 198 87t74 233q0 140 -67.5 221.5t-170.5 83.5l-139 -16v-609z" />
<glyph unicode="S" horiz-adv-x="1146" d="M70 455h104l92 -226q135 -161 293 -161q108 0 174 61.5t66 163.5q0 78 -44.5 138.5t-144.5 115.5l-262 151q-127 71 -191.5 152t-64.5 208q0 146 122 252q124 108 390 160q219 0 414 -98v-344h-88l-96 242q-103 106 -238 106q-106 0 -168.5 -52.5t-62.5 -141.5 q0 -73 43 -125t131 -101l264 -149q149 -84 211.5 -169t62.5 -210q0 -168 -133.5 -283t-415.5 -182q-225 0 -436 133z" />
<glyph unicode="T" horiz-adv-x="1239" d="M27 1018v418l600 -4l585 4v-418h-67l-139 336l-228 2v-1270l197 -20l-6 -68l-348 4l-353 -4l-4 68l199 20v1270l-230 -2l-137 -336h-69z" />
<glyph unicode="U" horiz-adv-x="1439" d="M27 1370l4 66l282 -4l308 4l6 -66l-140 -20v-858q0 -182 88 -289t248 -107q151 0 238.5 108.5t87.5 289.5v856l-152 20l4 66l211 -4l197 4l6 -66l-145 -20v-852q0 -81 -13.5 -146t-47.5 -127t-89.5 -109.5t-143.5 -87t-206 -65.5q-307 0 -453.5 143t-146.5 394v850z" />
<glyph unicode="V" horiz-adv-x="1458" d="M10 1370l6 66l342 -4l265 4l4 -66l-148 -20l348 -1026l7 -88l376 1114l-159 20l6 66l205 -4l182 4l4 -66l-131 -20l-463 -1321l-225 -62l-494 1383z" />
<glyph unicode="W" horiz-adv-x="2119" d="M18 1370l5 66l309 -4l282 4l7 -66l-152 -20l301 -961l6 -94l230 776l-93 279l-104 20l6 66l301 -4l279 4l4 -66l-150 -20l301 -965l11 -90l313 1055l-162 20l4 66l199 -4l182 4l6 -66l-127 -20l-411 -1327l-199 -52l-297 908l-6 82l-279 -938l-196 -52l-455 1379z" />
<glyph unicode="X" horiz-adv-x="1505" d="M20 66l179 20l417 576l-444 688l-121 22l4 64l277 -4l334 4l4 -66l-133 -20l276 -437l21 -55l335 492l-172 20l7 66l241 -4l201 4l4 -66l-162 -20l-391 -553l467 -711l115 -20l-6 -68l-277 4l-330 -4l-6 68l135 20l-290 451l-25 59l-354 -510l166 -20l-5 -68l-243 4 l-217 -4z" />
<glyph unicode="Y" horiz-adv-x="1458" d="M10 1370l6 66l314 -4l317 4l6 -66l-155 -20l344 -637l6 -60l362 697l-163 20l6 66l211 -4l178 4l6 -66l-133 -20l-416 -779l2 -485l209 -20l-6 -68l-363 4l-366 -4l-4 68l213 20v477l-441 787z" />
<glyph unicode="Z" horiz-adv-x="1210" d="M33 66l733 1241l57 49l-506 -4l-147 -322h-74v404h1053l12 -58l-737 -1251l-55 -47l530 4l180 340h74l-37 -422h-1071z" />
<glyph unicode="[" horiz-adv-x="669" d="M162 -473v1937l170 -2l266 2v-65l-240 -17q-4 -608 -4 -786l4 -985l240 -19v-65l-264 4z" />
<glyph unicode="\" horiz-adv-x="884" d="M-74 1470h105l927 -1941h-108z" />
<glyph unicode="]" horiz-adv-x="657" d="M72 -408l239 19q4 764 4 975l-4 796l-239 17v65l270 -2l154 2v-1937l-152 4l-272 -4v65z" />
<glyph unicode="^" horiz-adv-x="784" d="M102 942l258 502h64l258 -502h-125l-164 344l-164 -344h-127z" />
<glyph unicode="_" horiz-adv-x="1157" d="M10 -141h1137v-99h-1137v99z" />
<glyph unicode="`" horiz-adv-x="1024" d="M307 1501h258l97 -360h-89z" />
<glyph unicode="a" horiz-adv-x="1052" d="M59 233q0 136 101 218l454 139v151q0 91 -23 128.5t-91 37.5q-54 0 -109 -24l-35 -236h-262v189l426 172q218 0 304.5 -66t86.5 -244v-422q0 -96 27 -163l96 6l8 -66l-358 -73l-57 165l-258 -176q-136 0 -223 70.5t-87 193.5zM354 289q0 -73 32 -114.5t77 -41.5 q51 0 108 41l43 29v325l-196 -77q-64 -58 -64 -162z" />
<glyph unicode="b" horiz-adv-x="1153" d="M20 1399l328 57l80 4v-653l287 201q155 0 263.5 -122.5t108.5 -326.5q0 -495 -540 -590q-228 0 -406 82v1288l-112 -10zM428 115q49 -64 137 -64q96 0 155.5 107.5t59.5 298.5q0 182 -45.5 268t-124.5 86q-58 0 -143 -57l-39 -27v-612z" />
<glyph unicode="c" horiz-adv-x="964" d="M61 451q0 117 41.5 213.5t115 163t164.5 111t200 69.5q84 0 168 -30t143 -77v-244h-234l-59 242q-28 19 -61 19q-80 0 -138.5 -87.5t-58.5 -248.5q0 -174 90 -288t234 -114q106 0 217 72l30 -57q-87 -78 -170.5 -130.5t-195.5 -95.5q-213 0 -349.5 132t-136.5 350z" />
<glyph unicode="d" horiz-adv-x="1179" d="M63 446q0 230 119 373t348 189q45 0 100.5 -16t92.5 -40v385l-113 -8l-8 66l320 61l88 4v-1196q0 -59 6 -90.5t24 -67.5l97 5l8 -66l-350 -65l-62 186l-256 -197q-183 0 -298.5 133.5t-115.5 343.5zM373 526q0 -164 49.5 -261t134.5 -97q36 0 64.5 11t66.5 38l35 27v604 q-48 59 -131 59q-106 -1 -162.5 -102.5t-56.5 -278.5z" />
<glyph unicode="e" horiz-adv-x="1001" d="M59 451q0 213 127 356t369 201q182 0 282.5 -103t100.5 -278v-97h-600q10 -161 97.5 -253.5t223.5 -92.5q123 0 246 78l35 -59q-91 -82 -179 -135t-208 -99q-137 0 -249 57.5t-178.5 168.5t-66.5 256zM334 621q0 -4 1 -12.5t1 -12.5l309 10v41q0 133 -31.5 198.5 t-113.5 65.5q-78 0 -120.5 -75.5t-45.5 -214.5z" />
<glyph unicode="f" horiz-adv-x="753" d="M49 868v41l35 41h106v23q0 84 32.5 148.5t99.5 125.5l225 207h252v-201h-277l-20 -36q-25 -63 -25 -216v-55h258v-78h-258v-782l197 -20l-4 -68l-361 4l-233 -4l-4 68l118 20v782h-141z" />
<glyph unicode="g" horiz-adv-x="1116" d="M35 -215l239 162q-192 52 -192 219v45l215 147q-98 40 -154.5 117t-56.5 174q1 139 109 221t331 136q135 0 228 -50.5t137 -138.5l92 189h123v-228h-172l-25 -18q15 -30 15 -70q-1 -142 -107.5 -225t-331.5 -141q-81 0 -133 16l-65 -76q0 -82 98 -82h414q118 0 183 -62 t65 -159q0 -64 -27.5 -121t-74.5 -103.5t-119 -90t-151.5 -78.5t-180.5 -70q-459 0 -459 246v41zM270 -188q0 -70 65 -114q64 -42 174 -42h5h88q119 0 189.5 53t70.5 125q0 50 -34 78.5t-103 28.5h-389q-66 -63 -66 -129zM360 688q0 -287 158 -287q129 0 129 236 q0 293 -158 293q-129 0 -129 -242z" />
<glyph unicode="h" horiz-adv-x="1241" d="M59 1399l328 57l80 4v-661l336 209q156 0 221 -68q33 -36 47 -92t14 -150v-612l121 -20l-6 -68l-254 4l-231 -4l-6 68l82 20v610q0 123 -103 123q-64 0 -168 -69l-53 -31v-633l84 -20l-6 -68l-223 4l-248 -4l-6 68l112 20v1253l-112 -8z" />
<glyph unicode="i" horiz-adv-x="626" d="M61 920l328 67l80 2v-903l117 -20l-4 -68l-254 4l-254 -4l-4 68l112 20v780l-112 -14zM186 1313l27 114l186 13l68 -13l14 -135l-26 -121l-187 -12l-65 12z" />
<glyph unicode="j" horiz-adv-x="598" d="M-51 -244h211l10 45q18 92 18 246v819l-112 -14l-8 68l327 67l80 2v-883q0 -134 -42 -218.5t-132 -172.5l-197 -200h-155v241zM190 1313l25 114l186 13l70 -13l12 -135l-24 -121l-187 -12l-67 12z" />
<glyph unicode="k" horiz-adv-x="1208" d="M61 1399l330 57l80 4v-901l39 21l387 313l-125 20v64l195 -2l182 2l6 -64l-131 -20l-414 -322l138 4l374 -491l76 -18l-8 -68l-203 4l-164 -4l-329 485l-23 49v-446l94 -20l-4 -68l-244 4l-241 -4l-4 68l112 20v1253l-114 -10z" />
<glyph unicode="l" horiz-adv-x="614" d="M59 1399l328 57l80 4v-1374l117 -20l-6 -68l-252 4l-252 -4l-6 68l112 20v1253l-112 -10z" />
<glyph unicode="m" horiz-adv-x="1826" d="M61 918l326 69l78 2l6 -190l315 209q136 0 203 -52t78 -159l322 211q153 0 221 -68q34 -35 47.5 -89.5t13.5 -148.5v-616l121 -20l-4 -68l-250 4l-233 -4l-7 68l78 20v610q0 123 -96 123q-63 0 -164 -67l-43 -33v-633l76 -20l-6 -68l-221 4l-215 -4l-7 68l76 20v610 q0 123 -96 123q-58 0 -162 -67l-45 -33v-633l78 -20l-4 -68l-230 4l-239 -4l-6 68l114 20v778l-116 -10z" />
<glyph unicode="n" horiz-adv-x="1245" d="M61 918l330 69l78 2l2 -190l336 209q155 0 219 -64q35 -35 49.5 -89t14.5 -148v-621l120 -20l-4 -68l-256 4l-231 -4l-6 68l80 20v610q0 123 -101 123q-66 0 -170 -69l-49 -33v-631l82 -20l-4 -68l-225 4l-248 -4l-6 68l114 20v778l-116 -14z" />
<glyph unicode="o" horiz-adv-x="1120" d="M59 463q0 99 28 180.5t75 139t117.5 102.5t147 73t171.5 50q200 0 331.5 -137.5t131.5 -356.5q0 -123 -41 -217.5t-118 -158t-170 -103.5t-214 -66q-197 0 -328 138.5t-131 355.5zM365 551q0 -233 62 -363.5t155 -130.5q81 0 125.5 91.5t44.5 275.5q0 239 -62 366.5 t-155 127.5q-170 0 -170 -367z" />
<glyph unicode="p" horiz-adv-x="1157" d="M31 918l315 67l76 4l14 -182l277 201q163 0 275 -127.5t112 -331.5q0 -238 -119.5 -384t-374.5 -196q-100 0 -168 43v-401l178 -19l-4 -65l-313 4l-256 -4l-4 65l113 19v1255l-113 -12zM438 129q57 -70 142 -70q98 2 154.5 105.5t56.5 284.5q0 175 -49 268.5t-134 93.5 q-34 0 -62.5 -13.5t-70.5 -43.5l-37 -25v-600z" />
<glyph unicode="q" horiz-adv-x="1140" d="M63 432q0 234 134 383.5t378 192.5q177 0 318 -74l70 65h49v-1388l118 -19l-6 -65l-254 4l-317 -4l-6 65l178 19v549l-256 -191q-180 0 -293 126t-113 337zM373 526q0 -163 48.5 -263.5t139.5 -100.5q23 0 45.5 7t34.5 13.5t35 20.5l49 33v606q-44 73 -133 73 q-101 0 -160 -102t-59 -287z" />
<glyph unicode="r" horiz-adv-x="862" d="M61 918l310 69l71 4l19 -332l196 338h177v-284h-238q-12 -5 -30.5 -24t-43 -47.5t-30.5 -35.5l-23 -26v-494l197 -20l-7 -68l-327 4l-258 -4l-4 68l114 20v778l-114 -10z" />
<glyph unicode="s" horiz-adv-x="876" d="M68 344h84l90 -199q93 -90 186 -90q67 0 106 33.5t39 85.5q0 51 -28.5 83t-108.5 79l-176 106q-84 47 -132 106.5t-48 147.5q0 111 91 187t294 125q108 0 178 -18.5t141 -51.5v-274h-77l-95 194q-68 68 -155 68q-59 0 -96 -30.5t-37 -78.5t32 -81t117 -81l176 -102 q89 -51 131 -111q41 -59 41 -143q0 -129 -96 -208t-297 -124q-83 0 -178 23t-162 57z" />
<glyph unicode="t" horiz-adv-x="770" d="M10 872v37l41 41h121v140l238 153h47v-297h268v-74h-268v-602q0 -60 29 -93.5t79 -33.5q68 0 164 47l29 -59l-309 -162q-133 0 -206 68.5t-73 206.5v628h-160z" />
<glyph unicode="u" horiz-adv-x="1191" d="M27 922l321 63l90 4v-696q0 -69 27 -101t86 -32q54 0 143 59l47 29v616l-106 -10l-6 68l309 63l90 4v-713q0 -97 25 -167l88 4l6 -66l-348 -65l-47 188l-318 -201q-161 0 -227 66q-36 36 -50 91t-14 150v588l-110 -10z" />
<glyph unicode="v" horiz-adv-x="1120" d="M10 913l6 64l265 -2l243 2l4 -64l-106 -20l221 -627l16 -100l240 727l-108 20l4 64l174 -2l137 2l4 -64l-104 -20l-308 -860l-237 -70l-357 930z" />
<glyph unicode="w" horiz-adv-x="1755" d="M10 913l6 64l254 -2l234 2l6 -64l-102 -20l206 -639l15 -98l198 594l-49 143l-84 20l6 64l248 -2l234 2l6 -64l-103 -20l207 -641l13 -96l235 737l-106 20l6 64l159 -2l140 2l6 -64l-105 -20l-286 -860l-248 -68l-211 600l-10 86l-207 -618l-248 -68l-330 928z" />
<glyph unicode="x" horiz-adv-x="1171" d="M27 66l120 16l306 358l-318 455l-100 16l6 66l254 -2l266 2l4 -66l-80 -16l162 -242l15 -45l225 287l-103 16l4 66l173 -2l161 2l6 -66l-122 -16l-275 -334l336 -479l94 -16l-6 -68l-242 4l-274 -4l-6 68l88 16l-184 260l-21 45l-244 -305l123 -16l-6 -68l-190 4l-166 -4 z" />
<glyph unicode="y" horiz-adv-x="1140" d="M10 913l6 64l265 -2l243 2l6 -64l-108 -18l227 -637l21 -102l241 737l-108 20l4 64l170 -2l147 2l6 -64l-108 -20l-295 -819l-254 -555h-301v264h266l213 313l-221 -80l-326 879z" />
<glyph unicode="z" horiz-adv-x="1011" d="M57 51l527 815l51 47l-322 -10l-127 -264h-69v338h823l18 -49l-518 -817l-49 -45l344 10l139 289h76l-28 -365h-848z" />
<glyph unicode="{" horiz-adv-x="716" d="M96 524v15q39 15 65 35.5t40 40.5t21 52.5t8 55t1 65.5v390q0 127 90 206.5t220 79.5h98v-65h-78q-136 0 -133 -215l6 -383q1 -42 -4 -74.5t-20 -68t-47.5 -64t-81.5 -49.5l153 -115l-6 -620q-1 -115 37 -165.5t100 -50.5h76v-65h-109q-131 0 -216 79t-85 208v583z" />
<glyph unicode="|" horiz-adv-x="548" d="M225 -502v1972h99v-1972h-99z" />
<glyph unicode="}" horiz-adv-x="706" d="M66 1399v65h104q131 0 219 -79t88 -207l-2 -510l135 -121v-15q-32 -13 -56 -28.5t-38.5 -36t-23 -37.5t-12 -45.5t-4.5 -47.5t-1 -54l2 -467q0 -128 -87 -207.5t-216 -79.5h-104v65h75q62 0 99.5 50.5t34.5 165.5q0 29 -3.5 237t-3.5 223q0 43 5 74.5t20 66.5t47.5 63.5 t81.5 51.5l-154 111l7 547q1 115 -36.5 165t-99.5 50h-77z" />
<glyph unicode="~" horiz-adv-x="1370" d="M102 416l76 170l201 65l729 -129l94 125h66l-78 -172l-195 -63l-733 129l-94 -125h-66z" />
<glyph unicode="&#xa1;" horiz-adv-x="610" d="M152 -481l22 639l76 356h112l74 -354l21 -641h-305zM166 854l18 119l185 12l67 -12l13 -139l-19 -117l-182 -15l-68 15z" />
<glyph unicode="&#xa2;" horiz-adv-x="991" d="M82 451q0 102 32.5 189t91.5 151t133 110t165 76v145h94v-118l12 4q176 -3 310 -107v-244h-236l-57 242q-29 19 -64 19q-82 0 -141.5 -87.5t-59.5 -248.5q0 -175 91 -288.5t239 -113.5q106 0 217 72l31 -57q-30 -27 -70 -56t-83.5 -55.5t-76.5 -45.5t-70.5 -39.5 t-43.5 -23.5v-139h-94v139q-187 22 -303.5 149t-116.5 327z" />
<glyph unicode="&#xa3;" horiz-adv-x="1159" d="M86 53l156 56v579h-156v33l66 49h90v254q0 326 499 440q201 0 293 -86v-278h-90l-70 211q-32 35 -65.5 52t-85.5 17q-193 0 -193 -274v-336h308v-82h-308v-338q0 -85 -13.5 -144.5t-27 -81t-34.5 -42.5l422 4l122 254h78l-24 -342l-666 4l-295 -4z" />
<glyph unicode="&#xa4;" d="M168 332l125 129q-84 111 -84 256q0 153 98 272q-7 8 -68 70t-67 69l68 68l139 -137q118 90 260 90q135 0 258 -88l135 133l70 -70l-133 -133q102 -120 102 -274q0 -141 -92 -260l125 -121l-70 -70l-121 119q-122 -98 -274 -98q-156 0 -277 100l-124 -125zM305 717 q0 -138 98 -238t236 -100q136 0 235 100t99 238q0 139 -98.5 239.5t-235.5 100.5t-235.5 -100.5t-98.5 -239.5z" />
<glyph unicode="&#xa5;" horiz-adv-x="1429" d="M41 1372l6 66l313 -4l318 4l4 -66l-152 -22l293 -639l13 -72l315 711l-164 22l6 66l207 -4l184 2l5 -64l-132 -20l-368 -783v-14h260v-68h-264v-137h264v-67h-264v-197l209 -20l-4 -68l-361 4l-362 -4l-5 68l213 20v197h-249v67h249v137h-249v68h245v6l-397 791z" />
<glyph unicode="&#xa6;" horiz-adv-x="548" d="M225 379h99v-881h-99v881zM225 590v880h99v-880h-99z" />
<glyph unicode="&#xa7;" horiz-adv-x="1159" d="M82 489q0 108 68 189.5t182 124.5q-139 124 -139 274q0 151 112.5 249t323.5 142q219 0 325 -98v-254h-92l-65 195q-60 80 -172 80q-88 0 -141.5 -47t-53.5 -138q0 -85 55.5 -157.5t186.5 -161.5l405 -264v-88q0 -283 -264 -416q3 -3 39 -32.5t63 -54.5t31 -34 q10 -27 10 -96q0 -163 -113 -259.5t-331 -144.5q-97 0 -189 31.5t-147 73.5v268h90l53 -182q19 -23 33.5 -38t40.5 -34.5t59 -30t72 -10.5q85 0 140.5 58.5t54.5 168.5q0 11 -8.5 25.5t-25 31.5t-35.5 34.5t-45 37.5t-47.5 36t-49.5 36t-44.5 31t-39 26.5t-27.5 18.5 q-150 104 -232.5 201.5t-82.5 207.5zM305 608q0 -31 8 -58.5t28.5 -55t39 -48.5t57 -51t64 -48l76.5 -54l180 -123q102 78 102 217v31l-307 211q-143 101 -170 125q-78 -48 -78 -146z" />
<glyph unicode="&#xa8;" horiz-adv-x="1024" d="M197 1335l22 97l146 10l59 -10l14 -115l-24 -100l-144 -13l-61 13zM582 1335l22 97l144 10l61 -10l14 -115l-24 -100l-146 -13l-59 13z" />
<glyph unicode="&#xa9;" horiz-adv-x="1722" d="M102 729q0 158 54 286.5t154.5 218.5t238 147.5t309.5 82.5q123 -1 236 -34t208.5 -97.5t166.5 -154t111 -211.5t40 -262q0 -158 -54 -286.5t-154.5 -218.5t-238.5 -148t-311 -83q-153 2 -290 54t-242 147t-166.5 239.5t-61.5 319.5zM246 729q0 -135 40 -250.5 t104 -193.5t145.5 -133.5t163.5 -81t159 -25.5q124 0 235.5 45.5t197 128t136 208.5t50.5 278q0 136 -40 251.5t-104.5 193.5t-146 133.5t-164.5 80.5t-160 25q-123 0 -234 -45.5t-196 -128t-135.5 -208.5t-50.5 -278zM434 696q0 389 481 449q157 0 287 -74v-213h-53 l-74 158q-70 78 -168 78q-111 0 -179.5 -95t-68.5 -270q0 -169 67.5 -277t188.5 -108q85 0 160 68l84 178h53l-12 -219q-162 -67 -311 -80q-92 0 -173.5 26t-144.5 75.5t-100 128t-37 175.5z" />
<glyph unicode="&#xaa;" horiz-adv-x="935" d="M82 850q0 104 82 172l362 111v120q0 71 -19 101t-75 30q-45 0 -86 -16l-27 -188h-208v149l338 135q101 0 157.5 -12.5t89.5 -42.5q62 -56 62 -190v-336q0 -63 22 -131l78 4l6 -51l-284 -60l-48 135l-204 -141q-108 0 -177 56t-69 155zM317 893q0 -59 24.5 -92t61.5 -33 q39 0 86 33l37 24v258l-159 -61q-50 -44 -50 -129z" />
<glyph unicode="&#xab;" horiz-adv-x="985" d="M31 481l375 451h108l-264 -453l264 -448h-113zM440 481l375 451h109l-265 -453l265 -448h-113z" />
<glyph unicode="&#xac;" d="M106 637v108h1055v-376h-106v268h-949z" />
<glyph unicode="&#xad;" horiz-adv-x="747" d="M66 518v117h616v-117h-616z" />
<glyph unicode="&#xae;" horiz-adv-x="1218" d="M92 899q0 214 137.5 341.5t378.5 162.5q140 -1 256.5 -61t189 -180t72.5 -279q0 -214 -137.5 -341.5t-376.5 -162.5q-105 1 -199 36.5t-165.5 100.5t-113.5 164t-42 219zM184 899q0 -95 28 -175.5t72.5 -134t101 -91.5t113 -55t109.5 -17q85 0 161.5 30.5t135.5 87 t94 144.5t35 195q0 96 -27.5 177t-72 135t-101 91.5t-112.5 54.5t-109 17q-85 0 -162 -31t-136.5 -87.5t-94.5 -145t-35 -195.5zM348 647l53 6v484l-53 6l2 28l119 -2l195 2q75 0 125.5 -35.5t50.5 -101.5q0 -62 -56.5 -100t-154.5 -49l125 -35l118 -195l35 -8v-31l-102 2 l-76 -2l-141 252l-6 6h-39v-221l53 -6l-2 -31l-121 2l-123 -2zM543 907h39q48 0 77 33t29 88q0 53 -27 84t-69 31l-49 -4v-232z" />
<glyph unicode="&#xaf;" horiz-adv-x="1024" d="M213 1253v129h598v-129h-598z" />
<glyph unicode="&#xb0;" horiz-adv-x="872" d="M113 1221q0 127 79.5 201t245.5 120q137 0 229.5 -94t92.5 -227q0 -132 -76.5 -209t-245.5 -115q-138 0 -231.5 95t-93.5 229zM236 1219q0 -88 59 -147.5t143 -59.5q85 0 142 59t57 148q0 90 -58 150.5t-141 60.5q-86 0 -144 -60t-58 -151z" />
<glyph unicode="&#xb1;" d="M100 0v109h1063v-109h-1063zM102 741v107h473v481h109v-481h475v-107h-475v-467h-109v467h-473z" />
<glyph unicode="&#xb2;" horiz-adv-x="749" d="M31 856l198 203q211 211 211 366q0 61 -26 99.5t-70 38.5q-32 0 -65 -11l-43 -178h-170v152l313 100q134 0 207 -56.5t73 -146.5q0 -103 -74.5 -189t-234.5 -183l-178 -107l98 25h408v-39l-45 -111h-580z" />
<glyph unicode="&#xb3;" horiz-adv-x="692" d="M51 1391v141l320 94q119 0 172 -40.5t53 -100.5q0 -124 -223 -178q130 -4 194 -57t64 -120q0 -18 -4 -34.5t-9.5 -29.5t-18 -27t-21.5 -23.5t-28.5 -22t-31 -19.5t-36.5 -19l-37.5 -18t-42 -19t-42.5 -19l-182 -84h-117v156h316q39 51 39 108q0 62 -49 101t-138 39 l-10 32l62 37q61 29 85.5 64.5t24.5 93.5q0 52 -24 82.5t-62 30.5q-25 0 -47 -11l-41 -157h-166z" />
<glyph unicode="&#xb4;" horiz-adv-x="1024" d="M309 1141l94 360h259l-267 -360h-86z" />
<glyph unicode="&#xb5;" d="M133 -471v1448h293v-676q0 -141 115 -141q47 0 137 57l49 31v729h287v-815q0 -71 123 -101l-9 -61h-297l-96 168l-282 -199q-163 0 -220 84v-121l181 -403h-281z" />
<glyph unicode="&#xb6;" horiz-adv-x="1062" d="M61 1085q0 58 26.5 109.5t76.5 94.5t105 76.5t128 68.5h584v-74l-102 -19v-1669h-107v1676h-242v-1676h-106v1108q-94 0 -175.5 34t-134.5 105.5t-53 165.5z" />
<glyph unicode="&#xb7;" horiz-adv-x="501" d="M113 836l14 112l178 15l68 -15l16 -131l-16 -117l-178 -12l-70 12z" />
<glyph unicode="&#xb8;" horiz-adv-x="1024" d="M299 -504l63 98h156q49 40 49 115q0 60 -36.5 87.5t-90.5 31.5l148 211l51 -19l-72 -112q78 -4 124 -45t44 -103q0 -43 -19 -78t-55 -61t-65.5 -41t-73.5 -33l-131 -51h-92z" />
<glyph unicode="&#xb9;" horiz-adv-x="602" d="M51 1499l303 119h72v-741l156 -15l-2 -43l-254 2l-258 -2l-2 43l155 15v608l8 24l-39 -22l-120 -29z" />
<glyph unicode="&#xba;" horiz-adv-x="931" d="M72 1036q0 97 32 171.5t92.5 124t133 81t166.5 51.5q158 0 261 -107.5t103 -279.5q0 -97 -32 -172t-92.5 -125t-133.5 -81.5t-168 -51.5q-157 0 -259.5 108t-102.5 281zM311 1104q0 -183 48.5 -285t123.5 -102q65 0 100 72t35 217q0 188 -49 288.5t-123 100.5 q-135 0 -135 -291z" />
<glyph unicode="&#xbb;" horiz-adv-x="985" d="M61 31l263 448l-263 453h111l373 -451l-371 -450h-113zM471 31l264 448l-264 453h111l372 -451l-370 -450h-113z" />
<glyph unicode="&#xbc;" horiz-adv-x="1710" d="M72 1325l303 119h71v-742l156 -14l-2 -43l-254 2l-258 -2l-2 43l156 14v609l8 24l-39 -22l-121 -29zM385 -102l793 1556h102l-788 -1556h-107zM954 270l383 518h205v-49l-506 -458l45 12h219v125l164 108l25 2v-235h149v-80h-149v-213h-189v213h-311z" />
<glyph unicode="&#xbd;" horiz-adv-x="1722" d="M72 1325l303 119h71v-742l156 -14l-2 -43l-254 2l-258 -2l-2 43l156 14v609l8 24l-41 -22l-119 -29zM385 -102l793 1556h102l-788 -1556h-107zM1004 37l198 203q209 212 209 366q0 62 -26 99.5t-70 37.5q-38 0 -68 -10l-39 -178h-174v152l316 100q135 0 208.5 -56.5 t73.5 -146.5q0 -103 -76 -189t-235 -184l-178 -106l102 25h406v-39l-47 -111h-578z" />
<glyph unicode="&#xbe;" horiz-adv-x="1730" d="M72 1217v141l319 94q119 0 172 -40.5t53 -100.5q0 -124 -223 -178q130 -4 194 -57t64 -120q0 -20 -3.5 -37.5t-14.5 -33.5t-19 -27.5t-29 -26t-31 -22.5t-39.5 -22t-40.5 -19.5t-46.5 -21.5t-46.5 -21l-182 -84h-117v156h315q39 51 39 108q0 62 -48.5 100.5t-137.5 38.5 l-10 33l61 37q61 29 86 65t25 93q0 51 -24 81.5t-62 30.5q-27 0 -47 -10l-41 -157h-166zM406 -102l792 1556h102l-788 -1556h-106zM975 270l385 518h203v-49l-506 -458l43 12h221v125l166 106l24 4v-235h148v-80h-148v-213h-190v213h-311z" />
<glyph unicode="&#xbf;" horiz-adv-x="864" d="M41 -129q0 73 26 133t75 104t105.5 75.5t131.5 60.5l70 30l22 238h96l15 -256l-74 -49q-168 -126 -168 -363q0 -116 45.5 -184t136.5 -74l94 230h125v-279l-247 -26q-222 23 -337.5 119.5t-115.5 240.5zM377 848l20 119l183 14l67 -14l12 -140l-18 -116l-182 -15l-68 15z " />
<glyph unicode="&#xc0;" horiz-adv-x="1478" d="M12 66l125 20l469 1303l252 75l477 -1380l131 -18l-4 -68l-334 4l-286 -4l-4 68l153 20l-131 395h-479l-135 -395l160 -20l-5 -68l-200 4l-183 -4zM406 561h428l-179 547l-22 121zM428 1853h268l99 -276h-101z" />
<glyph unicode="&#xc1;" horiz-adv-x="1478" d="M12 66l125 20l469 1303l252 75l477 -1380l131 -18l-4 -68l-334 4l-286 -4l-4 68l153 20l-131 395h-479l-135 -395l160 -20l-5 -68l-200 4l-183 -4zM406 561h428l-179 547l-22 121zM664 1577l98 276h268l-266 -276h-100z" />
<glyph unicode="&#xc2;" horiz-adv-x="1478" d="M12 66l125 20l469 1303l252 75l477 -1380l131 -18l-4 -68l-334 4l-286 -4l-4 68l153 20l-131 395h-479l-135 -395l160 -20l-5 -68l-200 4l-183 -4zM406 561h428l-179 547l-22 121zM410 1577l249 281h148l250 -281h-107l-196 131l-21 23l-22 -23l-195 -131h-106z" />
<glyph unicode="&#xc3;" horiz-adv-x="1478" d="M12 66l125 20l469 1303l252 75l477 -1380l131 -18l-4 -68l-334 4l-286 -4l-4 68l153 20l-131 395h-479l-135 -395l160 -20l-5 -68l-200 4l-183 -4zM393 1565l64 243l123 37l397 -125l72 125h49l-64 -246l-123 -32l-397 127l-74 -129h-47zM406 561h428l-179 547l-22 121z " />
<glyph unicode="&#xc4;" horiz-adv-x="1478" d="M12 66l125 20l469 1303l252 75l477 -1380l131 -18l-4 -68l-334 4l-286 -4l-4 68l153 20l-131 395h-479l-135 -395l160 -20l-5 -68l-200 4l-183 -4zM385 1708l23 98l143 13l59 -13l15 -114l-23 -101l-143 -10l-62 10zM406 561h428l-179 547l-22 121zM856 1708l23 98 l143 13l61 -13l13 -114l-23 -101l-143 -10l-62 10z" />
<glyph unicode="&#xc5;" horiz-adv-x="1478" d="M12 66l125 20l469 1303l252 75l477 -1380l131 -18l-4 -68l-334 4l-286 -4l-4 68l153 20l-131 395h-479l-135 -395l160 -20l-5 -68l-200 4l-183 -4zM406 561h428l-179 547l-22 121zM492 1718q0 48 18 84.5t55 61t71 38.5t89 31q102 0 166.5 -50t64.5 -161 q0 -41 -12.5 -73.5t-31 -53t-51.5 -38.5t-61.5 -28t-72.5 -22q-98 0 -166.5 51t-68.5 160zM588 1718q0 -60 38.5 -97.5t98.5 -37.5t99.5 37.5t39.5 97.5q0 61 -39.5 100.5t-99.5 39.5t-98.5 -39.5t-38.5 -100.5z" />
<glyph unicode="&#xc6;" horiz-adv-x="2072" d="M10 63l127 21l864 1352l181 -2l803 2l10 -381h-64l-139 299l-457 2v-627l226 4l88 238h63l-10 -277l10 -280h-63l-88 235l-226 4v-575l469 4l148 311h63l-35 -395l-806 4l-289 -4l-4 68l143 20v567h-416l-352 -567l154 -23l-4 -63l-211 4l-179 -4zM651 725h373v610z" />
<glyph unicode="&#xc7;" horiz-adv-x="1435" d="M70 684q0 348 209.5 542.5t594.5 243.5q248 0 478 -120v-367h-88l-115 266q-105 133 -291 133q-193 0 -314.5 -169.5t-121.5 -477.5q0 -142 30 -265.5t86.5 -216t143.5 -145.5t195 -53q151 0 274 123l131 297h84l-18 -377q-244 -101 -498 -131q-3 -1 -13 -2t-14 -2 l-41 -55q76 -4 123 -45t47 -103q-1 -43 -20 -78t-55.5 -61t-66 -41t-73.5 -33l-131 -51h-92l61 98h158q49 40 49 115q0 60 -36.5 87.5t-90.5 31.5l103 139q-141 10 -264 61t-218.5 138.5t-150.5 221t-55 296.5z" />
<glyph unicode="&#xc8;" horiz-adv-x="1280" d="M55 66l146 20v1264l-146 20l6 66l283 -4l852 4l10 -392h-69l-140 310l-481 2v-565l246 4l90 237h70l-11 -276l11 -283h-70l-90 238l-246 4v-637l498 4l143 321h70l-33 -405l-852 4l-281 -4zM403 1853h269l98 -276h-100z" />
<glyph unicode="&#xc9;" horiz-adv-x="1280" d="M55 66l146 20v1264l-146 20l6 66l283 -4l852 4l10 -392h-69l-140 310l-481 2v-565l246 4l90 237h70l-11 -276l11 -283h-70l-90 238l-246 4v-637l498 4l143 321h70l-33 -405l-852 4l-281 -4zM596 1577l98 276h269l-267 -276h-100z" />
<glyph unicode="&#xca;" horiz-adv-x="1280" d="M55 66l146 20v1264l-146 20l6 66l283 -4l852 4l10 -392h-69l-140 310l-481 2v-565l246 4l90 237h70l-11 -276l11 -283h-70l-90 238l-246 4v-637l498 4l143 321h70l-33 -405l-852 4l-281 -4zM360 1577l250 281h148l250 -281h-107l-196 131l-21 23l-20 -23l-197 -131h-107z " />
<glyph unicode="&#xcb;" horiz-adv-x="1280" d="M55 66l146 20v1264l-146 20l6 66l283 -4l852 4l10 -392h-69l-140 310l-481 2v-565l246 4l90 237h70l-11 -276l11 -283h-70l-90 238l-246 4v-637l498 4l143 321h70l-33 -405l-852 4l-281 -4zM338 1708l22 98l146 13l59 -13l15 -114l-25 -101l-143 -10l-60 10zM809 1708 l22 98l146 13l59 -13l15 -114l-25 -101l-143 -10l-60 10z" />
<glyph unicode="&#xcc;" horiz-adv-x="716" d="M57 66l146 20v1264l-146 20l6 66l297 -4l295 4l7 -66l-144 -20v-1264l144 -20l-7 -68l-295 4l-297 -4zM88 1853h270l99 -276h-101z" />
<glyph unicode="&#xcd;" horiz-adv-x="716" d="M57 66l146 20v1264l-146 20l6 66l297 -4l295 4l7 -66l-144 -20v-1264l144 -20l-7 -68l-295 4l-297 -4zM303 1577l100 276h267l-264 -276h-103z" />
<glyph unicode="&#xce;" horiz-adv-x="716" d="M37 1577l250 281h145l252 -281h-106l-197 131l-23 23l-18 -23l-197 -131h-106zM57 66l146 20v1264l-146 20l6 66l297 -4l295 4l7 -66l-144 -20v-1264l144 -20l-7 -68l-295 4l-297 -4z" />
<glyph unicode="&#xcf;" horiz-adv-x="716" d="M37 1708l20 98l146 13l59 -13l14 -114l-24 -101l-143 -10l-60 10zM57 66l146 20v1264l-146 20l6 66l297 -4l295 4l7 -66l-144 -20v-1264l144 -20l-7 -68l-295 4l-297 -4zM446 1708l23 98l145 13l60 -13l12 -114l-22 -101l-144 -10l-61 10z" />
<glyph unicode="&#xd0;" horiz-adv-x="1523" d="M55 66l150 20v625h-131v69h131v570l-150 20l6 66l277 -4l418 4q332 1 515 -178.5t183 -505.5q0 -157 -42 -286t-126 -229t-220 -161.5t-316 -77.5l-410 4l-279 -4zM520 86l191 -16q185 -4 296 183.5t111 479.5q0 188 -47.5 329t-148 223.5t-244.5 80.5l-158 -14v-572h238 v-69h-238v-625z" />
<glyph unicode="&#xd1;" horiz-adv-x="1452" d="M55 66l146 20v1260l-144 24l6 66l168 -4l275 4l645 -904l37 -100v918l-148 20l2 66l193 -4l190 4l7 -66l-144 -20v-1358h-153l-799 1155l-35 110v-1171l148 -20l-3 -68l-194 4l-191 -4zM440 1565l62 243l125 37l395 -125l74 125h49l-64 -246l-123 -32l-399 127l-72 -129 h-47z" />
<glyph unicode="&#xd2;" horiz-adv-x="1615" d="M70 686q0 333 181 520.5t580 263.5q212 0 375.5 -92.5t251.5 -256t88 -371.5q0 -335 -181 -523t-581 -264q-212 0 -375.5 93t-251 257t-87.5 373zM422 758q0 -190 47.5 -346t145 -253.5t227.5 -97.5q119 0 200.5 84t117.5 219.5t36 313.5q0 188 -47 344t-144 254t-227 98 q-119 0 -201 -83.5t-118.5 -219.5t-36.5 -313zM522 1853h266l101 -276h-101z" />
<glyph unicode="&#xd3;" horiz-adv-x="1615" d="M70 686q0 333 181 520.5t580 263.5q212 0 375.5 -92.5t251.5 -256t88 -371.5q0 -335 -181 -523t-581 -264q-212 0 -375.5 93t-251 257t-87.5 373zM422 758q0 -190 47.5 -346t145 -253.5t227.5 -97.5q119 0 200.5 84t117.5 219.5t36 313.5q0 188 -47 344t-144 254t-227 98 q-119 0 -201 -83.5t-118.5 -219.5t-36.5 -313zM750 1577l98 276h268l-266 -276h-100z" />
<glyph unicode="&#xd4;" horiz-adv-x="1615" d="M70 686q0 333 181 520.5t580 263.5q212 0 375.5 -92.5t251.5 -256t88 -371.5q0 -335 -181 -523t-581 -264q-212 0 -375.5 93t-251 257t-87.5 373zM422 758q0 -190 47.5 -346t145 -253.5t227.5 -97.5q119 0 200.5 84t117.5 219.5t36 313.5q0 188 -47 344t-144 254t-227 98 q-119 0 -201 -83.5t-118.5 -219.5t-36.5 -313zM494 1577l249 281h148l250 -281h-107l-194 131l-23 23l-22 -23l-195 -131h-106z" />
<glyph unicode="&#xd5;" horiz-adv-x="1615" d="M70 686q0 333 181 520.5t580 263.5q212 0 375.5 -92.5t251.5 -256t88 -371.5q0 -335 -181 -523t-581 -264q-212 0 -375.5 93t-251 257t-87.5 373zM422 758q0 -190 47.5 -346t145 -253.5t227.5 -97.5q119 0 200.5 84t117.5 219.5t36 313.5q0 188 -47 344t-144 254t-227 98 q-119 0 -201 -83.5t-118.5 -219.5t-36.5 -313zM475 1565l64 243l123 37l397 -125l71 125h50l-62 -246l-125 -32l-399 127l-70 -129h-49z" />
<glyph unicode="&#xd6;" horiz-adv-x="1615" d="M70 686q0 333 181 520.5t580 263.5q212 0 375.5 -92.5t251.5 -256t88 -371.5q0 -335 -181 -523t-581 -264q-212 0 -375.5 93t-251 257t-87.5 373zM422 758q0 -190 47.5 -346t145 -253.5t227.5 -97.5q119 0 200.5 84t117.5 219.5t36 313.5q0 188 -47 344t-144 254t-227 98 q-119 0 -201 -83.5t-118.5 -219.5t-36.5 -313zM465 1708l22 98l144 13l59 -13l15 -114l-25 -101l-143 -10l-62 10zM936 1708l22 98l144 13l61 -13l13 -114l-25 -101l-143 -10l-60 10z" />
<glyph unicode="&#xd7;" d="M215 791l76 77l346 -344l340 342l76 -78l-340 -342l338 -335l-76 -78l-338 340l-342 -344l-78 77l344 340z" />
<glyph unicode="&#xd8;" horiz-adv-x="1615" d="M70 686q0 333 181 520.5t580 263.5q257 0 443 -137l108 131h107l-152 -184q101 -98 155 -234t54 -296q0 -335 -181 -523t-581 -264q-248 0 -428 125l-98 -119h-111l144 172q-107 97 -164 237t-57 308zM422 758q0 -218 61 -383l623 753q-56 115 -139.5 180.5t-188.5 65.5 q-119 0 -201 -83.5t-118.5 -219.5t-36.5 -313zM520 289q56 -108 137.5 -168t184.5 -60q119 0 200.5 84t117.5 219.5t36 313.5q0 202 -55 364z" />
<glyph unicode="&#xd9;" horiz-adv-x="1439" d="M31 1370l4 66l282 -4l308 4l6 -66l-139 -20v-858q0 -182 87.5 -289t247.5 -107q151 0 238.5 108.5t87.5 289.5v856l-152 20l5 66l211 -4l196 4l6 -66l-145 -20v-852q0 -81 -13.5 -146t-47.5 -127t-89.5 -109.5t-143.5 -87t-206 -65.5q-307 0 -453.5 143t-146.5 394v850z M520 1853h266l101 -276h-101z" />
<glyph unicode="&#xda;" horiz-adv-x="1439" d="M31 1370l4 66l282 -4l308 4l6 -66l-139 -20v-858q0 -182 87.5 -289t247.5 -107q151 0 238.5 108.5t87.5 289.5v856l-152 20l5 66l211 -4l196 4l6 -66l-145 -20v-852q0 -81 -13.5 -146t-47.5 -127t-89.5 -109.5t-143.5 -87t-206 -65.5q-307 0 -453.5 143t-146.5 394v850z M737 1577l99 276h268l-268 -276h-99z" />
<glyph unicode="&#xdb;" horiz-adv-x="1439" d="M31 1370l4 66l282 -4l308 4l6 -66l-139 -20v-858q0 -182 87.5 -289t247.5 -107q151 0 238.5 108.5t87.5 289.5v856l-152 20l5 66l211 -4l196 4l6 -66l-145 -20v-852q0 -81 -13.5 -146t-47.5 -127t-89.5 -109.5t-143.5 -87t-206 -65.5q-307 0 -453.5 143t-146.5 394v850z M479 1577l250 281h148l249 -281h-106l-197 131l-20 23l-21 -23l-194 -131h-109z" />
<glyph unicode="&#xdc;" horiz-adv-x="1439" d="M31 1370l4 66l282 -4l308 4l6 -66l-139 -20v-858q0 -182 87.5 -289t247.5 -107q151 0 238.5 108.5t87.5 289.5v856l-152 20l5 66l211 -4l196 4l6 -66l-145 -20v-852q0 -81 -13.5 -146t-47.5 -127t-89.5 -109.5t-143.5 -87t-206 -65.5q-307 0 -453.5 143t-146.5 394v850z M451 1708l22 98l143 13l60 -13l14 -114l-22 -101l-144 -10l-61 10zM922 1708l22 98l143 13l62 -13l12 -114l-22 -101l-144 -10l-61 10z" />
<glyph unicode="&#xdd;" horiz-adv-x="1458" d="M10 1370l6 66l314 -4l317 4l6 -66l-155 -20l344 -637l6 -60l362 697l-163 20l6 66l211 -4l178 4l6 -66l-133 -20l-416 -779l2 -485l209 -20l-6 -68l-363 4l-366 -4l-4 68l213 20v477l-441 787zM795 1577l98 276h268l-266 -276h-100z" />
<glyph unicode="&#xde;" horiz-adv-x="1206" d="M41 66l143 20v1264l-143 20l4 66l297 -4l330 4l6 -66l-178 -20v-207l278 2q123 1 221 -38.5t159 -125.5t61 -207q0 -58 -16 -108t-42 -89t-68 -73t-85.5 -58.5t-102.5 -48t-111.5 -39.5t-119.5 -34h-174v-238l188 -20l-4 -68l-340 4l-299 -4zM500 408h123 q111 0 184.5 94.5t73.5 249.5q0 145 -66 234t-182 89l-133 -8v-659z" />
<glyph unicode="&#xdf;" horiz-adv-x="1312" d="M51 866v41l47 41l97 2v49q0 106 69.5 208t204.5 163l221 100q213 0 338 -71.5t125 -206.5q0 -217 -354 -340q4 -53 40 -91.5t124 -96.5l145 -99q82 -55 123 -116.5t41 -141.5q0 -243 -379 -344q-153 0 -309 76l-9 280h74l80 -190q80 -76 158 -76q62 0 99.5 39.5 t37.5 100.5q0 93 -125 192l-143 104q-85 59 -123 125.5t-41 171.5l121 84q139 105 139 297q0 90 -44 152.5t-124 62.5q-99 0 -150 -81t-51 -224v-1079l-153 4l-250 -4l-6 65l121 17v786h-144z" />
<glyph unicode="&#xe0;" horiz-adv-x="1052" d="M59 233q0 136 101 218l454 139v151q0 91 -23 128.5t-91 37.5q-54 0 -109 -24l-35 -236h-262v189l426 172q218 0 304.5 -66t86.5 -244v-422q0 -96 27 -163l96 6l8 -66l-358 -73l-57 165l-258 -176q-136 0 -223 70.5t-87 193.5zM291 1501h256l92 -360h-86zM354 289 q0 -73 32 -114.5t77 -41.5q51 0 108 41l43 29v325l-196 -77q-64 -58 -64 -162z" />
<glyph unicode="&#xe1;" horiz-adv-x="1052" d="M59 233q0 136 101 218l454 139v151q0 91 -23 128.5t-91 37.5q-54 0 -109 -24l-35 -236h-262v189l426 172q218 0 304.5 -66t86.5 -244v-422q0 -96 27 -163l96 6l8 -66l-358 -73l-57 165l-258 -176q-136 0 -223 70.5t-87 193.5zM354 289q0 -73 32 -114.5t77 -41.5 q51 0 108 41l43 29v325l-196 -77q-64 -58 -64 -162zM453 1141l94 360h256l-262 -360h-88z" />
<glyph unicode="&#xe2;" horiz-adv-x="1052" d="M59 233q0 136 101 218l454 139v151q0 91 -23 128.5t-91 37.5q-54 0 -109 -24l-35 -236h-262v189l426 172q218 0 304.5 -66t86.5 -244v-422q0 -96 27 -163l96 6l8 -66l-358 -73l-57 165l-258 -176q-136 0 -223 70.5t-87 193.5zM221 1141l238 364h116l240 -364h-84 l-192 178l-23 24l-20 -24l-193 -178h-82zM354 289q0 -73 32 -114.5t77 -41.5q51 0 108 41l43 29v325l-196 -77q-64 -58 -64 -162z" />
<glyph unicode="&#xe3;" horiz-adv-x="1052" d="M59 233q0 136 101 218l454 139v151q0 91 -23 128.5t-91 37.5q-54 0 -109 -24l-35 -236h-262v189l426 172q218 0 304.5 -66t86.5 -244v-422q0 -96 27 -163l96 6l8 -66l-358 -73l-57 165l-258 -176q-136 0 -223 70.5t-87 193.5zM168 1186l63 239l123 39l398 -127l69 127h51 l-63 -247l-123 -33l-399 129l-68 -127h-51zM354 289q0 -73 32 -114.5t77 -41.5q51 0 108 41l43 29v325l-196 -77q-64 -58 -64 -162z" />
<glyph unicode="&#xe4;" horiz-adv-x="1052" d="M59 233q0 136 101 218l454 139v151q0 91 -23 128.5t-91 37.5q-54 0 -109 -24l-35 -236h-262v189l426 172q218 0 304.5 -66t86.5 -244v-422q0 -96 27 -163l96 6l8 -66l-358 -73l-57 165l-258 -176q-136 0 -223 70.5t-87 193.5zM217 1335l21 97l145 10l59 -10l15 -115 l-25 -100l-143 -13l-62 13zM354 289q0 -73 32 -114.5t77 -41.5q51 0 108 41l43 29v325l-196 -77q-64 -58 -64 -162zM600 1335l23 97l143 10l61 -10l15 -115l-25 -100l-145 -13l-60 13z" />
<glyph unicode="&#xe5;" horiz-adv-x="1052" d="M59 233q0 136 101 218l454 139v151q0 91 -23 128.5t-91 37.5q-54 0 -109 -24l-35 -236h-262v189l426 172q218 0 304.5 -66t86.5 -244v-422q0 -96 27 -163l96 6l8 -66l-358 -73l-57 165l-258 -176q-136 0 -223 70.5t-87 193.5zM293 1329q0 39 13 70.5t32.5 52.5t52.5 39.5 t61.5 29t71.5 23.5q104 0 168 -50.5t64 -162.5q0 -41 -13 -73t-31 -52.5t-51.5 -38t-61 -27t-71.5 -22.5q-98 0 -166.5 51t-68.5 160zM354 289q0 -73 32 -114.5t77 -41.5q51 0 108 41l43 29v325l-196 -77q-64 -58 -64 -162zM387 1329q0 -60 38.5 -98.5t98.5 -38.5t100 38.5 t40 98.5q0 61 -40 100t-100 39t-98.5 -39t-38.5 -100z" />
<glyph unicode="&#xe6;" horiz-adv-x="1533" d="M53 231q0 138 101 220l454 139v151q0 90 -20.5 128t-83.5 38q-52 0 -119 -24l-35 -236h-262v189l424 172q146 0 221.5 -23.5t112.5 -85.5q93 68 252 109q177 0 273.5 -107t96.5 -285v-88h-591v-4q9 -162 95 -252t222 -90q121 0 244 74l35 -57q-86 -79 -174 -132.5 t-205 -97.5q-135 0 -244.5 55t-173.5 158l-309 -213q-136 0 -225 70.5t-89 191.5zM348 289q0 -73 32 -114.5t77 -41.5q51 0 108 41l43 29v325l-196 -77q-64 -58 -64 -162zM874 598l312 10q0 157 -30.5 229t-111.5 72q-80 0 -124 -79.5t-46 -213.5v-18z" />
<glyph unicode="&#xe7;" horiz-adv-x="964" d="M61 451q0 117 41.5 213.5t115 163t164.5 111t200 69.5q84 0 168 -30t143 -77v-244h-234l-59 242q-28 19 -61 19q-80 0 -138.5 -87.5t-58.5 -248.5q0 -174 90 -288t234 -114q106 0 217 72l30 -57q-86 -77 -168.5 -129t-193.5 -95q-2 -2 -6 -2l-39 -61q77 -4 122.5 -45 t43.5 -103q0 -43 -18.5 -78t-54 -61t-66 -41.5t-74.5 -32.5l-133 -51h-90l63 98h154q51 42 51 115q0 111 -127 119l104 145q-188 22 -304 150.5t-116 327.5z" />
<glyph unicode="&#xe8;" horiz-adv-x="1001" d="M59 451q0 213 127 356t369 201q182 0 282.5 -103t100.5 -278v-97h-600q10 -161 97.5 -253.5t223.5 -92.5q123 0 246 78l35 -59q-91 -82 -179 -135t-208 -99q-137 0 -249 57.5t-178.5 168.5t-66.5 256zM268 1501h256l94 -360h-86zM334 621q0 -4 1 -12.5t1 -12.5l309 10v41 q0 133 -31.5 198.5t-113.5 65.5q-78 0 -120.5 -75.5t-45.5 -214.5z" />
<glyph unicode="&#xe9;" horiz-adv-x="1001" d="M59 451q0 213 127 356t369 201q182 0 282.5 -103t100.5 -278v-97h-600q10 -161 97.5 -253.5t223.5 -92.5q123 0 246 78l35 -59q-91 -82 -179 -135t-208 -99q-137 0 -249 57.5t-178.5 168.5t-66.5 256zM334 621q0 -4 1 -12.5t1 -12.5l309 10v41q0 133 -31.5 198.5 t-113.5 65.5q-78 0 -120.5 -75.5t-45.5 -214.5zM494 1141l92 360h256l-262 -360h-86z" />
<glyph unicode="&#xea;" horiz-adv-x="1001" d="M59 451q0 213 127 356t369 201q182 0 282.5 -103t100.5 -278v-97h-600q10 -161 97.5 -253.5t223.5 -92.5q123 0 246 78l35 -59q-91 -82 -179 -135t-208 -99q-137 0 -249 57.5t-178.5 168.5t-66.5 256zM242 1141l237 364h117l238 -364h-82l-193 178l-22 24l-21 -24 l-192 -178h-82zM334 621q0 -4 1 -12.5t1 -12.5l309 10v41q0 133 -31.5 198.5t-113.5 65.5q-78 0 -120.5 -75.5t-45.5 -214.5z" />
<glyph unicode="&#xeb;" horiz-adv-x="1001" d="M59 451q0 213 127 356t369 201q182 0 282.5 -103t100.5 -278v-97h-600q10 -161 97.5 -253.5t223.5 -92.5q123 0 246 78l35 -59q-91 -82 -179 -135t-208 -99q-137 0 -249 57.5t-178.5 168.5t-66.5 256zM227 1335l23 97l143 10l60 -10l14 -115l-23 -100l-143 -13l-61 13z M334 621q0 -4 1 -12.5t1 -12.5l309 10v41q0 133 -31.5 198.5t-113.5 65.5q-78 0 -120.5 -75.5t-45.5 -214.5zM610 1335l23 97l145 10l60 -10l14 -115l-25 -100l-143 -13l-59 13z" />
<glyph unicode="&#xec;" horiz-adv-x="626" d="M61 920l328 67l80 4v-905l117 -20l-4 -68l-254 4l-254 -4l-4 68l112 20v782l-112 -14zM61 1501h256l95 -360h-86z" />
<glyph unicode="&#xed;" horiz-adv-x="626" d="M61 920l328 67l80 4v-905l117 -20l-4 -68l-254 4l-254 -4l-4 68l112 20v782l-112 -14zM264 1141l90 360h258l-264 -360h-84z" />
<glyph unicode="&#xee;" horiz-adv-x="626" d="M23 1141l239 364h115l239 -364h-84l-192 178l-21 24l-20 -24l-193 -178h-83zM61 920l328 67l80 4v-905l117 -20l-4 -68l-254 4l-254 -4l-4 68l112 20v782l-112 -14z" />
<glyph unicode="&#xef;" horiz-adv-x="624" d="M2 1335l25 97l143 10l59 -10l15 -115l-25 -100l-143 -13l-60 13zM59 920l328 67l80 4v-905l117 -20l-4 -68l-254 4l-254 -4l-4 68l112 20v782l-112 -14zM387 1335l23 97l145 10l59 -10l13 -115l-23 -100l-143 -13l-60 13z" />
<glyph unicode="&#xf0;" horiz-adv-x="1146" d="M61 498q0 195 120 316t323 136l262 -147q-39 248 -193 407l-223 -106v72l168 79q-30 32 -97 76.5t-136 77.5l32 68q203 -72 334 -156l215 104v-69l-157 -78q362 -271 362 -756q0 -242 -143 -388.5t-377 -164.5q-230 34 -360 172.5t-130 356.5zM369 494q0 -218 52 -328.5 t146 -110.5q86 0 134 98.5t51 292.5q5 87 -9 195q-15 35 -59 90q-72 78 -147 78q-168 0 -168 -315z" />
<glyph unicode="&#xf1;" horiz-adv-x="1245" d="M61 918l330 69l78 2l2 -190l336 209q155 0 219 -64q35 -35 49.5 -89t14.5 -148v-621l120 -20l-4 -68l-256 4l-231 -4l-6 68l80 20v610q0 123 -101 123q-66 0 -170 -69l-49 -33v-631l82 -20l-4 -68l-225 4l-248 -4l-6 68l114 20v778l-116 -14zM295 1184l63 241l125 37 l396 -127l71 127h49l-63 -248l-123 -30l-399 129l-68 -129h-51z" />
<glyph unicode="&#xf2;" horiz-adv-x="1120" d="M59 463q0 99 28 180.5t75 139t117.5 102.5t147 73t171.5 50q200 0 331.5 -137.5t131.5 -356.5q0 -123 -41 -217.5t-118 -158t-170 -103.5t-214 -66q-197 0 -328 138.5t-131 355.5zM303 1501h256l94 -360h-86zM365 551q0 -233 62 -363.5t155 -130.5q81 0 125.5 91.5 t44.5 275.5q0 239 -62 366.5t-155 127.5q-170 0 -170 -367z" />
<glyph unicode="&#xf3;" horiz-adv-x="1120" d="M59 463q0 99 28 180.5t75 139t117.5 102.5t147 73t171.5 50q200 0 331.5 -137.5t131.5 -356.5q0 -123 -41 -217.5t-118 -158t-170 -103.5t-214 -66q-197 0 -328 138.5t-131 355.5zM365 551q0 -233 62 -363.5t155 -130.5q81 0 125.5 91.5t44.5 275.5q0 239 -62 366.5 t-155 127.5q-170 0 -170 -367zM518 1141l92 360h258l-264 -360h-86z" />
<glyph unicode="&#xf4;" horiz-adv-x="1120" d="M59 463q0 99 28 180.5t75 139t117.5 102.5t147 73t171.5 50q200 0 331.5 -137.5t131.5 -356.5q0 -123 -41 -217.5t-118 -158t-170 -103.5t-214 -66q-197 0 -328 138.5t-131 355.5zM272 1141l238 364h117l237 -364h-82l-192 178l-23 24l-20 -24l-193 -178h-82zM365 551 q0 -233 62 -363.5t155 -130.5q81 0 125.5 91.5t44.5 275.5q0 239 -62 366.5t-155 127.5q-170 0 -170 -367z" />
<glyph unicode="&#xf5;" horiz-adv-x="1120" d="M59 463q0 99 28 180.5t75 139t117.5 102.5t147 73t171.5 50q200 0 331.5 -137.5t131.5 -356.5q0 -123 -41 -217.5t-118 -158t-170 -103.5t-214 -66q-197 0 -328 138.5t-131 355.5zM215 1184l64 241l122 37l398 -127l71 127h50l-62 -248l-125 -30l-399 129l-68 -129h-51z M365 551q0 -233 62 -363.5t155 -130.5q81 0 125.5 91.5t44.5 275.5q0 239 -62 366.5t-155 127.5q-170 0 -170 -367z" />
<glyph unicode="&#xf6;" horiz-adv-x="1120" d="M59 463q0 99 28 180.5t75 139t117.5 102.5t147 73t171.5 50q200 0 331.5 -137.5t131.5 -356.5q0 -123 -41 -217.5t-118 -158t-170 -103.5t-214 -66q-197 0 -328 138.5t-131 355.5zM256 1335l20 97l148 10l59 -10l13 -115l-25 -100l-141 -13l-62 13zM365 551 q0 -233 62 -363.5t155 -130.5q81 0 125.5 91.5t44.5 275.5q0 239 -62 366.5t-155 127.5q-170 0 -170 -367zM639 1335l25 97l143 10l59 -10l15 -115l-25 -100l-143 -13l-62 13z" />
<glyph unicode="&#xf7;" d="M96 469v109h1075v-109h-1075zM504 145l12 111l174 12l68 -12l14 -129l-16 -115l-172 -12l-68 12zM504 903l12 111l174 14l68 -14l14 -127l-16 -115l-172 -12l-68 12z" />
<glyph unicode="&#xf8;" horiz-adv-x="1134" d="M66 463q0 99 28 180.5t75 139t117 102.5t146.5 73t171.5 50q172 0 291 -101l78 88h86l-117 -133q125 -138 125 -348q0 -123 -41 -217.5t-118 -158t-170 -103.5t-214 -66q-161 0 -284 99l-78 -88h-88l116 133q-124 137 -124 350zM371 551q0 -116 16 -217l336 379 q-29 101 -76.5 153t-105.5 52q-170 0 -170 -367zM406 256q29 -97 76.5 -148t105.5 -51q81 0 125.5 91.5t44.5 275.5q0 111 -17 211z" />
<glyph unicode="&#xf9;" horiz-adv-x="1191" d="M27 922l321 63l90 4v-696q0 -69 27 -101t86 -32q54 0 143 59l47 29v616l-106 -10l-6 68l309 63l90 4v-713q0 -97 25 -167l88 4l6 -66l-348 -65l-47 188l-318 -201q-161 0 -227 66q-36 36 -50 91t-14 150v588l-110 -10zM317 1501h256l93 -360h-84z" />
<glyph unicode="&#xfa;" horiz-adv-x="1191" d="M27 922l321 63l90 4v-696q0 -69 27 -101t86 -32q54 0 143 59l47 29v616l-106 -10l-6 68l309 63l90 4v-713q0 -97 25 -167l88 4l6 -66l-348 -65l-47 188l-318 -201q-161 0 -227 66q-36 36 -50 91t-14 150v588l-110 -10zM530 1141l93 360h258l-267 -360h-84z" />
<glyph unicode="&#xfb;" horiz-adv-x="1191" d="M27 922l321 63l90 4v-696q0 -69 27 -101t86 -32q54 0 143 59l47 29v616l-106 -10l-6 68l309 63l90 4v-713q0 -97 25 -167l88 4l6 -66l-348 -65l-47 188l-318 -201q-161 0 -227 66q-36 36 -50 91t-14 150v588l-110 -10zM295 1141l237 364h117l240 -364h-84l-193 178 l-22 24l-21 -24l-192 -178h-82z" />
<glyph unicode="&#xfc;" horiz-adv-x="1191" d="M27 922l321 63l90 4v-696q0 -69 27 -101t86 -32q54 0 143 59l47 29v616l-106 -10l-6 68l309 63l90 4v-713q0 -97 25 -167l88 4l6 -66l-348 -65l-47 188l-318 -201q-161 0 -227 66q-36 36 -50 91t-14 150v588l-110 -10zM285 1335l22 97l144 10l61 -10l12 -115l-22 -100 l-146 -13l-59 13zM670 1335l20 97l146 10l61 -10l12 -115l-24 -100l-144 -13l-59 13z" />
<glyph unicode="&#xfd;" horiz-adv-x="1140" d="M10 913l6 64l265 -2l243 2l6 -64l-108 -18l227 -637l21 -102l241 737l-108 20l4 64l170 -2l147 2l6 -64l-108 -20l-295 -819l-254 -555h-301v264h266l213 313l-221 -80l-326 879zM578 1141l94 360h256l-262 -360h-88z" />
<glyph unicode="&#xfe;" horiz-adv-x="1148" d="M35 1397l327 59l80 4v-653l275 201q161 0 273 -127.5t112 -331.5q0 -238 -119.5 -384t-374.5 -196q-98 0 -166 43v-401l176 -19l-4 -65l-307 4l-260 -4l-6 65l115 19v1732l-115 -12zM442 129q54 -70 142 -70q97 2 154 106t57 284q0 175 -49.5 268.5t-133.5 93.5 q-34 0 -63.5 -13.5t-71.5 -43.5l-35 -25v-600z" />
<glyph unicode="&#xff;" horiz-adv-x="1140" d="M10 913l6 64l265 -2l243 2l6 -64l-108 -18l227 -637l21 -102l241 737l-108 20l4 64l170 -2l147 2l6 -64l-108 -20l-295 -819l-254 -555h-301v264h266l213 313l-221 -80l-326 879zM330 1335l22 97l146 10l59 -10l14 -115l-24 -100l-144 -13l-59 13zM715 1335l22 97l144 10 l61 -10l14 -115l-26 -100l-144 -13l-59 13z" />
<glyph unicode="&#x152;" horiz-adv-x="2041" d="M70 686q0 334 180.5 517t589.5 261l282 -30l840 2l10 -381h-63l-137 299l-463 2v-565l227 4l90 237h62l-11 -276l11 -283h-62l-90 238l-227 4v-637l473 4l145 311h64l-35 -395l-895 4l-264 -33q-216 0 -382.5 92t-255.5 254.5t-89 370.5zM420 756q0 -196 56 -355 t154 -248.5t218 -89.5l143 23v1262l-215 26q-90 0 -159.5 -49.5t-112 -135.5t-63.5 -195.5t-21 -237.5z" />
<glyph unicode="&#x153;" horiz-adv-x="1714" d="M59 469q0 98 28 179t75.5 138.5t117 102t147 72.5t171.5 47q107 0 197 -44.5t151 -125.5q115 121 326 170q179 0 278 -107.5t99 -284.5v-86h-600v-2q7 -163 96.5 -254.5t230.5 -91.5q119 0 242 74l35 -57q-89 -79 -177 -132.5t-202 -97.5q-118 0 -218 44t-165 126 q-132 -123 -373 -170q-197 0 -328 140t-131 360zM362 551q0 -233 61.5 -363.5t156.5 -130.5q172 0 172 367q0 240 -61.5 367t-155.5 127q-173 0 -173 -367zM1044 621q0 -12 3 -21l319 10q0 157 -30.5 228t-114.5 71q-80 0 -126 -77.5t-51 -210.5z" />
<glyph unicode="&#x178;" horiz-adv-x="1458" d="M10 1370l6 66l314 -4l317 4l6 -66l-155 -20l344 -637l6 -60l362 697l-163 20l6 66l211 -4l178 4l6 -66l-133 -20l-416 -779l2 -485l209 -20l-6 -68l-363 4l-366 -4l-4 68l213 20v477l-441 787zM467 1708l20 98l148 13l57 -13l15 -114l-25 -101l-141 -10l-62 10zM938 1708 l23 98l145 13l59 -13l13 -114l-23 -101l-143 -10l-62 10z" />
<glyph unicode="&#x2c6;" horiz-adv-x="1024" d="M211 1141l229 364h135l228 -364h-82l-215 190l-211 -190h-84z" />
<glyph unicode="&#x2dc;" horiz-adv-x="1024" d="M158 1184l63 241l123 37l397 -127l70 127h51l-61 -248l-125 -30l-400 129l-67 -129h-51z" />
<glyph unicode="&#x2000;" horiz-adv-x="966" />
<glyph unicode="&#x2001;" horiz-adv-x="1933" />
<glyph unicode="&#x2002;" horiz-adv-x="966" />
<glyph unicode="&#x2003;" horiz-adv-x="1933" />
<glyph unicode="&#x2004;" horiz-adv-x="644" />
<glyph unicode="&#x2005;" horiz-adv-x="483" />
<glyph unicode="&#x2006;" horiz-adv-x="322" />
<glyph unicode="&#x2007;" horiz-adv-x="322" />
<glyph unicode="&#x2008;" horiz-adv-x="241" />
<glyph unicode="&#x2009;" horiz-adv-x="386" />
<glyph unicode="&#x200a;" horiz-adv-x="107" />
<glyph unicode="&#x2010;" horiz-adv-x="788" d="M82 510v125h625v-125h-625z" />
<glyph unicode="&#x2011;" horiz-adv-x="788" d="M82 510v125h625v-125h-625z" />
<glyph unicode="&#x2012;" horiz-adv-x="788" d="M82 510v125h625v-125h-625z" />
<glyph unicode="&#x2013;" horiz-adv-x="1040" d="M82 522v94h876v-94h-876z" />
<glyph unicode="&#x2014;" horiz-adv-x="1904" d="M14 518v103h1876v-103h-1876z" />
<glyph unicode="&#x2018;" horiz-adv-x="475" d="M109 1014l18 123l180 323l60 -24q-27 -59 -72 -166.5t-45 -124.5l135 -8l14 -144l-18 -119l-188 -12l-72 12z" />
<glyph unicode="&#x2019;" horiz-adv-x="487" d="M94 1323l19 119l186 12l74 -12l12 -137l-18 -125l-181 -324l-59 25q2 6 34.5 79.5t57.5 136t25 74.5l-138 9z" />
<glyph unicode="&#x201a;" horiz-adv-x="448" d="M98 156l19 118l186 13l74 -13l12 -139l-18 -123l-181 -325l-59 24q4 10 35 81.5t56.5 134.5t25.5 75l-137 10z" />
<glyph unicode="&#x201c;" horiz-adv-x="817" d="M88 1012l18 125l181 323l59 -24q-27 -59 -72 -166.5t-45 -124.5l136 -8l14 -144l-19 -119l-188 -14l-72 14zM471 1012l21 125l178 323l61 -24q-27 -59 -72 -166.5t-45 -124.5l136 -8l12 -144l-17 -119l-188 -14l-72 14z" />
<glyph unicode="&#x201d;" horiz-adv-x="833" d="M96 1325l19 117l186 14l72 -14l14 -135l-20 -125l-181 -326l-59 25q117 271 117 293l-135 8zM479 1325l19 117l188 14l72 -14l12 -135l-16 -125l-181 -326l-61 25q4 10 35 82t56.5 135.5t25.5 75.5l-135 8z" />
<glyph unicode="&#x201e;" horiz-adv-x="837" d="M104 156l19 118l186 13l72 -13l14 -139l-20 -123l-180 -325l-60 24q117 271 117 291l-135 10zM487 156l19 118l190 13l70 -13l12 -139l-16 -123l-180 -325l-62 24q4 10 35 81.5t56.5 134.5t25.5 75l-135 10z" />
<glyph unicode="&#x2022;" horiz-adv-x="501" d="M102 631l15 127l184 14l88 -14l10 -144l-14 -129l-184 -12l-86 12z" />
<glyph unicode="&#x2026;" horiz-adv-x="1708" d="M154 143l20 121l184 15l72 -15l14 -139l-22 -123l-184 -14l-70 14zM709 143l18 121l186 15l70 -15l16 -139l-20 -123l-186 -14l-72 14zM1264 143l18 121l186 15l72 -15l14 -139l-20 -123l-186 -14l-70 14z" />
<glyph unicode="&#x202f;" horiz-adv-x="386" />
<glyph unicode="&#x2039;" horiz-adv-x="620" d="M68 481l374 451h107l-262 -453l262 -448h-111z" />
<glyph unicode="&#x203a;" horiz-adv-x="620" d="M82 31l262 448l-262 453h111l372 -451l-370 -450h-113z" />
<glyph unicode="&#x205f;" horiz-adv-x="483" />
<glyph unicode="&#x20ac;" horiz-adv-x="1406" d="M92 549v88h101v57q0 70 4 103h-105v88h117q100 475 690 581q230 0 422 -135v-350h-84l-113 285q-87 114 -243 114q-134 0 -229.5 -128t-119.5 -367h539l-57 -88h-488v-33q0 -65 6 -127h398l-60 -88h-325q36 -192 138.5 -307t266.5 -115q166 0 332 104l37 -63 q-68 -51 -188.5 -109.5t-243.5 -89.5q-101 0 -192.5 21t-174.5 66t-147 112t-108.5 164.5t-61.5 216.5h-111z" />
<glyph unicode="&#x2122;" horiz-adv-x="2088" d="M102 1182v254h740v-254h-49l-88 198l-121 2v-677l116 -13l-4 -49l-225 2l-223 -2l-2 49l114 13v677l-120 -2l-88 -198h-50zM881 692l77 13v671l-77 13l4 47l129 -2l198 2l230 -547l-2 -64l235 611l154 -2l153 2l5 -47l-82 -13v-671l80 -13l-3 -49l-184 2l-178 -2l-2 49 l74 13v575l8 70l-275 -709h-120l-265 649l-16 72v-657l82 -13l-2 -49l-113 2l-108 -2z" />
<glyph unicode="&#x25fc;" horiz-adv-x="972" d="M0 0v973h973v-973h-973z" />
</font>
</defs>
</svg>
