<?xml version="1.0" standalone="no"?>
<!DOCTYPE svg PUBLIC "-//W3C//DTD SVG 1.1//EN" "http://www.w3.org/Graphics/SVG/1.1/DTD/svg11.dtd" >
<svg xmlns="http://www.w3.org/2000/svg" xmlns:xlink="http://www.w3.org/1999/xlink" version="1.1">
<metadata></metadata>
<defs>
<font id="gt_sectra_displaylight" horiz-adv-x="1269" >
<font-face units-per-em="2048" ascent="1536" descent="-512" />
<missing-glyph horiz-adv-x="491" />
<glyph unicode="&#xfb01;" horiz-adv-x="1067" d="M51 0v10l144 10v912h-144v10h144v27q0 71 0.5 96.5t6 65t18 63t34.5 49.5l182 211h467v-174h-10l-133 53h-416l-8 -22q-10 -29 -14 -64.5t-4.5 -67.5t-0.5 -132v-105h445l110 21h11v-943l143 -10v-10h-410v10l144 10v912h-443v-912l238 -10v-10h-504z" />
<glyph unicode="&#xfb02;" horiz-adv-x="1056" d="M51 0v10l144 10v912h-144v10h144v27q0 71 0.5 96.5t6 65t18 63t34.5 49.5l182 211h447v-1434l143 -10v-10h-410v10l144 10v912h-443v-912l238 -10v-10h-504zM317 942h443v391h-416l-8 -22q-10 -29 -14 -64.5t-4.5 -67.5t-0.5 -132v-105z" />
<glyph unicode="&#xfb03;" horiz-adv-x="1632" d="M51 0v10l144 10v912h-144v10h144v8q0 118 9 166.5t50 95.5l182 211h248l-104 -120h-236l-8 -23q-10 -29 -14 -64.5t-4.5 -67.5t-0.5 -132v-74h443v27q0 71 0.5 96.5t6 65t18 63t34.5 49.5l182 211h467v-174h-10l-133 53h-416l-8 -22q-13 -38 -15.5 -77.5t-2.5 -146.5 v-13.5v-12v-14.5v-105h444l111 21h10v-943l143 -10v-10h-409v10l143 10v912h-442v-912l237 -10v-10h-504v10l144 10v912h-443v-912l238 -10v-10h-504z" />
<glyph unicode="&#xfb04;" horiz-adv-x="1622" d="M51 0v10l144 10v912h-144v10h144v8q0 118 9 166.5t50 95.5l182 211h248l-104 -120h-236l-8 -23q-10 -29 -14 -64.5t-4.5 -67.5t-0.5 -132v-74h443v27q0 71 0.5 96.5t6 65t18 63t34.5 49.5l182 211h447v-1434l143 -10v-10h-409v10l143 10v912h-442v-912l237 -10v-10h-504 v10l144 10v912h-443v-912l238 -10v-10h-504zM883 942h442v391h-416l-8 -22q-13 -38 -15.5 -77.5t-2.5 -146.5v-13.5v-12v-14.5v-105z" />
<glyph horiz-adv-x="0" />
<glyph horiz-adv-x="0" />
<glyph horiz-adv-x="682" />
<glyph unicode="&#xd;" horiz-adv-x="655" />
<glyph unicode=" "  horiz-adv-x="491" />
<glyph unicode="&#x09;" horiz-adv-x="491" />
<glyph unicode="&#xa0;" horiz-adv-x="491" />
<glyph unicode="!" horiz-adv-x="485" d="M164 80l12 63l100 7l39 -7l7 -75l-13 -68l-100 -8l-37 8zM166 1454h153l-10 -649l-51 -418h-31l-51 416z" />
<glyph unicode="&#x22;" horiz-adv-x="686" d="M102 1374l15 76l121 8l51 -8l8 -90l-16 -82l-164 -326l-6 2l120 320l-73 -4l-47 8zM399 1374l15 76l121 8l51 -8l8 -90l-16 -82l-164 -326l-6 2l120 320l-73 -4l-47 8z" />
<glyph unicode="#" horiz-adv-x="1232" d="M82 424l4 41h285l49 407h-287l6 41h285l53 428h41l-53 -428h369l53 428h41l-54 -428h277l-4 -41h-277l-51 -407h281l-4 -41h-281l-51 -424h-41l51 424h-368l-52 -424h-41l52 424h-283zM410 465h370l49 407h-368z" />
<glyph unicode="$" horiz-adv-x="1044" d="M92 86v305h10l80 -207q153 -157 350 -157h11v643l-193 104q-46 25 -76 44t-63.5 47.5t-52.5 57.5t-32 69.5t-13 88.5q0 149 115.5 247t314.5 136v135h20v-135q92 -3 189.5 -27.5t165.5 -62.5v-301h-11l-90 234q-115 104 -254 118v-602l123 -65q136 -74 201 -158.5 t65 -198.5q0 -284 -389 -409v-156h-20v150l-54 -17q-126 0 -219 30t-178 87zM225 1165q0 -93 56 -155.5t174 -126.5l88 -47v591h-23q-134 0 -214.5 -74.5t-80.5 -187.5zM563 27q126 9 201.5 85.5t75.5 198.5q0 105 -60.5 184t-197.5 154l-19 10v-632z" />
<glyph unicode="%" horiz-adv-x="1650" d="M102 1077q0 156 85 245t276 122q141 0 223 -95.5t82 -250.5q0 -157 -86.5 -248t-275.5 -117q-140 0 -222 95.5t-82 248.5zM213 1108q0 -160 58 -255t178 -95q102 0 154 86.5t52 222.5q0 159 -57.5 254.5t-177.5 95.5q-102 0 -154.5 -87t-52.5 -222zM317 -10l1012 1454h49 l-1007 -1454h-54zM883 332q0 156 84.5 244.5t275.5 121.5q141 0 223 -95.5t82 -250.5q0 -156 -86.5 -247t-275.5 -117q-140 0 -221.5 95.5t-81.5 248.5zM993 362q0 -160 58 -255t178 -95q102 0 154.5 87t52.5 223q0 159 -58 254.5t-178 95.5q-102 0 -154.5 -87.5 t-52.5 -222.5z" />
<glyph unicode="&#x26;" horiz-adv-x="1335" d="M94 291q1 76 27 142t76 119.5t104 94t129 84.5l-10 12q-16 20 -55.5 66.5t-53 63.5t-41 52.5t-37.5 54.5t-24 47t-18.5 52t-4.5 49q0 126 92 205t285 137q159 0 249.5 -83t90.5 -199q0 -106 -81 -198.5t-251 -192.5l330 -398l279 332l-140 10v11h285v-11l-123 -10 l-289 -346l304 -365l129 -10v-10h-308l-223 266q-58 -68 -151.5 -152.5t-178.5 -144.5q-162 0 -277 90t-114 232zM229 389q0 -123 79.5 -209t193.5 -86q138 0 266 146l35 43l-363 438q-211 -125 -211 -332zM324 1198q0 -38 14.5 -78t47 -88t63.5 -87.5t85 -104.5 q14 -16 21 -25l6 -6q64 41 105.5 88t61 99.5t26 97.5t6.5 104q0 107 -62.5 171.5t-162.5 64.5q-97 0 -154 -62.5t-57 -173.5z" />
<glyph unicode="'" horiz-adv-x="378" d="M102 1370l15 76l121 8l51 -8l8 -90l-16 -82l-164 -326l-6 2l120 320l-73 -4l-47 8z" />
<glyph unicode="(" horiz-adv-x="550" d="M92 498q0 277 95 497.5t325 474.5l8 -6q-176 -189 -249.5 -429.5t-73.5 -536.5q0 -298 73.5 -539t249.5 -430l-8 -6q-230 254 -325 475.5t-95 499.5z" />
<glyph unicode=")" horiz-adv-x="550" d="M31 -471q176 189 249.5 430t73.5 539q0 296 -73.5 536.5t-249.5 429.5l8 6q230 -254 325 -474.5t95 -497.5q0 -278 -95 -499.5t-325 -475.5z" />
<glyph unicode="*" horiz-adv-x="780" d="M92 1202l37 119l254 -143l-55 286h123l-56 -286l254 143l39 -117l-291 -35l215 -196l-98 -74l-125 264l-121 -264l-100 72l213 198z" />
<glyph unicode="+" d="M106 502v41h508v512h41v-512h508v-41h-508v-502h-41v502h-508z" />
<glyph unicode="," horiz-adv-x="436" d="M174 98l14 76l117 8l51 -8l9 -90l-15 -84l-166 -283l-6 2l121 277l-72 -4l-45 8z" />
<glyph unicode="-" horiz-adv-x="788" d="M82 547v41h625v-41h-625z" />
<glyph unicode="." horiz-adv-x="415" d="M143 96l15 78l121 8l47 -8l8 -90l-15 -84l-122 -8l-45 8z" />
<glyph unicode="/" horiz-adv-x="929" d="M-20 -471l927 1941h43l-923 -1941h-47z" />
<glyph unicode="0" horiz-adv-x="1103" d="M82 457q0 219 120.5 344t389.5 172q198 0 314 -135.5t116 -352.5q0 -221 -122.5 -350.5t-389.5 -165.5q-198 0 -313 135.5t-115 352.5zM225 500q0 -110 20 -198.5t60.5 -156t108 -104.5t157.5 -37q102 0 173 60t103 156.5t32 221.5q0 145 -34.5 252.5t-114.5 173.5 t-200 66q-150 0 -227.5 -122.5t-77.5 -311.5z" />
<glyph unicode="1" horiz-adv-x="827" d="M51 0v10l314 10v867l-291 -111l-4 10l407 181h10v-947l297 -10v-10h-733z" />
<glyph unicode="2" horiz-adv-x="862" d="M41 10l172 129q95 71 165 139t111 123t65 110t32 96.5t8 86.5q0 68 -17 117t-47 74.5t-64 37t-75 11.5q-26 0 -52 -5t-38.5 -9.5t-37.5 -15t-27 -11.5l-52 -227h-108v159l348 168q86 0 149 -21t98 -58.5t51 -81.5t15 -97q-3 -260 -436 -549l-80 -53h580v-8l-45 -125h-707 z" />
<glyph unicode="3" horiz-adv-x="901" d="M51 645v195l428 153q66 0 117.5 -24.5t81 -63t44.5 -81.5t15 -85q0 -108 -80 -203.5t-264 -183.5q163 -8 279 -94.5t116 -220.5q0 -230 -315 -393l-219 -115h-201v133h439q82 69 122.5 135.5t40.5 155.5q0 133 -109 227t-308 94v19l88 41q74 33 126.5 69.5t81.5 69t45 72 t20.5 70t4.5 71.5q0 106 -59 175t-148 69q-78 0 -170 -45l-69 -240h-107z" />
<glyph unicode="4" horiz-adv-x="1040" d="M20 18l619 936h160v-10l-750 -924h563v408l123 68v-476h285v-20h-285v-479h-123v479h-579z" />
<glyph unicode="5" horiz-adv-x="921" d="M92 -338h352q136 80 201.5 182.5t65.5 255.5q0 118 -50.5 187t-162.5 69q-66 0 -118.5 -16t-150.5 -70l-90 -49l-6 6l72 736h655l-8 -123h-635l-57 -592l370 203q154 0 234 -80.5t80 -210.5q0 -78 -21.5 -144.5t-56 -116.5t-90.5 -97.5t-110.5 -81.5t-131.5 -74 l-225 -117h-117v133z" />
<glyph unicode="6" horiz-adv-x="1060" d="M92 535q0 115 22.5 226t74.5 223.5t130.5 205.5t198.5 168.5t270 116.5l7 -15q-138 -40 -241 -104.5t-165 -140t-99.5 -173t-51 -191t-13.5 -206.5v-37l379 307q73 0 133.5 -24.5t100.5 -65t67.5 -93.5t40 -109t12.5 -113q0 -87 -24 -167t-75.5 -154.5t-144 -132 t-218.5 -87.5q-99 0 -178 49t-127.5 131t-73.5 181t-25 205zM227 594q6 -148 44.5 -275.5t112 -211.5t167.5 -84q137 0 204.5 96.5t67.5 304.5q0 184 -64.5 290.5t-166.5 106.5q-20 0 -39 -3.5t-41.5 -15t-37.5 -19t-43.5 -29t-41 -31t-49 -39t-49.5 -39.5z" />
<glyph unicode="7" horiz-adv-x="927" d="M41 829v134h836l10 -11l-572 -1423h-114v10l624 1290h-784z" />
<glyph unicode="8" horiz-adv-x="1024" d="M102 330q0 220 334 393l-125 104q-73 63 -121.5 140t-48.5 157q0 121 88.5 198t286.5 142q377 0 377 -295q0 -114 -79.5 -205.5t-231.5 -179.5l166 -139q174 -146 174 -297q0 -147 -109.5 -239t-333.5 -140q-161 0 -269 95t-108 266zM238 373q0 -156 91 -259.5 t201 -103.5q36 0 69.5 7.5t68.5 26.5t60.5 48t41.5 77.5t16 109.5q0 93 -47 159t-174 174l-121 103q-206 -146 -206 -342zM276 1212q0 -99 59.5 -185t205.5 -208l30 -26q109 87 148 170t39 184q0 121 -70 199.5t-192 78.5q-100 0 -160 -56t-60 -157z" />
<glyph unicode="9" horiz-adv-x="1050" d="M61 459q0 86 25 164.5t78 150.5t145 129t215 90q99 0 178 -50.5t127 -134t73.5 -184t25.5 -206.5q0 -114 -24.5 -224t-78.5 -218t-134 -198.5t-198 -163.5t-262 -114l-6 15q150 46 262 128.5t178 189.5t98 228t32 256v29l-369 -299q-90 0 -162.5 38t-115 99.5t-65 132 t-22.5 142.5zM197 539q0 -181 69.5 -284t173.5 -103q64 0 101.5 21.5t167.5 125.5l86 68q-6 147 -45 274.5t-113 212t-168 84.5q-130 0 -201 -100t-71 -299z" />
<glyph unicode=":" horiz-adv-x="446" d="M154 96l14 78l121 8l47 -8l8 -90l-14 -84l-123 -8l-45 8zM154 897l14 78l121 8l47 -8l8 -90l-14 -84l-123 -8l-45 8z" />
<glyph unicode=";" horiz-adv-x="487" d="M154 98l14 76l117 8l51 -8l8 -90l-14 -84l-166 -283l-6 2l121 277l-72 -4l-45 8zM154 897l14 78l121 8l47 -8l8 -90l-14 -84l-123 -8l-45 8z" />
<glyph unicode="&#x3c;" d="M102 575v21l1065 485v-43l-1009 -452l1009 -451v-43z" />
<glyph unicode="=" d="M106 287v41h1057v-41h-1057zM106 676v41h1057v-41h-1057z" />
<glyph unicode="&#x3e;" d="M102 92v43l1010 451l-1010 452v43l1065 -485v-21z" />
<glyph unicode="?" horiz-adv-x="813" d="M133 1219v204l168 31q105 0 187.5 -28t129 -73.5t70 -96t23.5 -101.5q0 -112 -53.5 -194.5t-165.5 -151.5l-158 -78v-321h-31l-45 286l88 66q85 63 132 113.5t73.5 118.5t26.5 157q0 123 -65 203.5t-212 87.5l-59 -223h-109zM242 80l12 63l100 7l39 -7l6 -75l-12 -68 l-100 -8l-37 8z" />
<glyph unicode="@" horiz-adv-x="1818" d="M102 528q0 288 183 511.5t485 330.5l191 64q181 0 327 -45.5t241 -125.5t146 -188t51 -235q0 -133 -51 -255.5t-134 -209.5t-193.5 -139t-225.5 -52l-96 138l45 213l-283 -355q-104 8 -183 98.5t-79 229.5q0 159 92.5 286.5t247.5 202.5l219 105l195 -139l-150 -766 q79 0 161.5 44t152.5 120.5t115 194.5t45 253q0 123 -43 230t-120.5 185.5t-192 123.5t-251.5 45q-146 0 -284.5 -58.5t-247 -161.5t-174.5 -258.5t-66 -334.5q0 -180 61.5 -324t166 -234.5t238.5 -138t284 -47.5q179 0 391 129l6 -8q-112 -68 -250 -121.5t-237 -68.5 q-172 0 -318.5 57.5t-248.5 158t-159 241.5t-57 304zM653 559q0 -110 48 -181.5t141 -92.5l233 274l76 352l-178 123q-90 -45 -155.5 -107t-99.5 -127.5t-49.5 -124.5t-15.5 -116z" />
<glyph unicode="A" horiz-adv-x="1417" d="M10 0v10l168 10l496 1379l82 55l487 -1434l164 -10v-10h-502v8l180 12l-170 510h-532l-180 -510l184 -12v-8h-377zM391 551h518l-250 752z" />
<glyph unicode="B" horiz-adv-x="1257" d="M61 0v10l189 10v1393l-189 10v11h633q186 0 289.5 -91t103.5 -225q0 -77 -37 -145t-95 -113.5t-128.5 -72.5t-138.5 -29q237 -3 362.5 -98.5t125.5 -249.5q0 -197 -146 -303.5t-391 -106.5h-578zM393 20l219 -10q113 0 194.5 30t127.5 84t67 121t21 150q0 166 -103 258 t-266 92h-260v-725zM393 766h246q144 0 219.5 98t75.5 252q0 138 -78 222.5t-215 84.5l-248 -10v-647z" />
<glyph unicode="C" horiz-adv-x="1359" d="M82 694q0 167 52.5 306t146 235.5t223 155.5t284.5 73q258 0 469 -108v-307h-10l-104 251q-70 68 -153.5 106t-209.5 38q-109 0 -204 -46t-169.5 -133.5t-117.5 -227t-43 -314.5q0 -113 19.5 -216.5t63.5 -197.5t108.5 -163t160.5 -109.5t213 -40.5q95 0 185 41t147 100 l104 275h10v-308q-114 -54 -227 -86t-258 -49q-136 0 -259.5 49t-219.5 138.5t-153.5 229t-57.5 308.5z" />
<glyph unicode="D" horiz-adv-x="1470" d="M61 0v10l209 10v1393l-209 10v11h633q315 0 505 -183.5t190 -511.5q0 -158 -45.5 -292.5t-131 -234t-217.5 -156t-297 -56.5h-637zM414 20l295 -10q230 0 373 197.5t143 523.5q0 157 -31.5 281.5t-96 217.5t-170.5 143t-249 50l-264 -10v-1393z" />
<glyph unicode="E" horiz-adv-x="1226" d="M61 0v10l189 10v1393l-189 10v11h1086v-361h-10l-125 340h-619v-653h377l82 233h10v-485h-10l-82 231h-377v-719h637l125 349h10v-369h-1104z" />
<glyph unicode="F" horiz-adv-x="1177" d="M61 0v10l189 10v1393l-189 10v11h1086v-371h-10l-125 350h-619v-680h377l82 266h10v-553h-10l-82 267h-377v-693l189 -10v-10h-521z" />
<glyph unicode="G" horiz-adv-x="1466" d="M82 698q0 325 196.5 534.5t522.5 231.5q139 0 263.5 -33.5t192.5 -76.5v-305h-10l-104 251q-144 144 -348 144q-169 0 -295 -98t-190 -266.5t-64 -383.5q0 -138 35 -263.5t101 -226t172.5 -160.5t238.5 -60q114 0 207 44.5t141 108.5v469l-174 15v10h448v-10l-131 -15 v-510q-256 -129 -504 -129q-116 0 -220.5 30t-191.5 91t-151 147t-99.5 204t-35.5 257z" />
<glyph unicode="H" horiz-adv-x="1521" d="M61 0v10l189 10v1393l-189 10v11h521v-11l-189 -10v-657h735v657l-188 10v11h520v-11l-188 -10v-1393l188 -10v-10h-520v10l188 10v715h-735v-715l189 -10v-10h-521z" />
<glyph unicode="I" horiz-adv-x="643" d="M61 0v10l189 10v1393l-189 10v11h521v-11l-189 -10v-1393l189 -10v-10h-521z" />
<glyph unicode="J" horiz-adv-x="645" d="M0 -215h240l8 39q14 63 14 356v1233l-219 10v11h551v-11l-188 -10v-1247q0 -110 -18 -171t-69 -122l-192 -231h-127v143z" />
<glyph unicode="K" horiz-adv-x="1376" d="M61 0v10l189 10v1393l-189 10v11h521v-11l-189 -10v-670l719 670l-184 10v11h375v-11l-164 -10l-715 -665l115 22l671 -750l146 -10v-10h-314l-649 727v-707l189 -10v-10h-521z" />
<glyph unicode="L" horiz-adv-x="1124" d="M61 0v10l189 10v1393l-189 10v11h521v-11l-189 -10v-1393h576l125 359h10v-379h-1043z" />
<glyph unicode="M" horiz-adv-x="1820" d="M61 0v10l189 10v1393l-189 10v11h345l526 -1303l483 1303h344v-11l-188 -10v-1393l188 -10v-10h-493v10l161 10v1389l-524 -1419h-74l-559 1415v-1385l168 -10v-10h-377z" />
<glyph unicode="N" horiz-adv-x="1423" d="M61 0v10l189 10v1393l-189 10v11h353l780 -1239v1218l-186 10v11h395v-11l-189 -10v-1423h-61l-883 1407v-1377l189 -10v-10h-398z" />
<glyph unicode="O" horiz-adv-x="1540" d="M82 688q0 331 178.5 532.5t527.5 243.5q144 0 269.5 -57t213 -153.5t137.5 -229t50 -279.5q0 -331 -178.5 -532.5t-529.5 -243.5q-190 0 -344 96.5t-239 261t-85 361.5zM246 743q0 -208 73.5 -377t203 -264.5t290.5 -95.5q145 0 255 87.5t168 242t58 354.5 q0 208 -73.5 377t-203 264.5t-290.5 95.5q-145 0 -255 -87.5t-168 -242t-58 -354.5z" />
<glyph unicode="P" horiz-adv-x="1157" d="M61 0v10l189 10v1393l-189 10v11h635q188 0 309 -98t121 -271q0 -76 -27.5 -138t-70 -104t-108.5 -76.5t-127 -55t-142 -40.5h-258v-631l209 -10v-10h-541zM393 672h205q164 0 267.5 107t103.5 270q0 78 -18.5 143t-57.5 118t-106 83t-156 30l-238 -10v-741z" />
<glyph unicode="Q" horiz-adv-x="1540" d="M82 688q0 331 178.5 532.5t527.5 243.5q144 0 269.5 -57t213 -153.5t137.5 -229t50 -279.5q0 -330 -177 -531t-525 -243l250 -65l272 -223l100 -11v-10h-278l-350 307q-190 0 -344 96.5t-239 261t-85 361.5zM246 743q0 -208 73.5 -377t203 -264.5t290.5 -95.5 q145 0 255 87.5t168 242t58 354.5q0 208 -73.5 377t-203 264.5t-290.5 95.5q-145 0 -255 -87.5t-168 -242t-58 -354.5z" />
<glyph unicode="R" horiz-adv-x="1310" d="M61 0v10l189 10v1393l-189 10v11h619q82 0 154 -18.5t135 -58t100 -111t37 -167.5q0 -313 -526 -397h-187v-662l176 -10v-10h-508zM393 702h144q199 0 305 98t106 265q0 174 -93 264.5t-243 93.5l-219 -10v-711zM580 682l200 -47l410 -615l110 -10v-10h-268z" />
<glyph unicode="S" horiz-adv-x="1044" d="M92 86v305h10l80 -207q153 -157 350 -157q139 0 223.5 77t84.5 207q0 105 -60.5 184t-197.5 154l-232 125q-46 25 -76 44t-63.5 47.5t-52.5 57.5t-32 69.5t-13 88.5q0 149 115.5 247t314.5 136q95 0 199.5 -24.5t175.5 -65.5v-301h-11l-90 234q-130 120 -297 120 q-134 0 -214.5 -74.5t-80.5 -187.5q0 -93 56 -155.5t174 -126.5l231 -125q136 -74 201 -158.5t65 -198.5q0 -65 -21.5 -122.5t-71.5 -116.5t-144 -108.5t-226 -84.5q-126 0 -219 30t-178 87z" />
<glyph unicode="T" horiz-adv-x="1159" d="M20 1042v392h1119v-392h-11l-124 371h-353v-1393l189 -10v-10h-521v10l189 10v1393h-352l-125 -371h-11z" />
<glyph unicode="U" horiz-adv-x="1359" d="M20 1423v11h519v-11l-189 -10v-924q0 -130 43.5 -232.5t137.5 -166t225 -63.5q163 0 263.5 133t100.5 329v924l-188 10v11h407v-11l-188 -10v-917q0 -83 -12.5 -151t-44 -132t-82.5 -111.5t-131 -82t-185 -50.5q-489 0 -489 541v903z" />
<glyph unicode="V" horiz-adv-x="1417" d="M10 1423v11h502v-9l-180 -12l448 -1286l437 1286l-187 12v9h377v-11l-168 -10l-473 -1390l-82 -46l-510 1436z" />
<glyph unicode="W" horiz-adv-x="1996" d="M20 1423v11h474v-11l-181 -10l387 -1190l285 887l-98 303l-139 10v11h473v-11l-181 -10l387 -1190l383 1190l-192 10v11h358v-11l-143 -10l-453 -1405l-28 -10l-355 1077l-344 -1067l-28 -10l-465 1415z" />
<glyph unicode="X" horiz-adv-x="1423" d="M20 0v10l218 10l413 637l-473 756l-153 10v11h499v-11l-176 -10l402 -641l411 641l-239 10v11h481v-11l-217 -10l-424 -659l463 -734l151 -10v-10h-508v10l185 10l-389 619l-402 -619l240 -10v-10h-482z" />
<glyph unicode="Y" horiz-adv-x="1390" d="M10 1423v11h514v-11l-192 -10l434 -792l432 792l-213 10v11h395v-11l-157 -10l-443 -813v-580l236 -10v-10h-615v10l236 10v539l-469 854z" />
<glyph unicode="Z" horiz-adv-x="1122" d="M41 0v10l848 1403h-633l-152 -360h-10v381h967v-11l-848 -1403h659l156 369h10v-389h-997z" />
<glyph unicode="[" horiz-adv-x="618" d="M174 -471v1935h373v-10l-281 -10v-1895l281 -10v-10h-373z" />
<glyph unicode="\" horiz-adv-x="888" d="M-41 1470h43l928 -1941h-47z" />
<glyph unicode="]" horiz-adv-x="618" d="M72 -461l280 10v1895l-280 10v10h372v-1935h-372v10z" />
<glyph unicode="^" horiz-adv-x="718" d="M102 942l252 502h13l249 -502h-30l-226 467l-227 -467h-31z" />
<glyph unicode="_" horiz-adv-x="1157" d="M10 -154h1137v-41h-1137v41z" />
<glyph unicode="`" horiz-adv-x="1024" d="M301 1464h148l133 -354h-11z" />
<glyph unicode="a" horiz-adv-x="899" d="M61 203q0 116 109 203l434 147v104q0 35 -0.5 54t-4.5 49t-12 46.5t-23.5 37t-37.5 30.5t-55.5 17.5t-77.5 7.5q-49 0 -143 -27l-51 -206h-111v137l350 170q164 0 232 -68q35 -35 46 -92.5t11 -150.5v-443q0 -89 41 -192l119 16l2 -8l-246 -45l-37 182l-287 -203 q-120 0 -189 62.5t-69 171.5zM195 238q0 -78 44 -126.5t113 -48.5q85 0 185 72l67 49v359l-307 -119q-102 -78 -102 -186z" />
<glyph unicode="b" horiz-adv-x="1036" d="M20 1393l259 71h10v-684l317 193q146 0 247 -117t101 -315q0 -114 -25.5 -205t-68 -152t-106 -105.5t-130 -69t-149.5 -40.5q-193 0 -309 78v1364l-141 -29zM289 111q69 -113 229 -113q123 0 213 137.5t90 353.5q0 109 -26.5 194.5t-88.5 140.5t-153 55q-13 0 -24.5 -1 t-24 -4t-21 -5t-22.5 -8.5t-20.5 -9t-22.5 -11.5t-21.5 -12.5t-25 -15t-25.5 -15.5l-57 -35v-651z" />
<glyph unicode="c" horiz-adv-x="864" d="M72 438q0 120 39.5 218t106.5 162t147.5 102.5t171.5 52.5q56 0 135 -33.5t123 -71.5v-155h-99l-88 209q-47 16 -96 16q-145 0 -233.5 -100.5t-88.5 -307.5q0 -194 98.5 -326t252.5 -132q141 0 266 110l6 -8q-118 -112 -303 -205q-191 0 -314.5 126t-123.5 343z" />
<glyph unicode="d" horiz-adv-x="1093" d="M72 424q0 213 117 359.5t346 189.5q112 0 202 -53v491l-141 -29l-4 11l258 71h10v-1241q0 -91 39 -184l152 18l2 -8l-273 -59l-41 186l-299 -207q-106 0 -191.5 65.5t-131 169t-45.5 220.5zM205 494q0 -178 77 -304.5t197 -126.5q52 0 86 16t117 75l55 39v651 q-75 102 -209 102q-157 -1 -240 -121.5t-83 -330.5z" />
<glyph unicode="e" horiz-adv-x="917" d="M72 436q0 116 33.5 210.5t93 158.5t134 105.5t163.5 62.5q335 0 335 -369v-43h-641v-53q0 -201 107.5 -318.5t275.5 -117.5q116 0 267 100l6 -6q-96 -74 -164 -116t-160 -81q-87 0 -166.5 29.5t-143.5 86t-102 147.5t-38 204zM193 571h495q0 81 -9 140t-33 111.5 t-71.5 80t-117.5 27.5q-122 0 -188.5 -97.5t-75.5 -261.5z" />
<glyph unicode="f" horiz-adv-x="600" d="M51 0v10l144 10v912h-144v10h144v27q0 71 0.5 96.5t6 65t18 63t34.5 49.5l182 211h215v-121h-307l-8 -22q-10 -29 -14 -64.5t-4.5 -67.5t-0.5 -132v-105h254v-10h-254v-912l238 -10v-10h-504z" />
<glyph unicode="g" horiz-adv-x="958" d="M41 -184l231 174q-184 40 -184 196v21l197 143q-91 31 -146 102t-55 164q0 125 87.5 212.5t274.5 142.5q101 0 182.5 -43t121.5 -117l118 160h80v-152h-174l-18 -20q26 -51 26 -117q0 -127 -86.5 -215t-275.5 -139q-68 0 -123 18l-96 -92q0 -79 39.5 -115.5t107.5 -36.5 h330q102 0 160.5 -53.5t58.5 -128.5q0 -127 -133.5 -239t-347.5 -175q-194 0 -284.5 66.5t-90.5 208.5v35zM174 -231q0 -99 64 -161q62 -61 165 -61h3q143 2 255.5 91.5t112.5 201.5q0 150 -190 150h-299q-111 -87 -111 -221zM217 672q0 -39 6.5 -78t23.5 -81t42.5 -74 t68 -53t95.5 -21q92 0 144 70t52 192q0 50 -11 99t-36 98t-73.5 79.5t-114.5 30.5q-92 0 -144.5 -70t-52.5 -192z" />
<glyph unicode="h" horiz-adv-x="1130" d="M61 1393l258 71h11v-725l377 234q100 0 153 -49q39 -37 53.5 -87t14.5 -165v-652l168 -10v-10h-402v10l111 10v664q0 111 -35 153t-111 42q-18 0 -34 -1.5t-35 -8.5t-29 -10t-34 -16t-31 -17t-37.5 -22.5t-38.5 -23.5l-90 -53v-707l112 -10v-10h-379v10l144 10v1391 l-141 -29z" />
<glyph unicode="i" horiz-adv-x="520" d="M61 883l265 80h10v-943l143 -10v-10h-409v10l143 10v893l-150 -39zM190 1343l15 70l108 8l43 -8l9 -82l-15 -76l-110 -8l-41 8z" />
<glyph unicode="j" horiz-adv-x="489" d="M-41 -354h234l4 24q18 122 18 201v1042l-149 -39l-3 9l265 80h10v-1061q0 -48 -12 -78.5t-41 -69.5l-181 -237h-145v129zM193 1343l14 70l108 8l43 -8l9 -82l-15 -76l-110 -8l-41 8z" />
<glyph unicode="k" horiz-adv-x="1028" d="M61 1393l258 71h11v-942l473 400l-148 10v10h312v-10l-138 -10l-469 -394l107 15l451 -525l100 -8v-10h-252l-436 510v-490l143 -10v-10h-410v10l144 10v1391l-141 -29z" />
<glyph unicode="l" horiz-adv-x="503" d="M61 1393l258 71h11v-1444l143 -10v-10h-410v10l144 10v1391l-141 -29z" />
<glyph unicode="m" horiz-adv-x="1693" d="M61 883l265 80h10v-224l356 234q101 0 154 -49q35 -33 51 -71.5t16 -113.5l357 234q100 0 153 -49q39 -37 53.5 -87t14.5 -165v-652l168 -10v-10h-402v10l111 10v664q0 111 -34.5 153t-110.5 42q-37 0 -81.5 -17.5t-67 -31t-70.5 -44.5l-91 -59v-707l113 -10v-10h-346v10 l111 10v664q0 111 -35 153t-111 42q-37 0 -81.5 -17.5t-67 -31t-70.5 -44.5l-90 -59v-707l113 -10v-10h-379v10l143 10v893l-150 -39z" />
<glyph unicode="n" horiz-adv-x="1136" d="M61 883l265 80h10v-224l377 234q100 0 153 -49q39 -37 53.5 -87t14.5 -165v-652l168 -10v-10h-402v10l111 10v664q0 111 -34.5 153t-110.5 42q-16 0 -31.5 -2.5t-27.5 -4.5t-29.5 -9t-26.5 -10.5t-29.5 -15.5t-28 -16.5t-33.5 -20t-34 -20.5l-90 -53v-707l113 -10v-10 h-379v10l143 10v893l-150 -39z" />
<glyph unicode="o" horiz-adv-x="1038" d="M72 449q0 221 120 348t349 176q188 0 307 -136.5t119 -342.5q0 -431 -471 -525q-187 0 -305.5 137t-118.5 343zM207 494q0 -132 42 -243.5t120 -179t176 -67.5q136 0 211 125t75 320q0 219 -95 352t-244 133q-137 0 -211 -121t-74 -319z" />
<glyph unicode="p" horiz-adv-x="1042" d="M31 883l264 80h10v-193l305 203q156 0 258.5 -127.5t102.5 -306.5q0 -219 -116.5 -368t-346.5 -202q-128 0 -203 64v-484l219 -10v-10h-489v10l147 10v1364l-149 -39zM305 113q32 -54 89 -86q54 -31 124 -31h4q140 2 228 131t88 342q0 112 -31 203.5t-94 149t-148 57.5 q-26 0 -46.5 -3.5t-43 -14.5t-35 -18.5t-43.5 -28t-47 -30.5l-45 -28v-643z" />
<glyph unicode="q" horiz-adv-x="1017" d="M72 410q0 114 38.5 214t104.5 171.5t152.5 117.5t183.5 60q87 0 141 -16t119 -54l39 60h10v-1414l148 -10v-10h-490v10l219 10v617l-297 -197q-152 0 -260 122.5t-108 318.5zM205 483q0 -111 27.5 -201t90.5 -150t154 -60q59 0 98.5 14.5t104.5 56.5l57 37v635 q-67 131 -209 131q-61 0 -117 -27.5t-103 -81t-75 -145.5t-28 -209z" />
<glyph unicode="r" horiz-adv-x="702" d="M61 883l265 80h10v-301l221 301h115v-150h-211l-125 -168v-625l196 -10v-10h-462v10l143 10v893l-150 -39z" />
<glyph unicode="s" horiz-adv-x="733" d="M61 63v242h11l94 -201q102 -94 207 -94q94 0 142 46t48 114q0 44 -9.5 75.5t-35.5 59.5t-53.5 48t-81.5 53l-145 88q-78 48 -102 71q-66 61 -66 152t72.5 149t224.5 107q157 0 278 -76v-244h-10l-84 203q-51 48 -97.5 65t-111.5 17q-76 0 -123 -42t-47 -108 q0 -35 11 -62.5t39.5 -53t49 -39.5t66.5 -41l156 -92q100 -60 139 -114q37 -52 37 -126v-8q-1 -101 -84.5 -172.5t-237.5 -110.5q-68 0 -147 27.5t-140 66.5z" />
<glyph unicode="t" horiz-adv-x="641" d="M10 932v10h164v170l123 78v-248h309v-10h-309v-723q0 -148 129 -148q96 0 195 58l6 -8l-246 -142q-54 0 -92.5 13t-60.5 33.5t-34.5 54.5t-16 66.5t-3.5 78.5v717h-164z" />
<glyph unicode="u" horiz-adv-x="1079" d="M20 907l267 45h10v-698q0 -199 135 -199q51 0 92 17.5t113 62.5l115 68v715l-152 -21l-2 10l266 45h10v-698q0 -96 31 -223l121 14l2 -10l-244 -45l-32 198l-353 -219q-104 0 -157 45q-39 35 -53.5 86t-14.5 166v652l-151 -21z" />
<glyph unicode="v" horiz-adv-x="1056" d="M10 932v10h393v-10l-122 -10l311 -859l299 859l-160 10v10h316v-10l-134 -10l-313 -885l-100 -68l-365 953z" />
<glyph unicode="w" horiz-adv-x="1652" d="M10 932v10h393v-10l-122 -10l303 -856l229 684l-63 172l-125 10v10h393v-10l-125 -10l305 -856l287 856l-160 10v10h317v-10l-133 -10l-303 -887l-102 -66l-281 750l-231 -684l-103 -66l-354 953z" />
<glyph unicode="x" horiz-adv-x="1042" d="M20 0v10l164 10l305 414l-305 488l-118 10v10h350v-10l-72 -10l238 -381l262 381l-197 10v10h385v-10l-164 -10l-272 -400l313 -502l119 -10v-10h-350v10l72 10l-248 394l-291 -394l188 -10v-10h-379z" />
<glyph unicode="y" horiz-adv-x="1056" d="M10 932v10h393v-10l-122 -10l309 -832l295 832l-154 10v10h316v-10l-138 -10l-305 -856l-237 -547h-174v143h178l211 406l-107 -62l-340 916z" />
<glyph unicode="z" horiz-adv-x="882" d="M72 0v8l610 920h-420l-125 -271h-10v285h704v-10l-604 -918h461l119 265h10v-279h-745z" />
<glyph unicode="{" horiz-adv-x="671" d="M102 489q47 17 76.5 47t41.5 76t15 80t3 92v394q0 129 66.5 207.5t170.5 78.5h98v-10h-106q-61 0 -99 -52.5t-38 -172.5v-443q0 -185 -152 -260l152 -92v-670q0 -119 44 -172t109 -53h107v-10h-98q-113 0 -183.5 78.5t-70.5 208.5v587z" />
<glyph unicode="|" horiz-adv-x="491" d="M225 -502v1972h41v-1972h-41z" />
<glyph unicode="}" horiz-adv-x="661" d="M72 1454v10h98q113 0 183.5 -78t70.5 -208v-568l135 -86q-32 -11 -56 -29t-38 -43t-23 -47.5t-12.5 -57.5t-4.5 -57.5t-1 -60.5v-413q0 -129 -67 -208t-171 -79h-98v10h107q61 0 99 52.5t38 172.5v463q0 185 151 260l-151 93v649q0 119 -44.5 172t-109.5 53h-106z" />
<glyph unicode="~" horiz-adv-x="1368" d="M102 414l80 164l191 24l792 -108l90 151h11l-80 -153l-191 -35l-790 116l-92 -159h-11z" />
<glyph unicode="&#xa1;" horiz-adv-x="464" d="M154 891l12 67l100 9l37 -9l8 -79l-12 -64l-100 -6l-39 6zM156 -496l10 650l51 417h31l51 -415l10 -652h-153z" />
<glyph unicode="&#xa2;" horiz-adv-x="874" d="M82 438q0 113 35.5 207t96 158t135 105t159.5 59v139h20v-135q3 0 9.5 1t9.5 1q56 0 135 -33.5t123 -71.5v-155h-98l-89 209q-47 16 -96 16q-145 0 -233 -100.5t-88 -307.5q0 -194 98 -326t252 -132q141 0 266 110l6 -8q-118 -112 -295 -201v-137h-20v133 q-187 5 -306.5 130t-119.5 339z" />
<glyph unicode="&#xa3;" horiz-adv-x="1099" d="M82 0v10l188 21v712h-188v11h188v229q0 105 16.5 175.5t62.5 129.5t125.5 100t205.5 76q207 0 291 -100v-289h-10l-91 244q-52 58 -97.5 81t-119.5 23q-127 0 -193.5 -80.5t-66.5 -236.5v-352h381v-11h-381v-450q0 -136 -13 -184.5t-58 -88.5h569l117 297h10v-317h-936z " />
<glyph unicode="&#xa4;" d="M188 311l142 142q-97 118 -97 264q0 155 107 272l-152 154l29 28l152 -153q119 104 270 104q146 0 264 -100l150 149l28 -28l-149 -148q112 -115 112 -278q0 -151 -102 -268l139 -138l-28 -28l-138 137q-119 -109 -276 -109q-165 0 -281 113l-141 -141zM274 717 q0 -151 107.5 -260t257.5 -109q77 0 147 33t123 90l4 6q91 104 91 240q0 151 -107.5 260.5t-257.5 109.5t-257.5 -109.5t-107.5 -260.5z" />
<glyph unicode="&#xa5;" horiz-adv-x="1361" d="M41 1423v11h514v-11l-193 -10l392 -792l385 792l-213 10v11h395v-11l-158 -10l-397 -813v-41h223v-10h-223v-182h223v-11h-223v-336l235 -10v-10h-614v10l236 10v336h-209v11h209v182h-209v10h209l-424 854z" />
<glyph unicode="&#xa6;" horiz-adv-x="491" d="M225 379h41v-881h-41v881zM225 590v880h41v-880h-41z" />
<glyph unicode="&#xa7;" horiz-adv-x="1024" d="M82 532q0 213 225 306q-62 64 -92.5 128.5t-30.5 143.5q0 137 97.5 227t281.5 127q102 0 178.5 -27t112.5 -73v-219h-10l-86 192q-75 93 -228 93q-49 0 -89.5 -11.5t-76 -37.5t-55.5 -75.5t-20 -117.5q0 -101 75 -190t259 -220l319 -227v-90q0 -250 -276 -357l153 -124 v-91q0 -75 -23.5 -136.5t-58 -101.5t-86 -72t-96.5 -49t-100 -32q-75 0 -163 27.5t-155 66.5v263h10l95 -222q117 -94 237 -94q106 0 174 74t68 215v35l-309 246q-72 58 -113 92t-88.5 80.5t-71.5 82t-40.5 79.5t-16.5 89zM186 614q0 -29 9.5 -58.5t21 -53t37 -54t41.5 -48 t52.5 -48t50.5 -42t55 -42.5t49 -37l155 -120q82 35 134.5 106t52.5 182v31l-312 225q-150 107 -219 174q-58 -20 -92.5 -73.5t-34.5 -141.5z" />
<glyph unicode="&#xa8;" horiz-adv-x="1024" d="M262 1313l14 61l97 8l39 -8l8 -74l-14 -67l-99 -8l-37 8zM590 1313l14 61l96 8l39 -8l9 -74l-15 -67l-98 -8l-37 8z" />
<glyph unicode="&#xa9;" horiz-adv-x="1703" d="M102 729q0 158 53.5 286.5t152.5 218.5t235 147.5t307 82.5q151 -2 286.5 -54t239.5 -146.5t165 -239t61 -319.5q0 -158 -53.5 -286.5t-152.5 -218.5t-235 -148t-307 -83q-151 2 -286.5 54t-239.5 147t-165 239.5t-61 319.5zM197 729q0 -144 42.5 -267t111 -206 t155.5 -142.5t174.5 -86.5t169.5 -27q130 0 248.5 48.5t209.5 136.5t145 223t54 297q0 144 -42.5 267t-111 206t-155.5 142.5t-174.5 86.5t-169.5 27q-130 0 -248.5 -49t-209.5 -137t-145 -223t-54 -296zM430 700q0 194 124 310t337 135q164 0 295 -62v-194h-12l-82 164 q-82 75 -199 75q-133 0 -220 -106.5t-87 -302.5q0 -114 32 -204.5t106 -149t181 -58.5q55 0 105 21t82 53l82 176h12v-197q-145 -58 -309 -73q-89 0 -169.5 27.5t-142.5 78t-98.5 130.5t-36.5 177z" />
<glyph unicode="&#xaa;" horiz-adv-x="839" d="M82 829q0 98 90 168l360 121v88q0 25 -0.5 39t-2.5 35.5t-7 34.5t-13 29.5t-21 25.5t-31 18t-43.5 13t-57.5 4q-43 0 -118 -21l-41 -172h-93v113l291 141q136 0 191 -55q29 -29 38 -76.5t9 -126.5v-366q0 -67 35 -160l98 14l2 -6l-205 -39l-28 152l-240 -168 q-99 0 -156 52t-57 142zM193 858q0 -66 36 -105.5t95 -39.5q68 0 151 59l57 41v297l-256 -98q-83 -63 -83 -154z" />
<glyph unicode="&#xab;" horiz-adv-x="823" d="M31 481l372 451h11l-271 -451l271 -450h-13zM379 481l373 451h10l-270 -451l270 -450h-12z" />
<glyph unicode="&#xac;" d="M109 686v41h1052v-360h-41v319h-1011z" />
<glyph unicode="&#xad;" horiz-adv-x="747" d="M61 547v41h625v-41h-625z" />
<glyph unicode="&#xae;" horiz-adv-x="1212" d="M92 899q0 215 136.5 342t375.5 162q140 -1 256 -61t188 -180t72 -279q0 -215 -136.5 -342t-375.5 -162q-104 1 -197 36.5t-164.5 100.5t-113 164t-41.5 219zM178 899q0 -97 28 -180.5t72.5 -140.5t101 -97.5t114 -59t110.5 -18.5q85 0 163 33t137.5 93.5t94.5 152 t35 201.5q0 121 -42 219.5t-107 156.5t-137 88.5t-140 30.5q-85 0 -163 -33t-137.5 -93t-94.5 -151.5t-35 -201.5zM352 618v9l68 4v528l-68 4v8h277q75 0 127.5 -33.5t52.5 -101.5q0 -69 -63 -106t-168 -47l112 -23l152 -229l43 -4v-9h-140l-170 265h-63v-252l66 -4v-9h-226 zM512 893h49q70 0 108 36.5t38 100.5q0 62 -33.5 97.5t-85.5 35.5l-76 -4v-266z" />
<glyph unicode="&#xaf;" horiz-adv-x="1024" d="M225 1290v41h574v-41h-574z" />
<glyph unicode="&#xb0;" horiz-adv-x="874" d="M123 1229q0 123 77.5 193.5t237.5 119.5q129 0 221.5 -92t92.5 -221t-74.5 -204t-239.5 -112q-129 0 -222 93.5t-93 222.5zM170 1229q0 -107 80.5 -187.5t187.5 -80.5q119 0 193 78.5t74 189.5q0 107 -80 186.5t-187 79.5q-120 0 -194 -77.5t-74 -188.5z" />
<glyph unicode="&#xb1;" d="M96 786v41h508v516h41v-516h508v-41h-508v-497h-41v497h-508zM98 0v41h1076v-41h-1076z" />
<glyph unicode="&#xb2;" horiz-adv-x="679" d="M20 829l119 115q166 158 235.5 267t69.5 210q0 78 -39.5 122t-95.5 44q-48 0 -104 -18l-45 -170h-109v127l281 100q125 0 188.5 -55t63.5 -135q0 -58 -20 -110.5t-65.5 -105.5t-104 -103t-148.5 -116l-117 -81h489v-13l-38 -88h-549z" />
<glyph unicode="&#xb3;" horiz-adv-x="604" d="M41 1421v113l287 92q90 0 134 -42t44 -95q0 -126 -221 -199q111 -3 179 -54t68 -122q0 -69 -50 -120.5t-154 -98.5l-176 -78h-109v98h285q80 70 80 148q0 69 -62.5 117.5t-173.5 48.5l-2 12l63 33q90 41 119 83t29 101q0 56 -32.5 91.5t-82.5 35.5q-40 0 -80 -18 l-45 -146h-100z" />
<glyph unicode="&#xb4;" horiz-adv-x="1024" d="M305 1110l133 354h148l-271 -354h-10z" />
<glyph unicode="&#xb5;" d="M207 -471v1413h123v-688q0 -199 135 -199q35 0 70 11.5t56.5 23t78.5 45.5l114 68v739h123v-922l154 -10v-10h-193l-84 152v36l-352 -219q-105 0 -158 45q-34 31 -47 68v-143l154 -410h-174z" />
<glyph unicode="&#xb6;" horiz-adv-x="931" d="M61 1104q0 48 21.5 92t67 86t91 74.5t117.5 77.5h492v-11l-105 -10v-1739h-40v1739h-308v-1739h-41v1166q-126 0 -210.5 72t-84.5 192z" />
<glyph unicode="&#xb7;" horiz-adv-x="415" d="M113 836l14 77l121 9l47 -9l8 -90l-14 -84l-123 -8l-45 8z" />
<glyph unicode="&#xb8;" horiz-adv-x="1024" d="M369 -492l43 62h151q34 22 53 62t19 81q0 57 -40.5 87.5t-102.5 35.5l96 152h12l-59 -97q69 -3 119.5 -43t50.5 -106q0 -116 -156 -180l-139 -54h-47z" />
<glyph unicode="&#xb9;" horiz-adv-x="520" d="M41 1509l283 107h12v-778l174 -7v-12h-463v12l172 7v721l-174 -60z" />
<glyph unicode="&#xba;" horiz-adv-x="872" d="M72 1040q0 345 381 426q154 0 251 -111t97 -280q0 -348 -383 -426q-154 0 -250 111t-96 280zM182 1075q0 -165 77.5 -281t197.5 -116q112 0 172.5 101t60.5 261q0 178 -77.5 286t-198.5 108q-112 0 -172 -98.5t-60 -260.5z" />
<glyph unicode="&#xbb;" horiz-adv-x="823" d="M61 31l271 450l-271 451h11l372 -451l-370 -450h-13zM410 31l270 450l-270 451h10l373 -451l-371 -450h-12z" />
<glyph unicode="&#xbc;" horiz-adv-x="1560" d="M61 1335l283 107h12v-778l174 -7v-12h-462v12l172 7v720l-174 -59zM336 -102l792 1556h50l-789 -1556h-53zM866 270l371 518h149v-10l-497 -506h328v197l116 61v-258h166v-16h-166v-256h-116v256h-340z" />
<glyph unicode="&#xbd;" horiz-adv-x="1622" d="M61 1335l283 107h12v-778l174 -7v-12h-462v12l172 7v720l-174 -59zM336 -102l792 1556h50l-789 -1556h-53zM963 10l10 -10h549l39 88v12h-490l117 82q182 132 260 227t78 207q0 81 -63.5 136t-188.5 55l-281 -100v-127h109l45 170q56 18 104 18q56 0 95.5 -44t39.5 -122 q0 -101 -69.5 -210t-235.5 -267z" />
<glyph unicode="&#xbe;" horiz-adv-x="1562" d="M61 1247h101l45 146q41 18 80 18q50 0 82 -35t32 -92q0 -59 -28.5 -101t-118.5 -83l-64 -33l3 -12q111 0 173 -48.5t62 -117.5q0 -78 -80 -148h-285v-98h109l176 78q105 47 155 99t50 120q0 71 -68.5 122t-179.5 54q221 73 221 199q0 53 -44 95t-134 42l-287 -92v-113z M338 -102l792 1556h50l-789 -1556h-53zM868 270l371 518h150v-10l-498 -506h328v197l116 61v-258h166v-16h-166v-256h-116v256h-340z" />
<glyph unicode="&#xbf;" horiz-adv-x="741" d="M41 -201q0 112 53.5 194.5t165.5 151.5l148 78v291h51l24 -256l-88 -65q-122 -93 -171.5 -175.5t-49.5 -214.5q0 -123 65 -203t212 -87l59 223h108v-205l-167 -31q-105 0 -187.5 28t-129 73.5t-70 96t-23.5 101.5zM352 887l13 67l100 9l37 -9l8 -80l-12 -63l-101 -6 l-39 6z" />
<glyph unicode="&#xc0;" horiz-adv-x="1417" d="M10 0v10l168 10l496 1379l82 55l487 -1434l164 -10v-10h-502v8l180 12l-170 510h-532l-180 -510l184 -12v-8h-377zM391 551h518l-250 752zM463 1843h158l96 -272h-10z" />
<glyph unicode="&#xc1;" horiz-adv-x="1417" d="M10 0v10l168 10l496 1379l82 55l487 -1434l164 -10v-10h-502v8l180 12l-170 510h-532l-180 -510l184 -12v-8h-377zM391 551h518l-250 752zM735 1571l96 272h158l-244 -272h-10z" />
<glyph unicode="&#xc2;" horiz-adv-x="1417" d="M10 0v10l168 10l496 1379l82 55l487 -1434l164 -10v-10h-502v8l180 12l-170 510h-532l-180 -510l184 -12v-8h-377zM391 551h518l-250 752zM453 1571l258 289h8l260 -289h-10l-252 180h-4l-250 -180h-10z" />
<glyph unicode="&#xc3;" horiz-adv-x="1417" d="M10 0v10l168 10l496 1379l82 55l487 -1434l164 -10v-10h-502v8l180 12l-170 510h-532l-180 -510l184 -12v-8h-377zM391 551h518l-250 752zM424 1579l49 195l129 45l402 -179l55 185h10l-49 -195l-129 -45l-402 180l-55 -186h-10z" />
<glyph unicode="&#xc4;" horiz-adv-x="1417" d="M10 0v10l168 10l496 1379l82 55l487 -1434l164 -10v-10h-502v8l180 12l-170 510h-532l-180 -510l184 -12v-8h-377zM391 551h518l-250 752zM416 1724l14 62l96 8l39 -8l8 -74l-14 -67l-98 -9l-37 9zM850 1724l14 62l97 8l38 -8l9 -74l-15 -67l-98 -9l-37 9z" />
<glyph unicode="&#xc5;" horiz-adv-x="1417" d="M10 0v10l168 10l496 1379l82 55l487 -1434l164 -10v-10h-502v8l180 12l-170 510h-532l-180 -510l184 -12v-8h-377zM391 551h518l-250 752zM508 1679q0 34 10.5 61.5t24 44.5t41 33.5t47 25t57.5 22.5q14 5 21 8q84 0 143 -46.5t59 -139.5q0 -42 -13.5 -73t-41.5 -51.5 t-55 -33.5t-70 -29q-15 -5 -22 -8q-84 0 -142.5 46.5t-58.5 139.5zM559 1683q0 -72 41 -114.5t109 -42.5t109.5 42.5t41.5 114.5t-41.5 115t-109.5 43t-109 -43t-41 -115z" />
<glyph unicode="&#xc6;" horiz-adv-x="1925" d="M10 0v10l168 10l852 1414h825v-361h-10l-125 340h-544v-713h303l82 234h10v-485h-10l-82 231h-303v-660h563l125 349h10v-369h-1030v10l188 10v660h-430l-397 -660l184 -12v-8h-379zM614 700h418v705z" />
<glyph unicode="&#xc7;" horiz-adv-x="1359" d="M82 694q0 167 52.5 306t146 235.5t223 155.5t284.5 73q258 0 469 -108v-307h-10l-104 251q-70 68 -153.5 106t-209.5 38q-109 0 -204 -46t-169.5 -133.5t-117.5 -227t-43 -314.5q0 -113 19.5 -216.5t63.5 -197.5t108.5 -163t160.5 -109.5t213 -40.5q95 0 185 41t147 100 l104 275h10v-308q-114 -54 -227 -86t-258 -49l-49 -78q69 -3 119.5 -43t50.5 -106q0 -116 -156 -180l-139 -54h-47l43 62h151q34 22 53 62t19 81q0 57 -40.5 87.5t-102.5 35.5l84 133q-133 2 -254 52t-215.5 139.5t-150.5 228t-56 305.5z" />
<glyph unicode="&#xc8;" horiz-adv-x="1226" d="M61 0v10l189 10v1393l-189 10v11h1086v-361h-10l-125 340h-619v-653h377l82 233h10v-485h-10l-82 231h-377v-719h637l125 349h10v-369h-1104zM442 1843h158l96 -272h-10z" />
<glyph unicode="&#xc9;" horiz-adv-x="1226" d="M61 0v10l189 10v1393l-189 10v11h1086v-361h-10l-125 340h-619v-653h377l82 233h10v-485h-10l-82 231h-377v-719h637l125 349h10v-369h-1104zM653 1571l97 272h157l-243 -272h-11z" />
<glyph unicode="&#xca;" horiz-adv-x="1226" d="M61 0v10l189 10v1393l-189 10v11h1086v-361h-10l-125 340h-619v-653h377l82 233h10v-485h-10l-82 231h-377v-719h637l125 349h10v-369h-1104zM438 1571l258 289h9l260 -289h-11l-252 180h-4l-249 -180h-11z" />
<glyph unicode="&#xcb;" horiz-adv-x="1226" d="M61 0v10l189 10v1393l-189 10v11h1086v-361h-10l-125 340h-619v-653h377l82 233h10v-485h-10l-82 231h-377v-719h637l125 349h10v-369h-1104zM406 1724l14 62l96 8l39 -8l8 -74l-14 -67l-98 -9l-37 9zM840 1724l14 62l96 8l39 -8l8 -74l-14 -67l-98 -9l-37 9z" />
<glyph unicode="&#xcc;" horiz-adv-x="643" d="M61 0v10l189 10v1393l-189 10v11h521v-11l-189 -10v-1393l189 -10v-10h-521zM125 1843h158l96 -272h-10z" />
<glyph unicode="&#xcd;" horiz-adv-x="643" d="M61 0v10l189 10v1393l-189 10v11h521v-11l-189 -10v-1393l189 -10v-10h-521zM324 1571l96 272h158l-244 -272h-10z" />
<glyph unicode="&#xce;" horiz-adv-x="643" d="M59 1571l258 289h9l260 -289h-11l-251 180h-5l-249 -180h-11zM61 0v10l189 10v1393l-189 10v11h521v-11l-189 -10v-1393l189 -10v-10h-521z" />
<glyph unicode="&#xcf;" horiz-adv-x="643" d="M37 1724l14 62l96 8l39 -8l9 -74l-15 -67l-98 -9l-37 9zM61 0v10l189 10v1393l-189 10v11h521v-11l-189 -10v-1393l189 -10v-10h-521zM471 1724l14 62l97 8l39 -8l8 -74l-15 -67l-98 -9l-37 9z" />
<glyph unicode="&#xd0;" horiz-adv-x="1470" d="M61 0v10l209 10v725h-188v11h188v657l-209 10v11h633q315 0 505 -183.5t190 -511.5q0 -158 -45.5 -292.5t-131 -234t-217.5 -156t-297 -56.5h-637zM414 20l295 -10q230 0 373 197.5t143 523.5q0 157 -31.5 281.5t-96 217.5t-170.5 143t-249 50l-264 -10v-657h303v-11 h-303v-725z" />
<glyph unicode="&#xd1;" horiz-adv-x="1423" d="M61 0v10l189 10v1393l-189 10v11h353l780 -1239v1218l-186 10v11h395v-11l-189 -10v-1423h-61l-883 1407v-1377l189 -10v-10h-398zM479 1579l49 195l129 45l402 -179l55 185h10l-49 -195l-129 -45l-401 180l-56 -186h-10z" />
<glyph unicode="&#xd2;" horiz-adv-x="1540" d="M82 688q0 331 178.5 532.5t527.5 243.5q144 0 269.5 -57t213 -153.5t137.5 -229t50 -279.5q0 -331 -178.5 -532.5t-529.5 -243.5q-190 0 -344 96.5t-239 261t-85 361.5zM246 743q0 -208 73.5 -377t203 -264.5t290.5 -95.5q145 0 255 87.5t168 242t58 354.5 q0 208 -73.5 377t-203 264.5t-290.5 95.5q-145 0 -255 -87.5t-168 -242t-58 -354.5zM575 1843h158l96 -272h-10z" />
<glyph unicode="&#xd3;" horiz-adv-x="1540" d="M82 688q0 331 178.5 532.5t527.5 243.5q144 0 269.5 -57t213 -153.5t137.5 -229t50 -279.5q0 -331 -178.5 -532.5t-529.5 -243.5q-190 0 -344 96.5t-239 261t-85 361.5zM246 743q0 -208 73.5 -377t203 -264.5t290.5 -95.5q145 0 255 87.5t168 242t58 354.5 q0 208 -73.5 377t-203 264.5t-290.5 95.5q-145 0 -255 -87.5t-168 -242t-58 -354.5zM733 1571l96 272h158l-244 -272h-10z" />
<glyph unicode="&#xd4;" horiz-adv-x="1540" d="M82 688q0 331 178.5 532.5t527.5 243.5q144 0 269.5 -57t213 -153.5t137.5 -229t50 -279.5q0 -331 -178.5 -532.5t-529.5 -243.5q-190 0 -344 96.5t-239 261t-85 361.5zM246 743q0 -208 73.5 -377t203 -264.5t290.5 -95.5q145 0 255 87.5t168 242t58 354.5 q0 208 -73.5 377t-203 264.5t-290.5 95.5q-145 0 -255 -87.5t-168 -242t-58 -354.5zM500 1571l258 289h8l260 -289h-10l-252 180h-4l-250 -180h-10z" />
<glyph unicode="&#xd5;" horiz-adv-x="1540" d="M82 688q0 331 178.5 532.5t527.5 243.5q144 0 269.5 -57t213 -153.5t137.5 -229t50 -279.5q0 -331 -178.5 -532.5t-529.5 -243.5q-190 0 -344 96.5t-239 261t-85 361.5zM246 743q0 -208 73.5 -377t203 -264.5t290.5 -95.5q145 0 255 87.5t168 242t58 354.5 q0 208 -73.5 377t-203 264.5t-290.5 95.5q-145 0 -255 -87.5t-168 -242t-58 -354.5zM477 1579l49 195l129 45l402 -179l55 185h10l-49 -195l-129 -45l-401 180l-56 -186h-10z" />
<glyph unicode="&#xd6;" horiz-adv-x="1540" d="M82 688q0 331 178.5 532.5t527.5 243.5q144 0 269.5 -57t213 -153.5t137.5 -229t50 -279.5q0 -331 -178.5 -532.5t-529.5 -243.5q-190 0 -344 96.5t-239 261t-85 361.5zM246 743q0 -208 73.5 -377t203 -264.5t290.5 -95.5q145 0 255 87.5t168 242t58 354.5 q0 208 -73.5 377t-203 264.5t-290.5 95.5q-145 0 -255 -87.5t-168 -242t-58 -354.5zM487 1724l15 62l96 8l39 -8l8 -74l-14 -67l-99 -9l-36 9zM922 1724l14 62l96 8l39 -8l8 -74l-14 -67l-98 -9l-37 9z" />
<glyph unicode="&#xd7;" d="M231 94l373 375l-373 375l29 28l375 -374l371 372l28 -28l-370 -373l374 -373l-28 -28l-375 372l-375 -374z" />
<glyph unicode="&#xd8;" horiz-adv-x="1540" d="M82 688q0 331 178.5 532.5t527.5 243.5q250 0 435 -164l127 164h20l-135 -176q105 -99 164 -240.5t59 -302.5q0 -331 -178.5 -532.5t-529.5 -243.5q-237 0 -420 152l-117 -152h-25l127 164q-110 101 -171.5 245.5t-61.5 309.5zM246 743q0 -301 147 -510l752 967 q-78 107 -186 167t-232 60q-145 0 -255 -87.5t-168 -242t-58 -354.5zM406 219q78 -102 182 -157.5t225 -55.5q145 0 255 87.5t168 242t58 354.5q0 292 -139 496z" />
<glyph unicode="&#xd9;" horiz-adv-x="1359" d="M20 1423v11h519v-11l-189 -10v-924q0 -130 43.5 -232.5t137.5 -166t225 -63.5q163 0 263.5 133t100.5 329v924l-188 10v11h407v-11l-188 -10v-917q0 -83 -12.5 -151t-44 -132t-82.5 -111.5t-131 -82t-185 -50.5q-489 0 -489 541v903zM524 1843h158l96 -272h-10z" />
<glyph unicode="&#xda;" horiz-adv-x="1359" d="M20 1423v11h519v-11l-189 -10v-924q0 -130 43.5 -232.5t137.5 -166t225 -63.5q163 0 263.5 133t100.5 329v924l-188 10v11h407v-11l-188 -10v-917q0 -83 -12.5 -151t-44 -132t-82.5 -111.5t-131 -82t-185 -50.5q-489 0 -489 541v903zM702 1571l97 272h157l-243 -272h-11z " />
<glyph unicode="&#xdb;" horiz-adv-x="1359" d="M20 1423v11h519v-11l-189 -10v-924q0 -130 43.5 -232.5t137.5 -166t225 -63.5q163 0 263.5 133t100.5 329v924l-188 10v11h407v-11l-188 -10v-917q0 -83 -12.5 -151t-44 -132t-82.5 -111.5t-131 -82t-185 -50.5q-489 0 -489 541v903zM481 1571l258 289h9l260 -289h-11 l-252 180h-4l-249 -180h-11z" />
<glyph unicode="&#xdc;" horiz-adv-x="1359" d="M20 1423v11h519v-11l-189 -10v-924q0 -130 43.5 -232.5t137.5 -166t225 -63.5q163 0 263.5 133t100.5 329v924l-188 10v11h407v-11l-188 -10v-917q0 -83 -12.5 -151t-44 -132t-82.5 -111.5t-131 -82t-185 -50.5q-489 0 -489 541v903zM446 1724l15 62l96 8l39 -8l8 -74 l-14 -67l-98 -9l-37 9zM881 1724l14 62l96 8l39 -8l8 -74l-14 -67l-98 -9l-37 9z" />
<glyph unicode="&#xdd;" horiz-adv-x="1390" d="M10 1423v11h514v-11l-192 -10l434 -792l432 792l-213 10v11h395v-11l-157 -10l-443 -813v-580l236 -10v-10h-615v10l236 10v539l-469 854zM737 1571l97 272h157l-243 -272h-11z" />
<glyph unicode="&#xde;" horiz-adv-x="1163" d="M61 0v10l189 10v1393l-189 10v11h543v-11l-211 -10v-289h301q193 0 316 -96.5t123 -269.5q0 -76 -28 -139t-72.5 -105.5t-110 -77.5t-129 -56t-142.5 -38h-258v-322l209 -10v-10h-541zM393 362h203q164 0 268.5 108.5t104.5 270.5q0 74 -19 137.5t-57.5 115t-105.5 81 t-156 29.5h-238v-742z" />
<glyph unicode="&#xdf;" horiz-adv-x="1093" d="M51 0v10l144 10v902h-144v10l144 10v62q0 56 10.5 110t34.5 112t72 106.5t116 76.5l147 61q163 0 265 -72.5t102 -199.5q0 -122 -90 -219t-242 -133q10 -59 44.5 -103t117.5 -106l133 -107q79 -62 113.5 -114t34.5 -125q0 -105 -98 -200.5t-232 -121.5q-133 0 -289 84 v252h10l95 -201q110 -94 225 -94q90 0 138 58t48 143q0 66 -33.5 117.5t-109.5 111.5l-125 101q-92 73 -134.5 129t-49.5 141l127 55q81 36 132.5 117.5t51.5 194.5q0 45 -13 88.5t-39.5 82.5t-73.5 63t-108 24q-124 0 -191 -89t-67 -262v-1085h-266z" />
<glyph unicode="&#xe0;" horiz-adv-x="899" d="M61 203q0 116 109 203l434 147v104q0 35 -0.5 54t-4.5 49t-12 46.5t-23.5 37t-37.5 30.5t-55.5 17.5t-77.5 7.5q-49 0 -143 -27l-51 -206h-111v137l350 170q164 0 232 -68q35 -35 46 -92.5t11 -150.5v-443q0 -89 41 -192l119 16l2 -8l-246 -45l-37 182l-287 -203 q-120 0 -189 62.5t-69 171.5zM195 238q0 -78 44 -126.5t113 -48.5q85 0 185 72l67 49v359l-307 -119q-102 -78 -102 -186zM274 1464h148l133 -354h-10z" />
<glyph unicode="&#xe1;" horiz-adv-x="899" d="M61 203q0 116 109 203l434 147v104q0 35 -0.5 54t-4.5 49t-12 46.5t-23.5 37t-37.5 30.5t-55.5 17.5t-77.5 7.5q-49 0 -143 -27l-51 -206h-111v137l350 170q164 0 232 -68q35 -35 46 -92.5t11 -150.5v-443q0 -89 41 -192l119 16l2 -8l-246 -45l-37 182l-287 -203 q-120 0 -189 62.5t-69 171.5zM195 238q0 -78 44 -126.5t113 -48.5q85 0 185 72l67 49v359l-307 -119q-102 -78 -102 -186zM383 1110l133 354h148l-271 -354h-10z" />
<glyph unicode="&#xe2;" horiz-adv-x="899" d="M61 203q0 116 109 203l434 147v104q0 35 -0.5 54t-4.5 49t-12 46.5t-23.5 37t-37.5 30.5t-55.5 17.5t-77.5 7.5q-49 0 -143 -27l-51 -206h-111v137l350 170q164 0 232 -68q35 -35 46 -92.5t11 -150.5v-443q0 -89 41 -192l119 16l2 -8l-246 -45l-37 182l-287 -203 q-120 0 -189 62.5t-69 171.5zM156 1110l258 379h8l260 -379h-10l-252 236h-4l-250 -236h-10zM195 238q0 -78 44 -126.5t113 -48.5q85 0 185 72l67 49v359l-307 -119q-102 -78 -102 -186z" />
<glyph unicode="&#xe3;" horiz-adv-x="899" d="M61 203q0 116 109 203l434 147v104q0 35 -0.5 54t-4.5 49t-12 46.5t-23.5 37t-37.5 30.5t-55.5 17.5t-77.5 7.5q-49 0 -143 -27l-51 -206h-111v137l350 170q164 0 232 -68q35 -35 46 -92.5t11 -150.5v-443q0 -89 41 -192l119 16l2 -8l-246 -45l-37 182l-287 -203 q-120 0 -189 62.5t-69 171.5zM104 1190l50 194l129 46l401 -179l55 185h11l-50 -195l-129 -45l-401 180l-55 -186h-11zM195 238q0 -78 44 -126.5t113 -48.5q85 0 185 72l67 49v359l-307 -119q-102 -78 -102 -186z" />
<glyph unicode="&#xe4;" horiz-adv-x="899" d="M61 203q0 116 109 203l434 147v104q0 35 -0.5 54t-4.5 49t-12 46.5t-23.5 37t-37.5 30.5t-55.5 17.5t-77.5 7.5q-49 0 -143 -27l-51 -206h-111v137l350 170q164 0 232 -68q35 -35 46 -92.5t11 -150.5v-443q0 -89 41 -192l119 16l2 -8l-246 -45l-37 182l-287 -203 q-120 0 -189 62.5t-69 171.5zM174 1313l14 61l97 8l39 -8l8 -74l-15 -67l-98 -8l-37 8zM195 238q0 -78 44 -126.5t113 -48.5q85 0 185 72l67 49v359l-307 -119q-102 -78 -102 -186zM502 1313l14 61l96 8l39 -8l8 -74l-14 -67l-98 -8l-37 8z" />
<glyph unicode="&#xe5;" horiz-adv-x="899" d="M61 203q0 116 109 203l434 147v104q0 35 -0.5 54t-4.5 49t-12 46.5t-23.5 37t-37.5 30.5t-55.5 17.5t-77.5 7.5q-49 0 -143 -27l-51 -206h-111v137l350 170q164 0 232 -68q35 -35 46 -92.5t11 -150.5v-443q0 -89 41 -192l119 16l2 -8l-246 -45l-37 182l-287 -203 q-120 0 -189 62.5t-69 171.5zM195 238q0 -78 44 -126.5t113 -48.5q85 0 185 72l67 49v359l-307 -119q-102 -78 -102 -186zM217 1290q0 34 10.5 61.5t24 44.5t41 33.5t47 25t57.5 22.5q14 5 21 8q84 0 143.5 -47t59.5 -140q0 -19 -3.5 -35.5t-7 -29.5t-14 -25.5t-16 -20.5 t-21.5 -18.5t-23 -15t-28 -13.5t-27.5 -12t-31.5 -12.5t-31 -11.5q-84 0 -142.5 46.5t-58.5 139.5zM268 1294q0 -72 41 -114.5t109 -42.5t109.5 42.5t41.5 114.5t-41.5 115t-109.5 43t-109 -43t-41 -115z" />
<glyph unicode="&#xe6;" horiz-adv-x="1427" d="M61 203q0 116 109 203l420 147v104q0 32 -0.5 51t-4.5 48t-11 46.5t-20.5 38t-33 32t-49.5 19t-68 7.5q-17 0 -30 -1t-21.5 -1.5t-22.5 -4t-19 -4.5t-26 -7t-30 -9l-51 -206h-111v137l342 170q138 0 197.5 -36t73.5 -146q103 122 329 182q305 0 305 -369v-53h-604 q-2 -16 -2 -53q0 -209 92.5 -317.5t245.5 -108.5q122 0 277 100l8 -12q-91 -68 -163 -109t-173 -82q-133 0 -240 60.5t-157 183.5l-304 -244q-120 0 -189 62.5t-69 171.5zM195 240q0 -79 43.5 -128t111.5 -49q11 0 21.5 1t21.5 5t18.5 6t20 10t17 10t19 13t17 12.5t19 15 t18.5 14.5l96 75q-28 79 -28 181v137l-293 -119q-102 -78 -102 -184zM735 561h461q0 81 -8.5 141.5t-30 115t-65 83.5t-107.5 29q-233 0 -250 -369z" />
<glyph unicode="&#xe7;" horiz-adv-x="864" d="M72 438q0 120 39.5 218t106.5 162t147.5 102.5t171.5 52.5q56 0 135 -33.5t123 -71.5v-155h-99l-88 209q-47 16 -96 16q-145 0 -233.5 -100.5t-88.5 -307.5q0 -194 98.5 -326t252.5 -132q141 0 266 110l6 -8q-118 -112 -303 -205l-49 -78q69 -3 119.5 -43t50.5 -106 q0 -116 -156 -180l-139 -54h-47l43 62h151q34 22 53 62t19 81q0 57 -40.5 87.5t-102.5 35.5l84 133q-185 5 -304.5 130.5t-119.5 338.5z" />
<glyph unicode="&#xe8;" horiz-adv-x="917" d="M72 436q0 116 33.5 210.5t93 158.5t134 105.5t163.5 62.5q335 0 335 -369v-43h-641v-53q0 -201 107.5 -318.5t275.5 -117.5q116 0 267 100l6 -6q-96 -74 -164 -116t-160 -81q-87 0 -166.5 29.5t-143.5 86t-102 147.5t-38 204zM193 571h495q0 81 -9 140t-33 111.5 t-71.5 80t-117.5 27.5q-122 0 -188.5 -97.5t-75.5 -261.5zM260 1464h148l133 -354h-11z" />
<glyph unicode="&#xe9;" horiz-adv-x="917" d="M72 436q0 116 33.5 210.5t93 158.5t134 105.5t163.5 62.5q335 0 335 -369v-43h-641v-53q0 -201 107.5 -318.5t275.5 -117.5q116 0 267 100l6 -6q-96 -74 -164 -116t-160 -81q-87 0 -166.5 29.5t-143.5 86t-102 147.5t-38 204zM193 571h495q0 81 -9 140t-33 111.5 t-71.5 80t-117.5 27.5q-122 0 -188.5 -97.5t-75.5 -261.5zM444 1110l134 354h147l-270 -354h-11z" />
<glyph unicode="&#xea;" horiz-adv-x="917" d="M72 436q0 116 33.5 210.5t93 158.5t134 105.5t163.5 62.5q335 0 335 -369v-43h-641v-53q0 -201 107.5 -318.5t275.5 -117.5q116 0 267 100l6 -6q-96 -74 -164 -116t-160 -81q-87 0 -166.5 29.5t-143.5 86t-102 147.5t-38 204zM193 571h495q0 81 -9 140t-33 111.5 t-71.5 80t-117.5 27.5q-122 0 -188.5 -97.5t-75.5 -261.5zM219 1110l258 379h8l260 -379h-10l-252 236h-4l-250 -236h-10z" />
<glyph unicode="&#xeb;" horiz-adv-x="917" d="M72 436q0 116 33.5 210.5t93 158.5t134 105.5t163.5 62.5q335 0 335 -369v-43h-641v-53q0 -201 107.5 -318.5t275.5 -117.5q116 0 267 100l6 -6q-96 -74 -164 -116t-160 -81q-87 0 -166.5 29.5t-143.5 86t-102 147.5t-38 204zM193 571h495q0 81 -9 140t-33 111.5 t-71.5 80t-117.5 27.5q-122 0 -188.5 -97.5t-75.5 -261.5zM258 1313l14 61l97 8l39 -8l8 -74l-15 -67l-98 -8l-37 8zM586 1313l14 61l96 8l39 -8l8 -74l-14 -67l-98 -8l-37 8z" />
<glyph unicode="&#xec;" horiz-adv-x="520" d="M25 1464h147l133 -354h-10zM61 883l265 80h10v-943l143 -10v-10h-409v10l143 10v893l-150 -39z" />
<glyph unicode="&#xed;" horiz-adv-x="520" d="M61 883l265 80h10v-943l143 -10v-10h-409v10l143 10v893l-150 -39zM266 1110l133 354h148l-271 -354h-10z" />
<glyph unicode="&#xee;" horiz-adv-x="520" d="M4 1110l258 379h8l260 -379h-10l-252 236h-4l-250 -236h-10zM61 883l265 80h10v-943l143 -10v-10h-409v10l143 10v893l-150 -39z" />
<glyph unicode="&#xef;" horiz-adv-x="520" d="M20 1313l15 61l96 8l39 -8l8 -74l-14 -67l-98 -8l-37 8zM61 883l265 80h10v-943l143 -10v-10h-409v10l143 10v893l-150 -39zM348 1313l14 61l97 8l39 -8l8 -74l-14 -67l-99 -8l-37 8z" />
<glyph unicode="&#xf0;" horiz-adv-x="1001" d="M51 514q0 85 23 164.5t66.5 146.5t115.5 107.5t162 40.5l360 -209q-38 332 -248 526l-280 -137v12l272 133q-128 112 -313 166l4 11q188 -53 334 -164l219 106v-12l-209 -102q181 -142 272 -347.5t91 -420.5q0 -105 -27.5 -205t-78 -181t-130.5 -130.5t-178 -49.5 q-123 30 -213.5 86.5t-142 130.5t-75.5 155.5t-24 172.5zM186 434q0 -214 64.5 -311.5t200.5 -97.5q78 0 142.5 54t105 143t63 198.5t22.5 224.5q0 37 -4 107l-90 47q-77 45 -131.5 62.5t-116.5 17.5q-124 0 -190 -116t-66 -329z" />
<glyph unicode="&#xf1;" horiz-adv-x="1136" d="M61 883l265 80h10v-224l377 234q100 0 153 -49q39 -37 53.5 -87t14.5 -165v-652l168 -10v-10h-402v10l111 10v664q0 111 -34.5 153t-110.5 42q-16 0 -31.5 -2.5t-27.5 -4.5t-29.5 -9t-26.5 -10.5t-29.5 -15.5t-28 -16.5t-33.5 -20t-34 -20.5l-90 -53v-707l113 -10v-10 h-379v10l143 10v893l-150 -39zM285 1188l49 194l129 45l401 -178l56 185h10l-49 -195l-129 -45l-402 180l-55 -186h-10z" />
<glyph unicode="&#xf2;" horiz-adv-x="1038" d="M72 449q0 221 120 348t349 176q188 0 307 -136.5t119 -342.5q0 -431 -471 -525q-187 0 -305.5 137t-118.5 343zM207 494q0 -132 42 -243.5t120 -179t176 -67.5q136 0 211 125t75 320q0 219 -95 352t-244 133q-137 0 -211 -121t-74 -319zM313 1464h148l133 -354h-10z" />
<glyph unicode="&#xf3;" horiz-adv-x="1038" d="M72 449q0 221 120 348t349 176q188 0 307 -136.5t119 -342.5q0 -431 -471 -525q-187 0 -305.5 137t-118.5 343zM207 494q0 -132 42 -243.5t120 -179t176 -67.5q136 0 211 125t75 320q0 219 -95 352t-244 133q-137 0 -211 -121t-74 -319zM541 1110l133 354h147l-270 -354 h-10z" />
<glyph unicode="&#xf4;" horiz-adv-x="1038" d="M72 449q0 221 120 348t349 176q188 0 307 -136.5t119 -342.5q0 -431 -471 -525q-187 0 -305.5 137t-118.5 343zM207 494q0 -132 42 -243.5t120 -179t176 -67.5q136 0 211 125t75 320q0 219 -95 352t-244 133q-137 0 -211 -121t-74 -319zM266 1110l258 379h8l261 -379h-11 l-252 236h-4l-250 -236h-10z" />
<glyph unicode="&#xf5;" horiz-adv-x="1038" d="M72 449q0 221 120 348t349 176q188 0 307 -136.5t119 -342.5q0 -431 -471 -525q-187 0 -305.5 137t-118.5 343zM207 494q0 -132 42 -243.5t120 -179t176 -67.5q136 0 211 125t75 320q0 219 -95 352t-244 133q-137 0 -211 -121t-74 -319zM213 1188l49 194l129 45l402 -178 l55 185h10l-49 -195l-129 -45l-401 180l-56 -186h-10z" />
<glyph unicode="&#xf6;" horiz-adv-x="1038" d="M72 449q0 221 120 348t349 176q188 0 307 -136.5t119 -342.5q0 -431 -471 -525q-187 0 -305.5 137t-118.5 343zM207 494q0 -132 42 -243.5t120 -179t176 -67.5q136 0 211 125t75 320q0 219 -95 352t-244 133q-137 0 -211 -121t-74 -319zM272 1313l15 61l96 8l39 -8l8 -74 l-14 -67l-99 -8l-36 8zM600 1313l14 61l97 8l39 -8l8 -74l-15 -67l-98 -8l-37 8z" />
<glyph unicode="&#xf7;" d="M96 481v41h1078v-41h-1078zM559 141l12 64l101 6l39 -6l6 -76l-12 -68l-101 -8l-37 8zM559 874l12 64l101 6l39 -6l6 -76l-12 -67l-101 -9l-37 9z" />
<glyph unicode="&#xf8;" horiz-adv-x="1038" d="M72 449q0 221 120 348t349 176q172 0 286 -117l107 127h22l-116 -139q127 -137 127 -350q0 -431 -471 -525q-172 0 -289 117l-88 -106h-27l103 120q-123 136 -123 349zM207 494q0 -172 65 -299l484 575q-46 78 -114.5 121t-149.5 43q-137 0 -211 -121t-74 -319zM283 176 q46 -80 113.5 -126t148.5 -46q136 0 211 125t75 320q0 180 -67 305z" />
<glyph unicode="&#xf9;" horiz-adv-x="1079" d="M20 907l267 45h10v-698q0 -199 135 -199q51 0 92 17.5t113 62.5l115 68v715l-152 -21l-2 10l266 45h10v-698q0 -96 31 -223l121 14l2 -10l-244 -45l-32 198l-353 -219q-104 0 -157 45q-39 35 -53.5 86t-14.5 166v652l-151 -21zM317 1464h148l133 -354h-10z" />
<glyph unicode="&#xfa;" horiz-adv-x="1079" d="M20 907l267 45h10v-698q0 -199 135 -199q51 0 92 17.5t113 62.5l115 68v715l-152 -21l-2 10l266 45h10v-698q0 -96 31 -223l121 14l2 -10l-244 -45l-32 198l-353 -219q-104 0 -157 45q-39 35 -53.5 86t-14.5 166v652l-151 -21zM471 1110l133 354h148l-271 -354h-10z" />
<glyph unicode="&#xfb;" horiz-adv-x="1079" d="M20 907l267 45h10v-698q0 -199 135 -199q51 0 92 17.5t113 62.5l115 68v715l-152 -21l-2 10l266 45h10v-698q0 -96 31 -223l121 14l2 -10l-244 -45l-32 198l-353 -219q-104 0 -157 45q-39 35 -53.5 86t-14.5 166v652l-151 -21zM264 1110l258 379h8l261 -379h-11l-252 236 h-4l-250 -236h-10z" />
<glyph unicode="&#xfc;" horiz-adv-x="1079" d="M20 907l267 45h10v-698q0 -199 135 -199q51 0 92 17.5t113 62.5l115 68v715l-152 -21l-2 10l266 45h10v-698q0 -96 31 -223l121 14l2 -10l-244 -45l-32 198l-353 -219q-104 0 -157 45q-39 35 -53.5 86t-14.5 166v652l-151 -21zM276 1313l15 61l96 8l39 -8l8 -74l-14 -67 l-98 -8l-37 8zM604 1313l14 61l97 8l39 -8l8 -74l-14 -67l-99 -8l-37 8z" />
<glyph unicode="&#xfd;" horiz-adv-x="1056" d="M10 932v10h393v-10l-122 -10l309 -832l295 832l-154 10v10h316v-10l-138 -10l-305 -856l-237 -547h-174v143h178l211 406l-107 -62l-340 916zM532 1110l134 354h147l-270 -354h-11z" />
<glyph unicode="&#xfe;" horiz-adv-x="1042" d="M31 1382l264 80h10v-692l305 203q156 0 258.5 -127.5t102.5 -306.5q0 -219 -116.5 -368t-346.5 -202q-128 0 -203 64v-484l219 -10v-10h-489v10l147 10v1864l-149 -39zM305 113q32 -54 88.5 -86t128.5 -31q140 2 228 131t88 342q0 112 -31 203.5t-94 149t-148 57.5 q-26 0 -46.5 -3.5t-43 -14.5t-35 -18.5t-43.5 -28t-47 -30.5l-45 -28v-643z" />
<glyph unicode="&#xff;" horiz-adv-x="1056" d="M10 932v10h393v-10l-122 -10l309 -832l295 832l-154 10v10h316v-10l-138 -10l-305 -856l-237 -547h-174v143h178l211 406l-107 -62l-340 916zM330 1313l14 61l96 8l39 -8l8 -74l-14 -67l-98 -8l-37 8zM657 1313l15 61l96 8l39 -8l8 -74l-14 -67l-99 -8l-36 8z" />
<glyph unicode="&#x152;" horiz-adv-x="1888" d="M82 688q0 329 181 526.5t536 239.5l276 -20h744v-361h-11l-125 340h-559v-653h318l82 233h10v-485h-10l-82 231h-318v-719h578l125 349h10v-369h-856l-221 -20q-194 0 -349.5 94t-242 255.5t-86.5 358.5zM246 743q0 -208 75.5 -375.5t208.5 -261.5t297 -94l154 8v1393 l-244 14q-224 0 -357.5 -188t-133.5 -496z" />
<glyph unicode="&#x153;" horiz-adv-x="1683" d="M72 449q0 221 120 348t349 176q127 0 224.5 -68t147.5 -186q53 100 144 163t205 91q335 0 335 -369v-43h-639q-2 -23 -2 -53q0 -201 107.5 -318.5t275.5 -117.5q116 0 267 100l6 -6q-96 -74 -164 -116t-160 -81q-127 0 -234.5 64t-162.5 184q-109 -191 -395 -248 q-187 0 -305.5 137t-118.5 343zM201 494q0 -132 42 -243.5t120 -179t176 -67.5q137 0 214.5 125.5t77.5 319.5q0 219 -95 352t-244 133q-138 0 -214.5 -121.5t-76.5 -318.5zM958 571h496q0 81 -9 140t-33 111.5t-71.5 80t-117.5 27.5q-122 0 -188 -97.5t-77 -261.5z" />
<glyph unicode="&#x178;" horiz-adv-x="1390" d="M10 1423v11h514v-11l-192 -10l434 -792l432 792l-213 10v11h395v-11l-157 -10l-443 -813v-580l236 -10v-10h-615v10l236 10v539l-469 854zM440 1724l15 62l96 8l39 -8l8 -74l-14 -67l-99 -9l-36 9zM874 1724l15 62l96 8l39 -8l8 -74l-14 -67l-98 -9l-37 9z" />
<glyph unicode="&#x2c6;" horiz-adv-x="1024" d="M238 1110l258 379h8l260 -379h-10l-252 236h-4l-250 -236h-10z" />
<glyph unicode="&#x2dc;" horiz-adv-x="1024" d="M188 1188l50 194l129 45l401 -178l55 185h11l-50 -195l-129 -45l-401 180l-55 -186h-11z" />
<glyph unicode="&#x2000;" horiz-adv-x="937" />
<glyph unicode="&#x2001;" horiz-adv-x="1874" />
<glyph unicode="&#x2002;" horiz-adv-x="937" />
<glyph unicode="&#x2003;" horiz-adv-x="1874" />
<glyph unicode="&#x2004;" horiz-adv-x="624" />
<glyph unicode="&#x2005;" horiz-adv-x="468" />
<glyph unicode="&#x2006;" horiz-adv-x="312" />
<glyph unicode="&#x2007;" horiz-adv-x="312" />
<glyph unicode="&#x2008;" horiz-adv-x="234" />
<glyph unicode="&#x2009;" horiz-adv-x="374" />
<glyph unicode="&#x200a;" horiz-adv-x="104" />
<glyph unicode="&#x2010;" horiz-adv-x="788" d="M82 547v41h625v-41h-625z" />
<glyph unicode="&#x2011;" horiz-adv-x="788" d="M82 547v41h625v-41h-625z" />
<glyph unicode="&#x2012;" horiz-adv-x="788" d="M82 547v41h625v-41h-625z" />
<glyph unicode="&#x2013;" horiz-adv-x="983" d="M82 547v41h819v-41h-819z" />
<glyph unicode="&#x2014;" horiz-adv-x="1781" d="M72 547v41h1638v-41h-1638z" />
<glyph unicode="&#x2018;" horiz-adv-x="430" d="M133 1051l17 82l163 325l6 -2l-120 -319l73 4l47 -8l9 -97l-15 -75l-120 -9l-52 9z" />
<glyph unicode="&#x2019;" horiz-adv-x="419" d="M102 1370l15 76l121 8l51 -8l8 -90l-16 -82l-164 -326l-6 2l120 320l-73 -4l-47 8z" />
<glyph unicode="&#x201a;" horiz-adv-x="337" d="M82 139l14 76l121 8l51 -8l8 -90l-16 -82l-164 -326l-6 2l121 320l-74 -4l-47 8z" />
<glyph unicode="&#x201c;" horiz-adv-x="645" d="M92 1051l17 82l163 325l7 -2l-121 -319l73 4l48 -8l8 -97l-15 -75l-120 -9l-52 9zM389 1051l17 82l163 325l6 -2l-120 -319l73 4l47 -8l9 -97l-15 -75l-120 -9l-52 9z" />
<glyph unicode="&#x201d;" horiz-adv-x="645" d="M92 1374l14 76l121 8l52 -8l8 -90l-17 -82l-164 -326l-6 2l121 320l-74 -4l-47 8zM389 1374l14 76l121 8l51 -8l9 -90l-17 -82l-164 -326l-6 2l121 320l-74 -4l-47 8z" />
<glyph unicode="&#x201e;" horiz-adv-x="645" d="M92 139l14 76l121 8l52 -8l8 -90l-17 -82l-164 -326l-6 2l121 320l-74 -4l-47 8zM389 139l14 76l121 8l51 -8l9 -90l-17 -82l-164 -326l-6 2l121 320l-74 -4l-47 8z" />
<glyph unicode="&#x2022;" horiz-adv-x="411" d="M102 633l19 84l129 8l51 -8l8 -101l-18 -90l-129 -8l-51 8z" />
<glyph unicode="&#x2026;" horiz-adv-x="1468" d="M154 96l14 78l121 8l47 -8l8 -90l-14 -84l-123 -8l-45 8zM639 96l14 78l121 8l47 -8l8 -90l-14 -84l-123 -8l-45 8zM1124 96l15 78l121 8l47 -8l8 -90l-15 -84l-122 -8l-45 8z" />
<glyph unicode="&#x202f;" horiz-adv-x="374" />
<glyph unicode="&#x2039;" horiz-adv-x="567" d="M102 481l373 451h10l-270 -451l270 -450h-12z" />
<glyph unicode="&#x203a;" horiz-adv-x="567" d="M102 31l271 450l-271 451h11l372 -451l-370 -450h-13z" />
<glyph unicode="&#x205f;" horiz-adv-x="468" />
<glyph unicode="&#x20ac;" horiz-adv-x="1329" d="M92 594v20h117q-4 58 -4 91q0 59 6 114h-119v21h121q36 275 208 440t429 190q117 0 222.5 -31.5t166.5 -82.5v-334h-10l-125 295q-94 133 -273 133q-86 0 -163.5 -38.5t-141 -112t-105 -192t-50.5 -267.5h665l-10 -21h-657v-55q0 -85 8 -150h526l-10 -20h-514 q16 -113 52 -205t94 -165.5t146.5 -114.5t200.5 -41q89 0 190.5 40.5t172.5 96.5l12 -19q-190 -167 -424 -217q-159 0 -289 70t-217 213.5t-106 341.5h-119z" />
<glyph unicode="&#x2122;" horiz-adv-x="1961" d="M102 1210v224h680v-224h-12l-90 207h-172v-753l108 -7v-12h-350v12l111 7v753h-174l-88 -207h-13zM823 645v12l97 7v751l-97 8v11h240l293 -668l270 668h234v-11l-99 -8v-751l99 -7v-12h-316v12l84 7v729l-303 -754h-65l-322 762v-737l92 -7v-12h-207z" />
<glyph unicode="&#x25fc;" horiz-adv-x="942" d="M0 0v942h942v-942h-942z" />
</font>
</defs>
</svg>
