<?xml version="1.0" standalone="no"?>
<!DOCTYPE svg PUBLIC "-//W3C//DTD SVG 1.1//EN" "http://www.w3.org/Graphics/SVG/1.1/DTD/svg11.dtd" >
<svg xmlns="http://www.w3.org/2000/svg" xmlns:xlink="http://www.w3.org/1999/xlink" version="1.1">
<metadata></metadata>
<defs>
<font id="gt_sectramedium" horiz-adv-x="1269" >
<font-face units-per-em="2048" ascent="1536" descent="-512" />
<missing-glyph horiz-adv-x="489" />
<glyph unicode="&#xfb01;" horiz-adv-x="1271" d="M49 836v41l66 75h106v23q0 85 29 149.5t90 130.5l188 199h566v-219h-56l-159 39h-347l-34 -49q-41 -61 -41 -217v-66h336l184 29l113 6v-877l141 -20l-10 -82l-244 6l-215 -6l-10 86l102 16v668l12 84l-75 -16h-334v-736l149 -16l-10 -84l-270 4l-226 -6l-10 82l131 20 v736h-172z" />
<glyph unicode="&#xfb02;" horiz-adv-x="1294" d="M49 836v41l66 75h106v23q0 85 29 149.5t90 130.5l188 199h328l168 8h86v-1362l139 -20l-10 -82l-244 6l-229 -6l-10 82l118 20v736h-417v-736l170 -16l-11 -86l-292 6l-224 -6l-10 82l131 20v736h-172zM457 942h417v373l-118 -41h-224l-34 -49q-41 -61 -41 -217v-66z" />
<glyph unicode="&#xfb03;" horiz-adv-x="1923" d="M49 836v41l66 75h106v6q0 86 32.5 147.5t98.5 133.5l176 184h392l-164 -182h-226l-32 -49q-41 -59 -41 -209v-41h417v33q0 85 28 150t89 130l189 199h565v-219h-55l-158 39h-346l-37 -49q-39 -62 -39 -217v-66h334l186 29l113 6v-877l139 -20l-10 -82l-244 6l-213 -6 l-10 86l102 16v668l11 84l-76 -16h-332v-736l147 -16l-10 -86l-268 6l-227 -6l-11 82l133 20v736h-417v-736l170 -16l-11 -86l-292 6l-224 -6l-10 82l131 20v736h-172z" />
<glyph unicode="&#xfb04;" horiz-adv-x="1945" d="M49 836v41l66 75h106v6q0 86 32.5 147.5t98.5 133.5l176 184h392l-164 -182h-226l-32 -49q-41 -59 -41 -209v-41h417v33q0 85 28 150t89 130l189 199h327l168 6h86v-1360l140 -20l-11 -82l-243 6l-230 -6l-10 82l119 20v736h-416v-736l168 -16l-10 -86l-291 6l-195 -6 l-10 82l102 20v736h-417v-736l170 -16l-11 -86l-292 6l-224 -6l-10 82l131 20v736h-172zM1110 942h416v373l-119 -43h-223l-35 -49q-22 -31 -30.5 -79t-8.5 -136v-66z" />
<glyph horiz-adv-x="0" />
<glyph horiz-adv-x="0" />
<glyph horiz-adv-x="682" />
<glyph unicode="&#xd;" horiz-adv-x="655" />
<glyph unicode=" "  horiz-adv-x="489" />
<glyph unicode="&#x09;" horiz-adv-x="489" />
<glyph unicode="&#xa0;" horiz-adv-x="489" />
<glyph unicode="!" horiz-adv-x="595" d="M166 131l10 -129l68 -12l172 12l12 111l-12 129l-66 12l-174 -12zM178 1454h238l-17 -614l-45 -359h-114l-47 357z" />
<glyph unicode="&#x22;" horiz-adv-x="815" d="M102 1331l13 111l172 12l67 -12l13 -127l-13 -113l-143 -311l-86 35q27 63 53.5 146.5t26.5 119.5l-90 10zM459 1331l12 111l172 12l68 -12l12 -127l-12 -113l-144 -311l-86 35q27 63 53.5 146.5t26.5 119.5l-90 10z" />
<glyph unicode="#" horiz-adv-x="1288" d="M82 399l14 113h254l39 317h-252l15 113h251l50 399h129l-50 -399h285l49 399h129l-49 -399h260l-14 -113h-258l-39 -317h256l-14 -113h-258l-48 -399h-129l48 399h-285l-47 -399h-129l47 399h-254zM479 512h287l39 317h-287z" />
<glyph unicode="$" horiz-adv-x="1198" d="M92 403h158l69 -180q44 -53 110 -88.5t140 -42.5v535l-157 73q-131 60 -203 142.5t-72 208.5q0 287 432 401v147h107v-129q97 -5 194 -36t170 -82v-295h-120l-60 186q-82 85 -184 100v-475l125 -55q154 -73 229 -160.5t74 -224.5q0 -305 -428 -436v-156h-107v127h-2 q-240 0 -430 139zM373 1143q0 -135 178 -217l18 -8v425q-93 -12 -144.5 -65.5t-51.5 -134.5zM676 96q86 20 135 82.5t49 153.5q0 156 -184 246v-482z" />
<glyph unicode="%" horiz-adv-x="1632" d="M82 1073q0 159 90.5 249.5t273.5 121.5q141 0 226.5 -95.5t85.5 -248.5q0 -158 -91 -248t-276 -123q-140 0 -224.5 95.5t-84.5 248.5zM248 -10l1014 1454h157l-1013 -1454h-158zM274 1118q0 -147 40.5 -231t117.5 -84q65 0 98 67t33 187q0 146 -40.5 230.5t-116.5 84.5 q-65 0 -98.5 -68t-33.5 -186zM874 336q0 159 91 249.5t274 121.5q141 0 226 -95.5t85 -249.5q0 -159 -90.5 -249t-275.5 -121q-140 0 -225 95.5t-85 248.5zM1065 381q0 -147 41 -231t117 -84q66 0 99.5 66.5t33.5 184.5q0 148 -40.5 233t-117.5 85q-65 0 -99 -68t-34 -186z " />
<glyph unicode="&#x26;" horiz-adv-x="1499" d="M92 342q0 45 8.5 86t21 72.5t35.5 63.5t41.5 53t49.5 47t50.5 40t53.5 38.5t49 35.5q-106 114 -150 186t-44 152q0 127 97 208t323 146q149 0 245.5 -78t96.5 -184q0 -35 -10 -69t-22 -59.5t-40.5 -57.5t-46.5 -50t-61 -51t-62 -46.5t-70 -49.5l340 -372l129 206l-90 15 l11 78l176 -7l184 7l12 -78l-139 -21l-203 -284l248 -267l100 -20l-14 -82l-162 2l-141 -2l-168 184q-139 -144 -362 -221q-136 0 -246.5 47t-175 134t-64.5 198zM338 401q0 -112 79.5 -192t196.5 -80q128 0 248 137l-387 432q-69 -59 -103 -127t-34 -170zM432 1182 q0 -42 28 -97t55 -91t75 -93q86 69 120.5 127.5t34.5 145.5q0 81 -40.5 133.5t-110.5 52.5q-68 0 -115 -47.5t-47 -130.5z" />
<glyph unicode="'" horiz-adv-x="448" d="M102 1331l13 111l172 12l67 -12l13 -127l-13 -113l-143 -311l-86 35q27 63 53.5 146.5t26.5 119.5l-90 10z" />
<glyph unicode="(" horiz-adv-x="577" d="M86 508q0 167 20.5 291.5t73.5 240t124.5 214t191.5 233.5l57 -53q-145 -203 -204.5 -410.5t-59.5 -513.5q0 -282 62 -515.5t202 -428.5l-57 -53q-99 122 -158.5 203.5t-113.5 175t-81 181t-42 194.5t-15 241z" />
<glyph unicode=")" horiz-adv-x="577" d="M25 -434q140 195 202 428.5t62 515.5q0 306 -59.5 513.5t-204.5 410.5l57 53q120 -134 191.5 -233t124.5 -214t73.5 -240t20.5 -292q0 -134 -15 -241t-42 -195t-81 -181.5t-113.5 -175t-158.5 -202.5z" />
<glyph unicode="*" horiz-adv-x="872" d="M92 1147l58 176l227 -109l-35 250h186l-32 -250l225 109l59 -176l-250 -43l175 -182l-150 -111l-121 221l-117 -221l-151 111l178 182z" />
<glyph unicode="+" d="M106 446v144h455v465h146v-465h454v-144h-454v-446h-146v446h-455z" />
<glyph unicode="," horiz-adv-x="454" d="M131 131l10 111l174 12l66 -12l12 -129l-12 -111l-143 -311l-84 35q27 62 53 145.5t26 120.5l-92 10z" />
<glyph unicode="-" horiz-adv-x="788" d="M82 496v143h625v-143h-625z" />
<glyph unicode="." horiz-adv-x="483" d="M143 131l13 111l172 12l67 -12l13 -129l-13 -111l-174 -12l-65 12z" />
<glyph unicode="/" horiz-adv-x="1019" d="M-20 -471l927 1941h133l-923 -1941h-137z" />
<glyph unicode="0" horiz-adv-x="1220" d="M82 469q0 412 551 532q212 0 359 -141t147 -356q0 -415 -551 -535q-213 0 -359.5 141.5t-146.5 358.5zM344 541q0 -201 77 -323t216 -122q111 0 174 93.5t63 240.5q0 203 -76 323.5t-216 120.5q-112 0 -175 -92.5t-63 -240.5z" />
<glyph unicode="1" horiz-adv-x="958" d="M49 780l461 201h111v-866l307 -35l-10 -82l-418 6l-420 -6l-10 82l305 35v633l10 36l-86 -41l-211 -45z" />
<glyph unicode="2" horiz-adv-x="1095" d="M41 92l358 270q156 118 221.5 193.5t65.5 167.5q0 70 -40 114t-124 44q-61 0 -129 -35l-69 -232h-172v240l405 147q181 0 283 -73.5t102 -198.5q0 -68 -26 -125t-83.5 -109t-119.5 -92t-164 -96l-303 -164l258 64h530v-74l-59 -133h-891z" />
<glyph unicode="3" horiz-adv-x="995" d="M51 -264h451q155 87 155 264q0 110 -90 180t-258 70l-20 65l86 39q115 51 171 125.5t56 186.5q0 97 -47 155t-115 58q-61 0 -125 -33l-69 -232h-176v240l403 147q96 0 169 -22.5t115.5 -62.5t63.5 -88.5t21 -104.5q0 -238 -291 -358q169 -11 265.5 -103.5t96.5 -210.5 q0 -55 -13.5 -102.5t-28.5 -81t-53.5 -68.5t-61.5 -54t-81 -48t-82.5 -40t-94.5 -40q-7 -3 -11 -5t-10.5 -4.5t-11.5 -4.5l-176 -74h-238v207z" />
<glyph unicode="4" horiz-adv-x="1161" d="M20 72l670 899h223v-90l-700 -785l88 33h334v213l168 141h55v-354h272v-160h-272v-440h-223v440h-537z" />
<glyph unicode="5" horiz-adv-x="1009" d="M92 -264h436q82 46 122 122.5t40 153.5q0 118 -70.5 199.5t-201.5 81.5q-100 0 -197 -43l-67 -27l-58 37l90 711h732v-74l-56 -131h-588l-53 -408l248 127q101 0 184 -25t136.5 -65t90.5 -92t52.5 -103t15.5 -100q0 -61 -13 -114.5t-32.5 -94t-55 -77.5t-68 -63t-84 -54 t-91 -46.5t-100.5 -43.5l-178 -78h-234v207z" />
<glyph unicode="6" horiz-adv-x="1157" d="M102 549q0 633 781 928l30 -93q-156 -72 -260.5 -148t-163 -162.5t-84 -173t-32.5 -200.5l282 220q103 0 183.5 -37.5t129 -101t73 -141.5t24.5 -165q0 -110 -37.5 -195.5t-109.5 -145t-162 -98.5t-209 -67q-137 0 -238.5 73.5t-154 204t-52.5 302.5zM369 582 q0 -103 11 -188.5t36 -159t71 -115t109 -41.5q100 0 159.5 93.5t59.5 250.5q0 147 -55 228t-135 81q-73 0 -179 -86z" />
<glyph unicode="7" horiz-adv-x="1034" d="M41 760v211h907l47 -53l-600 -1389h-213v88l576 1116l10 27h-727z" />
<glyph unicode="8" horiz-adv-x="1161" d="M100 338q0 254 306 387q-130 72 -197.5 165.5t-67.5 199.5q0 267 461 374q194 0 313 -84.5t119 -216.5q0 -227 -307 -377q160 -83 249 -177.5t89 -213.5q0 -165 -125.5 -264t-382.5 -162q-196 0 -326.5 107t-130.5 262zM350 379q0 -124 66 -211.5t166 -87.5 q94 0 160.5 64t66.5 173q0 49 -20.5 95t-51 80.5t-75 69t-81 57.5t-81.5 49q-7 4 -11 6q-139 -101 -139 -295zM393 1153q0 -86 69 -160t185 -149q72 53 104.5 116t32.5 154q0 100 -53 170t-151 70q-85 0 -136 -54.5t-51 -146.5z" />
<glyph unicode="9" horiz-adv-x="1148" d="M84 494q0 110 36 195t107 144.5t161.5 99t213.5 68.5q207 0 326 -158t119 -423q0 -622 -773 -914l-30 93q124 57 214 118t148 121.5t94.5 132.5t53 142t22.5 159l-282 -219q-103 0 -183.5 38t-129 101.5t-73 140.5t-24.5 161zM334 541q0 -133 55 -215t129 -82 q47 0 84.5 19t99.5 67l78 61q0 502 -225 502q-102 0 -161.5 -91.5t-59.5 -260.5z" />
<glyph unicode=":" horiz-adv-x="520" d="M154 131l12 111l172 12l68 -12l12 -129l-12 -111l-175 -12l-65 12zM154 860l12 111l172 12l68 -12l12 -127l-12 -113l-175 -12l-65 12z" />
<glyph unicode=";" horiz-adv-x="561" d="M154 131l12 111l172 12l68 -12l12 -129l-12 -111l-144 -311l-86 35q28 66 55 148t27 118l-92 10zM154 860l12 111l172 12l68 -12l12 -127l-12 -113l-175 -12l-65 12z" />
<glyph unicode="&#x3c;" d="M102 524v123l1065 475v-170l-866 -364l866 -365v-172z" />
<glyph unicode="=" d="M106 229v146h1055v-146h-1055zM106 629v145h1055v-145h-1055z" />
<glyph unicode="&#x3e;" d="M102 51v172l867 365l-867 364v170l1065 -475v-123z" />
<glyph unicode="?" horiz-adv-x="880" d="M133 1182v243l211 23q214 -27 324 -127.5t110 -249.5q0 -72 -22.5 -130.5t-65 -100.5t-89.5 -71.5t-109 -55.5l-80 -37l-15 -213h-121l-12 278l80 45q78 44 125 125t47 172q0 118 -46 186t-140 68l-39 -155h-158zM213 123l12 -129l66 -12l174 12l12 112l-12 127l-68 13 l-172 -13z" />
<glyph unicode="@" horiz-adv-x="1884" d="M102 526q0 292 196.5 522t520.5 328l189 56q186 0 336 -47t247 -130.5t149 -195.5t52 -244q0 -126 -52.5 -244t-137.5 -202t-196.5 -134.5t-225.5 -50.5l-121 127l88 240q-88 -118 -305 -371q-121 0 -210 81.5t-89 209.5q0 171 99 311.5t267 214.5l224 101l245 -137 l-168 -699q66 4 136.5 43t131.5 105.5t100.5 168t39.5 216.5q0 251 -149.5 391.5t-407.5 140.5q-110 0 -218.5 -32t-206 -96.5t-172 -154t-118 -213t-43.5 -264.5q0 -135 39.5 -248t107.5 -190.5t160.5 -131t196 -78.5t215.5 -25q73 0 150 18.5t114 34t98 43.5l35 -64 q-112 -57 -250 -102t-237 -57q-183 0 -338.5 57t-263 157t-168 241t-60.5 304zM739 532q0 -82 39.5 -127t108.5 -45l233 261l66 245l-156 107q-82 -35 -141.5 -90t-90.5 -117.5t-45 -120t-14 -113.5z" />
<glyph unicode="A" horiz-adv-x="1521" d="M18 80l146 24l491 1309l185 45l512 -1356l151 -22l-10 -82l-319 6l-259 -6l-10 82l162 26l-129 367h-496l-125 -367l170 -26l-10 -82l-235 6l-213 -6zM477 575h424l-190 541l-11 113z" />
<glyph unicode="B" horiz-adv-x="1333" d="M61 80l175 26v1221l-175 27l11 82l272 -6l453 6h4q181 0 281 -92q100 -94 100 -222q0 -122 -94.5 -219.5t-245.5 -132.5q201 -9 311.5 -106.5t110.5 -247.5q0 -97 -40 -170.5t-116 -122t-171 -78t-220 -47.5l-373 6l-272 -6zM494 104l161 -12q75 0 135 19.5t98 51t63 74 t35.5 85.5t10.5 88q0 131 -81.5 213t-223.5 82h-198v-601zM494 801h153q120 0 195.5 86t75.5 211q0 111 -61.5 176.5t-180.5 66.5l-182 -12v-528z" />
<glyph unicode="C" horiz-adv-x="1445" d="M76 692q0 662 798 778q140 0 267 -45t217 -104v-309h-127l-66 194q-48 60 -130.5 103t-196.5 43q-216 0 -348 -159.5t-132 -444.5q0 -102 22 -199t66.5 -181t106 -147t145 -99t179.5 -36q85 0 150.5 34.5t127.5 90.5l107 233h122l-47 -327q-256 -116 -514 -154 q-117 0 -226.5 29.5t-204 90.5t-165 146.5t-111 204.5t-40.5 258z" />
<glyph unicode="D" horiz-adv-x="1533" d="M61 80l175 26v1221l-175 27l11 82l268 -6l430 6h7q317 0 497 -176q182 -178 182 -504.5t-175 -523.5t-527 -234l-416 6l-266 -6zM494 115l237 -19h6q129 0 229 80q102 82 156 225.5t54 327.5q0 177 -55.5 314t-170.5 218q-111 78 -263 78h-11l-182 -10v-1214z" />
<glyph unicode="E" horiz-adv-x="1304" d="M61 80l175 26v1221l-175 27l11 82l282 -6l836 6l20 -379h-84l-118 266l-514 6v-528l264 8l82 217h86l-21 -266l21 -283h-86l-82 217l-264 8v-598l536 7l137 276h93l-70 -389l-836 6l-282 -6z" />
<glyph unicode="F" horiz-adv-x="1241" d="M61 80l175 26v1221l-175 27l11 82l282 -6l836 6l20 -385h-84l-118 272l-514 6v-557l264 8l82 215h86l-21 -266l21 -283h-86l-82 218l-264 8v-566l245 -26l-10 -82l-375 6l-282 -6z" />
<glyph unicode="G" horiz-adv-x="1531" d="M76 686q0 178 54.5 315.5t159 230.5t245.5 151t327 87q142 0 275.5 -46.5t220.5 -104.5v-307h-119l-65 188q-50 63 -140 107.5t-205 44.5q-217 0 -344 -160t-127 -447q0 -175 61 -324.5t178.5 -242t268.5 -92.5q136 0 238 92v385l-184 27l10 84l305 -6l240 6l12 -84 l-123 -27v-440q-102 -44 -256.5 -90.5t-302.5 -69.5q-145 0 -275.5 48t-232 137.5t-161.5 228.5t-60 309z" />
<glyph unicode="H" horiz-adv-x="1591" d="M61 80l175 26v1221l-175 27l11 82l293 -6l278 6l10 -82l-159 -27v-528h612v528l-168 27l10 82l287 -6l285 6l10 -82l-166 -27v-1221l166 -26l-10 -82l-285 6l-287 -6l-10 82l168 26v580h-612v-580l159 -26l-10 -82l-278 6l-293 -6z" />
<glyph unicode="I" horiz-adv-x="729" d="M61 82l175 27v1218l-175 27l11 82l293 -6l292 6l11 -82l-174 -27v-1218l174 -27l-11 -84l-292 6l-293 -6z" />
<glyph unicode="J" horiz-adv-x="747" d="M2 -147h223l19 43q20 50 25 108t5 191v1132l-225 27l10 82l347 -6l280 6l10 -82l-164 -27v-1087q0 -136 -39 -228t-110 -168l-186 -202h-195v211z" />
<glyph unicode="K" horiz-adv-x="1484" d="M61 80l175 26v1221l-175 27l11 82l293 -6l266 6l10 -82l-147 -27v-559l59 31l553 528l-150 27l11 82l221 -6l223 6l10 -82l-157 -31l-570 -545l68 -33l598 -643l106 -22l-10 -82l-174 6l-192 -6l-564 657l-32 68v-617l147 -26l-10 -82l-266 6l-293 -6z" />
<glyph unicode="L" horiz-adv-x="1222" d="M61 80l175 26v1221l-175 27l11 82l282 -6l303 6l11 -82l-174 -27v-1223l489 7l145 282h86l-71 -395l-789 6l-282 -6z" />
<glyph unicode="M" horiz-adv-x="1949" d="M61 1354l11 82l202 -6l275 6l407 -1055l9 -137l456 1192l250 -6l207 6l10 -82l-166 -27v-1221l158 -26l-10 -82l-264 6l-299 -6l-11 82l172 26v938l29 242l-498 -1286h-155l-404 1038l-69 244v-1176l170 -26l-15 -82l-219 6l-227 -6l-10 82l157 26v1217z" />
<glyph unicode="N" horiz-adv-x="1517" d="M61 80l175 26v1211l-168 37l10 82l180 -6l182 6l690 -938l50 -146v975l-164 27l8 82l221 -6l242 6l10 -82l-174 -27v-1331h-139l-764 1063l-41 162v-1115l164 -26l-8 -82l-222 6l-241 -6z" />
<glyph unicode="O" horiz-adv-x="1622" d="M76 684q0 341 181 529t577 257q210 0 373 -93.5t251 -257t88 -369.5q0 -341 -181 -529.5t-577 -257.5q-210 0 -373 93.5t-251 257.5t-88 370zM358 754q0 -96 16.5 -188.5t54 -180t92 -153.5t137 -106t182.5 -40q108 0 191 45.5t133 127t75 188t25 235.5q0 94 -16 185 t-53 179t-91 154.5t-136.5 107t-183.5 40.5q-108 0 -191 -45t-133.5 -126.5t-76 -187.5t-25.5 -235z" />
<glyph unicode="P" horiz-adv-x="1249" d="M61 80l175 26v1221l-175 27l11 82l286 -6l430 6h8q190 0 312 -94q125 -96 125 -271q0 -79 -31 -146.5t-80 -114.5t-121.5 -86.5t-142.5 -64.5t-156 -47h-208v-506l245 -26l-10 -82l-364 6l-293 -6zM494 727h157q131 0 216 86.5t85 230.5q0 138 -75.5 218.5t-214.5 80.5 l-168 -14v-602z" />
<glyph unicode="Q" horiz-adv-x="1622" d="M76 684q0 341 181 529t577 257q210 0 373 -93.5t251 -257t88 -369.5q0 -310 -147.5 -492.5t-470.5 -263.5l200 -76l209 -151l127 -33l-8 -80h-338l-330 309q-210 0 -373 93.5t-251 257.5t-88 370zM358 754q0 -96 16.5 -188.5t54 -180t92 -153.5t137 -106t182.5 -40 q108 0 191 45.5t133 127t75 188t25 235.5q0 94 -16 185t-53 179t-91 154.5t-136.5 107t-183.5 40.5q-108 0 -191 -45t-133.5 -126.5t-76 -187.5t-25.5 -235z" />
<glyph unicode="R" horiz-adv-x="1423" d="M61 80l175 26v1221l-175 27l11 82l293 -6l409 6h7q127 0 227 -38q102 -38 164.5 -120.5t62.5 -198.5q0 -66 -24 -123t-64 -99t-97 -76t-118 -56.5t-131 -38.5l176 -92l332 -485l104 -31l-8 -80l-193 6l-153 -6l-418 635l-25 22h-122v-549l165 -26l-10 -82l-284 6l-293 -6 zM494 760h139q141 0 230 84.5t89 220.5q0 133 -77 204.5t-199 73.5l-182 -14v-569z" />
<glyph unicode="S" horiz-adv-x="1171" d="M74 403h157l70 -180q50 -59 125 -96t158 -37q119 0 188.5 66.5t69.5 175.5q0 164 -201 254l-248 114q-131 60 -202.5 142.5t-71.5 208.5q0 155 129.5 260.5t378.5 158.5q104 0 210 -31.5t185 -86.5v-295h-121l-59 186q-98 105 -242 105q-115 0 -180.5 -56.5t-65.5 -148.5 q0 -135 178 -217l250 -113q154 -73 229 -161q74 -86 74 -220q0 -348 -536 -469q-240 0 -430 139z" />
<glyph unicode="T" horiz-adv-x="1261" d="M31 1051v385l604 -6l596 6v-385h-92l-97 272l-282 4v-1221l227 -26l-10 -82l-346 6l-355 -6l-10 82l236 26v1221l-283 -4l-98 -272h-90z" />
<glyph unicode="U" horiz-adv-x="1503" d="M31 1354l10 82l281 -6l301 6l10 -82l-162 -27v-838q0 -191 83.5 -293t250.5 -102q158 0 241.5 104.5t83.5 297.5v831l-178 27l11 82l262 -6l237 6l11 -82l-170 -27v-819q0 -106 -24 -186t-81 -150t-159.5 -122t-252.5 -87q-158 0 -271.5 38.5t-180.5 112.5t-98 171 t-31 223v819z" />
<glyph unicode="V" horiz-adv-x="1495" d="M10 1354l10 82l318 -6l260 6l10 -82l-164 -27l351 -977l6 -123l389 1100l-170 27l10 82l232 -6l213 6l10 -82l-146 -25l-499 -1313l-162 -49l-518 1362z" />
<glyph unicode="W" horiz-adv-x="2060" d="M18 1354l11 82l286 -6l248 6l10 -82l-165 -27l292 -938l5 -131l258 852l-74 219l-117 25l10 82l283 -6l246 6l10 -82l-164 -27l293 -940l6 -129l320 1071l-172 25l10 82l223 -6l195 6l10 -82l-123 -25l-418 -1306l-166 -56l-284 867l-4 129l-295 -940l-164 -56l-449 1362 z" />
<glyph unicode="X" horiz-adv-x="1480" d="M20 82l160 24l436 594l-421 631l-150 25l10 82l277 -8l323 8l11 -82l-162 -27l246 -399l26 -82l328 479l-168 27l10 82l252 -6l223 6l11 -82l-156 -25l-410 -561l455 -662l139 -24l-10 -84l-270 6l-324 -6l-10 84l164 27l-271 417l-34 86l-347 -506l158 -24l-10 -84 l-252 6l-223 -6z" />
<glyph unicode="Y" horiz-adv-x="1468" d="M10 1356l10 80l291 -6l285 6l10 -80l-164 -27l342 -577l11 -88l356 665l-168 27l10 80l236 -6l219 6l10 -80l-149 -23l-441 -774l2 -453l230 -26l-10 -82l-349 6l-356 -6l-10 82l237 26v459l-452 766z" />
<glyph unicode="Z" horiz-adv-x="1196" d="M39 104l749 1153l91 72l-572 -10l-98 -258h-100v373h995l22 -95l-755 -1165l-90 -72l630 11l144 280h110l-73 -393h-1031z" />
<glyph unicode="[" horiz-adv-x="681" d="M164 -473v1937l170 -6l276 6v-82l-262 -20q-10 -616 -10 -772l10 -961l262 -20v-82l-276 6z" />
<glyph unicode="\" horiz-adv-x="897" d="M-82 1470h133l928 -1941h-137z" />
<glyph unicode="]" horiz-adv-x="681" d="M72 -391l262 20q10 775 10 961l-10 772l-262 20v82l276 -6l170 6v-1937l-170 6l-276 -6v82z" />
<glyph unicode="^" horiz-adv-x="800" d="M102 942l252 502h92l252 -502h-178l-119 289l-120 -289h-179z" />
<glyph unicode="_" horiz-adv-x="1157" d="M10 -147h1137v-125h-1137v125z" />
<glyph unicode="`" horiz-adv-x="1024" d="M293 1481h248l92 -357h-101z" />
<glyph unicode="a" horiz-adv-x="991" d="M61 238q0 103 80 196l459 150v110q0 97 -23.5 138.5t-89.5 41.5q-72 0 -149 -34l-33 -178h-211v172l393 167q205 0 278 -66.5t73 -254.5v-399q0 -101 32 -154h101l10 -82l-303 -61l-66 161l-239 -176q-138 0 -225 73t-87 196zM297 266q0 -71 33 -105t78 -34q50 0 120 47 l72 49v275l-260 -107q-43 -46 -43 -125z" />
<glyph unicode="b" horiz-adv-x="1144" d="M20 1395l267 59l112 8v-655l265 194q81 0 154.5 -32.5t129.5 -90.5t89.5 -146t33.5 -193q0 -489 -530 -570q-89 0 -165 15t-116 31t-96 44v1258l-133 -4zM399 156q65 -78 179 -78q112 0 178.5 102.5t66.5 282.5q0 166 -54.5 258t-137.5 92t-178 -76l-54 -41v-540z" />
<glyph unicode="c" horiz-adv-x="950" d="M74 459q0 92 27 171t73 137t112 105t137.5 77.5t154.5 51.5q82 0 165 -29t134 -73v-231h-189l-47 186q-34 29 -98 29q-93 0 -156 -100t-63 -261q0 -163 85 -269t228 -106q104 0 221 80l41 -84q-143 -110 -352 -174q-210 0 -341.5 131.5t-131.5 358.5z" />
<glyph unicode="d" horiz-adv-x="1161" d="M70 451q0 241 131.5 377t363.5 173q30 0 85.5 -18t90.5 -37v367l-133 -4l-10 82l258 63l121 8v-1194q0 -91 35 -145h102l8 -84l-303 -55l-63 166l-258 -181q-195 0 -311.5 133t-116.5 349zM317 504q0 -160 55.5 -254t143.5 -94q83 0 172 71l53 41v541q-64 74 -180 74 q-113 0 -178.5 -101.5t-65.5 -277.5z" />
<glyph unicode="e" horiz-adv-x="989" d="M66 463q0 423 477 538q100 0 174.5 -30t118 -84.5t64 -122.5t20.5 -152v-96h-611q2 -165 87 -267t231 -102q123 0 256 84l39 -84q-143 -110 -373 -178q-132 0 -241 57.5t-175.5 171.5t-66.5 265zM309 604l365 21q0 130 -36 196t-132 66q-84 0 -136 -77t-61 -206z" />
<glyph unicode="f" horiz-adv-x="751" d="M49 836v41l66 75h106v23q0 85 29 149.5t90 130.5l188 199h269v-182h-267l-34 -51q-39 -59 -39 -222v-57h260v-106h-260v-734l225 -16l-10 -88l-346 6l-226 -6l-10 82l131 22v734h-172z" />
<glyph unicode="g" horiz-adv-x="1091" d="M39 -190l231 161q-100 33 -136 85.5t-36 133.5v27l211 137q-98 37 -155.5 111.5t-57.5 169.5q0 136 102.5 223.5t317.5 142.5q222 0 332 -143l102 143h131v-186h-141l-53 -31q16 -46 16 -90q0 -138 -101.5 -227t-316.5 -145q-57 0 -96 8l-90 -109q0 -34 23.5 -52.5 t64.5 -18.5h377q133 0 203.5 -60.5t70.5 -161.5q0 -130 -147.5 -241.5t-396.5 -188.5q-218 0 -336.5 67t-118.5 204v41zM254 -201q0 -72 71.5 -119t198.5 -47q125 0 208 64t83 153q0 107 -174 107h-291q-58 -62 -77 -96.5t-19 -61.5zM324 684q0 -48 10 -91t31 -82t60 -62 t91 -23q76 0 118 53.5t42 143.5q0 50 -10 96.5t-31.5 88t-60.5 66.5t-91 25q-76 0 -117.5 -58.5t-41.5 -156.5z" />
<glyph unicode="h" horiz-adv-x="1228" d="M59 1393l267 61l112 8v-655l305 194q96 0 155 -17t94 -59.5t48 -105t13 -162.5v-555l141 -22l-10 -82l-244 6l-207 -6l-10 82l92 22v576q0 139 -121 139q-28 0 -65 -14t-63 -29t-72 -43l-56 -35v-594l103 -22l-11 -82l-204 6l-244 -6l-10 82l131 22v1213l-133 -4z" />
<glyph unicode="i" horiz-adv-x="620" d="M61 909l267 60l112 8v-875l140 -22l-11 -82l-243 6l-244 -6l-10 82l133 22v734l-133 -9zM193 1311l22 106l168 13l61 -13l13 -125l-25 -106l-166 -12l-61 12z" />
<glyph unicode="j" horiz-adv-x="577" d="M-49 -276h205l18 45q33 89 33 239v828l-133 -9l-11 82l267 60l112 8v-936q0 -108 -38.5 -185.5t-108.5 -152.5l-172 -184h-172v205zM195 1311l22 106l168 13l61 -13l13 -125l-25 -106l-166 -12l-61 12z" />
<glyph unicode="k" horiz-adv-x="1159" d="M61 1393l267 61l114 8v-901l56 25l329 282l-82 23v82l189 -6l168 6l12 -82l-115 -23l-372 -299l53 -32l381 -435l88 -22l-12 -82l-181 6l-129 -6l-358 465l-27 65v-426l99 -22l-11 -82l-211 6l-235 -6l-10 82l133 22v1211l-135 -4z" />
<glyph unicode="l" horiz-adv-x="610" d="M59 1393l267 61l112 8v-1360l142 -22l-11 -82l-243 6l-244 -6l-10 82l131 22v1211l-133 -4z" />
<glyph unicode="m" horiz-adv-x="1804" d="M61 907l263 62l102 6l10 -168l283 194q148 0 217.5 -45t89.5 -153l289 198q96 0 156 -17t95.5 -59.5t48.5 -105t13 -162.5v-555l141 -22l-10 -82l-239 6l-211 -6l-11 82l93 22v576q0 139 -109 139q-74 0 -192 -84l-54 -39v-592l84 -22l-10 -82l-192 6l-195 -6l-10 82 l84 22v576q0 139 -109 139q-72 0 -190 -84l-56 -39v-592l93 -22l-11 -82l-202 6l-238 -6l-10 82l133 22v732l-135 -11z" />
<glyph unicode="n" horiz-adv-x="1232" d="M61 907l267 62l104 6l6 -170l307 196q96 0 155.5 -15.5t95 -55.5t48.5 -99t13 -155v-574l141 -22l-10 -82l-244 6l-211 -6l-10 82l94 22v576q0 139 -123 139q-32 0 -69.5 -14.5t-60 -28t-68.5 -43.5l-54 -37v-592l101 -22l-11 -82l-204 6l-244 -6l-10 82l133 22v732 l-135 -11z" />
<glyph unicode="o" horiz-adv-x="1114" d="M66 461q0 444 522 540q201 0 330 -139t129 -354q0 -230 -139 -363t-384 -176q-201 0 -329.5 139t-128.5 353zM315 526q0 -199 75 -323.5t192 -124.5q102 0 157.5 97.5t55.5 268.5q0 209 -75 329t-192 120q-103 0 -158 -98t-55 -269z" />
<glyph unicode="p" horiz-adv-x="1144" d="M31 907l262 62l100 6l13 -170l266 196q182 0 295.5 -127t113.5 -342q0 -491 -526 -563q-76 0 -145 37v-375l202 -22l-10 -82l-309 6l-242 -6l-10 82l133 22v1207l-133 -11zM410 178q68 -100 196 -100q101 0 164.5 102.5t63.5 276.5q0 176 -56 270t-143 94q-67 0 -172 -82 l-53 -41v-520z" />
<glyph unicode="q" horiz-adv-x="1120" d="M70 457q0 236 132.5 372t372.5 172q127 0 281 -83l74 73h49v-1362l131 -20l-10 -82l-238 6l-313 -6l-10 82l204 20v512l-233 -172q-201 0 -320.5 132.5t-119.5 355.5zM317 516q0 -167 63 -268t157 -101q56 0 112 39l94 64v524q-49 111 -170 111q-119 0 -187.5 -99.5 t-68.5 -269.5z" />
<glyph unicode="r" horiz-adv-x="854" d="M61 907l256 62l95 8l12 -293l225 307h176v-239h-176q-35 -10 -84.5 -50t-93.5 -90l-35 -41v-465l217 -20l-10 -88l-319 6l-242 -6l-10 82l133 22v732l-133 -11z" />
<glyph unicode="s" horiz-adv-x="892" d="M63 313h134l63 -163q84 -66 176 -66q72 0 112 37t40 100q0 53 -30 86t-109 72l-158 82q-185 94 -185 248q0 108 92 177t296 115q94 0 173 -25t126 -58v-230h-113l-47 148q-69 55 -156 55q-63 0 -106 -31t-43 -82q0 -44 33.5 -76.5t113.5 -72.5l156 -78q99 -50 145.5 -113 t46.5 -153q0 -69 -26 -120.5t-81 -88t-124 -61t-170 -46.5q-76 0 -164 26.5t-156 59.5z" />
<glyph unicode="t" horiz-adv-x="759" d="M10 840v34l76 78h121v135l158 142h71v-289h295v-100h-293v-578q0 -54 26 -89.5t81 -35.5q66 0 162 49l38 -77l-253 -140q-156 0 -222.5 62t-66.5 211v598h-193z" />
<glyph unicode="u" horiz-adv-x="1181" d="M23 913l256 56l122 8v-678q0 -74 33 -108.5t103 -34.5q62 0 192 86l39 26v566l-115 -11l-10 90l238 56l123 8v-707q0 -95 26 -149h94l9 -82l-295 -55l-60 172l-293 -187q-98 0 -160 16.5t-98 57t-49.5 99.5t-13.5 153v539l-131 -11z" />
<glyph unicode="v" horiz-adv-x="1132" d="M10 891l10 82l252 -6l224 6l10 -82l-125 -23l209 -569l16 -149l240 718l-96 23l10 82l186 -6l166 6l10 -82l-127 -23l-327 -839l-181 -60l-360 899z" />
<glyph unicode="w" horiz-adv-x="1744" d="M10 891l10 82l242 -6l207 6l10 -82l-108 -23l192 -575l17 -137l225 620l-37 92l-84 23l10 82l211 -6l205 6l10 -82l-106 -23l192 -575l17 -137l245 712l-94 23l10 82l156 -6l184 6l11 -82l-125 -23l-320 -837l-190 -60l-207 564l-10 137l-236 -641l-190 -60l-332 897z " />
<glyph unicode="x" horiz-adv-x="1140" d="M20 80l132 20l305 361l-297 407l-123 21l10 84l238 -6l233 6l10 -84l-82 -21l142 -209l16 -59l201 268l-90 21l10 84l170 -6l197 6l10 -84l-135 -21l-275 -321l324 -447l114 -20l-10 -82l-229 6l-234 -6l-12 82l86 20l-172 238l-20 57l-217 -295l96 -20l-10 -82l-181 6 l-196 -6z" />
<glyph unicode="y" horiz-adv-x="1132" d="M10 891l10 82l252 -6l224 6l10 -82l-125 -21l209 -571l20 -156l232 725l-97 21l11 84l184 -6l172 6l10 -84l-127 -21l-311 -825l-231 -524h-277v235h205l203 295l-125 -39l-332 860z" />
<glyph unicode="z" horiz-adv-x="985" d="M63 68l527 751l80 62l-385 -13l-68 -192h-92v295h768l33 -66l-527 -758l-75 -57l403 14l107 215h100l-57 -319h-785z" />
<glyph unicode="{" horiz-adv-x="714" d="M96 522v29q33 11 56.5 24.5t38 32.5t23 35.5t12 44t4.5 46.5t1 54l-2 390q0 128 88.5 207t221.5 79h98v-82h-88q-62 0 -101.5 -51t-35.5 -164l12 -379q2 -83 -31 -143.5t-131 -107.5l162 -107l-12 -604q-3 -114 36.5 -164.5t100.5 -50.5h88v-82h-105q-132 0 -217.5 79 t-85.5 208l2 583z" />
<glyph unicode="|" horiz-adv-x="579" d="M225 -502v1972h129v-1972h-129z" />
<glyph unicode="}" horiz-adv-x="714" d="M76 -389h88q62 0 101.5 51t35.5 164q0 35 -5 226.5t-7 215.5q-2 83 31 144t131 108l-162 107l12 540q3 114 -36.5 164.5t-100.5 50.5h-88v82h98q133 0 221 -79t88 -207l-2 -521l135 -122v-29q-32 -11 -56 -24.5t-38.5 -32.5t-23 -35.5t-12 -44.5t-4.5 -47t-1 -54l2 -452 q0 -129 -85.5 -208t-217.5 -79h-104v82z" />
<glyph unicode="~" horiz-adv-x="1370" d="M102 406l76 186l201 65l719 -114l88 110h82l-80 -196l-191 -58l-725 115l-88 -108h-82z" />
<glyph unicode="&#xa1;" horiz-adv-x="575" d="M158 854l12 113l172 12l68 -12l10 -129l-10 -111l-174 -12l-66 12zM170 -485l16 612l45 360h115l47 -358l15 -614h-238z" />
<glyph unicode="&#xa2;" horiz-adv-x="980" d="M82 459q0 101 33 186t93 146.5t133.5 105t164.5 74.5v155h125v-127q79 -4 155 -32t121 -68v-231h-188l-47 186q-34 29 -105 29q-101 0 -168 -99.5t-67 -261.5q0 -163 91 -269t243 -106q106 0 223 80l41 -84q-125 -97 -312 -161v-146h-124v139q-186 26 -299 152.5 t-113 331.5z" />
<glyph unicode="&#xa3;" horiz-adv-x="1191" d="M86 72l195 92v481h-181v35l80 84h101v256q0 96 26.5 165.5t86.5 122t145 88.5t213 68q199 0 276 -100v-197h-139l-33 138q-28 29 -59 43t-78 14q-54 0 -95 -26t-63 -69t-32.5 -89.5t-10.5 -96.5v-317h348v-119h-348v-276q0 -55 -7.5 -102t-16 -73.5t-21 -48.5t-17.5 -28 t-10 -11l459 7l96 204h109l-51 -317l-680 6l-283 -6z" />
<glyph unicode="&#xa4;" d="M154 346l114 115q-80 113 -80 256q0 154 97 278l-123 123l94 94l125 -127q119 82 258 82q135 0 256 -80l121 121l96 -96l-119 -119q97 -125 97 -276q0 -139 -82 -258l108 -107l-94 -94l-104 104q-123 -96 -279 -96q-155 0 -279 94l-110 -110zM305 717q0 -137 98.5 -235.5 t235.5 -98.5t235.5 98.5t98.5 235.5t-98.5 235.5t-235.5 98.5t-235.5 -98.5t-98.5 -235.5z" />
<glyph unicode="&#xa5;" horiz-adv-x="1396" d="M41 1354l10 84l291 -6l285 6l10 -84l-164 -27l277 -596l14 -98l285 694l-168 27l10 84l237 -6l218 6l10 -82l-150 -23l-360 -776h299v-98h-303v-101h303v-98h-303v-154l231 -26l-10 -82l-346 6l-355 -6l-10 82l238 26v154h-297v98h297v101h-297v98h293l-396 774z" />
<glyph unicode="&#xa6;" horiz-adv-x="577" d="M225 379h127v-881h-127v881zM225 590v880h127v-880h-127z" />
<glyph unicode="&#xa7;" horiz-adv-x="1124" d="M82 522q0 61 20.5 112.5t57 88.5t72.5 61.5t81 46.5q-4 4 -25.5 30t-27 33.5t-22.5 30.5t-22 36t-14.5 35t-12.5 43.5t-3 45.5q0 147 114.5 244t326.5 137q102 0 179.5 -27t113.5 -73v-221h-132l-26 147q-52 74 -158 74q-55 0 -100.5 -17.5t-78 -61t-32.5 -107.5 q0 -93 65.5 -172.5t219.5 -186.5l364 -246v-81q0 -285 -231 -418q33 -31 50.5 -50t37 -47.5t27.5 -60t8 -70.5q0 -273 -426 -350q-103 0 -198 37.5t-138 85.5v225h131l29 -145q28 -38 79 -70t117 -32q94 0 146.5 45t52.5 127q0 29 -9 56.5t-29 53.5t-38 46t-51 45 t-52.5 38.5t-57.5 39t-52 34.5q-63 44 -105.5 76t-94.5 79t-82.5 88t-52 92.5t-21.5 102.5zM276 614q0 -27 7 -53t16.5 -46.5t33 -47t40.5 -44t55.5 -48t62.5 -48.5l76 -57l178 -129q51 45 81 102t30 144v31l-332 233q-12 10 -35.5 27t-37.5 27.5t-35 28t-41 36.5 q-99 -52 -99 -156z" />
<glyph unicode="&#xa8;" horiz-adv-x="1024" d="M207 1325l18 90l135 10l56 -10l12 -108l-22 -90l-132 -13l-57 13zM586 1325l20 90l133 10l58 -10l10 -108l-23 -90l-131 -13l-55 13z" />
<glyph unicode="&#xa9;" horiz-adv-x="1703" d="M102 729q0 158 53.5 286.5t152.5 218.5t235 147.5t307 82.5q151 -2 286.5 -54t239.5 -146.5t165 -239t61 -319.5q0 -158 -53.5 -286.5t-152.5 -218.5t-235 -148t-307 -83q-151 2 -286.5 54t-239.5 147t-165 239.5t-61 319.5zM238 729q0 -132 40 -245t104 -189 t145.5 -130.5t163.5 -79t159 -24.5q123 0 234 44.5t196 125t135.5 203.5t50.5 271q0 132 -40 245t-104 189t-145.5 130t-163.5 78.5t-159 24.5q-123 0 -234 -44t-196 -124.5t-135.5 -203.5t-50.5 -271zM442 700q0 377 457 445q83 0 158 -25.5t125 -58.5v-180h-78l-37 108 q-65 82 -184 82q-120 0 -193.5 -88t-73.5 -248q0 -98 33.5 -181.5t100 -136t153.5 -52.5t158 67l61 135h76l-27 -190q-169 -70 -299 -88q-85 0 -161.5 27.5t-137 78t-96 129.5t-35.5 176z" />
<glyph unicode="&#xaa;" horiz-adv-x="890" d="M82 852q0 77 63 160l369 118v89q0 79 -18 112t-74 33q-55 0 -119 -27l-24 -145h-170v139l315 135q163 0 222 -54t59 -204v-321q0 -77 24 -123h82l8 -68l-244 -47l-51 129l-192 -141q-110 0 -180 58.5t-70 156.5zM270 877q0 -58 25.5 -85.5t62.5 -27.5q46 0 99 37l57 41 v219l-211 -86q-33 -33 -33 -98z" />
<glyph unicode="&#xab;" horiz-adv-x="1005" d="M31 481l372 451h132l-261 -453l261 -448h-134zM440 481l373 451h131l-260 -453l260 -448h-133z" />
<glyph unicode="&#xac;" d="M106 625v143h1055v-399h-143v256h-912z" />
<glyph unicode="&#xad;" horiz-adv-x="747" d="M76 504v135h596v-135h-596z" />
<glyph unicode="&#xae;" horiz-adv-x="1218" d="M92 899q0 214 137.5 341.5t376.5 162.5q142 -1 258.5 -61t189 -179.5t72.5 -279.5q0 -214 -137.5 -341.5t-378.5 -162.5q-104 1 -197.5 36.5t-165 100.5t-113.5 164t-42 219zM184 899q0 -91 27.5 -169t72 -130.5t100.5 -90.5t112.5 -55.5t109.5 -17.5q85 0 162.5 31 t136.5 87t94 141.5t35 187.5q0 91 -27.5 169.5t-72 131t-101 90.5t-113.5 55t-110 17q-114 0 -210 -52t-156 -155.5t-60 -239.5zM336 659l65 9v454l-65 8l4 41l127 -2l192 2q79 0 131 -36.5t52 -100.5q0 -58 -52 -94t-135 -51l95 -41l122 -178l39 -11l-2 -43l-96 2l-70 -2 l-161 244l-11 8h-34v-200l61 -9l-4 -43l-125 2l-129 -2zM537 920h53q46 0 77 28.5t31 79.5q0 49 -28.5 75.5t-73.5 26.5l-59 -6v-204z" />
<glyph unicode="&#xaf;" horiz-adv-x="1024" d="M219 1274v127h586v-127h-586z" />
<glyph unicode="&#xb0;" horiz-adv-x="841" d="M102 1225q0 125 78.5 197.5t241.5 119.5q135 0 226 -92.5t91 -224.5q0 -131 -75 -206.5t-242 -113.5q-135 0 -227.5 94t-92.5 226zM227 1223q0 -85 57 -142t138 -57q79 0 135.5 57t56.5 142q0 86 -56.5 143t-135.5 57q-81 0 -138 -57t-57 -143z" />
<glyph unicode="&#xb1;" d="M98 0v143h1065v-143h-1065zM98 729v143h457v465h143v-465h455v-143h-455v-446h-143v446h-457z" />
<glyph unicode="&#xb2;" horiz-adv-x="751" d="M41 874l227 228q94 95 136 169.5t42 145.5q0 61 -24.5 95t-71.5 34q-39 0 -74 -14l-36 -148h-148v156l285 84q122 0 197 -57.5t75 -151.5q0 -99 -64 -178.5t-202 -175.5l-215 -146l145 48h357v-54l-41 -90h-559z" />
<glyph unicode="&#xb3;" horiz-adv-x="669" d="M61 1384v156l285 84q120 0 173.5 -42t53.5 -109q0 -65 -46.5 -109t-143.5 -74q116 -7 175.5 -56.5t59.5 -117.5q0 -33 -14 -61.5t-31 -47.5t-53.5 -41.5t-58 -33t-70 -31.5t-65.5 -29l-111 -53h-147v156h301q47 42 47 104q0 60 -44.5 95.5t-133.5 35.5l-13 47l45 19 q59 24 87 60t28 96q0 53 -22 81.5t-60 28.5q-33 0 -57 -12l-37 -146h-148z" />
<glyph unicode="&#xb4;" horiz-adv-x="1024" d="M293 1124l92 357h248l-240 -357h-100z" />
<glyph unicode="&#xb5;" d="M137 -471v1442h236v-629q0 -95 40.5 -141.5t112.5 -46.5q25 0 60 15t58 29t69 44l39 24v705h235v-723q0 -79 33.5 -118t109.5 -58l-12 -72h-268l-92 152l-228 -183q-203 0 -251 99v-136l122 -403h-264z" />
<glyph unicode="&#xb6;" horiz-adv-x="1036" d="M61 1090q0 40 17 79t42 70t70 67.5t83 62.5t100 65h581v-109l-106 -20v-1631h-133v1631h-211v-1631h-133v1139q-133 0 -221.5 75.5t-88.5 201.5z" />
<glyph unicode="&#xb7;" horiz-adv-x="483" d="M113 834l12 108l166 12l67 -12l13 -125l-13 -110l-168 -11l-65 11z" />
<glyph unicode="&#xb8;" horiz-adv-x="1024" d="M317 -498l60 88h147q28 19 43 53t15 70q0 63 -45.5 93t-106.5 30l154 205l61 -33l-70 -104q69 0 117.5 -36.5t48.5 -100.5q0 -47 -18.5 -86.5t-49.5 -66.5t-62 -45t-66 -30l-105 -37h-123z" />
<glyph unicode="&#xb9;" horiz-adv-x="643" d="M61 1495l277 119h102v-715l172 -20l-6 -62l-260 4l-266 -4l-6 62l172 20v559l12 35l-57 -37l-111 -16z" />
<glyph unicode="&#xba;" horiz-adv-x="917" d="M72 1036q0 353 411 428q160 0 261.5 -109.5t101.5 -279.5q0 -183 -109 -287.5t-303 -140.5q-158 0 -260 110t-102 279zM266 1087q0 -156 59.5 -254t153.5 -98q81 0 125.5 77t44.5 212q0 164 -59.5 259t-151.5 95q-84 0 -128 -77t-44 -214z" />
<glyph unicode="&#xbb;" horiz-adv-x="1005" d="M61 31l261 448l-261 453h132l372 -451l-370 -450h-134zM471 31l260 448l-260 453h131l373 -451l-371 -450h-133z" />
<glyph unicode="&#xbc;" horiz-adv-x="1703" d="M82 1321l276 119h103v-715l172 -20l-6 -62l-260 4l-267 -4l-6 62l172 20v559l13 35l-58 -37l-110 -16zM401 -102l793 1556h125l-789 -1556h-129zM950 274l402 514h153v-71l-428 -426l62 22h168v113l133 109h37v-222h145v-125h-145v-188h-170v188h-303z" />
<glyph unicode="&#xbd;" horiz-adv-x="1742" d="M82 1321l276 119h103v-715l172 -20l-6 -62l-260 4l-267 -4l-6 62l172 20v559l13 35l-58 -37l-110 -16zM401 -102l793 1556h125l-789 -1556h-129zM1032 55l29 -55h559l41 90v53h-354l-148 -47l215 146q138 96 202 175.5t64 178.5q0 94 -75 151.5t-197 57.5l-285 -84v-156 h148l39 148q32 14 73 14q45 0 70 -34t25 -95q0 -71 -42 -145.5t-136 -169.5z" />
<glyph unicode="&#xbe;" horiz-adv-x="1673" d="M82 1210h147l37 146q24 12 58 12q38 0 60 -29t22 -82q0 -60 -28 -95.5t-87 -59.5l-45 -19l12 -47q89 0 133.5 -35.5t44.5 -95.5q0 -62 -47 -104h-301v-156h148l110 53q18 8 66 29t70 32t58.5 33t53.5 41t31 47.5t14 61.5q0 68 -60 117.5t-176 56.5q97 30 144 73.5 t47 108.5q0 67 -53.5 109.5t-173.5 42.5l-285 -84v-156zM369 -102l792 1556h127l-788 -1556h-131zM920 274l401 514h154v-71l-431 -426l64 22h168v113l131 109h37v-222h147v-125h-147v-188h-168v188h-305z" />
<glyph unicode="&#xbf;" horiz-adv-x="808" d="M41 -113q0 72 23 130.5t66 101t90 72t108 55.5l80 35l14 213h121l12 -279l-80 -45q-78 -44 -125 -124.5t-47 -170.5q0 -119 45.5 -186.5t140.5 -67.5l39 156h158v-244l-209 -22q-215 27 -325.5 127t-110.5 249zM344 852l12 113l172 10l68 -10l10 -131l-10 -109l-174 -12 l-66 12z" />
<glyph unicode="&#xc0;" horiz-adv-x="1521" d="M18 80l146 24l491 1309l185 45l512 -1356l151 -22l-10 -82l-319 6l-259 -6l-10 82l162 26l-129 367h-496l-125 -367l170 -26l-10 -82l-235 6l-213 -6zM426 1847h252l123 -274h-135zM477 575h424l-190 541l-11 113z" />
<glyph unicode="&#xc1;" horiz-adv-x="1521" d="M18 80l146 24l491 1309l185 45l512 -1356l151 -22l-10 -82l-319 6l-259 -6l-10 82l162 26l-129 367h-496l-125 -367l170 -26l-10 -82l-235 6l-213 -6zM477 575h424l-190 541l-11 113zM688 1573l123 274h254l-242 -274h-135z" />
<glyph unicode="&#xc2;" horiz-adv-x="1521" d="M18 80l146 24l491 1309l185 45l512 -1356l151 -22l-10 -82l-319 6l-259 -6l-10 82l162 26l-129 367h-496l-125 -367l170 -26l-10 -82l-235 6l-213 -6zM430 1573l227 274h181l227 -274h-141l-146 121l-33 37l-28 -37l-146 -121h-141zM477 575h424l-190 541l-11 113z" />
<glyph unicode="&#xc3;" horiz-adv-x="1521" d="M18 80l146 24l491 1309l185 45l512 -1356l151 -22l-10 -82l-319 6l-259 -6l-10 82l162 26l-129 367h-496l-125 -367l170 -26l-10 -82l-235 6l-213 -6zM424 1577l53 207l154 45l336 -103l69 107h60l-54 -211l-153 -41l-336 102l-70 -106h-59zM477 575h424l-190 541 l-11 113z" />
<glyph unicode="&#xc4;" horiz-adv-x="1521" d="M18 80l146 24l491 1309l185 45l512 -1356l151 -22l-10 -82l-319 6l-259 -6l-10 82l162 26l-129 367h-496l-125 -367l170 -26l-10 -82l-235 6l-213 -6zM412 1704l18 90l135 10l56 -10l12 -106l-23 -93l-131 -12l-57 12zM477 575h424l-190 541l-11 113zM872 1704l21 90 l133 10l57 -10l11 -106l-21 -93l-133 -12l-55 12z" />
<glyph unicode="&#xc5;" horiz-adv-x="1521" d="M18 80l146 24l491 1309l185 45l512 -1356l151 -22l-10 -82l-319 6l-259 -6l-10 82l162 26l-129 367h-496l-125 -367l170 -26l-10 -82l-235 6l-213 -6zM477 575h424l-190 541l-11 113zM518 1696q0 38 13 69t32 51t51.5 37t59 26.5t67.5 21.5q93 0 157.5 -49t64.5 -150 q0 -40 -13 -71t-31 -50.5t-51 -36t-59 -25.5t-68 -20q-90 0 -156.5 49t-66.5 148zM621 1698q0 -52 33.5 -84.5t86.5 -32.5t86 32.5t33 84.5q0 53 -33.5 87t-85.5 34t-86 -34t-34 -87z" />
<glyph unicode="&#xc6;" horiz-adv-x="2095" d="M10 80l150 22l862 1334l164 -4l790 4l21 -371h-80l-119 258l-483 6v-590l237 9l82 217h80l-20 -267l20 -282h-80l-82 217l-237 8v-537l502 7l141 268h86l-72 -381l-792 6l-283 -6l-10 82l174 26v533h-412l-327 -533l151 -26l-10 -82l-230 6l-213 -6zM702 735h359v594z " />
<glyph unicode="&#xc7;" horiz-adv-x="1445" d="M76 692q0 662 798 778q140 0 267 -45t217 -104v-309h-127l-66 194q-48 60 -130.5 103t-196.5 43q-216 0 -348 -159.5t-132 -444.5q0 -102 22 -199t66.5 -181t106 -147t145 -99t179.5 -36q85 0 150.5 34.5t127.5 90.5l107 233h122l-47 -327q-256 -116 -514 -154h-18 l-45 -59q69 0 117.5 -36.5t48.5 -100.5q0 -46 -19 -86t-50.5 -67t-63 -45t-66.5 -30l-104 -37h-121l59 88h146q28 19 43.5 53.5t15.5 69.5q0 63 -46 93t-108 30l107 133q-132 16 -247 70.5t-204 143t-140.5 220t-51.5 289.5z" />
<glyph unicode="&#xc8;" horiz-adv-x="1304" d="M61 80l175 26v1221l-175 27l11 82l282 -6l836 6l20 -379h-84l-118 266l-514 6v-528l264 8l82 217h86l-21 -266l21 -283h-86l-82 217l-264 8v-598l536 7l137 276h93l-70 -389l-836 6l-282 -6zM395 1847h252l123 -274h-135z" />
<glyph unicode="&#xc9;" horiz-adv-x="1304" d="M61 80l175 26v1221l-175 27l11 82l282 -6l836 6l20 -379h-84l-118 266l-514 6v-528l264 8l82 217h86l-21 -266l21 -283h-86l-82 217l-264 8v-598l536 7l137 276h93l-70 -389l-836 6l-282 -6zM600 1573l123 274h252l-240 -274h-135z" />
<glyph unicode="&#xca;" horiz-adv-x="1304" d="M61 80l175 26v1221l-175 27l11 82l282 -6l836 6l20 -379h-84l-118 266l-514 6v-528l264 8l82 217h86l-21 -266l21 -283h-86l-82 217l-264 8v-598l536 7l137 276h93l-70 -389l-836 6l-282 -6zM379 1573l225 274h182l226 -274h-142l-145 121l-31 37l-28 -37l-148 -121h-139 z" />
<glyph unicode="&#xcb;" horiz-adv-x="1304" d="M61 80l175 26v1221l-175 27l11 82l282 -6l836 6l20 -379h-84l-118 266l-514 6v-528l264 8l82 217h86l-21 -266l21 -283h-86l-82 217l-264 8v-598l536 7l137 276h93l-70 -389l-836 6l-282 -6zM360 1704l21 90l135 10l55 -10l11 -106l-23 -93l-131 -12l-55 12zM821 1704 l23 90l133 10l55 -10l12 -106l-22 -93l-133 -12l-55 12z" />
<glyph unicode="&#xcc;" horiz-adv-x="735" d="M70 82l174 27v1218l-174 27l10 82l293 -6l293 6l10 -82l-174 -27v-1218l174 -27l-10 -84l-293 6l-293 -6zM88 1847h252l123 -274h-135z" />
<glyph unicode="&#xcd;" horiz-adv-x="735" d="M70 82l174 27v1218l-174 27l10 82l293 -6l293 6l10 -82l-174 -27v-1218l174 -27l-10 -84l-293 6l-293 -6zM303 1573l123 274h252l-240 -274h-135z" />
<glyph unicode="&#xce;" horiz-adv-x="735" d="M55 1573l226 274h182l225 -274h-139l-148 121l-30 37l-29 -37l-145 -121h-142zM70 82l174 27v1218l-174 27l10 82l293 -6l293 6l10 -82l-174 -27v-1218l174 -27l-10 -84l-293 6l-293 -6z" />
<glyph unicode="&#xcf;" horiz-adv-x="735" d="M53 1704l19 90l135 10l55 -10l12 -106l-22 -93l-133 -12l-56 12zM70 82l174 27v1218l-174 27l10 82l293 -6l293 6l10 -82l-174 -27v-1218l174 -27l-10 -84l-293 6l-293 -6zM463 1704l20 90l133 10l56 -10l12 -106l-22 -93l-134 -12l-55 12z" />
<glyph unicode="&#xd0;" horiz-adv-x="1533" d="M61 80l175 26v590h-156v95h156v536l-175 27l11 82l268 -6l430 6q322 2 504 -175.5t182 -504.5t-175 -524t-527 -234l-416 6l-266 -6zM494 115l237 -19q133 -2 234.5 79.5t156 225.5t54.5 328q0 177 -55.5 314t-170.5 218t-274 78l-182 -10v-538h241v-95h-241v-581z" />
<glyph unicode="&#xd1;" horiz-adv-x="1517" d="M61 80l175 26v1211l-168 37l10 82l180 -6l182 6l690 -938l50 -146v975l-164 27l8 82l221 -6l242 6l10 -82l-174 -27v-1331h-139l-764 1063l-41 162v-1115l164 -26l-8 -82l-222 6l-241 -6zM457 1577l51 207l154 45l335 -103l70 107h59l-53 -211l-153 -41l-336 102 l-68 -106h-59z" />
<glyph unicode="&#xd2;" horiz-adv-x="1622" d="M76 684q0 341 181 529t577 257q210 0 373 -93.5t251 -257t88 -369.5q0 -341 -181 -529.5t-577 -257.5q-210 0 -373 93.5t-251 257.5t-88 370zM358 754q0 -96 16.5 -188.5t54 -180t92 -153.5t137 -106t182.5 -40q108 0 191 45.5t133 127t75 188t25 235.5q0 94 -16 185 t-53 179t-91 154.5t-136.5 107t-183.5 40.5q-108 0 -191 -45t-133.5 -126.5t-76 -187.5t-25.5 -235zM535 1847h251l123 -274h-135z" />
<glyph unicode="&#xd3;" horiz-adv-x="1622" d="M76 684q0 341 181 529t577 257q210 0 373 -93.5t251 -257t88 -369.5q0 -341 -181 -529.5t-577 -257.5q-210 0 -373 93.5t-251 257.5t-88 370zM358 754q0 -96 16.5 -188.5t54 -180t92 -153.5t137 -106t182.5 -40q108 0 191 45.5t133 127t75 188t25 235.5q0 94 -16 185 t-53 179t-91 154.5t-136.5 107t-183.5 40.5q-108 0 -191 -45t-133.5 -126.5t-76 -187.5t-25.5 -235zM735 1573l123 274h252l-240 -274h-135z" />
<glyph unicode="&#xd4;" horiz-adv-x="1622" d="M76 684q0 341 181 529t577 257q210 0 373 -93.5t251 -257t88 -369.5q0 -341 -181 -529.5t-577 -257.5q-210 0 -373 93.5t-251 257.5t-88 370zM358 754q0 -96 16.5 -188.5t54 -180t92 -153.5t137 -106t182.5 -40q108 0 191 45.5t133 127t75 188t25 235.5q0 94 -16 185 t-53 179t-91 154.5t-136.5 107t-183.5 40.5q-108 0 -191 -45t-133.5 -126.5t-76 -187.5t-25.5 -235zM512 1573l227 274h181l227 -274h-141l-146 121l-31 37l-30 -37l-146 -121h-141z" />
<glyph unicode="&#xd5;" horiz-adv-x="1622" d="M76 684q0 341 181 529t577 257q210 0 373 -93.5t251 -257t88 -369.5q0 -341 -181 -529.5t-577 -257.5q-210 0 -373 93.5t-251 257.5t-88 370zM358 754q0 -96 16.5 -188.5t54 -180t92 -153.5t137 -106t182.5 -40q108 0 191 45.5t133 127t75 188t25 235.5q0 94 -16 185 t-53 179t-91 154.5t-136.5 107t-183.5 40.5q-108 0 -191 -45t-133.5 -126.5t-76 -187.5t-25.5 -235zM512 1577l53 207l154 45l336 -103l69 107h60l-54 -211l-153 -41l-336 102l-70 -106h-59z" />
<glyph unicode="&#xd6;" horiz-adv-x="1622" d="M76 684q0 341 181 529t577 257q210 0 373 -93.5t251 -257t88 -369.5q0 -341 -181 -529.5t-577 -257.5q-210 0 -373 93.5t-251 257.5t-88 370zM358 754q0 -96 16.5 -188.5t54 -180t92 -153.5t137 -106t182.5 -40q108 0 191 45.5t133 127t75 188t25 235.5q0 94 -16 185 t-53 179t-91 154.5t-136.5 107t-183.5 40.5q-108 0 -191 -45t-133.5 -126.5t-76 -187.5t-25.5 -235zM483 1704l21 90l135 10l55 -10l11 -106l-23 -93l-131 -12l-55 12zM944 1704l23 90l133 10l55 -10l12 -106l-22 -93l-133 -12l-56 12z" />
<glyph unicode="&#xd7;" d="M199 125l336 332l-336 336l100 102l336 -336l334 334l100 -102l-334 -334l334 -332l-102 -100l-332 331l-334 -333z" />
<glyph unicode="&#xd8;" horiz-adv-x="1622" d="M76 684q0 341 181 529t577 257q239 0 413 -120l92 114h131l-141 -178q104 -98 160.5 -236.5t56.5 -299.5q0 -341 -181 -529.5t-577 -257.5q-239 0 -417 121l-90 -115h-136l144 181q-102 98 -157.5 235.5t-55.5 298.5zM358 754q0 -233 88 -408l670 838q-127 164 -332 164 q-108 0 -191 -45t-133.5 -126.5t-76 -187.5t-25.5 -235zM504 250q131 -164 336 -164q108 0 191 45.5t133 127t75 188t25 235.5q0 234 -90 410z" />
<glyph unicode="&#xd9;" horiz-adv-x="1503" d="M33 1354l10 82l281 -6l301 6l10 -82l-162 -27v-838q0 -191 83.5 -293t250.5 -102q158 0 242 104.5t84 297.5v831l-179 27l11 82l262 -6l237 6l11 -82l-170 -27v-819q0 -106 -24 -186t-81 -150t-159.5 -122t-252.5 -87q-158 0 -271.5 38.5t-180.5 112.5t-98 171t-31 223 v819zM498 1847h254l120 -274h-135z" />
<glyph unicode="&#xda;" horiz-adv-x="1503" d="M33 1354l10 82l281 -6l301 6l10 -82l-162 -27v-838q0 -191 83.5 -293t250.5 -102q158 0 242 104.5t84 297.5v831l-179 27l11 82l262 -6l237 6l11 -82l-170 -27v-819q0 -106 -24 -186t-81 -150t-159.5 -122t-252.5 -87q-158 0 -271.5 38.5t-180.5 112.5t-98 171t-31 223 v819zM698 1573l123 274h254l-241 -274h-136z" />
<glyph unicode="&#xdb;" horiz-adv-x="1503" d="M33 1354l10 82l281 -6l301 6l10 -82l-162 -27v-838q0 -191 83.5 -293t250.5 -102q158 0 242 104.5t84 297.5v831l-179 27l11 82l262 -6l237 6l11 -82l-170 -27v-819q0 -106 -24 -186t-81 -150t-159.5 -122t-252.5 -87q-158 0 -271.5 38.5t-180.5 112.5t-98 171t-31 223 v819zM481 1573l228 274h180l227 -274h-141l-146 121l-30 37l-31 -37l-145 -121h-142z" />
<glyph unicode="&#xdc;" horiz-adv-x="1503" d="M33 1354l10 82l281 -6l301 6l10 -82l-162 -27v-838q0 -191 83.5 -293t250.5 -102q158 0 242 104.5t84 297.5v831l-179 27l11 82l262 -6l237 6l11 -82l-170 -27v-819q0 -106 -24 -186t-81 -150t-159.5 -122t-252.5 -87q-158 0 -271.5 38.5t-180.5 112.5t-98 171t-31 223 v819zM457 1704l20 90l135 10l56 -10l12 -106l-23 -93l-133 -12l-55 12zM920 1704l20 90l133 10l57 -10l11 -106l-23 -93l-131 -12l-55 12z" />
<glyph unicode="&#xdd;" horiz-adv-x="1468" d="M10 1356l10 80l291 -6l285 6l10 -80l-164 -27l342 -577l11 -88l356 665l-168 27l10 80l236 -6l219 6l10 -80l-149 -23l-441 -774l2 -453l230 -26l-10 -82l-349 6l-356 -6l-10 82l237 26v459l-452 766zM717 1573l123 274h252l-240 -274h-135z" />
<glyph unicode="&#xde;" horiz-adv-x="1210" d="M47 82l174 27v1218l-174 27l10 82l295 -6l312 6l10 -82l-195 -27v-186l295 4q128 1 227.5 -39.5t158.5 -124.5t59 -201q0 -79 -31 -146.5t-80 -115t-121 -87.5t-142.5 -65t-156.5 -47h-209v-210l240 -27l-10 -84l-357 6l-295 -6zM479 434h160q130 0 215.5 88t85.5 232 q0 136 -76.5 217.5t-216.5 81.5l-168 -15v-604z" />
<glyph unicode="&#xdf;" horiz-adv-x="1290" d="M51 836v41l66 75h108v82q0 104 71 200.5t214 162.5l158 73q202 0 325.5 -74.5t122.5 -205.5q0 -49 -16 -92t-42 -76.5t-70 -67t-89.5 -60t-110.5 -58.5q0 -61 31.5 -106.5t114.5 -90.5l137 -76q93 -50 135.5 -113.5t42.5 -146.5q0 -66 -27 -120t-79.5 -94.5t-119.5 -70.5 t-155 -55q-132 0 -284 92l-15 228h109l49 -146q74 -59 147 -59q63 0 105.5 40.5t42.5 100.5q0 109 -125 189l-131 79q-88 52 -127 130.5t-39 189.5l135 88q135 91 135 276q0 77 -50 137t-140 60q-217 0 -217 -346v-1022l-135 4l-226 -6l-10 76l133 20v742h-174z" />
<glyph unicode="&#xe0;" horiz-adv-x="991" d="M61 238q0 103 80 196l459 150v110q0 97 -23.5 138.5t-89.5 41.5q-72 0 -149 -34l-33 -178h-211v172l393 167q205 0 278 -66.5t73 -254.5v-399q0 -101 32 -154h101l10 -82l-303 -61l-66 161l-239 -176q-138 0 -225 73t-87 196zM281 1481h245l95 -357h-101zM297 266 q0 -71 33 -105t78 -34q50 0 120 47l72 49v275l-260 -107q-43 -46 -43 -125z" />
<glyph unicode="&#xe1;" horiz-adv-x="991" d="M61 238q0 103 80 196l459 150v110q0 97 -23.5 138.5t-89.5 41.5q-72 0 -149 -34l-33 -178h-211v172l393 167q205 0 278 -66.5t73 -254.5v-399q0 -101 32 -154h101l10 -82l-303 -61l-66 161l-239 -176q-138 0 -225 73t-87 196zM297 266q0 -71 33 -105t78 -34q50 0 120 47 l72 49v275l-260 -107q-43 -46 -43 -125zM451 1124l92 357h248l-240 -357h-100z" />
<glyph unicode="&#xe2;" horiz-adv-x="991" d="M61 238q0 103 80 196l459 150v110q0 97 -23.5 138.5t-89.5 41.5q-72 0 -149 -34l-33 -178h-211v172l393 167q205 0 278 -66.5t73 -254.5v-399q0 -101 32 -154h101l10 -82l-303 -61l-66 161l-239 -176q-138 0 -225 73t-87 196zM201 1124l223 357h143l224 -357h-101 l-158 170l-36 47l-37 -47l-158 -170h-100zM297 266q0 -71 33 -105t78 -34q50 0 120 47l72 49v275l-260 -107q-43 -46 -43 -125z" />
<glyph unicode="&#xe3;" horiz-adv-x="991" d="M61 238q0 103 80 196l459 150v110q0 97 -23.5 138.5t-89.5 41.5q-72 0 -149 -34l-33 -178h-211v172l393 167q205 0 278 -66.5t73 -254.5v-399q0 -101 32 -154h101l10 -82l-303 -61l-66 161l-239 -176q-138 0 -225 73t-87 196zM162 1198l53 207l154 45l338 -111l59 107h68 l-56 -217l-151 -35l-340 113l-58 -109h-67zM297 266q0 -71 33 -105t78 -34q50 0 120 47l72 49v275l-260 -107q-43 -46 -43 -125z" />
<glyph unicode="&#xe4;" horiz-adv-x="991" d="M61 238q0 103 80 196l459 150v110q0 97 -23.5 138.5t-89.5 41.5q-72 0 -149 -34l-33 -178h-211v172l393 167q205 0 278 -66.5t73 -254.5v-399q0 -101 32 -154h101l10 -82l-303 -61l-66 161l-239 -176q-138 0 -225 73t-87 196zM199 1325l20 90l133 10l56 -10l12 -108 l-23 -90l-131 -13l-57 13zM297 266q0 -71 33 -105t78 -34q50 0 120 47l72 49v275l-260 -107q-43 -46 -43 -125zM578 1325l20 90l135 10l55 -10l13 -108l-23 -90l-133 -13l-55 13z" />
<glyph unicode="&#xe5;" horiz-adv-x="991" d="M61 238q0 103 80 196l459 150v110q0 97 -23.5 138.5t-89.5 41.5q-72 0 -149 -34l-33 -178h-211v172l393 167q205 0 278 -66.5t73 -254.5v-399q0 -101 32 -154h101l10 -82l-303 -61l-66 161l-239 -176q-138 0 -225 73t-87 196zM283 1307q0 38 13 69t32 50.5t52 37 t58.5 26.5t67.5 21q93 0 157 -48.5t64 -149.5q0 -40 -13 -71t-31 -50.5t-50 -36t-57.5 -25.5t-67.5 -20q-92 0 -158.5 49t-66.5 148zM297 266q0 -71 33 -105t78 -34q50 0 120 47l72 49v275l-260 -107q-43 -46 -43 -125zM387 1309q0 -52 33 -84.5t86 -32.5t87 32.5t34 84.5 q0 53 -34.5 87t-86.5 34t-85.5 -34t-33.5 -87z" />
<glyph unicode="&#xe6;" horiz-adv-x="1482" d="M61 231q0 110 80 203l449 150v108q0 96 -20 139t-78 43q-75 0 -156 -34l-33 -170h-207v164l383 167q126 0 197.5 -24t105.5 -84q103 70 258 108q100 0 174 -31t116 -86.5t61.5 -124.5t19.5 -153v-90h-602q0 -166 89 -269.5t239 -103.5q116 0 239 84l41 -84 q-152 -112 -364 -174q-126 0 -231.5 51t-170.5 148l-276 -199q-137 0 -225.5 72t-88.5 190zM297 260q0 -63 33 -96t80 -33q9 0 18 1.5t19.5 5.5t17.5 7t18 9.5t14.5 8.5t14.5 9l12 8l66 47v265l-250 -107q-43 -43 -43 -125zM809 608l367 19q0 130 -35 194t-129 64 q-88 0 -141 -76.5t-62 -200.5z" />
<glyph unicode="&#xe7;" horiz-adv-x="950" d="M74 459q0 92 27 171t73 137t112 105t137.5 77.5t154.5 51.5q82 0 165 -29t134 -73v-231h-189l-47 186q-34 29 -98 29q-93 0 -156 -100t-63 -261q0 -163 85 -269t228 -106q104 0 221 80l41 -84q-143 -110 -352 -174h-8l-43 -65q68 0 115.5 -36.5t47.5 -100.5 q0 -47 -18.5 -86.5t-49.5 -66.5t-63 -45t-67 -30l-105 -37h-120l59 88h145q29 19 44.5 53t15.5 70q0 63 -45.5 93t-106.5 30l107 141q-174 27 -277.5 153.5t-103.5 328.5z" />
<glyph unicode="&#xe8;" horiz-adv-x="989" d="M66 463q0 423 477 538q100 0 174.5 -30t118 -84.5t64 -122.5t20.5 -152v-96h-611q2 -165 87 -267t231 -102q123 0 256 84l39 -84q-143 -110 -373 -178q-132 0 -241 57.5t-175.5 171.5t-66.5 265zM268 1481h248l92 -357h-100zM309 604l365 21q0 130 -36 196t-132 66 q-84 0 -136 -77t-61 -206z" />
<glyph unicode="&#xe9;" horiz-adv-x="989" d="M66 463q0 423 477 538q100 0 174.5 -30t118 -84.5t64 -122.5t20.5 -152v-96h-611q2 -165 87 -267t231 -102q123 0 256 84l39 -84q-143 -110 -373 -178q-132 0 -241 57.5t-175.5 171.5t-66.5 265zM309 604l365 21q0 130 -36 196t-132 66q-84 0 -136 -77t-61 -206z M520 1124l92 357h248l-239 -357h-101z" />
<glyph unicode="&#xea;" horiz-adv-x="989" d="M66 463q0 423 477 538q100 0 174.5 -30t118 -84.5t64 -122.5t20.5 -152v-96h-611q2 -165 87 -267t231 -102q123 0 256 84l39 -84q-143 -110 -373 -178q-132 0 -241 57.5t-175.5 171.5t-66.5 265zM252 1124l223 357h141l226 -357h-101l-159 170l-35 47l-37 -47l-160 -170 h-98zM309 604l365 21q0 130 -36 196t-132 66q-84 0 -136 -77t-61 -206z" />
<glyph unicode="&#xeb;" horiz-adv-x="989" d="M66 463q0 423 477 538q100 0 174.5 -30t118 -84.5t64 -122.5t20.5 -152v-96h-611q2 -165 87 -267t231 -102q123 0 256 84l39 -84q-143 -110 -373 -178q-132 0 -241 57.5t-175.5 171.5t-66.5 265zM231 1325l21 90l135 10l55 -10l13 -108l-23 -90l-133 -13l-55 13zM309 604 l365 21q0 130 -36 196t-132 66q-84 0 -136 -77t-61 -206zM612 1325l21 90l133 10l57 -10l11 -108l-23 -90l-131 -13l-55 13z" />
<glyph unicode="&#xec;" horiz-adv-x="620" d="M61 909l267 62l112 6v-875l140 -20l-11 -84l-243 6l-244 -6l-10 84l133 20v736l-133 -11zM68 1481h247l93 -357h-101z" />
<glyph unicode="&#xed;" horiz-adv-x="620" d="M61 909l267 62l112 6v-875l140 -20l-11 -84l-243 6l-244 -6l-10 84l133 20v736l-133 -11zM256 1124l92 357h248l-240 -357h-100z" />
<glyph unicode="&#xee;" horiz-adv-x="620" d="M18 1124l224 357h141l225 -357h-100l-160 170l-35 47l-37 -47l-159 -170h-99zM61 909l267 62l112 6v-875l140 -20l-11 -84l-243 6l-244 -6l-10 84l133 20v736l-133 -11z" />
<glyph unicode="&#xef;" horiz-adv-x="618" d="M10 1325l21 90l133 10l57 -10l10 -108l-22 -90l-131 -13l-55 13zM59 909l267 62l112 6v-875l140 -20l-11 -84l-243 6l-244 -6l-10 84l133 20v736l-133 -11zM389 1325l21 90l135 10l55 -10l12 -108l-22 -90l-133 -13l-56 13z" />
<glyph unicode="&#xf0;" horiz-adv-x="1116" d="M72 449q0 432 528 503l191 -88q-45 188 -211 344l-238 -116v112l147 72q-1 1 -38 24.5t-80 49.5t-56 32l52 93q194 -86 262 -129l229 110v-113l-137 -67q323 -263 323 -774q0 -120 -39.5 -215.5t-112 -159t-166.5 -102.5t-210 -56q-198 0 -321 132.5t-123 347.5zM319 522 q0 -205 70.5 -323.5t190.5 -118.5q101 0 159 82.5t58 238.5q0 204 -71 322.5t-191 118.5q-100 0 -158 -82.5t-58 -237.5z" />
<glyph unicode="&#xf1;" horiz-adv-x="1232" d="M61 907l267 62l104 6l6 -170l307 196q96 0 155.5 -15.5t95 -55.5t48.5 -99t13 -155v-574l141 -22l-10 -82l-244 6l-211 -6l-10 82l94 22v576q0 139 -123 139q-32 0 -69.5 -14.5t-60 -28t-68.5 -43.5l-54 -37v-592l101 -22l-11 -82l-204 6l-244 -6l-10 82l133 22v732 l-135 -11zM293 1198l53 207l154 45l338 -111l59 107h66l-56 -217l-151 -35l-340 113l-58 -109h-65z" />
<glyph unicode="&#xf2;" horiz-adv-x="1114" d="M66 461q0 444 522 540q201 0 330 -139t129 -354q0 -230 -139 -363t-384 -176q-201 0 -329.5 139t-128.5 353zM315 526q0 -199 75 -323.5t192 -124.5q102 0 157.5 97.5t55.5 268.5q0 209 -75 329t-192 120q-103 0 -158 -98t-55 -269zM322 1481h247l93 -357h-101z" />
<glyph unicode="&#xf3;" horiz-adv-x="1114" d="M66 461q0 444 522 540q201 0 330 -139t129 -354q0 -230 -139 -363t-384 -176q-201 0 -329.5 139t-128.5 353zM315 526q0 -199 75 -323.5t192 -124.5q102 0 157.5 97.5t55.5 268.5q0 209 -75 329t-192 120q-103 0 -158 -98t-55 -269zM524 1124l92 357h248l-239 -357h-101z " />
<glyph unicode="&#xf4;" horiz-adv-x="1114" d="M66 461q0 444 522 540q201 0 330 -139t129 -354q0 -230 -139 -363t-384 -176q-201 0 -329.5 139t-128.5 353zM276 1124l224 357h143l223 -357h-100l-158 170l-37 47l-36 -47l-158 -170h-101zM315 526q0 -199 75 -323.5t192 -124.5q102 0 157.5 97.5t55.5 268.5 q0 209 -75 329t-192 120q-103 0 -158 -98t-55 -269z" />
<glyph unicode="&#xf5;" horiz-adv-x="1114" d="M66 461q0 444 522 540q201 0 330 -139t129 -354q0 -230 -139 -363t-384 -176q-201 0 -329.5 139t-128.5 353zM240 1198l53 207l153 45l338 -111l60 107h67l-55 -217l-151 -35l-340 113l-58 -109h-67zM315 526q0 -199 75 -323.5t192 -124.5q102 0 157.5 97.5t55.5 268.5 q0 209 -75 329t-192 120q-103 0 -158 -98t-55 -269z" />
<glyph unicode="&#xf6;" horiz-adv-x="1114" d="M66 461q0 444 522 540q201 0 330 -139t129 -354q0 -230 -139 -363t-384 -176q-201 0 -329.5 139t-128.5 353zM264 1325l21 90l133 10l55 -10l12 -108l-22 -90l-131 -13l-58 13zM315 526q0 -199 75 -323.5t192 -124.5q102 0 157.5 97.5t55.5 268.5q0 209 -75 329t-192 120 q-103 0 -158 -98t-55 -269zM643 1325l21 90l133 10l57 -10l10 -108l-20 -90l-133 -13l-56 13z" />
<glyph unicode="&#xf7;" d="M96 438v144h1075v-144h-1075zM508 127l12 106l168 13l66 -13l12 -122l-12 -111l-168 -12l-66 12zM508 887l12 108l168 13l66 -13l12 -125l-12 -110l-168 -10l-66 10z" />
<glyph unicode="&#xf8;" horiz-adv-x="1126" d="M66 -20l120 141q-116 135 -116 340q0 444 522 540q157 0 274 -90l68 78h117l-119 -139q119 -138 119 -342q0 -230 -139 -363t-384 -176q-156 0 -274 88l-68 -77h-120zM319 526q0 -118 29 -219l385 449q-76 137 -201 137q-103 0 -158 -98t-55 -269zM387 213 q74 -135 199 -135q102 0 157.5 97.5t55.5 268.5q0 120 -29 218z" />
<glyph unicode="&#xf9;" horiz-adv-x="1181" d="M23 913l256 56l122 8v-678q0 -74 33 -108.5t103 -34.5q62 0 192 86l39 26v566l-115 -11l-10 90l238 56l123 8v-707q0 -95 26 -149h94l9 -82l-295 -55l-60 172l-293 -187q-98 0 -160 16.5t-98 57t-49.5 99.5t-13.5 153v539l-131 -11zM303 1481h248l92 -357h-98z" />
<glyph unicode="&#xfa;" horiz-adv-x="1181" d="M23 913l256 56l122 8v-678q0 -74 33 -108.5t103 -34.5q62 0 192 86l39 26v566l-115 -11l-10 90l238 56l123 8v-707q0 -95 26 -149h94l9 -82l-295 -55l-60 172l-293 -187q-98 0 -160 16.5t-98 57t-49.5 99.5t-13.5 153v539l-131 -11zM528 1124l93 357h247l-241 -357h-99z " />
<glyph unicode="&#xfb;" horiz-adv-x="1181" d="M23 913l256 56l122 8v-678q0 -74 33 -108.5t103 -34.5q62 0 192 86l39 26v566l-115 -11l-10 90l238 56l123 8v-707q0 -95 26 -149h94l9 -82l-295 -55l-60 172l-293 -187q-98 0 -160 16.5t-98 57t-49.5 99.5t-13.5 153v539l-131 -11zM289 1124l225 357h141l224 -357h-99 l-159 170l-37 47l-35 -47l-160 -170h-100z" />
<glyph unicode="&#xfc;" horiz-adv-x="1181" d="M23 913l256 56l122 8v-678q0 -74 33 -108.5t103 -34.5q62 0 192 86l39 26v566l-115 -11l-10 90l238 56l123 8v-707q0 -95 26 -149h94l9 -82l-295 -55l-60 172l-293 -187q-98 0 -160 16.5t-98 57t-49.5 99.5t-13.5 153v539l-131 -11zM287 1325l20 90l133 10l58 -10 l10 -108l-23 -90l-131 -13l-55 13zM666 1325l20 90l135 10l56 -10l12 -108l-23 -90l-133 -13l-55 13z" />
<glyph unicode="&#xfd;" horiz-adv-x="1132" d="M10 891l10 82l252 -6l224 6l10 -82l-125 -21l209 -571l20 -156l232 725l-97 21l11 84l184 -6l172 6l10 -84l-127 -21l-311 -825l-231 -524h-277v235h205l203 295l-125 -39l-332 860zM580 1124l92 357h248l-240 -357h-100z" />
<glyph unicode="&#xfe;" horiz-adv-x="1153" d="M31 1395l266 59l113 8v-655l262 194q182 0 295.5 -127t113.5 -342q0 -491 -526 -563q-76 0 -145 37v-375l202 -22l-10 -82l-309 6l-242 -6l-10 82l133 22v1690l-133 -8zM410 178q68 -100 196 -100q101 0 164.5 102.5t63.5 276.5q0 176 -56 270t-143 94q-67 0 -172 -82 l-53 -41v-520z" />
<glyph unicode="&#xff;" horiz-adv-x="1132" d="M10 891l10 82l252 -6l224 6l10 -82l-125 -21l209 -571l20 -156l232 725l-97 21l11 84l184 -6l172 6l10 -84l-127 -21l-311 -825l-231 -524h-277v235h205l203 295l-125 -39l-332 860zM303 1325l21 90l135 10l55 -10l12 -108l-22 -90l-133 -13l-56 13zM684 1325l21 90 l133 10l57 -10l10 -108l-22 -90l-131 -13l-56 13z" />
<glyph unicode="&#x152;" horiz-adv-x="2007" d="M76 684q0 171 39.5 296t130 219.5t232.5 156.5t351 102l271 -26l801 4l20 -371h-80l-117 258l-491 6v-528l237 8l82 217h80l-20 -266l20 -283h-80l-82 217l-237 8v-598l502 7l141 270h86l-72 -383l-796 4l-308 -27q-209 0 -371.5 92t-250.5 253t-88 364zM356 750 q0 -177 65.5 -327.5t179 -238.5t249.5 -88l123 6v1221l-211 14q-102 0 -180.5 -44.5t-127.5 -124t-73.5 -185.5t-24.5 -233z" />
<glyph unicode="&#x153;" horiz-adv-x="1705" d="M66 467q0 230 138.5 361t383.5 171q107 0 196 -42.5t152 -120.5q113 113 328 165q100 0 174 -31t116 -86.5t62 -124.5t20 -153v-90h-604q0 -166 89.5 -269.5t238.5 -103.5q119 0 242 84l38 -84q-147 -111 -364 -174q-114 0 -212 43t-163 125q-134 -129 -377 -168 q-201 0 -329.5 140.5t-128.5 357.5zM313 526q0 -198 75.5 -323t193.5 -125q103 0 159 97.5t56 268.5q0 209 -75 328t-194 119q-104 0 -159.5 -97t-55.5 -268zM1034 608l365 19q0 130 -35 194t-129 64q-88 0 -140 -76t-61 -201z" />
<glyph unicode="&#x178;" horiz-adv-x="1468" d="M10 1356l10 80l291 -6l285 6l10 -80l-164 -27l342 -577l11 -88l356 665l-168 27l10 80l236 -6l219 6l10 -80l-149 -23l-441 -774l2 -453l230 -26l-10 -82l-349 6l-356 -6l-10 82l237 26v459l-452 766zM453 1704l20 90l133 10l56 -10l12 -106l-23 -93l-131 -12l-57 12z M913 1704l21 90l135 10l55 -10l13 -106l-23 -93l-133 -12l-55 12z" />
<glyph unicode="&#x2c6;" horiz-adv-x="1024" d="M207 1124l215 357h160l215 -357h-101l-194 183l-195 -183h-100z" />
<glyph unicode="&#x2dc;" horiz-adv-x="1024" d="M176 1198l53 207l154 45l338 -111l59 107h66l-53 -217l-152 -35l-340 113l-57 -109h-68z" />
<glyph unicode="&#x2000;" horiz-adv-x="950" />
<glyph unicode="&#x2001;" horiz-adv-x="1901" />
<glyph unicode="&#x2002;" horiz-adv-x="950" />
<glyph unicode="&#x2003;" horiz-adv-x="1901" />
<glyph unicode="&#x2004;" horiz-adv-x="633" />
<glyph unicode="&#x2005;" horiz-adv-x="475" />
<glyph unicode="&#x2006;" horiz-adv-x="316" />
<glyph unicode="&#x2007;" horiz-adv-x="316" />
<glyph unicode="&#x2008;" horiz-adv-x="237" />
<glyph unicode="&#x2009;" horiz-adv-x="380" />
<glyph unicode="&#x200a;" horiz-adv-x="105" />
<glyph unicode="&#x2010;" horiz-adv-x="788" d="M82 496v143h625v-143h-625z" />
<glyph unicode="&#x2011;" horiz-adv-x="788" d="M82 496v143h625v-143h-625z" />
<glyph unicode="&#x2012;" horiz-adv-x="788" d="M82 496v143h625v-143h-625z" />
<glyph unicode="&#x2013;" horiz-adv-x="1095" d="M82 510v115h932v-115h-932z" />
<glyph unicode="&#x2014;" horiz-adv-x="2027" d="M580 549v37h868v-37h-868z" />
<glyph unicode="&#x2018;" horiz-adv-x="401" d="M82 1051l12 112l144 310l84 -33q-27 -63 -53.5 -146.5t-26.5 -119.5l92 -11l12 -129l-12 -110l-174 -13l-66 13z" />
<glyph unicode="&#x2019;" horiz-adv-x="421" d="M90 1331l10 111l174 12l66 -12l12 -127l-12 -113l-143 -311l-84 35q27 63 53.5 146.5t26.5 119.5l-93 10z" />
<glyph unicode="&#x201a;" horiz-adv-x="442" d="M109 129l10 111l174 12l65 -12l13 -127l-13 -113l-143 -311l-84 35q27 63 53.5 146.5t26.5 119.5l-92 10z" />
<glyph unicode="&#x201c;" horiz-adv-x="757" d="M82 1051l12 112l144 310l84 -33q-27 -63 -53.5 -146.5t-26.5 -119.5l92 -11l12 -129l-12 -110l-174 -13l-66 13zM438 1051l13 112l143 310l86 -33q-28 -66 -55 -148t-27 -118l92 -11l12 -129l-12 -110l-172 -13l-67 13z" />
<glyph unicode="&#x201d;" horiz-adv-x="778" d="M94 1331l12 111l173 12l67 -12l12 -127l-12 -113l-143 -311l-84 35q27 63 53.5 146.5t26.5 119.5l-93 10zM451 1331l12 111l174 12l65 -12l13 -127l-13 -113l-143 -311l-84 35q27 63 53.5 146.5t26.5 119.5l-92 10z" />
<glyph unicode="&#x201e;" horiz-adv-x="798" d="M109 129l10 111l174 12l65 -12l13 -127l-13 -113l-143 -311l-84 35q27 63 53.5 146.5t26.5 119.5l-92 10zM465 129l10 111l174 12l66 -12l12 -127l-12 -113l-142 -311l-86 35q27 63 53.5 146.5t26.5 119.5l-92 10z" />
<glyph unicode="&#x2022;" horiz-adv-x="497" d="M102 631l13 125l182 12l86 -12l12 -142l-12 -127l-182 -12l-86 12z" />
<glyph unicode="&#x2026;" horiz-adv-x="1632" d="M154 129l12 107l166 12l67 -12l13 -125l-13 -109l-168 -12l-65 12zM686 129l12 107l168 12l66 -12l12 -125l-12 -109l-168 -12l-66 12zM1221 129l12 107l168 12l65 -12l13 -125l-13 -109l-168 -12l-65 12z" />
<glyph unicode="&#x202f;" horiz-adv-x="380" />
<glyph unicode="&#x2039;" horiz-adv-x="595" d="M31 481l372 451h132l-261 -453l261 -448h-134z" />
<glyph unicode="&#x203a;" horiz-adv-x="595" d="M61 31l261 448l-261 453h132l372 -451l-370 -450h-134z" />
<glyph unicode="&#x205f;" horiz-adv-x="475" />
<glyph unicode="&#x20ac;" horiz-adv-x="1413" d="M92 516v125h127v59q0 64 2 93h-129v125h146q50 229 210 357t445 189q79 0 149 -14.5t124.5 -40.5t91 -49.5t73.5 -54.5v-287h-117l-53 201q-100 129 -297 129q-126 0 -227 -114.5t-135 -315.5h604l-72 -125h-545v-45q0 -46 7 -107h477l-74 -125h-385 q41 -176 150.5 -279.5t275.5 -103.5q79 0 151 19t102 35t77 44l47 -88q-64 -40 -183.5 -92.5t-236.5 -81.5q-263 0 -437.5 140.5t-226.5 406.5h-141z" />
<glyph unicode="&#x2122;" horiz-adv-x="2138" d="M102 1184v252l387 -2l369 2v-252h-65l-64 172l-143 4v-637l129 -14l-6 -66l-228 4l-229 -4l-6 66l131 14v637l-144 -4l-63 -172h-68zM909 1372l6 64l113 -4l221 4l219 -533v-110l246 643l172 -4l144 4l6 -64l-88 -14v-635l86 -14l-4 -66l-183 2l-182 -2l-6 66l90 14v502 l18 139l-274 -721h-127l-233 571l-33 144v-635l88 -14l-4 -66l-135 2l-131 -2l-7 66l90 14v635z" />
<glyph unicode="&#x25fc;" horiz-adv-x="972" d="M0 0v973h973v-973h-973z" />
</font>
</defs>
</svg>
