<?xml version="1.0" standalone="no"?>
<!DOCTYPE svg PUBLIC "-//W3C//DTD SVG 1.1//EN" "http://www.w3.org/Graphics/SVG/1.1/DTD/svg11.dtd" >
<svg xmlns="http://www.w3.org/2000/svg" xmlns:xlink="http://www.w3.org/1999/xlink" version="1.1">
<metadata></metadata>
<defs>
<font id="gt_sectramedium_italic" horiz-adv-x="1269" >
<font-face units-per-em="2048" ascent="1536" descent="-512" />
<missing-glyph horiz-adv-x="491" />
<glyph unicode="&#xfb01;" horiz-adv-x="1165" d="M-262 -481l39 194h229q31 35 52.5 84t27.5 92l166 945h-199l10 38l87 76h122l15 94q36 197 151 269l256 153h465l-35 -176h-530q-30 -28 -51.5 -74t-26.5 -86l-33 -188h346l140 61l86 -81l-140 -791l168 107l37 -54l-297 -213l-137 72l143 811l-106 -18h-260l-152 -881 q-31 -175 -186 -277l-240 -157h-147z" />
<glyph unicode="&#xfb02;" horiz-adv-x="1159" d="M-262 -481l39 194h229q31 35 52.5 84t27.5 92l166 945h-199l10 38l87 76h122l15 94q36 197 151 269l256 153h375l68 -57l-226 -1278l170 107l37 -54l-299 -213l-139 72l139 793h-356l-152 -881q-31 -175 -186 -277l-240 -157h-147zM483 940h357l69 391l-151 -43h-164 q-30 -28 -51.5 -74t-26.5 -86z" />
<glyph unicode="&#xfb03;" horiz-adv-x="1755" d="M-262 -481l39 194h229q31 35 52.5 84t27.5 92l166 945h-199l10 38l87 76h122l15 94q36 197 151 269l256 153h334l-262 -176h-172q-30 -28 -51.5 -74t-26.5 -86l-33 -188h377l17 102q32 195 151 269l256 153h465l-35 -176h-530q-30 -27 -51.5 -73t-28.5 -87l-33 -188h348 l140 61l86 -81l-140 -791l168 107l37 -54l-299 -213l-137 72l143 811l-106 -18h-258l-154 -881q-13 -84 -61.5 -155.5t-122.5 -121.5l-242 -157h-135l39 194h219q31 35 52.5 84t27.5 92l166 945h-379l-152 -881q-31 -175 -186 -277l-240 -157h-147z" />
<glyph unicode="&#xfb04;" horiz-adv-x="1748" d="M-262 -481l39 194h229q31 35 52.5 84t27.5 92l166 945h-199l10 38l87 76h122l15 94q36 197 151 269l256 153h334l-262 -176h-172q-30 -28 -51.5 -74t-26.5 -86l-33 -188h377l17 102q32 195 151 269l256 153h375l65 -57l-223 -1278l168 107l39 -54l-299 -213l-139 72 l139 793h-356l-154 -881q-13 -84 -61.5 -155.5t-122.5 -121.5l-242 -157h-135l39 194h219q31 35 52.5 84t27.5 92l166 945h-379l-152 -881q-31 -175 -186 -277l-240 -157h-147zM1071 940h359l67 391l-149 -43h-164q-30 -27 -51.5 -73t-28.5 -87z" />
<glyph horiz-adv-x="0" />
<glyph horiz-adv-x="0" />
<glyph horiz-adv-x="682" />
<glyph unicode="&#xd;" horiz-adv-x="737" />
<glyph unicode=" "  horiz-adv-x="491" />
<glyph unicode="&#x09;" horiz-adv-x="491" />
<glyph unicode="&#xa0;" horiz-adv-x="491" />
<glyph unicode="!" horiz-adv-x="649" d="M121 2l10 127l31 107l172 12l63 -12l-10 -125l-33 -109l-170 -12zM268 481l23 404l86 569h229l-119 -567l-122 -406h-97z" />
<glyph unicode="&#x22;" horiz-adv-x="851" d="M203 932q39 65 79.5 147.5t47.5 118.5l-88 10l10 127l39 107l151 12l74 -12l-8 -125l-33 -109l-194 -311zM557 932q37 60 78.5 144.5t48.5 121.5l-86 10l10 127l37 107l154 12l73 -12l-10 -125l-31 -109l-194 -311z" />
<glyph unicode="#" horiz-adv-x="1271" d="M68 399l32 113h256l95 317h-252l34 113h250l119 399h129l-119 -399h287l119 399h129l-119 -399h260l-35 -113h-258l-96 -317h256l-33 -113h-258l-116 -399h-130l117 399h-286l-117 -399h-129l116 399h-251zM485 512h285l96 317h-286z" />
<glyph unicode="$" horiz-adv-x="1169" d="M80 88l51 303h139v-172q36 -39 94.5 -74t122.5 -53l93 526l-150 121q-88 68 -134 141t-46 169q0 117 80 203.5t241 148.5l156 57l25 141h84l-23 -131q207 -10 338 -106l-53 -297h-119l-14 186q-81 71 -174 97l-84 -476l137 -108q44 -35 73 -64.5t59 -72t45 -96.5t15 -119 q0 -124 -80.5 -222t-222.5 -151l-184 -68l-23 -135h-84l23 129q-116 7 -217 41t-168 82zM496 1155q0 -47 19.5 -89t45.5 -69.5t72 -66.5l76 430q-3 0 -10.5 1t-10.5 1q-192 -60 -192 -207zM567 76h27q96 28 144 92t48 151q0 81 -33 134.5t-100 107.5z" />
<glyph unicode="%" horiz-adv-x="1685" d="M88 -10l1346 1454h168l-1348 -1454h-166zM201 999q9 173 101 278t286 159q124 0 195 -81t63 -202q-9 -175 -101.5 -284t-283.5 -152q-117 0 -192 78t-68 204zM381 1030q-9 -112 22.5 -168.5t96.5 -56.5q38 0 69 27t50 73t30.5 101t14.5 116q9 111 -21.5 168.5t-87.5 57.5 q-43 0 -76.5 -27.5t-53.5 -73.5t-31 -101t-13 -116zM842 283q9 173 101 277.5t286 158.5q125 0 195.5 -81t62.5 -202q-9 -175 -101.5 -284t-283.5 -152q-117 0 -192 78.5t-68 204.5zM1022 313q-9 -112 22.5 -168.5t96.5 -56.5q38 0 69 27.5t50 73.5t30.5 101t14.5 116 q9 111 -21.5 168t-87.5 57q-43 0 -76.5 -27.5t-53.5 -73.5t-31 -101t-13 -116z" />
<glyph unicode="&#x26;" horiz-adv-x="1251" d="M70 340q0 286 356 428l92 37q-80 12 -150.5 89.5t-70.5 182.5q0 126 115.5 210.5t320.5 142.5l156 40q51 -4 128 -43t120 -73l-127 -168q-45 41 -135 96.5t-148 73.5q-188 -102 -188 -258q0 -100 52.5 -170t102.5 -70l-16 -88q-134 0 -242 -117.5t-108 -273.5 q0 -135 70.5 -223t205.5 -88q113 40 173 121.5t85 220.5l25 137h-105l-30 -45h-50l37 200h461l33 46h43l-37 -201h-131l-29 -158q-12 -57 -25.5 -96.5t-39.5 -81t-64.5 -73t-97.5 -61.5t-141 -57q-38 -15 -195 -57q-216 0 -331 104t-115 273z" />
<glyph unicode="'" horiz-adv-x="495" d="M203 932q39 65 79.5 147.5t47.5 118.5l-88 10l10 127l39 107l151 12l74 -12l-8 -125l-33 -109l-194 -311z" />
<glyph unicode="(" horiz-adv-x="692" d="M123 203q0 140 12 251.5t43.5 217t72 191.5t113.5 191.5t150 200t199 232.5l55 -43q-471 -561 -471 -1260q0 -342 129 -612l-59 -59q-137 237 -190.5 377t-53.5 313z" />
<glyph unicode=")" horiz-adv-x="692" d="M-76 -444q471 558 471 1259q0 340 -127 612l58 60q69 -120 107.5 -194t73 -160.5t48.5 -165.5t14 -170q0 -140 -11.5 -251.5t-43.5 -217t-72 -191.5t-113 -191.5t-150 -200t-199 -232.5z" />
<glyph unicode="*" horiz-adv-x="800" d="M133 1147l70 176l221 -109l-23 250h187l-45 -250l233 109l45 -176l-252 -43l168 -182l-157 -111l-109 221l-129 -221l-143 111l184 182z" />
<glyph unicode="+" d="M106 446v144h455v465h146v-465h454v-144h-454v-446h-146v446h-455z" />
<glyph unicode="," horiz-adv-x="499" d="M61 -274q39 65 79.5 147.5t47.5 118.5l-88 10l13 127l37 107l151 12l76 -12l-10 -125l-31 -109l-197 -311z" />
<glyph unicode="-" horiz-adv-x="808" d="M102 496l27 143h625l-27 -143h-625z" />
<glyph unicode="." horiz-adv-x="532" d="M102 2l11 127l32 107l170 12l64 -12l-10 -125l-33 -109l-170 -12z" />
<glyph unicode="/" horiz-adv-x="1036" d="M-248 -471l1264 1941h131l-1264 -1941h-131z" />
<glyph unicode="0" horiz-adv-x="1175" d="M92 393q0 412 447 561l141 47q196 0 315 -119t119 -304q0 -91 -23.5 -171.5t-73.5 -154.5t-138 -135t-209 -101l-142 -47q-196 0 -316 119.5t-120 304.5zM340 424q0 -132 70.5 -225t177.5 -117q130 47 204 171t74 294q0 131 -74 225.5t-171 116.5q-131 -47 -206 -171 t-75 -294z" />
<glyph unicode="1" horiz-adv-x="980" d="M10 -2l4 82l330 33l113 635l20 43l-86 -33l-252 -60l-20 76l499 215h113l-153 -876l321 -33l-25 -82l-428 6z" />
<glyph unicode="2" horiz-adv-x="1048" d="M-10 94l299 205q202 137 270 197q135 117 145 226q1 11 1 21q0 71 -36 108.5t-106 37.5l-137 -39l-80 -186h-190l24 204l457 133q158 0 242 -62t84 -167q0 -48 -20 -96t-51.5 -88.5t-80 -82.5t-93.5 -73.5t-105.5 -66.5t-104 -57.5t-98.5 -49.5l-236 -117l385 66h442v-74 l-71 -133h-893z" />
<glyph unicode="3" horiz-adv-x="958" d="M-92 -481l35 198h450q182 117 182 287q0 238 -323 238l-14 63l98 41q145 60 222 146t77 208q0 79 -42.5 131t-113.5 58l-119 -39l-84 -205h-184l25 223l436 133q166 0 246 -75.5t80 -200.5q0 -66 -28.5 -124t-80 -103t-115 -79.5t-141.5 -62.5q155 -10 237.5 -95 t82.5 -210q0 -77 -32.5 -142.5t-72 -106.5t-118.5 -85.5t-125 -63.5t-139 -55q-24 -9 -36 -14l-168 -65h-235z" />
<glyph unicode="4" horiz-adv-x="1171" d="M10 96l793 875h231l-16 -90l-848 -764l117 39h348l29 170l190 139h49l-53 -309h280l-28 -162h-283l-82 -465h-215l84 465h-536z" />
<glyph unicode="5" horiz-adv-x="1003" d="M-41 -481l35 198h452q89 66 140 154.5t51 179.5q0 115 -60.5 185.5t-179.5 70.5q-53 0 -97 -12t-105 -41l-74 -47l-43 51l211 713h727l-12 -74l-78 -131h-588l-131 -420l270 137q110 0 193 -30.5t129 -82t68 -109t22 -120.5q0 -89 -30 -166.5t-77 -133t-116.5 -105.5 t-135 -83t-147.5 -65l-172 -69h-252z" />
<glyph unicode="6" horiz-adv-x="1132" d="M102 440q0 142 48.5 281t138 258.5t210 218.5t273 168t318.5 100l28 -82q-116 -25 -223 -78.5t-187 -121.5t-143.5 -147t-102 -155t-54.5 -145l321 205q137 0 235.5 -113t98.5 -268q0 -188 -109 -333t-303 -212l-141 -49q-186 0 -297 124.5t-111 348.5zM358 418 q2 -143 58 -236t159 -108q77 29 131.5 96t78.5 146.5t24 166.5q0 137 -44 207t-106 70q-76 0 -198 -82l-70 -47q-33 -109 -33 -213z" />
<glyph unicode="7" horiz-adv-x="1013" d="M16 -471l7 88l806 1176l-69 -39h-690l36 217h887l43 -53l-827 -1389h-193z" />
<glyph unicode="8" horiz-adv-x="1128" d="M82 289q0 297 401 444q-111 75 -165 149t-54 169q0 128 93.5 224.5t254.5 149.5l133 41q168 0 273.5 -70.5t105.5 -189.5q0 -65 -21 -121.5t-53 -97t-83 -78.5t-97.5 -63t-109.5 -53q55 -37 85 -59.5t72 -60.5t63.5 -70.5t37.5 -78.5t16 -96q0 -154 -116 -258.5 t-328 -173.5l-105 -33q-166 0 -284.5 91t-118.5 235zM330 338q0 -119 68.5 -190.5t160.5 -79.5q217 94 217 297q0 23 -4 45.5t-8.5 40t-17 38.5t-19 33.5t-25.5 33t-26 28.5t-30 28.5t-28.5 25t-31.5 25.5t-29 23q-108 -74 -167.5 -156.5t-59.5 -191.5zM514 1116 q0 -141 174 -270q97 67 143 141.5t46 169.5q0 87 -50.5 142t-152.5 65q-88 -37 -124 -99t-36 -149z" />
<glyph unicode="9" horiz-adv-x="1114" d="M27 -416q144 31 272.5 105t216.5 167t145 190t76 185l-321 -204q-137 0 -235.5 113t-98.5 268q0 188 109 332.5t303 211.5l143 49q185 0 295 -124.5t110 -348.5q0 -237 -128.5 -454t-354.5 -369t-504 -203zM336 481q0 -134 44.5 -204t106.5 -70q71 0 199 84l68 47 q32 106 32 213q0 143 -56 235t-161 109q-113 -42 -173 -159.5t-60 -254.5z" />
<glyph unicode=":" horiz-adv-x="557" d="M102 2l11 127l32 107l170 12l64 -12l-10 -125l-33 -109l-170 -12zM219 743l12 127l31 109l170 12l64 -12l-11 -125l-30 -111l-170 -10z" />
<glyph unicode=";" horiz-adv-x="557" d="M61 -274q39 65 79.5 147.5t47.5 118.5l-88 10l13 127l37 107l151 12l76 -12l-10 -125l-31 -109l-197 -311zM219 743l10 127l31 109l170 12l66 -12l-11 -125l-32 -111l-170 -10z" />
<glyph unicode="&#x3c;" d="M102 524v123l1065 475v-170l-866 -364l866 -365v-172z" />
<glyph unicode="=" d="M106 229v146h1055v-146h-1055zM106 629v145h1055v-145h-1055z" />
<glyph unicode="&#x3e;" d="M102 51v172l867 365l-867 364v170l1065 -475v-123z" />
<glyph unicode="?" horiz-adv-x="851" d="M131 2l10 127l31 107l170 12l66 -12l-11 -125l-32 -109l-170 -12zM238 1319l368 135q124 0 215.5 -90t91.5 -227q0 -135 -78.5 -228t-232.5 -159l-133 -56l-82 -243h-113l41 241l174 99q86 48 130.5 127t44.5 167t-36.5 164t-105.5 92l-96 -30l-35 -152h-151z" />
<glyph unicode="@" horiz-adv-x="1904" d="M154 504q0 299 195.5 533t518.5 333l191 60q186 0 336 -45.5t247 -126.5t149 -190.5t52 -238.5q0 -131 -51.5 -251.5t-135.5 -206t-196 -136.5t-229 -51l-121 127l90 240l-5 -7q-5 -6 -15.5 -19.5t-26 -33t-40.5 -50.5t-55 -67t-73 -87t-92 -107q-121 0 -210 81.5 t-89 209.5q0 171 99.5 311t267.5 215l223 101l246 -137l-168 -699q52 3 108 28.5t109.5 74t96 112t68 150.5t25.5 182q0 109 -40.5 203.5t-113.5 163.5t-181.5 109t-237.5 40q-106 0 -213 -36.5t-201.5 -106.5t-168 -164.5t-116.5 -219.5t-43 -261q0 -131 39 -239.5 t105 -182t155.5 -124.5t189.5 -74t208 -23q76 0 157.5 18.5t124 34.5t103.5 43l34 -64q-112 -57 -250 -102t-237 -57q-183 0 -338.5 55.5t-262.5 153t-167.5 234t-60.5 294.5zM791 532q0 -82 39.5 -127t107.5 -45l233 261l66 245l-156 107q-82 -35 -141.5 -90t-90 -117.5 t-44.5 -120t-14 -113.5z" />
<glyph unicode="A" horiz-adv-x="1388" d="M-43 -2v82l147 22l756 1319l195 49l137 -1368l143 -22l-20 -82l-301 6l-254 -6l2 82l166 26l-33 367h-453l-202 -367l166 -26l-23 -82l-215 6zM498 578h387l-45 499l6 144z" />
<glyph unicode="B" horiz-adv-x="1224" d="M-20 -2l2 82l178 26l194 1229l-168 21l21 80l270 -6l365 6h7q87 0 155 -23q72 -24 114.5 -65t65 -91t22.5 -104q0 -109 -77 -200.5t-218 -139.5l-112 -37q182 -15 287.5 -106.5t105.5 -220.5q0 -64 -21 -119t-54 -94.5t-84 -74t-100 -58t-112 -46.5l-170 -59l-399 6z M410 119h329q187 121 187 313q0 123 -68 198t-209 75h-147zM518 801h105q72 0 135 29.5t103.5 77t63.5 106t23 116.5q0 86 -51 147.5t-149 61.5h-144z" />
<glyph unicode="C" horiz-adv-x="1290" d="M100 588q0 99 18 193t61 189t108 175.5t164.5 149t224.5 112.5l192 68q138 0 250 -45.5t182 -106.5l-8 -317h-118l-48 198q-105 108 -358 148q-195 -90 -296 -274.5t-101 -438.5q0 -130 32.5 -234.5t89 -171.5t128.5 -104.5t155 -44.5q76 31 126.5 61t101.5 76l122 240 h123l-86 -361l-481 -137q-269 0 -425.5 168t-156.5 457z" />
<glyph unicode="D" horiz-adv-x="1394" d="M-18 -2v82l174 26l196 1229l-172 21l23 80l289 -6l339 6h9q252 0 400 -162q152 -166 151 -440q0 -118 -34 -230t-103.5 -217t-187.5 -192t-273 -140l-164 -57l-365 6zM408 125h331q164 92 271.5 268.5t107.5 409.5q0 247 -107 386.5t-268 147.5h-143z" />
<glyph unicode="E" horiz-adv-x="1228" d="M-20 -2l2 82l176 26l194 1223l-170 27l23 80l280 -6l775 6v-365h-86l-95 252l-479 6l-82 -528l262 8l127 217h74l-74 -274l-16 -275h-76l-51 217l-262 8l-96 -598l530 7l160 276h92l-94 -389l-836 6z" />
<glyph unicode="F" horiz-adv-x="1163" d="M-20 -2l2 82l176 26l194 1223l-170 27l23 80l280 -6l775 6v-371h-86l-95 258l-479 6l-86 -557l262 8l127 215h74l-74 -274l-16 -275h-76l-51 218l-262 8l-92 -568l249 -24l-22 -82l-363 6z" />
<glyph unicode="G" horiz-adv-x="1374" d="M70 573q0 99 21 195.5t69 194.5t119 181.5t178.5 155t240.5 115.5l170 55q133 0 244.5 -44.5t175.5 -104.5l-2 -305h-119l-51 190q-51 58 -146.5 101.5t-197.5 44.5q-430 -200 -430 -719q0 -133 31 -236.5t86 -168.5t125 -101t153 -43q110 35 187 88l61 391l-168 27 l23 80l278 -2l246 6v-84l-131 -27l-70 -450l-510 -150q-269 0 -426 162t-157 448z" />
<glyph unicode="H" horiz-adv-x="1452" d="M-20 -2l2 82l174 26l194 1221l-168 27l23 82l289 -6l274 6l-2 -82l-164 -27l-86 -530h535l84 530l-160 27l22 82l283 -6l279 6l-3 -82l-170 -27l-194 -1221l162 -26l-23 -82l-276 6l-287 -6l2 82l170 26l94 582h-534l-92 -582l155 -26l-22 -82l-275 6z" />
<glyph unicode="I" horiz-adv-x="671" d="M-18 -2l4 82l174 26l194 1221l-168 27l23 82l289 -6l278 6l-2 -82l-170 -27l-196 -1221l161 -26l-22 -82l-283 6z" />
<glyph unicode="J" horiz-adv-x="684" d="M-166 -358l39 188h215q45 66 68 139.5t41 200.5l184 1157l-180 27l22 82l295 -6l285 6l-4 -82l-170 -27l-180 -1132q-20 -131 -67 -213t-140 -152l-240 -188h-168z" />
<glyph unicode="K" horiz-adv-x="1435" d="M-20 -2l4 82l176 26l192 1221l-168 27l23 82l289 -6l258 6l-2 -82l-150 -27l-86 -539l57 33l555 506l-133 27l17 82l237 -6l217 6v-82l-176 -27l-598 -530l62 -35l499 -653l103 -29l-23 -82l-157 6l-172 -6l-467 680l-27 67l-102 -639l141 -26l-23 -82l-262 6z" />
<glyph unicode="L" horiz-adv-x="1157" d="M-20 -2l2 82l176 26l194 1221l-170 27l25 82l270 -6l303 6l-2 -82l-178 -27l-194 -1223l456 7l191 284h92l-125 -397l-762 6z" />
<glyph unicode="M" horiz-adv-x="1800" d="M-20 -2l2 82l161 26l193 1211l-174 37l22 82l230 -6l254 6l206 -1065l-8 -142l582 1207l223 -6l236 6l-4 -82l-170 -27l-195 -1221l154 -26l-23 -82l-258 6l-291 -6v82l178 26l162 1006l64 229l-658 -1341h-157l-220 1114l-20 223l-184 -1231l159 -26l-20 -82l-219 6z " />
<glyph unicode="N" horiz-adv-x="1441" d="M-20 -2l2 82l174 26l192 1211l-162 37l23 82l186 -6l174 6l496 -949l31 -182l147 1022l-160 27l23 82l213 -6l237 6l-2 -82l-178 -27l-209 -1327h-143l-537 1057l-22 188l-174 -1139l170 -26l-23 -82l-227 6z" />
<glyph unicode="O" horiz-adv-x="1447" d="M100 590q0 100 20 197t65.5 194.5t113 179t169.5 149.5t228 107l170 53q263 0 416.5 -169t153.5 -457q0 -100 -20 -197t-65.5 -194.5t-113 -179.5t-169.5 -150t-228 -107l-170 -53q-264 0 -417 169.5t-153 457.5zM371 618q0 -241 105 -376.5t276 -161.5q195 81 303 278 t108 457q0 241 -105 377t-276 162q-194 -81 -302.5 -278.5t-108.5 -457.5z" />
<glyph unicode="P" horiz-adv-x="1183" d="M-20 -2l2 82l176 26l196 1227l-172 21l25 82l280 -6l363 6h9q183 0 291 -83q112 -85 112 -231q0 -162 -113.5 -267t-353.5 -193l-131 -50h-177l-81 -506l245 -26l-22 -82l-369 6zM508 745h287q89 53 142.5 142t53.5 198q0 119 -57 185.5t-172 70.5h-158z" />
<glyph unicode="Q" horiz-adv-x="1447" d="M100 590q0 100 20 197t65.5 194.5t113 179t169.5 149.5t228 107l170 53q263 0 416.5 -169t153.5 -457q0 -100 -20 -197t-65.5 -194.5t-113 -179.5t-169.5 -150t-228 -107l-82 -24l188 -68l178 -153l127 -43l-2 -68h-311l-315 305q-244 15 -383.5 182t-139.5 443zM371 618 q0 -241 105 -376.5t276 -161.5q195 81 303 278t108 457q0 241 -105 377t-276 162q-194 -81 -302.5 -278.5t-108.5 -457.5z" />
<glyph unicode="R" horiz-adv-x="1345" d="M-20 -2l2 82l176 26l196 1227l-172 21l25 82l280 -6l363 6h13q179 0 287 -82q112 -86 112 -224q0 -145 -93.5 -239.5t-283.5 -167.5l-115 -43l158 -84l239 -490l107 -28l-17 -80l-188 6l-141 -6l-279 631l-24 22h-131l-88 -545l184 -26l-23 -82l-307 6zM512 782h270 q96 47 152.5 129t56.5 193q0 108 -57.5 170.5t-171.5 66.5h-158z" />
<glyph unicode="S" horiz-adv-x="1052" d="M31 88l51 303h139v-172q54 -57 145.5 -100t178.5 -43q96 28 144 92t48 151q0 60 -21 108.5t-50 78t-80 69.5l-205 164q-88 68 -134 141t-46 169q0 117 80 203.5t241 148.5l187 69q249 0 393 -108l-53 -297h-119l-15 186q-121 108 -276 111q-193 -61 -193 -207 q0 -72 37 -121t117 -114l195 -156q44 -35 73 -64.5t59 -72t45 -96.5t15 -119q0 -124 -80.5 -222t-222.5 -151l-205 -76q-136 0 -255 35t-193 90z" />
<glyph unicode="T" horiz-adv-x="1230" d="M135 1053l58 383l579 -6l569 6l-55 -383h-92l-49 272l-268 6l-197 -1225l178 -26l-22 -82l-299 6l-297 -6l2 82l190 26l195 1225l-265 -6l-135 -272h-92z" />
<glyph unicode="U" horiz-adv-x="1386" d="M160 1354l22 82l275 -6l297 6l-2 -82l-168 -27l-144 -862q-6 -37 -6 -72q0 -59 18 -113q30 -84 108 -137t192 -53q86 34 137 74.5t88.5 116t56.5 196.5l137 850l-180 27l23 82l243 -6l252 6l-2 -82l-180 -27l-133 -840q-15 -93 -40.5 -162t-73 -132.5t-126.5 -109.5 t-192 -77l-158 -43q-421 0 -421 389q0 66 12 144l133 831z" />
<glyph unicode="V" horiz-adv-x="1325" d="M160 1354l22 82l299 -6l246 6l-2 -82l-168 -27l168 -975l-23 -141l494 1116l-166 27l23 82l229 -6l168 6l-2 -82l-102 -23l-619 -1319l-162 -49l-262 1368z" />
<glyph unicode="W" horiz-adv-x="1921" d="M156 1354l22 82l301 -6l215 6l-2 -82l-137 -27l133 -983l-24 -129l352 893l-33 223l-113 23l23 82l270 -6l250 6l-2 -82l-172 -27l133 -983l-24 -129l450 1112l-178 27l22 82l240 -6l166 6l-2 -82l-102 -23l-572 -1319l-172 -49l-141 901l10 117l-381 -969l-172 -49 l-217 1368z" />
<glyph unicode="X" horiz-adv-x="1388" d="M-41 -2l2 82l129 26l524 599l-342 626l-114 23l22 82l236 -6l313 6l-2 -82l-168 -27l211 -412l2 -81l426 493l-160 27l21 82l258 -6l164 6l-2 -82l-115 -23l-512 -575l352 -650l105 -26l-21 -82l-225 6l-320 -6l2 82l168 26l-219 437v86l-430 -523l152 -26l-23 -82 l-250 6z" />
<glyph unicode="Y" horiz-adv-x="1310" d="M160 1354l20 82l252 -6l283 6v-82l-168 -27l225 -555v-96l414 651l-162 27l20 82l230 -6l166 6l-2 -82l-109 -25l-493 -749l-74 -474l225 -26l-22 -82l-349 6l-346 -6l2 82l242 26l74 476l-314 747z" />
<glyph unicode="Z" horiz-adv-x="1107" d="M-25 90l873 1170l119 77l-572 -16l-139 -264h-84l61 377h934l33 -86l-876 -1174l-113 -72l596 11l207 311h92l-139 -424h-990z" />
<glyph unicode="[" horiz-adv-x="688" d="M20 -471q136 767 185 1051l155 884l168 -6l269 6l-15 -82l-280 -20q-80 -402 -146 -772q-36 -197 -75.5 -437t-61.5 -381l-22 -141l272 -20l-14 -82l-265 6z" />
<glyph unicode="\" horiz-adv-x="882" d="M197 1470h120l586 -1941h-121z" />
<glyph unicode="]" horiz-adv-x="688" d="M-109 -471l15 82l278 20q101 516 181 959q29 165 60 358t47 304l17 110l-272 20l14 82l265 -6l172 6q-131 -730 -160 -886l-182 -1049l-168 6z" />
<glyph unicode="^" horiz-adv-x="780" d="M143 942l275 502h92l229 -502h-186l-100 289l-123 -289h-187z" />
<glyph unicode="_" horiz-adv-x="1146" d="M-82 -242l21 123h1136l-20 -123h-1137z" />
<glyph unicode="`" horiz-adv-x="1024" d="M385 1481h231l23 -357h-94z" />
<glyph unicode="a" horiz-adv-x="1036" d="M74 356q0 191 96.5 335.5t280.5 234.5l155 75q127 -3 350 -86l-139 -788l168 106l39 -53l-299 -211l-137 70l20 117l39 94l-311 -281q-262 69 -262 387zM307 424q0 -96 33 -165.5t84 -106.5l213 167l86 486q-41 27 -112 44t-128 17q-78 -73 -127 -186.5t-49 -255.5z" />
<glyph unicode="b" horiz-adv-x="1005" d="M76 66l223 1265l-193 -51l-26 68l377 116l67 -57l-98 -571l-43 -97l324 262q118 -24 189 -118.5t71 -255.5q0 -197 -98 -357t-277 -233l-158 -68q-195 13 -358 97zM311 186q53 -33 121.5 -56.5t122.5 -23.5q88 51 133 174.5t45 254.5q0 115 -31.5 187.5t-78.5 94.5 l-228 -149z" />
<glyph unicode="c" horiz-adv-x="872" d="M76 362q0 191 107.5 341t310.5 237l135 61q50 -3 119 -25t122 -52l-116 -191q-107 75 -244 129q-96 -58 -147.5 -167.5t-51.5 -248.5q0 -246 209 -307q154 71 236 125l41 -53q-103 -82 -269 -180l-100 -62q-151 3 -251.5 108t-100.5 285z" />
<glyph unicode="d" horiz-adv-x="1079" d="M76 362q0 186 89.5 331.5t266.5 228.5l170 79q66 -3 164 -32l63 364l-190 -53l-25 68l377 116l66 -57l-228 -1280l170 109l39 -54l-299 -213l-137 74l21 117l41 92l-314 -283q-274 64 -274 393zM311 424q0 -197 121 -270l219 174l86 485q-44 24 -119.5 39.5t-132.5 15.5 q-82 -67 -128 -190t-46 -254z" />
<glyph unicode="e" horiz-adv-x="905" d="M76 350q0 197 107.5 359.5t299.5 232.5l164 59q219 -44 219 -225q0 -78 -32 -178l-521 -160v-39q4 -110 62.5 -177.5t140.5 -82.5q134 54 256 129l39 -55q-182 -126 -301 -188l-102 -56q-143 9 -237.5 114t-94.5 267zM317 512l299 119q21 71 21 117q0 63 -29.5 99 t-75.5 44q-94 -47 -146.5 -147.5t-68.5 -231.5z" />
<glyph unicode="f" horiz-adv-x="675" d="M-262 -481l39 194h229q31 35 52.5 84t27.5 92l166 945h-199l10 38l87 76h122l15 94q36 197 151 269l256 153h191l-35 -176h-256q-30 -28 -51.5 -74t-26.5 -86l-33 -188h228l-23 -106h-225l-152 -881q-31 -175 -186 -277l-240 -157h-147z" />
<glyph unicode="g" horiz-adv-x="1019" d="M39 -481l33 194h393q45 35 82 103t49 143l33 199l39 94l-308 -283q-276 60 -276 393q0 184 93.5 331t275.5 233l157 75q74 0 181 -25.5t188 -66.5l-174 -970q-12 -70 -74.5 -133t-187.5 -152l-189 -135h-315zM319 424q0 -200 119 -272l221 170l86 481q-43 30 -113 48.5 t-136 18.5q-84 -66 -130.5 -190t-46.5 -256z" />
<glyph unicode="h" horiz-adv-x="1089" d="M86 0l236 1333l-191 -53l-25 68l377 116l66 -57l-100 -573l-33 -70l358 237q122 -1 174 -67q37 -47 38 -116q0 -28 -7 -60l-113 -629l168 107l39 -54l-299 -213l-137 72l113 645q5 26 5 46q0 77 -67 77q-72 0 -172 -70l-94 -61l-121 -678h-215z" />
<glyph unicode="i" horiz-adv-x="608" d="M66 848l348 153l84 -81l-140 -791l168 107l39 -54l-299 -213l-137 72l143 811l-182 -64zM330 1202l8 111l41 100l70 12l131 -12v-115l-39 -96l-66 -14z" />
<glyph unicode="j" horiz-adv-x="577" d="M-240 -481l35 194h238q59 74 80 193l168 946l-181 -64l-26 60l348 153l84 -81l-170 -957q-31 -183 -182 -280l-248 -164h-146zM338 1202l6 111l43 100l70 12l129 -12v-115l-39 -96l-66 -14z" />
<glyph unicode="k" horiz-adv-x="1034" d="M86 0l233 1335l-192 -53l-25 66l379 118l66 -57l-146 -829l41 8l361 393h221l-49 -221h-150q-93 -21 -190 -96l-119 -99l92 -30l213 -406l156 98l37 -53l-293 -205l-109 54l-219 505l-92 -528h-215z" />
<glyph unicode="l" horiz-adv-x="581" d="M104 41l228 1290l-191 -51l-24 68l377 116l65 -57l-225 -1278l170 107l39 -54l-299 -213z" />
<glyph unicode="m" horiz-adv-x="1622" d="M66 848l348 153l84 -79l-19 -91l-30 -65l339 235q114 -1 164 -61q40 -48 40 -123q0 -20 -3 -41l318 225q121 0 171 -66q36 -47 36 -118q0 -28 -5 -59l-112 -633l170 108l37 -53l-297 -211l-140 70l113 645q4 24 4 45q0 25 -6 44q-12 34 -51 34q-56 0 -158 -70l-92 -61 l-123 -676h-213l121 686q4 23 4 43q0 25 -7 45q-13 34 -50 35q-52 0 -158 -68l-96 -63l-121 -678h-215l151 850l-180 -62z" />
<glyph unicode="n" horiz-adv-x="1122" d="M66 848l348 153l84 -79l-19 -91l-30 -65l356 235q121 -1 173 -67q37 -48 38 -118q0 -27 -6 -58l-113 -631l170 106l37 -53l-299 -211l-139 70l114 647q5 27 5 48q-1 24 -7 42q-12 32 -57 33q-72 0 -172 -70l-94 -61l-121 -678h-213l149 850l-180 -62z" />
<glyph unicode="o" horiz-adv-x="1013" d="M76 375q0 192 106.5 343t300.5 230l129 53q154 0 260.5 -109.5t106.5 -299.5q0 -192 -106.5 -344t-299.5 -228l-131 -51q-154 0 -260 108t-106 298zM311 420q0 -155 58 -236.5t155 -101.5q58 24 102.5 76t69.5 118.5t37 135t12 135.5q0 154 -60 236.5t-157 101.5 q-58 -23 -102 -74.5t-68 -118t-35.5 -135t-11.5 -137.5z" />
<glyph unicode="p" horiz-adv-x="1069" d="M41 -471l231 1321l-180 -62l-24 60l346 153l84 -75l-15 -95l-39 -94l322 264q121 -29 190.5 -122.5t69.5 -255.5q0 -194 -99 -353.5t-276 -232.5l-153 -68q-111 16 -168 43l-8 -116l-68 -367h-213zM369 184q137 -78 243 -78q89 51 134 174.5t45 254.5q0 117 -31 187.5 t-80 92.5l-227 -149z" />
<glyph unicode="q" horiz-adv-x="1001" d="M76 348q0 193 100 350.5t283 235.5l149 67q85 -2 188.5 -24.5t174.5 -58.5l-246 -1389h-213l106 608l44 105l-306 -273q-128 26 -204 121t-76 258zM311 436q0 -114 35.5 -184t91.5 -92l213 155l88 504q-92 51 -250 51q-88 -53 -133 -177.5t-45 -256.5z" />
<glyph unicode="r" horiz-adv-x="825" d="M66 848l348 153l69 -69l-26 -166l-68 -231l285 446h176l-51 -225h-103q-102 -63 -196 -176l-80 -97l-86 -483h-215l151 850l-180 -62z" />
<glyph unicode="s" horiz-adv-x="790" d="M10 78l103 172q176 -100 297 -158q79 25 79 109q0 77 -75 139l-183 158q-41 36 -66.5 86.5t-25.5 101.5q0 82 59 142t193 114l139 59q75 -13 248 -92l-102 -176q-53 35 -132.5 77t-140.5 69q-73 -26 -73 -97q0 -33 18 -63.5t62 -69.5l174 -147q100 -87 100 -199 q0 -94 -50.5 -156t-160.5 -102l-209 -76q-52 16 -137.5 52t-116.5 57z" />
<glyph unicode="t" horiz-adv-x="731" d="M74 831l10 39l84 78h117l24 131l183 156h59l-53 -295h250l-23 -109h-246l-121 -702l267 107l30 -58l-389 -209l-139 64l139 798h-192z" />
<glyph unicode="u" horiz-adv-x="1112" d="M59 848l349 153l81 -79l-110 -643q-4 -22 -4 -41q-1 -28 9 -46q16 -30 54 -30q47 0 168 80l92 61l115 668h215l-149 -844l168 106l38 -53l-299 -211l-127 62l17 119l35 71l-355 -252q-120 0 -171 70q-38 52 -38 122q0 25 5 52l112 639l-180 -64z" />
<glyph unicode="v" horiz-adv-x="952" d="M-2 848l352 153l72 -75l4 -721l-20 -111l401 600l-154 187l197 120l92 -108l-45 -258l-467 -666l-207 45l-24 834l-176 -62z" />
<glyph unicode="w" horiz-adv-x="1427" d="M-2 848l346 153l78 -75v-723l-16 -101l292 455l-10 342l223 76v-774l-16 -103l383 594l-150 189l199 120l90 -108l-45 -258l-459 -666l-200 45l-8 299l20 131l-303 -475l-199 45l-24 834l-176 -62z" />
<glyph unicode="x" horiz-adv-x="1038" d="M-2 -10l51 213h123q43 11 80.5 39.5t89.5 93.5l96 121l-123 403l-176 -63l-24 59l327 145l84 -73l72 -250v-98l258 401h207l-51 -213h-103q-40 -12 -73 -38.5t-88 -92.5l-103 -117l119 -391l180 100l37 -53l-299 -207l-113 60l-82 268v90l-282 -397h-207z" />
<glyph unicode="y" horiz-adv-x="987" d="M-18 -481l36 219h179l266 285l-158 -23l-117 844l-168 -60l-30 56l307 161l115 -67l92 -836l336 594l-152 189l199 120l90 -108l-45 -258l-672 -1116h-278z" />
<glyph unicode="z" horiz-adv-x="874" d="M-18 33l700 782l-166 -78l-297 39l-57 -57l-56 12l127 258l547 -59l64 41l55 -41l-666 -746l148 62l326 -58l73 70l56 -16l-134 -277l-565 84l-90 -61z" />
<glyph unicode="{" horiz-adv-x="634" d="M51 522l4 29q41 13 71 31.5t47.5 37.5t30 49.5t17.5 54.5t12 64l66 390q23 128 124 207t234 79h99l-15 -82h-86q-65 0 -117.5 -51t-68.5 -164l-55 -379q-6 -41 -15 -70.5t-29.5 -63.5t-58.5 -63.5t-94 -53.5l133 -107l-119 -604q-23 -113 12 -164t99 -51h86l-14 -82h-103 q-132 0 -203.5 79t-48.5 208l105 583z" />
<glyph unicode="|" horiz-adv-x="843" d="M184 -502l346 1972h129l-346 -1972h-129z" />
<glyph unicode="}" horiz-adv-x="634" d="M-131 -471l14 82h86q63 0 116.5 51t70.5 164l63 438q6 41 15.5 70.5t30 64t59 64t94.5 53.5l-135 107l108 544q24 113 -10 164t-98 51h-88l14 82h104q132 0 202.5 -78.5t47.5 -207.5l-92 -525l113 -123l-4 -28q-41 -13 -71 -31.5t-47.5 -38t-30 -50t-18.5 -54.5t-12 -64 l-77 -448q-23 -128 -124.5 -207.5t-234.5 -79.5h-96z" />
<glyph unicode="~" horiz-adv-x="1501" d="M150 406l108 186l213 65l698 -114l109 110h82l-115 -196l-201 -58l-704 115l-109 -108h-81z" />
<glyph unicode="&#xa1;" horiz-adv-x="544" d="M2 -502l119 568l123 405h96l-23 -403l-86 -570h-229zM211 717l10 125l33 108l170 13l63 -13l-10 -127l-31 -106l-172 -12z" />
<glyph unicode="&#xa2;" horiz-adv-x="913" d="M90 362q0 191 107.5 341t310.5 237l12 6l33 180h129l-25 -127q108 -10 228 -75l-117 -191q-107 75 -244 129q-96 -58 -147 -167t-51 -249q0 -246 209 -307q151 69 235 125l41 -53q-105 -85 -268 -180l-74 -45l-25 -150h-127l21 150q-112 34 -180 131.5t-68 244.5z" />
<glyph unicode="&#xa3;" horiz-adv-x="1175" d="M27 0l4 72l207 92l86 481h-181l9 43l79 76h113l53 313q25 136 109 218.5t248 129.5l147 45q50 -14 123.5 -47.5t120.5 -68.5l-129 -160q-41 44 -116 93t-124 59q-58 -33 -94.5 -105.5t-50.5 -155.5l-58 -321h349l-21 -119h-348l-64 -369l-106 -170l479 7l111 204h123 l-109 -317l-678 6z" />
<glyph unicode="&#xa4;" d="M213 346l135 115q-59 110 -35 256q27 156 146 278l-101 123l111 94l102 -127q132 82 273 82q133 0 241 -80l144 121l78 -96l-140 -119q73 -124 47 -276q-23 -135 -127 -258l91 -107l-111 -94l-86 104q-142 -96 -297 -96t-260 94l-131 -110zM422 717q-25 -141 58.5 -241.5 t224.5 -100.5t258.5 100.5t142.5 241.5t-57.5 241.5t-223.5 100.5t-259.5 -100.5t-143.5 -241.5z" />
<glyph unicode="&#xa5;" horiz-adv-x="1327" d="M137 1354l23 82l250 -6l284 6l-2 -82l-168 -27l226 -555v-96l415 651l-164 27l23 82l227 -6l166 6l-2 -82l-106 -25l-496 -749l-4 -23h319l-16 -98h-319l-15 -101h316l-19 -98h-313l-23 -154l228 -26l-23 -82l-350 6l-346 -6l2 82l242 26l22 154h-289l17 98h288l15 101 h-285l16 98h285l4 25l-313 747z" />
<glyph unicode="&#xa6;" horiz-adv-x="841" d="M184 -502l154 881h127l-154 -881h-127zM377 590l153 880h127l-153 -880h-127z" />
<glyph unicode="&#xa7;" horiz-adv-x="1081" d="M31 -281l133 144q43 -50 143 -135.5t154 -114.5l26 20q97 72 97 183q0 94 -50.5 166t-179.5 186q-35 31 -45 40t-39.5 36t-38 36.5t-31 33t-29.5 35.5t-22.5 34t-20.5 38t-12.5 37.5t-9.5 43t-2 45.5q0 109 68.5 197.5t175.5 136.5q-23 36 -38 84t-15 90q0 140 82.5 233 t253.5 142l141 38q56 -20 135.5 -79t122.5 -105l-149 -121q-38 48 -114.5 109.5t-131.5 83.5l-33 -23q-44 -31 -70 -82t-26 -110q0 -78 41.5 -150t146.5 -160l293 -243v-74q0 -39 -5.5 -75t-12.5 -63.5t-23 -55.5t-26.5 -46t-34.5 -41t-35.5 -33.5t-40.5 -30.5t-39 -26.5 t-41 -25.5q30 -37 48 -97t18 -112q0 -272 -267 -350l-206 -60q-67 27 -154 96t-137 125zM297 637q0 -73 52 -141.5t177 -178.5q12 -12 72 -63t78 -72q54 46 84.5 99t30.5 131v49l-226 186q-120 101 -178 178q-90 -81 -90 -188z" />
<glyph unicode="&#xa8;" horiz-adv-x="1024" d="M221 1196l8 107l39 86l82 12l94 -12l-2 -103l-39 -90l-75 -12zM578 1196l8 107l39 86l80 12l96 -12l-2 -103l-39 -90l-78 -12z" />
<glyph unicode="&#xa9;" horiz-adv-x="1705" d="M143 729q0 158 53.5 286.5t152.5 218.5t235 147.5t307 82.5q151 -2 286.5 -54t239 -146.5t164.5 -239t61 -319.5q0 -158 -53 -286.5t-152.5 -218.5t-235 -148t-306.5 -83q-151 2 -286.5 54t-239.5 147t-165 239.5t-61 319.5zM279 729q0 -132 40 -245t104 -189 t145.5 -130.5t163.5 -79t159 -24.5q123 0 234 44.5t196 125t135.5 203.5t50.5 271q0 132 -40 245t-104 189t-145.5 130t-163.5 78.5t-159 24.5q-123 0 -234 -44t-196 -124.5t-135.5 -203.5t-50.5 -271zM483 700q0 377 457 445q83 0 158 -25.5t125 -58.5v-180h-78l-37 108 q-65 82 -184 82q-120 0 -193.5 -88t-73.5 -248q0 -98 33.5 -181.5t100 -136t153.5 -52.5t158 67l61 135h76l-27 -190q-169 -70 -299 -88q-85 0 -161.5 27.5t-137 78t-96 129.5t-35.5 176z" />
<glyph unicode="&#xaa;" horiz-adv-x="890" d="M84 942q0 152 85.5 267.5t242.5 185.5l125 61q111 -3 303 -70l-129 -620l131 78l32 -49l-239 -168l-127 55l16 92l35 80l-260 -227q-215 53 -215 315zM276 995q0 -67 26 -122.5t60 -86.5l189 136l76 376q-32 22 -88 36t-103 14q-68 -60 -114 -151t-46 -202z" />
<glyph unicode="&#xab;" horiz-adv-x="1067" d="M72 481l450 451h131l-340 -453l183 -448h-134zM475 481l451 451h131l-340 -453l182 -448h-133z" />
<glyph unicode="&#xac;" d="M106 625v143h1055v-399h-143v256h-912z" />
<glyph unicode="&#xad;" horiz-adv-x="710" d="M41 504l25 135h593l-24 -135h-594z" />
<glyph unicode="&#xae;" horiz-adv-x="1218" d="M154 899q0 214 137.5 341.5t376.5 162.5q142 -1 258.5 -61t189 -179.5t72.5 -279.5q0 -214 -137.5 -341.5t-378.5 -162.5q-104 1 -197.5 36.5t-165 100.5t-113.5 164t-42 219zM246 899q0 -91 27.5 -169t72 -130.5t100.5 -90.5t112.5 -55.5t109.5 -17.5q85 0 162.5 31 t136.5 87t94 141.5t35 187.5q0 91 -27.5 169.5t-72 131t-101 90.5t-113.5 55t-110 17q-114 0 -210 -52t-156 -155.5t-60 -239.5zM397 659l66 9v454l-66 8l4 41l127 -2l193 2q79 0 130.5 -36.5t51.5 -100.5q0 -58 -51.5 -94t-134.5 -51l94 -41l123 -178l39 -11l-2 -43l-97 2 l-69 -2l-162 244l-10 8h-35v-200l61 -9l-4 -43l-125 2l-129 -2zM598 920h53q46 0 77.5 28.5t31.5 79.5q0 49 -29 75.5t-74 26.5l-59 -6v-204z" />
<glyph unicode="&#xaf;" horiz-adv-x="1024" d="M209 1229l20 127h584l-20 -127h-584z" />
<glyph unicode="&#xb0;" horiz-adv-x="841" d="M236 1225q0 124 78.5 195t240.5 122q131 0 224 -93t93 -224t-75 -206.5t-242 -113.5q-130 0 -224.5 94.5t-94.5 225.5zM360 1225q0 -78 58 -136.5t137 -58.5q78 0 135.5 58.5t57.5 136.5q0 79 -57.5 135.5t-135.5 56.5q-80 0 -137.5 -56.5t-57.5 -135.5z" />
<glyph unicode="&#xb1;" d="M98 0v143h1065v-143h-1065zM98 729v143h457v465h143v-465h455v-143h-455v-446h-143v446h-457z" />
<glyph unicode="&#xb2;" horiz-adv-x="737" d="M106 872l261 228q115 93 178 173.5t63 164.5q0 51 -24 82t-66 32l-69 -22l-58 -133h-121l19 141l289 88q112 0 169.5 -45.5t57.5 -130.5q0 -192 -326 -381l-239 -149l215 45h290v-54l-57 -94h-559z" />
<glyph unicode="&#xb3;" horiz-adv-x="638" d="M104 815l27 148h281q80 56 80 133q0 44 -39 70t-119 26l-12 41l55 22q75 31 118.5 85t43.5 120q0 39 -19.5 62.5t-50.5 25.5l-72 -18l-57 -125h-137l18 137l301 84q209 0 209 -143q0 -80 -68 -130.5t-169 -76.5q100 -7 151 -50.5t51 -101.5q0 -25 -6 -47t-15 -40t-25 -35 t-30.5 -29t-38 -25.5t-40 -21.5t-45 -18.5t-44 -16t-45.5 -15.5l-42 -14l-125 -47h-136z" />
<glyph unicode="&#xb4;" horiz-adv-x="1024" d="M313 1124l156 357h240l-295 -357h-101z" />
<glyph unicode="&#xb5;" d="M106 -471l250 1442h215l-118 -692q-10 -57 5.5 -87t53.5 -30q48 0 166 78l94 63l117 668h213l-148 -838l168 100l39 -53l-299 -213l-127 64l15 119l34 71l-354 -254q-73 0 -123 29l6 -64l45 -403h-252z" />
<glyph unicode="&#xb6;" horiz-adv-x="1069" d="M88 1090q0 40 16.5 79t41.5 70t69 67.5t82.5 63t99.5 64.5h584v-109l-107 -20v-1631h-133v1631h-211v-1631h-135v1139q-132 0 -219.5 75.5t-87.5 201.5z" />
<glyph unicode="&#xb7;" horiz-adv-x="911" d="M362 707l13 127l31 108l169 12l64 -12l-8 -125l-33 -110l-170 -11z" />
<glyph unicode="&#xb8;" horiz-adv-x="1024" d="M289 -498l59 88h160q32 19 49.5 53t17.5 70q0 63 -48 93t-113 30l176 205l63 -33l-86 -104q70 0 118 -36t48 -101q0 -149 -219 -228l-104 -37h-121z" />
<glyph unicode="&#xb9;" horiz-adv-x="632" d="M137 815l6 66l176 18l111 551l21 33l-68 -35l-117 -21l-16 66l299 119h98l-139 -713l172 -18l-18 -66l-256 4z" />
<glyph unicode="&#xba;" horiz-adv-x="878" d="M100 952q0 151 91 273t253 186l105 43q130 0 219.5 -88.5t89.5 -241.5t-89.5 -274t-252.5 -184l-104 -41q-131 0 -221.5 86.5t-90.5 240.5zM309 987q0 -121 46 -185.5t122 -80.5q59 23 99 88t55.5 136.5t15.5 144.5q0 121 -46.5 186t-121.5 80q-58 -23 -98 -87.5 t-56 -136.5t-16 -145z" />
<glyph unicode="&#xbb;" horiz-adv-x="1112" d="M63 31l338 448l-180 453h131l295 -451l-450 -450h-134zM467 31l338 448l-180 453h131l295 -451l-451 -450h-133z" />
<glyph unicode="&#xbc;" horiz-adv-x="1685" d="M104 643l7 66l176 20l110 549l21 35l-68 -37l-119 -21l-14 66l299 119h98l-139 -711l170 -20l-16 -66l-256 4zM254 -102l1067 1556h133l-1063 -1556h-137zM920 330l460 479h179l-13 -72l-522 -401l92 37h166l16 78l148 104h37l-39 -182h153l-22 -127h-152l-49 -246h-162 l48 246h-304z" />
<glyph unicode="&#xbd;" horiz-adv-x="1703" d="M104 643l7 66l176 20l110 549l21 35l-68 -37l-119 -21l-14 66l299 119h98l-139 -711l170 -20l-16 -66l-256 4zM254 -102l1067 1556h133l-1063 -1556h-137zM907 55l260 228q114 93 177 174t63 164q0 51 -24 82t-66 32l-70 -22l-57 -133h-121l18 141l289 90 q113 0 170.5 -46.5t57.5 -131.5q0 -195 -326 -381l-240 -150l215 45h291v-53l-57 -94h-559z" />
<glyph unicode="&#xbe;" horiz-adv-x="1638" d="M111 643l26 148h281q80 58 80 133q0 44 -39 70t-119 26l-14 41l57 22q75 31 118.5 85t43.5 120q0 39 -19.5 62.5t-52.5 25.5l-72 -18l-55 -125h-137l18 137l301 86q108 0 157.5 -39.5t49.5 -105.5q0 -80 -68 -130.5t-169 -76.5q101 -7 152.5 -50.5t51.5 -101.5 q0 -25 -6 -47t-15 -40t-25 -35t-30.5 -29t-38 -25.5t-40 -21.5t-45 -18.5t-44 -16t-45.5 -15.5l-42 -14l-125 -47h-135zM215 -102l1067 1556h133l-1063 -1556h-137zM879 330l462 479h177l-13 -72l-522 -401l92 37h166l16 78l148 104h37l-37 -182h151l-22 -127h-152l-47 -246 h-161l45 246h-304z" />
<glyph unicode="&#xbf;" horiz-adv-x="786" d="M-23 -184q0 135 79 228t233 159l133 55l82 244h112l-41 -242l-174 -98q-85 -47 -129.5 -127t-44.5 -168t36.5 -164t105.5 -92l96 31l35 151h151l2 -160l-368 -135q-124 0 -216 90.5t-92 227.5zM483 717l11 125l32 108l170 13l64 -13l-10 -127l-31 -106l-170 -12z" />
<glyph unicode="&#xc0;" horiz-adv-x="1388" d="M-43 -2v82l147 22l756 1319l195 49l137 -1368l143 -22l-20 -82l-301 6l-254 -6l2 82l166 26l-33 367h-453l-202 -367l166 -26l-23 -82l-215 6zM498 578h387l-45 499l6 144zM727 1847h248l43 -274h-107z" />
<glyph unicode="&#xc1;" horiz-adv-x="1388" d="M-43 -2v82l147 22l756 1319l195 49l137 -1368l143 -22l-20 -82l-301 6l-254 -6l2 82l166 26l-33 367h-453l-202 -367l166 -26l-23 -82l-215 6zM498 578h387l-45 499l6 144zM909 1573l129 274h269l-285 -274h-113z" />
<glyph unicode="&#xc2;" horiz-adv-x="1388" d="M-43 -2v82l147 22l756 1319l195 49l137 -1368l143 -22l-20 -82l-301 6l-254 -6l2 82l166 26l-33 367h-453l-202 -367l166 -26l-23 -82l-215 6zM498 578h387l-45 499l6 144zM692 1573l240 274h192l142 -274h-125l-137 147l-185 -147h-127z" />
<glyph unicode="&#xc3;" horiz-adv-x="1388" d="M-43 -2v82l147 22l756 1319l195 49l137 -1368l143 -22l-20 -82l-301 6l-254 -6l2 82l166 26l-33 367h-453l-202 -367l166 -26l-23 -82l-215 6zM498 578h387l-45 499l6 144zM676 1585l90 207l147 45l304 -119l94 115h51l-94 -217l-142 -35l-305 117l-92 -113h-53z" />
<glyph unicode="&#xc4;" horiz-adv-x="1388" d="M-43 -2v82l147 22l756 1319l195 49l137 -1368l143 -22l-20 -82l-301 6l-254 -6l2 82l166 26l-33 367h-453l-202 -367l166 -26l-23 -82l-215 6zM498 578h387l-45 499l6 144zM676 1589l8 113l41 88l80 10l102 -10l-2 -102l-39 -99l-84 -12zM1114 1589l8 113l39 88l82 10 l100 -10l-2 -102l-36 -99l-86 -12z" />
<glyph unicode="&#xc5;" horiz-adv-x="1388" d="M-43 -2v82l147 22l756 1319l195 49l137 -1368l143 -22l-20 -82l-301 6l-254 -6l2 82l166 26l-33 367h-453l-202 -367l166 -26l-23 -82l-215 6zM498 578h387l-45 499l6 144zM756 1718q0 39 13 69.5t31.5 50.5t50.5 37t58.5 26.5t67.5 21.5q221 0 221 -205q0 -35 -9 -62 t-19.5 -43t-35.5 -31t-41 -21t-54 -19t-56 -20q-45 0 -83 9.5t-71.5 31t-53 61t-19.5 94.5zM862 1718q0 -49 33.5 -78.5t83.5 -29.5t83.5 29.5t33.5 78.5q0 50 -34 83.5t-83 33.5t-83 -33.5t-34 -83.5z" />
<glyph unicode="&#xc6;" horiz-adv-x="1830" d="M-43 -2l4 82l148 22l849 1334l183 -6l721 6v-357h-80l-92 242l-439 6l-92 -582l221 9l129 237h64l-78 -297l-18 -303h-62l-53 240l-219 8l-82 -535l469 7l160 284h86l-95 -397l-768 4l-270 -4l2 82l176 26l84 535h-323l-330 -535l166 -26l-25 -82l-223 6zM639 741h283 l98 600z" />
<glyph unicode="&#xc7;" horiz-adv-x="1290" d="M100 588q0 99 18.5 193t61.5 189t108 175.5t165 149t225 112.5l192 68q138 0 250.5 -45.5t182.5 -106.5l-9 -317h-118l-48 198q-105 108 -360 148q-195 -89 -295 -273.5t-100 -439.5q0 -130 32.5 -234.5t89 -171.5t128.5 -104.5t155 -44.5q76 31 126.5 61t101.5 76 l120 240h125l-88 -361l-479 -137l-47 -59q69 0 117.5 -36.5t48.5 -100.5q0 -149 -221 -228l-105 -37h-121l60 88h162q31 19 48 53.5t17 69.5q0 63 -48 93t-112 30l113 133q-231 26 -363.5 191t-132.5 428z" />
<glyph unicode="&#xc8;" horiz-adv-x="1228" d="M-20 -2l2 82l176 26l194 1223l-170 27l23 80l280 -6l775 6v-365h-86l-95 252l-479 6l-82 -528l262 8l127 217h74l-74 -274l-16 -275h-76l-51 217l-262 8l-96 -598l530 7l160 276h92l-94 -389l-836 6zM569 1847h248l43 -274h-106z" />
<glyph unicode="&#xc9;" horiz-adv-x="1228" d="M-20 -2l2 82l176 26l194 1223l-170 27l23 80l280 -6l775 6v-365h-86l-95 252l-479 6l-82 -528l262 8l127 217h74l-74 -274l-16 -275h-76l-51 217l-262 8l-96 -598l530 7l160 276h92l-94 -389l-836 6zM711 1573l129 274h268l-285 -274h-112z" />
<glyph unicode="&#xca;" horiz-adv-x="1228" d="M-20 -2l2 82l176 26l194 1223l-170 27l23 80l280 -6l775 6v-365h-86l-95 252l-479 6l-82 -528l262 8l127 217h74l-74 -274l-16 -275h-76l-51 217l-262 8l-96 -598l530 7l160 276h92l-94 -389l-836 6zM485 1573l240 274h193l141 -274h-125l-137 147l-185 -147h-127z" />
<glyph unicode="&#xcb;" horiz-adv-x="1228" d="M-20 -2l2 82l176 26l194 1223l-170 27l23 80l280 -6l775 6v-365h-86l-95 252l-479 6l-82 -528l262 8l127 217h74l-74 -274l-16 -275h-76l-51 217l-262 8l-96 -598l530 7l160 276h92l-94 -389l-836 6zM477 1589l8 113l39 88l82 10l101 -10v-102l-39 -99l-84 -12zM915 1589 l9 113l39 88l79 10l103 -10l-2 -102l-37 -99l-86 -12z" />
<glyph unicode="&#xcc;" horiz-adv-x="671" d="M-18 -2l4 82l174 26l194 1221l-168 27l23 82l289 -6l278 6l-2 -82l-170 -27l-196 -1221l161 -26l-22 -82l-283 6zM276 1847h248l43 -274h-106z" />
<glyph unicode="&#xcd;" horiz-adv-x="671" d="M-18 -2l4 82l174 26l194 1221l-168 27l23 82l289 -6l278 6l-2 -82l-170 -27l-196 -1221l161 -26l-22 -82l-283 6zM446 1573l129 274h269l-285 -274h-113z" />
<glyph unicode="&#xce;" horiz-adv-x="671" d="M-18 -2l4 82l174 26l194 1221l-168 27l23 82l289 -6l278 6l-2 -82l-170 -27l-196 -1221l161 -26l-22 -82l-283 6zM225 1573l238 274h192l144 -274h-125l-139 147l-185 -147h-125z" />
<glyph unicode="&#xcf;" horiz-adv-x="671" d="M-18 -2l4 82l174 26l194 1221l-168 27l23 82l289 -6l278 6l-2 -82l-170 -27l-196 -1221l161 -26l-22 -82l-283 6zM225 1597l8 105l39 88l82 10l92 -10v-102l-38 -91l-78 -12zM623 1597l8 105l39 88l80 10l94 -10l-2 -102l-37 -91l-78 -12z" />
<glyph unicode="&#xd0;" horiz-adv-x="1394" d="M-18 -2v82l174 26l94 586h-170l18 105h168l86 538l-172 21l23 80l289 -6l339 6q257 3 408.5 -162.5t151.5 -439.5q0 -118 -34 -230t-103.5 -217t-187.5 -192t-273 -140l-164 -57l-365 6zM408 125h331q164 92 271.5 268.5t107.5 409.5q0 247 -107 386.5t-268 147.5h-143 l-86 -540h240l-19 -105h-237z" />
<glyph unicode="&#xd1;" horiz-adv-x="1441" d="M-20 -2l2 82l174 26l192 1211l-162 37l23 82l186 -6l174 6l496 -949l31 -182l147 1022l-160 27l23 82l213 -6l237 6l-2 -82l-178 -27l-209 -1327h-143l-537 1057l-22 188l-174 -1139l170 -26l-23 -82l-227 6zM569 1585l90 207l148 45l303 -119l94 115h51l-94 -217 l-141 -35l-305 117l-92 -113h-54z" />
<glyph unicode="&#xd2;" horiz-adv-x="1447" d="M100 590q0 100 20 197t65.5 194.5t113 179t169.5 149.5t228 107l170 53q263 0 416.5 -169t153.5 -457q0 -100 -20 -197t-65.5 -194.5t-113 -179.5t-169.5 -150t-228 -107l-170 -53q-264 0 -417 169.5t-153 457.5zM371 618q0 -241 105 -376.5t276 -161.5q195 81 303 278 t108 457q0 241 -105 377t-276 162q-194 -81 -302.5 -278.5t-108.5 -457.5zM639 1847h248l43 -274h-107z" />
<glyph unicode="&#xd3;" horiz-adv-x="1447" d="M100 590q0 100 20 197t65.5 194.5t113 179t169.5 149.5t228 107l170 53q263 0 416.5 -169t153.5 -457q0 -100 -20 -197t-65.5 -194.5t-113 -179.5t-169.5 -150t-228 -107l-170 -53q-264 0 -417 169.5t-153 457.5zM371 618q0 -241 105 -376.5t276 -161.5q195 81 303 278 t108 457q0 241 -105 377t-276 162q-194 -81 -302.5 -278.5t-108.5 -457.5zM829 1573l127 274h269l-283 -274h-113z" />
<glyph unicode="&#xd4;" horiz-adv-x="1447" d="M100 590q0 100 20 197t65.5 194.5t113 179t169.5 149.5t228 107l170 53q263 0 416.5 -169t153.5 -457q0 -100 -20 -197t-65.5 -194.5t-113 -179.5t-169.5 -150t-228 -107l-170 -53q-264 0 -417 169.5t-153 457.5zM371 618q0 -241 105 -376.5t276 -161.5q195 81 303 278 t108 457q0 241 -105 377t-276 162q-194 -81 -302.5 -278.5t-108.5 -457.5zM612 1573l238 274h192l144 -274h-125l-139 147l-185 -147h-125z" />
<glyph unicode="&#xd5;" horiz-adv-x="1447" d="M100 590q0 100 20 197t65.5 194.5t113 179t169.5 149.5t228 107l170 53q263 0 416.5 -169t153.5 -457q0 -100 -20 -197t-65.5 -194.5t-113 -179.5t-169.5 -150t-228 -107l-170 -53q-264 0 -417 169.5t-153 457.5zM371 618q0 -241 105 -376.5t276 -161.5q195 81 303 278 t108 457q0 241 -105 377t-276 162q-194 -81 -302.5 -278.5t-108.5 -457.5zM606 1585l90 207l148 45l303 -119l94 115h51l-94 -217l-143 -35l-305 117l-93 -113h-51z" />
<glyph unicode="&#xd6;" horiz-adv-x="1447" d="M100 590q0 100 20 197t65.5 194.5t113 179t169.5 149.5t228 107l170 53q263 0 416.5 -169t153.5 -457q0 -100 -20 -197t-65.5 -194.5t-113 -179.5t-169.5 -150t-228 -107l-170 -53q-264 0 -417 169.5t-153 457.5zM371 618q0 -241 105 -376.5t276 -161.5q195 81 303 278 t108 457q0 241 -105 377t-276 162q-194 -81 -302.5 -278.5t-108.5 -457.5zM598 1589l8 113l39 88l82 10l100 -10l-2 -102l-39 -99l-84 -12zM1036 1589l8 113l39 88l80 10l103 -10l-2 -102l-39 -99l-84 -12z" />
<glyph unicode="&#xd7;" d="M199 125l336 332l-336 336l100 102l336 -336l334 334l100 -102l-334 -334l334 -332l-102 -100l-332 331l-334 -333z" />
<glyph unicode="&#xd8;" horiz-adv-x="1447" d="M45 -31l182 211q-112 157 -112 410q0 100 20 197t65.5 194.5t113 179t169.5 149.5t228 107l170 53q216 0 362 -118l98 112h121l-153 -178q141 -167 141 -442q0 -100 -20 -197t-65.5 -194.5t-113 -179.5t-169.5 -150t-228 -107l-170 -53q-246 0 -395 146l-119 -140h-125z M385 618q0 -117 29 -223l673 776q-104 154 -290 183q-194 -81 -303 -278.5t-109 -457.5zM453 297q104 -188 313 -217q195 81 303.5 278t108.5 457q0 151 -45 266z" />
<glyph unicode="&#xd9;" horiz-adv-x="1386" d="M160 1354l22 82l275 -6l297 6l-2 -82l-168 -27l-144 -862q-17 -101 12.5 -185.5t107.5 -137t192 -52.5q86 34 137 74.5t88.5 116t56.5 196.5l137 850l-180 27l23 82l243 -6l252 6l-2 -82l-180 -27l-133 -840q-15 -93 -40.5 -162t-73 -132.5t-126.5 -109.5t-192 -77 l-158 -43q-493 0 -409 533l133 831zM651 1847h248l43 -274h-106z" />
<glyph unicode="&#xda;" horiz-adv-x="1386" d="M160 1354l22 82l275 -6l297 6l-2 -82l-168 -27l-144 -862q-17 -101 12.5 -185.5t107.5 -137t192 -52.5q86 34 137 74.5t88.5 116t56.5 196.5l137 850l-180 27l23 82l243 -6l252 6l-2 -82l-180 -27l-133 -840q-15 -93 -40.5 -162t-73 -132.5t-126.5 -109.5t-192 -77 l-158 -43q-493 0 -409 533l133 831zM811 1573l127 274h268l-282 -274h-113z" />
<glyph unicode="&#xdb;" horiz-adv-x="1386" d="M160 1354l22 82l275 -6l297 6l-2 -82l-168 -27l-144 -862q-17 -101 12.5 -185.5t107.5 -137t192 -52.5q86 34 137 74.5t88.5 116t56.5 196.5l137 850l-180 27l23 82l243 -6l252 6l-2 -82l-180 -27l-133 -840q-15 -93 -40.5 -162t-73 -132.5t-126.5 -109.5t-192 -77 l-158 -43q-493 0 -409 533l133 831zM610 1573l238 274h192l144 -274h-125l-139 147l-185 -147h-125z" />
<glyph unicode="&#xdc;" horiz-adv-x="1386" d="M160 1354l22 82l275 -6l297 6l-2 -82l-168 -27l-144 -862q-17 -101 12.5 -185.5t107.5 -137t192 -52.5q86 34 137 74.5t88.5 116t56.5 196.5l137 850l-180 27l23 82l243 -6l252 6l-2 -82l-180 -27l-133 -840q-15 -93 -40.5 -162t-73 -132.5t-126.5 -109.5t-192 -77 l-158 -43q-493 0 -409 533l133 831zM596 1589l8 113l39 88l82 10l102 -10l-2 -102l-39 -99l-84 -12zM1034 1589l8 113l39 88l82 10l101 -10l-2 -102l-37 -99l-86 -12z" />
<glyph unicode="&#xdd;" horiz-adv-x="1310" d="M160 1354l20 82l252 -6l283 6v-82l-168 -27l225 -555v-96l414 651l-162 27l20 82l230 -6l166 6l-2 -82l-109 -25l-493 -749l-74 -474l225 -26l-22 -82l-349 6l-346 -6l2 82l242 26l74 476l-314 747zM793 1573l129 274h268l-285 -274h-112z" />
<glyph unicode="&#xde;" horiz-adv-x="1169" d="M-20 -2l2 82l176 26l194 1221l-170 27l25 84l289 -6l278 6l-4 -84l-170 -27l-29 -186l232 4q188 3 297.5 -83t109.5 -233q0 -163 -112.5 -271t-349.5 -193l-132 -46h-178l-32 -213l206 -26l-22 -82l-328 6zM461 453h287q89 53 142.5 142t53.5 196q0 121 -57 187.5 t-172 70.5h-160z" />
<glyph unicode="&#xdf;" horiz-adv-x="1130" d="M-233 -481l36 194h201q30 35 53 85t31 93l164 943h-199l10 38l87 76h122l15 86q30 197 149 269l271 163q75 -2 134.5 -13t113.5 -36.5t84 -74.5t30 -119q0 -90 -55 -160t-144 -131l-116 -86q-15 -19 -15 -55q0 -48 29 -89.5t98 -101.5q42 -35 62 -53t51.5 -51.5 t46.5 -59.5t27 -63t12 -76q0 -95 -52 -159.5t-173 -106.5l-191 -66q-40 15 -117 58t-104 65l111 158q131 -108 231 -158q46 12 71 45t25 80q0 19 -4.5 37.5t-9 33t-17 33t-19.5 28.5t-26.5 29.5l-27 27t-32.5 30t-32 29.5q-72 65 -106.5 120t-34.5 124q0 65 31 112l102 92 q72 65 112 131t40 150q0 87 -46 127.5t-106 40.5l-26 -15q-64 -46 -102 -101t-54 -140l-199 -1147q-15 -85 -62.5 -157t-121.5 -122l-242 -157h-116z" />
<glyph unicode="&#xe0;" horiz-adv-x="1036" d="M74 356q0 191 96.5 335.5t280.5 234.5l155 75q127 -3 350 -86l-139 -788l168 106l39 -53l-299 -211l-137 70l20 117l39 94l-311 -281q-262 69 -262 387zM307 424q0 -96 33 -165.5t84 -106.5l213 167l86 486q-41 27 -112 44t-128 17q-78 -73 -127 -186.5t-49 -255.5z M520 1481h234l22 -357h-94z" />
<glyph unicode="&#xe1;" horiz-adv-x="1036" d="M74 356q0 191 96.5 335.5t280.5 234.5l155 75q127 -3 350 -86l-139 -788l168 106l39 -53l-299 -211l-137 70l20 117l39 94l-311 -281q-262 69 -262 387zM307 424q0 -96 33 -165.5t84 -106.5l213 167l86 486q-41 27 -112 44t-128 17q-78 -73 -127 -186.5t-49 -255.5z M633 1124l155 357h240l-297 -357h-98z" />
<glyph unicode="&#xe2;" horiz-adv-x="1036" d="M74 356q0 191 96.5 335.5t280.5 234.5l155 75q127 -3 350 -86l-139 -788l168 106l39 -53l-299 -211l-137 70l20 117l39 94l-311 -281q-262 69 -262 387zM307 424q0 -96 33 -165.5t84 -106.5l213 167l86 486q-41 27 -112 44t-128 17q-78 -73 -127 -186.5t-49 -255.5z M436 1124l250 357h158l123 -357h-101l-133 197l-196 -197h-101z" />
<glyph unicode="&#xe3;" horiz-adv-x="1036" d="M74 356q0 191 96.5 335.5t280.5 234.5l155 75q127 -3 350 -86l-139 -788l168 106l39 -53l-299 -211l-137 70l20 117l39 94l-311 -281q-262 69 -262 387zM307 424q0 -96 33 -165.5t84 -106.5l213 167l86 486q-41 27 -112 44t-128 17q-78 -73 -127 -186.5t-49 -255.5z M383 1198l90 207l148 45l303 -117l94 113h51l-94 -217l-144 -35l-305 119l-92 -115h-51z" />
<glyph unicode="&#xe4;" horiz-adv-x="1036" d="M74 356q0 191 96.5 335.5t280.5 234.5l155 75q127 -3 350 -86l-139 -788l168 106l39 -53l-299 -211l-137 70l20 117l39 94l-311 -281q-262 69 -262 387zM307 424q0 -96 33 -165.5t84 -106.5l213 167l86 486q-41 27 -112 44t-128 17q-78 -73 -127 -186.5t-49 -255.5z M420 1196l8 107l39 86l82 12l94 -12l-2 -103l-39 -90l-76 -12zM776 1196l8 107l39 86l80 12l96 -12l-2 -103l-39 -90l-77 -12z" />
<glyph unicode="&#xe5;" horiz-adv-x="1036" d="M74 356q0 191 96.5 335.5t280.5 234.5l155 75q127 -3 350 -86l-139 -788l168 106l39 -53l-299 -211l-137 70l20 117l39 94l-311 -281q-262 69 -262 387zM307 424q0 -96 33 -165.5t84 -106.5l213 167l86 486q-41 27 -112 44t-128 17q-78 -73 -127 -186.5t-49 -255.5z M520 1307q0 39 13 69.5t31 50t50 36.5t58 26.5t67 21.5q222 0 222 -204q0 -35 -9 -62t-19.5 -43t-36 -31t-41 -21.5t-54 -19.5t-56.5 -20q-44 0 -82 10t-71.5 31.5t-52.5 61t-19 94.5zM625 1307q0 -49 33 -79t83 -30t83.5 30t33.5 79t-33.5 82.5t-83.5 33.5 q-49 0 -82.5 -33.5t-33.5 -82.5z" />
<glyph unicode="&#xe6;" horiz-adv-x="1398" d="M66 356q0 191 97 335.5t279 234.5l158 75q122 -3 336 -79l205 79q219 -43 219 -225q0 -75 -33 -178l-520 -160v-39q4 -110 62.5 -177.5t140.5 -82.5q134 54 256 129l39 -55q-162 -115 -301 -188l-103 -56q-107 8 -188.5 69t-116.5 163l-260 -232q-270 68 -270 387z M301 424q0 -96 35 -165t88 -107l154 118q-22 139 23 281.5t144 243.5q-133 71 -268 71q-78 -73 -127 -186.5t-49 -255.5zM811 512l299 119q20 67 20 117q0 63 -29 99t-75 44q-94 -47 -146.5 -147.5t-68.5 -231.5z" />
<glyph unicode="&#xe7;" horiz-adv-x="872" d="M76 362q0 191 107.5 341t310.5 237l135 61q50 -3 119 -25t122 -52l-116 -191q-107 75 -244 129q-96 -58 -147.5 -167.5t-51.5 -248.5q0 -246 209 -307q154 71 236 125l41 -53q-103 -82 -269 -180l-100 -62l-53 -65q69 0 117.5 -36.5t48.5 -100.5q0 -148 -219 -228 l-105 -37h-123l60 88h161q31 20 48.5 54t17.5 69q0 63 -48 93t-112 30l125 144q-120 29 -195 129t-75 253z" />
<glyph unicode="&#xe8;" horiz-adv-x="905" d="M76 350q0 197 107.5 359.5t299.5 232.5l164 59q219 -44 219 -225q0 -78 -32 -178l-521 -160v-39q4 -110 62.5 -177.5t140.5 -82.5q134 54 256 129l39 -55q-182 -126 -301 -188l-102 -56q-143 9 -237.5 114t-94.5 267zM317 512l299 119q21 71 21 117q0 63 -29.5 99 t-75.5 44q-94 -47 -146.5 -147.5t-68.5 -231.5zM414 1481h231l25 -357h-95z" />
<glyph unicode="&#xe9;" horiz-adv-x="905" d="M76 350q0 197 107.5 359.5t299.5 232.5l164 59q219 -44 219 -225q0 -78 -32 -178l-521 -160v-39q4 -110 62.5 -177.5t140.5 -82.5q134 54 256 129l39 -55q-182 -126 -301 -188l-102 -56q-143 9 -237.5 114t-94.5 267zM317 512l299 119q21 71 21 117q0 63 -29.5 99 t-75.5 44q-94 -47 -146.5 -147.5t-68.5 -231.5zM539 1124l157 357h240l-297 -357h-100z" />
<glyph unicode="&#xea;" horiz-adv-x="905" d="M76 350q0 197 107.5 359.5t299.5 232.5l164 59q219 -44 219 -225q0 -78 -32 -178l-521 -160v-39q4 -110 62.5 -177.5t140.5 -82.5q134 54 256 129l39 -55q-182 -126 -301 -188l-102 -56q-143 9 -237.5 114t-94.5 267zM317 512l299 119q21 71 21 117q0 63 -29.5 99 t-75.5 44q-94 -47 -146.5 -147.5t-68.5 -231.5zM352 1124l250 357h158l123 -357h-101l-133 197l-196 -197h-101z" />
<glyph unicode="&#xeb;" horiz-adv-x="905" d="M76 350q0 197 107.5 359.5t299.5 232.5l164 59q219 -44 219 -225q0 -78 -32 -178l-521 -160v-39q4 -110 62.5 -177.5t140.5 -82.5q134 54 256 129l39 -55q-182 -126 -301 -188l-102 -56q-143 9 -237.5 114t-94.5 267zM317 512l299 119q21 71 21 117q0 63 -29.5 99 t-75.5 44q-94 -47 -146.5 -147.5t-68.5 -231.5zM348 1196l8 107l39 86l82 12l94 -12l-2 -103l-39 -90l-77 -12zM705 1196l8 107l39 86l79 12l95 -12l-2 -103l-37 -90l-78 -12z" />
<glyph unicode="&#xec;" horiz-adv-x="608" d="M66 848l348 153l84 -81l-140 -791l168 107l39 -54l-299 -213l-137 72l143 811l-182 -64zM250 1481h233l23 -357h-94z" />
<glyph unicode="&#xed;" horiz-adv-x="608" d="M66 848l348 153l84 -81l-140 -791l168 107l39 -54l-299 -213l-137 72l143 811l-182 -64zM365 1124l157 357h240l-297 -357h-100z" />
<glyph unicode="&#xee;" horiz-adv-x="608" d="M66 848l348 153l84 -81l-140 -791l168 107l39 -54l-299 -213l-137 72l143 811l-182 -64zM158 1124l250 357h157l123 -357h-100l-133 197l-197 -197h-100z" />
<glyph unicode="&#xef;" horiz-adv-x="608" d="M66 848l348 153l84 -81l-140 -791l168 107l39 -54l-299 -213l-137 72l143 811l-182 -64zM156 1196l8 107l39 86l82 12l94 -12l-2 -103l-39 -90l-76 -12zM512 1196l8 107l39 86l80 12l96 -12l-4 -103l-37 -90l-78 -12z" />
<glyph unicode="&#xf0;" horiz-adv-x="1026" d="M76 369q0 195 110 353.5t308 233.5l114 45q29 -7 80.5 -24t65.5 -25q-5 48 -47.5 122t-102.5 134l-227 -114v102l153 76q-101 78 -188 98l33 96q161 -45 274 -123l244 123v-104l-160 -80q254 -218 254 -614q0 -174 -50 -301.5t-140.5 -210.5t-231.5 -142l-114 -45 q-103 0 -187 45t-136 137t-52 218zM317 408q0 -290 207 -322q59 20 105 74.5t72 125.5t39.5 144.5t13.5 142.5v209q-39 28 -129.5 57t-122.5 29q-93 -46 -139 -178.5t-46 -281.5z" />
<glyph unicode="&#xf1;" horiz-adv-x="1122" d="M66 848l348 153l84 -79l-19 -91l-30 -65l356 235q122 0 173.5 -66.5t31.5 -176.5l-113 -631l170 106l37 -53l-299 -211l-139 70l114 647q10 58 -1.5 90.5t-57.5 32.5q-72 0 -172 -70l-94 -61l-121 -678h-213l149 850l-180 -62zM375 1198l90 207l147 45l303 -117l95 113 h51l-94 -217l-142 -35l-305 119l-92 -115h-53z" />
<glyph unicode="&#xf2;" horiz-adv-x="1013" d="M76 375q0 192 106.5 343t300.5 230l129 53q154 0 260.5 -109.5t106.5 -299.5q0 -192 -106.5 -344t-299.5 -228l-131 -51q-154 0 -260 108t-106 298zM311 420q0 -155 58 -236.5t155 -101.5q58 24 102.5 76t69.5 118.5t37 135t12 135.5q0 154 -60 236.5t-157 101.5 q-58 -23 -102 -74.5t-68 -118t-35.5 -135t-11.5 -137.5zM428 1481h231l25 -357h-94z" />
<glyph unicode="&#xf3;" horiz-adv-x="1013" d="M76 375q0 192 106.5 343t300.5 230l129 53q154 0 260.5 -109.5t106.5 -299.5q0 -192 -106.5 -344t-299.5 -228l-131 -51q-154 0 -260 108t-106 298zM311 420q0 -155 58 -236.5t155 -101.5q58 24 102.5 76t69.5 118.5t37 135t12 135.5q0 154 -60 236.5t-157 101.5 q-58 -23 -102 -74.5t-68 -118t-35.5 -135t-11.5 -137.5zM578 1124l155 357h240l-295 -357h-100z" />
<glyph unicode="&#xf4;" horiz-adv-x="1013" d="M76 375q0 192 106.5 343t300.5 230l129 53q154 0 260.5 -109.5t106.5 -299.5q0 -192 -106.5 -344t-299.5 -228l-131 -51q-154 0 -260 108t-106 298zM311 420q0 -155 58 -236.5t155 -101.5q58 24 102.5 76t69.5 118.5t37 135t12 135.5q0 154 -60 236.5t-157 101.5 q-58 -23 -102 -74.5t-68 -118t-35.5 -135t-11.5 -137.5zM389 1124l248 357h160l121 -357h-99l-133 197l-199 -197h-98z" />
<glyph unicode="&#xf5;" horiz-adv-x="1013" d="M76 375q0 192 106.5 343t300.5 230l129 53q154 0 260.5 -109.5t106.5 -299.5q0 -192 -106.5 -344t-299.5 -228l-131 -51q-154 0 -260 108t-106 298zM311 420q0 -155 58 -236.5t155 -101.5q58 24 102.5 76t69.5 118.5t37 135t12 135.5q0 154 -60 236.5t-157 101.5 q-58 -23 -102 -74.5t-68 -118t-35.5 -135t-11.5 -137.5zM344 1198l90 207l146 45l303 -117l94 113h53l-94 -217l-143 -35l-306 119l-92 -115h-51z" />
<glyph unicode="&#xf6;" horiz-adv-x="1013" d="M76 375q0 192 106.5 343t300.5 230l129 53q154 0 260.5 -109.5t106.5 -299.5q0 -192 -106.5 -344t-299.5 -228l-131 -51q-154 0 -260 108t-106 298zM311 420q0 -155 58 -236.5t155 -101.5q58 24 102.5 76t69.5 118.5t37 135t12 135.5q0 154 -60 236.5t-157 101.5 q-58 -23 -102 -74.5t-68 -118t-35.5 -135t-11.5 -137.5zM401 1196l9 107l41 86l79 12l95 -12l-2 -103l-39 -90l-76 -12zM758 1196l8 107l39 86l82 12l94 -12l-2 -103l-39 -90l-78 -12z" />
<glyph unicode="&#xf7;" d="M96 438v144h1075v-144h-1075zM508 127l12 106l168 13l66 -13l12 -122l-12 -111l-168 -12l-66 12zM508 887l12 108l168 13l66 -13l12 -125l-12 -110l-168 -10l-66 10z" />
<glyph unicode="&#xf8;" horiz-adv-x="1013" d="M76 -6l133 143q-59 97 -59 238q0 192 106.5 343t300.5 230l129 53q142 0 244 -94l76 82h114l-137 -147q70 -107 70 -250q0 -192 -106.5 -344t-299.5 -228l-131 -51q-153 0 -252 99l-69 -74h-119zM385 420q0 -46 6 -90l389 418q-57 114 -178 137q-58 -23 -102 -74.5 t-68 -118t-35.5 -135t-11.5 -137.5zM416 231q54 -123 182 -149q58 24 102.5 76t69.5 118.5t37 135t12 135.5q0 53 -10 108z" />
<glyph unicode="&#xf9;" horiz-adv-x="1112" d="M59 848l349 153l81 -79l-110 -643q-10 -57 5.5 -87t53.5 -30q47 0 168 80l92 61l115 668h215l-149 -844l168 106l38 -53l-299 -211l-127 62l17 119l35 71l-355 -252q-120 0 -171 70t-33 174l112 639l-180 -64zM463 1481h233l23 -357h-94z" />
<glyph unicode="&#xfa;" horiz-adv-x="1112" d="M59 848l349 153l81 -79l-110 -643q-10 -57 5.5 -87t53.5 -30q47 0 168 80l92 61l115 668h215l-149 -844l168 106l38 -53l-299 -211l-127 62l17 119l35 71l-355 -252q-120 0 -171 70t-33 174l112 639l-180 -64zM598 1124l156 357h239l-297 -357h-98z" />
<glyph unicode="&#xfb;" horiz-adv-x="1112" d="M59 848l349 153l81 -79l-110 -643q-10 -57 5.5 -87t53.5 -30q47 0 168 80l92 61l115 668h215l-149 -844l168 106l38 -53l-299 -211l-127 62l17 119l35 71l-355 -252q-120 0 -171 70t-33 174l112 639l-180 -64zM426 1124l248 357h160l120 -357h-100l-131 197l-199 -197 h-98z" />
<glyph unicode="&#xfc;" horiz-adv-x="1112" d="M59 848l349 153l81 -79l-110 -643q-10 -57 5.5 -87t53.5 -30q47 0 168 80l92 61l115 668h215l-149 -844l168 106l38 -53l-299 -211l-127 62l17 119l35 71l-355 -252q-120 0 -171 70t-33 174l112 639l-180 -64zM408 1196l8 107l39 86l80 12l94 -12l-2 -103l-39 -90 l-76 -12zM764 1196l6 107l41 86l80 12l94 -12l-2 -103l-39 -90l-76 -12z" />
<glyph unicode="&#xfd;" horiz-adv-x="987" d="M-18 -481l36 219h179l266 285l-158 -23l-117 844l-168 -60l-30 56l307 161l115 -67l92 -836l336 594l-152 189l199 120l90 -108l-45 -258l-672 -1116h-278zM498 1124l155 357h240l-297 -357h-98z" />
<glyph unicode="&#xfe;" horiz-adv-x="1064" d="M41 -471l313 1802l-192 -51l-25 68l377 116l66 -57l-101 -580l-39 -94l303 268q127 -26 203 -120.5t76 -257.5q0 -194 -98 -352.5t-275 -233.5l-149 -68q-108 16 -170 43l-13 -121l-65 -362h-211zM367 184q134 -80 241 -80q88 51 133 175t45 256q0 114 -35.5 184 t-91.5 92l-208 -156z" />
<glyph unicode="&#xff;" horiz-adv-x="987" d="M-18 -481l36 219h179l266 285l-158 -23l-117 844l-168 -60l-30 56l307 161l115 -67l92 -836l336 594l-152 189l199 120l90 -108l-45 -258l-672 -1116h-278zM342 1196l8 107l39 86l82 12l94 -12l-2 -103l-39 -90l-78 -12zM698 1196l9 107l38 86l80 12l95 -12l-2 -103 l-37 -90l-78 -12z" />
<glyph unicode="&#x152;" horiz-adv-x="1918" d="M100 590q0 100 20 197t65.5 194.5t113 179t169.5 149.5t228 107l170 53l351 -40l733 6v-365h-84l-94 252l-439 6l-84 -528l224 8l124 217h76l-74 -274l-18 -275h-76l-51 217l-221 8l-96 -598l489 7l162 276h90l-94 -389l-795 6l-319 -41q-264 0 -417 169.5t-153 457.5z M371 618q0 -241 105 -376.5t276 -161.5l137 26l194 1223l-301 25q-194 -81 -302.5 -278.5t-108.5 -457.5z" />
<glyph unicode="&#x153;" horiz-adv-x="1568" d="M76 369q0 192 107.5 344t305.5 237l123 51q106 0 192 -48.5t134 -141.5q90 90 209 131l164 59q219 -44 219 -225q0 -77 -35 -178l-518 -160q-2 -12 -2 -39q4 -110 63 -177.5t140 -82.5q134 54 256 129l39 -55q-156 -111 -299 -188l-105 -56q-93 4 -167 53.5t-116 131.5 q-95 -88 -213 -136l-122 -49q-159 0 -267 106t-108 294zM311 420q0 -291 213 -336q61 24 107.5 77t72 120.5t38 137t12.5 138.5q0 156 -56.5 231.5t-160.5 94.5q-60 -23 -105.5 -74t-71 -117.5t-37.5 -134.5t-12 -137zM981 512l299 119q18 60 18 117q0 62 -28.5 98.5 t-73.5 44.5q-94 -47 -147 -148t-68 -231z" />
<glyph unicode="&#x178;" horiz-adv-x="1310" d="M160 1354l20 82l252 -6l283 6v-82l-168 -27l225 -555v-96l414 651l-162 27l20 82l230 -6l166 6l-2 -82l-109 -25l-493 -749l-74 -474l225 -26l-22 -82l-349 6l-346 -6l2 82l242 26l74 476l-314 747zM561 1589l8 113l39 88l82 10l101 -10l-3 -102l-36 -99l-86 -12z M999 1589l9 113l39 88l79 10l103 -10l-2 -102l-39 -99l-84 -12z" />
<glyph unicode="&#x2c6;" horiz-adv-x="1024" d="M248 1124l248 357h159l121 -357h-98l-133 197l-199 -197h-98z" />
<glyph unicode="&#x2dc;" horiz-adv-x="1024" d="M168 1198l90 207l148 45l303 -117l94 113h51l-94 -217l-142 -35l-305 119l-92 -115h-53z" />
<glyph unicode="&#x2000;" horiz-adv-x="961" />
<glyph unicode="&#x2001;" horiz-adv-x="1923" />
<glyph unicode="&#x2002;" horiz-adv-x="961" />
<glyph unicode="&#x2003;" horiz-adv-x="1923" />
<glyph unicode="&#x2004;" horiz-adv-x="641" />
<glyph unicode="&#x2005;" horiz-adv-x="480" />
<glyph unicode="&#x2006;" horiz-adv-x="320" />
<glyph unicode="&#x2007;" horiz-adv-x="320" />
<glyph unicode="&#x2008;" horiz-adv-x="240" />
<glyph unicode="&#x2009;" horiz-adv-x="384" />
<glyph unicode="&#x200a;" horiz-adv-x="106" />
<glyph unicode="&#x2010;" horiz-adv-x="808" d="M102 496l27 143h625l-27 -143h-625z" />
<glyph unicode="&#x2011;" horiz-adv-x="808" d="M102 496l27 143h625l-27 -143h-625z" />
<glyph unicode="&#x2012;" horiz-adv-x="808" d="M102 496l27 143h625l-27 -143h-625z" />
<glyph unicode="&#x2013;" horiz-adv-x="1370" d="M133 510l23 127h1136l-22 -127h-1137z" />
<glyph unicode="&#x2014;" horiz-adv-x="1789" d="M143 510l23 127h1538l-25 -127h-1536z" />
<glyph unicode="&#x2018;" horiz-adv-x="468" d="M184 928l11 125l30 110l195 310l80 -35q-39 -62 -80 -146t-47 -121l86 -8l-10 -127l-37 -108l-154 -13z" />
<glyph unicode="&#x2019;" horiz-adv-x="495" d="M203 932q39 65 79.5 147.5t47.5 118.5l-88 10l10 127l39 107l151 12l74 -12l-8 -125l-33 -109l-194 -311z" />
<glyph unicode="&#x201a;" horiz-adv-x="503" d="M31 -274q39 65 79.5 147.5t47.5 118.5l-88 10l12 127l37 107l151 12l76 -12l-10 -125l-31 -109l-196 -311z" />
<glyph unicode="&#x201c;" horiz-adv-x="823" d="M184 934l11 125l30 108l195 312l80 -35q-39 -62 -80 -145.5t-47 -120.5l86 -11l-10 -127l-37 -106l-154 -12zM541 934l8 125l31 108l196 312l78 -35q-39 -65 -79.5 -147.5t-47.5 -118.5l88 -11l-10 -127l-39 -106l-152 -12z" />
<glyph unicode="&#x201d;" horiz-adv-x="851" d="M203 932q39 65 79.5 147.5t47.5 118.5l-88 10l10 127l39 107l151 12l74 -12l-8 -125l-33 -109l-194 -311zM557 932q37 60 78.5 144.5t48.5 121.5l-86 10l10 127l37 107l154 12l73 -12l-10 -125l-31 -109l-194 -311z" />
<glyph unicode="&#x201e;" horiz-adv-x="860" d="M31 -274q39 65 79.5 147.5t47.5 118.5l-88 10l12 127l37 107l151 12l76 -12l-10 -125l-31 -109l-196 -311zM387 -274q39 65 79.5 147.5t47.5 118.5l-88 10l10 127l39 107l152 12l73 -12l-8 -125l-33 -109l-194 -311z" />
<glyph unicode="&#x2022;" horiz-adv-x="585" d="M133 487l14 144l35 125l185 12l86 -12l-15 -142l-35 -127l-184 -12z" />
<glyph unicode="&#x2026;" horiz-adv-x="1546" d="M143 2l11 127l32 107l170 12l64 -12l-10 -125l-33 -109l-170 -12zM639 2l10 127l33 107l170 12l63 -12l-10 -125l-33 -109l-170 -12zM1137 2l12 127l31 107l170 12l63 -12l-8 -125l-33 -109l-170 -12z" />
<glyph unicode="&#x202f;" horiz-adv-x="384" />
<glyph unicode="&#x2039;" horiz-adv-x="663" d="M72 481l450 451h131l-340 -453l183 -448h-134z" />
<glyph unicode="&#x203a;" horiz-adv-x="716" d="M72 31l338 448l-181 453h131l295 -451l-450 -450h-133z" />
<glyph unicode="&#x205f;" horiz-adv-x="480" />
<glyph unicode="&#x20ac;" horiz-adv-x="1327" d="M35 516l20 125h131q3 73 19 152h-121l20 125h138q156 372 626 507l150 45q80 -15 173 -61t157 -90l-115 -156q-52 50 -153.5 110.5t-170.5 74.5q-138 -34 -249 -150.5t-171 -279.5h637l-90 -125h-575q-12 -73 -15 -152h500l-86 -125h-407q23 -179 120.5 -283t233.5 -104 q135 0 348 117l45 -72q-65 -46 -189.5 -108t-258.5 -101q-242 0 -392 148t-172 403h-153z" />
<glyph unicode="&#x2122;" horiz-adv-x="2138" d="M246 1184v252l387 -2l368 2v-252h-65l-64 172l-143 4v-637l129 -14l-6 -66l-227 4l-230 -4l-6 66l131 14v637l-143 -4l-64 -172h-67zM1053 1372l6 64l112 -4l222 4l219 -533v-110l246 643l172 -4l143 4l6 -64l-88 -14v-635l86 -14l-4 -66l-182 2l-183 -2l-6 66l90 14v502 l19 139l-275 -721h-127l-233 571l-33 144v-635l88 -14l-4 -66l-135 2l-131 -2l-6 66l90 14v635z" />
<glyph unicode="&#x25fc;" horiz-adv-x="1003" d="M0 0v1004h1004v-1004h-1004z" />
</font>
</defs>
</svg>
