<?xml version="1.0" standalone="no"?>
<!DOCTYPE svg PUBLIC "-//W3C//DTD SVG 1.1//EN" "http://www.w3.org/Graphics/SVG/1.1/DTD/svg11.dtd" >
<svg xmlns="http://www.w3.org/2000/svg" xmlns:xlink="http://www.w3.org/1999/xlink" version="1.1">
<metadata></metadata>
<defs>
<font id="gt_sectra_finebold_italic" horiz-adv-x="1269" >
<font-face units-per-em="2048" ascent="1536" descent="-512" />
<missing-glyph horiz-adv-x="491" />
<glyph unicode="&#xfb01;" horiz-adv-x="1204" d="M-272 -481l43 237h239q46 56 68 183l162 931h-164l8 39l49 43h121l8 56q20 94 77 174.5t136 128.5l254 153h477l-37 -204h-553q-46 -43 -69 -166l-25 -148h314l200 60l74 -66l-147 -831l176 118l30 -39l-299 -221l-188 82l147 834l-53 -13h-268l-150 -858 q-31 -168 -243 -315l-254 -178h-133z" />
<glyph unicode="&#xfb02;" horiz-adv-x="1220" d="M-272 -481l43 237h239q46 56 68 183l162 931h-164l8 39l49 43h121l8 56q20 94 77 174.5t136 128.5l254 153h428l43 -32l-233 -1323l178 118l31 -39l-299 -221l-193 82l145 821h-321l-150 -858q-31 -168 -243 -315l-254 -178h-133zM522 946h322l57 336l-72 -22h-213 q-46 -43 -69 -166z" />
<glyph unicode="&#xfb03;" horiz-adv-x="1798" d="M-272 -481l43 237h239q46 56 68 183l162 931h-164l8 39l49 43h121l8 56q20 94 77 174.5t136 128.5l254 153h383l-317 -204h-179q-46 -43 -69 -166l-25 -148h324l12 62q19 94 75.5 174.5t135.5 128.5l254 153h477l-37 -204h-553q-48 -48 -67 -166l-25 -148h309l203 60 l74 -66l-148 -831l177 118l30 -39l-299 -221l-188 82l147 834l-53 -13h-266l-150 -858q-30 -165 -243 -315l-254 -178h-117l43 237h221q50 62 68 183l162 931h-326l-150 -858q-31 -168 -243 -315l-254 -178h-133z" />
<glyph unicode="&#xfb04;" horiz-adv-x="1814" d="M-272 -481l43 237h239q46 56 68 183l162 931h-164l8 39l49 43h121l8 56q20 94 77 174.5t136 128.5l254 153h383l-317 -204h-179q-46 -43 -69 -166l-25 -148h324l12 62q19 94 75.5 174.5t135.5 128.5l254 153h428l43 -32l-233 -1323l178 118l28 -39l-297 -221l-190 82 l143 821h-319l-150 -858q-30 -165 -243 -315l-254 -178h-117l43 237h221q50 62 68 183l162 931h-326l-150 -858q-31 -168 -243 -315l-254 -178h-133zM1118 946h320l59 336l-74 -22h-213q-48 -48 -67 -166z" />
<glyph horiz-adv-x="0" />
<glyph horiz-adv-x="0" />
<glyph horiz-adv-x="682" />
<glyph unicode="&#xd;" horiz-adv-x="737" />
<glyph unicode=" "  horiz-adv-x="491" />
<glyph unicode="&#x09;" horiz-adv-x="491" />
<glyph unicode="&#xa0;" horiz-adv-x="491" />
<glyph unicode="!" horiz-adv-x="712" d="M133 4l10 131l33 111l176 14l66 -14l-8 -127l-35 -115l-178 -14zM274 842l88 612h297l-129 -610l-151 -381h-92z" />
<glyph unicode="&#x22;" horiz-adv-x="907" d="M203 887q163 263 170 293l-133 8l12 139l39 115l180 14l74 -14l-10 -133l-41 -121l-236 -326zM588 887q164 263 168 293l-133 8l14 139l39 115l180 14l72 -14l-10 -133l-39 -121l-236 -326z" />
<glyph unicode="#" horiz-adv-x="1253" d="M59 410l27 92h264l101 334h-261l27 92h260l123 413h107l-123 -413h309l123 413h106l-123 -413h265l-29 -92h-260l-103 -334h261l-27 -92h-262l-121 -410h-107l121 410h-309l-121 -410h-106l121 410h-263zM457 502h309l100 334h-307z" />
<glyph unicode="$" horiz-adv-x="1175" d="M82 86l78 358h94l6 -215q38 -39 100.5 -74t133.5 -57l86 486l-144 116q-96 79 -147 157t-51 175q0 121 79.5 210t245.5 157l170 67l25 133h63l-22 -131q218 -8 356 -98l-65 -342h-84l-41 225q-89 80 -187 105l-76 -434l170 -142q46 -38 76 -69.5t57.5 -73.5t40.5 -93.5 t13 -113.5q0 -124 -87.5 -232t-238.5 -163l-198 -72l-23 -129h-63l22 129q-244 12 -389 121zM504 1188q0 -65 32.5 -110.5t110.5 -108.5l70 401l-55 4q-158 -55 -158 -186zM555 84q58 -8 86 -8q71 32 107 88.5t36 128.5q0 77 -36.5 130.5t-110.5 113.5l-2 2z" />
<glyph unicode="%" horiz-adv-x="1662" d="M96 -10l1344 1454h131l-1342 -1454h-133zM178 1006q9 153 101 260.5t262 156.5l41 13q121 0 189 -78t60 -209q-9 -153 -102.5 -263t-261.5 -155l-43 -12q-119 0 -187 77.5t-59 209.5zM373 1051q-10 -118 17 -186t83 -79q69 23 111.5 109t48.5 209q9 120 -18 186.5 t-83 77.5q-69 -23 -111 -108t-48 -209zM842 287q9 154 100.5 262.5t261.5 157.5l41 12q121 0 189.5 -78t60.5 -209q-9 -154 -102.5 -263.5t-262.5 -154.5l-40 -14q-118 0 -187.5 78.5t-60.5 208.5zM1036 334q-9 -119 19 -186.5t84 -79.5q68 23 109.5 108.5t49.5 208.5 q7 122 -20 188.5t-82 77.5q-69 -23 -111.5 -109t-48.5 -208z" />
<glyph unicode="&#x26;" horiz-adv-x="1286" d="M72 336q0 288 368 430l103 39q-59 9 -115.5 44.5t-96.5 97.5t-40 134q0 124 109.5 202t314.5 132l215 58q54 -6 126.5 -39t121.5 -68l-136 -182q-60 53 -152 107t-163 79q-143 -92 -143 -246q0 -110 48 -186t103 -86l-14 -64q-136 -6 -238 -125.5t-102 -285.5 q0 -146 60.5 -237.5t179.5 -98.5q101 43 152.5 128t82.5 241l21 120h-107l-35 -49h-30l40 228h496l33 47h31l-43 -226h-115l-25 -141q-14 -73 -34.5 -122t-64 -98t-119 -86t-189.5 -69q-4 -2 -47 -13.5t-88.5 -24t-49.5 -13.5q-217 0 -337.5 104t-120.5 269z" />
<glyph unicode="'" horiz-adv-x="520" d="M201 885q6 11 49.5 82.5t80 135t38.5 75.5l-131 8l10 139l43 117l178 12l72 -12l-11 -135l-38 -121l-234 -326z" />
<glyph unicode="(" horiz-adv-x="718" d="M131 242q0 195 33 349t113 301.5t196.5 283.5t300.5 307l41 -33q-493 -520 -493 -1251q0 -378 149 -643l-43 -41q-158 205 -227.5 369t-69.5 358z" />
<glyph unicode=")" horiz-adv-x="718" d="M-96 -453q491 517 491 1252q0 380 -147 645l41 39q159 -207 229 -370t70 -355q0 -195 -33 -349.5t-113.5 -302t-197 -284t-301.5 -307.5z" />
<glyph unicode="*" horiz-adv-x="765" d="M121 1120l112 232l218 -170l-43 282h243l-125 -282l269 166l41 -230l-295 -8l209 -176l-218 -146l-59 281l-141 -281l-174 144l260 178z" />
<glyph unicode="+" d="M106 467v108h476v480h106v-480h473v-108h-473v-467h-106v467h-476z" />
<glyph unicode="," horiz-adv-x="526" d="M59 -287q3 5 45.5 76t76 130t36.5 71l-123 12l10 143l43 121l185 15l71 -15l-8 -139l-45 -125l-231 -317z" />
<glyph unicode="-" horiz-adv-x="802" d="M100 510l21 125h624l-20 -125h-625z" />
<glyph unicode="." horiz-adv-x="552" d="M82 0l12 145l41 121l189 15l69 -15l-10 -141l-43 -125l-188 -14z" />
<glyph unicode="/" horiz-adv-x="991" d="M-270 -471l1267 1941h105l-1266 -1941h-106z" />
<glyph unicode="0" horiz-adv-x="1206" d="M88 397q0 412 463 566l139 45q205 0 331 -119.5t126 -306.5q0 -412 -465 -566l-137 -47q-204 0 -330.5 122t-126.5 306zM389 428q0 -144 58 -243.5t153 -127.5q116 56 180 186t64 308q0 146 -59 245.5t-152 123.5q-115 -53 -179.5 -182.5t-64.5 -309.5z" />
<glyph unicode="1" horiz-adv-x="946" d="M10 -2l4 68l287 24l121 690l8 21l-45 -19l-272 -75l-17 61l551 225h96l-157 -903l278 -24l-14 -68l-416 4z" />
<glyph unicode="2" horiz-adv-x="1091" d="M-16 66l385 270q173 122 261.5 221.5t88.5 206.5q0 67 -36 105t-101 40l-99 -26l-123 -267h-194l22 242l498 150q165 0 250.5 -62.5t85.5 -163.5q0 -44 -17.5 -87.5t-44.5 -79.5t-70.5 -73.5t-84 -65.5t-96 -59t-96 -51.5t-95.5 -46.5l-270 -126l203 36h585v-61l-94 -168 h-934z" />
<glyph unicode="3" horiz-adv-x="989" d="M-80 -479l43 237h471q137 111 137 269q0 102 -73.5 166t-218.5 67l-13 49l127 74q125 63 189.5 153t64.5 199q0 72 -35.5 120t-91.5 54l-96 -28l-121 -269h-186l22 246l479 150q163 0 241.5 -67t78.5 -175q-1 -89 -58.5 -164t-145 -123t-199.5 -78q174 -14 259 -93.5 t85 -194.5q0 -42 -10.5 -81t-25 -70.5t-42.5 -63t-51 -53.5t-63.5 -47.5t-66.5 -40.5t-73.5 -36.5t-71.5 -32t-71 -29.5q-12 -5 -17 -7l-293 -131h-174z" />
<glyph unicode="4" horiz-adv-x="1183" d="M10 68l762 913h324l-13 -72l-960 -827l65 20h402l37 220l256 163h45l-70 -383h254l-22 -122h-252l-80 -443h-269l80 443h-518z" />
<glyph unicode="5" horiz-adv-x="1015" d="M-66 -473l43 240h459q73 61 112.5 141t39.5 166q0 108 -50.5 175.5t-156.5 67.5q-88 0 -205 -57l-74 -41l-32 33l217 729h733l-8 -43l-82 -193h-629l-133 -432l342 191q102 0 179 -26t121 -71t65.5 -99t21.5 -115q0 -82 -30.5 -155.5t-76 -126t-115 -102.5t-129.5 -81.5 t-138 -65.5l-287 -135h-187z" />
<glyph unicode="6" horiz-adv-x="1128" d="M94 442q0 173 75.5 341t207 304.5t317 238.5t396.5 147l18 -58q-151 -46 -275 -127.5t-203.5 -178.5t-127.5 -195.5t-66 -194.5l336 217q129 -7 213 -114t84 -253q0 -190 -104 -328t-297 -206l-179 -68q-173 0 -284 128t-111 347zM403 440q0 -149 46.5 -249.5 t130.5 -129.5q92 49 140 161t48 235q0 138 -38 215.5t-99 77.5q-30 0 -61.5 -14t-86.5 -48l-57 -37q-23 -117 -23 -211z" />
<glyph unicode="7" horiz-adv-x="1036" d="M23 -467l4 72l817 1143l-41 -21h-740l41 250h906l39 -47l-824 -1397h-202z" />
<glyph unicode="8" horiz-adv-x="1153" d="M82 285q0 66 23.5 124.5t58.5 100t90 81t104.5 65t114.5 53.5q-75 60 -119.5 105t-75 105t-30.5 125q1 91 51.5 167.5t129.5 125.5t183 80l166 51q170 0 276.5 -70.5t106.5 -183.5q0 -64 -22.5 -120t-56.5 -95.5t-87.5 -75.5t-99.5 -59t-109 -49q135 -116 176 -161 q90 -98 95 -203v-15q0 -278 -420 -422l-148 -51q-172 0 -289.5 88.5t-117.5 233.5zM377 362q0 -118 61 -205.5t140 -105.5q82 41 124.5 114t42.5 161q0 89 -52 163.5t-161 172.5q-155 -125 -155 -300zM551 1151q0 -69 43 -137t135 -152q70 54 109 132t39 163q0 94 -47.5 157 t-139.5 75q-71 -33 -105 -96.5t-34 -141.5z" />
<glyph unicode="9" horiz-adv-x="1126" d="M47 -440q122 37 226.5 98.5t179 132t131 152.5t89 159.5t46.5 153.5l-328 -217q-134 9 -220.5 116t-86.5 251q0 191 105 330.5t298 205.5l185 66q174 0 281.5 -126.5t107.5 -346.5q0 -231 -128 -446t-356 -370.5t-511 -214.5zM389 524q0 -140 39 -218.5t98 -78.5 q32 0 64 13.5t82 46.5l57 37q23 117 23 215q-2 147 -48 247t-129 127q-62 -31 -105.5 -97.5t-62 -140.5t-18.5 -151z" />
<glyph unicode=":" horiz-adv-x="593" d="M92 0l12 145l41 121l189 15l69 -15l-10 -141l-43 -125l-188 -14zM211 717l12 143l39 119l191 16l69 -16l-10 -139l-43 -123l-188 -15z" />
<glyph unicode=";" horiz-adv-x="589" d="M55 -287q5 8 47.5 77t77.5 128.5t37 71.5l-129 12l12 143l43 121l183 15l73 -15l-10 -139l-43 -125l-231 -317zM207 717l12 143l39 119l193 16l67 -16l-10 -139l-43 -123l-189 -15z" />
<glyph unicode="&#x3c;" d="M102 545v84l1065 485v-123l-919 -403l919 -404v-123z" />
<glyph unicode="=" d="M104 250v108h1061v-108h-1061zM104 647v109h1061v-109h-1061z" />
<glyph unicode="&#x3e;" d="M102 61v123l920 404l-920 403v123l1065 -485v-84z" />
<glyph unicode="?" horiz-adv-x="909" d="M131 4l10 131l35 111l174 14l68 -14l-10 -127l-35 -115l-176 -14zM236 1112l6 223l362 119q156 0 261.5 -90t105.5 -227q0 -252 -361 -367l-129 -47l-106 -281h-84l33 252l145 84q91 55 144 144.5t53 193.5q0 91 -42.5 165.5t-105.5 86.5l-47 -16l-104 -240h-131z" />
<glyph unicode="@" horiz-adv-x="1933" d="M154 510q0 295 198.5 528t521.5 334l199 60q381 0 590 -162t209 -426q0 -133 -52.5 -254.5t-139.5 -209.5t-204.5 -142.5t-244.5 -61.5l-135 129l67 217q-8 -12 -295 -350q-113 6 -194.5 91t-81.5 218q0 168 102.5 307t270.5 213l221 97l258 -123l-168 -739 q69 9 138 52.5t127 114.5t94 177.5t36 228.5q0 234 -160.5 386.5t-420.5 152.5q-133 0 -262 -57t-231 -156.5t-165 -249.5t-63 -322q0 -138 41 -253t109.5 -193t160 -131.5t190.5 -78t203 -24.5q77 0 158 19.5t124.5 38t100.5 47.5l25 -43q-115 -63 -252.5 -111.5 t-241.5 -66.5q-185 0 -341.5 55.5t-264 153.5t-167.5 235.5t-60 298.5zM803 565q0 -88 37 -142.5t102 -68.5l213 238l72 287l-168 106q-70 -37 -122 -89.5t-80 -110t-41 -112.5t-13 -108z" />
<glyph unicode="A" horiz-adv-x="1413" d="M-53 -2l4 68l127 18l753 1311l263 73l135 -1384l125 -18l-13 -68l-327 4l-277 -4l4 68l158 20l-29 395h-458l-224 -395l158 -20l-14 -68l-195 4zM453 559h411l-45 604l6 70z" />
<glyph unicode="B" horiz-adv-x="1255" d="M-12 -2l2 68l145 20l197 1266l-135 20l12 64q215 -4 260 -4l371 4q184 0 289.5 -82t105.5 -207q0 -119 -88.5 -211t-251.5 -131l-119 -29q215 -15 330 -102.5t115 -218.5q0 -262 -410 -394l-193 -63l-364 4zM442 100h254q189 115 189 336q0 121 -63.5 202t-178.5 81h-104 zM551 793h78q112 0 202.5 98t90.5 235q0 110 -51.5 172t-145.5 62h-88z" />
<glyph unicode="C" horiz-adv-x="1318" d="M100 582q0 125 35.5 244.5t107.5 230t193 200.5t279 142l229 74q202 0 373 -109l-19 -385h-81l-82 260q-124 101 -330 123q-181 -82 -276 -262.5t-95 -427.5q0 -241 104 -396.5t273 -193.5q128 48 219 121l160 286h88l-82 -380l-494 -146q-275 0 -438.5 168.5 t-163.5 450.5z" />
<glyph unicode="D" horiz-adv-x="1404" d="M-10 -2l2 68l141 20l197 1266l-137 20l14 64l301 -4l313 4h3q260 0 416 -158q157 -159 157 -416v-7q1 -267 -149 -477q-152 -212 -443 -312l-195 -68l-325 4zM442 102h250q164 100 267 298t104 444q0 227 -92 369t-226 145h-108z" />
<glyph unicode="E" horiz-adv-x="1224" d="M-12 -2l4 68l143 20l197 1264l-139 20l14 66l276 -4l787 4l-31 -387h-70l-100 303l-432 4l-88 -565l221 4l139 237h60l-60 -278l-30 -281h-60l-63 238l-217 4l-101 -635l482 2l182 321h72l-84 -405l-832 4z" />
<glyph unicode="F" horiz-adv-x="1171" d="M-12 -2l4 68l143 20l197 1264l-139 20l14 66l270 -4l793 4l-31 -394h-70l-100 310l-432 4l-92 -594l221 4l139 238h60l-60 -281l-31 -279h-59l-63 236l-220 4l-94 -600l219 -18l-12 -68l-369 4z" />
<glyph unicode="G" horiz-adv-x="1388" d="M92 569q0 102 22.5 200t72 194.5t122.5 178t179.5 150t236.5 111.5l221 67q214 0 379 -112l-20 -375h-82l-76 246q-142 125 -346 133q-182 -90 -277.5 -272.5t-95.5 -417.5q0 -253 93 -402t259 -198q73 21 133 61l68 447l-139 22l12 66h285l247 2l-2 -68l-100 -22 l-72 -461l-561 -156q-168 0 -296.5 80t-195.5 217t-67 309z" />
<glyph unicode="H" horiz-adv-x="1468" d="M-12 -2l4 68l143 20l195 1264l-135 20l12 66l289 -4l280 4l-2 -66l-133 -20l-90 -568h477l88 568l-131 20l12 66l283 -4l287 4l-2 -66l-142 -20l-194 -1264l135 -20l-12 -68l-287 4l-287 -4l2 68l140 20l96 616h-475l-97 -616l131 -20l-12 -68l-282 4z" />
<glyph unicode="I" horiz-adv-x="686" d="M-8 -2l2 68l145 20l197 1264l-137 20l12 66l293 -4l282 4l-4 -66l-141 -20l-195 -1264l136 -20l-13 -68l-288 4z" />
<glyph unicode="J" horiz-adv-x="700" d="M-190 -356l47 227h235q60 146 86 324l178 1155l-149 20l14 66l299 -4l287 4l-4 -66l-139 -20l-172 -1106q-38 -241 -256 -398l-287 -202h-139z" />
<glyph unicode="K" horiz-adv-x="1472" d="M-12 -2l4 68l145 20l195 1264l-135 20l12 66l291 -4l272 4l-2 -66l-131 -20l-88 -566l31 17l608 549l-158 20l10 66l234 -4l229 4l-2 -66l-178 -20l-637 -557l170 -33l436 -676l97 -18l-13 -68l-192 4l-209 -4l-418 709l-14 36l-103 -657l127 -20l-12 -68l-278 4z" />
<glyph unicode="L" horiz-adv-x="1146" d="M-12 -2l4 68l143 20l197 1264l-137 20l14 66l272 -4l303 4l-4 -66l-143 -20l-197 -1270l404 2l217 332h72l-99 -416l-774 4z" />
<glyph unicode="M" horiz-adv-x="1814" d="M-12 -2l4 68l139 20l199 1260l-140 24l15 66l217 -4l278 4l195 -1057l-4 -84l539 1141l229 -4l254 4l-2 -66l-142 -20l-196 -1264l135 -20l-14 -68l-281 4l-289 -4l2 68l146 20l178 1135l29 114l-633 -1339h-180l-232 1200l-12 131l-184 -1241l141 -20l-10 -68l-191 4z " />
<glyph unicode="N" horiz-adv-x="1388" d="M-12 -2l4 68l141 20l199 1262l-133 22l10 66l203 -4l223 4l457 -983l14 -109l147 1006l-145 20l14 66l185 -2l192 2v-66l-143 -20l-213 -1350h-197l-518 1163l-12 107l-178 -1184l155 -20l-16 -68l-197 4z" />
<glyph unicode="O" horiz-adv-x="1460" d="M100 608q0 99 19.5 193.5t64 189t111.5 173.5t168 145t227 106l172 55q268 0 429 -176.5t161 -466.5q0 -99 -19.5 -193t-64.5 -188t-112 -173t-168 -145.5t-226 -107.5l-174 -57q-266 0 -427 177t-161 468zM434 639q0 -243 90 -400.5t236 -181.5q117 53 198 164.5 t119.5 257t38.5 318.5q0 244 -89.5 401.5t-233.5 179.5q-170 -72 -264.5 -274t-94.5 -465z" />
<glyph unicode="P" horiz-adv-x="1204" d="M-12 -2l4 68l143 20l197 1266l-137 18l14 66l285 -4l389 2h4q187 0 295 -82q110 -84 110 -226q0 -83 -32 -150.5t-96 -121t-140 -93.5t-182 -81l-164 -64h-156l-82 -530l215 -20l-10 -68l-377 4zM541 725h223q89 63 143 159t54 218q0 124 -54.5 191t-152.5 67h-115z" />
<glyph unicode="Q" horiz-adv-x="1460" d="M100 608q0 99 19.5 193.5t64 189t111.5 173.5t168 145t227 106l172 55q268 0 429 -176.5t161 -466.5q0 -99 -19.5 -193t-64.5 -188t-112 -173t-168 -145.5t-226 -107.5l-117 -38l48 -7l249 -77l175 -150l86 -31l-5 -59l-346 2l-278 303q-262 6 -418 182t-156 463z M434 639q0 -243 90 -400.5t236 -181.5q117 53 198 164.5t119.5 257t38.5 318.5q0 244 -89.5 401.5t-233.5 179.5q-170 -72 -264.5 -274t-94.5 -465z" />
<glyph unicode="R" horiz-adv-x="1372" d="M-12 -2l4 68l143 20l197 1266l-137 18l14 66l285 -4l389 4q187 0 299 -82t112 -215q-1 -81 -33.5 -147.5t-92.5 -114.5t-129 -81t-158 -61l-152 -47l260 -76l228 -524l86 -22l-11 -68l-207 4l-178 -4l-264 657l-10 11h-103l-90 -580l148 -20l-15 -68l-303 4zM545 766h205 q213 118 213 358q0 114 -53.5 177.5t-151.5 64.5h-119z" />
<glyph unicode="S" horiz-adv-x="1046" d="M29 86l77 358h95l6 -215q60 -62 168.5 -107t212.5 -46q71 32 107 88.5t36 128.5q0 77 -36.5 130.5t-110.5 113.5l-201 163q-97 79 -148 157t-51 175q0 121 79.5 210t246.5 157l182 71q259 0 410 -100l-66 -342h-84l-41 225q-124 115 -303 121q-157 -55 -157 -186 q0 -65 34 -111.5t119 -115.5l215 -179q46 -38 76 -69.5t57.5 -73.5t40.5 -93.5t13 -113.5q0 -124 -87.5 -232t-238.5 -163l-205 -74q-137 0 -253.5 33.5t-192.5 89.5z" />
<glyph unicode="T" horiz-adv-x="1212" d="M129 1026l59 410l578 -4l569 4l-59 -410h-70l-84 328l-219 2l-194 -1270l180 -20l-15 -68l-333 4l-320 -4l2 68l180 20l197 1270l-221 -2l-180 -328h-70z" />
<glyph unicode="U" horiz-adv-x="1341" d="M162 1372l12 64l277 -4l297 4l-3 -64l-137 -22l-139 -871q-7 -42 -6 -79q0 -116 61 -194q82 -104 250 -104q87 31 141 72.5t92 115t56 187.5l139 873l-151 22l14 64l205 -4l198 4l-2 -64l-151 -22l-135 -852q-28 -185 -108.5 -295.5t-260.5 -167.5l-207 -72 q-448 0 -448 394q0 60 10 128l133 865z" />
<glyph unicode="V" horiz-adv-x="1359" d="M158 1372l12 64l309 -4l279 4l-2 -64l-156 -22l180 -1067l-14 -82l502 1149l-160 22l12 64l209 -4l168 4l-2 -64l-117 -20l-594 -1321l-249 -62l-250 1383z" />
<glyph unicode="W" horiz-adv-x="1988" d="M154 1370l14 66l307 -4l266 4l-2 -66l-149 -20l151 -1065l-14 -72l326 825l-47 314l-109 18l12 66l293 -4l285 4l-4 -66l-166 -20l149 -1065l-12 -72l449 1137l-170 20l12 66l215 -4l168 4l-2 -66l-113 -18l-543 -1321l-247 -64l-131 889l8 59l-355 -884l-245 -64 l-219 1385z" />
<glyph unicode="X" horiz-adv-x="1433" d="M-45 -2l2 68l154 20l510 596l-351 670l-106 20l12 64l250 -4l324 4l-2 -66l-140 -20l223 -449l3 -45l415 494l-151 20l12 66l231 -4l172 4l-2 -66l-133 -18l-487 -561l369 -705l98 -20l-10 -68l-248 4l-322 -4l2 68l140 20l-240 479v49l-432 -528l145 -20l-12 -68l-231 4 z" />
<glyph unicode="Y" horiz-adv-x="1347" d="M158 1372l12 64l268 -4l310 4l-3 -66l-149 -20l246 -631v-62l424 693l-158 20l12 66l211 -4l158 2l-2 -64l-111 -20l-489 -777l-76 -487l188 -20l-12 -68l-342 4l-338 -4l2 68l197 20l76 492l-318 772z" />
<glyph unicode="Z" horiz-adv-x="1206" d="M-8 63l901 1258l55 37l-495 -6l-195 -326h-68l66 408h1012l14 -58l-899 -1263l-53 -35l534 6l234 348h67l-102 -432h-1063z" />
<glyph unicode="[" horiz-adv-x="679" d="M18 -471q171 979 185 1055l155 880l166 -2l254 2l-12 -65l-244 -17q-104 -556 -145 -792l-168 -979l240 -17l-13 -65l-241 2z" />
<glyph unicode="\" horiz-adv-x="870" d="M203 1470h98l586 -1941h-103z" />
<glyph unicode="]" horiz-adv-x="679" d="M-123 -471l10 65l248 17q119 652 168 932l141 839l-237 17l10 65l234 -2l188 2q-158 -884 -166 -925l-176 -1010l-186 2z" />
<glyph unicode="^" horiz-adv-x="774" d="M154 942l344 502h63l172 -502h-135l-94 344l-215 -344h-135z" />
<glyph unicode="_" horiz-adv-x="1202" d="M-57 -231l16 98h1139l-19 -98h-1136z" />
<glyph unicode="`" horiz-adv-x="962" d="M319 1501h256l27 -360h-84z" />
<glyph unicode="a" horiz-adv-x="1077" d="M61 338q0 187 110 334t304 241l195 95q72 0 159 -22.5t166 -61.5l-143 -818l176 119l31 -39l-297 -219l-191 78l29 160l21 51l-326 -287q-234 89 -234 369zM346 461q0 -186 98 -281l174 135l89 504q-39 24 -94 39.5t-101 15.5q-80 -71 -123 -180.5t-43 -232.5z" />
<glyph unicode="b" horiz-adv-x="1044" d="M70 76l223 1257l-187 -45l-16 51l418 125l67 -53l-104 -596l-25 -51l330 244q111 -30 174.5 -123t63.5 -242q0 -185 -103 -341.5t-280 -233.5l-215 -99q-198 7 -346 107zM356 172q36 -30 94.5 -52t104.5 -22q89 58 130.5 176t41.5 244q0 224 -111 295l-163 -102z" />
<glyph unicode="c" horiz-adv-x="901" d="M68 356q0 185 103 318t312 235l199 99q104 -9 227 -78l-137 -213q-118 79 -262 135q-158 -118 -158 -354q0 -125 56.5 -214.5t156.5 -133.5q107 53 234 133l30 -43q-105 -78 -251 -170l-154 -101q-148 8 -252 112.5t-104 274.5z" />
<glyph unicode="d" horiz-adv-x="1118" d="M68 356q0 181 102 323.5t283 229.5l198 99q45 -3 101 -21l61 348l-182 -47l-19 51l418 125l66 -51l-230 -1307l176 121l31 -39l-295 -221l-190 82l26 160l23 49l-320 -289q-116 42 -182.5 139t-66.5 248zM352 467q0 -177 113 -281l168 131l90 510q-98 56 -213 56 q-74 -67 -116 -181t-42 -235z" />
<glyph unicode="e" horiz-adv-x="933" d="M68 362q0 185 101 334.5t294 223.5l235 88q92 -18 147.5 -79.5t55.5 -156.5q0 -85 -33 -168l-518 -153v-11q13 -105 71.5 -180t145.5 -108q145 63 260 133l31 -41q-142 -95 -293 -178l-164 -97q-139 18 -236 124t-97 269zM346 528q0 -16 2 -28l244 92q20 57 20 137 q0 61 -27 106t-67 56q-80 -52 -125 -149t-47 -214z" />
<glyph unicode="f" horiz-adv-x="684" d="M-272 -481l43 237h239q46 56 68 183l162 931h-164l8 39l49 43h121l8 56q20 94 77 174.5t136 128.5l254 153h182l-34 -204h-261q-46 -43 -69 -166l-25 -148h207l-14 -76h-207l-150 -858q-31 -168 -243 -315l-254 -178h-133z" />
<glyph unicode="g" horiz-adv-x="1062" d="M25 -481l43 239h419q33 38 60.5 97t36.5 120l39 232l24 51l-317 -287q-118 42 -186 136.5t-68 242.5q0 181 110.5 324.5t309.5 238.5l190 95q77 -2 169.5 -23.5t166.5 -58.5l-160 -895q-7 -42 -35.5 -84.5t-81.5 -89t-102 -82t-129 -90.5l-250 -166h-239zM360 465 q0 -190 113 -281l170 131l90 506q-91 58 -201 58q-84 -67 -128 -180.5t-44 -233.5z" />
<glyph unicode="h" horiz-adv-x="1134" d="M76 0l235 1335l-182 -47l-18 51l419 125l66 -53l-109 -604l-18 -37l344 238q134 0 186 -65q36 -45 36 -121q0 -34 -7 -74l-115 -639l177 118l30 -39l-299 -221l-188 82l115 651q3 19 3 34q0 75 -69 75q-56 0 -145 -59l-68 -43l-123 -707h-270z" />
<glyph unicode="i" horiz-adv-x="624" d="M59 848l398 158l73 -66l-145 -831l174 118l31 -39l-299 -221l-189 82l144 809l-168 -55zM313 1180l6 123l46 116l81 15l154 -15v-133l-43 -106l-78 -19z" />
<glyph unicode="j" horiz-adv-x="610" d="M-256 -481l43 235h246q44 77 65 203l160 901l-170 -55l-16 45l395 158l74 -66l-158 -899q-29 -162 -258 -332l-260 -190h-121zM324 1180l6 123l47 116l82 15l151 -15v-133l-45 -106l-73 -19z" />
<glyph unicode="k" horiz-adv-x="1101" d="M76 0l233 1335l-182 -45l-16 49l417 125l66 -51l-145 -831l20 4l375 401h219l-55 -264h-258q-23 -4 -87 -47.5t-94 -69.5l-45 -35l215 -61l174 -391l144 96l28 -39l-288 -209l-166 66l-189 512l-98 -545h-268z" />
<glyph unicode="l" horiz-adv-x="624" d="M90 49l225 1284l-180 -45l-18 51l418 125l65 -53l-229 -1302l178 118l31 -39l-299 -221z" />
<glyph unicode="m" horiz-adv-x="1665" d="M59 848l398 158l71 -64l-24 -141l-17 -37l326 244q217 0 217 -188q0 -19 -2 -40l-2 -10l317 238q218 0 218 -186q0 -34 -7 -74l-114 -644l178 121l31 -39l-299 -219l-191 80l115 651q3 20 3 36q0 73 -58 73q-46 0 -125 -57l-76 -52l-127 -698h-270l122 700q4 22 4 40 q0 69 -59 69q-49 0 -123 -57l-78 -52l-125 -700h-268l148 858l-164 -55z" />
<glyph unicode="n" horiz-adv-x="1150" d="M59 848l398 158l71 -64l-22 -135l-19 -37l338 238q220 0 220 -186q0 -34 -7 -74l-112 -642l178 119l31 -39l-299 -219l-191 80l115 653q3 19 3 35q1 27 -9 45q-16 29 -56 29q-60 0 -143 -59l-68 -43l-125 -707h-268l150 858l-166 -55z" />
<glyph unicode="o" horiz-adv-x="1044" d="M68 371q0 185 102 331t299 236l156 70q168 0 279.5 -106t111.5 -296q0 -188 -102.5 -336t-301.5 -233l-155 -68q-168 0 -278.5 106t-110.5 296zM352 440q0 -159 54 -250t143 -116q90 50 136 182.5t46 280.5q0 161 -53.5 250t-145.5 114q-90 -52 -135 -182t-45 -279z" />
<glyph unicode="p" horiz-adv-x="1097" d="M23 -471l233 1329l-166 -55l-16 45l395 158l72 -58l-23 -135l-20 -47l321 242q113 -28 177.5 -122.5t64.5 -246.5q0 -183 -95 -337t-266 -236l-198 -97q-61 8 -133 37v-55l-76 -422h-270zM403 166q46 -32 102.5 -52t102.5 -20q88 59 127 177t39 247q0 223 -115 291 l-159 -100z" />
<glyph unicode="q" horiz-adv-x="1042" d="M68 348q0 185 107 336.5t290 237.5l182 86q83 -2 189.5 -24t175.5 -54l-248 -1401h-270l118 666l25 61l-315 -287q-121 41 -187.5 136t-66.5 243zM352 469q0 -186 117 -276l164 120l92 525q-44 22 -103.5 35.5t-107.5 13.5q-81 -63 -121.5 -178t-40.5 -240z" />
<glyph unicode="r" horiz-adv-x="862" d="M59 848l398 158l61 -58l-49 -289l-33 -122l289 450h170l-55 -278h-183q-14 -8 -46.5 -43.5t-77 -87.5t-48.5 -56l-41 -47l-82 -475h-270l152 858l-166 -55z" />
<glyph unicode="s" horiz-adv-x="808" d="M10 66l109 198q218 -124 336 -178q61 24 61 82q0 37 -19 68t-69 71l-197 150q-108 81 -108 202q0 163 229 265l185 84q98 -11 260 -84l-115 -201q-163 103 -309 166q-51 -22 -51 -76q0 -33 18.5 -60.5t65.5 -62.5l194 -147q64 -50 90.5 -102.5t26.5 -116.5 q0 -180 -211 -261l-244 -94q-50 11 -130 43t-122 54z" />
<glyph unicode="t" horiz-adv-x="733" d="M82 868l8 41l49 41h119l16 101l244 196h62l-54 -301h219l-14 -78h-219l-135 -764l260 119l22 -41l-370 -215l-191 78l146 823h-162z" />
<glyph unicode="u" horiz-adv-x="1144" d="M55 852l398 154l73 -64l-118 -670q-4 -19 -4 -34q0 -26 11 -44q17 -26 52 -26q46 0 137 61l68 50l123 698h270l-152 -871l179 117l28 -39l-303 -217l-184 74l22 135l21 41l-332 -248q-130 -1 -184 65q-37 46 -38 122q0 33 7 71l113 633l-168 -53z" />
<glyph unicode="v" horiz-adv-x="978" d="M-8 852l395 156l72 -70l10 -786l-10 -66l377 573l-185 211l232 138l86 -90l-43 -269l-457 -678l-262 47l-27 846l-170 -57z" />
<glyph unicode="w" horiz-adv-x="1470" d="M-8 852l389 156l78 -70l12 -764l-8 -57l250 401l-13 371l279 94l12 -811l-8 -59l346 553l-176 204l223 138l84 -90l-35 -256l-454 -691l-242 47l-10 334l14 70l-282 -451l-244 47l-27 846l-170 -57z" />
<glyph unicode="x" horiz-adv-x="1064" d="M-8 -8l55 268h203q15 4 56.5 47t72.5 80l45 53l-127 434l-184 -61l-19 45l383 154l80 -64l86 -299v-47l231 385h222l-56 -266h-196q-7 -2 -18 -11t-25.5 -24.5t-25.5 -28t-27.5 -31.5t-20.5 -24l-53 -51l131 -445l190 117l29 -39l-305 -217l-172 76l-92 301v43l-246 -395 h-217z" />
<glyph unicode="y" horiz-adv-x="1009" d="M-20 850l372 160l88 -60l111 -844l319 566l-180 198l221 138l88 -86l-38 -267l-343 -592l-344 -544h-278l45 260h248l235 274l-233 -47l-125 854l-168 -55z" />
<glyph unicode="z" horiz-adv-x="925" d="M-18 23l694 739l-101 -53l-362 41l-59 -72l-43 16l153 305l582 -59l59 41l43 -31l-655 -704l86 39l399 -64l80 76l39 -14l-164 -314l-606 90l-94 -71z" />
<glyph unicode="{" horiz-adv-x="669" d="M76 520l2 21q42 15 72 36t47.5 40.5t30 51t18 54.5t12.5 65l66 390q23 127 126 206.5t232 79.5h98l-12 -65h-76q-62 0 -109.5 -50.5t-66.5 -166.5l-61 -381q-5 -34 -12 -59.5t-21 -56t-34.5 -54t-53 -46.5t-76.5 -40l131 -115l-115 -618q-23 -116 8 -167t97 -51h74 l-13 -65h-110q-129 0 -199 79t-47 208l104 583z" />
<glyph unicode="|" horiz-adv-x="802" d="M193 -502l346 1972h100l-346 -1972h-100z" />
<glyph unicode="}" horiz-adv-x="669" d="M-123 -471l12 65h74q64 0 111.5 51t64.5 167l82 489q8 54 63 121.5t128 99.5q-31 11 -80 67.5t-45 80.5l94 512q24 116 -6 166.5t-96 50.5h-76l12 65h111q129 0 198.5 -78.5t46.5 -207.5l-88 -498q-3 -23 38.5 -77t70.5 -73l-2 -18q-69 -22 -115.5 -86.5t-58.5 -132.5 l-84 -477q-23 -127 -126 -207t-231 -80h-98z" />
<glyph unicode="~" horiz-adv-x="1419" d="M117 416l106 170l209 65l709 -129l116 125h66l-111 -172l-204 -63l-709 129l-117 -125h-65z" />
<glyph unicode="&#xa1;" horiz-adv-x="712" d="M-23 -502l132 613l153 381h90l13 -381l-89 -613h-299zM221 709l8 127l35 114l178 13l64 -13l-10 -133l-33 -108l-176 -15z" />
<glyph unicode="&#xa2;" horiz-adv-x="950" d="M80 356q0 185 103.5 318t312.5 235l67 33l33 180h96l-24 -127l26 13q105 -10 228 -78l-138 -213q-118 79 -262 135q-157 -117 -157 -354q0 -125 56.5 -214.5t156.5 -133.5q102 50 233 133l31 -43q-99 -74 -252 -170l-113 -72l-26 -162h-97l23 141q-129 26 -213 126.5 t-84 252.5z" />
<glyph unicode="&#xa3;" horiz-adv-x="1181" d="M27 -2l6 55l162 58l102 577h-154l9 43l45 39h114l43 248q27 140 123.5 231t265.5 146q1 0 54 16t106 29.5t58 9.5q36 -6 104.5 -35t103.5 -53l-125 -168q-129 118 -258 152q-100 -54 -131 -238l-61 -338h305l-14 -84l-305 2l-64 -364q-10 -61 -58.5 -138t-86.5 -102 l473 2l153 256h84l-88 -344l-719 4z" />
<glyph unicode="&#xa4;" d="M102 330l150 127q-57 98 -45 231q15 180 143 305l-112 137l71 62l115 -139q132 92 281 92q71 0 138 -24t115 -66l160 135l49 -62l-155 -133q72 -110 57 -250q-12 -164 -135 -290l102 -123l-73 -62l-99 121q-142 -102 -297 -102q-79 0 -149 27t-117 77l-147 -127zM283 690 q-12 -140 73 -234t226 -94q151 0 275 114t136 269q12 139 -74.5 233.5t-228.5 94.5q-152 0 -273.5 -114t-133.5 -269z" />
<glyph unicode="&#xa5;" horiz-adv-x="1359" d="M162 1372l10 64l277 -4l303 4l-2 -66l-150 -20l242 -631v-62l418 693l-156 20l12 66l209 -4l160 2l-2 -64l-109 -20l-487 -777l-2 -6h276l-14 -71h-273l-18 -125h266l-12 -74h-266l-31 -211l188 -20l-14 -68l-342 4l-338 -4l2 68l197 20l33 211h-256l12 74h254l20 125 h-247l12 71h246l2 11l-314 772z" />
<glyph unicode="&#xa6;" horiz-adv-x="802" d="M193 -502l153 881h100l-155 -881h-98zM385 590l154 880h100l-156 -880h-98z" />
<glyph unicode="&#xa7;" horiz-adv-x="1163" d="M20 -305l140 164q60 -64 155 -141t164 -111l15 12q110 63 110 172q1 93 -45.5 161.5t-167.5 172.5q-56 48 -79 68.5t-64 59.5t-58 63.5t-38.5 60t-29 70t-7.5 73.5q0 117 74.5 208t191.5 132q-74 77 -74 193q0 130 98 227t267 139l176 47q51 -7 131.5 -54.5t134.5 -100.5 l-151 -131q-45 50 -124.5 107t-142.5 81l-20 -10q-121 -68 -121 -193q0 -69 34 -126t116 -126l348 -301v-108q0 -234 -287 -354q92 -92 92 -236q0 -41 -8 -77t-29 -74.5t-54.5 -71t-87.5 -64t-126 -55.5l-229 -74q-58 11 -153 75t-151 122zM330 647q0 -74 48.5 -135 t168.5 -162q164 -137 174 -149q104 65 104 194v51l-219 193q-157 133 -186 172q-90 -58 -90 -164z" />
<glyph unicode="&#xa8;" horiz-adv-x="1026" d="M213 1212l8 115l39 94l119 15l78 -15l-4 -110l-41 -99l-115 -12zM594 1212l4 115l43 94l117 15l78 -15l-5 -110l-40 -99l-115 -12z" />
<glyph unicode="&#xa9;" horiz-adv-x="1726" d="M137 729q0 158 54 286.5t154.5 218.5t238.5 147.5t311 82.5q153 -2 290 -54t242 -146.5t166.5 -239t61.5 -319.5q0 -158 -54 -286.5t-154 -218.5t-237.5 -148t-310.5 -83q-154 2 -291.5 54t-242.5 147t-166.5 239.5t-61.5 319.5zM281 729q0 -135 40 -250.5t104 -193.5 t146 -133.5t164.5 -81t159.5 -25.5q123 0 234 45.5t196 128t135.5 208.5t50.5 278q0 136 -40 251.5t-104 193.5t-145.5 133.5t-163.5 80.5t-159 25q-123 0 -234.5 -45.5t-197 -128t-136 -208.5t-50.5 -278zM469 696q0 389 483 449q155 0 285 -74v-213h-53l-74 158 q-70 78 -166 78q-111 0 -180.5 -95t-69.5 -270q0 -168 68.5 -276.5t189.5 -108.5q83 0 158 68l84 180h53l-10 -221q-166 -67 -313 -80q-92 0 -173.5 26t-144.5 75.5t-100 128t-37 175.5z" />
<glyph unicode="&#xaa;" horiz-adv-x="882" d="M82 930q0 147 90 264.5t248 189.5l151 76q122 0 265 -65l-119 -645l139 90l25 -31l-236 -174l-156 61l23 127l18 43l-262 -229q-186 67 -186 293zM307 1026q0 -137 76 -219l145 108l72 396q-65 43 -154 43q-65 -55 -102 -142.5t-37 -185.5z" />
<glyph unicode="&#xab;" horiz-adv-x="1046" d="M72 481l452 451h109l-342 -453l184 -448h-113zM475 481l453 451h108l-340 -453l183 -448h-113z" />
<glyph unicode="&#xac;" d="M106 637v108h1055v-376h-108v268h-947z" />
<glyph unicode="&#xad;" horiz-adv-x="757" d="M70 512l20 123h617l-21 -123h-616z" />
<glyph unicode="&#xae;" horiz-adv-x="1208" d="M147 899q0 214 138 341.5t379 162.5q142 -1 258 -61t188 -179.5t72 -279.5q0 -215 -137 -342t-377 -162q-105 1 -199 36.5t-166 100.5t-114 164t-42 219zM240 899q0 -95 28 -175.5t72.5 -134t101 -91.5t113 -55t109.5 -17q85 0 161.5 30.5t135.5 87t94 144.5t35 195 q0 96 -27.5 177t-72 135t-101 91.5t-112.5 54.5t-109 17q-85 0 -162 -31t-136.5 -87.5t-94.5 -145t-35 -195.5zM403 647l54 6v484l-54 6l3 28l120 -2l193 2q75 0 125.5 -35.5t50.5 -101.5q0 -62 -56.5 -100t-154.5 -49l127 -35l117 -195l37 -8l-2 -31l-101 2l-78 -2 l-143 254l-4 4h-39v-221l53 -6l-2 -31l-121 2l-122 -2zM598 909h39q48 0 76 32t28 87q0 53 -26 84t-68 31l-49 -4v-230z" />
<glyph unicode="&#xaf;" horiz-adv-x="1003" d="M195 1241l22 129h596l-20 -129h-598z" />
<glyph unicode="&#xb0;" horiz-adv-x="774" d="M205 1221q0 65 21 115t64.5 88t100 65.5t137.5 52.5q131 0 226.5 -94.5t95.5 -226.5t-76 -209t-246 -115q-132 0 -227.5 96t-95.5 228zM328 1221q0 -83 59 -144t141 -61q84 0 141.5 60.5t57.5 144.5q0 83 -58.5 143.5t-140.5 60.5q-84 0 -142 -60t-58 -144z" />
<glyph unicode="&#xb1;" d="M100 0v109h1063v-109h-1063zM102 741v107h473v481h109v-481h473v-107h-473v-467h-109v467h-473z" />
<glyph unicode="&#xb2;" horiz-adv-x="745" d="M98 854l254 221q118 98 181 180.5t63 174.5q0 56 -24 93.5t-66 43.5l-51 -15l-78 -163h-121l10 145l299 92q120 0 179 -47.5t59 -130.5q0 -46 -19.5 -91t-47.5 -79.5t-74 -72.5t-83.5 -63.5t-91.5 -58.5l-229 -139l113 25h383v-39l-70 -113h-573z" />
<glyph unicode="&#xb3;" horiz-adv-x="649" d="M100 813l29 158h289q65 51 65 125q0 47 -39.5 78t-117.5 32l-9 33l76 43q142 70 142 195q0 36 -18.5 59.5t-45.5 26.5l-53 -13l-76 -155h-129l14 141l308 90q104 0 152 -35t48 -92q0 -76 -72 -127t-178 -72q110 -8 161.5 -50.5t51.5 -102.5q0 -41 -20.5 -77t-41 -57.5 t-72 -47.5t-70 -33.5t-79.5 -29.5l-6 -3t-5.5 -2t-6.5 -2l-194 -82h-103z" />
<glyph unicode="&#xb4;" horiz-adv-x="1013" d="M305 1141l162 360h256l-332 -360h-86z" />
<glyph unicode="&#xb5;" d="M88 -471l254 1448h270l-125 -705q-9 -51 8 -77.5t52 -26.5q50 0 135 61l70 47l125 701h270l-154 -862l181 108l28 -39l-303 -219l-184 78l20 131l21 43l-332 -250q-61 0 -109 18.5t-69 53.5v-102l98 -408h-256z" />
<glyph unicode="&#xb6;" horiz-adv-x="1128" d="M109 1085q0 58 26.5 110t76 95t105.5 76.5t129 67.5h584v-74l-104 -19v-1669h-105v1676h-241v-1676h-107v1108q-95 0 -176.5 34t-134.5 105t-53 166z" />
<glyph unicode="&#xb7;" horiz-adv-x="927" d="M383 700l12 136l35 112l180 17l66 -17l-8 -131l-37 -117l-180 -12z" />
<glyph unicode="&#xb8;" horiz-adv-x="1226" d="M352 -504l64 98h162q55 42 55 115q0 113 -123 117l160 215l51 -21l-80 -110q78 -6 121 -45.5t43 -100.5q0 -36 -15.5 -67.5t-36 -52t-55 -41t-59 -31.5t-61.5 -25l-136 -51h-90z" />
<glyph unicode="&#xb9;" horiz-adv-x="624" d="M131 815l4 49l166 15l117 596l12 18l-35 -20l-147 -37l-10 51l333 125h72l-143 -733l159 -15l-8 -49l-258 2z" />
<glyph unicode="&#xba;" horiz-adv-x="860" d="M96 954q0 146 83 263t243 188l123 55q135 0 225 -84t90 -235q0 -149 -82.5 -267t-242.5 -186l-123 -53q-136 0 -226 83.5t-90 235.5zM330 1008q0 -126 41.5 -197.5t111.5 -91.5q70 40 107 145t37 223q0 126 -42 196.5t-114 90.5q-70 -40 -105.5 -144t-35.5 -222z" />
<glyph unicode="&#xbb;" horiz-adv-x="1075" d="M45 31l340 448l-182 453h108l295 -451l-450 -450h-111zM449 31l339 448l-182 453h109l295 -451l-451 -450h-110z" />
<glyph unicode="&#xbc;" horiz-adv-x="1640" d="M113 645l4 49l166 13l116 598l13 18l-37 -23l-146 -34l-12 49l334 125h74l-144 -733l160 -13l-8 -49l-258 2zM256 -102l1067 1556h102l-1063 -1556h-106zM848 295l450 508h220l-11 -47l-585 -455l55 21h211l20 106l172 107h33l-43 -213h143l-14 -82h-143l-45 -240h-185 l48 240h-302z" />
<glyph unicode="&#xbd;" horiz-adv-x="1683" d="M113 645l4 49l166 13l116 598l13 18l-37 -23l-146 -34l-12 49l334 125h74l-144 -733l160 -13l-8 -49l-258 2zM254 -102l1067 1556h102l-1061 -1556h-108zM856 37l254 221q58 48 96 84.5t75.5 82.5t56 93t18.5 96q0 55 -25 92.5t-67 43.5l-50 -15l-79 -164h-121l12 146 l299 94q120 0 179 -48t59 -130q0 -47 -20 -92t-48 -80t-74.5 -73t-83 -62.5t-90.5 -57.5l-231 -141l112 25h383v-39l-67 -113h-576z" />
<glyph unicode="&#xbe;" horiz-adv-x="1587" d="M119 641l28 158h289q68 51 68 125q0 47 -41 79t-117 33l-10 31l78 43q69 34 104 85t35 110q0 37 -17.5 60t-46.5 26l-51 -13l-78 -153h-129l15 139l307 92q104 0 153.5 -36t47.5 -93q0 -76 -71.5 -126t-178.5 -73q110 -8 161.5 -50.5t51.5 -102.5q0 -41 -19 -76 t-47 -59.5t-69 -46.5t-76.5 -36.5t-77.5 -29.5q-8 -3 -12 -4l-195 -82h-102zM217 -102l1067 1556h102l-1060 -1556h-109zM801 295l450 508h219l-8 -47l-588 -455l58 21h209l20 106l174 107h31l-41 -213h143l-16 -82h-143l-45 -240h-185l45 240h-299z" />
<glyph unicode="&#xbf;" horiz-adv-x="907" d="M-76 -184q0 251 361 366l129 47l106 281h84l-33 -252l-145 -84q-91 -55 -144 -144.5t-53 -193.5q0 -91 42.5 -165.5t105.5 -86.5l47 17l104 239h131l-6 -223l-362 -119q-156 0 -261.5 90.5t-105.5 227.5zM477 707l10 127l35 114l176 15l66 -15l-10 -131l-35 -110 l-174 -15z" />
<glyph unicode="&#xc0;" horiz-adv-x="1413" d="M-53 -2l4 68l127 18l753 1311l263 73l135 -1384l125 -18l-13 -68l-327 4l-277 -4l4 68l158 20l-29 395h-458l-224 -395l158 -20l-14 -68l-195 4zM453 559h411l-45 604l6 70zM735 1853h254l49 -284h-86z" />
<glyph unicode="&#xc1;" horiz-adv-x="1413" d="M-53 -2l4 68l127 18l753 1311l263 73l135 -1384l125 -18l-13 -68l-327 4l-277 -4l4 68l158 20l-29 395h-458l-224 -395l158 -20l-14 -68l-195 4zM453 559h411l-45 604l6 70zM909 1569l125 284h269l-299 -284h-95z" />
<glyph unicode="&#xc2;" horiz-adv-x="1413" d="M-53 -2l4 68l127 18l753 1311l263 73l135 -1384l125 -18l-13 -68l-327 4l-277 -4l4 68l158 20l-29 395h-458l-224 -395l158 -20l-14 -68l-195 4zM453 559h411l-45 604l6 70zM684 1569l287 291h159l181 -291h-105l-176 149h-8l-236 -149h-102z" />
<glyph unicode="&#xc3;" horiz-adv-x="1415" d="M-53 -2l4 68l127 18l753 1311l263 73l135 -1384l125 -18l-13 -68l-327 4l-277 -4l4 68l158 20l-29 395h-458l-224 -395l158 -20l-14 -68l-195 4zM453 559h411l-45 604l6 70zM653 1571l109 239l125 39l358 -131l101 127h47l-111 -248l-123 -30l-360 131l-99 -127h-47z" />
<glyph unicode="&#xc4;" horiz-adv-x="1413" d="M-53 -2l4 68l127 18l753 1311l263 73l135 -1384l125 -18l-13 -68l-327 4l-277 -4l4 68l158 20l-29 395h-458l-224 -395l158 -20l-14 -68l-195 4zM453 559h411l-45 604l6 70zM680 1587l6 117l41 96l119 12l80 -12l-4 -112l-43 -101l-115 -12zM1124 1587l6 117l41 96 l117 12l80 -12l-4 -112l-39 -101l-119 -12z" />
<glyph unicode="&#xc5;" horiz-adv-x="1413" d="M-53 -2l4 68l127 18l753 1311l263 73l135 -1384l125 -18l-13 -68l-327 4l-277 -4l4 68l158 20l-29 395h-458l-224 -395l158 -20l-14 -68l-195 4zM453 559h411l-45 604l6 70zM766 1731q0 49 18 85.5t54.5 61.5t70.5 39t88 31q236 0 236 -215q0 -39 -11.5 -69.5t-27.5 -50 t-47 -36.5t-55.5 -26.5t-66.5 -23.5q-14 -5 -21 -7q-46 0 -87 11t-75.5 34.5t-55 66t-20.5 99.5zM862 1731q0 -58 39 -97t98 -39q60 0 100 39t40 97q0 60 -40 99.5t-100 39.5q-59 0 -98 -39.5t-39 -99.5z" />
<glyph unicode="&#xc6;" horiz-adv-x="1847" d="M-55 -2l6 68l127 18l878 1352l189 -4l747 4l-32 -379h-62l-100 295l-400 4l-96 -623l203 4l141 244h51l-59 -287l-31 -286h-53l-63 241l-201 4l-84 -573l436 2l180 315h66l-80 -399l-780 4l-271 -4l2 68l146 20l86 569h-338l-360 -569l157 -20l-14 -68l-203 4zM600 731 h303l98 631z" />
<glyph unicode="&#xc7;" horiz-adv-x="1320" d="M100 582q0 125 36 244.5t108 230t193 200.5t278 142l229 74q202 0 373 -109l-19 -385h-81l-80 260q-129 102 -332 123q-179 -82 -274 -263t-95 -427q0 -241 103 -396.5t272 -193.5q128 48 219 121l160 286h88l-82 -380l-494 -146l-43 -53q78 -6 121 -45.5t43 -100.5 q0 -36 -15.5 -67.5t-36 -52t-55 -41t-59 -31.5t-61.5 -25l-135 -51h-90l63 98h162q55 42 55 115q0 113 -123 117l105 141q-245 20 -389 186.5t-144 428.5z" />
<glyph unicode="&#xc8;" horiz-adv-x="1224" d="M-12 -2l4 68l143 20l197 1264l-139 20l14 66l276 -4l787 4l-31 -387h-70l-100 303l-432 4l-88 -565l221 4l139 237h60l-60 -278l-30 -281h-60l-63 238l-217 4l-101 -635l482 2l182 321h72l-84 -405l-832 4zM584 1853h254l49 -284h-86z" />
<glyph unicode="&#xc9;" horiz-adv-x="1224" d="M-12 -2l4 68l143 20l197 1264l-139 20l14 66l276 -4l787 4l-31 -387h-70l-100 303l-432 4l-88 -565l221 4l139 237h60l-60 -278l-30 -281h-60l-63 238l-217 4l-101 -635l482 2l182 321h72l-84 -405l-832 4zM727 1569l125 284h268l-297 -284h-96z" />
<glyph unicode="&#xca;" horiz-adv-x="1224" d="M-12 -2l4 68l143 20l197 1264l-139 20l14 66l276 -4l787 4l-31 -387h-70l-100 303l-432 4l-88 -565l221 4l139 237h60l-60 -278l-30 -281h-60l-63 238l-217 4l-101 -635l482 2l182 321h72l-84 -405l-832 4zM481 1569l289 291h160l178 -291h-102l-181 149h-6l-235 -149 h-103z" />
<glyph unicode="&#xcb;" horiz-adv-x="1224" d="M-12 -2l4 68l143 20l197 1264l-139 20l14 66l276 -4l787 4l-31 -387h-70l-100 303l-432 4l-88 -565l221 4l139 237h60l-60 -278l-30 -281h-60l-63 238l-217 4l-101 -635l482 2l182 321h72l-84 -405l-832 4zM483 1587l6 117l41 96l117 12l80 -12l-2 -112l-43 -101 l-117 -12zM928 1587l4 117l43 96l117 12l79 -12l-4 -112l-41 -101l-116 -12z" />
<glyph unicode="&#xcc;" horiz-adv-x="686" d="M-8 -2l2 68l145 20l197 1264l-137 20l12 66l293 -4l282 4l-4 -66l-141 -20l-195 -1264l136 -20l-13 -68l-288 4zM291 1853h256l49 -284h-88z" />
<glyph unicode="&#xcd;" horiz-adv-x="686" d="M-8 -2l2 68l145 20l197 1264l-137 20l12 66l293 -4l282 4l-4 -66l-141 -20l-195 -1264l136 -20l-13 -68l-288 4zM463 1569l125 284h270l-299 -284h-96z" />
<glyph unicode="&#xce;" horiz-adv-x="686" d="M-8 -2l2 68l145 20l197 1264l-137 20l12 66l293 -4l282 4l-4 -66l-141 -20l-195 -1264l136 -20l-13 -68l-288 4zM203 1569l289 291h159l178 -291h-102l-178 149h-6l-238 -149h-102z" />
<glyph unicode="&#xcf;" horiz-adv-x="686" d="M-8 -2l2 68l145 20l197 1264l-137 20l12 66l293 -4l282 4l-4 -66l-141 -20l-195 -1264l136 -20l-13 -68l-288 4zM219 1589l8 115l39 96l119 12l78 -12l-4 -112l-43 -99l-113 -12zM631 1589l6 115l43 96l115 12l79 -12l-4 -112l-41 -99l-116 -12z" />
<glyph unicode="&#xd0;" horiz-adv-x="1404" d="M-10 -2l2 68l141 20l96 629h-139l12 71h140l88 566l-137 20l14 64l301 -4l313 4q262 1 419 -158t157 -416q2 -271 -149.5 -483.5t-442.5 -312.5l-195 -68l-325 4zM442 102h250q164 100 267 298t104 444q0 227 -92 369t-226 145h-108l-88 -572h217l-12 -71h-217z" />
<glyph unicode="&#xd1;" horiz-adv-x="1388" d="M-12 -2l4 68l141 20l199 1262l-133 22l10 66l203 -4l223 4l457 -983l14 -109l147 1006l-145 20l14 66l185 -2l192 2v-66l-143 -20l-213 -1350h-197l-518 1163l-12 107l-178 -1184l155 -20l-16 -68l-197 4zM545 1571l110 239l123 39l359 -131l100 127h49l-110 -248 l-125 -30l-361 131l-96 -127h-49z" />
<glyph unicode="&#xd2;" horiz-adv-x="1460" d="M100 608q0 99 19.5 193.5t64 189t111.5 173.5t168 145t227 106l172 55q268 0 429 -176.5t161 -466.5q0 -99 -19.5 -193t-64.5 -188t-112 -173t-168 -145.5t-226 -107.5l-174 -57q-266 0 -427 177t-161 468zM434 639q0 -243 90 -400.5t236 -181.5q117 53 198 164.5 t119.5 257t38.5 318.5q0 244 -89.5 401.5t-233.5 179.5q-170 -72 -264.5 -274t-94.5 -465zM647 1853h256l49 -284h-86z" />
<glyph unicode="&#xd3;" horiz-adv-x="1460" d="M100 608q0 99 19.5 193.5t64 189t111.5 173.5t168 145t227 106l172 55q268 0 429 -176.5t161 -466.5q0 -99 -19.5 -193t-64.5 -188t-112 -173t-168 -145.5t-226 -107.5l-174 -57q-266 0 -427 177t-161 468zM434 639q0 -243 90 -400.5t236 -181.5q117 53 198 164.5 t119.5 257t38.5 318.5q0 244 -89.5 401.5t-233.5 179.5q-170 -72 -264.5 -274t-94.5 -465zM791 1569l124 284h269l-299 -284h-94z" />
<glyph unicode="&#xd4;" horiz-adv-x="1460" d="M100 608q0 99 19.5 193.5t64 189t111.5 173.5t168 145t227 106l172 55q268 0 429 -176.5t161 -466.5q0 -99 -19.5 -193t-64.5 -188t-112 -173t-168 -145.5t-226 -107.5l-174 -57q-266 0 -427 177t-161 468zM434 639q0 -243 90 -400.5t236 -181.5q117 53 198 164.5 t119.5 257t38.5 318.5q0 244 -89.5 401.5t-233.5 179.5q-170 -72 -264.5 -274t-94.5 -465zM582 1569l288 291h160l178 -291h-102l-178 149h-8l-236 -149h-102z" />
<glyph unicode="&#xd5;" horiz-adv-x="1460" d="M100 608q0 99 19.5 193.5t64 189t111.5 173.5t168 145t227 106l172 55q268 0 429 -176.5t161 -466.5q0 -99 -19.5 -193t-64.5 -188t-112 -173t-168 -145.5t-226 -107.5l-174 -57q-266 0 -427 177t-161 468zM434 639q0 -243 90 -400.5t236 -181.5q117 53 198 164.5 t119.5 257t38.5 318.5q0 244 -89.5 401.5t-233.5 179.5q-170 -72 -264.5 -274t-94.5 -465zM571 1571l109 239l125 39l358 -131l103 127h45l-111 -248l-123 -30l-360 131l-99 -127h-47z" />
<glyph unicode="&#xd6;" horiz-adv-x="1460" d="M100 608q0 99 19.5 193.5t64 189t111.5 173.5t168 145t227 106l172 55q268 0 429 -176.5t161 -466.5q0 -99 -19.5 -193t-64.5 -188t-112 -173t-168 -145.5t-226 -107.5l-174 -57q-266 0 -427 177t-161 468zM434 639q0 -243 90 -400.5t236 -181.5q117 53 198 164.5 t119.5 257t38.5 318.5q0 244 -89.5 401.5t-233.5 179.5q-170 -72 -264.5 -274t-94.5 -465zM580 1587l6 117l39 96l118 12l80 -12l-4 -112l-41 -101l-116 -12zM1024 1587l6 117l41 96l117 12l82 -12l-6 -112l-41 -101l-117 -12z" />
<glyph unicode="&#xd7;" d="M215 791l76 77l346 -346l340 342l76 -76l-340 -342l338 -337l-76 -76l-338 338l-342 -342l-76 77l342 340z" />
<glyph unicode="&#xd8;" horiz-adv-x="1460" d="M49 -31l180 209q-129 167 -129 430q0 99 19.5 193.5t64 189t111.5 173.5t168 145t227 106l172 55q223 0 375 -127l102 119h101l-148 -172q160 -177 160 -463q0 -99 -19.5 -193t-64.5 -188t-112 -173t-168 -145.5t-226 -107.5l-174 -57q-249 0 -405 156l-129 -150h-105z M434 639q0 -106 19 -203l604 699q-43 105 -110.5 167.5t-153.5 75.5q-170 -72 -264.5 -274t-94.5 -465zM477 344q40 -122 114 -197t169 -90q117 53 198 164.5t119.5 257t38.5 318.5q0 123 -31 254z" />
<glyph unicode="&#xd9;" horiz-adv-x="1341" d="M162 1372l12 64l277 -4l297 4l-3 -64l-137 -22l-139 -871q-27 -168 55 -272.5t250 -104.5q87 31 141 72.5t92 115t56 187.5l139 873l-151 22l14 64l205 -4l198 4l-2 -64l-151 -22l-135 -852q-28 -185 -108.5 -295.5t-260.5 -167.5l-207 -72q-516 0 -438 522l133 865z M655 1853h256l47 -284h-84z" />
<glyph unicode="&#xda;" horiz-adv-x="1341" d="M162 1372l12 64l277 -4l297 4l-3 -64l-137 -22l-139 -871q-27 -168 55 -272.5t250 -104.5q87 31 141 72.5t92 115t56 187.5l139 873l-151 22l14 64l205 -4l198 4l-2 -64l-151 -22l-135 -852q-28 -185 -108.5 -295.5t-260.5 -167.5l-207 -72q-516 0 -438 522l133 865z M834 1569l122 284h271l-299 -284h-94z" />
<glyph unicode="&#xdb;" horiz-adv-x="1341" d="M162 1372l12 64l277 -4l297 4l-3 -64l-137 -22l-139 -871q-27 -168 55 -272.5t250 -104.5q87 31 141 72.5t92 115t56 187.5l139 873l-151 22l14 64l205 -4l198 4l-2 -64l-151 -22l-135 -852q-28 -185 -108.5 -295.5t-260.5 -167.5l-207 -72q-516 0 -438 522l133 865z M590 1569l289 291h159l181 -291h-105l-178 149h-8l-236 -149h-102z" />
<glyph unicode="&#xdc;" horiz-adv-x="1341" d="M162 1372l12 64l277 -4l297 4l-3 -64l-137 -22l-139 -871q-27 -168 55 -272.5t250 -104.5q87 31 141 72.5t92 115t56 187.5l139 873l-151 22l14 64l205 -4l198 4l-2 -64l-151 -22l-135 -852q-28 -185 -108.5 -295.5t-260.5 -167.5l-207 -72q-516 0 -438 522l133 865z M588 1587l8 117l39 96l119 12l80 -12l-5 -112l-41 -101l-116 -12zM1034 1587l4 117l43 96l117 12l80 -12l-4 -112l-41 -101l-119 -12z" />
<glyph unicode="&#xdd;" horiz-adv-x="1347" d="M158 1372l12 64l268 -4l310 4l-3 -66l-149 -20l246 -631v-62l424 693l-158 20l12 66l211 -4l158 2l-2 -64l-111 -20l-489 -777l-76 -487l188 -20l-12 -68l-342 4l-338 -4l2 68l197 20l76 492l-318 772zM870 1569l123 284h271l-299 -284h-95z" />
<glyph unicode="&#xde;" horiz-adv-x="1200" d="M-12 -2l4 68l145 20l195 1264l-137 22l14 66l289 -4l284 4l-2 -66l-143 -22l-31 -207h232q189 1 298 -83t109 -226q0 -83 -32 -152t-94.5 -123t-140 -95.5t-181.5 -78.5l-164 -61h-154l-37 -238l164 -20l-14 -68l-318 4zM496 432h223q88 61 142 158t54 219q0 124 -54 191 t-152 69h-115z" />
<glyph unicode="&#xdf;" horiz-adv-x="1179" d="M-258 -481l43 235h223q49 70 70 187l160 927h-172l10 39l49 43h127l6 35q43 229 215 322l297 159q79 0 141.5 -12.5t113 -39t78 -73.5t27.5 -112q0 -93 -65.5 -167t-165.5 -122l-102 -57q-15 -26 -15 -62q0 -65 72 -131q4 -5 117 -102q82 -71 122 -133.5t40 -135.5 q0 -186 -224 -268l-217 -84q-44 12 -121 50t-118 63l116 186q136 -101 283 -176q33 10 52.5 36.5t19.5 57.5q0 51 -33 96t-113 117q-9 6 -52.5 44.5t-49.5 45.5q-90 83 -96 189q-3 63 18 112l131 123q133 123 133 279q0 82 -48.5 130t-102.5 52l-6 -4q-73 -56 -109.5 -127 t-52.5 -168l-187 -1055q-13 -84 -66.5 -157t-152.5 -144l-276 -198h-119z" />
<glyph unicode="&#xe0;" horiz-adv-x="1077" d="M61 338q0 187 110 334t304 241l195 95q72 0 159 -22.5t166 -61.5l-143 -818l176 119l31 -39l-297 -219l-191 78l29 160l21 51l-326 -287q-234 89 -234 369zM346 461q0 -186 98 -281l174 135l89 504q-39 24 -94 39.5t-101 15.5q-80 -71 -123 -180.5t-43 -232.5zM537 1501 h254l26 -360h-82z" />
<glyph unicode="&#xe1;" horiz-adv-x="1077" d="M61 338q0 187 110 334t304 241l195 95q72 0 159 -22.5t166 -61.5l-143 -818l176 119l31 -39l-297 -219l-191 78l29 160l21 51l-326 -287q-234 89 -234 369zM346 461q0 -186 98 -281l174 135l89 504q-39 24 -94 39.5t-101 15.5q-80 -71 -123 -180.5t-43 -232.5zM631 1141 l162 360h256l-332 -360h-86z" />
<glyph unicode="&#xe2;" horiz-adv-x="1077" d="M61 338q0 187 110 334t304 241l195 95q72 0 159 -22.5t166 -61.5l-143 -818l176 119l31 -39l-297 -219l-191 78l29 160l21 51l-326 -287q-234 89 -234 369zM346 461q0 -186 98 -281l174 135l89 504q-39 24 -94 39.5t-101 15.5q-80 -71 -123 -180.5t-43 -232.5zM438 1141 l283 364h135l154 -364h-84l-166 194h-4l-234 -194h-84z" />
<glyph unicode="&#xe3;" horiz-adv-x="1077" d="M61 338q0 187 110 334t304 241l195 95q72 0 159 -22.5t166 -61.5l-143 -818l176 119l31 -39l-297 -219l-191 78l29 160l21 51l-326 -287q-234 89 -234 369zM346 461q0 -186 98 -281l174 135l89 504q-39 24 -94 39.5t-101 15.5q-80 -71 -123 -180.5t-43 -232.5zM377 1186 l108 244l125 36l359 -131l100 129h47l-110 -250l-123 -30l-361 133l-98 -131h-47z" />
<glyph unicode="&#xe4;" horiz-adv-x="1077" d="M61 338q0 187 110 334t304 241l195 95q72 0 159 -22.5t166 -61.5l-143 -818l176 119l31 -39l-297 -219l-191 78l29 160l21 51l-326 -287q-234 89 -234 369zM346 461q0 -186 98 -281l174 135l89 504q-39 24 -94 39.5t-101 15.5q-80 -71 -123 -180.5t-43 -232.5zM453 1212 l8 115l39 94l116 15l78 -15l-2 -110l-43 -99l-114 -12zM831 1212l7 115l43 94l114 15l80 -15l-6 -110l-41 -99l-115 -12z" />
<glyph unicode="&#xe5;" horiz-adv-x="1077" d="M61 338q0 187 110 334t304 241l195 95q72 0 159 -22.5t166 -61.5l-143 -818l176 119l31 -39l-297 -219l-191 78l29 160l21 51l-326 -287q-234 89 -234 369zM346 461q0 -186 98 -281l174 135l89 504q-39 24 -94 39.5t-101 15.5q-80 -71 -123 -180.5t-43 -232.5zM539 1329 q0 48 18 84.5t54 61t71 39t88 30.5q234 0 234 -215q0 -48 -13.5 -81.5t-49.5 -57t-60 -34t-84 -30.5q-5 -2 -8 -3t-7 -2.5t-8 -2.5q-46 0 -86 11t-74.5 34t-54.5 65.5t-20 100.5zM635 1329q0 -60 38.5 -97.5t98.5 -37.5q59 0 99 38t40 97q0 60 -40 99.5t-99 39.5 q-60 0 -98.5 -39.5t-38.5 -99.5z" />
<glyph unicode="&#xe6;" horiz-adv-x="1462" d="M59 338q0 187 110 334t304 241l195 95q69 0 156.5 -26.5t164.5 -68.5l238 95q92 -18 147.5 -79.5t55.5 -156.5q0 -85 -33 -168l-520 -153v-11q0 -106 63 -180t156 -108q145 63 260 133l30 -41q-99 -66 -292 -178l-166 -97q-112 14 -200 89.5t-118 193.5l-315 -283 q-236 89 -236 369zM344 461q0 -184 100 -281l154 121q0 317 174 483q-146 90 -262 90q-80 -71 -123 -180.5t-43 -232.5zM877 502l243 88q21 62 21 139q0 61 -27 106t-67 56q-73 -49 -120 -166.5t-50 -222.5z" />
<glyph unicode="&#xe7;" horiz-adv-x="901" d="M68 356q0 185 103 318t312 235l199 99q104 -9 227 -78l-137 -213q-118 79 -262 135q-158 -118 -158 -354q0 -125 56.5 -214.5t156.5 -133.5q107 53 234 133l30 -43q-105 -78 -251 -170l-146 -97l-47 -63q76 -6 119 -45.5t43 -100.5q0 -36 -15.5 -67.5t-36 -52t-55.5 -41 t-59.5 -31.5t-61.5 -25l-135 -51h-92l68 98h157q60 44 60 115q0 61 -36 88t-91 29l115 151q-127 26 -212 127t-85 252z" />
<glyph unicode="&#xe8;" horiz-adv-x="933" d="M68 362q0 185 101 334.5t294 223.5l235 88q92 -18 147.5 -79.5t55.5 -156.5q0 -85 -33 -168l-518 -153v-11q13 -105 71.5 -180t145.5 -108q145 63 260 133l31 -41q-142 -95 -293 -178l-164 -97q-139 18 -236 124t-97 269zM346 528q0 -16 2 -28l244 92q20 57 20 137 q0 61 -27 106t-67 56q-80 -52 -125 -149t-47 -214zM403 1501h254l27 -360h-84z" />
<glyph unicode="&#xe9;" horiz-adv-x="933" d="M68 362q0 185 101 334.5t294 223.5l235 88q92 -18 147.5 -79.5t55.5 -156.5q0 -85 -33 -168l-518 -153v-11q13 -105 71.5 -180t145.5 -108q145 63 260 133l31 -41q-142 -95 -293 -178l-164 -97q-139 18 -236 124t-97 269zM346 528q0 -16 2 -28l244 92q20 57 20 137 q0 61 -27 106t-67 56q-80 -52 -125 -149t-47 -214zM541 1141l161 360h256l-331 -360h-86z" />
<glyph unicode="&#xea;" horiz-adv-x="933" d="M68 362q0 185 101 334.5t294 223.5l235 88q92 -18 147.5 -79.5t55.5 -156.5q0 -85 -33 -168l-518 -153v-11q13 -105 71.5 -180t145.5 -108q145 63 260 133l31 -41q-142 -95 -293 -178l-164 -97q-139 18 -236 124t-97 269zM346 528q0 -16 2 -28l244 92q20 57 20 137 q0 61 -27 106t-67 56q-80 -52 -125 -149t-47 -214zM350 1141l283 364h135l154 -364h-84l-164 194h-6l-234 -194h-84z" />
<glyph unicode="&#xeb;" horiz-adv-x="933" d="M68 362q0 185 101 334.5t294 223.5l235 88q92 -18 147.5 -79.5t55.5 -156.5q0 -85 -33 -168l-518 -153v-11q13 -105 71.5 -180t145.5 -108q145 63 260 133l31 -41q-142 -95 -293 -178l-164 -97q-139 18 -236 124t-97 269zM340 1212l6 115l41 94l117 15l78 -15l-4 -110 l-41 -99l-115 -12zM346 528q0 -16 2 -28l244 92q20 57 20 137q0 61 -27 106t-67 56q-80 -52 -125 -149t-47 -214zM719 1212l4 115l43 94l117 15l78 -15l-7 -110l-39 -99l-114 -12z" />
<glyph unicode="&#xec;" horiz-adv-x="624" d="M59 848l398 158l73 -66l-145 -831l174 118l31 -39l-299 -221l-189 82l144 809l-168 -55zM231 1501h254l27 -360h-82z" />
<glyph unicode="&#xed;" horiz-adv-x="624" d="M59 848l398 158l73 -66l-145 -831l174 118l31 -39l-299 -221l-189 82l144 809l-168 -55zM338 1141l164 360h256l-334 -360h-86z" />
<glyph unicode="&#xee;" horiz-adv-x="624" d="M59 848l398 158l73 -66l-145 -831l174 118l31 -39l-299 -221l-189 82l144 809l-168 -55zM131 1141l283 364h137l151 -364h-84l-163 194h-6l-234 -194h-84z" />
<glyph unicode="&#xef;" horiz-adv-x="624" d="M59 848l398 158l73 -66l-145 -831l174 118l31 -39l-299 -221l-189 82l144 809l-168 -55zM137 1212l6 115l39 94l119 15l78 -15l-4 -110l-41 -99l-115 -12zM516 1212l4 115l43 94l117 15l78 -15l-6 -110l-39 -99l-117 -12z" />
<glyph unicode="&#xf0;" horiz-adv-x="1064" d="M68 410q0 179 102.5 330.5t288.5 224.5l121 47q6 -1 84.5 -48.5t80.5 -48.5q-19 180 -145 322l-240 -119v72l187 94q-91 84 -197 113l25 71q173 -51 287 -125l225 113v-74l-164 -79q309 -231 309 -662q0 -127 -32.5 -229.5t-94.5 -175.5t-137 -123.5t-174 -89.5l-137 -54 q-178 10 -283.5 132.5t-105.5 308.5zM358 418q0 -85 15 -150t41.5 -103.5t55 -60.5t62.5 -32q102 51 154.5 200.5t52.5 352.5l-4 184q-33 21 -99 43.5t-91 24.5q-89 -41 -138 -172.5t-49 -286.5z" />
<glyph unicode="&#xf1;" horiz-adv-x="1150" d="M59 848l398 158l71 -64l-22 -135l-19 -37l338 238q260 0 213 -260l-112 -642l178 119l31 -39l-299 -219l-191 80l115 653q9 51 -6.5 80t-55.5 29q-60 0 -143 -59l-68 -43l-125 -707h-268l150 858l-166 -55zM358 1186l109 244l125 36l358 -131l101 129h47l-111 -250 l-123 -30l-362 133l-96 -131h-48z" />
<glyph unicode="&#xf2;" horiz-adv-x="1044" d="M68 371q0 185 102 331t299 236l156 70q168 0 279.5 -106t111.5 -296q0 -188 -102.5 -336t-301.5 -233l-155 -68q-168 0 -278.5 106t-110.5 296zM352 440q0 -159 54 -250t143 -116q90 50 136 182.5t46 280.5q0 161 -53.5 250t-145.5 114q-90 -52 -135 -182t-45 -279z M406 1501h253l27 -360h-82z" />
<glyph unicode="&#xf3;" horiz-adv-x="1044" d="M68 371q0 185 102 331t299 236l156 70q168 0 279.5 -106t111.5 -296q0 -188 -102.5 -336t-301.5 -233l-155 -68q-168 0 -278.5 106t-110.5 296zM352 440q0 -159 54 -250t143 -116q90 50 136 182.5t46 280.5q0 161 -53.5 250t-145.5 114q-90 -52 -135 -182t-45 -279z M575 1141l162 360h256l-331 -360h-87z" />
<glyph unicode="&#xf4;" horiz-adv-x="1044" d="M68 371q0 185 102 331t299 236l156 70q168 0 279.5 -106t111.5 -296q0 -188 -102.5 -336t-301.5 -233l-155 -68q-168 0 -278.5 106t-110.5 296zM352 440q0 -159 54 -250t143 -116q90 50 136 182.5t46 280.5q0 161 -53.5 250t-145.5 114q-90 -52 -135 -182t-45 -279z M379 1141l283 364h135l153 -364h-84l-164 194h-6l-233 -194h-84z" />
<glyph unicode="&#xf5;" horiz-adv-x="1044" d="M68 371q0 185 102 331t299 236l156 70q168 0 279.5 -106t111.5 -296q0 -188 -102.5 -336t-301.5 -233l-155 -68q-168 0 -278.5 106t-110.5 296zM336 1186l108 244l125 36l357 -131l102 129h47l-110 -250l-123 -30l-363 133l-96 -131h-47zM352 440q0 -159 54 -250 t143 -116q90 50 136 182.5t46 280.5q0 161 -53.5 250t-145.5 114q-90 -52 -135 -182t-45 -279z" />
<glyph unicode="&#xf6;" horiz-adv-x="1044" d="M68 371q0 185 102 331t299 236l156 70q168 0 279.5 -106t111.5 -296q0 -188 -102.5 -336t-301.5 -233l-155 -68q-168 0 -278.5 106t-110.5 296zM352 440q0 -159 54 -250t143 -116q90 50 136 182.5t46 280.5q0 161 -53.5 250t-145.5 114q-90 -52 -135 -182t-45 -279z M397 1212l6 115l41 94l119 15l78 -15l-4 -110l-43 -99l-113 -12zM776 1212l6 115l41 94l119 15l78 -15l-4 -110l-41 -99l-115 -12z" />
<glyph unicode="&#xf7;" d="M96 469v109h1075v-109h-1075zM502 145l14 111l174 14l68 -14l14 -129l-16 -115l-172 -12l-68 12zM502 905l14 109l174 16l68 -16l14 -127l-16 -115l-172 -12l-68 12z" />
<glyph unicode="&#xf8;" horiz-adv-x="1044" d="M25 -18l120 131q-77 99 -77 258q0 185 102 331t299 236l156 70q155 0 264 -95l76 82h84l-117 -127q84 -109 84 -262q0 -188 -102.5 -336t-301.5 -233l-155 -68q-161 0 -269 97l-77 -84h-86zM352 440q0 -54 6 -98l349 375q-47 151 -175 184q-90 -52 -135 -182t-45 -279z M375 266q47 -160 174 -192q90 50 136 182.5t46 280.5q0 62 -8 106z" />
<glyph unicode="&#xf9;" horiz-adv-x="1144" d="M55 852l398 154l73 -64l-118 -670q-10 -51 7 -77.5t52 -26.5q46 0 137 61l68 50l123 698h270l-152 -871l179 117l28 -39l-303 -217l-184 74l22 135l21 41l-332 -248q-131 0 -184.5 65.5t-30.5 192.5l113 633l-168 -53zM467 1501h254l29 -360h-84z" />
<glyph unicode="&#xfa;" horiz-adv-x="1144" d="M55 852l398 154l73 -64l-118 -670q-10 -51 7 -77.5t52 -26.5q46 0 137 61l68 50l123 698h270l-152 -871l179 117l28 -39l-303 -217l-184 74l22 135l21 41l-332 -248q-131 0 -184.5 65.5t-30.5 192.5l113 633l-168 -53zM604 1141l162 360h256l-332 -360h-86z" />
<glyph unicode="&#xfb;" horiz-adv-x="1144" d="M55 852l398 154l73 -64l-118 -670q-10 -51 7 -77.5t52 -26.5q46 0 137 61l68 50l123 698h270l-152 -871l179 117l28 -39l-303 -217l-184 74l22 135l21 41l-332 -248q-131 0 -184.5 65.5t-30.5 192.5l113 633l-168 -53zM432 1141l283 364h135l151 -364h-81l-166 194h-4 l-236 -194h-82z" />
<glyph unicode="&#xfc;" horiz-adv-x="1144" d="M55 852l398 154l73 -64l-118 -670q-10 -51 7 -77.5t52 -26.5q46 0 137 61l68 50l123 698h270l-152 -871l179 117l28 -39l-303 -217l-184 74l22 135l21 41l-332 -248q-131 0 -184.5 65.5t-30.5 192.5l113 633l-168 -53zM436 1212l8 115l39 96l119 13l78 -13l-4 -112 l-41 -99l-115 -10zM817 1212l4 115l43 96l117 13l78 -13l-4 -112l-41 -99l-115 -10z" />
<glyph unicode="&#xfd;" horiz-adv-x="1009" d="M-20 850l372 160l88 -60l111 -844l319 566l-180 198l221 138l88 -86l-38 -267l-343 -592l-344 -544h-278l45 260h248l235 274l-233 -47l-125 854l-168 -55zM530 1141l162 360h256l-332 -360h-86z" />
<glyph unicode="&#xfe;" horiz-adv-x="1095" d="M23 -471l317 1806l-186 -47l-17 51l418 125l68 -53l-109 -604l-18 -47l309 248q116 -25 184 -120.5t68 -248.5q0 -183 -94.5 -335.5t-266.5 -237.5l-194 -97q-41 2 -133 37l-4 -59l-74 -418h-268zM401 164q43 -32 98.5 -51t102.5 -21q61 40 100.5 116.5t53.5 152.5 t14 157q0 214 -121 287l-153 -109z" />
<glyph unicode="&#xff;" horiz-adv-x="1009" d="M-20 850l372 160l88 -60l111 -844l319 566l-180 198l221 138l88 -86l-38 -267l-343 -592l-344 -544h-278l45 260h248l235 274l-233 -47l-125 854l-168 -55zM371 1212l8 115l39 94l119 15l77 -15l-4 -110l-41 -99l-114 -12zM750 1212l6 115l43 94l116 15l78 -15l-4 -110 l-41 -99l-114 -12z" />
<glyph unicode="&#x152;" horiz-adv-x="1976" d="M100 608q0 125 34 242t104.5 227t193 198.5t285.5 139.5l172 55q14 0 150 -17.5t153 -20.5l819 4l-31 -387h-67l-101 303l-401 4l-90 -582l199 4l139 240h59l-59 -283l-31 -278h-59l-62 237l-198 4l-95 -618l447 2l184 321h70l-84 -405l-885 4l-266 -39 q-263 0 -421.5 177t-158.5 468zM436 639q0 -243 87.5 -399.5t228.5 -178.5l157 25l195 1257q-15 4 -141.5 19.5t-145.5 15.5q-181 -72 -281 -274t-100 -465z" />
<glyph unicode="&#x153;" horiz-adv-x="1593" d="M68 369q0 185 102.5 331.5t300.5 237.5l154 70q109 0 198.5 -49.5t137.5 -143.5q63 66 223 127l174 66q92 -18 147.5 -79.5t55.5 -156.5q0 -85 -33 -168l-516 -153v-11q13 -109 70.5 -182.5t144.5 -105.5q145 63 260 133l31 -41q-142 -95 -293 -178l-166 -97 q-85 11 -157.5 59t-115.5 126q-69 -72 -174 -117l-153 -68q-169 0 -280 105t-111 295zM352 440q0 -159 54 -250t143 -114q91 49 137.5 182t46.5 283q0 308 -198 360q-90 -52 -136.5 -182.5t-46.5 -278.5zM1004 532q0 -10 4 -30l243 90q21 60 21 137q0 62 -27.5 106.5 t-68.5 55.5q-78 -51 -122.5 -147.5t-49.5 -211.5z" />
<glyph unicode="&#x178;" horiz-adv-x="1347" d="M158 1372l12 64l268 -4l310 4l-3 -66l-149 -20l246 -631v-62l424 693l-158 20l12 66l211 -4l158 2l-2 -64l-111 -20l-489 -777l-76 -487l188 -20l-12 -68l-342 4l-338 -4l2 68l197 20l76 492l-318 772zM592 1587l6 117l41 96l117 12l82 -12l-4 -112l-43 -101l-117 -12z M1036 1587l4 117l43 96l117 12l80 -12l-4 -112l-41 -101l-117 -12z" />
<glyph unicode="&#x2c6;" horiz-adv-x="1009" d="M221 1141l283 364h135l156 -364h-86l-164 194h-6l-232 -194h-86z" />
<glyph unicode="&#x2dc;" horiz-adv-x="1032" d="M141 1186l107 244l125 36l358 -131l103 129h45l-111 -250l-121 -30l-362 133l-99 -131h-45z" />
<glyph unicode="&#x2000;" horiz-adv-x="974" />
<glyph unicode="&#x2001;" horiz-adv-x="1948" />
<glyph unicode="&#x2002;" horiz-adv-x="974" />
<glyph unicode="&#x2003;" horiz-adv-x="1948" />
<glyph unicode="&#x2004;" horiz-adv-x="649" />
<glyph unicode="&#x2005;" horiz-adv-x="487" />
<glyph unicode="&#x2006;" horiz-adv-x="324" />
<glyph unicode="&#x2007;" horiz-adv-x="324" />
<glyph unicode="&#x2008;" horiz-adv-x="243" />
<glyph unicode="&#x2009;" horiz-adv-x="389" />
<glyph unicode="&#x200a;" horiz-adv-x="108" />
<glyph unicode="&#x2010;" horiz-adv-x="802" d="M100 510l21 125h624l-20 -125h-625z" />
<glyph unicode="&#x2011;" horiz-adv-x="802" d="M100 510l21 125h624l-20 -125h-625z" />
<glyph unicode="&#x2012;" horiz-adv-x="802" d="M100 510l21 125h624l-20 -125h-625z" />
<glyph unicode="&#x2013;" horiz-adv-x="1298" d="M123 522l20 103h1067l-18 -103h-1069z" />
<glyph unicode="&#x2014;" horiz-adv-x="1845" d="M143 522l21 103h1593l-18 -103h-1596z" />
<glyph unicode="&#x2018;" horiz-adv-x="495" d="M178 881l10 135l41 121l234 323l57 -24q-33 -50 -100 -162t-70 -129l133 -8l-12 -142l-39 -114l-182 -13z" />
<glyph unicode="&#x2019;" horiz-adv-x="520" d="M203 885q166 267 170 293l-133 8l12 139l39 117l182 12l72 -12l-10 -135l-41 -121l-236 -326z" />
<glyph unicode="&#x201a;" horiz-adv-x="530" d="M37 -289q167 268 170 291l-133 10l12 142l41 114l180 15l72 -15l-10 -133l-41 -123l-234 -325z" />
<glyph unicode="&#x201c;" horiz-adv-x="880" d="M178 887l10 133l41 121l234 325l57 -24q-166 -267 -170 -293l133 -8l-12 -140l-39 -114l-182 -15zM563 887l10 133l41 121l234 325l57 -24q-166 -267 -170 -293l133 -8l-12 -140l-41 -114l-180 -15z" />
<glyph unicode="&#x201d;" horiz-adv-x="907" d="M203 887q163 263 170 293l-133 8l12 139l39 115l180 14l74 -14l-10 -133l-41 -121l-236 -326zM588 887q164 263 168 293l-133 8l14 139l39 115l180 14l72 -14l-10 -133l-39 -121l-236 -326z" />
<glyph unicode="&#x201e;" horiz-adv-x="915" d="M37 -289q167 268 170 291l-133 10l12 142l41 114l180 15l72 -15l-10 -133l-41 -123l-234 -325zM422 -289q164 264 170 291l-133 10l12 142l39 114l182 15l72 -15l-10 -133l-41 -123l-236 -325z" />
<glyph unicode="&#x2022;" horiz-adv-x="589" d="M133 485l14 146l39 127l185 14l86 -14l-13 -144l-38 -129l-187 -12z" />
<glyph unicode="&#x2026;" horiz-adv-x="1697" d="M123 0l12 145l41 121l189 15l69 -15l-10 -141l-43 -125l-188 -14zM670 0l10 145l41 121l190 15l68 -15l-8 -141l-43 -125l-191 -14zM1217 0l10 145l41 121l190 15l68 -15l-10 -141l-41 -125l-191 -14z" />
<glyph unicode="&#x202f;" horiz-adv-x="389" />
<glyph unicode="&#x2039;" horiz-adv-x="643" d="M72 481l452 451h109l-342 -453l184 -448h-113z" />
<glyph unicode="&#x203a;" horiz-adv-x="679" d="M53 31l342 448l-184 453h108l297 -451l-450 -450h-113z" />
<glyph unicode="&#x205f;" horiz-adv-x="487" />
<glyph unicode="&#x20ac;" horiz-adv-x="1351" d="M25 555l18 88h133q6 84 29 156h-133l16 88h145q72 176 226 310.5t391 209.5l203 63q73 -8 171 -51.5t156 -85.5l-123 -174q-61 53 -175 113t-199 78q-135 -63 -226.5 -183.5t-130.5 -279.5h586l-63 -88h-539q-9 -118 -6 -156h448l-61 -88h-383q23 -182 118.5 -297.5 t239.5 -148.5q105 13 332 127l33 -52q-141 -91 -457 -221q-258 3 -423.5 159t-174.5 417v16h-151z" />
<glyph unicode="&#x2122;" horiz-adv-x="2043" d="M215 1182v254h739v-254h-49l-88 198l-119 2v-677l115 -13l-4 -49l-223 2l-228 -2l-2 49l117 13v677l-121 -2l-88 -198h-49zM993 692l78 13v671l-78 13l4 47l129 -2l199 2l229 -547l-2 -62l236 609l147 -2l162 2l2 -47l-80 -13v-671l80 -13l-4 -49l-182 2l-178 -2l-4 49 l73 13v573l8 72l-274 -709h-121l-264 647l-16 74v-657l82 -13l-2 -49l-113 2l-109 -2z" />
<glyph unicode="&#x25fc;" horiz-adv-x="1013" d="M0 0v1014h1014v-1014h-1014z" />
</font>
</defs>
</svg>
