<?xml version="1.0" standalone="no"?>
<!DOCTYPE svg PUBLIC "-//W3C//DTD SVG 1.1//EN" "http://www.w3.org/Graphics/SVG/1.1/DTD/svg11.dtd" >
<svg xmlns="http://www.w3.org/2000/svg" xmlns:xlink="http://www.w3.org/1999/xlink" version="1.1">
<metadata></metadata>
<defs>
<font id="gt_sectra_displayRgIt" horiz-adv-x="1269" >
<font-face units-per-em="2048" ascent="1536" descent="-512" />
<missing-glyph horiz-adv-x="491" />
<glyph unicode="&#xfb01;" horiz-adv-x="1050" d="M-264 -481l31 174h241q39 61 62 203l180 1028h-131l4 20h131l14 70q19 94 71 173.5t128 131.5l223 145h365l-31 -161h-489q-47 -62 -72 -213l-25 -146h338l162 41l20 -16l-163 -922l196 148l13 -15l-261 -213l-135 66l158 891h-332l-166 -949q-34 -184 -196 -294 l-234 -162h-102z" />
<glyph unicode="&#xfb02;" horiz-adv-x="1069" d="M-264 -481l31 174h241q39 61 62 203l180 1028h-131l4 20h131l14 70q19 94 71 173.5t128 131.5l223 145h367l-250 -1413l194 144l13 -15l-260 -213l-136 66l158 891h-342l-166 -949q-34 -184 -196 -294l-234 -162h-102zM438 944h342l62 359h-307q-47 -62 -72 -213z" />
<glyph unicode="&#xfb03;" horiz-adv-x="1558" d="M-264 -481l31 174h241q39 61 62 203l180 1028h-131l4 20h131l14 70q19 94 71 173.5t128 131.5l223 145h320l-250 -161h-225q-47 -62 -72 -213l-25 -146h330l14 70q19 94 71 173.5t128 131.5l223 145h359l-31 -161h-483q-47 -62 -72 -213l-25 -146h330l164 41l20 -16 l-163 -922l196 148l12 -15l-260 -213l-135 66l158 891h-326l-166 -949q-34 -184 -196 -294l-232 -162h-88l31 174h225q39 61 62 203l180 1028h-330l-166 -949q-34 -184 -196 -294l-234 -162h-102z" />
<glyph unicode="&#xfb04;" horiz-adv-x="1583" d="M-264 -481l31 174h241q39 61 62 203l180 1028h-131l4 20h131l14 70q19 94 71 173.5t128 131.5l223 145h320l-250 -161h-225q-47 -62 -72 -213l-25 -146h330l14 70q19 94 71 173.5t128 131.5l223 145h367l-250 -1413l195 144l12 -15l-260 -213l-135 66l157 891h-342 l-166 -949q-34 -184 -196 -294l-232 -162h-88l31 174h225q39 61 62 203l180 1028h-330l-166 -949q-34 -184 -196 -294l-234 -162h-102zM952 944h342l64 359h-309q-47 -62 -72 -213z" />
<glyph horiz-adv-x="0" />
<glyph horiz-adv-x="0" />
<glyph horiz-adv-x="682" />
<glyph unicode="&#xd;" horiz-adv-x="737" />
<glyph unicode=" "  horiz-adv-x="491" />
<glyph unicode="&#x09;" horiz-adv-x="491" />
<glyph unicode="&#xa0;" horiz-adv-x="491" />
<glyph unicode="!" horiz-adv-x="661" d="M133 2l6 98l29 80l127 10l49 -10l-8 -94l-29 -84l-129 -10zM270 809l99 645h221l-129 -643l-146 -399h-41z" />
<glyph unicode="&#x22;" horiz-adv-x="813" d="M205 924l188 313l-88 -6l-51 10l8 117l35 90l147 10l58 -10l-8 -107l-37 -100l-240 -323zM537 924l188 313l-88 -6l-51 10l8 117l35 90l147 10l58 -10l-9 -107l-37 -100l-239 -323z" />
<glyph unicode="#" horiz-adv-x="1216" d="M53 422l17 49h282l119 395h-285l15 47h284l127 428h52l-127 -428h358l127 428h51l-127 -428h277l-15 -47h-276l-119 -395h281l-17 -49h-278l-125 -422h-51l125 422h-359l-125 -422h-51l125 422h-285zM403 471h359l119 395h-359z" />
<glyph unicode="$" horiz-adv-x="1062" d="M72 84l82 338h22l4 -213q41 -44 115 -86t160 -68l100 580l-139 115q-83 67 -133 140.5t-50 168.5q0 113 70 201.5t213 144.5l172 65h14l23 129h29l-23 -129q198 -8 322 -86l-62 -342h-20l-43 242q-82 82 -211 111l-92 -529l190 -153q78 -65 117 -135t39 -175 q0 -119 -83 -227.5t-226 -152.5l-183 -60h-12l-23 -127h-28l22 129q-222 8 -366 119zM399 1182q0 -32 4.5 -58.5t18.5 -52.5t25.5 -43t41 -44.5t48 -43t61.5 -51.5l2 -2l90 514q-63 8 -92 10q-108 -33 -153.5 -90.5t-45.5 -138.5zM481 47q66 -16 121 -16q97 34 144 104 t47 164q0 89 -42 151.5t-141 141.5l-28 22z" />
<glyph unicode="%" horiz-adv-x="1615" d="M88 -10l1378 1454h62l-1374 -1454h-66zM203 981q0 88 28 169.5t97 154t170 104.5l80 25q102 0 164.5 -72.5t62.5 -194.5q0 -86 -28.5 -168t-98 -154t-170.5 -102l-80 -26q-101 0 -163 72t-62 192zM344 1010q0 -106 34 -172.5t91 -85.5q89 46 142 151.5t53 237.5 q0 108 -34.5 174t-94.5 84q-88 -46 -139.5 -151.5t-51.5 -237.5zM825 264q0 88 28 169.5t96.5 153.5t168.5 105l80 25q102 0 165.5 -72.5t63.5 -193.5q0 -87 -28.5 -168.5t-98.5 -154t-172 -103.5l-77 -25q-102 0 -164 72t-62 192zM967 293q0 -108 33.5 -174.5t91.5 -85.5 q88 46 141 152.5t53 236.5q0 110 -34.5 176t-96.5 84q-86 -46 -137 -152t-51 -237z" />
<glyph unicode="&#x26;" horiz-adv-x="1169" d="M61 326q0 150 92.5 261t264.5 171l96 35q-95 26 -168.5 102.5t-73.5 181.5q0 126 102 208t288 136l180 49q54 -6 124.5 -37.5t120.5 -68.5l-100 -137q-166 126 -319 178q-203 -89 -203 -289q0 -118 65.5 -205.5t135.5 -95.5l-4 -18q-75 -3 -146.5 -37.5t-126 -90.5 t-88 -134.5t-33.5 -163.5q0 -159 75 -259t218 -106q116 53 175 145.5t89 258.5l27 153h-133l-31 -47h-14l35 186h446l27 46h14l-35 -185h-125l-30 -174q-14 -77 -34 -127.5t-63.5 -101.5t-119 -90t-191.5 -72l-127 -35q-186 0 -298 102t-112 261z" />
<glyph unicode="'" horiz-adv-x="475" d="M197 920l190 313l-88 -4l-53 10l10 115l35 90l147 10l58 -10l-11 -107l-36 -98l-238 -326z" />
<glyph unicode="(" horiz-adv-x="710" d="M160 287q0 133 17 245t60.5 232t116.5 232t186.5 233t268.5 246l10 -11q-122 -106 -214 -222t-165 -262t-111 -328t-38 -394q0 -209 46 -400t140 -327l-12 -10q-158 187 -231.5 373.5t-73.5 392.5z" />
<glyph unicode=")" horiz-adv-x="649" d="M-129 -469q122 104 214.5 220.5t165 263t110.5 328t38 392.5t-45.5 402t-140.5 327l12 11q159 -190 233 -375.5t74 -390.5q0 -167 -28.5 -305.5t-100 -285.5t-200.5 -294.5t-322 -302.5z" />
<glyph unicode="*" horiz-adv-x="632" d="M123 1165l86 174l229 -176l-30 301h182l-141 -301l290 174l27 -172l-315 -12l213 -190l-164 -109l-60 293l-157 -293l-129 107l280 192z" />
<glyph unicode="+" d="M106 498v49h504v508h49v-508h502v-49h-502v-498h-49v498h-504z" />
<glyph unicode="," horiz-adv-x="479" d="M59 -285l174 279l-77 -4l-52 10l9 119l34 96l150 10l59 -10l-6 -113l-39 -102l-235 -293z" />
<glyph unicode="-" horiz-adv-x="786" d="M100 537l11 63h624l-10 -63h-625z" />
<glyph unicode="." horiz-adv-x="479" d="M61 -2l11 119l32 98l156 10l55 -10l-10 -117l-33 -100l-153 -10z" />
<glyph unicode="/" horiz-adv-x="929" d="M-287 -471l1268 1941h51l-1263 -1941h-56z" />
<glyph unicode="0" horiz-adv-x="1099" d="M82 385q0 385 414 547l133 53q183 0 297 -117t114 -299q0 -387 -413 -546l-133 -54q-182 0 -297 118.5t-115 297.5zM287 416q0 -333 258 -408q136 78 213.5 212.5t77.5 318.5q0 167 -61.5 270t-196.5 139q-136 -71 -213.5 -206.5t-77.5 -325.5z" />
<glyph unicode="1" horiz-adv-x="854" d="M10 0v20l293 13l146 831l-361 -127l-6 21l547 215h24l-164 -940l283 -13v-20h-762z" />
<glyph unicode="2" horiz-adv-x="1015" d="M-16 20l440 302q178 130 252 233.5t74 204.5q0 74 -45.5 120t-124.5 52l-115 -35l-139 -301h-103l21 252l438 137q134 0 203 -58.5t69 -144.5q0 -51 -24.5 -101.5t-61 -92t-99 -89t-117.5 -82.5t-136 -83l-289 -168h738v-27l-64 -139h-911z" />
<glyph unicode="3" horiz-adv-x="894" d="M-82 -492l33 183h455q93 65 132.5 140.5t39.5 170.5q0 50 -18.5 96t-56 86t-105 64.5t-156.5 25.5l-4 19l122 69q142 73 213.5 161.5t71.5 203.5q0 80 -45 137t-117 66l-125 -37l-131 -283h-98l14 236l428 139q129 0 201 -62t72 -157q-1 -131 -113.5 -230.5 t-298.5 -156.5q169 -13 259.5 -91t90.5 -208q0 -52 -15 -100t-39 -85.5t-62 -73t-74.5 -61t-87 -52t-89 -43.5t-89.5 -38l-269 -119h-139z" />
<glyph unicode="4" horiz-adv-x="1110" d="M10 23l770 948h244l-4 -21l-969 -923h533l61 354l189 111h20l-82 -465h268l-2 -35h-272l-80 -455h-190l82 455h-555z" />
<glyph unicode="5" horiz-adv-x="952" d="M-98 -473l39 182h434q209 160 209 375q0 126 -54 204.5t-163 78.5q-98 0 -224 -72l-73 -47l-21 10l217 713h672l-55 -172h-635l-162 -518l344 217q87 0 153 -20t104.5 -51t62.5 -75t32.5 -84.5t8.5 -85.5q0 -94 -42.5 -180t-115.5 -152.5t-155 -116.5t-177 -89l-260 -117 h-139z" />
<glyph unicode="6" horiz-adv-x="1062" d="M94 418q0 181 72 352t199 308t305 239t385 151l4 -20q-147 -40 -276 -127t-217 -193.5t-146 -217t-80 -212.5l360 220q116 -6 199.5 -116t83.5 -253q0 -122 -35 -220t-113 -175t-196 -119l-178 -66q-161 0 -264 120t-103 329zM303 449q0 -166 66 -283t182 -141 q111 54 169 175t58 257q0 162 -53.5 248t-130.5 86q-37 0 -71 -13.5t-101 -50.5l-86 -49q-33 -120 -33 -229z" />
<glyph unicode="7" horiz-adv-x="966" d="M16 -479l2 18l859 1241h-799l28 174h871l14 -16l-821 -1417h-154z" />
<glyph unicode="8" horiz-adv-x="1062" d="M82 287q0 68 26 128.5t63 103t96 83.5t107 65.5t113 53.5q-104 94 -135 129q-94 107 -94 221q0 125 90 217t238 135l135 43q150 0 246 -68.5t96 -183.5q0 -46 -12 -88t-31 -74.5t-50 -64.5t-59.5 -54t-70 -46.5t-71.5 -40t-73 -35.5q22 -20 67 -60t66.5 -60t54 -56 t48 -64t27.5 -66t12 -79q0 -275 -393 -414l-121 -45q-99 0 -183 36.5t-138 110.5t-54 173zM287 356q0 -138 75.5 -236t176.5 -106q103 57 158 143t55 191q0 40 -15 80t-33.5 70.5t-57 71.5t-64 64.5t-74.5 67.5q-221 -150 -221 -346zM461 1155q0 -76 50.5 -150.5 t166.5 -177.5q97 62 144.5 149.5t47.5 186.5q0 110 -56.5 181.5t-172.5 80.5q-180 -84 -180 -270z" />
<glyph unicode="9" horiz-adv-x="1056" d="M27 -492q118 32 225.5 95.5t187.5 141t144 168t103.5 177t57.5 166.5l-356 -217q-120 6 -204.5 115t-84.5 254q0 122 35 220t113 175t196 119l185 65q160 0 260 -119.5t100 -328.5q0 -181 -72 -352t-198.5 -308.5t-304 -240t-383.5 -150.5zM305 506q0 -166 55.5 -253 t131.5 -87q37 0 69 12t101 49l88 52q30 109 30 229q0 166 -65.5 283t-182.5 141q-109 -53 -168 -173t-59 -253z" />
<glyph unicode=":" horiz-adv-x="540" d="M82 -2l10 119l33 98l156 10l55 -10l-10 -117l-33 -100l-154 -10zM205 764l10 117l33 98l155 12l56 -12l-10 -115l-33 -100l-154 -10z" />
<glyph unicode=";" horiz-adv-x="546" d="M43 -285l180 279l-82 -4l-53 10l10 119l35 96l148 10l61 -10l-8 -113l-37 -102l-236 -293zM211 764l10 117l33 98l156 12l55 -12l-10 -115l-33 -100l-154 -10z" />
<glyph unicode="&#x3c;" d="M102 571v31l1063 490v-54l-997 -452l997 -451v-53z" />
<glyph unicode="=" d="M104 283v47h1059v-47h-1059zM104 674v49h1059v-49h-1059z" />
<glyph unicode="&#x3e;" d="M102 82v53l998 451l-998 452v54l1063 -490v-31z" />
<glyph unicode="?" horiz-adv-x="829" d="M133 2l6 98l29 80l127 10l49 -10l-8 -94l-29 -84l-129 -10zM254 1159l29 236l233 59q98 0 172.5 -26.5t117.5 -71.5t64 -97t21 -110q0 -230 -322 -348l-151 -62l-113 -319h-39l43 274l111 70q266 161 266 407q0 109 -50 178t-149 78l-133 -268h-100z" />
<glyph unicode="@" horiz-adv-x="1888" d="M154 520q0 290 190.5 518.5t499.5 333.5l196 62q188 0 338.5 -44t248 -122.5t149 -185.5t51.5 -234q0 -134 -52 -257t-138.5 -211.5t-202 -143t-240.5 -60.5l-117 135l45 211l-286 -350q-103 11 -178.5 101t-75.5 229q0 161 97.5 292.5t256.5 206.5l219 101l221 -129 l-157 -774q77 4 155.5 48.5t143.5 120.5t106 192t41 249q0 122 -43 227.5t-120.5 182.5t-191.5 121t-249 44q-142 0 -276 -57.5t-239 -159t-169 -255t-64 -332.5q0 -144 41 -265t111 -206t164 -144t200 -87t220 -28q182 0 393 123l8 -14q-115 -68 -252.5 -120t-241.5 -72 q-237 0 -420 96.5t-282.5 268t-99.5 388.5zM743 575q0 -104 43 -173t127 -93l217 248l78 350l-182 115q-79 -43 -137 -100t-88 -118.5t-44 -117.5t-14 -111z" />
<glyph unicode="A" horiz-adv-x="1386" d="M-53 0l2 20l160 13l765 1370l170 51l125 -1421l156 -13l-2 -20h-551l2 20l174 13l-35 475h-487l-262 -475l172 -13l-2 -20h-387zM442 539h469l-55 747z" />
<glyph unicode="B" horiz-adv-x="1165" d="M-12 0v20l157 13l207 1368l-149 12v21h540q186 0 290 -76.5t104 -206.5q0 -132 -95 -227t-272 -133l-98 -21q225 -3 346 -94t121 -227q0 -264 -383 -396l-156 -53h-612zM356 47h295q128 66 189 165.5t61 217.5q0 132 -78.5 222.5t-218.5 90.5h-143zM467 774h104 q36 0 80 14.5t90 45t84 72t62.5 101.5t25.5 128q-2 135 -63.5 201.5t-192.5 66.5h-96z" />
<glyph unicode="C" horiz-adv-x="1236" d="M102 575q0 100 21.5 197.5t68 193.5t114.5 178.5t167 151t219 111.5l187 63q206 0 368 -100l-18 -360h-23l-92 278q-140 101 -348 119q-203 -77 -316.5 -274t-113.5 -457q0 -279 110.5 -443.5t305.5 -207.5q61 23 138.5 62t110.5 63l177 296h22l-67 -340l-455 -143 q-252 0 -414 171.5t-162 440.5z" />
<glyph unicode="D" horiz-adv-x="1331" d="M-12 0v20l157 13l207 1368l-149 12v21h542q122 0 228.5 -43t182 -118t119 -181t44.5 -228q0 -132 -34 -254.5t-100.5 -230t-173.5 -190.5t-245 -128l-188 -61h-590zM356 47h287q202 106 321 328.5t121 488.5q0 249 -104 394t-270 145h-150z" />
<glyph unicode="E" horiz-adv-x="1153" d="M-12 0v20l157 13l207 1368l-149 12v21h1011l-59 -373h-20l-84 344h-490l-96 -641h254l133 244h18l-82 -512h-18l-57 241h-252l-107 -708h508l191 354h20l-61 -383h-1024z" />
<glyph unicode="F" horiz-adv-x="1107" d="M-12 0v20l157 13l207 1368l-149 12v21h1011l-59 -373h-20l-84 344h-490l-100 -662h254l133 242h18l-82 -512h-18l-55 242h-252l-105 -682l226 -13v-20h-592z" />
<glyph unicode="G" horiz-adv-x="1318" d="M102 575q0 104 21.5 204t68.5 197t116 179t170 149t224 107l195 59q216 0 385 -127l-35 -335h-20l-76 243q-155 139 -391 156q-193 -88 -308.5 -281t-115.5 -446q0 -289 108 -452.5t301 -209.5q52 18 115.5 49.5t91.5 49.5l74 495l-147 15v20h460v-20l-106 -15l-76 -503 l-516 -146q-157 0 -281.5 83t-191 222t-66.5 307z" />
<glyph unicode="H" horiz-adv-x="1390" d="M-12 0v20l159 13l205 1368l-149 12v21h510v-21l-152 -12l-96 -641h565l96 641l-149 12v21h510v-21l-152 -12l-205 -1368l156 -13v-20h-524v20l160 13l104 696h-565l-105 -696l156 -13v-20h-524z" />
<glyph unicode="I" horiz-adv-x="616" d="M-12 0v20l159 13l205 1368l-149 12v21h510v-21l-152 -12l-205 -1368l156 -13v-20h-524z" />
<glyph unicode="J" horiz-adv-x="604" d="M-172 -356l35 184h231q51 142 74 309l190 1264l-149 12v21h510v-21l-152 -12l-180 -1204q-18 -124 -79 -213.5t-148 -165.5l-221 -174h-111z" />
<glyph unicode="K" horiz-adv-x="1380" d="M-12 0v20l159 13l205 1368l-149 12v21h510v-21l-152 -12l-94 -625l713 625l-183 12v21h416v-21l-174 -12l-713 -619l170 -20l482 -729l118 -13v-20h-354l-477 756l-109 -723l156 -13v-20h-524z" />
<glyph unicode="L" horiz-adv-x="1077" d="M-12 0v20l157 13l207 1368l-149 12v21h510v-21l-152 -12l-207 -1372h447l223 358h20l-77 -387h-979z" />
<glyph unicode="M" horiz-adv-x="1763" d="M-12 0v20l157 13l217 1368l-149 12v21h389l254 -1223l623 1223h383v-21l-152 -12l-207 -1368l158 -13v-20h-526v20l159 13l203 1339l-692 -1374h-117l-289 1370l-209 -1335l162 -13v-20h-364z" />
<glyph unicode="N" horiz-adv-x="1355" d="M-12 0v20l157 13l217 1368l-149 12v21h383l494 -1172l178 1139l-164 12v21h366v-21l-157 -12l-221 -1401h-129l-564 1362l-209 -1329l164 -13l-2 -20h-364z" />
<glyph unicode="O" horiz-adv-x="1366" d="M102 582q0 101 18.5 199.5t61 197.5t105.5 182t158 152t212 108l154 49q154 0 278 -78t194.5 -219t70.5 -319q0 -101 -19 -199.5t-61.5 -196.5t-105.5 -180.5t-157.5 -151.5t-211.5 -110l-154 -53q-153 0 -277 78t-195 220t-71 321zM336 618q0 -269 102.5 -429.5 t266.5 -178.5q125 42 221 164.5t145 289t49 351.5q0 271 -102 432.5t-266 179.5q-122 -36 -218.5 -159.5t-147 -294.5t-50.5 -355z" />
<glyph unicode="P" horiz-adv-x="1107" d="M-12 0v20l157 13l207 1368l-149 12v21h620q181 0 282 -84.5t101 -219.5q0 -148 -100 -253t-299 -175l-160 -59h-201l-92 -610l226 -13v-20h-592zM453 690h241q279 147 279 416q0 142 -66 219.5t-196 77.5h-150z" />
<glyph unicode="Q" horiz-adv-x="1366" d="M102 582q0 101 18.5 199.5t61 197.5t105.5 182t158 152t212 108l154 49q154 0 278 -78t194.5 -219t70.5 -319q0 -101 -19 -199.5t-61.5 -196.5t-105.5 -180.5t-157.5 -151.5t-211.5 -110l-152 -51l242 -43l217 -194l123 -54v-22l-289 2l-297 309q-234 2 -387.5 175 t-153.5 444zM336 618q0 -269 102.5 -429.5t266.5 -178.5q125 42 221 164.5t145 289t49 351.5q0 271 -102 432.5t-266 179.5q-122 -36 -218.5 -159.5t-147 -294.5t-50.5 -355z" />
<glyph unicode="R" horiz-adv-x="1296" d="M-12 0v20l157 13l207 1368l-149 12v21h620q178 0 280.5 -82.5t102.5 -210.5q0 -287 -407 -398l-162 -45l244 -71l268 -594l78 -10v-23h-301l-299 696h-172l-101 -663l176 -13v-20h-542zM461 737h231q58 29 101.5 58.5t87.5 75t68 109t24 140.5q0 136 -65 210.5t-195 74.5 h-152z" />
<glyph unicode="S" horiz-adv-x="962" d="M29 84l82 338h22l4 -213q61 -65 183 -119.5t239 -58.5q97 34 144 104t47 164q0 89 -42 151.5t-141 141.5l-196 158q-82 66 -131.5 140t-49.5 169q0 237 283 346l172 65q229 0 365 -86l-62 -342h-20l-43 242q-114 116 -330 127q-108 -33 -153.5 -90.5t-45.5 -138.5 q0 -32 4.5 -58.5t18.5 -52.5t25 -43t40.5 -45t47 -43t61.5 -51l217 -176q79 -64 118.5 -134.5t39.5 -175.5q0 -118 -84.5 -227t-227.5 -153l-180 -60q-247 0 -407 121z" />
<glyph unicode="T" horiz-adv-x="1120" d="M133 1061l57 373h1061l-57 -373h-20l-80 344h-275l-205 -1372l193 -13v-20h-576v20l175 13l204 1372h-278l-178 -344h-21z" />
<glyph unicode="U" horiz-adv-x="1251" d="M156 1413v21h510v-21l-152 -12l-141 -930q-8 -52 -8 -98q1 -127 61 -209q82 -112 276 -111q71 26 121.5 57.5t94 81t72 121t44.5 170.5l148 918l-156 12v21h363v-21l-160 -12l-144 -909q-16 -94 -38 -161t-60.5 -127.5t-99.5 -104t-148 -72.5l-172 -62q-414 0 -414 365 q0 54 9 116l143 955z" />
<glyph unicode="V" horiz-adv-x="1323" d="M152 1413v21h544v-21l-174 -12l197 -1258l543 1258l-175 12v21h386v-21l-160 -12l-600 -1378l-181 -46l-223 1424z" />
<glyph unicode="W" horiz-adv-x="1935" d="M152 1413v21h538v-21l-174 -12l189 -1251l342 856l-58 395l-127 12v21h524v-21l-190 -12l188 -1251l494 1251l-172 12v21h381v-21l-160 -12l-551 -1378l-172 -48l-143 951l-363 -903l-174 -48l-215 1426z" />
<glyph unicode="X" horiz-adv-x="1366" d="M-43 0v20l152 13l528 647l-342 721l-117 14v19h500v-21l-154 -12l267 -570l464 570l-163 12v21h356v-21l-135 -12l-502 -610l360 -758l109 -13v-20h-498v20l158 13l-283 606l-491 -606l170 -13v-20h-379z" />
<glyph unicode="Y" horiz-adv-x="1257" d="M152 1415v19h522v-21l-168 -12l278 -758l459 758l-176 12v21h342v-21l-115 -12l-495 -807l-86 -561l172 -13v-20h-555v20l174 13l84 555l-314 813z" />
<glyph unicode="Z" horiz-adv-x="1134" d="M-6 23l962 1382h-546l-215 -369h-21l64 398h948l16 -25l-952 -1380h592l215 379h18l-57 -408h-1008z" />
<glyph unicode="[" horiz-adv-x="638" d="M18 -471l342 1935h383l-4 -20l-260 -12l-329 -1870l258 -13l-5 -20h-385z" />
<glyph unicode="\" horiz-adv-x="829" d="M193 1470h51l585 -1941h-55z" />
<glyph unicode="]" horiz-adv-x="583" d="M-145 -471l4 20l260 13l330 1870l-259 12l5 20h385l-342 -1935h-383z" />
<glyph unicode="^" horiz-adv-x="739" d="M170 942l344 502h23l168 -502h-43l-144 457l-307 -457h-41z" />
<glyph unicode="_" horiz-adv-x="1290" d="M-27 -197l9 47h1138l-8 -47h-1139z" />
<glyph unicode="`" horiz-adv-x="970" d="M344 1481h188l62 -359h-25z" />
<glyph unicode="a" horiz-adv-x="964" d="M68 317q0 187 114 345t305 249l154 74q51 0 124.5 -22.5t123.5 -53.5l-152 -858l197 144l10 -15l-258 -213l-135 66l43 235l-322 -299q-204 98 -204 348zM252 428q0 -208 137 -313l209 180l94 536q-44 29 -98.5 47.5t-97.5 18.5q-120 -72 -182 -196t-62 -273z" />
<glyph unicode="b" horiz-adv-x="944" d="M78 70l229 1312l-190 -51l-6 19l364 116l27 -20l-123 -696l301 235q104 -27 166.5 -112.5t62.5 -235.5q0 -178 -100 -339t-268 -237l-199 -92q-133 10 -264 101zM272 137q36 -40 93 -64t98 -24q71 32 122 87t78.5 122.5t39.5 135.5t12 141q0 248 -160 323l-178 -135z" />
<glyph unicode="c" horiz-adv-x="839" d="M74 356q0 184 104 316t314 233l161 80q36 -3 89.5 -25.5t95.5 -50.5l-97 -145q-93 63 -245 123q-228 -137 -228 -406q0 -155 65 -253.5t165 -135.5q106 52 260 154l12 -17q-32 -24 -70.5 -51t-90 -61.5t-81.5 -55.5l-131 -92q-56 2 -112.5 28.5t-104 73.5t-77 122 t-29.5 163z" />
<glyph unicode="d" horiz-adv-x="1015" d="M74 336q0 186 113.5 341.5t301.5 235.5l166 72q19 0 78 -22l74 419l-191 -51l-6 19l365 116l26 -20l-245 -1395l194 144l13 -15l-258 -213l-136 66l41 235l-311 -299q-98 45 -161.5 143t-63.5 224zM268 440q0 -202 154 -319l192 174l97 539q-45 29 -104.5 48t-104.5 21 q-114 -69 -174 -191t-60 -272z" />
<glyph unicode="e" horiz-adv-x="864" d="M74 360q0 184 105 330.5t302 224.5l172 70q81 -16 128.5 -69.5t47.5 -147.5q0 -81 -41 -152l-532 -163q10 -146 79 -235t173 -126q167 93 252 150l14 -19q-113 -82 -242 -164l-139 -90q-130 16 -224.5 121t-94.5 270zM256 471l340 121q29 59 29 143q0 70 -31.5 115 t-85.5 59q-114 -65 -183 -170.5t-69 -249.5v-18z" />
<glyph unicode="f" horiz-adv-x="573" d="M-264 -481l31 174h241q39 61 62 203l180 1028h-131l4 20h131l14 70q19 94 71 173.5t128 131.5l223 145h127l-26 -161h-256q-47 -62 -72 -213l-25 -146h199l-4 -20h-199l-166 -949q-34 -184 -196 -294l-234 -162h-102z" />
<glyph unicode="g" horiz-adv-x="958" d="M18 -481l31 172h383q42 42 82 123.5t53 160.5l54 291l-312 -295q-227 123 -227 359q0 187 116.5 341t315.5 240l166 74q51 -3 120 -23.5t118 -48.5l-164 -921q-24 -126 -303 -316l-230 -157h-203zM274 444q0 -205 154 -323l197 174l94 534q-43 28 -100.5 47t-100.5 21 q-119 -72 -181.5 -190.5t-62.5 -262.5z" />
<glyph unicode="h" horiz-adv-x="1021" d="M78 0l241 1382l-190 -51l-4 19l364 116l27 -20l-123 -694l330 233q118 1 166 -57q34 -41 34 -108q0 -26 -5 -56l-127 -713l194 144l12 -15l-260 -213l-135 66l125 690q3 22 3 41q0 94 -89 94q-36 0 -76 -19t-110 -65l-66 -47l-129 -727h-182z" />
<glyph unicode="i" horiz-adv-x="546" d="M68 838l364 147l21 -16l-162 -922l196 148l11 -15l-260 -213l-134 66l150 852l-182 -66zM309 1221l8 102l37 88l64 12l114 -12v-104l-38 -86l-58 -13z" />
<glyph unicode="j" horiz-adv-x="542" d="M-238 -481l33 174h246q31 68 55 203l174 989l-182 -66l-6 19l367 147l18 -16l-170 -977q-17 -88 -71.5 -165.5t-137.5 -137.5l-233 -170h-93zM324 1221l8 102l39 88l61 12l115 -12v-104l-39 -86l-55 -13z" />
<glyph unicode="k" horiz-adv-x="964" d="M78 0l241 1382l-190 -51l-4 19l364 116l27 -20l-154 -873l422 392h148l-37 -197h-268l-242 -203l197 -55l186 -449l166 127l12 -14l-252 -207l-125 49l-209 543l-100 -559h-182z" />
<glyph unicode="l" horiz-adv-x="542" d="M94 33l238 1349l-191 -51l-4 19l365 116l26 -20l-245 -1395l194 144l12 -15l-260 -213z" />
<glyph unicode="m" horiz-adv-x="1531" d="M68 838l364 147l21 -16l-39 -221l319 237q193 0 193 -170q0 -18 -2 -37l-6 -30l321 237q191 0 192 -163q0 -27 -6 -58l-127 -713l197 144l10 -15l-260 -213l-133 66l123 692q4 24 4 43q0 90 -80 90q-33 0 -69.5 -18.5t-100.5 -63.5l-74 -53l-129 -723h-184l129 725 q3 22 3 40q0 36 -13 59q-20 34 -66 34q-33 0 -69.5 -18.5t-100.5 -63.5l-75 -53l-127 -723h-183l154 885l-180 -66z" />
<glyph unicode="n" horiz-adv-x="1044" d="M68 838l364 147l21 -16l-37 -215l327 231q201 0 201 -161q0 -27 -6 -60l-127 -713l197 144l10 -15l-260 -213l-133 66l123 690q4 23 4 43q0 36 -14 58q-22 34 -76 34q-36 0 -77 -19t-108 -65l-65 -45l-129 -729h-183l154 885l-180 -66z" />
<glyph unicode="o" horiz-adv-x="944" d="M74 360q0 186 94.5 335t273.5 227l146 63q137 0 229 -99t92 -282q0 -187 -94.5 -339t-271.5 -230l-148 -66q-136 0 -228.5 103.5t-92.5 287.5zM268 414q0 -174 60 -268t155 -115q63 26 110.5 85t73 133.5t38 150.5t12.5 151q0 179 -58 265t-163 108q-62 -26 -108.5 -83 t-71.5 -130t-36.5 -147t-11.5 -150z" />
<glyph unicode="p" horiz-adv-x="987" d="M27 -471l237 1356l-182 -66l-6 19l366 147l19 -16l-37 -215l287 231q106 -14 172.5 -104.5t66.5 -243.5q0 -179 -90 -335.5t-254 -238.5l-192 -94q-43 6 -119 47l-86 -487h-182zM315 131q39 -40 95 -62t100 -24q248 119 248 490q0 128 -46 209.5t-128 109.5l-166 -131z " />
<glyph unicode="q" horiz-adv-x="937" d="M74 326q0 189 112.5 350t298.5 239l164 70q55 -3 135 -24.5t123 -45.5l-243 -1386h-185l131 735l-309 -295q-227 108 -227 357zM268 434q0 -201 154 -307l192 168l97 543q-48 27 -107 47t-98 20q-118 -73 -178 -196.5t-60 -274.5z" />
<glyph unicode="r" horiz-adv-x="772" d="M68 838l364 147l21 -16l-76 -424l285 420h135l-39 -209h-203l-186 -264l-86 -492h-185l156 885l-182 -66z" />
<glyph unicode="s" horiz-adv-x="727" d="M10 76l101 133q142 -100 274 -166q53 18 81 54t28 79q0 53 -19.5 88.5t-75.5 87.5l-166 142q-94 81 -94 188q0 71 55.5 136.5t170.5 107.5l155 59q80 -8 197 -70l-92 -139q-118 77 -260 135q-42 -16 -64 -50.5t-22 -72.5q0 -45 18 -79t55 -68l168 -143 q68 -60 93.5 -110.5t25.5 -117.5q0 -160 -201 -225l-223 -76q-44 17 -109 51t-96 56z" />
<glyph unicode="t" horiz-adv-x="604" d="M84 33l158 891h-129l4 20h129l20 111l183 164h28l-49 -275h205l-4 -20h-205l-154 -877l248 146l10 -15l-309 -211z" />
<glyph unicode="u" horiz-adv-x="1036" d="M59 850l365 135l20 -16l-135 -754q-4 -22 -4 -39q-1 -34 13 -52q20 -28 63 -28q41 0 80 18t112 70l68 47l127 723h184l-157 -903l202 135l13 -12l-281 -207l-123 66l31 172l-322 -236q-200 0 -200 161q0 27 6 58l127 705l-182 -59z" />
<glyph unicode="v" horiz-adv-x="870" d="M-10 840l358 145l25 -20l8 -922l407 659l-159 189l166 94l65 -70l-35 -215l-446 -720l-174 34l-25 877l-184 -68z" />
<glyph unicode="w" horiz-adv-x="1327" d="M-10 840l358 145l25 -20l12 -902l277 447l-13 381l193 74l12 -902l397 646l-155 182l157 94l64 -70l-27 -204l-454 -731l-162 34l-10 445l-297 -479l-162 34l-25 877l-184 -68z" />
<glyph unicode="x" horiz-adv-x="950" d="M-10 -8l39 194h207l180 248l-137 463l-201 -70l-6 19l346 141l28 -16l119 -398l248 392h156l-37 -193h-203l-156 -223l150 -496l199 140l10 -15l-270 -207l-119 56l-119 383l-277 -418h-157z" />
<glyph unicode="y" horiz-adv-x="907" d="M-16 840l356 149l27 -16l118 -903l349 647l-162 174l157 94l68 -67l-18 -201l-365 -680l-313 -520l-205 2l41 186h215l223 344l-172 -41l-123 883l-188 -70z" />
<glyph unicode="z" horiz-adv-x="839" d="M-16 2l665 756l-438 55l-61 -104l-15 10l115 264l547 -61l59 47l18 -13l-649 -745l496 -59l72 100l14 -8l-129 -264l-594 77l-80 -67z" />
<glyph unicode="{" horiz-adv-x="655" d="M94 502l2 10q42 16 72.5 39.5t48 46t30.5 58.5t18.5 61t13.5 69l69 392q23 128 111.5 207t199.5 79h99l-4 -20h-95q-60 0 -107 -52t-69 -171l-73 -424q-35 -191 -199 -260l135 -103l-119 -661q-20 -118 13 -171t98 -53h94l-4 -20h-102q-119 0 -179.5 78.5t-37.5 208.5 l102 587z" />
<glyph unicode="|" horiz-adv-x="755" d="M215 -502l348 1972h49l-348 -1972h-49z" />
<glyph unicode="}" horiz-adv-x="557" d="M-143 -471l4 20h94q136 0 174 224l90 501q10 56 67.5 128.5t125.5 103.5q-29 12 -81 62.5t-48 70.5l102 582q22 118 -11 170.5t-98 52.5h-94l4 20h103q119 0 179.5 -78t37.5 -208l-92 -527q-4 -19 39.5 -63t72.5 -62v-10q-73 -24 -120.5 -97.5t-59.5 -150.5l-80 -452 q-23 -128 -111 -207.5t-200 -79.5h-98z" />
<glyph unicode="~" horiz-adv-x="1337" d="M82 416l108 164l199 36l756 -122l121 151h20l-106 -156l-201 -45l-752 129l-125 -157h-20z" />
<glyph unicode="&#xa1;" horiz-adv-x="524" d="M8 -502l129 643l148 402h41l4 -400l-99 -645h-223zM256 772l8 94l27 86l129 9l45 -9l-6 -100l-27 -80l-129 -8z" />
<glyph unicode="&#xa2;" horiz-adv-x="876" d="M82 356q0 184 104 316t314 233l84 41l30 166h29l-27 -149l46 22q35 -3 88.5 -25.5t95.5 -50.5l-98 -145q-95 64 -244 123q-230 -139 -230 -406q0 -155 65 -253.5t167 -135.5q106 52 260 154l12 -17q-38 -29 -243 -168l-103 -71l-26 -154h-29l24 133q-56 2 -112 29 t-102.5 74.5t-75.5 121.5t-29 162z" />
<glyph unicode="&#xa3;" horiz-adv-x="1105" d="M20 0l5 20l165 21l123 698h-161l4 21h161l39 215q31 171 115.5 267t271.5 159l156 53q118 -26 201 -74l-101 -135q-65 46 -120.5 74t-141.5 63q-66 -30 -105.5 -83t-60.5 -171l-65 -368h348l-4 -21h-348l-76 -428q-23 -130 -49.5 -183t-87.5 -97h526l184 307h21l-59 -338 h-941z" />
<glyph unicode="&#xa4;" d="M115 311l166 142q-56 88 -56 204q0 201 140 332l-125 154l34 28l125 -153q135 104 289 104q75 0 147.5 -27t118.5 -73l176 149l23 -28l-174 -148q70 -90 70 -221q0 -185 -146 -325l115 -138l-35 -28l-113 137q-138 -109 -295 -109q-81 0 -153.5 30t-118.5 83l-166 -141z M266 664q0 -139 88 -227.5t228 -88.5q105 0 202.5 57.5t159.5 157t62 211.5q0 136 -91.5 224.5t-236.5 88.5q-163 0 -287.5 -127.5t-124.5 -295.5z" />
<glyph unicode="&#xa5;" horiz-adv-x="1228" d="M154 1415v19h522v-21l-168 -12l264 -758l442 758l-176 12v21h342v-21l-114 -12l-480 -807l-4 -29h232l-4 -22h-232l-26 -170h225l-4 -23h-223l-50 -317l172 -13v-20h-555v20l175 13l47 317h-226l4 23h226l24 170h-217l4 22h217l4 23l-299 813z" />
<glyph unicode="&#xa6;" horiz-adv-x="755" d="M215 -502l156 881h49l-156 -881h-49zM408 590l155 880h49l-155 -880h-49z" />
<glyph unicode="&#xa7;" horiz-adv-x="1150" d="M-14 -338l123 129q4 -3 25 -21t27 -22.5t26.5 -21t29.5 -23.5t29 -22t32.5 -23t32.5 -21.5t36.5 -23t37 -20.5t41.5 -21q100 33 156.5 91.5t56.5 123.5q0 95 -35.5 157t-144.5 165q-185 178 -244 258.5t-59 171.5q0 98 74 180t206 127q-96 93 -96 217q0 108 90 210.5 t246 143.5l190 47q41 -5 104 -34.5t117 -71.5l-116 -117q-122 101 -283 162q-99 -36 -141.5 -90.5t-42.5 -134.5q0 -134 117 -242l380 -365v-106q0 -113 -87.5 -199t-219.5 -116q66 -66 95.5 -124.5t29.5 -134.5q0 -104 -70.5 -179.5t-220.5 -127.5l-270 -86 q-53 18 -139 70.5t-133 93.5zM311 645q0 -81 34 -134t120 -134l217 -215q76 28 112.5 91.5t36.5 129.5v78l-194 190q-17 14 -98.5 93.5t-85.5 84.5q-69 -26 -105.5 -75t-36.5 -109z" />
<glyph unicode="&#xa8;" horiz-adv-x="1026" d="M254 1219l2 94l33 76l73 10l82 -10l-2 -91l-32 -79l-70 -11zM602 1219l2 94l35 76l74 10l80 -10l-2 -91l-33 -79l-70 -11z" />
<glyph unicode="&#xa9;" horiz-adv-x="1720" d="M139 729q0 158 53.5 286.5t154 218.5t237.5 147.5t309 82.5q153 -2 290 -54t242 -146.5t166.5 -239t61.5 -319.5q0 -158 -54 -286.5t-154 -218.5t-237.5 -148t-310.5 -83q-122 1 -234.5 34t-207.5 97.5t-166 154.5t-110.5 212t-39.5 262zM252 729q0 -143 42 -265 t109 -204.5t152 -141t171 -85.5t167 -27q129 0 245.5 48t206 135.5t142.5 221.5t53 294q0 143 -42 265.5t-109.5 204.5t-153 140.5t-171.5 85t-167 26.5q-128 0 -244.5 -48t-205.5 -135t-142 -221t-53 -294zM465 698q0 197 126 311.5t349 135.5q166 0 295 -66v-209h-16 l-95 183q-74 71 -180 71q-124 0 -203 -104t-79 -299q0 -116 29.5 -206.5t96.5 -147t164 -56.5q98 0 172 70l95 194h18v-213q-161 -62 -313 -73q-125 0 -227.5 45t-167 139.5t-64.5 224.5z" />
<glyph unicode="&#xaa;" horiz-adv-x="825" d="M102 926q0 151 94.5 278.5t254.5 200.5l120 59q40 0 100 -18.5t101 -42.5l-123 -690l158 112l10 -10l-209 -172l-114 51l34 193l-260 -242q-166 80 -166 281zM258 1014q0 -170 102 -250l172 145l76 424q-79 58 -153 58q-96 -59 -146.5 -158t-50.5 -219z" />
<glyph unicode="&#xab;" horiz-adv-x="917" d="M72 481l452 451h27l-348 -451l188 -450h-29zM430 481l453 451h24l-348 -451l189 -450h-27z" />
<glyph unicode="&#xac;" d="M106 676v49h1055v-358h-49v309h-1006z" />
<glyph unicode="&#xad;" horiz-adv-x="786" d="M100 537l11 63h624l-10 -63h-625z" />
<glyph unicode="&#xae;" horiz-adv-x="1191" d="M150 899q0 215 136.5 342t375.5 162q140 -1 256 -61t188 -180t72 -279q0 -215 -136.5 -342t-375.5 -162q-104 1 -197 36.5t-164.5 100.5t-113 164t-41.5 219zM236 899q0 -98 28 -182t72.5 -140t101.5 -95.5t114 -57.5t110 -18q86 0 163 32t137 91.5t95 151t35 202.5 q0 99 -28 183t-72.5 140t-101.5 95.5t-113.5 57t-110.5 17.5q-86 0 -163 -32t-137 -91.5t-95 -151t-35 -202.5zM408 618v11l59 6v520l-59 4v12h290q75 0 127 -34t52 -101q0 -69 -63 -107t-173 -46l131 -27l139 -221l39 -6v-11h-159l-154 263h-57v-246l57 -6v-11h-229z M580 895h41q63 0 97 36t34 99q0 59 -31 94t-78 35l-63 -4v-260z" />
<glyph unicode="&#xaf;" horiz-adv-x="1007" d="M207 1276l12 72h584l-12 -72h-584z" />
<glyph unicode="&#xb0;" horiz-adv-x="733" d="M203 1225q0 124 78.5 196t240.5 121q129 0 222.5 -93.5t93.5 -223.5t-75 -205.5t-241 -112.5q-130 0 -224.5 94.5t-94.5 223.5zM276 1225q0 -105 73.5 -182.5t172.5 -77.5q106 0 175 76.5t69 183.5q0 104 -73 182t-171 78q-108 0 -177 -76.5t-69 -183.5z" />
<glyph unicode="&#xb1;" d="M96 0v49h1075v-49h-1075zM98 778v47h504v512h47v-512h504v-47h-504v-495h-47v495h-504z" />
<glyph unicode="&#xb2;" horiz-adv-x="684" d="M104 834l254 206q132 109 194 200t62 190q0 67 -28.5 110t-83.5 53l-56 -14l-90 -176h-82l7 141l272 82q109 0 163 -49t54 -123q0 -56 -21.5 -105.5t-68 -97.5t-92.5 -84.5t-121 -87.5l-215 -145h471v-19l-55 -96h-559z" />
<glyph unicode="&#xb3;" horiz-adv-x="595" d="M98 813l25 121h280q86 61 86 156q0 58 -47.5 100t-142.5 45l-4 12l88 49q152 77 152 193q0 40 -24.5 68.5t-61.5 33.5l-56 -16l-88 -166h-78l11 135l272 82q85 0 129.5 -33.5t42.5 -83.5q0 -71 -69 -123.5t-181 -78.5q107 -9 160 -51t53 -109q0 -39 -17.5 -73.5 t-42.5 -59t-64 -48t-70.5 -37.5t-73.5 -30l-203 -86h-76z" />
<glyph unicode="&#xb4;" horiz-adv-x="1015" d="M317 1122l205 359h187l-367 -359h-25z" />
<glyph unicode="&#xb5;" d="M156 -471l252 1425h182l-133 -739q-11 -62 9 -90.5t62 -28.5q41 0 80.5 18.5t112.5 69.5l67 47l127 723h185l-158 -903l203 135l12 -12l-280 -207l-123 66l30 172l-321 -236q-79 0 -129.5 26.5t-65.5 74.5l-22 -131l92 -410h-182z" />
<glyph unicode="&#xb6;" horiz-adv-x="1064" d="M123 1102q0 54 25 103t71.5 90t99 73.5t121.5 65.5h523v-21l-103 -12v-1727h-47v1731h-301v-1731h-47v1141q-140 0 -241 77t-101 210z" />
<glyph unicode="&#xb7;" horiz-adv-x="872" d="M410 725l10 111l31 92l143 10l53 -10l-8 -107l-31 -96l-147 -10z" />
<glyph unicode="&#xb8;" horiz-adv-x="1193" d="M360 -498l62 80h160q40 24 61 53.5t21 73.5q0 109 -117 119l133 176l20 -2l-75 -96q72 -9 110.5 -47t38.5 -97q0 -41 -19 -74.5t-53.5 -57.5t-64 -39t-68.5 -29l-155 -60h-54z" />
<glyph unicode="&#xb9;" horiz-adv-x="600" d="M139 819v17l187 8l131 692l-203 -66l-6 17l346 127h24l-149 -770l176 -8v-17h-506z" />
<glyph unicode="&#xba;" horiz-adv-x="808" d="M121 961q0 151 77 270t224 182l119 51q113 0 188.5 -79.5t75.5 -227.5q0 -152 -77.5 -275t-223.5 -186l-119 -51q-111 0 -187.5 84t-76.5 232zM283 1004q0 -142 48.5 -217.5t125.5 -90.5q50 21 87.5 68t57.5 107t29.5 121t9.5 122q0 145 -45.5 214t-128.5 85 q-50 -21 -87.5 -66.5t-57.5 -104t-29.5 -118t-9.5 -120.5z" />
<glyph unicode="&#xbb;" horiz-adv-x="956" d="M57 31l346 450l-188 451h27l293 -451l-451 -450h-27zM414 31l346 450l-187 451h25l295 -451l-451 -450h-28z" />
<glyph unicode="&#xbc;" horiz-adv-x="1593" d="M145 645v17l187 8l131 692l-203 -66l-6 17l346 127h25l-150 -770l176 -8v-17h-506zM260 -102l1065 1556h55l-1061 -1556h-59zM807 262l457 526h188l-2 -14l-612 -508h305l33 174l143 76h18l-49 -252h152l-4 -22h-154l-45 -242h-147l47 242h-322z" />
<glyph unicode="&#xbd;" horiz-adv-x="1611" d="M145 645v17l187 8l131 692l-203 -66l-6 17l346 127h25l-150 -770l176 -8v-17h-506zM260 -102l1065 1556h55l-1061 -1556h-59zM809 14l252 207q133 110 195.5 200t62.5 189q0 66 -29.5 110t-83.5 54l-57 -14l-88 -176h-84l8 141l272 82q109 0 163.5 -49t54.5 -123 q0 -56 -22 -105.5t-69.5 -97.5t-93 -84t-121.5 -88l-215 -145h473v-19l-55 -96h-559z" />
<glyph unicode="&#xbe;" horiz-adv-x="1529" d="M145 639l25 121h281q86 61 86 155q0 58 -48 100.5t-143 45.5l-4 12l88 49q152 77 152 193q0 40 -24.5 68.5t-61.5 33.5l-56 -16l-88 -166h-78l11 135l272 82q85 0 129.5 -33.5t42.5 -83.5q0 -71 -69 -123.5t-181 -78.5q107 -9 160 -51t53 -109q0 -39 -17.5 -73.5 t-42.5 -59t-64 -48t-70.5 -37.5t-73.5 -30l-203 -86h-76zM205 -102l1065 1556h55l-1061 -1556h-59zM743 262l457 526h189l-3 -14l-612 -508h305l33 174l143 76h19l-49 -252h151l-4 -22h-153l-45 -242h-148l47 242h-321z" />
<glyph unicode="&#xbf;" horiz-adv-x="829" d="M-61 -195q0 118 84 205.5t237 143.5l152 61l112 320h39l-43 -275l-110 -70q-267 -162 -267 -407q0 -109 50 -178t149 -78l133 268h100l-28 -235l-234 -60q-98 0 -172.5 26.5t-117 71.5t-63.5 97t-21 110zM485 774l9 94l28 84l129 11l45 -11l-6 -98l-28 -80l-127 -10z" />
<glyph unicode="&#xc0;" horiz-adv-x="1386" d="M-53 0l2 20l160 13l765 1370l170 51l125 -1421l156 -13l-2 -20h-551l2 20l174 13l-35 475h-487l-262 -475l172 -13l-2 -20h-387zM442 539h469l-55 747zM756 1847h178l72 -297h-23z" />
<glyph unicode="&#xc1;" horiz-adv-x="1386" d="M-53 0l2 20l160 13l765 1370l170 51l125 -1421l156 -13l-2 -20h-551l2 20l174 13l-35 475h-487l-262 -475l172 -13l-2 -20h-387zM442 539h469l-55 747zM944 1550l98 297h181l-252 -297h-27z" />
<glyph unicode="&#xc2;" horiz-adv-x="1386" d="M-53 0l2 20l160 13l765 1370l170 51l125 -1421l156 -13l-2 -20h-551l2 20l174 13l-35 475h-487l-262 -475l172 -13l-2 -20h-387zM442 539h469l-55 747zM705 1550l319 318h47l186 -318h-26l-203 187h-8l-289 -187h-26z" />
<glyph unicode="&#xc3;" horiz-adv-x="1394" d="M-53 0l2 20l160 13l765 1370l170 51l125 -1421l156 -13l-2 -20h-551l2 20l174 13l-35 475h-487l-262 -475l172 -13l-2 -20h-387zM442 539h469l-55 747zM664 1575l102 221l115 39l344 -170l106 168h19l-107 -223l-115 -39l-344 174l-104 -170h-16z" />
<glyph unicode="&#xc4;" horiz-adv-x="1386" d="M-53 0l2 20l160 13l765 1370l170 51l125 -1421l156 -13l-2 -20h-551l2 20l174 13l-35 475h-487l-262 -475l172 -13l-2 -20h-387zM442 539h469l-55 747zM737 1602l2 94l35 76l74 10l82 -10l-2 -91l-33 -79l-72 -11zM1108 1602v94l37 76l72 10l81 -10l-2 -91l-32 -79 l-70 -11z" />
<glyph unicode="&#xc5;" horiz-adv-x="1386" d="M-53 0l2 20l160 13l765 1370l170 51l125 -1421l156 -13l-2 -20h-551l2 20l174 13l-35 475h-487l-262 -475l172 -13l-2 -20h-387zM442 539h469l-55 747zM782 1720q0 37 13 66.5t28.5 47.5t50.5 37t55.5 27t67.5 25q92 0 153.5 -48.5t61.5 -148.5q0 -37 -12.5 -67t-29 -49 t-49.5 -37t-56.5 -27t-67.5 -24q-89 0 -152 49t-63 149zM844 1722q0 -70 42.5 -113.5t110.5 -43.5t111 43.5t43 113.5t-43 114t-111 44t-110.5 -44t-42.5 -114z" />
<glyph unicode="&#xc6;" horiz-adv-x="1802" d="M-53 0l2 20l160 13l888 1401h867l-60 -373h-20l-84 344h-477l-107 -696h254l133 241h19l-82 -512h-19l-55 242h-254l-96 -651h497l191 354h20l-61 -383h-1014v20l158 13l96 645h-338l-401 -645l172 -13l-2 -20h-387zM586 709h323l103 684z" />
<glyph unicode="&#xc7;" horiz-adv-x="1236" d="M102 575q0 100 21.5 197.5t68 193.5t114.5 178.5t167 151t219 111.5l187 63q206 0 368 -100l-18 -360h-23l-92 278q-140 101 -348 119q-203 -77 -316.5 -274t-113.5 -457q0 -279 110.5 -443.5t305.5 -207.5q61 23 138.5 62t110.5 63l177 296h22l-67 -340l-455 -143h-4 l-45 -57q72 -9 110.5 -47t38.5 -97q0 -41 -19 -74.5t-53.5 -57.5t-64 -39t-68.5 -29l-155 -60h-53l61 80h160q40 24 61 53.5t21 73.5q0 109 -117 119l102 135q-244 9 -397.5 179t-153.5 433z" />
<glyph unicode="&#xc8;" horiz-adv-x="1153" d="M-12 0v20l157 13l207 1368l-149 12v21h1011l-59 -373h-20l-84 344h-490l-96 -641h254l133 244h18l-82 -512h-18l-57 241h-252l-107 -708h508l191 354h20l-61 -383h-1024zM604 1847h178l72 -297h-25z" />
<glyph unicode="&#xc9;" horiz-adv-x="1153" d="M-12 0v20l157 13l207 1368l-149 12v21h1011l-59 -373h-20l-84 344h-490l-96 -641h254l133 244h18l-82 -512h-18l-57 241h-252l-107 -708h508l191 354h20l-61 -383h-1024zM768 1550l98 297h181l-252 -297h-27z" />
<glyph unicode="&#xca;" horiz-adv-x="1153" d="M-12 0v20l157 13l207 1368l-149 12v21h1011l-59 -373h-20l-84 344h-490l-96 -641h254l133 244h18l-82 -512h-18l-57 241h-252l-107 -708h508l191 354h20l-61 -383h-1024zM520 1550l320 318h47l186 -318h-26l-205 187h-8l-289 -187h-25z" />
<glyph unicode="&#xcb;" horiz-adv-x="1153" d="M-12 0v20l157 13l207 1368l-149 12v21h1011l-59 -373h-20l-84 344h-490l-96 -641h254l133 244h18l-82 -512h-18l-57 241h-252l-107 -708h508l191 354h20l-61 -383h-1024zM530 1602l2 94l35 76l74 10l82 -10l-2 -91l-33 -79l-72 -11zM901 1602v94l37 76l72 10l82 -10 l-2 -91l-33 -79l-70 -11z" />
<glyph unicode="&#xcc;" horiz-adv-x="616" d="M-12 0v20l159 13l205 1368l-149 12v21h510v-21l-152 -12l-205 -1368l156 -13v-20h-524zM303 1847h178l72 -297h-23z" />
<glyph unicode="&#xcd;" horiz-adv-x="616" d="M-12 0v20l159 13l205 1368l-149 12v21h510v-21l-152 -12l-205 -1368l156 -13v-20h-524zM465 1550l98 297h180l-251 -297h-27z" />
<glyph unicode="&#xce;" horiz-adv-x="616" d="M-12 0v20l159 13l205 1368l-149 12v21h510v-21l-152 -12l-205 -1368l156 -13v-20h-524zM203 1550l319 318h47l187 -318h-27l-203 187h-8l-289 -187h-26z" />
<glyph unicode="&#xcf;" horiz-adv-x="616" d="M-12 0v20l159 13l205 1368l-149 12v21h510v-21l-152 -12l-205 -1368l156 -13v-20h-524zM233 1602l3 94l34 76l72 10l82 -10v-91l-35 -79l-70 -11zM592 1602l2 94l37 76l71 10l82 -10l-2 -91l-34 -79l-68 -11z" />
<glyph unicode="&#xd0;" horiz-adv-x="1331" d="M-12 0v20l157 13l107 708h-166l4 21h166l96 639l-149 12v21h542q122 0 228.5 -43t182 -118t119 -181t44.5 -228q0 -132 -34 -254.5t-100.5 -230t-173.5 -190.5t-245 -128l-188 -61h-590zM356 47h287q202 106 321 328.5t121 488.5q0 249 -104 394t-270 145h-150l-98 -641 h260l-4 -21h-258z" />
<glyph unicode="&#xd1;" horiz-adv-x="1355" d="M-12 0v20l157 13l217 1368l-149 12v21h383l494 -1172l178 1139l-164 12v21h366v-21l-157 -12l-221 -1401h-129l-564 1362l-209 -1329l164 -13l-2 -20h-364zM565 1575l105 221l114 39l342 -170l109 168h18l-106 -223l-115 -39l-346 174l-102 -170h-19z" />
<glyph unicode="&#xd2;" horiz-adv-x="1366" d="M102 582q0 101 18.5 199.5t61 197.5t105.5 182t158 152t212 108l154 49q154 0 278 -78t194.5 -219t70.5 -319q0 -101 -19 -199.5t-61.5 -196.5t-105.5 -180.5t-157.5 -151.5t-211.5 -110l-154 -53q-153 0 -277 78t-195 220t-71 321zM336 618q0 -269 102.5 -429.5 t266.5 -178.5q125 42 221 164.5t145 289t49 351.5q0 271 -102 432.5t-266 179.5q-122 -36 -218.5 -159.5t-147 -294.5t-50.5 -355zM662 1847h178l71 -297h-24z" />
<glyph unicode="&#xd3;" horiz-adv-x="1366" d="M102 582q0 101 18.5 199.5t61 197.5t105.5 182t158 152t212 108l154 49q154 0 278 -78t194.5 -219t70.5 -319q0 -101 -19 -199.5t-61.5 -196.5t-105.5 -180.5t-157.5 -151.5t-211.5 -110l-154 -53q-153 0 -277 78t-195 220t-71 321zM336 618q0 -269 102.5 -429.5 t266.5 -178.5q125 42 221 164.5t145 289t49 351.5q0 271 -102 432.5t-266 179.5q-122 -36 -218.5 -159.5t-147 -294.5t-50.5 -355zM752 1550l98 297h180l-252 -297h-26z" />
<glyph unicode="&#xd4;" horiz-adv-x="1366" d="M102 582q0 101 18.5 199.5t61 197.5t105.5 182t158 152t212 108l154 49q154 0 278 -78t194.5 -219t70.5 -319q0 -101 -19 -199.5t-61.5 -196.5t-105.5 -180.5t-157.5 -151.5t-211.5 -110l-154 -53q-153 0 -277 78t-195 220t-71 321zM336 618q0 -269 102.5 -429.5 t266.5 -178.5q125 42 221 164.5t145 289t49 351.5q0 271 -102 432.5t-266 179.5q-122 -36 -218.5 -159.5t-147 -294.5t-50.5 -355zM584 1550l321 318h47l185 -318h-25l-205 187h-8l-289 -187h-26z" />
<glyph unicode="&#xd5;" horiz-adv-x="1366" d="M102 582q0 101 18.5 199.5t61 197.5t105.5 182t158 152t212 108l154 49q154 0 278 -78t194.5 -219t70.5 -319q0 -101 -19 -199.5t-61.5 -196.5t-105.5 -180.5t-157.5 -151.5t-211.5 -110l-154 -53q-153 0 -277 78t-195 220t-71 321zM336 618q0 -269 102.5 -429.5 t266.5 -178.5q125 42 221 164.5t145 289t49 351.5q0 271 -102 432.5t-266 179.5q-122 -36 -218.5 -159.5t-147 -294.5t-50.5 -355zM537 1575l102 221l115 39l344 -170l108 168h17l-105 -223l-117 -39l-344 174l-102 -170h-18z" />
<glyph unicode="&#xd6;" horiz-adv-x="1366" d="M102 582q0 101 18.5 199.5t61 197.5t105.5 182t158 152t212 108l154 49q154 0 278 -78t194.5 -219t70.5 -319q0 -101 -19 -199.5t-61.5 -196.5t-105.5 -180.5t-157.5 -151.5t-211.5 -110l-154 -53q-153 0 -277 78t-195 220t-71 321zM336 618q0 -269 102.5 -429.5 t266.5 -178.5q125 42 221 164.5t145 289t49 351.5q0 271 -102 432.5t-266 179.5q-122 -36 -218.5 -159.5t-147 -294.5t-50.5 -355zM602 1602l2 94l35 76l72 10l84 -10l-2 -91l-35 -79l-70 -11zM971 1602l2 94l37 76l71 10l82 -10l-2 -91l-33 -79l-69 -11z" />
<glyph unicode="&#xd7;" d="M231 829l35 35l369 -370l364 366l35 -33l-364 -366l366 -367l-35 -33l-366 365l-367 -369l-35 35l367 369z" />
<glyph unicode="&#xd8;" horiz-adv-x="1366" d="M35 -31l186 213q-119 163 -119 400q0 101 18.5 199.5t61 197.5t105.5 182t158 152t212 108l154 49q115 0 214.5 -45t172.5 -127l137 158h31l-154 -176q142 -171 142 -426q0 -101 -19 -199.5t-61.5 -196.5t-105.5 -180.5t-157.5 -151.5t-211.5 -110l-154 -53 q-123 0 -228.5 51.5t-180.5 145.5l-166 -191h-35zM336 618q0 -156 33 -268l696 799q-47 124 -128.5 195.5t-184.5 82.5q-122 -36 -218.5 -159.5t-147 -294.5t-50.5 -355zM377 322q46 -139 131.5 -220t196.5 -92q125 42 221 164.5t145 289t49 351.5q0 174 -45 307z" />
<glyph unicode="&#xd9;" horiz-adv-x="1251" d="M156 1413v21h510v-21l-152 -12l-141 -930q-30 -195 52.5 -306.5t276.5 -111.5q71 26 121.5 57.5t94 81t72 121t44.5 170.5l148 918l-156 12v21h363v-21l-160 -12l-144 -909q-16 -94 -38 -161t-60.5 -127.5t-99.5 -104t-148 -72.5l-172 -62q-475 0 -405 481l143 955z M659 1847h179l71 -297h-22z" />
<glyph unicode="&#xda;" horiz-adv-x="1251" d="M156 1413v21h510v-21l-152 -12l-141 -930q-30 -195 52.5 -306.5t276.5 -111.5q71 26 121.5 57.5t94 81t72 121t44.5 170.5l148 918l-156 12v21h363v-21l-160 -12l-144 -909q-16 -94 -38 -161t-60.5 -127.5t-99.5 -104t-148 -72.5l-172 -62q-475 0 -405 481l143 955z M825 1550l99 297h180l-252 -297h-27z" />
<glyph unicode="&#xdb;" horiz-adv-x="1251" d="M156 1413v21h510v-21l-152 -12l-141 -930q-30 -195 52.5 -306.5t276.5 -111.5q71 26 121.5 57.5t94 81t72 121t44.5 170.5l148 918l-156 12v21h363v-21l-160 -12l-144 -909q-16 -94 -38 -161t-60.5 -127.5t-99.5 -104t-148 -72.5l-172 -62q-475 0 -405 481l143 955z M594 1550l321 318h48l184 -318h-25l-204 187h-9l-288 -187h-27z" />
<glyph unicode="&#xdc;" horiz-adv-x="1251" d="M156 1413v21h510v-21l-152 -12l-141 -930q-30 -195 52.5 -306.5t276.5 -111.5q71 26 121.5 57.5t94 81t72 121t44.5 170.5l148 918l-156 12v21h363v-21l-160 -12l-144 -909q-16 -94 -38 -161t-60.5 -127.5t-99.5 -104t-148 -72.5l-172 -62q-475 0 -405 481l143 955z M594 1602l2 94l35 76l71 10l82 -10v-91l-34 -79l-70 -11zM963 1602l2 94l36 76l72 10l82 -10l-2 -91l-35 -79l-67 -11z" />
<glyph unicode="&#xdd;" horiz-adv-x="1257" d="M152 1415v19h522v-21l-168 -12l278 -758l459 758l-176 12v21h342v-21l-115 -12l-495 -807l-86 -561l172 -13v-20h-555v20l174 13l84 555l-314 813zM856 1550l98 297h181l-252 -297h-27z" />
<glyph unicode="&#xde;" horiz-adv-x="1103" d="M-12 0v20l159 13l205 1368l-149 12v21h510v-21l-152 -12l-41 -271h258q181 0 282 -84t101 -219q0 -148 -100 -253t-299 -175l-160 -59h-201l-45 -307l209 -13v-20h-577zM408 387h241q279 147 279 416q0 142 -66 219.5t-196 77.5h-150z" />
<glyph unicode="&#xdf;" horiz-adv-x="1036" d="M-256 -481l33 174h235q38 75 58 203l176 1028h-135l4 20h135q31 153 83.5 239.5t133.5 133.5l252 147q63 -1 111 -11t89 -33.5t63 -68t22 -108.5q0 -99 -68.5 -174.5t-169.5 -126.5l-104 -59q-21 -40 -21 -88q0 -45 20.5 -78.5t59.5 -69.5l151 -143q66 -63 93.5 -115.5 t27.5 -114.5q0 -159 -205 -231l-215 -74q-44 17 -108.5 51t-95.5 56l100 133q124 -91 266 -162q54 16 82.5 53t28.5 78q0 55 -23 96t-88 101l-141 131q-84 78 -90 178q-2 45 12 94l160 142q143 121 143 282q0 50 -16.5 89t-42 61t-52 33t-51.5 12q-53 -32 -89.5 -68 t-56.5 -77.5t-30 -75t-18 -80.5l-197 -1119q-14 -88 -54.5 -155.5t-119.5 -122.5l-254 -180h-94z" />
<glyph unicode="&#xe0;" horiz-adv-x="964" d="M68 317q0 187 114 345t305 249l154 74q51 0 124.5 -22.5t123.5 -53.5l-152 -858l197 144l10 -15l-258 -213l-135 66l43 235l-322 -299q-204 98 -204 348zM252 428q0 -208 137 -313l209 180l94 536q-44 29 -98.5 47.5t-97.5 18.5q-120 -72 -182 -196t-62 -273zM512 1481 h188l62 -359h-25z" />
<glyph unicode="&#xe1;" horiz-adv-x="964" d="M68 317q0 187 114 345t305 249l154 74q51 0 124.5 -22.5t123.5 -53.5l-152 -858l197 144l10 -15l-258 -213l-135 66l43 235l-322 -299q-204 98 -204 348zM252 428q0 -208 137 -313l209 180l94 536q-44 29 -98.5 47.5t-97.5 18.5q-120 -72 -182 -196t-62 -273zM539 1122 l204 359h187l-367 -359h-24z" />
<glyph unicode="&#xe2;" horiz-adv-x="964" d="M68 317q0 187 114 345t305 249l154 74q51 0 124.5 -22.5t123.5 -53.5l-152 -858l197 144l10 -15l-258 -213l-135 66l43 235l-322 -299q-204 98 -204 348zM252 428q0 -208 137 -313l209 180l94 536q-44 29 -98.5 47.5t-97.5 18.5q-120 -72 -182 -196t-62 -273zM401 1122 l312 377h43l174 -377h-23l-196 221h-6l-279 -221h-25z" />
<glyph unicode="&#xe3;" horiz-adv-x="964" d="M68 317q0 187 114 345t305 249l154 74q51 0 124.5 -22.5t123.5 -53.5l-152 -858l197 144l10 -15l-258 -213l-135 66l43 235l-322 -299q-204 98 -204 348zM252 428q0 -208 137 -313l209 180l94 536q-44 29 -98.5 47.5t-97.5 18.5q-120 -72 -182 -196t-62 -273zM373 1188 l104 223l115 39l342 -172l108 168h19l-107 -223l-114 -39l-346 176l-103 -172h-18z" />
<glyph unicode="&#xe4;" horiz-adv-x="964" d="M68 317q0 187 114 345t305 249l154 74q51 0 124.5 -22.5t123.5 -53.5l-152 -858l197 144l10 -15l-258 -213l-135 66l43 235l-322 -299q-204 98 -204 348zM252 428q0 -208 137 -313l209 180l94 536q-44 29 -98.5 47.5t-97.5 18.5q-120 -72 -182 -196t-62 -273zM461 1219 l2 94l33 76l73 10l82 -10l-2 -91l-33 -79l-69 -11zM809 1219l2 94l35 76l74 10l79 -10l-2 -91l-32 -79l-70 -11z" />
<glyph unicode="&#xe5;" horiz-adv-x="964" d="M68 317q0 187 114 345t305 249l154 74q51 0 124.5 -22.5t123.5 -53.5l-152 -858l197 144l10 -15l-258 -213l-135 66l43 235l-322 -299q-204 98 -204 348zM252 428q0 -208 137 -313l209 180l94 536q-44 29 -98.5 47.5t-97.5 18.5q-120 -72 -182 -196t-62 -273zM543 1307 q0 27 7 50t15.5 39.5t27.5 32t32 25t41 21.5t42.5 17t47.5 17q93 0 154 -47.5t61 -148.5q0 -31 -7 -56.5t-23.5 -45t-32 -33.5t-45 -27t-49 -21t-56.5 -20q-89 0 -152 48.5t-63 148.5zM604 1311q0 -72 42 -115t110 -43t111.5 43.5t43.5 114.5q0 70 -43.5 113.5t-111.5 43.5 t-110 -43.5t-42 -113.5z" />
<glyph unicode="&#xe6;" horiz-adv-x="1351" d="M68 317q0 187 114 345t305 249l154 74q61 0 138 -28t130 -72l232 100q81 -16 128.5 -69.5t47.5 -147.5q0 -80 -39 -152l-528 -159q13 -282 245 -365q125 66 254 150l13 -19q-106 -77 -240 -164l-139 -90q-110 13 -197.5 91.5t-114.5 205.5l-299 -297q-204 98 -204 348z M252 428q0 -208 137 -313l180 168q-8 31 -8 77q0 257 195 428q-61 48 -130.5 78.5t-129.5 30.5q-120 -72 -182 -196t-62 -273zM748 473l335 113q31 63 31 149q0 70 -31.5 115t-85.5 59q-104 -60 -180 -194q-66 -107 -69 -242z" />
<glyph unicode="&#xe7;" horiz-adv-x="839" d="M74 356q0 184 104 316t314 233l161 80q36 -3 89.5 -25.5t95.5 -50.5l-97 -145q-93 63 -245 123q-228 -137 -228 -406q0 -155 65 -253.5t165 -135.5q106 52 260 154l12 -17q-32 -24 -70.5 -51t-90 -61.5t-81.5 -55.5l-125 -88l-53 -67q73 -9 111.5 -47t38.5 -97 q0 -41 -19 -74.5t-53.5 -57.5t-64 -39t-68.5 -29l-156 -60h-53l61 80h160q40 24 61 53.5t21 73.5q0 109 -117 119l107 143q-55 5 -108 33t-97.5 75t-72 119t-27.5 158z" />
<glyph unicode="&#xe8;" horiz-adv-x="864" d="M74 360q0 184 105 330.5t302 224.5l172 70q81 -16 128.5 -69.5t47.5 -147.5q0 -81 -41 -152l-532 -163q10 -146 79 -235t173 -126q167 93 252 150l14 -19q-113 -82 -242 -164l-139 -90q-130 16 -224.5 121t-94.5 270zM256 471l340 121q29 59 29 143q0 70 -31.5 115 t-85.5 59q-114 -65 -183 -170.5t-69 -249.5v-18zM406 1481h188l61 -359h-24z" />
<glyph unicode="&#xe9;" horiz-adv-x="864" d="M74 360q0 184 105 330.5t302 224.5l172 70q81 -16 128.5 -69.5t47.5 -147.5q0 -81 -41 -152l-532 -163q10 -146 79 -235t173 -126q167 93 252 150l14 -19q-113 -82 -242 -164l-139 -90q-130 16 -224.5 121t-94.5 270zM256 471l340 121q29 59 29 143q0 70 -31.5 115 t-85.5 59q-114 -65 -183 -170.5t-69 -249.5v-18zM502 1122l205 359h186l-367 -359h-24z" />
<glyph unicode="&#xea;" horiz-adv-x="864" d="M74 360q0 184 105 330.5t302 224.5l172 70q81 -16 128.5 -69.5t47.5 -147.5q0 -81 -41 -152l-532 -163q10 -146 79 -235t173 -126q167 93 252 150l14 -19q-113 -82 -242 -164l-139 -90q-130 16 -224.5 121t-94.5 270zM256 471l340 121q29 59 29 143q0 70 -31.5 115 t-85.5 59q-114 -65 -183 -170.5t-69 -249.5v-18zM358 1122l312 377h43l174 -377h-23l-196 221h-6l-279 -221h-25z" />
<glyph unicode="&#xeb;" horiz-adv-x="864" d="M74 360q0 184 105 330.5t302 224.5l172 70q81 -16 128.5 -69.5t47.5 -147.5q0 -81 -41 -152l-532 -163q10 -146 79 -235t173 -126q167 93 252 150l14 -19q-113 -82 -242 -164l-139 -90q-130 16 -224.5 121t-94.5 270zM256 471l340 121q29 59 29 143q0 70 -31.5 115 t-85.5 59q-114 -65 -183 -170.5t-69 -249.5v-18zM373 1219l2 94l33 76l73 10l82 -10l-2 -91l-33 -79l-69 -11zM721 1219l2 94l35 76l73 10l80 -10l-2 -91l-32 -79l-70 -11z" />
<glyph unicode="&#xec;" horiz-adv-x="546" d="M68 838l364 147l21 -16l-162 -922l196 148l11 -15l-260 -213l-134 66l150 852l-182 -66zM213 1481h188l62 -359h-25z" />
<glyph unicode="&#xed;" horiz-adv-x="546" d="M68 838l364 147l21 -16l-162 -922l196 148l11 -15l-260 -213l-134 66l150 852l-182 -66zM262 1122l205 359h186l-366 -359h-25z" />
<glyph unicode="&#xee;" horiz-adv-x="546" d="M68 838l364 147l21 -16l-162 -922l196 148l11 -15l-260 -213l-134 66l150 852l-182 -66zM111 1122l311 377h43l174 -377h-23l-196 221h-6l-279 -221h-24z" />
<glyph unicode="&#xef;" horiz-adv-x="546" d="M68 838l364 147l21 -16l-162 -922l196 148l11 -15l-260 -213l-134 66l150 852l-182 -66zM141 1219l2 94l33 76l74 10l82 -10l-2 -91l-33 -79l-70 -11zM489 1219l3 94l34 76l74 10l80 -10l-2 -91l-33 -79l-70 -11z" />
<glyph unicode="&#xf0;" horiz-adv-x="1005" d="M74 455q0 165 92.5 302.5t269.5 194.5l127 41l209 -164q-10 276 -158 449l-274 -127l2 23l258 120q-95 106 -246 158l8 21q170 -52 302 -150l227 107l-2 -23l-209 -98q152 -123 221.5 -295.5t69.5 -360.5q0 -105 -22.5 -196t-61 -159t-92.5 -123.5t-112.5 -92 t-125.5 -62.5l-133 -51q-88 19 -157 68.5t-110 116.5t-62 143.5t-21 157.5zM272 422q0 -302 195 -404q160 67 231 231t72 490l-27 82q-104 48 -178 51q-135 -17 -214 -142.5t-79 -307.5z" />
<glyph unicode="&#xf1;" horiz-adv-x="1044" d="M68 838l364 147l21 -16l-37 -215l327 231q235 0 195 -221l-127 -713l197 144l10 -15l-260 -213l-133 66l123 690q12 66 -10 100.5t-76 34.5q-36 0 -77 -19t-108 -65l-65 -45l-129 -729h-183l154 885l-180 -66zM375 1188l104 223l115 39l342 -172l108 168h19l-107 -223 l-114 -39l-346 176l-103 -172h-18z" />
<glyph unicode="&#xf2;" horiz-adv-x="944" d="M74 360q0 186 94.5 335t273.5 227l146 63q137 0 229 -99t92 -282q0 -187 -94.5 -339t-271.5 -230l-148 -66q-136 0 -228.5 103.5t-92.5 287.5zM268 414q0 -174 60 -268t155 -115q63 26 110.5 85t73 133.5t38 150.5t12.5 151q0 179 -58 265t-163 108q-62 -26 -108.5 -83 t-71.5 -130t-36.5 -147t-11.5 -150zM418 1481h188l62 -359h-25z" />
<glyph unicode="&#xf3;" horiz-adv-x="944" d="M74 360q0 186 94.5 335t273.5 227l146 63q137 0 229 -99t92 -282q0 -187 -94.5 -339t-271.5 -230l-148 -66q-136 0 -228.5 103.5t-92.5 287.5zM268 414q0 -174 60 -268t155 -115q63 26 110.5 85t73 133.5t38 150.5t12.5 151q0 179 -58 265t-163 108q-62 -26 -108.5 -83 t-71.5 -130t-36.5 -147t-11.5 -150zM535 1122l204 359h187l-367 -359h-24z" />
<glyph unicode="&#xf4;" horiz-adv-x="944" d="M74 360q0 186 94.5 335t273.5 227l146 63q137 0 229 -99t92 -282q0 -187 -94.5 -339t-271.5 -230l-148 -66q-136 0 -228.5 103.5t-92.5 287.5zM268 414q0 -174 60 -268t155 -115q63 26 110.5 85t73 133.5t38 150.5t12.5 151q0 179 -58 265t-163 108q-62 -26 -108.5 -83 t-71.5 -130t-36.5 -147t-11.5 -150zM356 1122l312 377h43l174 -377h-23l-196 221h-7l-278 -221h-25z" />
<glyph unicode="&#xf5;" horiz-adv-x="944" d="M74 360q0 186 94.5 335t273.5 227l146 63q137 0 229 -99t92 -282q0 -187 -94.5 -339t-271.5 -230l-148 -66q-136 0 -228.5 103.5t-92.5 287.5zM268 414q0 -174 60 -268t155 -115q63 26 110.5 85t73 133.5t38 150.5t12.5 151q0 179 -58 265t-163 108q-62 -26 -108.5 -83 t-71.5 -130t-36.5 -147t-11.5 -150zM350 1188l105 223l114 39l342 -172l109 168h18l-106 -223l-115 -39l-346 176l-102 -172h-19z" />
<glyph unicode="&#xf6;" horiz-adv-x="944" d="M74 360q0 186 94.5 335t273.5 227l146 63q137 0 229 -99t92 -282q0 -187 -94.5 -339t-271.5 -230l-148 -66q-136 0 -228.5 103.5t-92.5 287.5zM268 414q0 -174 60 -268t155 -115q63 26 110.5 85t73 133.5t38 150.5t12.5 151q0 179 -58 265t-163 108q-62 -26 -108.5 -83 t-71.5 -130t-36.5 -147t-11.5 -150zM428 1219l2 94l33 76l74 10l81 -10l-2 -91l-32 -79l-70 -11zM776 1219l2 94l35 76l74 10l80 -10l-2 -91l-33 -79l-70 -11z" />
<glyph unicode="&#xf7;" d="M96 487v48h1075v-48h-1075zM539 145l12 80l127 11l49 -11l10 -94l-14 -84l-127 -10l-47 10zM539 887l12 80l127 10l49 -10l10 -95l-14 -84l-127 -10l-47 10z" />
<glyph unicode="&#xf8;" horiz-adv-x="944" d="M4 -29l133 142q-63 97 -63 247q0 186 94.5 335t273.5 227l146 63q74 0 138.5 -31.5t109.5 -91.5l118 127h23l-131 -141q63 -95 63 -244q0 -187 -94.5 -339t-271.5 -230l-148 -66q-75 0 -140 33t-110 96l-116 -127h-25zM268 414q0 -76 13 -146l417 449q-44 173 -202 207 q-62 -26 -108.5 -83t-71.5 -130t-36.5 -147t-11.5 -150zM287 248q24 -95 75.5 -149t120.5 -68q63 26 110.5 85t73 133.5t38 150.5t12.5 151q0 68 -15 145z" />
<glyph unicode="&#xf9;" horiz-adv-x="1036" d="M59 850l365 135l20 -16l-135 -754q-11 -62 9.5 -90.5t62.5 -28.5q41 0 80 18t112 70l68 47l127 723h184l-157 -903l202 135l13 -12l-281 -207l-123 66l31 172l-322 -236q-233 0 -194 219l127 705l-182 -59zM461 1481h188l62 -359h-25z" />
<glyph unicode="&#xfa;" horiz-adv-x="1036" d="M59 850l365 135l20 -16l-135 -754q-11 -62 9.5 -90.5t62.5 -28.5q41 0 80 18t112 70l68 47l127 723h184l-157 -903l202 135l13 -12l-281 -207l-123 66l31 172l-322 -236q-233 0 -194 219l127 705l-182 -59zM518 1122l205 359h186l-366 -359h-25z" />
<glyph unicode="&#xfb;" horiz-adv-x="1036" d="M59 850l365 135l20 -16l-135 -754q-11 -62 9.5 -90.5t62.5 -28.5q41 0 80 18t112 70l68 47l127 723h184l-157 -903l202 135l13 -12l-281 -207l-123 66l31 172l-322 -236q-233 0 -194 219l127 705l-182 -59zM387 1122l311 377h43l174 -377h-22l-197 221h-6l-278 -221h-25z " />
<glyph unicode="&#xfc;" horiz-adv-x="1036" d="M59 850l365 135l20 -16l-135 -754q-11 -62 9.5 -90.5t62.5 -28.5q41 0 80 18t112 70l68 47l127 723h184l-157 -903l202 135l13 -12l-281 -207l-123 66l31 172l-322 -236q-233 0 -194 219l127 705l-182 -59zM440 1219l2 94l33 76l74 10l82 -10l-2 -91l-33 -79l-70 -11z M788 1219l3 94l34 76l74 10l80 -10l-2 -91l-33 -79l-70 -11z" />
<glyph unicode="&#xfd;" horiz-adv-x="907" d="M-16 840l356 149l27 -16l118 -903l349 647l-162 174l157 94l68 -67l-18 -201l-365 -680l-313 -520l-205 2l41 186h215l223 344l-172 -41l-123 883l-188 -70zM514 1122l205 359h186l-366 -359h-25z" />
<glyph unicode="&#xfe;" horiz-adv-x="987" d="M27 -471l325 1853l-192 -51l-4 19l364 116l27 -20l-123 -692l287 231q106 -14 172.5 -104.5t66.5 -243.5q0 -179 -90 -335.5t-254 -238.5l-192 -94q-35 4 -119 47l-86 -487h-182zM315 131q39 -40 95 -62t100 -24q248 119 248 490q0 128 -46 209.5t-128 109.5l-166 -131z " />
<glyph unicode="&#xff;" horiz-adv-x="907" d="M-16 840l356 149l27 -16l118 -903l349 647l-162 174l157 94l68 -67l-18 -201l-365 -680l-313 -520l-205 2l41 186h215l223 344l-172 -41l-123 883l-188 -70zM416 1219l2 94l33 76l73 10l82 -10l-2 -91l-33 -79l-69 -11zM764 1219l2 94l35 76l73 10l80 -10l-2 -91l-32 -79 l-70 -11z" />
<glyph unicode="&#x152;" horiz-adv-x="1918" d="M115 582q0 101 20.5 199.5t66.5 197t115 181.5t172.5 152t231.5 109l153 49q126 -3 281 -36h817l-59 -373h-21l-84 344h-479l-98 -653h254l133 241h16l-82 -512h-16l-57 242h-252l-105 -694h498l190 354h21l-62 -383h-851l-263 -37q-233 0 -386.5 173.5t-153.5 445.5z M348 618q0 -266 102.5 -425t264.5 -177l198 17l203 1343q-60 20 -149.5 35.5t-151.5 15.5q-137 -36 -245 -159.5t-165 -294.5t-57 -355z" />
<glyph unicode="&#x153;" horiz-adv-x="1503" d="M74 360q0 184 94.5 331t273.5 231l140 63q105 0 186 -64.5t111 -185.5q43 57 121.5 110.5t173.5 90.5l118 49q81 -16 128.5 -69.5t47.5 -147.5q0 -81 -41 -152l-526 -161q13 -280 246 -363q167 93 252 150l14 -19q-113 -82 -242 -164l-139 -90q-90 11 -168.5 74 t-113.5 164q-78 -114 -207 -172l-148 -66q-136 0 -228.5 103.5t-92.5 287.5zM268 414q0 -174 60 -268t155 -115q63 26 110.5 85t73 133.5t38 150.5t12.5 151q0 179 -58 265t-163 108q-62 -26 -108.5 -83t-71.5 -130t-36.5 -147t-11.5 -150zM895 500q0 -7 4 -27l336 119 q29 59 29 143q0 70 -31.5 115t-85.5 59q-112 -63 -180.5 -166t-71.5 -243z" />
<glyph unicode="&#x178;" horiz-adv-x="1257" d="M152 1415v19h522v-21l-168 -12l278 -758l459 758l-176 12v21h342v-21l-115 -12l-495 -807l-86 -561l172 -13v-20h-555v20l174 13l84 555l-314 813zM621 1602l2 94l34 76l74 10l82 -10l-2 -91l-33 -79l-71 -11zM991 1602v94l37 76l72 10l82 -10l-2 -91l-33 -79l-70 -11z " />
<glyph unicode="&#x2c6;" horiz-adv-x="1011" d="M244 1122l311 377h43l174 -377h-22l-197 221h-6l-279 -221h-24z" />
<glyph unicode="&#x2dc;" horiz-adv-x="1030" d="M166 1188l104 223l115 39l342 -172l109 168h18l-106 -223l-115 -39l-346 176l-103 -172h-18z" />
<glyph unicode="&#x2000;" horiz-adv-x="961" />
<glyph unicode="&#x2001;" horiz-adv-x="1923" />
<glyph unicode="&#x2002;" horiz-adv-x="961" />
<glyph unicode="&#x2003;" horiz-adv-x="1923" />
<glyph unicode="&#x2004;" horiz-adv-x="641" />
<glyph unicode="&#x2005;" horiz-adv-x="480" />
<glyph unicode="&#x2006;" horiz-adv-x="320" />
<glyph unicode="&#x2007;" horiz-adv-x="320" />
<glyph unicode="&#x2008;" horiz-adv-x="240" />
<glyph unicode="&#x2009;" horiz-adv-x="384" />
<glyph unicode="&#x200a;" horiz-adv-x="106" />
<glyph unicode="&#x2010;" horiz-adv-x="786" d="M100 537l11 63h624l-10 -63h-625z" />
<glyph unicode="&#x2011;" horiz-adv-x="786" d="M100 537l11 63h624l-10 -63h-625z" />
<glyph unicode="&#x2012;" horiz-adv-x="786" d="M100 537l11 63h624l-10 -63h-625z" />
<glyph unicode="&#x2013;" horiz-adv-x="1110" d="M113 545l10 49h895l-8 -49h-897z" />
<glyph unicode="&#x2014;" horiz-adv-x="1871" d="M143 545l9 49h1638l-8 -49h-1639z" />
<glyph unicode="&#x2018;" horiz-adv-x="452" d="M180 924l8 108l37 98l238 324l14 -4l-188 -315l88 6l53 -11l-10 -114l-35 -92l-147 -11z" />
<glyph unicode="&#x2019;" horiz-adv-x="466" d="M205 920l190 313l-90 -4l-51 10l8 115l35 90l149 10l58 -10l-10 -107l-37 -98l-238 -326z" />
<glyph unicode="&#x201a;" horiz-adv-x="493" d="M37 -285l188 314l-88 -4l-53 10l10 115l35 90l147 10l58 -10l-10 -107l-35 -98l-240 -326z" />
<glyph unicode="&#x201c;" horiz-adv-x="784" d="M180 924l8 106l37 100l238 324l14 -6l-188 -313l88 6l53 -11l-10 -116l-35 -90l-147 -11zM512 924l8 106l37 100l238 324l14 -6l-188 -313l88 6l53 -11l-10 -116l-35 -90l-148 -11z" />
<glyph unicode="&#x201d;" horiz-adv-x="813" d="M205 924l188 313l-88 -6l-51 10l8 117l35 90l147 10l58 -10l-8 -107l-37 -100l-240 -323zM537 924l188 313l-88 -6l-51 10l8 117l35 90l147 10l58 -10l-9 -107l-37 -100l-239 -323z" />
<glyph unicode="&#x201e;" horiz-adv-x="825" d="M37 -285l188 314l-88 -4l-53 10l10 115l35 90l147 10l58 -10l-10 -107l-35 -98l-240 -326zM369 -285l188 314l-88 -4l-53 10l10 115l35 90l147 10l58 -10l-11 -107l-34 -98l-240 -326z" />
<glyph unicode="&#x2022;" horiz-adv-x="524" d="M133 512l12 121l35 98l150 10l61 -10l-8 -115l-37 -104l-151 -10z" />
<glyph unicode="&#x2026;" horiz-adv-x="1601" d="M102 -2l11 119l32 98l156 10l55 -10l-10 -117l-33 -100l-153 -10zM616 -2l9 119l34 98l154 10l55 -10l-8 -117l-33 -100l-155 -10zM1128 -2l11 119l32 98l156 10l55 -10l-10 -117l-33 -100l-153 -10z" />
<glyph unicode="&#x202f;" horiz-adv-x="384" />
<glyph unicode="&#x2039;" horiz-adv-x="561" d="M72 481l452 451h27l-348 -451l188 -450h-29z" />
<glyph unicode="&#x203a;" horiz-adv-x="598" d="M57 31l346 450l-188 451h27l293 -451l-451 -450h-27z" />
<glyph unicode="&#x205f;" horiz-adv-x="480" />
<glyph unicode="&#x20ac;" horiz-adv-x="1245" d="M20 602l7 23h129q6 106 39 196h-134l7 23h135q66 177 219.5 317t392.5 232l211 77q61 -14 138.5 -46.5t131.5 -67.5l-96 -146q-70 47 -174 96.5t-188 75.5q-380 -197 -449 -538h651l-16 -23h-639q-10 -75 -10 -135q0 -43 2 -61h508l-15 -23h-491q36 -424 409 -549 q109 42 340 166l9 -12q-187 -108 -443 -244q-80 2 -157.5 28t-147 76t-122.5 118.5t-84 164t-31 205.5q0 31 2 47h-134z" />
<glyph unicode="&#x2122;" horiz-adv-x="1890" d="M184 1206v228h686v-228h-16l-100 209h-144v-745l107 -8v-17h-381v17l108 8v745h-145l-98 -209h-17zM911 645v17l84 8v741l-84 8v15h267l274 -631l256 631h254v-15l-88 -8v-741l88 -8v-17h-330v17l74 8v700l-293 -731h-82l-311 750v-719l86 -8v-17h-195z" />
<glyph unicode="&#x25fc;" horiz-adv-x="983" d="M0 0v983h983v-983h-983z" />
</font>
</defs>
</svg>
