<?xml version="1.0" standalone="no"?>
<!DOCTYPE svg PUBLIC "-//W3C//DTD SVG 1.1//EN" "http://www.w3.org/Graphics/SVG/1.1/DTD/svg11.dtd" >
<svg xmlns="http://www.w3.org/2000/svg" xmlns:xlink="http://www.w3.org/1999/xlink" version="1.1">
<metadata></metadata>
<defs>
<font id="gt_sectrabold_italic" horiz-adv-x="1269" >
<font-face units-per-em="2048" ascent="1536" descent="-512" />
<missing-glyph horiz-adv-x="491" />
<glyph unicode="&#xfb01;" horiz-adv-x="1228" d="M-268 -481l43 229h231q61 73 76 180l158 897h-197l10 43l99 86h108l12 72q17 94 61 174t116 121l249 143h529l-37 -194h-572q-26 -23 -43 -62.5t-22 -74.5l-33 -189h334l160 68l112 -103l-137 -770l166 103l41 -56l-307 -217l-178 80l139 801l-107 -25h-243l-148 -843 q-31 -167 -246 -314l-225 -149h-149z" />
<glyph unicode="&#xfb02;" horiz-adv-x="1234" d="M-268 -481l43 229h231q61 73 76 180l158 897h-197l10 43l99 86h108l12 72q17 94 61 174t116 121l249 143h424l86 -69l-221 -1258l170 105l41 -56l-309 -217l-182 80l137 776h-344l-148 -843q-31 -167 -246 -314l-225 -149h-149zM520 944h344l66 371l-146 -45h-166 q-26 -23 -43 -62.5t-22 -74.5z" />
<glyph unicode="&#xfb03;" horiz-adv-x="1851" d="M-268 -481l43 229h231q61 73 76 180l158 897h-197l10 43l99 86h108l12 72q17 94 61 174t116 121l249 143h363l-299 -194h-144q-26 -23 -43 -62.5t-22 -74.5l-33 -189h361l14 82q15 93 59 173.5t117 121.5l250 143h528l-37 -194h-571q-26 -23 -43 -62.5t-22 -74.5 l-33 -189h334l159 68l113 -103l-137 -770l166 103l41 -56l-310 -217l-178 80l142 801l-107 -25h-244l-147 -843q-31 -168 -248 -314l-223 -149h-125l41 229h209q61 73 76 180l155 897h-360l-148 -843q-31 -167 -246 -314l-225 -149h-149z" />
<glyph unicode="&#xfb04;" horiz-adv-x="1857" d="M-268 -481l43 229h231q61 73 76 180l158 897h-197l10 43l99 86h108l12 72q17 94 61 174t116 121l249 143h363l-299 -194h-144q-26 -23 -43 -62.5t-22 -74.5l-33 -189h361l14 82q15 93 59 173.5t117 121.5l250 143h422l88 -69l-221 -1258l168 105l41 -56l-308 -217 l-182 80l137 776h-344l-147 -843q-31 -168 -248 -314l-223 -149h-125l41 229h209q61 73 76 180l155 897h-360l-148 -843q-31 -167 -246 -314l-225 -149h-149zM1143 944h344l65 371l-145 -45h-166q-26 -23 -43 -62.5t-22 -74.5z" />
<glyph horiz-adv-x="0" />
<glyph horiz-adv-x="0" />
<glyph horiz-adv-x="682" />
<glyph unicode="&#xd;" horiz-adv-x="737" />
<glyph unicode=" "  horiz-adv-x="491" />
<glyph unicode="&#x09;" horiz-adv-x="491" />
<glyph unicode="&#xa0;" horiz-adv-x="491" />
<glyph unicode="!" horiz-adv-x="692" d="M131 2l12 141l33 117l189 16l69 -16l-8 -137l-37 -121l-188 -12zM274 481l17 383l84 590h284l-127 -590l-131 -383h-127z" />
<glyph unicode="&#x22;" horiz-adv-x="911" d="M199 893q39 62 83.5 150.5t51.5 125.5l-96 13l10 139l39 119l178 14l76 -14l-9 -137l-36 -121l-207 -328zM590 893q42 70 85 155t48 121l-96 13l12 139l39 119l178 14l76 -14l-10 -137l-37 -121l-207 -328z" />
<glyph unicode="#" horiz-adv-x="1271" d="M74 399l37 127h241l88 289h-237l37 127h237l119 399h149l-118 -399h272l119 399h149l-118 -399h245l-37 -127h-245l-88 -289h241l-37 -127h-243l-117 -399h-150l117 399h-272l-117 -399h-149l116 399h-239zM502 526h272l88 289h-272z" />
<glyph unicode="$" horiz-adv-x="1218" d="M90 84l53 322h150v-173q87 -87 215 -122l84 473l-152 125q-96 80 -145 152.5t-49 166.5q0 123 84 212t258 157l157 61l25 141h88l-22 -131q215 -10 354 -110l-60 -303h-129l-16 180q-77 68 -174 96l-76 -426l148 -123q50 -42 77 -69.5t59 -71t46 -95t14 -116.5 q0 -122 -86.5 -225.5t-236.5 -163.5l-185 -70l-22 -135h-88l22 129q-120 9 -225.5 41t-167.5 78zM535 1167q0 -57 29.5 -99t94.5 -99l66 379q-8 2 -27 2q-163 -53 -163 -183zM594 94h31q77 30 118 86t41 129q0 69 -29.5 117.5t-86.5 95.5z" />
<glyph unicode="%" horiz-adv-x="1685" d="M96 -10l1311 1454h190l-1310 -1454h-191zM176 1026q18 172 124 268.5t294 143.5q130 0 202.5 -87t57.5 -223q-20 -172 -127 -270.5t-295 -140.5q-125 0 -199.5 85t-56.5 224zM395 1081q-19 -138 6.5 -206t81.5 -68q58 0 95 71.5t51 194.5q18 136 -7 206.5t-75 70.5 q-63 0 -101 -72t-51 -197zM840 309q19 172 125 268.5t295 143.5q130 0 202.5 -87t55.5 -222q-20 -173 -126 -272t-294 -140q-125 0 -200 85t-58 224zM1059 365q-18 -138 8 -206.5t82 -68.5q58 0 94.5 71.5t48.5 194.5q19 137 -6 207t-76 70q-62 0 -100 -72t-51 -196z" />
<glyph unicode="&#x26;" horiz-adv-x="1312" d="M80 340q0 283 366 428l93 37q-85 13 -159.5 90.5t-74.5 185.5q0 52 23 97.5t63 81t99.5 66.5t125.5 54.5t148 44.5l182 48q53 -4 124 -39.5t118 -71.5l-137 -184q-47 44 -140 100.5t-157 77.5q-150 -99 -150 -254q0 -101 43 -167.5t84 -66.5l-18 -98q-80 0 -154.5 -53 t-121 -144t-46.5 -194q0 -136 62.5 -223.5t181.5 -87.5q105 36 161 117.5t83 224.5l22 131h-100l-35 -47h-45l41 215h491l35 47h43l-39 -215h-123l-28 -152q-14 -71 -34 -119.5t-62 -96.5t-114 -85.5t-181 -69.5q-9 -4 -52 -15.5t-93 -24.5t-58 -15q-225 0 -346 104 t-121 273z" />
<glyph unicode="'" horiz-adv-x="520" d="M199 893q39 62 83.5 150.5t51.5 125.5l-96 13l10 139l39 119l178 14l76 -14l-9 -137l-36 -121l-207 -328z" />
<glyph unicode="(" horiz-adv-x="686" d="M123 203q0 140 12 251.5t43.5 217t72 191.5t113.5 191.5t150 200t199 232.5l65 -51q-456 -569 -456 -1252q0 -327 110 -610l-65 -61q-137 237 -190.5 377t-53.5 313z" />
<glyph unicode=")" horiz-adv-x="663" d="M-57 -436q456 569 456 1251q0 327 -110 610l65 62q137 -237 190.5 -377t53.5 -313q0 -140 -12 -251.5t-43.5 -217t-72 -191.5t-113.5 -191.5t-150 -200t-199 -232.5z" />
<glyph unicode="*" horiz-adv-x="833" d="M133 1122l100 215l205 -116l-18 243h227l-69 -243l233 116l43 -215l-250 -32l164 -170l-199 -136l-88 226l-135 -226l-164 136l195 170z" />
<glyph unicode="+" d="M106 440v158h449v457h158v-457h448v-158h-448v-440h-158v440h-449z" />
<glyph unicode="," horiz-adv-x="526" d="M61 -285q39 63 84 151.5t52 125.5l-97 10l11 141l39 117l178 16l75 -16l-8 -137l-37 -121l-206 -326z" />
<glyph unicode="-" horiz-adv-x="819" d="M102 496l29 157h625l-29 -157h-625z" />
<glyph unicode="." horiz-adv-x="561" d="M102 2l13 141l35 117l186 16l72 -16l-11 -137l-37 -121l-188 -12z" />
<glyph unicode="/" horiz-adv-x="1038" d="M-252 -471l1268 1941h143l-1265 -1941h-146z" />
<glyph unicode="0" horiz-adv-x="1230" d="M92 399q0 74 14.5 140.5t49 132t88 119.5t135 100.5t186.5 77.5l142 43q208 0 335 -120.5t127 -307.5q0 -74 -14.5 -140.5t-49 -132t-88 -120.5t-135 -101.5t-186.5 -77.5l-141 -43q-208 0 -335.5 122t-127.5 308zM395 430q0 -129 62 -219.5t157 -114.5 q119 44 185.5 166.5t66.5 290.5q0 127 -65.5 218.5t-153.5 113.5q-119 -44 -185.5 -165t-66.5 -290z" />
<glyph unicode="1" horiz-adv-x="991" d="M10 -2l6 96l310 33l104 606l19 41l-91 -37l-219 -45l-22 88l499 215h146l-152 -868l299 -33l-28 -96l-428 6z" />
<glyph unicode="2" horiz-adv-x="1085" d="M-10 96l340 240q169 119 223 166q135 117 144 231q1 9 1 19q0 133 -127 133l-125 -35l-92 -203h-217l27 221l493 144q167 0 258 -64t91 -172q0 -241 -521 -487l-284 -131l407 75h424v-86l-86 -147h-917z" />
<glyph unicode="3" horiz-adv-x="997" d="M-92 -481l41 229h461q151 114 151 275q0 100 -70 155t-215 55l-18 70l96 41q131 55 205 149.5t74 217.5q0 76 -36 123.5t-95 50.5l-119 -35l-90 -217h-215l26 235l482 144q176 0 258 -73.5t82 -197.5q0 -72 -32 -134t-89 -108t-121.5 -79t-142.5 -58q84 -6 149 -32 t104 -66t58.5 -88.5t19.5 -103.5q0 -56 -15 -105.5t-41.5 -87.5t-62.5 -71.5t-78 -60t-89 -49t-94.5 -42t-94.5 -37.5q-15 -5 -23 -8.5t-20 -8t-22 -8.5l-193 -75h-231z" />
<glyph unicode="4" horiz-adv-x="1179" d="M10 117l772 864h275l-19 -111l-862 -733l129 45h318l24 152l225 162h56l-54 -314h265l-35 -194h-264l-82 -459h-252l82 459h-516z" />
<glyph unicode="5" horiz-adv-x="1040" d="M-41 -481l41 229h461q73 61 113 144t40 169q0 108 -50.5 170t-157.5 62q-54 0 -98.5 -12t-108.5 -41l-74 -39l-45 51l213 729h760l-17 -86l-88 -147h-600l-125 -406l291 145q193 0 301.5 -94.5t108.5 -234.5q0 -66 -16.5 -125t-42.5 -105t-67.5 -89t-82.5 -74.5t-97 -63 t-101.5 -52.5t-104.5 -46l-199 -84h-254z" />
<glyph unicode="6" horiz-adv-x="1148" d="M102 455q0 171 77.5 340.5t210 305.5t318.5 234.5t394 132.5l31 -82q-123 -31 -230 -87.5t-183 -123.5t-133.5 -145.5t-90 -153t-45.5 -145.5l319 219q142 0 236 -112t94 -269q0 -200 -121 -345t-324 -214l-137 -45q-190 0 -303 130t-113 360zM412 403q0 -135 45.5 -220 t130.5 -105q71 32 120 101.5t69 144t20 151.5q0 131 -35.5 203t-89.5 72q-37 0 -75 -17.5t-95 -58.5l-68 -49q-22 -121 -22 -222z" />
<glyph unicode="7" horiz-adv-x="1032" d="M23 -471l4 115l776 1122l-84 -43h-666l43 258h893l55 -68l-823 -1384h-198z" />
<glyph unicode="8" horiz-adv-x="1171" d="M82 287q0 68 21.5 127t56.5 103t87 83t106 66.5t120 52.5q-112 75 -164.5 150t-52.5 167q0 135 98 232.5t260 150.5l164 49q179 0 287.5 -73t108.5 -191q0 -66 -22 -122t-54.5 -95.5t-85.5 -76t-100 -60t-113 -51.5q70 -48 112.5 -81.5t84 -78.5t60.5 -94.5t19 -108.5 q0 -300 -452 -436l-129 -39q-176 0 -294 92t-118 234zM383 340q0 -110 57.5 -180t132.5 -90q94 37 141.5 109.5t47.5 166.5q0 43 -12.5 83t-27 66.5t-48 61.5t-51 50.5t-60.5 51.5q-180 -136 -180 -319zM563 1118q0 -134 150 -252q161 115 161 283q0 87 -43.5 143.5 t-132.5 69.5q-135 -57 -135 -244z" />
<glyph unicode="9" horiz-adv-x="1148" d="M47 -410q123 31 230 87.5t182.5 124t133.5 146t90.5 152.5t45.5 144l-319 -219q-142 0 -236 112t-94 269q0 201 121 346.5t323 212.5l138 45q190 0 302.5 -129t112.5 -359q0 -172 -77.5 -341.5t-209.5 -306t-318 -235t-394 -133.5zM383 496q0 -129 35.5 -199t89.5 -70 q37 0 75 17.5t95 58.5l67 47q23 130 23 221q0 137 -45.5 222.5t-130.5 105.5q-104 -49 -156.5 -164.5t-52.5 -238.5z" />
<glyph unicode=":" horiz-adv-x="585" d="M102 2l13 141l35 117l186 16l72 -16l-11 -137l-37 -121l-188 -12zM221 715l10 139l35 119l189 14l69 -14l-8 -137l-37 -121l-188 -15z" />
<glyph unicode=";" horiz-adv-x="583" d="M61 -285q39 63 84 151.5t52 125.5l-97 10l11 141l39 117l178 16l75 -16l-8 -137l-37 -121l-206 -326zM217 715l12 139l35 119l189 14l69 -14l-8 -137l-39 -121l-186 -15z" />
<glyph unicode="&#x3c;" d="M102 524v123l1065 475v-180l-856 -354l856 -355v-182z" />
<glyph unicode="=" d="M106 223v158h1055v-158h-1055zM106 623v157h1055v-157h-1055z" />
<glyph unicode="&#x3e;" d="M102 674v123l1065 475v-180l-856 -355l856 -354v-182zM113 0v158h1046v-158h-1046z" />
<glyph unicode="?" horiz-adv-x="907" d="M127 2l12 141l35 117l186 16l72 -16l-10 -137l-37 -121l-188 -12zM225 1315l414 139q62 0 121.5 -23t106 -64t74.5 -102t28 -132q0 -130 -90 -224.5t-263 -163.5l-122 -47l-91 -247h-118l39 249l161 86q82 43 128 125t46 176q0 82 -37.5 155.5t-93.5 86.5l-92 -31 l-35 -155h-172z" />
<glyph unicode="@" horiz-adv-x="1910" d="M154 510q0 297 197 528t523 332l191 60q186 0 336 -45.5t247 -126.5t149 -190.5t52 -238.5q0 -131 -51.5 -251.5t-135.5 -206t-196 -136.5t-229 -51l-121 127l84 228q-41 -66 -293 -359q-125 0 -217 81.5t-92 209.5q0 170 100 310t269 216l223 101l258 -140l-166 -690 q64 8 130 49t122.5 108.5t92.5 168.5t36 215q0 222 -153.5 367t-407.5 145q-104 0 -209 -35.5t-197.5 -104.5t-164.5 -161.5t-114 -215.5t-42 -257t40 -244.5t107 -184t157 -123.5t187.5 -72.5t200.5 -22.5q74 0 155.5 19t115.5 32.5t102 42.5l37 -68q-112 -57 -250.5 -102 t-237.5 -57q-185 0 -341 56t-264.5 154t-169 235.5t-60.5 297.5zM811 532q0 -82 35 -124.5t98 -42.5l230 264l61 225l-148 109q-75 -34 -131 -88t-86 -114t-44.5 -117.5t-14.5 -111.5z" />
<glyph unicode="A" horiz-adv-x="1423" d="M-47 -2l4 96l127 23l758 1294l266 59l127 -1353l131 -23l-23 -96l-346 6l-243 -6l4 96l153 27l-26 344h-453l-203 -344l156 -27l-25 -96l-206 6zM489 578h388l-41 509l12 140z" />
<glyph unicode="B" horiz-adv-x="1259" d="M-20 -2l4 96l163 27l193 1198l-154 24l25 93l254 -6l401 6h4q176 0 275 -84q100 -84 100 -203q0 -118 -79.5 -207.5t-219.5 -130.5l-127 -35q196 -21 302 -108.5t106 -212.5q0 -262 -383 -392l-201 -65l-405 6zM453 131h284q172 111 172 307q0 116 -62 189t-183 73h-119z M561 805h86q86 0 155 47.5t104.5 119.5t35.5 150q0 91 -48 149t-140 58h-111z" />
<glyph unicode="C" horiz-adv-x="1327" d="M96 582q0 125 32.5 242.5t100 226.5t182.5 199t267 145l217 80q136 0 245.5 -44t182.5 -102l-4 -344h-131l-51 199q-51 51 -140 92.5t-209 58.5q-180 -89 -271 -268.5t-91 -423.5q0 -125 30 -226.5t81.5 -167t116 -102.5t137.5 -45q79 33 129 64.5t102 83.5l123 233h137 l-94 -381l-498 -139q-275 0 -434.5 166.5t-159.5 452.5z" />
<glyph unicode="D" horiz-adv-x="1419" d="M-20 -2l6 96l161 27l191 1198l-156 24l27 93l309 -6l332 6h3q259 0 413 -164t155 -432q0 -120 -35 -232t-106 -216t-191.5 -191t-279.5 -144l-164 -59l-364 6zM453 133h297q149 93 245.5 266t96.5 408q0 232 -97.5 372.5t-234.5 145.5h-117z" />
<glyph unicode="E" horiz-adv-x="1255" d="M-20 -2l4 96l161 27l193 1194l-158 26l27 95l276 -6l803 6v-385h-106l-99 260l-440 6l-82 -506l236 8l127 219h92l-76 -286l-18 -283h-93l-53 217l-233 8l-92 -575l499 6l164 276h109l-103 -403l-862 6z" />
<glyph unicode="F" horiz-adv-x="1196" d="M-20 -2l4 96l161 27l193 1194l-158 26l27 95l276 -6l803 6v-398h-106l-99 273l-440 6l-86 -539l236 8l127 220h92l-76 -287l-19 -283h-92l-53 219l-233 9l-88 -545l247 -25l-26 -96l-387 6z" />
<glyph unicode="G" horiz-adv-x="1402" d="M80 573q0 99 21.5 195t70 191t120 176.5t178.5 152t239 117.5l182 65q139 0 250 -41.5t180 -99.5v-338h-131l-51 193q-57 62 -153 104.5t-200 46.5q-178 -89 -277 -264t-99 -428q0 -130 28 -231.5t78 -165.5t111.5 -100t134.5 -46q87 25 147 66l62 383l-166 26l26 101 l310 -4l252 6l-2 -103l-117 -26l-70 -430l-534 -156q-273 0 -431.5 162.5t-158.5 447.5z" />
<glyph unicode="H" horiz-adv-x="1492" d="M-20 -2l4 96l163 27l189 1194l-156 26l27 95l303 -6l289 6l-6 -95l-148 -26l-82 -516h481l82 516l-141 26l27 95l291 -6l299 6l-7 -95l-159 -26l-189 -1194l152 -27l-27 -96l-297 6l-293 -6l4 96l152 27l90 563h-483l-88 -563l139 -27l-27 -96l-284 6z" />
<glyph unicode="I" horiz-adv-x="706" d="M-14 -2l6 96l162 27l192 1192l-156 26l27 97l309 -6l289 6l-6 -97l-160 -26l-192 -1192l151 -27l-26 -96l-297 6z" />
<glyph unicode="J" horiz-adv-x="741" d="M-170 -358l43 215h223q79 126 105 307l182 1149l-180 26l26 97l324 -6l299 6l-6 -97l-160 -26l-178 -1108q-21 -129 -83.5 -215.5t-186.5 -175.5l-230 -172h-178z" />
<glyph unicode="K" horiz-adv-x="1499" d="M-20 -2l6 96l164 27l190 1192l-156 26l27 97l309 -6l268 6l-6 -97l-139 -26l-84 -531l62 31l542 500l-137 26l21 97l239 -6l244 6l-4 -97l-176 -26l-592 -518l78 -39l477 -637l100 -25l-24 -96l-166 6l-213 -6l-430 659l-31 74l-96 -610l129 -27l-25 -96l-276 6z" />
<glyph unicode="L" horiz-adv-x="1183" d="M-20 -2l6 96l164 27l190 1192l-156 26l27 97l270 -6l332 6l-6 -97l-164 -26l-192 -1194l438 6l184 289h109l-125 -416l-799 6z" />
<glyph unicode="M" horiz-adv-x="1837" d="M-20 -2l6 96l155 27l189 1186l-158 32l27 97l200 -6l322 6l180 -1008l-14 -166l545 1174l276 -6l238 6l-7 -97l-159 -26l-191 -1192l148 -27l-27 -96l-285 6l-299 -6l4 96l164 27l160 985l59 227l-628 -1333h-199l-194 1059l-23 266l-174 -1204l145 -27l-20 -96l-221 6z " />
<glyph unicode="N" horiz-adv-x="1435" d="M-20 -2l4 96l163 27l189 1190l-150 28l25 97l178 -6l217 6l469 -877l29 -217l135 971l-145 26l24 97l201 -6l235 6l-4 -97l-164 -26l-208 -1313h-179l-518 1008l-24 213l-162 -1100l170 -27l-27 -96l-233 6z" />
<glyph unicode="O" horiz-adv-x="1476" d="M96 608q0 99 20 193.5t66 188.5t114 173t171.5 145.5t232.5 106.5l177 55q278 0 438 -175t160 -470q0 -99 -20 -193.5t-66 -188.5t-114.5 -173t-171.5 -145.5t-231 -106.5l-178 -55q-277 0 -437.5 175t-160.5 470zM426 639q0 -228 94 -370.5t252 -174.5q185 83 279 266.5 t94 434.5q0 228 -94 370t-252 174q-186 -83 -279.5 -266t-93.5 -434z" />
<glyph unicode="P" horiz-adv-x="1226" d="M-20 -2l6 96l161 27l193 1196l-156 22l27 97l291 -6l397 4h13q179 0 287 -80q112 -82 112 -230q0 -70 -23.5 -129t-62.5 -103.5t-102.5 -86t-130 -72t-158.5 -65.5l-154 -60h-150l-79 -487l243 -27l-24 -96l-394 6zM553 756h264q170 131 170 334q0 115 -52.5 177.5 t-150.5 65.5h-139z" />
<glyph unicode="Q" horiz-adv-x="1476" d="M96 608q0 99 20 193.5t66 188.5t114 173t171.5 145.5t232.5 106.5l177 55q278 0 438 -175t160 -470q0 -99 -20 -193.5t-66 -188.5t-114.5 -173t-171.5 -145.5t-231 -106.5l-67 -20l205 -68l164 -147l131 -43l-7 -80h-344l-284 305q-266 7 -420 181.5t-154 461.5zM426 639 q0 -228 94 -370.5t252 -174.5q185 83 279 266.5t94 434.5q0 228 -94 370t-252 174q-186 -83 -279.5 -266t-93.5 -434z" />
<glyph unicode="R" horiz-adv-x="1394" d="M-20 -2l6 96l161 27l193 1196l-156 22l27 97l291 -6l397 6h9q180 0 290 -79q112 -81 113 -218q0 -147 -98 -244.5t-281 -165.5l-131 -47l188 -84l230 -475l104 -31l-20 -94l-211 6l-168 -6l-267 625l-24 20h-98l-84 -522l163 -27l-26 -96l-312 6zM557 786h244 q186 109 186 326q0 104 -52 162t-151 59h-139z" />
<glyph unicode="S" horiz-adv-x="1071" d="M31 84l53 322h149v-173q60 -60 151 -99.5t181 -39.5q77 31 118.5 86.5t41.5 128.5q0 41 -10.5 75t-32 62.5t-43 49t-55.5 47.5l-203 166q-97 81 -146 153.5t-49 165.5q0 123 84 212t258 157l189 73q257 0 413 -112l-59 -303h-129l-16 180q-125 109 -287 115 q-164 -53 -164 -183q0 -60 32.5 -103t110.5 -110l205 -172q40 -34 62.5 -54.5t52 -55.5t44.5 -67t26.5 -77.5t11.5 -97.5q0 -122 -87 -225.5t-237 -163.5l-202 -78q-136 0 -264 34t-199 87z" />
<glyph unicode="T" horiz-adv-x="1251" d="M139 1024l58 412l598 -6l577 6l-55 -412h-107l-53 289l-237 6l-193 -1198l188 -27l-24 -96l-338 6l-332 -6l4 96l199 27l192 1198l-239 -6l-133 -289h-105z" />
<glyph unicode="U" horiz-adv-x="1417" d="M166 1341l24 95l279 -6l317 6l-4 -95l-153 -26l-137 -840q-6 -37 -7 -70q1 -108 67 -186q86 -102 251 -102q81 36 127.5 73.5t80 106t50.5 178.5l135 840l-180 26l24 95l256 -6l244 6l-6 -95l-178 -26l-129 -819q-15 -91 -40.5 -159.5t-72.5 -132.5t-124.5 -111.5 t-186.5 -78.5l-176 -51q-449 0 -449 396q0 64 12 139l132 817z" />
<glyph unicode="V" horiz-adv-x="1372" d="M166 1341l24 95l340 -6l238 6l-4 -95l-154 -26l160 -938l-27 -164l490 1102l-156 26l27 95l217 -6l180 6l-6 -95l-102 -22l-605 -1296l-229 -60l-262 1356z" />
<glyph unicode="W" horiz-adv-x="2004" d="M160 1339l24 97l340 -6l221 6l-4 -97l-137 -26l123 -948l-27 -146l351 875l-35 223l-113 22l25 97l323 -6l250 6l-6 -97l-166 -26l125 -948l-27 -146l447 1094l-180 26l24 97l242 -6l174 6l-6 -97l-103 -22l-561 -1297l-227 -57l-133 879l16 123l-383 -942l-227 -60 l-219 1354z" />
<glyph unicode="X" horiz-adv-x="1456" d="M-41 -2l4 96l143 25l517 583l-344 615l-115 22l24 97l234 -6l358 6l-4 -97l-153 -26l198 -381v-90l412 471l-148 26l25 97l268 -6l170 6l-4 -97l-129 -22l-502 -553l363 -645l104 -25l-24 -96l-232 6l-356 -6l4 96l154 27l-209 403v97l-418 -502l139 -25l-24 -96l-260 6z " />
<glyph unicode="Y" horiz-adv-x="1380" d="M166 1339l24 97l275 -6l301 6l-4 -97l-156 -26l217 -525v-120l416 647l-149 24l22 97l227 -6l177 4l-5 -95l-114 -24l-498 -742l-70 -452l218 -27l-25 -96l-369 6l-364 -6l4 96l233 27l70 454l-315 740z" />
<glyph unicode="Z" horiz-adv-x="1165" d="M-18 98l862 1147l112 76l-530 -14l-141 -267h-101l62 394h989l22 -91l-870 -1159l-108 -67l557 10l206 303h109l-141 -430h-1020z" />
<glyph unicode="[" horiz-adv-x="681" d="M20 -471q158 897 185 1053l155 882l168 -6l269 6l-17 -96l-260 -20q-61 -290 -143 -758q-44 -249 -83.5 -485t-57.5 -347l-17 -112l252 -21l-16 -96l-265 6z" />
<glyph unicode="\" horiz-adv-x="901" d="M201 1470h135l586 -1941h-138z" />
<glyph unicode="]" horiz-adv-x="677" d="M-111 -471l17 96l260 21q78 384 178 944q36 208 66.5 397.5t42.5 274.5l12 86l-252 20l18 96l265 -6l172 6q-144 -800 -158 -884l-184 -1051l-168 6z" />
<glyph unicode="^" horiz-adv-x="780" d="M143 942l306 502h92l198 -502h-213l-63 248l-107 -248h-213z" />
<glyph unicode="_" horiz-adv-x="1148" d="M-82 -262l23 137h1136l-22 -137h-1137z" />
<glyph unicode="`" horiz-adv-x="1024" d="M369 1501h266l20 -360h-125z" />
<glyph unicode="a" horiz-adv-x="1095" d="M63 358q0 185 97 327t280 230l201 97q157 -3 371 -86l-142 -795l168 107l41 -56l-307 -213l-180 74l20 111l43 104l-333 -289q-259 77 -259 389zM346 459q0 -171 94 -275l203 148l82 469q-44 25 -110.5 40t-125.5 15q-143 -162 -143 -397z" />
<glyph unicode="b" horiz-adv-x="1060" d="M70 70l219 1247l-185 -49l-26 73l399 123l90 -69l-94 -543l-49 -102l340 262q123 -28 192.5 -126t69.5 -255q0 -190 -96.5 -343.5t-272.5 -230.5l-194 -88q-240 7 -393 101zM358 205q47 -29 116 -51.5t128 -22.5q71 57 105 166t34 221q0 106 -26.5 178t-73.5 99 l-201 -115z" />
<glyph unicode="c" horiz-adv-x="909" d="M70 358q0 376 413 572l168 82q129 -13 267 -82l-142 -221q-122 84 -262 131q-78 -57 -119 -154.5t-41 -214.5q0 -228 205 -311q155 74 234 125l45 -62q-112 -83 -279 -182l-121 -72q-159 8 -263.5 112t-104.5 277z" />
<glyph unicode="d" horiz-adv-x="1136" d="M70 367q0 179 89 316.5t263 223.5l213 105q50 0 141 -25l58 332l-183 -49l-26 71l399 123l86 -67l-223 -1266l170 111l41 -56l-307 -217l-179 82l19 111l45 100l-334 -293q-272 79 -272 398zM354 457q0 -172 105 -267l200 146l86 481q-111 43 -245 43q-70 -66 -108 -178 t-38 -225z" />
<glyph unicode="e" horiz-adv-x="946" d="M70 356q0 195 105 352t298 226l227 78q95 -21 153 -82t58 -156q0 -79 -28 -180l-525 -154v-22q9 -92 61 -160t132 -98q130 49 274 129l41 -60q-186 -119 -344 -196l-131 -64q-135 23 -228 126t-93 261zM356 514l256 96q19 69 19 123q0 60 -27.5 102t-66.5 52 q-82 -50 -127.5 -149.5t-53.5 -223.5z" />
<glyph unicode="f" horiz-adv-x="716" d="M-268 -481l43 229h231q61 73 76 180l158 897h-197l10 43l99 86h108l12 72q17 94 61 174t116 121l249 143h220l-37 -194h-263q-26 -23 -43 -62.5t-22 -74.5l-33 -189h223l-22 -119h-221l-148 -843q-31 -167 -246 -314l-225 -149h-149z" />
<glyph unicode="g" horiz-adv-x="1069" d="M35 -481l39 227h415q38 38 68.5 99t40.5 126l29 189l47 100l-330 -291q-128 32 -201 130t-73 268q0 178 98 318t285 233l182 94q88 0 198.5 -24t194.5 -64l-166 -944q-8 -45 -33 -86t-69.5 -82t-89.5 -74.5t-117 -81.5l-201 -137h-317zM354 457q0 -191 105 -269l200 144 l84 473q-106 61 -237 61q-77 -68 -114.5 -179.5t-37.5 -229.5z" />
<glyph unicode="h" horiz-adv-x="1148" d="M80 0l233 1321l-180 -53l-29 73l400 123l88 -69l-100 -559l-37 -76l372 252q220 0 220 -189q0 -34 -7 -75l-110 -609l164 103l41 -56l-308 -217l-178 80l111 629q2 18 2 32q0 74 -62 74q-59 0 -145 -55l-92 -57l-119 -672h-264z" />
<glyph unicode="i" horiz-adv-x="634" d="M59 858l361 154l112 -103l-137 -770l166 103l41 -56l-307 -217l-178 80l139 801l-170 -57zM322 1176l6 122l47 119l84 15l147 -15v-133l-45 -108l-78 -17z" />
<glyph unicode="j" horiz-adv-x="604" d="M-256 -481l41 225h235q60 83 84 221l156 885l-170 -57l-27 65l361 154l113 -103l-160 -905q-18 -97 -81 -176t-167 -150l-238 -159h-147zM324 1176l6 122l47 119l84 15l147 -15v-133l-43 -108l-78 -17z" />
<glyph unicode="k" horiz-adv-x="1095" d="M80 0l231 1319l-182 -49l-27 71l398 123l90 -67l-144 -813l43 8l347 399h249l-55 -260h-182q-105 -21 -189 -88l-86 -70l136 -45l200 -385l131 82l41 -55l-299 -201l-141 60l-203 503l-94 -532h-264z" />
<glyph unicode="l" horiz-adv-x="622" d="M94 49l223 1266l-180 -47l-26 73l397 123l88 -69l-221 -1258l168 105l41 -56l-308 -217z" />
<glyph unicode="m" horiz-adv-x="1689" d="M59 858l361 154l108 -99l-14 -79l-33 -72l348 250q214 0 214 -189q0 -22 -3 -47l326 236q214 0 214 -188q0 -35 -7 -76l-111 -621l172 113l41 -58l-309 -213l-182 76l108 627q4 23 4 40q0 66 -55 66q-48 0 -125 -55l-92 -57l-119 -666h-266l121 678q3 19 3 35 q0 71 -56 71q-41 0 -125 -55l-97 -57l-116 -672h-267l150 848l-166 -55z" />
<glyph unicode="n" horiz-adv-x="1169" d="M59 858l361 154l108 -99l-14 -79l-33 -72l363 250q217 0 218 -192q0 -33 -7 -72l-109 -615l168 107l41 -58l-307 -213l-182 76l110 633q3 20 3 36q-1 25 -7 42q-10 28 -51 28q-60 0 -141 -55l-95 -57l-116 -672h-265l148 848l-166 -55z" />
<glyph unicode="o" horiz-adv-x="1060" d="M70 373q0 191 107.5 336t311.5 239l136 64q111 0 202.5 -47t148 -142t56.5 -223q0 -193 -107 -339t-313 -234l-135 -58q-112 0 -203 45t-147.5 138.5t-56.5 220.5zM352 440q0 -289 207 -338q93 46 142 170t49 263q0 149 -55.5 232.5t-153.5 104.5q-92 -46 -140.5 -169.5 t-48.5 -262.5z" />
<glyph unicode="p" horiz-adv-x="1124" d="M27 -471l231 1319l-166 -55l-26 65l360 154l106 -88l-12 -80l-41 -99l342 267q256 -77 256 -389q0 -184 -96.5 -336.5t-265.5 -229.5l-189 -88q-91 7 -168 33l-2 -106l-65 -367h-264zM410 201q144 -70 243 -70q72 55 106 164.5t34 222.5q0 214 -101 275l-203 -119z" />
<glyph unicode="q" horiz-adv-x="1060" d="M70 358q0 183 100 330.5t283 235.5l176 88q96 -2 208 -24t193 -58l-248 -1401h-262l105 604l53 123l-332 -287q-129 32 -202.5 130t-73.5 259zM354 463q0 -197 115 -264l190 129l86 489q-96 43 -247 43q-72 -58 -108 -170t-36 -227z" />
<glyph unicode="r" horiz-adv-x="872" d="M59 858l361 154l90 -86l-27 -164l-69 -244l297 473h194l-61 -272h-119q-109 -62 -197 -164l-82 -90l-79 -465h-267l150 848l-164 -55z" />
<glyph unicode="s" horiz-adv-x="827" d="M10 66l107 206q250 -128 346 -168q51 17 51 72q0 68 -96 141l-193 154q-45 37 -71.5 91.5t-26.5 109.5q0 80 54.5 140t183.5 118l174 82q91 -10 272 -88l-113 -211q-137 87 -313 164q-49 -19 -49 -68q0 -30 19.5 -56t72.5 -67l190 -149q109 -84 109 -205 q0 -188 -211 -269l-240 -94q-56 13 -143.5 45t-122.5 52z" />
<glyph unicode="t" horiz-adv-x="778" d="M63 823l9 43l98 84h109l22 117l221 184h74l-55 -307h237l-22 -121h-236l-119 -684l267 101l30 -58l-397 -213l-182 74l137 780h-193z" />
<glyph unicode="u" horiz-adv-x="1163" d="M55 858l363 154l108 -99l-106 -612q-3 -16 -3 -30q0 -27 10 -45q15 -28 52 -27q10 0 22.5 3.5t22 7t24.5 11.5t22 12.5t22 13.5t18 11l90 61l117 662h264l-149 -850l166 109l41 -58l-310 -213l-172 66l19 121l39 84l-357 -271q-128 1 -183 69q-39 48 -39 123q0 32 7 68 l109 621l-170 -57z" />
<glyph unicode="v" horiz-adv-x="1001" d="M-6 856l373 156l96 -97l6 -669l-25 -133l396 563l-178 198l223 138l106 -109l-47 -282l-473 -652l-258 49l-23 832l-170 -57z" />
<glyph unicode="w" horiz-adv-x="1480" d="M-6 856l360 156l107 -97v-671l-17 -115l267 412l-11 356l273 88v-749l-21 -115l353 549l-164 204l225 138l104 -109l-47 -282l-458 -652l-240 49l-10 258l28 142l-290 -449l-242 49l-21 832l-170 -57z" />
<glyph unicode="x" horiz-adv-x="1085" d="M-6 -10l61 256h129q76 19 152 110l92 107l-117 393l-172 -59l-26 65l350 150l108 -97l64 -225v-94l264 395h219l-61 -256h-117q-68 -20 -149 -108l-105 -103l119 -391l184 107l41 -58l-307 -213l-164 72l-80 258v84l-266 -393h-219z" />
<glyph unicode="y" horiz-adv-x="1026" d="M-20 852l339 160l121 -86l97 -807l319 551l-170 204l225 138l105 -109l-47 -282l-672 -1102h-301l43 260h207l246 258l-207 -37l-113 846l-162 -55z" />
<glyph unicode="z" horiz-adv-x="919" d="M-14 39l716 780l-198 -108l-287 37l-57 -56l-62 13l150 294l565 -59l64 41l61 -43l-668 -725l174 76l316 -64l84 72l57 -18l-162 -314l-583 90l-97 -67z" />
<glyph unicode="{" horiz-adv-x="624" d="M51 522l4 29q41 13 71 31.5t47.5 37.5t30 49.5t17.5 54.5t12 64l66 390q23 127 131 206.5t242 79.5h98l-16 -96h-74q-64 0 -113.5 -50.5t-66.5 -164.5l-51 -365q-6 -42 -15 -70.5t-29 -63.5t-57.5 -64t-93.5 -53l131 -107l-117 -590q-23 -114 8 -164.5t95 -50.5h73 l-16 -96h-111q-133 0 -207 79.5t-51 207.5l105 583z" />
<glyph unicode="|" horiz-adv-x="854" d="M184 -502l346 1972h140l-346 -1972h-140z" />
<glyph unicode="}" horiz-adv-x="624" d="M-131 -471l16 96h74q63 0 112.5 50.5t65.5 164.5l64 424q6 42 14.5 70.5t28.5 63.5t57.5 64.5t93.5 53.5l-131 107l107 530q24 114 -7.5 164.5t-97.5 50.5h-73l18 96h111q133 0 207 -79t51 -207l-95 -525l113 -123l-4 -28q-41 -13 -71 -32t-47 -37.5t-29.5 -50t-17.5 -54 t-13 -64.5l-76 -448q-23 -127 -131 -207t-242 -80h-98z" />
<glyph unicode="~" horiz-adv-x="1499" d="M150 412l106 176l215 80l684 -115l107 96h96l-115 -186l-201 -70l-690 115l-106 -96h-96z" />
<glyph unicode="&#xa1;" horiz-adv-x="583" d="M-8 -502l127 590l131 383h127l-17 -383l-84 -590h-284zM217 692l8 137l37 121l189 13l69 -13l-12 -141l-33 -117l-188 -16z" />
<glyph unicode="&#xa2;" horiz-adv-x="950" d="M78 358q0 376 414 572l14 6l35 190h153l-22 -116q126 -16 254 -80l-142 -221q-122 84 -262 131q-78 -57 -119 -154.5t-41 -214.5q0 -228 205 -311q155 74 234 125l45 -62q-112 -83 -279 -182l-75 -43l-27 -162h-154l25 154q-117 35 -187.5 130.5t-70.5 237.5z" />
<glyph unicode="&#xa3;" horiz-adv-x="1216" d="M33 -2l4 74l194 92l84 475h-180l12 53l86 78h105l51 301q24 129 127 217.5t266 136.5l156 45q40 -7 123 -41t125 -65l-139 -176q-40 43 -114.5 88t-125.5 51q-25 -15 -45 -39.5t-33 -50t-24 -61t-16.5 -60.5t-12.5 -61l-49 -285h307l-25 -131h-305l-57 -330l-127 -188 l475 6l104 190h131l-108 -319l-707 6z" />
<glyph unicode="&#xa4;" d="M213 346l135 115q-59 110 -35 256q27 156 146 278l-101 123l111 94l102 -127q132 82 273 82q133 0 241 -80l144 121l78 -96l-140 -119q73 -124 47 -276q-23 -135 -127 -258l91 -107l-111 -94l-86 104q-142 -96 -297 -96t-260 94l-131 -110zM422 717q-25 -141 58.5 -241.5 t224.5 -100.5t258.5 100.5t142.5 241.5t-57.5 241.5t-223.5 100.5t-259.5 -100.5t-143.5 -241.5z" />
<glyph unicode="&#xa5;" horiz-adv-x="1417" d="M168 1339l25 97l274 -6l301 6l-4 -97l-156 -26l217 -525v-120l416 647l-149 24l22 97l227 -6l177 4l-5 -95l-114 -24l-498 -742l-2 -10h305l-16 -104h-305l-15 -101h301l-18 -104h-299l-21 -133l218 -27l-25 -96l-369 6l-364 -6l4 96l233 27l21 133h-277l19 104h274 l15 101h-271l17 104h270l2 12l-315 740z" />
<glyph unicode="&#xa6;" horiz-adv-x="851" d="M184 -502l154 881h137l-153 -881h-138zM377 590l153 880h138l-154 -880h-137z" />
<glyph unicode="&#xa7;" horiz-adv-x="1148" d="M31 -279l143 158q51 -57 150.5 -140t156.5 -110l27 21q82 62 82 166q0 40 -11.5 76.5t-26 62.5t-50.5 63t-60.5 59t-81.5 70q-6 5 -19 16q-52 44 -77.5 66.5t-63 62t-55 70.5t-31.5 74t-14 90q0 112 72 210t180 145q-26 31 -41.5 79t-15.5 89q0 142 96 236t271 140 l151 41q56 -11 142.5 -69.5t142.5 -114.5l-158 -131q-50 51 -126 110t-132 80l-37 -24q-40 -27 -65 -73t-25 -99q0 -69 37.5 -129.5t132.5 -136.5l326 -269v-94q0 -64 -17 -120t-40.5 -93.5t-63.5 -74.5t-68.5 -57.5t-73.5 -47.5q32 -36 49 -94.5t17 -116.5 q0 -261 -301 -352l-211 -62q-61 16 -154 86.5t-157 136.5zM328 641q0 -72 54 -138t183 -171q3 -3 75 -59t81 -68q45 41 69.5 86t24.5 110v45l-227 191q-150 126 -187 172q-73 -62 -73 -168z" />
<glyph unicode="&#xa8;" horiz-adv-x="1024" d="M195 1206l8 119l41 96l121 15l81 -15l-4 -114l-43 -101l-116 -12zM575 1206l9 119l43 96l118 15l82 -15l-4 -114l-43 -101l-116 -12z" />
<glyph unicode="&#xa9;" horiz-adv-x="1710" d="M143 729q0 158 53.5 286.5t152.5 218.5t235 147.5t307 82.5q151 -2 286.5 -54t239 -146.5t164.5 -239t61 -319.5q0 -158 -53 -286.5t-152.5 -218.5t-235 -148t-306.5 -83q-151 2 -286.5 54t-239.5 147t-165 239.5t-61 319.5zM291 729q0 -129 39 -239.5t102 -185 t142.5 -127.5t160 -77t156.5 -24q120 0 229 43t192.5 121.5t133 199t49.5 265.5q0 129 -39 239.5t-102 185t-142.5 127.5t-160 77t-156.5 24q-120 0 -229 -43t-192.5 -121.5t-133 -199t-49.5 -265.5zM479 696q0 199 121.5 306.5t351.5 142.5q144 0 275 -78v-201h-84l-37 113 q-65 86 -178 86q-109 0 -178.5 -88t-69.5 -244q0 -152 71.5 -257t188.5 -105q91 0 166 75l57 138h80l-20 -211q-147 -62 -308 -84q-116 0 -213.5 45.5t-160 140t-62.5 221.5z" />
<glyph unicode="&#xaa;" horiz-adv-x="897" d="M59 938q0 146 81.5 259.5t234.5 182.5l157 76q132 -3 308 -67l-121 -627l131 80l33 -47l-244 -170l-152 59l15 88l37 84l-271 -231q-209 63 -209 313zM287 1018q0 -127 71 -213l172 117l68 366q-73 43 -186 43q-125 -132 -125 -313z" />
<glyph unicode="&#xab;" horiz-adv-x="1142" d="M72 481l450 451h172l-340 -453l183 -448h-175zM510 481l451 451h172l-340 -453l182 -448h-174z" />
<glyph unicode="&#xac;" d="M106 610v158h1055v-399h-157v241h-898z" />
<glyph unicode="&#xad;" horiz-adv-x="727" d="M41 500l27 153h608l-27 -153h-608z" />
<glyph unicode="&#xae;" horiz-adv-x="1224" d="M154 899q0 215 138 342t380 162q143 -1 260 -61t189.5 -179.5t72.5 -279.5q0 -215 -138 -342t-380 -162q-142 1 -259.5 61.5t-190 180t-72.5 278.5zM252 899q0 -90 27.5 -167.5t71.5 -130t100 -90t112 -54.5t109 -17q114 0 209.5 51.5t155 154t59.5 237.5 q0 91 -27.5 168.5t-71.5 129.5t-100 89t-112 54t-109 17q-85 0 -161.5 -30.5t-135 -85.5t-93 -139.5t-34.5 -186.5zM408 659l59 11v450l-59 8l4 46l125 -5l194 5q74 0 124 -38t50 -102q0 -57 -50.5 -93t-133.5 -52l98 -41l117 -176l37 -13l-2 -43l-101 5l-69 -5l-154 244 l-10 8h-31v-198l60 -11l-4 -43l-123 5l-127 -5zM606 920h53q41 0 69 29t28 81q0 48 -26 73t-68 25l-56 -4v-204z" />
<glyph unicode="&#xaf;" horiz-adv-x="1024" d="M199 1229l26 143h598l-26 -143h-598z" />
<glyph unicode="&#xb0;" horiz-adv-x="849" d="M236 1221q0 65 21 115t64.5 88t100 65.5t137.5 52.5q132 0 227 -94.5t95 -226.5q0 -133 -76.5 -210t-245.5 -114q-132 0 -227.5 96t-95.5 228zM373 1221q0 -76 55.5 -132.5t130.5 -56.5q76 0 131 56t55 133q0 75 -55 129.5t-131 54.5q-75 0 -130.5 -54.5t-55.5 -129.5z " />
<glyph unicode="&#xb1;" d="M102 0v158h1051v-158h-1051zM102 715v157h449v457h158v-457h448v-157h-448v-441h-158v441h-449z" />
<glyph unicode="&#xb2;" horiz-adv-x="774" d="M100 870l262 238q53 45 87 77.5t71.5 76t56.5 86.5t19 86q0 50 -22.5 80t-63.5 30l-70 -22l-59 -138h-129l18 146l305 96q236 0 236 -178q0 -59 -30.5 -115.5t-85.5 -105.5t-102.5 -82.5t-109.5 -69.5l-241 -149l221 51h291v-57l-64 -105h-571z" />
<glyph unicode="&#xb3;" horiz-adv-x="661" d="M109 813l28 166h285q67 45 67 117q0 38 -35 61t-106 23l-14 45l55 24q70 31 112 85.5t42 119.5q0 39 -17.5 61.5t-44.5 22.5l-71 -16l-58 -125h-151l18 137l320 92q112 0 163.5 -39t51.5 -104q0 -145 -246 -209q103 -7 156 -50.5t53 -101.5q0 -31 -10 -58t-23.5 -47 t-39.5 -39.5t-45.5 -31.5t-55 -27t-55.5 -22t-58.5 -19.5t-52.5 -17.5l-133 -47h-135z" />
<glyph unicode="&#xb4;" horiz-adv-x="1024" d="M301 1141l150 360h270l-293 -360h-127z" />
<glyph unicode="&#xb5;" d="M74 -471l252 1452h264l-119 -680q-8 -47 6.5 -74.5t50.5 -27.5q47 0 129 57l95 61l116 664h265l-148 -834l168 93l41 -58l-307 -217l-176 70l14 119l41 86l-356 -275q-93 0 -138 29l23 -68l65 -397h-286z" />
<glyph unicode="&#xb6;" horiz-adv-x="1122" d="M94 1073q0 52 23.5 99.5t74.5 94t99.5 81t130.5 86.5h606v-115l-110 -21v-1626h-152v1626h-195v-1626h-151v1106q-140 0 -233 81t-93 214z" />
<glyph unicode="&#xb7;" horiz-adv-x="940" d="M356 694l13 142l34 116l187 17l72 -17l-11 -137l-37 -121l-188 -12z" />
<glyph unicode="&#xb8;" horiz-adv-x="1024" d="M285 -504l59 94h148q28 19 43.5 53.5t15.5 69.5q0 63 -42.5 93t-100.5 30l174 217l75 -33l-86 -116q73 0 119.5 -36t46.5 -101q0 -48 -20.5 -87.5t-58 -67t-69.5 -44.5t-75 -33l-104 -39h-125z" />
<glyph unicode="&#xb9;" horiz-adv-x="636" d="M131 811l6 76l168 18l107 531l22 37l-69 -46l-105 -18l-18 80l299 119h110l-137 -703l162 -18l-19 -76l-256 4z" />
<glyph unicode="&#xba;" horiz-adv-x="878" d="M74 946q0 151 89 268t255 191l108 49q140 0 236 -88.5t96 -239.5q0 -153 -88 -270t-256 -186l-106 -45q-143 0 -238.5 84t-95.5 237zM311 999q0 -227 162 -266q72 36 110 134t38 208q0 116 -43.5 182t-118.5 84q-72 -37 -110 -135.5t-38 -206.5z" />
<glyph unicode="&#xbb;" horiz-adv-x="1177" d="M53 31l338 448l-180 453h172l295 -451l-451 -450h-174zM492 31l337 448l-180 453h172l295 -451l-450 -450h-174z" />
<glyph unicode="&#xbc;" horiz-adv-x="1695" d="M106 643l9 76l168 18l106 531l23 37l-72 -45l-104 -19l-17 80l299 119h111l-140 -703l162 -18l-16 -76l-258 4zM270 -102l1067 1556h144l-1063 -1556h-148zM946 336l455 479h190l-12 -74l-524 -401l114 43h136l12 68l162 110h39l-37 -178h147l-24 -135h-146l-49 -248 h-176l47 248h-295z" />
<glyph unicode="&#xbd;" horiz-adv-x="1736" d="M106 643l9 76l168 18l106 531l23 37l-72 -45l-104 -19l-17 80l299 119h111l-140 -703l162 -18l-16 -76l-258 4zM270 -102l1067 1556h144l-1063 -1556h-148zM928 55l264 240q55 48 86 77.5t70.5 74t58 87t18.5 84.5q0 50 -23.5 80.5t-62.5 30.5l-69 -20l-62 -138h-129 l19 146l305 94q235 0 235 -178q0 -47 -22 -94.5t-53.5 -84.5t-79 -76t-86 -64t-86.5 -54l-242 -149l223 51h289v-58l-61 -104h-574z" />
<glyph unicode="&#xbe;" horiz-adv-x="1660" d="M121 643l29 166h284q68 49 68 117q0 39 -35 62.5t-107 23.5l-14 45l55 22q71 31 112.5 86t41.5 121q0 39 -17 60.5t-44 23.5l-72 -16l-57 -127h-152l18 139l320 90q215 0 215 -143q0 -42 -22 -78t-60 -60.5t-78 -41t-86 -27.5q103 -7 156 -51t53 -101q0 -31 -10 -58.5 t-23.5 -47.5t-39 -39.5t-46 -31.5t-55 -26.5t-55.5 -21.5l-58.5 -19.5l-52.5 -17.5l-133 -49h-135zM250 -102l1067 1556h143l-1063 -1556h-147zM924 336l454 479h193l-15 -74l-524 -401l115 43h135l12 68l162 110h39l-35 -178h146l-25 -135h-145l-50 -248h-176l47 248h-294z " />
<glyph unicode="&#xbf;" horiz-adv-x="811" d="M-41 -180q0 130 89.5 224t262.5 163l123 47l90 248h119l-39 -250l-162 -86q-82 -43 -128 -125t-46 -176q0 -82 37.5 -155.5t93.5 -86.5l93 31l34 156h172l4 -172l-413 -140q-84 0 -159 39t-123 114t-48 169zM496 692l10 137l37 121l188 13l70 -13l-13 -141l-34 -117 l-187 -16z" />
<glyph unicode="&#xc0;" horiz-adv-x="1423" d="M-47 -2l4 96l127 23l758 1294l266 59l127 -1353l131 -23l-23 -96l-346 6l-243 -6l4 96l153 27l-26 344h-453l-203 -344l156 -27l-25 -96l-206 6zM489 578h388l-41 509l12 140zM729 1853h275l38 -278h-131z" />
<glyph unicode="&#xc1;" horiz-adv-x="1423" d="M-47 -2l4 96l127 23l758 1294l266 59l127 -1353l131 -23l-23 -96l-346 6l-243 -6l4 96l153 27l-26 344h-453l-203 -344l156 -27l-25 -96l-206 6zM489 578h388l-41 509l12 140zM901 1575l131 278h295l-283 -278h-143z" />
<glyph unicode="&#xc2;" horiz-adv-x="1423" d="M-47 -2l4 96l127 23l758 1294l266 59l127 -1353l131 -23l-23 -96l-346 6l-243 -6l4 96l153 27l-26 344h-453l-203 -344l156 -27l-25 -96l-206 6zM489 578h388l-41 509l12 140zM680 1575l256 278h221l156 -278h-160l-133 137l-180 -137h-160z" />
<glyph unicode="&#xc3;" horiz-adv-x="1423" d="M-47 -2l4 96l127 23l758 1294l266 59l127 -1353l131 -23l-23 -96l-346 6l-243 -6l4 96l153 27l-26 344h-453l-203 -344l156 -27l-25 -96l-206 6zM489 578h388l-41 509l12 140zM666 1581l96 223l153 45l332 -110l86 106h66l-101 -233l-149 -35l-334 113l-84 -109h-65z" />
<glyph unicode="&#xc4;" horiz-adv-x="1423" d="M-47 -2l4 96l127 23l758 1294l266 59l127 -1353l131 -23l-23 -96l-346 6l-243 -6l4 96l153 27l-26 344h-453l-203 -344l156 -27l-25 -96l-206 6zM489 578h388l-41 509l12 140zM666 1583l8 123l41 98l121 13l86 -13l-4 -116l-44 -105l-120 -12zM1128 1583l7 123l43 98 l120 13l86 -13l-6 -116l-41 -105l-123 -12z" />
<glyph unicode="&#xc5;" horiz-adv-x="1423" d="M-47 -2l4 96l127 23l758 1294l266 59l127 -1353l131 -23l-23 -96l-346 6l-243 -6l4 96l153 27l-26 344h-453l-203 -344l156 -27l-25 -96l-206 6zM489 578h388l-41 509l12 140zM760 1729q0 51 18.5 88t55 61.5t72 38.5t89.5 29q236 0 236 -217q0 -37 -9.5 -65.5t-21.5 -46 t-38.5 -33t-44.5 -22.5t-57 -20.5t-59 -21.5q-101 0 -171 49.5t-70 159.5zM877 1729q0 -50 34 -81.5t86 -31.5q51 0 85 31.5t34 81.5t-35 85t-84 35q-51 0 -85.5 -35t-34.5 -85z" />
<glyph unicode="&#xc6;" horiz-adv-x="1855" d="M-51 -2l6 96l125 23l864 1319l205 -6l737 6v-367h-94l-98 240l-400 6l-90 -563l203 8l129 231h76l-78 -297l-16 -301h-76l-56 232l-200 8l-70 -514l438 6l154 266h96l-94 -393l-788 6l-273 -6l6 96l162 27l82 516h-336l-327 -516l155 -27l-24 -96l-211 6zM629 743h286 l99 598z" />
<glyph unicode="&#xc7;" horiz-adv-x="1329" d="M96 582q0 125 32.5 242.5t100 226.5t182.5 199t267 145l219 80q136 0 245.5 -44t182.5 -102l-4 -344h-133l-51 199q-118 118 -346 151q-181 -89 -273 -269t-92 -423q0 -126 30 -227t81.5 -166.5t116.5 -102.5t139 -45q79 33 129.5 65t101.5 83l123 233h135l-94 -381 l-496 -139l-45 -59q73 0 119.5 -36t46.5 -101q0 -48 -20.5 -87.5t-58 -67t-69.5 -44.5t-75 -33l-105 -39h-125l60 94h147q29 19 44.5 53t15.5 70q0 63 -43 93t-101 30l109 133q-232 29 -364 191.5t-132 421.5z" />
<glyph unicode="&#xc8;" horiz-adv-x="1255" d="M-20 -2l4 96l161 27l193 1194l-158 26l27 95l276 -6l803 6v-385h-106l-99 260l-440 6l-82 -506l236 8l127 219h92l-76 -286l-18 -283h-93l-53 217l-233 8l-92 -575l499 6l164 276h109l-103 -403l-862 6zM567 1853h275l37 -278h-131z" />
<glyph unicode="&#xc9;" horiz-adv-x="1255" d="M-20 -2l4 96l161 27l193 1194l-158 26l27 95l276 -6l803 6v-385h-106l-99 260l-440 6l-82 -506l236 8l127 219h92l-76 -286l-18 -283h-93l-53 217l-233 8l-92 -575l499 6l164 276h109l-103 -403l-862 6zM698 1575l131 278h295l-282 -278h-144z" />
<glyph unicode="&#xca;" horiz-adv-x="1255" d="M-20 -2l4 96l161 27l193 1194l-158 26l27 95l276 -6l803 6v-385h-106l-99 260l-440 6l-82 -506l236 8l127 219h92l-76 -286l-18 -283h-93l-53 217l-233 8l-92 -575l499 6l164 276h109l-103 -403l-862 6zM463 1575l256 278h221l156 -278h-160l-133 137l-180 -137h-160z " />
<glyph unicode="&#xcb;" horiz-adv-x="1255" d="M-20 -2l4 96l161 27l193 1194l-158 26l27 95l276 -6l803 6v-385h-106l-99 260l-440 6l-82 -506l236 8l127 219h92l-76 -286l-18 -283h-93l-53 217l-233 8l-92 -575l499 6l164 276h109l-103 -403l-862 6zM461 1583l8 123l41 98l121 13l86 -13l-4 -116l-43 -105l-121 -12z M924 1583l8 123l43 98l119 13l86 -13l-4 -116l-43 -105l-121 -12z" />
<glyph unicode="&#xcc;" horiz-adv-x="706" d="M-14 -2l6 96l162 27l192 1192l-156 26l27 97l309 -6l289 6l-6 -97l-160 -26l-192 -1192l151 -27l-26 -96l-297 6zM291 1853h274l39 -278h-131z" />
<glyph unicode="&#xcd;" horiz-adv-x="706" d="M-14 -2l6 96l162 27l192 1192l-156 26l27 97l309 -6l289 6l-6 -97l-160 -26l-192 -1192l151 -27l-26 -96l-297 6zM453 1575l131 278h295l-283 -278h-143z" />
<glyph unicode="&#xce;" horiz-adv-x="706" d="M-14 -2l6 96l162 27l192 1192l-156 26l27 97l309 -6l289 6l-6 -97l-160 -26l-192 -1192l151 -27l-26 -96l-297 6zM217 1575l256 278h219l158 -278h-160l-133 137l-180 -137h-160z" />
<glyph unicode="&#xcf;" horiz-adv-x="706" d="M-14 -2l6 96l162 27l192 1192l-156 26l27 97l309 -6l289 6l-6 -97l-160 -26l-192 -1192l151 -27l-26 -96l-297 6zM225 1587l8 119l41 98l121 13l82 -13l-4 -116l-43 -101l-117 -12zM647 1587l8 119l43 98l119 13l82 -13l-4 -116l-43 -101l-117 -12z" />
<glyph unicode="&#xd0;" horiz-adv-x="1419" d="M-20 -2l6 96l161 27l91 571h-158l20 109h156l82 518l-156 24l27 93l309 -6l332 6q262 1 416.5 -163.5t154.5 -432.5q0 -120 -35 -232t-106 -216t-191.5 -191t-279.5 -144l-164 -59l-364 6zM453 133h297q149 93 245.5 266t96.5 408q0 232 -97.5 372.5t-234.5 145.5h-117 l-84 -524h225l-20 -109h-223z" />
<glyph unicode="&#xd1;" horiz-adv-x="1435" d="M-20 -2l4 96l163 27l189 1190l-150 28l25 97l178 -6l217 6l469 -877l29 -217l135 971l-145 26l24 97l201 -6l235 6l-4 -97l-164 -26l-208 -1313h-179l-518 1008l-24 213l-162 -1100l170 -27l-27 -96l-233 6zM553 1581l98 223l154 45l330 -110l88 106h65l-102 -233 l-150 -35l-334 113l-84 -109h-65z" />
<glyph unicode="&#xd2;" horiz-adv-x="1476" d="M96 608q0 99 20 193.5t66 188.5t114 173t171.5 145.5t232.5 106.5l177 55q278 0 438 -175t160 -470q0 -99 -20 -193.5t-66 -188.5t-114.5 -173t-171.5 -145.5t-231 -106.5l-178 -55q-277 0 -437.5 175t-160.5 470zM426 639q0 -228 94 -370.5t252 -174.5q185 83 279 266.5 t94 434.5q0 228 -94 370t-252 174q-186 -83 -279.5 -266t-93.5 -434zM641 1853h274l39 -278h-131z" />
<glyph unicode="&#xd3;" horiz-adv-x="1476" d="M96 608q0 99 20 193.5t66 188.5t114 173t171.5 145.5t232.5 106.5l177 55q278 0 438 -175t160 -470q0 -99 -20 -193.5t-66 -188.5t-114.5 -173t-171.5 -145.5t-231 -106.5l-178 -55q-277 0 -437.5 175t-160.5 470zM426 639q0 -228 94 -370.5t252 -174.5q185 83 279 266.5 t94 434.5q0 228 -94 370t-252 174q-186 -83 -279.5 -266t-93.5 -434zM809 1575l131 278h295l-283 -278h-143z" />
<glyph unicode="&#xd4;" horiz-adv-x="1476" d="M96 608q0 99 20 193.5t66 188.5t114 173t171.5 145.5t232.5 106.5l177 55q278 0 438 -175t160 -470q0 -99 -20 -193.5t-66 -188.5t-114.5 -173t-171.5 -145.5t-231 -106.5l-178 -55q-277 0 -437.5 175t-160.5 470zM426 639q0 -228 94 -370.5t252 -174.5q185 83 279 266.5 t94 434.5q0 228 -94 370t-252 174q-186 -83 -279.5 -266t-93.5 -434zM588 1575l256 278h221l156 -278h-160l-133 137l-180 -137h-160z" />
<glyph unicode="&#xd5;" horiz-adv-x="1476" d="M96 608q0 99 20 193.5t66 188.5t114 173t171.5 145.5t232.5 106.5l177 55q278 0 438 -175t160 -470q0 -99 -20 -193.5t-66 -188.5t-114.5 -173t-171.5 -145.5t-231 -106.5l-178 -55q-277 0 -437.5 175t-160.5 470zM426 639q0 -228 94 -370.5t252 -174.5q185 83 279 266.5 t94 434.5q0 228 -94 370t-252 174q-186 -83 -279.5 -266t-93.5 -434zM596 1581l98 223l154 45l330 -110l88 106h65l-102 -233l-150 -35l-334 113l-83 -109h-66z" />
<glyph unicode="&#xd6;" horiz-adv-x="1476" d="M96 608q0 99 20 193.5t66 188.5t114 173t171.5 145.5t232.5 106.5l177 55q278 0 438 -175t160 -470q0 -99 -20 -193.5t-66 -188.5t-114.5 -173t-171.5 -145.5t-231 -106.5l-178 -55q-277 0 -437.5 175t-160.5 470zM426 639q0 -228 94 -370.5t252 -174.5q185 83 279 266.5 t94 434.5q0 228 -94 370t-252 174q-186 -83 -279.5 -266t-93.5 -434zM578 1583l8 123l41 98l121 13l86 -13l-5 -116l-43 -105l-120 -12zM1040 1583l9 123l43 98l118 13l86 -13l-4 -116l-43 -105l-121 -12z" />
<glyph unicode="&#xd7;" d="M197 772l112 111l326 -326l323 324l113 -113l-323 -324l319 -319l-111 -113l-321 322l-322 -324l-112 113l323 321z" />
<glyph unicode="&#xd8;" horiz-adv-x="1476" d="M66 -31l184 213q-123 168 -123 426q0 99 20 193.5t66 188.5t114 173t171.5 145.5t232.5 106.5l176 55q215 0 363 -108l88 102h141l-149 -174q155 -175 155 -465q0 -99 -20 -193.5t-65.5 -188.5t-114 -173t-171.5 -145.5t-231 -106.5l-178 -55q-243 0 -399 137l-115 -131 h-145zM457 639q0 -111 20 -195l610 709q-91 150 -258 186q-185 -82 -278.5 -265.5t-93.5 -434.5zM518 326q93 -193 285 -232q185 83 279 266.5t94 434.5q0 142 -37 249z" />
<glyph unicode="&#xd9;" horiz-adv-x="1417" d="M166 1341l24 95l279 -6l317 6l-4 -95l-153 -26l-137 -840q-27 -154 59.5 -256t251.5 -102q81 36 127.5 73.5t80 106t50.5 178.5l135 840l-180 26l24 95l256 -6l244 6l-6 -95l-178 -26l-129 -819q-15 -91 -40.5 -159.5t-72.5 -132.5t-124.5 -111.5t-186.5 -78.5l-176 -51 q-522 0 -437 535l132 817zM672 1853h274l39 -278h-131z" />
<glyph unicode="&#xda;" horiz-adv-x="1417" d="M166 1341l24 95l279 -6l317 6l-4 -95l-153 -26l-137 -840q-27 -154 59.5 -256t251.5 -102q81 36 127.5 73.5t80 106t50.5 178.5l135 840l-180 26l24 95l256 -6l244 6l-6 -95l-178 -26l-129 -819q-15 -91 -40.5 -159.5t-72.5 -132.5t-124.5 -111.5t-186.5 -78.5l-176 -51 q-522 0 -437 535l132 817zM842 1575l131 278h295l-283 -278h-143z" />
<glyph unicode="&#xdb;" horiz-adv-x="1417" d="M166 1341l24 95l279 -6l317 6l-4 -95l-153 -26l-137 -840q-27 -154 59.5 -256t251.5 -102q81 36 127.5 73.5t80 106t50.5 178.5l135 840l-180 26l24 95l256 -6l244 6l-6 -95l-178 -26l-129 -819q-15 -91 -40.5 -159.5t-72.5 -132.5t-124.5 -111.5t-186.5 -78.5l-176 -51 q-522 0 -437 535l132 817zM606 1575l256 278h221l156 -278h-160l-133 137l-180 -137h-160z" />
<glyph unicode="&#xdc;" horiz-adv-x="1417" d="M166 1341l24 95l279 -6l317 6l-4 -95l-153 -26l-137 -840q-27 -154 59.5 -256t251.5 -102q81 36 127.5 73.5t80 106t50.5 178.5l135 840l-180 26l24 95l256 -6l244 6l-6 -95l-178 -26l-129 -819q-15 -91 -40.5 -159.5t-72.5 -132.5t-124.5 -111.5t-186.5 -78.5l-176 -51 q-522 0 -437 535l132 817zM602 1583l8 123l43 98l121 13l84 -13l-4 -116l-43 -105l-121 -12zM1067 1583l6 123l43 98l119 13l86 -13l-4 -116l-43 -105l-121 -12z" />
<glyph unicode="&#xdd;" horiz-adv-x="1380" d="M166 1339l24 97l275 -6l301 6l-4 -97l-156 -26l217 -525v-120l416 647l-149 24l22 97l227 -6l177 4l-5 -95l-114 -24l-498 -742l-70 -452l218 -27l-25 -96l-369 6l-364 -6l4 96l233 27l70 454l-315 740zM842 1575l131 278h295l-283 -278h-143z" />
<glyph unicode="&#xde;" horiz-adv-x="1216" d="M-20 -2l6 96l161 27l193 1194l-156 26l27 97l309 -6l289 6l-6 -97l-160 -26l-27 -170l236 2q185 2 295 -81.5t110 -231.5q0 -87 -33 -158t-98.5 -126t-146.5 -97t-193 -82l-153 -54h-152l-30 -196l176 -27l-27 -96l-321 6zM506 465h264q170 127 170 332 q0 117 -52.5 180.5t-150.5 66.5h-139z" />
<glyph unicode="&#xdf;" horiz-adv-x="1191" d="M-258 -481l43 227h215q29 35 52.5 89t31.5 99l156 889h-197l10 43l99 86h108l12 70q15 95 57.5 176t114.5 119l285 151q82 -1 151 -14.5t126 -41.5t89.5 -77t32.5 -116q0 -86 -58 -161.5t-146 -131.5l-105 -72q-12 -15 -12 -51q0 -44 30.5 -87t102.5 -102 q100 -82 146.5 -148t46.5 -157q0 -92 -55 -158.5t-175 -109.5l-201 -74q-39 12 -122 58t-119 71l127 178q144 -120 252 -170q33 9 53 35t20 62q0 14 -2 27.5t-9 28t-11.5 24.5t-18 26.5t-20 24t-26 26.5t-26.5 26t-32 30t-33 30q-79 71 -112 129.5t-33 122.5t28 109l99 90 q143 133 143 293q0 86 -50.5 133t-109.5 47l-14 -8q-58 -52 -92 -118t-51 -161l-191 -1093q-27 -170 -250 -320l-223 -149h-137z" />
<glyph unicode="&#xe0;" horiz-adv-x="1095" d="M63 358q0 185 97 327t280 230l201 97q157 -3 371 -86l-142 -795l168 107l41 -56l-307 -213l-180 74l20 111l43 104l-333 -289q-259 77 -259 389zM346 459q0 -171 94 -275l203 148l82 469q-44 25 -110.5 40t-125.5 15q-143 -162 -143 -397zM539 1501h266l20 -360h-123z " />
<glyph unicode="&#xe1;" horiz-adv-x="1095" d="M63 358q0 185 97 327t280 230l201 97q157 -3 371 -86l-142 -795l168 107l41 -56l-307 -213l-180 74l20 111l43 104l-333 -289q-259 77 -259 389zM346 459q0 -171 94 -275l203 148l82 469q-44 25 -110.5 40t-125.5 15q-143 -162 -143 -397zM647 1141l150 360h270 l-293 -360h-127z" />
<glyph unicode="&#xe2;" horiz-adv-x="1095" d="M63 358q0 185 97 327t280 230l201 97q157 -3 371 -86l-142 -795l168 107l41 -56l-307 -213l-180 74l20 111l43 104l-333 -289q-259 77 -259 389zM346 459q0 -171 94 -275l203 148l82 469q-44 25 -110.5 40t-125.5 15q-143 -162 -143 -397zM432 1141l258 360h182l132 -360 h-127l-127 188l-191 -188h-127z" />
<glyph unicode="&#xe3;" horiz-adv-x="1095" d="M63 358q0 185 97 327t280 230l201 97q157 -3 371 -86l-142 -795l168 107l41 -56l-307 -213l-180 74l20 111l43 104l-333 -289q-259 77 -259 389zM346 459q0 -171 94 -275l203 148l82 469q-44 25 -110.5 40t-125.5 15q-143 -162 -143 -397zM383 1198l98 223l154 45 l330 -110l88 106h65l-102 -233l-150 -35l-334 113l-83 -109h-66z" />
<glyph unicode="&#xe4;" horiz-adv-x="1095" d="M63 358q0 185 97 327t280 230l201 97q157 -3 371 -86l-142 -795l168 107l41 -56l-307 -213l-180 74l20 111l43 104l-333 -289q-259 77 -259 389zM346 459q0 -171 94 -275l203 148l82 469q-44 25 -110.5 40t-125.5 15q-143 -162 -143 -397zM444 1206l9 119l41 96l120 15 l82 -15l-4 -114l-43 -101l-117 -12zM825 1206l9 119l43 96l118 15l82 -15l-4 -114l-43 -101l-117 -12z" />
<glyph unicode="&#xe5;" horiz-adv-x="1095" d="M63 358q0 185 97 327t280 230l201 97q157 -3 371 -86l-142 -795l168 107l41 -56l-307 -213l-180 74l20 111l43 104l-333 -289q-259 77 -259 389zM346 459q0 -171 94 -275l203 148l82 469q-44 25 -110.5 40t-125.5 15q-143 -162 -143 -397zM510 1327q0 51 18.5 88t55 61.5 t72 38.5t89.5 29q236 0 236 -217q0 -32 -5.5 -57t-18.5 -43.5t-26 -31t-37 -23.5t-41.5 -17.5t-49 -17.5t-51.5 -19q-47 0 -87.5 10.5t-76.5 33.5t-57 65.5t-21 99.5zM627 1327q0 -50 34.5 -81.5t86.5 -31.5t85 31.5t33 81.5t-34 85.5t-84 35.5q-51 0 -86 -35.5t-35 -85.5z " />
<glyph unicode="&#xe6;" horiz-adv-x="1466" d="M59 358q0 185 97 327t280 230l201 97q149 -3 358 -82l224 82q96 -21 154.5 -82t58.5 -156q0 -83 -31 -180l-522 -154q-1 -96 53.5 -172t138.5 -108q133 50 275 129l38 -60q-166 -109 -342 -196l-133 -64q-101 18 -182 82.5t-115 165.5l-290 -248q-263 77 -263 389z M342 459q0 -170 98 -275l154 109q-15 135 27.5 265t136.5 226q-141 72 -273 72q-143 -162 -143 -397zM877 514l256 96q16 58 16 123q0 61 -26.5 103t-65.5 51q-83 -50 -127.5 -149t-52.5 -224z" />
<glyph unicode="&#xe7;" horiz-adv-x="909" d="M70 358q0 376 413 572l168 82q129 -13 267 -82l-142 -221q-122 84 -262 131q-78 -57 -119 -154.5t-41 -214.5q0 -228 205 -311q155 74 234 125l45 -62q-112 -83 -279 -182l-119 -72l-51 -65q73 0 119.5 -36t46.5 -101q0 -48 -20.5 -87.5t-58 -67t-69.5 -44.5t-75 -33 l-105 -39h-125l60 94h147q29 19 44.5 53t15.5 70q0 63 -43 93t-101 30l119 148q-123 34 -198.5 131t-75.5 243z" />
<glyph unicode="&#xe8;" horiz-adv-x="946" d="M70 356q0 195 105 352t298 226l227 78q95 -21 153 -82t58 -156q0 -79 -28 -180l-525 -154v-22q9 -92 61 -160t132 -98q130 49 274 129l41 -60q-186 -119 -344 -196l-131 -64q-135 23 -228 126t-93 261zM356 514l256 96q19 69 19 123q0 60 -27.5 102t-66.5 52 q-82 -50 -127.5 -149.5t-53.5 -223.5zM410 1501h266l20 -360h-123z" />
<glyph unicode="&#xe9;" horiz-adv-x="946" d="M70 356q0 195 105 352t298 226l227 78q95 -21 153 -82t58 -156q0 -79 -28 -180l-525 -154v-22q9 -92 61 -160t132 -98q130 49 274 129l41 -60q-186 -119 -344 -196l-131 -64q-135 23 -228 126t-93 261zM356 514l256 96q19 69 19 123q0 60 -27.5 102t-66.5 52 q-82 -50 -127.5 -149.5t-53.5 -223.5zM539 1141l151 360h271l-295 -360h-127z" />
<glyph unicode="&#xea;" horiz-adv-x="946" d="M70 356q0 195 105 352t298 226l227 78q95 -21 153 -82t58 -156q0 -79 -28 -180l-525 -154v-22q9 -92 61 -160t132 -98q130 49 274 129l41 -60q-186 -119 -344 -196l-131 -64q-135 23 -228 126t-93 261zM348 1141l258 360h185l131 -360h-127l-129 188l-191 -188h-127z M356 514l256 96q19 69 19 123q0 60 -27.5 102t-66.5 52q-82 -50 -127.5 -149.5t-53.5 -223.5z" />
<glyph unicode="&#xeb;" horiz-adv-x="946" d="M70 356q0 195 105 352t298 226l227 78q95 -21 153 -82t58 -156q0 -79 -28 -180l-525 -154v-22q9 -92 61 -160t132 -98q130 49 274 129l41 -60q-186 -119 -344 -196l-131 -64q-135 23 -228 126t-93 261zM334 1206l8 119l41 96l121 15l82 -15l-4 -114l-43 -101l-117 -12z M356 514l256 96q19 69 19 123q0 60 -27.5 102t-66.5 52q-82 -50 -127.5 -149.5t-53.5 -223.5zM715 1206l6 119l43 96l121 15l82 -15l-6 -114l-41 -101l-119 -12z" />
<glyph unicode="&#xec;" horiz-adv-x="634" d="M59 858l361 154l112 -103l-137 -770l166 103l41 -56l-307 -217l-178 80l139 801l-170 -57zM242 1501h266l20 -360h-125z" />
<glyph unicode="&#xed;" horiz-adv-x="634" d="M59 858l361 154l112 -103l-137 -770l166 103l41 -56l-307 -217l-178 80l139 801l-170 -57zM360 1141l152 360h270l-295 -360h-127z" />
<glyph unicode="&#xee;" horiz-adv-x="634" d="M59 858l361 154l112 -103l-137 -770l166 103l41 -56l-307 -217l-178 80l139 801l-170 -57zM150 1141l256 360h184l131 -360h-127l-127 188l-191 -188h-126z" />
<glyph unicode="&#xef;" horiz-adv-x="634" d="M59 858l361 154l112 -103l-137 -770l166 103l41 -56l-307 -217l-178 80l139 801l-170 -57zM143 1206l9 119l43 96l118 15l82 -15l-4 -114l-43 -101l-117 -12zM524 1206l8 119l43 96l119 15l82 -15l-4 -114l-43 -101l-117 -12z" />
<glyph unicode="&#xf0;" horiz-adv-x="1062" d="M70 371q0 195 112.5 354t311.5 240l114 47q19 -4 76 -21t64 -22q-9 51 -46.5 115t-91.5 118l-227 -115v109l147 74q-97 71 -182 88l37 108q166 -45 283 -118l231 118v-110l-139 -72q85 -68 142 -151t82.5 -172t34.5 -160.5t9 -155.5q0 -247 -108 -391.5t-328 -237.5 l-115 -47q-174 0 -290.5 106t-116.5 296zM356 410q0 -281 199 -306q62 28 106.5 110t64 176t19.5 188v213q-21 16 -118 46.5t-115 30.5q-76 -46 -116 -178.5t-40 -279.5z" />
<glyph unicode="&#xf1;" horiz-adv-x="1169" d="M59 858l361 154l108 -99l-14 -79l-33 -72l363 250q255 0 211 -264l-109 -615l168 107l41 -58l-307 -213l-182 76l110 633q7 50 -3.5 78t-51.5 28q-60 0 -141 -55l-95 -57l-116 -672h-265l148 848l-166 -55zM362 1198l99 223l153 45l330 -110l88 106h66l-103 -233 l-149 -35l-332 113l-86 -109h-66z" />
<glyph unicode="&#xf2;" horiz-adv-x="1060" d="M70 373q0 191 107.5 336t311.5 239l136 64q111 0 202.5 -47t148 -142t56.5 -223q0 -193 -107 -339t-313 -234l-135 -58q-112 0 -203 45t-147.5 138.5t-56.5 220.5zM352 440q0 -289 207 -338q93 46 142 170t49 263q0 149 -55.5 232.5t-153.5 104.5q-92 -46 -140.5 -169.5 t-48.5 -262.5zM414 1501h266l20 -360h-122z" />
<glyph unicode="&#xf3;" horiz-adv-x="1060" d="M70 373q0 191 107.5 336t311.5 239l136 64q111 0 202.5 -47t148 -142t56.5 -223q0 -193 -107 -339t-313 -234l-135 -58q-112 0 -203 45t-147.5 138.5t-56.5 220.5zM352 440q0 -289 207 -338q93 46 142 170t49 263q0 149 -55.5 232.5t-153.5 104.5q-92 -46 -140.5 -169.5 t-48.5 -262.5zM584 1141l151 360h271l-295 -360h-127z" />
<glyph unicode="&#xf4;" horiz-adv-x="1060" d="M70 373q0 191 107.5 336t311.5 239l136 64q111 0 202.5 -47t148 -142t56.5 -223q0 -193 -107 -339t-313 -234l-135 -58q-112 0 -203 45t-147.5 138.5t-56.5 220.5zM352 440q0 -289 207 -338q93 46 142 170t49 263q0 149 -55.5 232.5t-153.5 104.5q-92 -46 -140.5 -169.5 t-48.5 -262.5zM387 1141l258 360h184l132 -360h-127l-129 188l-191 -188h-127z" />
<glyph unicode="&#xf5;" horiz-adv-x="1060" d="M70 373q0 191 107.5 336t311.5 239l136 64q111 0 202.5 -47t148 -142t56.5 -223q0 -193 -107 -339t-313 -234l-135 -58q-112 0 -203 45t-147.5 138.5t-56.5 220.5zM330 1198l98 223l154 45l329 -110l88 106h66l-102 -233l-150 -35l-334 113l-84 -109h-65zM352 440 q0 -289 207 -338q93 46 142 170t49 263q0 149 -55.5 232.5t-153.5 104.5q-92 -46 -140.5 -169.5t-48.5 -262.5z" />
<glyph unicode="&#xf6;" horiz-adv-x="1060" d="M70 373q0 191 107.5 336t311.5 239l136 64q111 0 202.5 -47t148 -142t56.5 -223q0 -193 -107 -339t-313 -234l-135 -58q-112 0 -203 45t-147.5 138.5t-56.5 220.5zM352 440q0 -289 207 -338q93 46 142 170t49 263q0 149 -55.5 232.5t-153.5 104.5q-92 -46 -140.5 -169.5 t-48.5 -262.5zM391 1206l8 119l41 96l121 15l82 -15l-4 -114l-43 -101l-117 -12zM772 1206l6 119l43 96l121 15l82 -15l-6 -114l-41 -101l-119 -12z" />
<glyph unicode="&#xf7;" d="M96 444v158h1075v-158h-1075zM494 139l14 119l184 14l74 -14l14 -137l-14 -121l-186 -12l-72 12zM494 903l14 119l184 14l74 -14l14 -137l-14 -121l-186 -12l-72 12z" />
<glyph unicode="&#xf8;" horiz-adv-x="1060" d="M16 -12l127 137q-73 98 -73 248q0 191 107.5 336t311.5 239l136 64q147 0 260 -86l65 69h129l-127 -137q80 -111 80 -258q0 -193 -107 -339t-313 -234l-135 -58q-156 0 -266 84l-61 -65h-134zM352 440q0 -32 4 -86l355 383q-53 110 -170 135q-92 -46 -140.5 -169.5 t-48.5 -262.5zM387 246q51 -118 172 -144q93 46 142 170t49 263q0 49 -9 96z" />
<glyph unicode="&#xf9;" horiz-adv-x="1163" d="M55 858l363 154l108 -99l-106 -612q-8 -47 7 -74.5t52 -27.5q10 0 22.5 3.5t22 7t24.5 11.5t22 12.5t22 13.5t18 11l90 61l117 662h264l-149 -850l166 109l41 -58l-310 -213l-172 66l19 121l39 84l-357 -271q-128 0 -183 68.5t-32 191.5l109 621l-170 -57zM467 1501h266 l21 -360h-123z" />
<glyph unicode="&#xfa;" horiz-adv-x="1163" d="M55 858l363 154l108 -99l-106 -612q-8 -47 7 -74.5t52 -27.5q10 0 22.5 3.5t22 7t24.5 11.5t22 12.5t22 13.5t18 11l90 61l117 662h264l-149 -850l166 109l41 -58l-310 -213l-172 66l19 121l39 84l-357 -271q-128 0 -183 68.5t-32 191.5l109 621l-170 -57zM621 1141 l151 360h270l-294 -360h-127z" />
<glyph unicode="&#xfb;" horiz-adv-x="1163" d="M55 858l363 154l108 -99l-106 -612q-8 -47 7 -74.5t52 -27.5q10 0 22.5 3.5t22 7t24.5 11.5t22 12.5t22 13.5t18 11l90 61l117 662h264l-149 -850l166 109l41 -58l-310 -213l-172 66l19 121l39 84l-357 -271q-128 0 -183 68.5t-32 191.5l109 621l-170 -57zM440 1141 l256 360h185l131 -360h-127l-127 188l-191 -188h-127z" />
<glyph unicode="&#xfc;" horiz-adv-x="1163" d="M55 858l363 154l108 -99l-106 -612q-8 -47 7 -74.5t52 -27.5q10 0 22.5 3.5t22 7t24.5 11.5t22 12.5t22 13.5t18 11l90 61l117 662h264l-149 -850l166 109l41 -58l-310 -213l-172 66l19 121l39 84l-357 -271q-128 0 -183 68.5t-32 191.5l109 621l-170 -57zM434 1206 l8 119l41 96l121 15l82 -15l-4 -114l-43 -101l-117 -12zM815 1206l8 119l43 96l119 15l82 -15l-4 -114l-43 -101l-117 -12z" />
<glyph unicode="&#xfd;" horiz-adv-x="1026" d="M-20 852l339 160l121 -86l97 -807l319 551l-170 204l225 138l105 -109l-47 -282l-672 -1102h-301l43 260h207l246 258l-207 -37l-113 846l-162 -55zM506 1141l151 360h271l-295 -360h-127z" />
<glyph unicode="&#xfe;" horiz-adv-x="1118" d="M27 -471l309 1788l-182 -49l-29 73l399 123l88 -69l-100 -564l-39 -98l320 279q130 -32 204 -130t74 -259q0 -184 -95 -333t-269 -233l-179 -88q-87 7 -170 35l-8 -119l-65 -356h-258zM401 201q137 -74 240 -74q73 57 109 167t36 224q0 197 -114 264l-191 -131z" />
<glyph unicode="&#xff;" horiz-adv-x="1026" d="M-20 852l339 160l121 -86l97 -807l319 551l-170 204l225 138l105 -109l-47 -282l-672 -1102h-301l43 260h207l246 258l-207 -37l-113 846l-162 -55zM324 1206l8 119l43 96l121 15l79 -15l-4 -114l-43 -101l-116 -12zM707 1206l6 119l43 96l118 15l82 -15l-4 -114 l-43 -101l-116 -12z" />
<glyph unicode="&#x152;" horiz-adv-x="1966" d="M96 608q0 99 20 193.5t66 188.5t114 173t171.5 145.5t232.5 106.5l177 55l358 -40l762 6v-385h-105l-100 260l-399 6l-80 -506l194 8l125 219h92l-75 -286l-17 -283h-92l-53 217l-193 8l-92 -575l459 6l164 276h108l-104 -403l-821 6l-314 -41q-277 0 -437.5 175 t-160.5 470zM426 639q0 -228 94 -370.5t252 -174.5l127 27l191 1194l-291 24q-186 -83 -279.5 -266t-93.5 -434z" />
<glyph unicode="&#x153;" horiz-adv-x="1619" d="M70 369q0 192 109 338t315 243l131 62q111 0 202 -46t146 -132q77 64 174 100l227 78q96 -21 153.5 -81.5t57.5 -156.5q0 -76 -29 -180l-524 -154v-22q9 -92 61 -160t132 -98q130 49 274 129l41 -60q-166 -109 -342 -196l-133 -64q-81 12 -148.5 56.5t-111.5 115.5 q-77 -65 -193 -114l-131 -58q-175 0 -293 106t-118 294zM352 440q0 -289 207 -338q96 48 145.5 173t49.5 266q0 284 -209 331q-95 -48 -144 -170.5t-49 -261.5zM1030 514l256 96q19 69 19 123q0 60 -28 102t-67 52q-82 -50 -126 -148.5t-54 -224.5z" />
<glyph unicode="&#x178;" horiz-adv-x="1380" d="M166 1339l24 97l275 -6l301 6l-4 -97l-156 -26l217 -525v-120l416 647l-149 24l22 97l227 -6l177 4l-5 -95l-114 -24l-498 -742l-70 -452l218 -27l-25 -96l-369 6l-364 -6l4 96l233 27l70 454l-315 740zM578 1583l8 123l41 98l121 13l86 -13l-5 -116l-43 -105l-120 -12z M1040 1583l7 123l43 98l120 13l86 -13l-6 -116l-41 -105l-123 -12z" />
<glyph unicode="&#x2c6;" horiz-adv-x="1024" d="M225 1141l258 360h185l131 -360h-127l-129 188l-191 -188h-127z" />
<glyph unicode="&#x2dc;" horiz-adv-x="1024" d="M143 1198l99 223l153 45l332 -110l86 106h66l-103 -233l-149 -35l-332 113l-86 -109h-66z" />
<glyph unicode="&#x2000;" horiz-adv-x="973" />
<glyph unicode="&#x2001;" horiz-adv-x="1946" />
<glyph unicode="&#x2002;" horiz-adv-x="973" />
<glyph unicode="&#x2003;" horiz-adv-x="1946" />
<glyph unicode="&#x2004;" horiz-adv-x="648" />
<glyph unicode="&#x2005;" horiz-adv-x="486" />
<glyph unicode="&#x2006;" horiz-adv-x="324" />
<glyph unicode="&#x2007;" horiz-adv-x="324" />
<glyph unicode="&#x2008;" horiz-adv-x="243" />
<glyph unicode="&#x2009;" horiz-adv-x="389" />
<glyph unicode="&#x200a;" horiz-adv-x="108" />
<glyph unicode="&#x2010;" horiz-adv-x="819" d="M102 496l29 157h625l-29 -157h-625z" />
<glyph unicode="&#x2011;" horiz-adv-x="819" d="M102 496l29 157h625l-29 -157h-625z" />
<glyph unicode="&#x2012;" horiz-adv-x="819" d="M102 496l29 157h625l-29 -157h-625z" />
<glyph unicode="&#x2013;" horiz-adv-x="1380" d="M133 504l27 143h1136l-26 -143h-1137z" />
<glyph unicode="&#x2014;" horiz-adv-x="1814" d="M143 504l27 143h1550l-26 -143h-1551z" />
<glyph unicode="&#x2018;" horiz-adv-x="495" d="M184 887l9 137l36 121l207 325l90 -38q-39 -62 -83.5 -151t-51.5 -126l96 -10l-10 -141l-39 -117l-178 -17z" />
<glyph unicode="&#x2019;" horiz-adv-x="520" d="M199 893q39 62 83.5 150.5t51.5 125.5l-96 13l10 139l39 119l178 14l76 -14l-9 -137l-36 -121l-207 -328z" />
<glyph unicode="&#x201a;" horiz-adv-x="524" d="M31 -285q39 62 83.5 151t51.5 126l-96 10l10 141l39 117l178 16l76 -16l-8 -137l-37 -121l-207 -326z" />
<glyph unicode="&#x201c;" horiz-adv-x="886" d="M184 899l9 137l36 121l207 326l90 -39q-39 -62 -83.5 -151t-51.5 -126l96 -10l-10 -141l-39 -117l-178 -16zM575 899l9 137l37 121l206 326l91 -39q-41 -66 -86 -153.5t-50 -123.5l97 -10l-13 -141l-37 -117l-180 -16z" />
<glyph unicode="&#x201d;" horiz-adv-x="911" d="M199 893q39 62 83.5 150.5t51.5 125.5l-96 13l10 139l39 119l178 14l76 -14l-9 -137l-36 -121l-207 -328zM590 893q42 70 85 155t48 121l-96 13l12 139l39 119l178 14l76 -14l-10 -137l-37 -121l-207 -328z" />
<glyph unicode="&#x201e;" horiz-adv-x="915" d="M31 -285q39 62 83.5 151t51.5 126l-96 10l10 141l39 117l178 16l76 -16l-8 -137l-37 -121l-207 -326zM422 -285q41 69 84.5 155t48.5 122l-96 10l12 141l39 117l178 16l76 -16l-10 -137l-37 -121l-207 -326z" />
<glyph unicode="&#x2022;" horiz-adv-x="606" d="M133 477l14 154l37 135l197 12l92 -12l-14 -152l-37 -137l-197 -12z" />
<glyph unicode="&#x2026;" horiz-adv-x="1662" d="M143 2l13 141l34 117l187 16l72 -16l-11 -137l-37 -121l-188 -12zM682 2l12 141l35 117l189 16l69 -16l-8 -137l-39 -121l-186 -12zM1225 2l12 141l35 117l188 16l70 -16l-8 -137l-39 -121l-187 -12z" />
<glyph unicode="&#x202f;" horiz-adv-x="389" />
<glyph unicode="&#x2039;" horiz-adv-x="704" d="M72 481l452 451h170l-340 -453l183 -448h-175z" />
<glyph unicode="&#x203a;" horiz-adv-x="757" d="M72 31l338 448l-181 453h172l295 -451l-450 -450h-174z" />
<glyph unicode="&#x205f;" horiz-adv-x="486" />
<glyph unicode="&#x20ac;" horiz-adv-x="1366" d="M29 510l22 137h131q3 66 19 139h-123l22 138h146q156 356 594 495l155 51q90 -8 199.5 -57.5t177.5 -97.5l-121 -164q-54 52 -164 113.5t-190 72.5q-120 -41 -213 -150.5t-143 -262.5h589l-100 -138h-518q-12 -90 -12 -139h442l-96 -137h-340q21 -177 115.5 -271 t222.5 -94q58 0 130.5 21.5t108.5 38t101 49.5l53 -84q-61 -42 -205.5 -104.5t-275.5 -98.5q-248 0 -401 145.5t-173 397.5h-153z" />
<glyph unicode="&#x2122;" horiz-adv-x="2166" d="M246 1165v273l403 -4l379 4v-273h-74l-65 183l-133 4v-621l127 -14l-6 -76l-238 4l-242 -4l-6 76l129 14v621l-135 -4l-66 -183h-73zM1067 717l86 14v619l-86 14l6 74l109 -4l245 4l209 -512l-4 -125l236 637l182 -4l152 4l6 -74l-86 -14v-619l86 -14l-6 -76l-191 4 l-184 -4l-6 76l84 14v486l18 139l-264 -713h-141l-230 559l-31 150v-621l84 -14l-4 -76l-135 4l-129 -4z" />
<glyph unicode="&#x25fc;" horiz-adv-x="1013" d="M0 0v1014h1014v-1014h-1014z" />
</font>
</defs>
</svg>
