<?xml version="1.0" standalone="no"?>
<!DOCTYPE svg PUBLIC "-//W3C//DTD SVG 1.1//EN" "http://www.w3.org/Graphics/SVG/1.1/DTD/svg11.dtd" >
<svg xmlns="http://www.w3.org/2000/svg" xmlns:xlink="http://www.w3.org/1999/xlink" version="1.1">
<metadata></metadata>
<defs>
<font id="leitura_newsroman_1" horiz-adv-x="1228" >
<font-face units-per-em="2048" ascent="1638" descent="-410" />
<missing-glyph horiz-adv-x="471" />
<glyph unicode="&#xfb01;" horiz-adv-x="1269" d="M61 0v41q105 15 134.5 46t29.5 118v747h-143v62l143 10q9 93 44.5 181.5t85 154t105 115.5t107 76t88.5 26q80 0 98 -57q14 -45 -15 -83q-29 -37 -72 -24q-42 12 -75.5 18t-60 3t-46.5 -6t-35 -22t-25.5 -31t-17 -46t-10 -54.5t-5 -69t-2 -77t-0.5 -90.5v-14h348l307 20 h21v-839q0 -61 12 -90t50.5 -46.5t121.5 -27.5v-41h-532v41q83 10 121.5 27.5t50.5 46.5t12 90v594q0 42 -5.5 67.5t-22 46.5t-49.5 30t-87 9h-348v-747q0 -61 12 -90t50.5 -46.5t121.5 -27.5v-41h-512z" />
<glyph unicode="&#xfb02;" horiz-adv-x="1269" d="M61 0v41q105 15 134.5 46t29.5 118v747h-143v62l143 10q11 118 59.5 222.5t119 176t157.5 113t176 41.5q116 0 226 -61l81 61h21v-1372q0 -61 12 -90t50.5 -46.5t121.5 -27.5v-41h-532v41q83 10 121.5 27.5t50.5 46.5t12 90v1181q-204 70 -323 65.5t-162.5 -102 t-26.5 -325.5h266v-72h-266v-747q0 -61 12 -90t50.5 -46.5t121.5 -27.5v-41h-512z" />
<glyph unicode="&#xfb03;" horiz-adv-x="1925" d="M61 0v41q105 15 134.5 46t29.5 118v747h-143v62l143 10q9 93 44.5 181.5t85 154t105 115.5t107 76t88.5 26q80 0 98 -57q14 -45 -15 -83q-29 -37 -72 -24q-42 12 -75.5 18t-60 3t-46.5 -6t-35 -22t-25.5 -31t-17 -46t-10 -54.5t-5 -69t-2 -77t-0.5 -90.5v-14h492 q9 93 44.5 181.5t85 154t105 115.5t107 76t88.5 26q78 0 97 -56q15 -43 -13 -81q-29 -40 -74 -27q-42 12 -75.5 18t-60 3t-46.5 -6t-35 -22t-25.5 -31t-17 -46t-10 -54.5t-5 -69t-2 -77t-0.5 -90.5v-14h349l307 20h20v-839q0 -61 12.5 -90t51 -46.5t121.5 -27.5v-41h-533v41 q83 10 121.5 27.5t50.5 46.5t12 90v594q0 42 -5 67.5t-22 46.5t-49.5 30t-86.5 9h-349v-747q0 -61 12.5 -90t51 -46.5t121.5 -27.5v-41h-512v41q105 15 134.5 46t29.5 118v747h-492v-747q0 -61 12 -90t50.5 -46.5t121.5 -27.5v-41h-512z" />
<glyph unicode="&#xfb04;" horiz-adv-x="1925" d="M61 0v41q105 15 134.5 46t29.5 118v747h-143v62l143 10q9 93 44.5 181.5t85 154t105 115.5t107 76t88.5 26q80 0 98 -57q14 -45 -15 -83q-29 -37 -72 -24q-42 12 -75.5 18t-60 3t-46.5 -6t-35 -22t-25.5 -31t-17 -46t-10 -54.5t-5 -69t-2 -77t-0.5 -90.5v-14h492 q11 118 59.5 222.5t119 176t157.5 113t176 41.5q115 0 225 -61l82 61h20v-1372q0 -61 12.5 -90t51 -46.5t121.5 -27.5v-41h-533v41q83 10 121.5 27.5t50.5 46.5t12 90v1181q-204 70 -323 65.5t-162.5 -102t-26.5 -325.5h267v-72h-267v-747q0 -61 12.5 -90t51 -46.5 t121.5 -27.5v-41h-512v41q105 15 134.5 46t29.5 118v747h-492v-747q0 -61 12 -90t50.5 -46.5t121.5 -27.5v-41h-512z" />
<glyph horiz-adv-x="0" />
<glyph horiz-adv-x="682" />
<glyph unicode="&#xd;" horiz-adv-x="471" />
<glyph unicode=" "  horiz-adv-x="471" />
<glyph unicode="&#x09;" horiz-adv-x="471" />
<glyph unicode="&#xa0;" horiz-adv-x="471" />
<glyph unicode="!" horiz-adv-x="655" d="M205 102q0 51 36 87t87 36t87 -36t36 -87t-36 -86.5t-87 -35.5t-87 35.5t-36 86.5zM217 1438q-2 23 2 44.5t14.5 44t35.5 36.5t61 14q114 0 104 -139l-84 -1028h-41z" />
<glyph unicode="&#x22;" horiz-adv-x="851" d="M205 1556l41 -399h53l41 399h-135zM512 1556l41 -399h53l41 399h-135z" />
<glyph unicode="#" horiz-adv-x="1146" d="M82 348v72h291v256h-291v72h291v292h71v-292h256v292h72v-292h293v-72h-293v-256h293v-72h-293v-291h-72v291h-256v-291h-71v291h-291zM444 420h256v256h-256v-256z" />
<glyph unicode="$" horiz-adv-x="1095" d="M102 440h52q34 -376 358 -389v615q-87 35 -152.5 73t-121.5 89t-85.5 117t-29.5 145q0 147 103 248.5t286 113.5v186h72v-184q192 -7 348 -92l20 -338h-51q-23 170 -106.5 259t-210.5 97v-549q409 -158 409 -442q0 -174 -111.5 -284.5t-297.5 -122.5v-187h-72v185 q-102 3 -205.5 30.5t-183.5 71.5zM297 1147q0 -178 215 -283v516q-106 -11 -160.5 -70t-54.5 -163zM584 53q114 13 174.5 90.5t60.5 196.5q0 54 -18.5 99.5t-53.5 81t-73.5 61.5t-89.5 51v-580z" />
<glyph unicode="%" horiz-adv-x="2007" d="M207 1137q2 134 87.5 225.5t215.5 91.5q125 0 207.5 -92t79.5 -225q-3 -135 -88.5 -226.5t-216.5 -91.5q-124 0 -206 92.5t-79 225.5zM317 1137q0 -137 49 -211t136 -74t135.5 74t48.5 211t-48.5 210.5t-135.5 73.5t-136 -73.5t-49 -210.5zM623 -123h82l696 1700h-80z M1210 297q2 134 87.5 225.5t215.5 91.5q125 0 207.5 -92t79.5 -225q-3 -134 -88.5 -225.5t-216.5 -91.5q-124 0 -206 92t-79 225zM1321 297q0 -137 48.5 -211t135.5 -74t136 74t49 211t-49 211t-136 74t-135.5 -74t-48.5 -211z" />
<glyph unicode="&#x26;" horiz-adv-x="1617" d="M164 362q0 -178 109.5 -280t289.5 -102q224 0 408 184l145 -164h273v41q-115 32 -191 123l-115 137q91 132 166 313l13 32.5t11.5 29t11 23t14 21.5t16.5 16t22.5 14.5t29 10.5t39 10.5t48.5 6.5v41h-450v-41q123 -15 157 -49.5t6 -114.5q-49 -144 -127 -262l-389 471 q307 157 307 351q0 127 -87 203.5t-224 76.5q-144 0 -248 -85.5t-104 -225.5q0 -88 38 -160.5t134 -200.5q-50 -34 -76.5 -53t-64.5 -49.5t-58 -52t-43.5 -52.5t-34.5 -61.5t-18.5 -69t-7.5 -82.5zM342 420q0 202 160 317l426 -522q-79 -74 -157.5 -103.5t-135.5 -29.5 q-126 0 -209.5 100t-83.5 238zM467 1180q0 36 9.5 70t30.5 64.5t59 49t89 18.5q100 0 147.5 -63.5t47.5 -151.5q0 -82 -50.5 -151t-183.5 -148q-80 106 -114.5 176t-34.5 136z" />
<glyph unicode="'" horiz-adv-x="544" d="M205 1556l41 -399h53l41 399h-135z" />
<glyph unicode="(" horiz-adv-x="768" d="M205 604q0 683 420 1147h41q-137 -238 -202 -543t-65 -604t65 -604t202 -543h-41q-420 464 -420 1147z" />
<glyph unicode=")" horiz-adv-x="768" d="M102 -543h41q420 464 420 1147t-420 1147h-41q137 -238 202 -543t65 -604t-65 -604t-202 -543z" />
<glyph unicode="*" horiz-adv-x="905" d="M164 1122q0 22 14 37t35 15q7 0 22 -3.5t56.5 -11t103.5 -14.5q-49 39 -84.5 65t-46.5 34t-16 13q-15 15 -15 35t15 35q14 15 34 16t35 -14q4 -5 12.5 -18.5t33.5 -48t65 -84.5q-7 65 -13.5 108t-9 57t-2.5 21q0 22 14 35.5t36 13.5t36.5 -13t14.5 -36q0 -8 -2.5 -22.5 t-9.5 -58.5t-15 -105q39 49 63.5 84t33 48t14.5 19q15 15 34.5 15t34.5 -15q16 -16 16.5 -35t-16.5 -37q-5 -6 -16.5 -13.5t-47.5 -33.5t-87 -67q64 7 105.5 15t56 12t22.5 4q22 0 36.5 -15t14.5 -37t-14.5 -35.5t-36.5 -13.5q-7 0 -21.5 2.5t-57 9t-103.5 13.5 q49 -39 82.5 -63t46.5 -32t18 -12q15 -15 15 -36.5t-15 -34.5q-15 -15 -35.5 -15t-35.5 15q-5 5 -11 13l-15 20t-31 41.5t-50 66.5q6 -60 13 -99.5t10.5 -54t3.5 -20.5q0 -22 -14.5 -36.5t-36.5 -14.5t-36 14.5t-14 36.5q0 7 2.5 20.5t9 55.5t13.5 104q-39 -50 -63.5 -84.5 t-31.5 -46.5t-11 -16q-15 -15 -37 -15t-37 15t-14 35.5t16 35.5q4 4 15 11.5t44.5 32.5t81.5 63q-48 -5 -85 -10.5t-52 -8t-25 -4.5t-16 -2q-22 0 -35.5 13.5t-13.5 35.5z" />
<glyph unicode="+" horiz-adv-x="1146" d="M205 512v72h332v334h71v-334h334v-72h-334v-332h-71v332h-332z" />
<glyph unicode="," horiz-adv-x="696" d="M205 123q0 51 36 87t87 36q49 0 83 -20t50.5 -52.5t23.5 -65t7 -67.5q0 -130 -80 -232t-176 -137l-21 41q100 47 146 139q37 74 15 120q-14 28 -48 28q-51 0 -87 36t-36 87z" />
<glyph unicode="-" horiz-adv-x="1146" d="M205 512v72h737v-72h-737z" />
<glyph unicode="." horiz-adv-x="655" d="M205 102q0 51 36 87t87 36t87 -36t36 -87t-36 -86.5t-87 -35.5t-87 35.5t-36 86.5z" />
<glyph unicode="/" horiz-adv-x="983" d="M205 -123h82l491 1700h-80z" />
<glyph unicode="0" d="M123 666q0 107 17.5 205t55.5 186.5t94.5 153.5t139.5 103t184 38t184.5 -38t139.5 -103t94.5 -153.5t56 -186.5t17.5 -205t-17.5 -205t-56 -186.5t-94.5 -153.5t-139.5 -103t-184.5 -38t-184 38t-139.5 103t-94.5 153.5t-55.5 186.5t-17.5 205zM307 666q0 -104 8 -190.5 t29.5 -167t55 -136t88 -88.5t126.5 -33q308 0 308 615q0 104 -8 190.5t-29.5 167t-55.5 135.5t-88.5 88t-126.5 33q-89 0 -151 -48.5t-95 -137.5t-47 -192.5t-14 -235.5z" />
<glyph unicode="1" horiz-adv-x="860" d="M82 0v41q76 6 122.5 14.5t77 19t44 30.5t18 41t4.5 59v880q0 73 -40 88.5t-180 14.5h-46v41l410 123h20v-1147q0 -38 4.5 -59t18 -41t44 -30.5t77 -19t122.5 -14.5v-41h-696z" />
<glyph unicode="2" horiz-adv-x="1044" d="M102 0h840v143h-666q125 85 226 167t168.5 149.5t117 135t76.5 118.5t43 104.5t20.5 90t4.5 77.5q0 70 -25.5 134.5t-72.5 117t-122.5 84t-168.5 31.5q-183 0 -291.5 -76t-108.5 -180q0 -50 33.5 -76.5t77.5 -26.5q36 0 61.5 17.5t24.5 48.5q-8 116 34.5 168.5 t157.5 52.5q59 0 104 -26t71 -71.5t38.5 -100.5t12.5 -119q0 -46 -4 -83.5t-19 -92.5t-41.5 -106.5t-75.5 -120t-117 -139t-169.5 -158t-229.5 -181.5v-82z" />
<glyph unicode="3" horiz-adv-x="1095" d="M102 236q0 -102 108.5 -179t270.5 -77q139 0 248.5 41.5t176.5 131t67 216.5q0 153 -92.5 236t-241.5 102v4q131 40 206 128.5t75 207.5q0 136 -106 220.5t-271 84.5q-183 0 -291.5 -76t-108.5 -180q0 -50 33.5 -76.5t77.5 -26.5q36 0 61.5 17.5t24.5 48.5 q-8 121 25.5 171t146.5 50q229 0 229 -240q0 -303 -276 -303h-53v-71h73q159 0 234.5 -74.5t75.5 -210.5q0 -156 -78.5 -243t-224.5 -87q-107 0 -154 54t-39 167q1 31 -24.5 48.5t-61.5 17.5q-45 0 -78 -26t-33 -76z" />
<glyph unicode="4" horiz-adv-x="1167" d="M82 328h629v-328h163v328h211v123h-211v901h-110l-682 -869v-155zM141 451l570 725v-725h-570z" />
<glyph unicode="5" horiz-adv-x="1095" d="M102 236q0 -102 108.5 -179t270.5 -77q227 0 359.5 116t132.5 303q0 51 -14 103t-45 107.5t-81.5 99t-124.5 77t-173 42t-226 -6.5l13 367h600v143h-676l-21 -594h113q112 0 196 -21.5t133.5 -55.5t80 -84t41 -99t10.5 -108q0 -146 -70 -232t-217 -86q-118 0 -169.5 54 t-43.5 167q1 31 -24.5 48.5t-61.5 17.5q-45 0 -78 -26t-33 -76z" />
<glyph unicode="6" horiz-adv-x="1157" d="M123 520q0 -112 29 -208.5t84.5 -171t144 -117.5t201.5 -43q123 0 225.5 54.5t164.5 158.5t62 237q0 170 -108 289t-269 119q-196 0 -352 -131q21 109 59.5 197.5t103 168.5t163 140.5t229.5 97.5l-14 61q-327 -62 -525 -294t-198 -558zM307 627q53 56 123.5 90.5 t142.5 34.5q125 0 201 -94t76 -248q0 -171 -72.5 -265t-193.5 -94q-99 0 -169.5 77t-99 209t-8.5 290z" />
<glyph unicode="7" horiz-adv-x="1003" d="M82 1004h51q5 45 10 72t15.5 49.5t21.5 33t33.5 18t47.5 9.5t67 2h512l-619 -1188h205l516 1290v41h-850z" />
<glyph unicode="8" horiz-adv-x="1157" d="M123 346q0 -118 61 -202.5t158.5 -124t218.5 -39.5q72 0 140.5 15.5t129 47.5t105.5 76.5t71.5 107t26.5 135.5q0 116 -69 193.5t-234 153.5q121 49 191.5 135t70.5 178q0 102 -55.5 178.5t-143.5 114t-192 37.5q-78 0 -153.5 -24t-137 -67t-99.5 -110t-38 -147 q0 -184 252 -324q-140 -62 -221.5 -149t-81.5 -185zM287 360q0 95 47.5 164.5t152.5 126.5q184 -68 283.5 -153.5t99.5 -184.5q0 -119 -75 -190.5t-209 -71.5q-140 0 -219.5 81.5t-79.5 227.5zM338 1051q0 103 69 166t179 63q111 0 182.5 -67t71.5 -181q0 -211 -164 -295 q-173 69 -255.5 138t-82.5 176z" />
<glyph unicode="9" horiz-adv-x="1157" d="M123 901q0 -170 108 -288.5t269 -118.5q196 0 352 131q-21 -109 -59.5 -198t-103 -169t-163 -140.5t-229.5 -97.5l14 -61q327 62 525 294t198 558q0 112 -29 208.5t-84 171.5t-144 118t-202 43q-123 0 -225.5 -54.5t-164.5 -159t-62 -237.5zM307 922q0 171 72.5 264.5 t193.5 93.5q99 0 169.5 -77t99 -208.5t8.5 -289.5q-53 -56 -123.5 -90.5t-142.5 -34.5q-125 0 -201 94t-76 248z" />
<glyph unicode=":" horiz-adv-x="655" d="M205 225q0 51 36 87t87 36t87 -36t36 -87t-36 -87t-87 -36t-87 36t-36 87zM205 799q0 51 36 87t87 36t87 -36t36 -87t-36 -87t-87 -36t-87 36t-36 87z" />
<glyph unicode=";" horiz-adv-x="696" d="M205 123q0 51 36 87t87 36q49 0 83 -20t50.5 -52.5t23.5 -65t7 -67.5q0 -130 -80 -232t-176 -137l-21 41q100 47 146 139q37 74 15 120q-14 28 -48 28q-51 0 -87 36t-36 87zM225 799q0 51 36 87t87 36t87 -36t36 -87t-36 -87t-87 -36t-87 36t-36 87z" />
<glyph unicode="&#x3c;" horiz-adv-x="983" d="M205 528l573 -378v81l-479 320l479 315v82l-573 -379v-41z" />
<glyph unicode="=" horiz-adv-x="1146" d="M205 369v71h737v-71h-737zM205 655v72h737v-72h-737z" />
<glyph unicode="&#x3e;" horiz-adv-x="983" d="M205 150v81l479 320l-479 315v82l573 -379v-41z" />
<glyph unicode="?" horiz-adv-x="919" d="M206 1492q-2 50 41 75q61 36 151 -20q8 -5 16 -11q44 -32 90 -75t96.5 -103t82.5 -132t32 -141q0 -110 -40 -179.5t-149 -127.5q-36 -20 -55.5 -33t-39.5 -34t-27.5 -44t-11.5 -59.5t0.5 -83.5t15.5 -114h-52q-226 369 70 495q107 46 138 66q89 58 89 155q0 43 -27 80 t-74.5 65.5t-93.5 49t-103 43.5t-83 37q-64 34 -66 91zM264 102q0 51 36 87t87 36t87 -36t36 -87t-36 -86.5t-87 -35.5t-87 35.5t-36 86.5z" />
<glyph unicode="@" horiz-adv-x="1810" d="M205 350q0 -191 81.5 -343.5t230 -239t337.5 -86.5q157 0 302.5 51.5t256.5 144.5l-20 37q-100 -81 -224 -123.5t-251 -42.5q-283 0 -427.5 156.5t-144.5 449.5q0 198 82 367.5t228 271t323 101.5q94 0 174.5 -17t154 -58.5t125 -105t81.5 -161t30 -222.5 q0 -110 -27.5 -203t-71 -149.5t-92.5 -87.5t-96 -31q-29 0 -47.5 11t-26.5 27t-9 42.5t1.5 48t8.5 52.5l98 528h-22l-121 -102h-6q-15 61 -58 93t-102 32q-128 0 -236 -97t-157 -239q-21 -58 -25.5 -124t9 -128t42.5 -112t80 -80.5t115 -30.5q67 0 132 43.5t95 111.5 q5 -66 44.5 -108.5t117.5 -42.5q83 0 158.5 39.5t132.5 110.5t91 176.5t34 228.5q0 155 -48.5 274.5t-134.5 193t-197 111t-243 37.5q-151 0 -293.5 -64t-249 -171.5t-171 -257t-64.5 -312.5zM706.5 288.5q3.5 66.5 20.5 135.5q72 307 252 307q23 0 45 -11.5t41.5 -38 t24 -68.5t-6.5 -103q-13 -80 -36 -179.5t-43 -140.5q-79 -141 -175 -141q-45 0 -74.5 33t-40.5 86.5t-7.5 120z" />
<glyph unicode="A" horiz-adv-x="1433" d="M20 0h451v41q-80 10 -116.5 37.5t-36.5 71.5t20 106l78 236h512l96 -267q14 -47 14 -82v-9q-2 -38 -39.5 -60.5t-117.5 -32.5v-41h532v41q-90 23 -121.5 46t-52.5 77l-471 1280h-102l-441 -1280q-22 -63 -59.5 -85.5t-145.5 -37.5v-41zM440 563l224 666h4l233 -666h-461z " />
<glyph unicode="B" horiz-adv-x="1249" d="M82 0h614q225 0 348 103t123 276q0 129 -83.5 227.5t-264.5 143.5v4q127 35 207 123t80 208q0 158 -123 253.5t-348 95.5h-553v-41q83 -10 121.5 -27.5t50.5 -46.5t12 -90v-1024q0 -61 -12 -90t-50.5 -46.5t-121.5 -27.5v-41zM430 72v635h164q105 0 183 -24t124.5 -68 t69 -100t22.5 -126q0 -52 -9.5 -96t-33 -86t-61 -71t-97.5 -46.5t-137 -17.5h-225zM430 778v584h184q318 0 318 -297q0 -141 -86 -214t-293 -73h-123z" />
<glyph unicode="C" horiz-adv-x="1310" d="M102 717q0 -211 88.5 -380t242.5 -263t345 -94q138 0 256 37t195 85l20 287h-51q-16 -65 -49 -122.5t-83.5 -107.5t-125 -79t-162.5 -29q-141 0 -253 85t-175 237t-63 344q0 291 138.5 478t352.5 187q88 0 162.5 -29t125 -79t83.5 -107.5t49 -122.5h51l-20 287 q-78 48 -195.5 85.5t-255.5 37.5q-191 0 -345 -94t-242.5 -263t-88.5 -380z" />
<glyph unicode="D" horiz-adv-x="1515" d="M82 0v41q83 10 121.5 27.5t50.5 46.5t12 90v1024q0 61 -12 90t-50.5 46.5t-121.5 27.5v41h614q332 0 524.5 -190.5t192.5 -526.5q0 -157 -50.5 -290t-142.5 -227t-226.5 -147t-297.5 -53h-614zM430 72h266q109 0 198.5 36t150.5 97.5t103.5 144.5t61.5 175.5t19 191.5 q0 145 -33 261.5t-99 203t-173 133.5t-248 47h-246v-1290z" />
<glyph unicode="E" d="M82 0v41q83 10 121.5 27.5t50.5 46.5t12 90v1024q0 61 -12 90t-50.5 46.5t-121.5 27.5v41h1024l10 -328h-51q-31 256 -256 256h-379v-604h205q105 0 156.5 43.5t64.5 161.5h51v-482h-51q-13 118 -64.5 161.5t-156.5 43.5h-205v-614h399q115 0 183.5 65.5t83.5 190.5h51 l-21 -328h-1044z" />
<glyph unicode="F" horiz-adv-x="1177" d="M82 0v41q83 10 121.5 27.5t50.5 46.5t12 90v1024q0 61 -12 90t-50.5 46.5t-121.5 27.5v41h1024l10 -328h-51q-31 256 -256 256h-379v-635h205q105 0 156.5 43.5t64.5 161.5h51v-481h-51q-13 118 -64.5 161t-156.5 43h-205v-450q0 -61 12 -90t50.5 -46.5t121.5 -27.5v-41 h-532z" />
<glyph unicode="G" horiz-adv-x="1454" d="M102 717q0 -211 88.5 -380t242.5 -263t345 -94q138 0 276 52.5t216 110.5v287q0 87 26 118t117 46v41h-491v-41q83 -10 121.5 -27.5t50.5 -46.5t12 -90v-242q-134 -137 -328 -137q-141 0 -253 85t-175 237t-63 344q0 291 138.5 478t352.5 187q88 0 162.5 -29t125 -79 t83.5 -107.5t49 -122.5h51l-20 287q-78 48 -195.5 85.5t-255.5 37.5q-191 0 -345 -94t-242.5 -263t-88.5 -380z" />
<glyph unicode="H" horiz-adv-x="1597" d="M82 0v41q83 10 121.5 27.5t50.5 46.5t12 90v1024q0 61 -12 90t-50.5 46.5t-121.5 27.5v41h532v-41q-83 -10 -121.5 -27.5t-50.5 -46.5t-12 -90v-461h737v461q0 61 -12 90t-50.5 46.5t-121.5 27.5v41h533v-41q-83 -10 -121.5 -27.5t-51 -46.5t-12.5 -90v-1024 q0 -61 12.5 -90t51 -46.5t121.5 -27.5v-41h-533v41q83 10 121.5 27.5t50.5 46.5t12 90v491h-737v-491q0 -61 12 -90t50.5 -46.5t121.5 -27.5v-41h-532z" />
<glyph unicode="I" horiz-adv-x="696" d="M82 0v41q83 10 121.5 27.5t50.5 46.5t12 90v1024q0 61 -12 90t-50.5 46.5t-121.5 27.5v41h532v-41q-83 -10 -121.5 -27.5t-50.5 -46.5t-12 -90v-1024q0 -61 12 -90t50.5 -46.5t121.5 -27.5v-41h-532z" />
<glyph unicode="J" horiz-adv-x="819" d="M49 38q-8 17 -8 33q0 24 17 47q23 31 60 31q14 0 29 -4q4 -1 7 -2q64 -22 101 -31q31 -8 56 -8h10q29 2 41.5 14t19.5 43t8 71v46v59q-1 59 -1 93v799q0 61 -12 90t-50.5 46.5t-121.5 27.5v41h532v-41q-83 -10 -121.5 -27.5t-50.5 -46.5t-12 -90v-697q0 -134 -31.5 -241 t-86 -174t-124 -102t-147.5 -35q-90 0 -115 58z" />
<glyph unicode="K" horiz-adv-x="1503" d="M82 0v41q83 10 121.5 27.5t50.5 46.5t12 90v1024q0 61 -12 90t-50.5 46.5t-121.5 27.5v41h532v-41q-83 -10 -121.5 -27.5t-50.5 -46.5t-12 -90v-471q91 0 138.5 20.5t97.5 81.5l256 318q27 34 41 66q13 30 13 60q0 36 -33 59q-32 23 -95 30v41h512v-41q-104 -15 -177 -55 t-128 -109l-369 -461l451 -522q70 -81 143.5 -136.5t161.5 -68.5v-41h-594v41q59 7 91 26t36 46t-9.5 57.5t-43.5 65.5l-318 368q-54 61 -83 76.5t-91 15.5v-491q0 -61 12 -90t50.5 -46.5t121.5 -27.5v-41h-532z" />
<glyph unicode="L" horiz-adv-x="1187" d="M82 0v41q83 10 121.5 27.5t50.5 46.5t12 90v1024q0 61 -12 90t-50.5 46.5t-121.5 27.5v41h532v-41q-83 -10 -121.5 -27.5t-50.5 -46.5t-12 -90v-1157h399q115 0 183.5 65.5t83.5 190.5h51l-21 -328h-1044z" />
<glyph unicode="M" horiz-adv-x="1802" d="M82 0v41q83 10 121.5 27.5t50.5 46.5t12 90v1024q0 61 -12 90t-50.5 46.5t-121.5 27.5v41h399l441 -1188l430 1188h368v-41q-83 -10 -121.5 -27.5t-50.5 -46.5t-12 -90v-1024q0 -61 12 -90t50.5 -46.5t121.5 -27.5v-41h-532v41q83 10 121.5 27.5t50.5 46.5t12 90v1044 l-461 -1259h-82l-481 1280v-1065q0 -61 12 -90t50.5 -46.5t121.5 -27.5v-41h-450z" />
<glyph unicode="N" horiz-adv-x="1495" d="M82 0v41q83 10 121.5 27.5t50.5 46.5t12 90v1024q0 61 -12 90t-50.5 46.5t-121.5 27.5v41h389l696 -1127v922q0 61 -12 90t-50.5 46.5t-121.5 27.5v41h451v-41q-83 -10 -121.5 -27.5t-51 -46.5t-12.5 -90v-1229h-102l-799 1270v-1065q0 -61 12 -90t50.5 -46.5 t121.5 -27.5v-41h-450z" />
<glyph unicode="O" horiz-adv-x="1597" d="M102 717q0 158 55 296t149 234.5t222 151.5t271 55t271 -55t221.5 -151.5t148.5 -234.5t55 -296t-55 -296t-148.5 -234.5t-221.5 -151.5t-271 -55t-271 55t-222 151.5t-149 234.5t-55 296zM287 717q0 -191 68.5 -344t185.5 -237.5t258 -84.5t258 84.5t185.5 237.5 t68.5 344q0 288 -148 476.5t-364 188.5t-364 -188.5t-148 -476.5z" />
<glyph unicode="P" horiz-adv-x="1249" d="M82 0v41q83 10 121.5 27.5t50.5 46.5t12 90v1024q0 61 -12 90t-50.5 46.5t-121.5 27.5v41h614q224 0 347.5 -108t123.5 -282q0 -64 -18 -123.5t-60.5 -116t-106.5 -98t-163.5 -67t-224.5 -25.5h-164v-409q0 -61 12 -90t50.5 -46.5t121.5 -27.5v-41h-532zM430 686h164 q89 0 159 18t114.5 49t73 74.5t40.5 92t12 104.5q0 66 -16 122.5t-52.5 107t-105.5 79.5t-164 29h-225v-676z" />
<glyph unicode="Q" horiz-adv-x="1597" d="M102 717q0 158 55 296t149 234.5t222 151.5t271 55t271 -55t221.5 -151.5t148.5 -234.5t55 -296q0 -144 -45.5 -271.5t-125 -221.5t-188 -156t-233.5 -80q122 -128 187 -183q224 -192 466 -225v-31q-139 -41 -225 -41q-64 0 -130.5 28.5t-118 68.5t-107.5 99t-90 104 t-75.5 101t-55.5 73q-136 9 -256 67t-207.5 153.5t-138 229t-50.5 285.5zM287 717q0 -191 68.5 -344t185.5 -237.5t258 -84.5t258 84.5t185.5 237.5t68.5 344q0 288 -148 476.5t-364 188.5t-364 -188.5t-148 -476.5z" />
<glyph unicode="R" horiz-adv-x="1372" d="M82 0v41q83 10 121.5 27.5t50.5 46.5t12 90v1024q0 61 -12 90t-50.5 46.5t-121.5 27.5v41h594q225 0 348 -103t123 -276q0 -143 -83.5 -250t-275.5 -150l318 -440q46 -65 108 -112t117 -62v-41h-266q-67 45 -164 184l-307 451h-164v-430q0 -61 12 -90t50.5 -46.5 t121.5 -27.5v-41h-532zM430 707h164q111 0 188 25t117.5 72t57 102t16.5 128q0 66 -16 121t-52.5 103.5t-105 76t-164.5 27.5h-205v-655z" />
<glyph unicode="S" horiz-adv-x="1095" d="M102 440h52q9 -97 38 -169.5t66 -113.5t88.5 -66t96 -32.5t96.5 -7.5q135 0 207.5 79.5t72.5 209.5q0 54 -21 101t-50 79t-79 64t-86.5 49.5t-95.5 42.5q-83 35 -145 73t-113.5 88t-78.5 113.5t-27 139.5q0 157 115 260.5t319 103.5q205 0 375 -92l20 -338h-51 q-24 179 -114.5 268.5t-227.5 89.5q-129 0 -195.5 -59.5t-66.5 -175.5q0 -62 24 -113.5t68.5 -89.5t91 -64t109.5 -51q403 -161 403 -440q0 -185 -124.5 -297t-329.5 -112q-108 0 -219 27.5t-197 74.5z" />
<glyph unicode="T" d="M61 1106h52q31 256 256 256h163v-1157q0 -61 -12 -90t-50.5 -46.5t-121.5 -27.5v-41h533v41q-83 10 -121.5 27.5t-51 46.5t-12.5 90v1157h164q225 0 256 -256h51l-10 328h-1085z" />
<glyph unicode="U" horiz-adv-x="1556" d="M61 1393v41h533v-41q-83 -10 -121.5 -27.5t-50.5 -46.5t-12 -90v-656q0 -512 399 -512q206 0 313 132t107 380v656q0 61 -12.5 90t-51 46.5t-121.5 27.5v41h451v-41q-83 -10 -121.5 -27.5t-50.5 -46.5t-12 -90v-676q0 -274 -145 -423.5t-398 -149.5q-263 0 -392.5 150 t-129.5 423v676q0 61 -12.5 90t-51 46.5t-121.5 27.5z" />
<glyph unicode="V" horiz-adv-x="1433" d="M20 1393q90 -23 122 -46t53 -77l471 -1280h102l440 1280q22 63 59.5 85.5t145.5 37.5v41h-450v-41q80 -10 116.5 -37.5t36.5 -71.5t-20 -106l-326 -973h-4l-356 1003q-16 46 -16 80v10q2 38 40.5 61.5t118.5 33.5v41h-533v-41z" />
<glyph unicode="W" horiz-adv-x="2068" d="M20 1393q90 -23 121 -46t49 -77l426 -1280h103l344 909l278 -909h123l379 1280q22 63 59.5 85.5t145.5 37.5v41h-451v-41q80 -10 115.5 -37t35.5 -71t-17 -107l-275 -963h-4l-285 993q-13 45 -13 79v11q2 38 39.5 61.5t117.5 33.5v41h-533v-41q92 -23 124.5 -46t49.5 -77 l76 -252l-299 -803h-4l-322 993q-13 40 -13 70q0 34 16 58q30 44 147 57v41h-533v-41z" />
<glyph unicode="X" horiz-adv-x="1474" d="M61 0h482v41q-60 10 -93 33q-34 24 -38 58q-1 9 -1 17q-1 25 9 51q12 36 41 76l246 349l194 -349q25 -46 35 -82q7 -24 7 -48q1 -10 -1 -20q-4 -34 -38 -55.5t-95 -29.5v-41h604v41q-52 17 -69 23.5t-52 21.5t-51 28.5t-36.5 36.5t-37.5 54l-338 573l308 451 q56 80 101.5 112.5t143.5 51.5v41h-460v-41q63 -6 99.5 -23t45.5 -44.5t-2 -62t-41 -79.5l-231 -340l-199 354q-22 36 -30 67.5t-2 58.5t35 45t79 24v41h-584v-41q101 -21 158 -56t98 -108l318 -543l-338 -481q-49 -68 -105 -102t-162 -62v-41z" />
<glyph unicode="Y" horiz-adv-x="1310" d="M20 1393q63 -24 95.5 -49.5t58.5 -73.5l430 -793v-272q0 -61 -12 -90t-50.5 -46.5t-121.5 -27.5v-41h532v41q-83 10 -121.5 27.5t-50.5 46.5t-12 90v360l338 705q32 58 70 83t114 40v41h-409v-41q70 -10 104 -37q32 -26 32 -63q0 -39 -24 -95l-274 -563h-4l-295 573 q-14 29 -21.5 47.5t-12.5 40t0 35t18.5 27t40.5 22t67 13.5v41h-492v-41z" />
<glyph unicode="Z" d="M82 0h1044l21 328h-51q-15 -125 -83.5 -190.5t-183.5 -65.5h-512l809 1321v41h-989l-10 -328h51q31 256 256 256h467l-819 -1321v-41z" />
<glyph unicode="[" horiz-adv-x="778" d="M205 -532h471v71h-328v2140h328v72h-471v-2283z" />
<glyph unicode="\" horiz-adv-x="983" d="M205 1577h80l493 -1700h-82z" />
<glyph unicode="]" horiz-adv-x="778" d="M102 -461h328v2140h-328v72h471v-2283h-471v71z" />
<glyph unicode="^" horiz-adv-x="1044" d="M205 1004l297 471h41l297 -471h-41l-277 296l-276 -296h-41z" />
<glyph unicode="_" horiz-adv-x="1249" d="M205 -102h839v-72h-839v72z" />
<glyph unicode="`" horiz-adv-x="755" d="M210 1431q14 38 55 52q53 17 89 -33l2 -2l195 -303l-21 -19l-284 211q-55 41 -36 94z" />
<glyph unicode="a" horiz-adv-x="1024" d="M82 225q0 179 266 226l293 51l4 215v11q1 110 -57 171q-60 64 -158 64q-65 0 -109 -25q-45 -24 -59 -58q-12 -27 -12 -55q0 -7 2 -13q4 -34 24 -54q22 -20 21 -42q0 -22 -22 -44q-38 -36 -92 -41q-7 -1 -13 -1q-36 0 -47 25q-11 29 -11 64q0 33 17 69q17 38 42 74.5 t65.5 69t86.5 57.5t106 40t124 15q123 0 191 -73q65 -70 65 -192v-11l-10 -502v-12q0 -70 22 -100q23 -33 67 -32h3q46 1 113 11v-31q-105 -70 -154.5 -96t-91.5 -26q-123 0 -123 163h-4q-97 -86 -167.5 -124.5t-156.5 -38.5q-92 0 -158.5 71t-66.5 174zM244 219 q8 -63 44 -95t81 -32q69 0 124.5 21.5t141.5 81.5l4 256l-260 -62q-76 -19 -110 -63q-27 -34 -27 -81q0 -13 2 -26z" />
<glyph unicode="b" horiz-adv-x="1187" d="M20 1444v41l308 92h20v-676h4q61 64 147.5 103.5t176.5 39.5q196 0 313 -149t117 -383q0 -96 -28.5 -181t-78.5 -148.5t-116 -109.5t-142.5 -69.5t-156.5 -23.5q-170 0 -297 102l-62 -92h-41v1300q0 79 -30 109t-134 45zM348 338q0 -68 16 -121.5t41 -85.5t58.5 -53 t65.5 -29t65 -8q166 0 256 130q83 119 83 307q0 17 -1 34q-7 194 -100.5 307t-227.5 113q-146 0 -256 -96v-498z" />
<glyph unicode="c" horiz-adv-x="1024" d="M82 502q0 126 42.5 230.5t113 171.5t160 103.5t186.5 36.5q161 0 259.5 -76.5t98.5 -179.5q0 -50 -33 -76t-78 -26q-36 0 -61.5 17.5t-24.5 48.5q2 23 2 44q0 88 -28 132q-34 54 -146 55q-152 0 -241.5 -113.5t-89.5 -294.5q0 -222 101.5 -342t270.5 -120q183 0 328 82 v-62q-34 -28 -60 -47t-76.5 -47.5t-112.5 -43.5t-130 -15q-147 0 -258.5 73.5t-167 191t-55.5 257.5z" />
<glyph unicode="d" d="M82 512q0 96 28.5 181t78.5 148.5t116 109.5t142.5 69.5t156.5 23.5q61 0 127 -16t109 -45v307q0 79 -30 109t-134 45v41l307 92h21v-1311q0 -69 23.5 -100.5t68.5 -34.5q17 -1 37 -1q33 0 75 3v-51l-348 -102h-20v143h-4q-61 -64 -147.5 -103.5t-176.5 -39.5 q-196 0 -313 149t-117 383zM256 512q7 -194 100.5 -307t227.5 -113q146 0 256 96v498q0 68 -16 121.5t-41 85.5t-58.5 53t-65.5 29t-65 8q-166 0 -256 -130q-83 -119 -83 -307q0 -17 1 -34z" />
<glyph unicode="e" horiz-adv-x="1024" d="M82 502q0 126 42.5 230.5t113 171.5t160 103.5t186.5 36.5q51 0 97.5 -9t92.5 -30t79 -54.5t57 -82.5q25 -48 29 -114q1 -15 1 -32q0 -53 -10 -118h-688q-1 -21 -1 -41q1 -187 93 -312q102 -138 280 -138q183 0 328 82v-62q-34 -28 -60 -47t-76.5 -47.5t-112.5 -43.5 t-130 -15q-147 0 -258.5 73.5t-167 191t-55.5 257.5zM250 676h506q14 60 14 109q0 75 -33 121q-55 78 -164 77q-130 0 -214.5 -83t-108.5 -224z" />
<glyph unicode="f" horiz-adv-x="696" d="M61 0v41q105 15 134.5 46t29.5 118v747h-143v62l143 10q9 93 44.5 181.5t85 154t105 115.5t107 76t88.5 26q80 0 98 -57q5 -15 5 -29q0 -28 -20 -54q-21 -27 -51 -27q-10 0 -21 3q-42 12 -75.5 18t-60 3t-46.5 -6t-35 -22t-25.5 -31t-17 -46t-10 -54.5t-5 -69t-2 -77 t-0.5 -90.5v-14h266v-72h-266v-747q0 -61 12 -90t50.5 -46.5t121.5 -27.5v-41h-512z" />
<glyph unicode="g" horiz-adv-x="1105" d="M41 -348q0 86 60 164t175 164q-62 7 -102.5 48t-40.5 95q0 52 45 103t139 112q-102 47 -158.5 131.5t-56.5 200.5q0 165 116 269.5t294 104.5q114 0 256 -61l276 31v-113h-215v-4q44 -58 63 -104t19 -117q0 -175 -110 -277t-289 -102q-81 0 -143 20q-3 -4 -18.5 -21 t-19.5 -22t-14 -19t-13.5 -22t-7 -20t-3.5 -23q0 -36 32 -53.5t95 -23.5l325 -31q132 -12 215.5 -77t83.5 -169q0 -91 -58.5 -166.5t-151.5 -123t-203.5 -73.5t-220.5 -26q-369 0 -369 205zM205 -307q0 -85 71.5 -135t194.5 -50q64 0 133.5 17t132.5 49t103.5 85t40.5 116 q0 71 -62.5 104.5t-183.5 48.5l-318 41q-64 -79 -88 -143.5t-24 -132.5zM276 666q10 -143 77.5 -225.5t168.5 -82.5q117 0 170 88q46 76 46 192q0 18 -1 36q-8 136 -70.5 222.5t-164.5 86.5q-112 0 -174 -87q-54 -74 -54 -188q0 -21 2 -42z" />
<glyph unicode="h" horiz-adv-x="1269" d="M61 0v41q83 10 121.5 27.5t51 46.5t12.5 90v1085q0 79 -30 109t-134 45v41l307 92h21v-748h4q102 102 196.5 158.5t198.5 56.5q113 0 184.5 -74.5t71.5 -232.5v-532q0 -61 12 -90t50.5 -46.5t121.5 -27.5v-41h-491v41q28 6 47.5 11t35.5 12.5t25.5 12t16.5 16t10.5 18.5 t5.5 25.5t2 30v38.5v532q0 87 -38.5 136t-114.5 49q-81 0 -158.5 -34t-179.5 -120v-563q0 -61 12 -90t50.5 -46.5t121.5 -27.5v-41h-533z" />
<glyph unicode="i" horiz-adv-x="614" d="M61 0v41q83 10 121.5 27.5t51 46.5t12.5 90v553q0 79 -30 108.5t-134 44.5v41l307 92h21v-839q0 -61 12 -90t50.5 -46.5t121.5 -27.5v-41h-533zM205 1372q0 51 36 87t87 36t87 -36t36 -87t-36 -87t-87 -36t-87 36t-36 87z" />
<glyph unicode="j" horiz-adv-x="571" d="M-44 -496q-7 18 -7 35q0 25 15 48q18 27 47 27q11 0 22 -3q42 -12 75.5 -14.5t57 2.5t40 20.5t26 34t14.5 49t6 59.5q1 17 1 39v32q-1 42 -3 79t-4 87.5t-2 92.5v666q0 79 -30 108.5t-134 44.5v41l307 92h21v-952q0 -128 -34.5 -250.5t-86.5 -207t-113 -136t-115 -51.5 q-79 0 -103 57zM203 1372q0 51 36 87t87 36t87 -36t36 -87t-36 -87t-87 -36t-87 36t-36 87z" />
<glyph unicode="k" d="M61 0v41q83 10 121.5 27.5t51 46.5t12.5 90v1085q0 79 -30 109t-134 45v41l307 92h21v-1014q94 0 136 14t79 58l143 164q27 34 38.5 62.5t7 54t-34.5 43t-83 24.5v41h441v-41q-85 -15 -139.5 -43t-96.5 -80l-235 -276l317 -379q3 -3 8 -9q26 -29 42.5 -46.5t46.5 -43.5 t62 -42t66 -23v-41h-450v41q79 7 79 46q0 36 -69 118l-195 235q-42 42 -73 57t-90 15v-307q0 -61 12 -90t50.5 -46.5t121.5 -27.5v-41h-533z" />
<glyph unicode="l" horiz-adv-x="614" d="M61 0v41q83 10 121.5 27.5t51 46.5t12.5 90v1085q0 79 -30 109t-134 45v41l307 92h21v-1372q0 -61 12 -90t50.5 -46.5t121.5 -27.5v-41h-533z" />
<glyph unicode="m" horiz-adv-x="1884" d="M61 0v41q83 10 121.5 27.5t51 46.5t12.5 90v553q0 79 -30 108.5t-134 44.5v41l317 92h17l-6 -215h4q98 109 183 162t191 53q96 0 163.5 -54.5t86.5 -170.5h6q89 112 180 168.5t199 56.5q113 0 184.5 -74.5t71.5 -232.5v-532q0 -61 12.5 -90t51 -46.5t121.5 -27.5v-41 h-492v41q37 8 60.5 14.5t40.5 17.5t25 19t12.5 28t5 35t0.5 50v532q0 87 -39 136t-115 49q-82 0 -152 -32.5t-166 -121.5v-563q0 -61 12.5 -90t51 -46.5t121.5 -27.5v-41h-492v41q37 8 60.5 14.5t40.5 17.5t25 19t12.5 28t5 35t0.5 50v532q0 87 -39 136t-115 49 q-81 0 -151 -32.5t-166 -121.5v-563q0 -61 12 -90t50.5 -46.5t121.5 -27.5v-41h-533z" />
<glyph unicode="n" horiz-adv-x="1269" d="M61 0v41q83 10 121.5 27.5t51 46.5t12.5 90v553q0 79 -30 108.5t-134 44.5v41l317 92h17l-6 -215h4q102 102 196.5 158.5t198.5 56.5q113 0 184.5 -74.5t71.5 -232.5v-532q0 -61 12 -90t50.5 -46.5t121.5 -27.5v-41h-491v41q28 6 47.5 11t35.5 12.5t25.5 12t16.5 16 t10.5 18.5t5.5 25.5t2 30v38.5v532q0 87 -38.5 136t-114.5 49q-81 0 -158.5 -34t-179.5 -120v-563q0 -61 12 -90t50.5 -46.5t121.5 -27.5v-41h-533z" />
<glyph unicode="o" horiz-adv-x="1150" d="M84 512q2 146 66.5 267.5t178.5 193t255 71.5q140 0 252 -71.5t172 -192.5q59 -117 59 -259v-9q-3 -146 -67.5 -267.5t-179 -193t-255.5 -71.5t-253 72q-111 70 -171 192q-57 116 -57 254v14zM268 512q0 -227 81.5 -349t225.5 -122t226 122t82 349t-82 349t-226 122 t-225.5 -122t-81.5 -349z" />
<glyph unicode="p" d="M61 -492q105 15 134.5 46t29.5 118v1086q0 79 -30 108.5t-134 44.5v41l318 92h16l-6 -143h4q61 64 147.5 103.5t176.5 39.5q196 0 313 -149t117 -383q0 -96 -28.5 -181t-78.5 -148.5t-116 -109.5t-142.5 -69.5t-156.5 -23.5q-61 0 -127 16t-109 45v-369q0 -61 12 -90 t50.5 -46.5t121.5 -27.5v-40h-512v40zM389 338q0 -68 16 -121.5t41 -85.5t58.5 -53t65.5 -29t65 -8q166 0 256 130q83 119 83 307q0 17 -1 34q-7 194 -100.5 307t-227.5 113q-146 0 -256 -96v-498z" />
<glyph unicode="q" horiz-adv-x="1167" d="M82 512q0 96 28.5 181t78.5 148.5t116 109.5t142.5 69.5t156.5 23.5q170 0 297 -102l62 92h41v-1362q0 -87 29 -118t134 -46v-40h-512v40q83 10 121.5 27.5t51 46.5t12.5 90v451h-4q-61 -64 -147.5 -103.5t-176.5 -39.5q-196 0 -313 149t-117 383zM256 512 q7 -194 100.5 -307t227.5 -113q146 0 256 96v498q0 68 -16 121.5t-41 85.5t-58.5 53t-65.5 29t-65 8q-166 0 -256 -130q-83 -119 -83 -307q0 -17 1 -34z" />
<glyph unicode="r" horiz-adv-x="890" d="M61 0h533v41q-83 10 -121.5 27.5t-50.5 46.5t-12 90v543q120 133 242 133q48 0 96 -21q16 -7 30 -7q29 0 51 29q21 29 21 62q0 15 -4 30q-17 61 -90 69q-9 1 -19 1q-85 0 -170 -68.5t-153 -166.5h-4l6 235h-17l-317 -92v-41q104 -15 134 -44.5t30 -108.5v-553 q0 -61 -12.5 -90t-51 -46.5t-121.5 -27.5v-41z" />
<glyph unicode="s" horiz-adv-x="880" d="M92 328h51q6 -68 27 -120.5t49 -83t64.5 -50t69.5 -26.5t67 -7q93 0 149 54.5t56 140.5q0 45 -16.5 79t-60 62.5t-66 39.5t-87.5 37q-11 5 -16 7q-68 27 -113 51t-88.5 60t-64.5 84.5t-21 111.5q0 124 95 200t253 76q155 0 287 -63l21 -264h-52q-15 119 -92 192.5 t-174 73.5q-92 0 -143 -43.5t-51 -120.5q0 -28 8 -52t17.5 -41t32 -34.5t36.5 -27t46 -23.5t45.5 -19t49.5 -18q53 -19 92 -36.5t84 -46t74 -59.5t48 -76.5t19 -98.5q0 -141 -107.5 -224t-260.5 -83q-76 0 -160 20t-147 51z" />
<glyph unicode="t" horiz-adv-x="778" d="M61 952v62l144 30l123 287h41v-307h307v-72h-307v-706q0 -48 13 -78.5t39 -44t50 -17.5t61 -4q93 0 205 31v-31q-74 -60 -161 -91t-166 -31q-108 0 -156.5 57.5t-48.5 187.5v727h-144z" />
<glyph unicode="u" d="M41 983v41h328v-737q0 -87 38.5 -136t114.5 -49q79 0 146 31.5t172 122.5v573q0 55 -12 82t-51.5 44.5t-121.5 27.5v41h349v-758q0 -69 23.5 -100.5t68.5 -34.5q17 -1 37 -1q33 0 75 3v-51l-348 -102h-20v215h-4q-69 -71 -118.5 -112.5t-117.5 -72t-139 -30.5 q-113 0 -184.5 74.5t-71.5 232.5v542q0 79 -30 109t-134 45z" />
<glyph unicode="v" horiz-adv-x="1167" d="M20 983q74 -22 102 -45.5t52 -77.5l379 -870h41l61 41l328 829q24 61 56 84.5t108 38.5v41h-410v-41q107 -15 141 -59q18 -23 17 -57q0 -30 -14 -68l-234 -615h-4l-254 615q-18 42 -22 69.5t6 52.5t44.5 40t94.5 22v41h-492v-41z" />
<glyph unicode="w" horiz-adv-x="1761" d="M20 983q76 -23 105 -46.5t49 -76.5l328 -870h41l71 41l287 676l236 -717h41l71 41l328 829q24 61 56 84.5t108 38.5v41h-410v-41q107 -15 141 -59q18 -23 17 -57q0 -30 -14 -68l-234 -615h-4l-193 615q-12 35 -17 57.5t-2.5 46t17.5 37.5t46 25.5t79 17.5v41h-491v-41 q77 -23 107.5 -47t50.5 -76l26 -72l-254 -604h-4l-213 615q-12 35 -17 57.5t-2.5 46t17.5 37.5t46 25.5t79 17.5v41h-492v-41z" />
<glyph unicode="x" horiz-adv-x="1146" d="M41 0h377v41q-36 5 -58.5 14t-30.5 23.5t-8.5 29t10 35.5t22 38.5t30.5 43.5l152 207l131 -207q21 -33 31.5 -54t16.5 -45t-2.5 -39t-32 -27.5t-65.5 -18.5v-41h492v41q-84 25 -123.5 48.5t-71.5 74.5l-262 414l215 282q41 55 85.5 81.5t125.5 41.5v41h-379v-41 q53 -7 78.5 -24t23.5 -43.5t-15.5 -53t-41.5 -63.5l-129 -166l-110 166q-21 31 -33 53.5t-18.5 46t-0.5 39t26 27.5t56 18v41h-471v-41q75 -15 118 -42.5t77 -80.5l244 -373l-240 -323q-38 -54 -86.5 -81t-132.5 -42v-41z" />
<glyph unicode="y" horiz-adv-x="1167" d="M11 -418q16 32 45 32q10 0 20 -3q53 -15 102 -15q246 0 385 384l-389 880q-24 54 -52 77.5t-102 45.5v41h492v-41q-60 -7 -94.5 -22t-44.5 -40t-6 -52.5t22 -69.5l254 -615h4l234 615q14 38 14 68q0 33 -17 57q-34 44 -141 59v41h410v-41q-76 -15 -108 -38.5t-56 -84.5 l-348 -880q-45 -114 -102.5 -206t-111.5 -149t-112.5 -97t-104 -58t-87.5 -23q-11 -1 -22 -1q-60 0 -84 49q-11 23 -11 44.5t11 42.5z" />
<glyph unicode="z" horiz-adv-x="983" d="M61 0v61l635 902h-379q-82 0 -120 -58t-54 -188h-41l11 307h778v-61l-635 -902h440q83 0 126.5 59.5t58.5 186.5h41l-21 -307h-840z" />
<glyph unicode="{" horiz-adv-x="880" d="M102 553v68q48 9 75 15.5t59 17.5t49 24.5t34 34t26 49t13 67.5q11 82 -18 314t-29 282q0 83 20 141t55 94t95.5 56.5t129 27.5t167.5 7v-51q-68 -2 -116 -11.5t-90 -34t-64.5 -71.5t-26.5 -117q-2 -32 16.5 -301.5t12.5 -316.5q-5 -46 -25 -84.5t-39 -61t-60.5 -47 t-59 -32t-65.5 -26.5l-6 -3t-5 -2l-6 -2v-2q4 -2 31.5 -13t35 -14.5t32.5 -15t35 -18.5t31 -21t30.5 -25.5t24.5 -29t22 -35.5t14 -41t10 -49q5 -45 -13 -304t-16 -292q3 -54 19 -92t38.5 -59t61 -33t73.5 -16.5t89 -9.5q11 -1 16 -1v-51q-64 0 -108.5 1.5t-93.5 6.5 t-81.5 14.5t-65 24.5t-52.5 37.5t-36 53.5t-23 72t-7 93q0 51 29 273t18 304q-7 58 -24 95t-51 59t-74 32.5t-107 18.5z" />
<glyph unicode="|" horiz-adv-x="481" d="M205 -205v1884h71v-1884h-71z" />
<glyph unicode="}" horiz-adv-x="880" d="M102 -479q68 2 116 11.5t90 33.5t64.5 71t26.5 117q2 32 -16 302t-12 317q5 46 25 84.5t39 61t60.5 47t59 32t65.5 26.5l6 3t5 2l6 2v2q-4 2 -31.5 13t-35 14.5t-32.5 15t-35 18.5t-31 21t-30.5 25.5t-24.5 29t-22 35.5t-14 41t-10 49q-6 45 12 304.5t16 291.5 q-3 54 -19 92t-38.5 59t-61 33t-73.5 16.5t-89 9.5q-11 1 -16 1v51q64 0 108.5 -1.5t93.5 -6.5t81.5 -14.5t65 -24.5t52.5 -37.5t36 -53.5t23 -72t7 -93q0 -51 -29 -273.5t-18 -304.5q7 -58 24 -94.5t51 -58.5t74 -32.5t107 -18.5v-68q-57 -11 -88 -19t-65.5 -23t-52 -35.5 t-31.5 -53t-19 -78.5q-11 -82 18 -314t29 -282q0 -83 -20 -141t-55 -94t-96 -56t-129 -27t-167 -7v51z" />
<glyph unicode="~" horiz-adv-x="1126" d="M205 676q18 36 29.5 58.5t34 58t41.5 56t46 36.5t54 16q41 0 164 -41t163 -41q57 0 88 15t66 67l31 -20l-28.5 -55.5t-31 -52.5t-39 -51t-43.5 -31.5t-53 -14.5q-48 0 -169 41t-169 41q-53 0 -81 -20.5t-72 -82.5z" />
<glyph unicode="&#xa1;" horiz-adv-x="655" d="M205 1004q0 -51 36 -87t87 -36t87 36t36 87t-36 86.5t-87 35.5t-87 -35.5t-36 -86.5zM217 -332q-2 -23 2 -44.5t14.5 -44t35.5 -36.5t61 -14q114 0 104 139l-84 1028h-41z" />
<glyph unicode="&#xa2;" horiz-adv-x="1105" d="M123 502q0 118 36.5 217t99.5 166t143.5 107.5t170.5 49.5v187h72v-185q152 -6 245 -81t93 -175q0 -50 -33 -76t-78 -26q-36 0 -61.5 17.5t-24.5 48.5q7 114 -21.5 168t-119.5 61v-868q193 0 338 82v-62q-43 -35 -77 -59t-108.5 -55t-152.5 -37v-187h-72v187 q-139 8 -243 82t-155.5 188t-51.5 250zM283 575q0 -193 78 -310t212 -144v860q-134 -17 -212 -128t-78 -278z" />
<glyph unicode="&#xa3;" horiz-adv-x="1304" d="M123 51q72 52 121 110t74.5 112.5t35 119t7 119.5t-12.5 123h-184v72h172q-1 6 -8.5 40.5t-8.5 40.5t-8 40.5t-7.5 40t-6 40t-5 40.5t-4 40.5t-2 40t0.5 39.5q5 159 128.5 272t325.5 113q160 0 259 -81t96 -185q-1 -50 -35.5 -76.5t-79.5 -26.5q-36 0 -60.5 17.5 t-23.5 48.5q13 122 -19.5 176.5t-144.5 54.5q-126 0 -195.5 -69t-74.5 -187q-3 -68 0 -139t9.5 -155t8.5 -125h318v-72h-316q2 -162 -44 -292t-173 -253l2 -4q88 39 166.5 56t145.5 11.5t113.5 -15.5t106.5 -30t89 -26q38 -11 74 -8t65.5 20.5t56 65.5t45.5 127h52 q-28 -105 -47 -150q-111 -258 -371 -213q-23 4 -75.5 25t-110 41.5t-127.5 36t-151 10.5t-157 -37z" />
<glyph unicode="&#xa4;" horiz-adv-x="1050" d="M143 928l160 -185q-98 -95 -98 -233q0 -139 98 -234l-156 -176l19 -18l156 178q88 -72 204 -72q115 0 203 72l158 -178l18 18l-155 176q47 44 73.5 105t26.5 129q0 139 -102 235l159 183l-18 16l-160 -184q-90 74 -203 74q-114 0 -204 -74l-162 184zM229 510 q0 122 88 210.5t209 88.5q122 0 210.5 -88.5t88.5 -210.5q0 -121 -88.5 -209t-210.5 -88t-209.5 87.5t-87.5 209.5z" />
<glyph unicode="&#xa5;" horiz-adv-x="1515" d="M123 1393q63 -24 95 -49.5t58 -73.5l404 -707h-281v-71h308v-287q0 -61 -12.5 -90t-51 -46.5t-121.5 -27.5v-41h533v41q-83 10 -121.5 27.5t-51 46.5t-12.5 90v287h308v71h-287l317 707q32 58 70.5 83t114.5 40v41h-410v-41q70 -10 104 -37.5t32.5 -67t-23.5 -90.5 l-254 -563h-4l-316 573q-14 29 -21.5 47.5t-12.5 40t0 35t18.5 27t40.5 22t67 13.5v41h-491v-41z" />
<glyph unicode="&#xa6;" horiz-adv-x="481" d="M205 -205v737h71v-737h-71zM205 942v737h71v-737h-71z" />
<glyph unicode="&#xa7;" horiz-adv-x="1157" d="M205 236q0 50 32.5 76t77.5 26q36 0 61.5 -17.5t24.5 -48.5q-8 -122 26 -176.5t146 -54.5q93 0 149 54.5t56 140.5q0 45 -16.5 79t-60 62.5t-66 39.5t-87.5 37q-5 3 -8.5 4.5t-7.5 2.5q-68 27 -113 51t-88 60t-64 84.5t-21 111.5q0 127 98 203q-98 79 -98 207 q0 124 95 200t253 76q161 0 259.5 -76.5t98.5 -179.5q0 -50 -32.5 -76t-77.5 -26q-36 0 -61.5 17t-24.5 48q8 122 -26 177t-146 55q-92 0 -143.5 -43.5t-51.5 -120.5q0 -24 4.5 -45t17 -39t22.5 -31t32.5 -27t34 -21.5t41.5 -19.5t40.5 -16t43.5 -16q67 -24 115 -48 t98.5 -61.5t77 -90t26.5 -118.5q0 -129 -92 -211q92 -82 92 -198q0 -94 -54.5 -165.5t-140 -106.5t-184.5 -35q-161 0 -259.5 76.5t-98.5 179.5zM389 819q0 -24 4.5 -45t17 -39t22.5 -31t32.5 -27t34 -21.5t41.5 -19.5t40.5 -16t43.5 -16q92 -34 129 -55q24 43 24 96 q0 45 -16.5 79t-60 62.5t-66 39.5t-87.5 37q-5 3 -8.5 4.5t-7.5 2.5q-61 24 -112 50q-31 -42 -31 -101z" />
<glyph unicode="&#xa8;" horiz-adv-x="1024" d="M205 1260q0 49 31 79.5t77 30.5q47 0 78 -30.5t31 -79.5q0 -47 -31.5 -77t-77.5 -30t-77 30t-31 77zM602 1260q0 49 31 79.5t78 30.5q46 0 77 -30.5t31 -79.5q0 -47 -31 -77t-77 -30t-77.5 30t-31.5 77z" />
<glyph unicode="&#xa9;" horiz-adv-x="1884" d="M205 717q0 150 58 286.5t157 235.5t235.5 157t286.5 58t286.5 -58t235.5 -157t157 -235.5t58 -286.5t-58 -286.5t-157 -235.5t-235.5 -157t-286.5 -58t-286.5 58t-235.5 157t-157 235.5t-58 286.5zM279 717q0 -181 88.5 -333.5t241.5 -241.5t333 -89q181 0 333.5 89 t241.5 241.5t89 333.5q0 180 -89 333t-241.5 241.5t-333.5 88.5q-135 0 -258 -52.5t-211.5 -141t-141 -211.5t-52.5 -258zM641 698q0 -91 28.5 -159.5t77 -106.5t104 -56t118.5 -18q132 0 239 74l15 168h-29l-12 -42t-14.5 -39t-20 -38t-27 -31t-37.5 -27t-49.5 -15.5 t-64.5 -6.5q-44 0 -81.5 14.5t-69.5 47t-50 92.5t-18 143t18 143t50 92.5t69.5 47t81.5 14.5q98 0 149 -55t76 -143h29l-15 168q-106 73 -239 73q-63 0 -118.5 -18t-104 -56t-77 -106.5t-28.5 -159.5z" />
<glyph unicode="&#xaa;" horiz-adv-x="788" d="M123 961q0 106 151 137l179 30l2 127q1 69 -36 106.5t-95 37.5q-31 0 -54.5 -9.5t-35 -23.5t-16 -30.5t-0.5 -31.5t15 -24q28 -28 -7 -56q-31 -24 -63 -19q-15 2 -20 14q-9 24 -6 53.5t26 62t54.5 59t79.5 43.5t100 17q74 0 115 -44.5t41 -123.5l-8 -301q-1 -47 13 -66.5 t41.5 -19t66.5 5.5v-18q-101 -74 -146 -74q-74 0 -74 98h-2q-41 -35 -65.5 -52.5t-59 -31.5t-69.5 -14q-54 0 -90.5 42.5t-36.5 105.5zM213 956q6 -37 27.5 -56t48.5 -19q41 0 72.5 13t84.5 50l5 154l-158 -39q-44 -10 -65 -37.5t-15 -65.5z" />
<glyph unicode="&#xab;" horiz-adv-x="1495" d="M205 528l573 -378v81l-356 320l356 315v82l-573 -379v-41zM717 528l573 -378v81l-356 320l356 315v82l-573 -379v-41z" />
<glyph unicode="&#xac;" horiz-adv-x="1222" d="M205 512v72h813v-404h-72v332h-741z" />
<glyph unicode="&#xad;" horiz-adv-x="1146" d="M205 512v72h737v-72h-737z" />
<glyph unicode="&#xae;" horiz-adv-x="1884" d="M205 717q0 150 58 286.5t157 235.5t235.5 157t286.5 58t286.5 -58t235.5 -157t157 -235.5t58 -286.5t-58 -286.5t-157 -235.5t-235.5 -157t-286.5 -58t-286.5 58t-235.5 157t-157 235.5t-58 286.5zM279 717q0 -181 88.5 -333.5t241.5 -241.5t333 -89q181 0 333.5 89 t241.5 241.5t89 333.5q0 180 -89 333t-241.5 241.5t-333.5 88.5q-135 0 -258 -52.5t-211.5 -141t-141 -211.5t-52.5 -258zM629 373v20q71 10 89.5 28t18.5 71v413q0 53 -18.5 71t-89.5 28v20h313q142 0 212.5 -43.5t70.5 -140.5q0 -64 -52.5 -114.5t-150.5 -68.5l98 -116 q40 -49 72.5 -79t49 -39.5t54.5 -29.5v-20h-151q-41 25 -90 84l-154 194h-65v-159q0 -52 18.5 -70.5t87.5 -28.5v-20h-313zM836 688h47q118 0 177.5 39.5t59.5 112.5t-47 109t-153 36h-84v-297z" />
<glyph unicode="&#xaf;" horiz-adv-x="1044" d="M205 1229v71h635v-71h-635z" />
<glyph unicode="&#xb0;" horiz-adv-x="768" d="M205 1378q0 75 51.5 128t126.5 53t127.5 -53t52.5 -128t-52.5 -126.5t-127.5 -51.5t-126.5 51.5t-51.5 126.5zM266 1378q0 -49 33.5 -82.5t83.5 -33.5q51 0 85 33t34 83q0 51 -34 85t-85 34q-50 0 -83.5 -34t-33.5 -85z" />
<glyph unicode="&#xb1;" horiz-adv-x="1146" d="M205 164v72h332v276h-332v72h332v334h71v-334h334v-72h-334v-276h334v-72h-737z" />
<glyph unicode="&#xb2;" horiz-adv-x="819" d="M145 1044h529v117h-375q120 83 199 156.5t113.5 133t45.5 100t11 85.5q0 88 -66 153.5t-180 65.5q-118 0 -181 -45t-63 -108q0 -33 20 -53.5t56 -20.5q32 0 48.5 16t14.5 37q-4 67 17 94t76 27q57 0 83.5 -50t26.5 -130q0 -40 -5.5 -74t-28 -87t-60.5 -105t-110 -121 t-171 -141v-50z" />
<glyph unicode="&#xb3;" horiz-adv-x="819" d="M143 1198q3 24 24 38.5t52 14.5t47.5 -15t16.5 -36q0 -68 21.5 -96.5t72.5 -28.5q143 0 143 191q0 78 -43 122t-117 44h-38v49h18q76 0 119 45.5t43 134.5q0 61 -33.5 97t-79.5 36q-53 0 -74.5 -28t-11.5 -93q3 -20 -14 -36.5t-49 -16.5q-28 0 -48.5 13t-23.5 40 q-8 75 56.5 124.5t176.5 49.5q110 0 177 -50t67 -132q0 -73 -48 -128t-132 -75v-2q92 -12 152.5 -60.5t60.5 -139.5q0 -115 -84.5 -175.5t-222.5 -60.5q-113 0 -175 47.5t-53 126.5z" />
<glyph unicode="&#xb4;" horiz-adv-x="755" d="M205 1145l20 -19l285 211q55 41 36 94q-15 39 -56 52q-53 16 -89 -33l-2 -2z" />
<glyph unicode="&#xb5;" d="M-83 -496q-17 44 8 83q25 37 69 24q42 -12 75.5 -14.5t57 2.5t40 20.5t26 34t14.5 49t6.5 59.5t0.5 71t-3 79t-4 87.5t-2 92.5v737q0 79 -30 109t-134 45v41h328v-737q0 -87 38.5 -136t114.5 -49q79 0 146 31.5t172 122.5v573q0 55 -12 82t-51.5 44.5t-121.5 27.5v41h349 v-758q0 -69 23.5 -100.5t68.5 -34.5t112 2v-51l-348 -102h-20v215h-4q-69 -71 -118.5 -112.5t-117.5 -72t-139 -30.5q-49 0 -99 16q-11 -112 -48 -216t-86 -175.5t-104.5 -114.5t-103.5 -43q-79 0 -103 57z" />
<glyph unicode="&#xb6;" horiz-adv-x="1372" d="M205 1044q0 -80 28.5 -154.5t83.5 -137t148 -100.5t211 -38v-409q0 -61 -12 -90t-50.5 -46.5t-121.5 -27.5v-41h286v1434h-184q-169 0 -279 -110.5t-110 -279.5zM881 0h286v41q-83 10 -121.5 27.5t-50.5 46.5t-12 90v1024q0 61 12 90t50.5 46.5t121.5 27.5v41h-286v-1434 z" />
<glyph unicode="&#xb7;" horiz-adv-x="626" d="M205 539q0 49 31 79.5t77 30.5q47 0 78 -30.5t31 -79.5q0 -47 -31.5 -77t-77.5 -30t-77 30t-31 77z" />
<glyph unicode="&#xb8;" horiz-adv-x="761" d="M205 -451q7 2 36.5 10.5t47.5 14.5t45.5 19.5t44 27t29 35.5t12.5 47t-10.5 43t-26 26.5t-33 19t-32.5 21t-24 32.5t-7 53l6 102h55v-82q0 -20 21.5 -30t52 -16.5t61 -18t52 -42.5t20.5 -81q-1 -61 -54 -112.5t-125.5 -80t-150.5 -39.5z" />
<glyph unicode="&#xb9;" horiz-adv-x="819" d="M195 1044v31q90 9 115.5 28t25.5 71v503q0 50 -25 62t-116 12v31l276 73h12v-681q0 -52 26 -71t116 -28v-31h-430z" />
<glyph unicode="&#xba;" horiz-adv-x="833" d="M125 1130q3 137 86 230.5t209 93.5q129 0 210.5 -93.5t78.5 -230.5q-3 -133 -87 -225t-210 -92q-128 0 -210 92.5t-77 224.5zM233 1130q0 -133 49 -204.5t136 -71.5q86 0 134 71.5t48 204.5q0 137 -48.5 212t-133.5 75q-87 0 -136 -75t-49 -212z" />
<glyph unicode="&#xbb;" horiz-adv-x="1495" d="M205 150v81l356 320l-356 315v82l573 -379v-41zM717 150v81l356 320l-356 315v82l573 -379v-41z" />
<glyph unicode="&#xbc;" horiz-adv-x="1843" d="M102 635v31q91 9 116.5 27.5t25.5 70.5v504q0 49 -25.5 61t-116.5 12v31l277 74h12v-682q0 -52 25.5 -70.5t115.5 -27.5v-31h-430zM659 -20h82l492 1474h-80zM1126 172h359v-172h147v172h109v98h-109v541h-96l-410 -520v-119zM1174 270l311 394v-394h-311z" />
<glyph unicode="&#xbd;" horiz-adv-x="1843" d="M102 635v31q91 9 116.5 27.5t25.5 70.5v504q0 49 -25.5 61t-116.5 12v31l277 74h12v-682q0 -52 25.5 -70.5t115.5 -27.5v-31h-430zM629 -20h82l491 1474h-80zM1212 0h529v117h-375q120 83 199 156.5t113.5 133t45.5 100t11 85.5q0 88 -66 153.5t-180 65.5 q-117 0 -180.5 -45t-63.5 -109q0 -33 20 -53t56 -20q32 0 48.5 16t14.5 37q-4 67 17 94t76 27q57 0 83.5 -50t26.5 -130q0 -40 -5.5 -74t-28 -87t-60.5 -105t-110 -121.5t-171 -141.5v-49z" />
<glyph unicode="&#xbe;" horiz-adv-x="1843" d="M104 788q3 25 24 39.5t52 14.5t47.5 -15t16.5 -36q0 -68 21.5 -96.5t72.5 -28.5q143 0 143 190q0 78 -42.5 122t-116.5 44h-39v49h18q76 0 119 45.5t43 134.5q0 61 -33.5 97t-79.5 36q-53 0 -74.5 -27.5t-11.5 -92.5q3 -20 -14 -37t-49 -17q-28 0 -48.5 13.5t-23.5 40.5 q-8 75 56.5 124.5t176.5 49.5q110 0 177 -50.5t67 -132.5q0 -73 -48 -127.5t-132 -74.5v-2q92 -12 152.5 -61t60.5 -140q0 -115 -84.5 -175.5t-222.5 -60.5q-113 0 -175 47.5t-53 126.5zM670 -20h82l491 1474h-80zM1126 172h359v-172h147v172h109v98h-109v541h-96l-410 -520 v-119zM1174 270l311 394v-394h-311z" />
<glyph unicode="&#xbf;" horiz-adv-x="919" d="M205 20q0 111 40 180.5t148 127.5q36 20 55.5 33t39.5 34t28 44t12 59.5t-0.5 84t-15.5 113.5h51q226 -369 -69 -495q-107 -46 -138 -66q-89 -59 -90 -155q0 -43 27 -80t74.5 -65.5t93.5 -49t103 -43.5t83 -37q65 -34 67 -92q1 -49 -42 -74q-61 -35 -151 21q-7 5 -15 10 q-34 25 -70 56t-79 77.5t-75.5 94.5t-54.5 107t-22 115zM410 1004q0 51 35.5 86.5t86.5 35.5t87 -35.5t36 -86.5t-36 -87t-87 -36t-86.5 36t-35.5 87z" />
<glyph unicode="&#xc0;" horiz-adv-x="1433" d="M20 0h451v41q-80 10 -116.5 37.5t-36.5 71.5t20 106l78 236h512l96 -267q16 -53 14 -90.5t-39.5 -60.5t-117.5 -33v-41h532v41q-90 23 -121.5 46t-52.5 77l-471 1280h-102l-441 -1280q-22 -63 -59.5 -85.5t-145.5 -37.5v-41zM380 1841q14 38 55 52q53 17 89 -33l2 -2 l195 -304l-21 -18l-284 211q-55 41 -36 94zM440 563l224 666h4l233 -666h-461z" />
<glyph unicode="&#xc1;" horiz-adv-x="1433" d="M20 0h451v41q-80 10 -116.5 37.5t-36.5 71.5t20 106l78 236h512l96 -267q16 -53 14 -90.5t-39.5 -60.5t-117.5 -33v-41h532v41q-90 23 -121.5 46t-52.5 77l-471 1280h-102l-441 -1280q-22 -63 -59.5 -85.5t-145.5 -37.5v-41zM440 563l224 666h4l233 -666h-461zM698 1554 l21 -18l285 211q55 41 36 94q-15 39 -56 52q-53 16 -89 -33l-2 -2z" />
<glyph unicode="&#xc2;" horiz-adv-x="1433" d="M20 0h451v41q-80 10 -116.5 37.5t-36.5 71.5t20 106l78 236h512l96 -267q16 -53 14 -90.5t-39.5 -60.5t-117.5 -33v-41h532v41q-90 23 -121.5 46t-52.5 77l-471 1280h-102l-441 -1280q-22 -63 -59.5 -85.5t-145.5 -37.5v-41zM440 563l224 666h4l233 -666h-461zM442 1536 l256 369h41l256 -369h-41l-235 195l-236 -195h-41z" />
<glyph unicode="&#xc3;" horiz-adv-x="1433" d="M20 0h451v41q-80 10 -116.5 37.5t-36.5 71.5t20 106l78 236h512l96 -267q16 -53 14 -90.5t-39.5 -60.5t-117.5 -33v-41h532v41q-90 23 -121.5 46t-52.5 77l-471 1280h-102l-441 -1280q-22 -63 -59.5 -85.5t-145.5 -37.5v-41zM358 1597q18 37 29.5 58.5t34 57.5t41.5 57 t46 37t54 16q41 0 164.5 -41t163.5 -41q57 0 87.5 15t65.5 67l31 -21q-24 -48 -37 -71t-39.5 -61t-55.5 -55.5t-62 -17.5q-48 0 -169 41t-169 41q-53 0 -82 -20t-72 -82zM440 563l224 666h4l233 -666h-461z" />
<glyph unicode="&#xc4;" horiz-adv-x="1433" d="M20 0h451v41q-80 10 -116.5 37.5t-36.5 71.5t20 106l78 236h512l96 -267q16 -53 14 -90.5t-39.5 -60.5t-117.5 -33v-41h532v41q-90 23 -121.5 46t-52.5 77l-471 1280h-102l-441 -1280q-22 -63 -59.5 -85.5t-145.5 -37.5v-41zM408 1669q0 49 31 80t77 31t77.5 -31 t31.5 -80q0 -47 -31.5 -76.5t-77.5 -29.5t-77 29.5t-31 76.5zM440 563l224 666h4l233 -666h-461zM805 1669q0 49 31 80t77 31t77.5 -31t31.5 -80q0 -47 -31.5 -76.5t-77.5 -29.5t-77 29.5t-31 76.5z" />
<glyph unicode="&#xc5;" horiz-adv-x="1433" d="M20 0h451v41q-80 10 -116.5 37.5t-36.5 71.5t20 106l78 236h512l96 -267q16 -53 14 -90.5t-39.5 -60.5t-117.5 -33v-41h532v41q-90 23 -121.5 46t-52.5 77l-467 1268q55 19 89 65t34 105q0 75 -52.5 127.5t-127.5 52.5t-126.5 -52.5t-51.5 -127.5q0 -61 34.5 -108 t90.5 -62l-437 -1268q-22 -63 -59.5 -85.5t-145.5 -37.5v-41zM440 563l224 666h4l233 -666h-461zM598 1602q0 51 33.5 84.5t83.5 33.5q51 0 85 -33.5t34 -84.5q0 -50 -34 -83.5t-85 -33.5q-49 0 -83 33.5t-34 83.5z" />
<glyph unicode="&#xc6;" horiz-adv-x="1802" d="M20 0h451v41q-59 7 -90.5 24t-37.5 45.5t5 62.5t39 83l229 430h306v-481q0 -61 -12.5 -90t-51 -46.5t-121.5 -27.5v-41h963l20 328h-51q-15 -125 -83 -190.5t-183 -65.5h-318v614h123q105 0 157 -43.5t65 -161.5h51v482h-51q-13 -118 -65 -161.5t-157 -43.5h-123v604h297 q225 0 256 -256h52l-11 328h-727l-698 -1270q-37 -63 -80 -85.5t-154 -37.5v-41zM653 758l265 485h4v-485h-269z" />
<glyph unicode="&#xc7;" horiz-adv-x="1310" d="M102 717q0 -151 47 -283.5t129 -228t197 -154.5t248 -69l-4 -84q-2 -31 7 -53t24 -32.5t32.5 -21t33 -19t26 -26.5t10.5 -43t-12.5 -47t-29 -35.5t-44 -27t-45.5 -19.5t-47.5 -14.5t-36.5 -10.5l20 -51q78 11 150.5 39.5t125.5 80t54 112.5q1 50 -20.5 81t-52 42.5 t-61 18t-52 16.5t-21.5 30v62q137 0 254.5 37t194.5 85l20 287h-51q-16 -65 -49 -122.5t-83.5 -107.5t-125 -79t-162.5 -29q-141 0 -253 85t-175 237t-63 344q0 291 138.5 478t352.5 187q88 0 162.5 -29t125 -79t83.5 -107.5t49 -122.5h51l-20 287q-78 48 -195.5 85.5 t-255.5 37.5q-191 0 -345 -94t-242.5 -263t-88.5 -380z" />
<glyph unicode="&#xc8;" d="M82 0v41q83 10 121.5 27.5t50.5 46.5t12 90v1024q0 61 -12 90t-50.5 46.5t-121.5 27.5v41h1024l10 -328h-51q-31 256 -256 256h-379v-604h205q105 0 156.5 43.5t64.5 161.5h51v-482h-51q-13 118 -64.5 161.5t-156.5 43.5h-205v-614h399q115 0 183.5 65.5t83.5 190.5h51 l-21 -328h-1044zM347 1841q15 39 56 52q53 16 89 -33l2 -2l194 -304l-20 -18l-285 211q-55 41 -36 94z" />
<glyph unicode="&#xc9;" d="M82 0v41q83 10 121.5 27.5t50.5 46.5t12 90v1024q0 61 -12 90t-50.5 46.5t-121.5 27.5v41h1024l10 -328h-51q-31 256 -256 256h-379v-604h205q105 0 156.5 43.5t64.5 161.5h51v-482h-51q-13 118 -64.5 161.5t-156.5 43.5h-205v-614h399q115 0 183.5 65.5t83.5 190.5h51 l-21 -328h-1044zM612 1554l21 -18l285 211q55 41 36 94q-15 39 -56 52q-53 16 -89 -33l-2 -2z" />
<glyph unicode="&#xca;" d="M82 0v41q83 10 121.5 27.5t50.5 46.5t12 90v1024q0 61 -12 90t-50.5 46.5t-121.5 27.5v41h1024l10 -328h-51q-31 256 -256 256h-379v-604h205q105 0 156.5 43.5t64.5 161.5h51v-482h-51q-13 118 -64.5 161.5t-156.5 43.5h-205v-614h399q115 0 183.5 65.5t83.5 190.5h51 l-21 -328h-1044zM387 1536l256 369h41l256 -369h-41l-235 195l-236 -195h-41z" />
<glyph unicode="&#xcb;" d="M82 0v41q83 10 121.5 27.5t50.5 46.5t12 90v1024q0 61 -12 90t-50.5 46.5t-121.5 27.5v41h1024l10 -328h-51q-31 256 -256 256h-379v-604h205q105 0 156.5 43.5t64.5 161.5h51v-482h-51q-13 118 -64.5 161.5t-156.5 43.5h-205v-614h399q115 0 183.5 65.5t83.5 190.5h51 l-21 -328h-1044zM373 1669q0 49 31 80t77 31t77.5 -31t31.5 -80q0 -47 -31.5 -76.5t-77.5 -29.5t-77 29.5t-31 76.5zM770 1669q0 49 31.5 80t77.5 31t77 -31t31 -80q0 -47 -31 -76.5t-77 -29.5t-77.5 29.5t-31.5 76.5z" />
<glyph unicode="&#xcc;" horiz-adv-x="696" d="M23 1841q15 39 56 52q53 16 89 -33l2 -2l195 -304l-21 -18l-285 211q-55 41 -36 94zM82 0v41q83 10 121.5 27.5t50.5 46.5t12 90v1024q0 61 -12 90t-50.5 46.5t-121.5 27.5v41h532v-41q-83 -10 -121.5 -27.5t-50.5 -46.5t-12 -90v-1024q0 -61 12 -90t50.5 -46.5 t121.5 -27.5v-41h-532z" />
<glyph unicode="&#xcd;" horiz-adv-x="696" d="M82 0v41q83 10 121.5 27.5t50.5 46.5t12 90v1024q0 61 -12 90t-50.5 46.5t-121.5 27.5v41h532v-41q-83 -10 -121.5 -27.5t-50.5 -46.5t-12 -90v-1024q0 -61 12 -90t50.5 -46.5t121.5 -27.5v-41h-532zM334 1554l20 -18l285 211q55 41 36 94q-15 39 -56 52q-53 16 -89 -33 l-2 -2z" />
<glyph unicode="&#xce;" horiz-adv-x="696" d="M72 1536l256 369h41l256 -369h-41l-236 195l-235 -195h-41zM82 0v41q83 10 121.5 27.5t50.5 46.5t12 90v1024q0 61 -12 90t-50.5 46.5t-121.5 27.5v41h532v-41q-83 -10 -121.5 -27.5t-50.5 -46.5t-12 -90v-1024q0 -61 12 -90t50.5 -46.5t121.5 -27.5v-41h-532z" />
<glyph unicode="&#xcf;" horiz-adv-x="696" d="M41 1669q0 49 31.5 80t77.5 31t77 -31t31 -80q0 -47 -31 -76.5t-77 -29.5t-77.5 29.5t-31.5 76.5zM86 0v41q83 10 121.5 27.5t50.5 46.5t12 90v1024q0 61 -12 90t-50.5 46.5t-121.5 27.5v41h532v-41q-83 -10 -121.5 -27.5t-50.5 -46.5t-12 -90v-1024q0 -61 12 -90 t50.5 -46.5t121.5 -27.5v-41h-532zM438 1669q0 49 31.5 80t77.5 31t77 -31t31 -80q0 -47 -31 -76.5t-77 -29.5t-77.5 29.5t-31.5 76.5z" />
<glyph unicode="&#xd0;" horiz-adv-x="1515" d="M82 0v41q83 10 121.5 27.5t50.5 46.5t12 90v481h-184v72h184v471q0 61 -12 90t-50.5 46.5t-121.5 27.5v41h614q332 0 524.5 -190.5t192.5 -526.5q0 -157 -50.5 -290t-142.5 -227t-226.5 -147t-297.5 -53h-614zM430 72h266q109 0 198.5 36t150.5 97.5t103.5 144.5 t61.5 175.5t19 191.5q0 145 -33 261.5t-99 203t-173 133.5t-248 47h-246v-604h246v-72h-246v-614z" />
<glyph unicode="&#xd1;" horiz-adv-x="1495" d="M82 0v41q83 10 121.5 27.5t50.5 46.5t12 90v1024q0 61 -12 90t-50.5 46.5t-121.5 27.5v41h389l696 -1127v922q0 61 -12 90t-50.5 46.5t-121.5 27.5v41h451v-41q-83 -10 -121.5 -27.5t-51 -46.5t-12.5 -90v-1229h-102l-799 1270v-1065q0 -61 12 -90t50.5 -46.5 t121.5 -27.5v-41h-450zM465 1597q18 37 29.5 58.5t34 57.5t41.5 57t46 37t54 16q41 0 164 -41t163 -41q57 0 88 15t66 67l31 -21l-28.5 -55.5t-31 -52.5t-39 -51t-43.5 -31.5t-53 -14.5q-48 0 -169 41t-169 41q-53 0 -81 -20t-72 -82z" />
<glyph unicode="&#xd2;" horiz-adv-x="1597" d="M102 717q0 158 55 296t149 234.5t222 151.5t271 55t271 -55t221.5 -151.5t148.5 -234.5t55 -296t-55 -296t-148.5 -234.5t-221.5 -151.5t-271 -55t-271 55t-222 151.5t-149 234.5t-55 296zM287 717q0 -191 68.5 -344t185.5 -237.5t258 -84.5t258 84.5t185.5 237.5 t68.5 344q0 288 -148 476.5t-364 188.5t-364 -188.5t-148 -476.5zM496 1841q15 39 56 52q53 16 89 -33l2 -2l195 -304l-21 -18l-285 211q-55 41 -36 94z" />
<glyph unicode="&#xd3;" horiz-adv-x="1597" d="M102 717q0 158 55 296t149 234.5t222 151.5t271 55t271 -55t221.5 -151.5t148.5 -234.5t55 -296t-55 -296t-148.5 -234.5t-221.5 -151.5t-271 -55t-271 55t-222 151.5t-149 234.5t-55 296zM287 717q0 -191 68.5 -344t185.5 -237.5t258 -84.5t258 84.5t185.5 237.5 t68.5 344q0 288 -148 476.5t-364 188.5t-364 -188.5t-148 -476.5zM719 1554l20 -18l285 211q55 41 36 94q-15 39 -56 52q-53 16 -89 -33l-2 -2z" />
<glyph unicode="&#xd4;" horiz-adv-x="1597" d="M102 717q0 158 55 296t149 234.5t222 151.5t271 55t271 -55t221.5 -151.5t148.5 -234.5t55 -296t-55 -296t-148.5 -234.5t-221.5 -151.5t-271 -55t-271 55t-222 151.5t-149 234.5t-55 296zM287 717q0 -191 68.5 -344t185.5 -237.5t258 -84.5t258 84.5t185.5 237.5 t68.5 344q0 288 -148 476.5t-364 188.5t-364 -188.5t-148 -476.5zM522 1536l256 369h41l256 -369h-41l-235 195l-236 -195h-41z" />
<glyph unicode="&#xd5;" horiz-adv-x="1597" d="M102 717q0 158 55 296t149 234.5t222 151.5t271 55t271 -55t221.5 -151.5t148.5 -234.5t55 -296t-55 -296t-148.5 -234.5t-221.5 -151.5t-271 -55t-271 55t-222 151.5t-149 234.5t-55 296zM287 717q0 -191 68.5 -344t185.5 -237.5t258 -84.5t258 84.5t185.5 237.5 t68.5 344q0 288 -148 476.5t-364 188.5t-364 -188.5t-148 -476.5zM449 1597q18 38 29 59t34 57.5t41.5 56.5t45.5 36.5t54 16.5q41 0 164.5 -41t163.5 -41q57 0 88 15t66 67l30 -21q-24 -48 -37 -71t-39.5 -61t-55.5 -55.5t-62 -17.5q-48 0 -169 41t-169 41q-53 0 -82 -20 t-72 -82z" />
<glyph unicode="&#xd6;" horiz-adv-x="1597" d="M102 717q0 158 55 296t149 234.5t222 151.5t271 55t271 -55t221.5 -151.5t148.5 -234.5t55 -296t-55 -296t-148.5 -234.5t-221.5 -151.5t-271 -55t-271 55t-222 151.5t-149 234.5t-55 296zM287 717q0 -191 68.5 -344t185.5 -237.5t258 -84.5t258 84.5t185.5 237.5 t68.5 344q0 288 -148 476.5t-364 188.5t-364 -188.5t-148 -476.5zM508 1669q0 49 31 80t77 31t77.5 -31t31.5 -80q0 -47 -31.5 -76.5t-77.5 -29.5t-77 29.5t-31 76.5zM905 1669q0 49 31.5 80t77.5 31t77 -31t31 -80q0 -47 -31 -76.5t-77 -29.5t-77.5 29.5t-31.5 76.5z" />
<glyph unicode="&#xd7;" horiz-adv-x="1126" d="M205 242l307 307l-307 307l49 51l307 -307l309 307l52 -49l-310 -309l310 -309l-52 -50l-309 308l-307 -308z" />
<glyph unicode="&#xd8;" horiz-adv-x="1597" d="M102 717q0 158 55 296t149 234.5t222 151.5t271 55q136 0 259 -50t218 -142l121 127l49 -58l-119 -125q168 -205 168 -489q0 -158 -55 -296t-148.5 -234.5t-221.5 -151.5t-271 -55q-271 0 -469 182l-125 -131l-53 59l124 129q-174 206 -174 498zM287 717q0 -215 92 -391 l805 839q-71 104 -170.5 160.5t-214.5 56.5q-216 0 -364 -188.5t-148 -476.5zM420 256q71 -98 169.5 -151.5t209.5 -53.5q141 0 258 84.5t185.5 237.5t68.5 344q0 215 -88 381z" />
<glyph unicode="&#xd9;" horiz-adv-x="1556" d="M61 1393v41h533v-41q-83 -10 -121.5 -27.5t-50.5 -46.5t-12 -90v-656q0 -512 399 -512q206 0 313 132t107 380v656q0 61 -12.5 90t-51 46.5t-121.5 27.5v41h451v-41q-83 -10 -121.5 -27.5t-50.5 -46.5t-12 -90v-676q0 -274 -145 -423.5t-398 -149.5q-263 0 -392.5 150 t-129.5 423v676q0 61 -12.5 90t-51 46.5t-121.5 27.5zM511 1841q14 38 55 52q53 17 89 -33l2 -2l195 -304l-21 -18l-284 211q-55 41 -36 94z" />
<glyph unicode="&#xda;" horiz-adv-x="1556" d="M61 1393v41h533v-41q-83 -10 -121.5 -27.5t-50.5 -46.5t-12 -90v-656q0 -512 399 -512q206 0 313 132t107 380v656q0 61 -12.5 90t-51 46.5t-121.5 27.5v41h451v-41q-83 -10 -121.5 -27.5t-50.5 -46.5t-12 -90v-676q0 -274 -145 -423.5t-398 -149.5q-263 0 -392.5 150 t-129.5 423v676q0 61 -12.5 90t-51 46.5t-121.5 27.5zM791 1554l20 -18l285 211q55 41 36 94q-15 39 -56 52q-53 16 -89 -33l-2 -2z" />
<glyph unicode="&#xdb;" horiz-adv-x="1556" d="M61 1393v41h533v-41q-83 -10 -121.5 -27.5t-50.5 -46.5t-12 -90v-656q0 -512 399 -512q206 0 313 132t107 380v656q0 61 -12.5 90t-51 46.5t-121.5 27.5v41h451v-41q-83 -10 -121.5 -27.5t-50.5 -46.5t-12 -90v-676q0 -274 -145 -423.5t-398 -149.5q-263 0 -392.5 150 t-129.5 423v676q0 61 -12.5 90t-51 46.5t-121.5 27.5zM545 1536l256 369h41l256 -369h-41l-236 195l-235 -195h-41z" />
<glyph unicode="&#xdc;" horiz-adv-x="1556" d="M61 1393v41h533v-41q-83 -10 -121.5 -27.5t-50.5 -46.5t-12 -90v-656q0 -512 399 -512q206 0 313 132t107 380v656q0 61 -12.5 90t-51 46.5t-121.5 27.5v41h451v-41q-83 -10 -121.5 -27.5t-50.5 -46.5t-12 -90v-676q0 -274 -145 -423.5t-398 -149.5q-263 0 -392.5 150 t-129.5 423v676q0 61 -12.5 90t-51 46.5t-121.5 27.5zM518 1669q0 49 31.5 80t77.5 31t77 -31t31 -80q0 -47 -31 -76.5t-77 -29.5t-77.5 29.5t-31.5 76.5zM915 1669q0 49 31.5 80t77.5 31t77.5 -31t31.5 -80q0 -47 -31.5 -76.5t-77.5 -29.5t-77.5 29.5t-31.5 76.5z" />
<glyph unicode="&#xdd;" horiz-adv-x="1310" d="M20 1393q63 -24 95.5 -49.5t58.5 -73.5l430 -793v-272q0 -61 -12 -90t-50.5 -46.5t-121.5 -27.5v-41h532v41q-83 10 -121.5 27.5t-50.5 46.5t-12 90v360l338 705q32 58 70 83t114 40v41h-409v-41q70 -10 104 -37.5t32 -67t-24 -90.5l-274 -563h-4l-295 573 q-14 29 -21.5 47.5t-12.5 40t0 35t18.5 27t40.5 22t67 13.5v41h-492v-41zM684 1554l21 -18l284 211q55 41 36 94q-14 38 -55 52q-53 17 -89 -33l-2 -2z" />
<glyph unicode="&#xde;" horiz-adv-x="1249" d="M82 0v41q83 10 121.5 27.5t50.5 46.5t12 90v1024q0 61 -12 90t-50.5 46.5t-121.5 27.5v41h532v-41q-83 -10 -121.5 -27.5t-50.5 -46.5t-12 -90v-82h266q224 0 347.5 -107.5t123.5 -281.5q0 -64 -18 -123.5t-60.5 -116t-106.5 -98t-163.5 -67t-224.5 -25.5h-164v-123 q0 -61 12 -90t50.5 -46.5t121.5 -27.5v-41h-532zM430 399h164q89 0 159 18t114.5 49t73 74.5t40.5 92t12 104.5q0 66 -16 122.5t-52.5 107t-105.5 79.5t-164 29h-225v-676z" />
<glyph unicode="&#xdf;" horiz-adv-x="1269" d="M61 0v41q105 15 134.5 46t29.5 118v747h-143v62l143 10q0 93 17.5 172.5t46 135t67 99.5t78.5 70.5t82 44.5t76 24.5t63 6.5q161 0 237.5 -74.5t76.5 -191.5q0 -58 -16 -107t-40.5 -81.5t-53 -65t-53 -58t-40.5 -59t-16 -70.5q0 -67 84 -127l200 -145q75 -55 114 -124.5 t40 -136.5t-25.5 -132.5t-74.5 -115t-115 -79.5t-139 -30q-117 0 -185.5 51t-68.5 145q0 73 57 104q45 23 82 3q40 -22 24 -78q-26 -82 -4 -128t101 -46q87 0 142.5 49.5t66.5 128.5q6 46 -0.5 81.5t-28.5 66.5t-48 55t-73 59l-170 129q-28 21 -48 44t-32 43t-15.5 45t-4 44 t9 45.5t16.5 44t24.5 47t28 46t31.5 47.5q39 60 60.5 147.5t18 171t-50 142.5t-132.5 59q-60 0 -103.5 -21.5t-71 -60t-43.5 -102.5t-22 -139t-6 -179v-1024h-328z" />
<glyph unicode="&#xe0;" horiz-adv-x="1024" d="M82 225q0 179 266 226l293 51l4 215q3 118 -57.5 182t-157.5 64q-65 0 -109 -25t-58.5 -58.5t-11 -67.5t24.5 -54q44 -41 -1 -86q-38 -36 -92 -41q-47 -5 -60 24q-10 28 -10.5 62t16.5 71.5t42 74t65.5 69t86.5 57.5t106 40t124 15q123 0 191 -73t65 -203l-10 -502 q-2 -78 22 -111.5t70 -32.5t113 11v-31q-105 -70 -154.5 -96t-91.5 -26q-123 0 -123 163h-4q-97 -86 -167.5 -124.5t-156.5 -38.5q-92 0 -158.5 71t-66.5 174zM200 1431q14 38 55 52q53 17 89 -33l2 -2l195 -303l-21 -19l-284 211q-55 41 -36 94zM244 219q8 -63 44 -95 t81 -32q69 0 124.5 21.5t141.5 81.5l4 256l-260 -62q-76 -19 -110 -62.5t-25 -107.5z" />
<glyph unicode="&#xe1;" horiz-adv-x="1024" d="M82 225q0 179 266 226l293 51l4 215q3 118 -57.5 182t-157.5 64q-65 0 -109 -25t-58.5 -58.5t-11 -67.5t24.5 -54q44 -41 -1 -86q-38 -36 -92 -41q-47 -5 -60 24q-10 28 -10.5 62t16.5 71.5t42 74t65.5 69t86.5 57.5t106 40t124 15q123 0 191 -73t65 -203l-10 -502 q-2 -78 22 -111.5t70 -32.5t113 11v-31q-105 -70 -154.5 -96t-91.5 -26q-123 0 -123 163h-4q-97 -86 -167.5 -124.5t-156.5 -38.5q-92 0 -158.5 71t-66.5 174zM244 219q8 -63 44 -95t81 -32q69 0 124.5 21.5t141.5 81.5l4 256l-260 -62q-76 -19 -110 -62.5t-25 -107.5z M447 1145l20 -19l285 211q55 41 36 94q-15 39 -56 52q-53 16 -89 -33l-2 -2z" />
<glyph unicode="&#xe2;" horiz-adv-x="1024" d="M82 225q0 179 266 226l293 51l4 215q3 118 -57.5 182t-157.5 64q-65 0 -109 -25t-58.5 -58.5t-11 -67.5t24.5 -54q44 -41 -1 -86q-38 -36 -92 -41q-47 -5 -60 24q-10 28 -10.5 62t16.5 71.5t42 74t65.5 69t86.5 57.5t106 40t124 15q123 0 191 -73t65 -203l-10 -502 q-2 -78 22 -111.5t70 -32.5t113 11v-31q-105 -70 -154.5 -96t-91.5 -26q-123 0 -123 163h-4q-97 -86 -167.5 -124.5t-156.5 -38.5q-92 0 -158.5 71t-66.5 174zM217 1126l256 369h41l256 -369h-41l-236 195l-235 -195h-41zM244 219q8 -63 44 -95t81 -32q69 0 124.5 21.5 t141.5 81.5l4 256l-260 -62q-76 -19 -110 -62.5t-25 -107.5z" />
<glyph unicode="&#xe3;" horiz-adv-x="1024" d="M82 225q0 179 266 226l293 51l4 215q3 118 -57.5 182t-157.5 64q-65 0 -109 -25t-58.5 -58.5t-11 -67.5t24.5 -54q44 -41 -1 -86q-38 -36 -92 -41q-47 -5 -60 24q-10 28 -10.5 62t16.5 71.5t42 74t65.5 69t86.5 57.5t106 40t124 15q123 0 191 -73t65 -203l-10 -502 q-2 -78 22 -111.5t70 -32.5t113 11v-31q-105 -70 -154.5 -96t-91.5 -26q-123 0 -123 163h-4q-97 -86 -167.5 -124.5t-156.5 -38.5q-92 0 -158.5 71t-66.5 174zM135 1188q18 36 29.5 58.5t34 58t41.5 56t46 36.5t54 16q41 0 164 -41t163 -41q57 0 88 15t66 67l31 -20 l-28.5 -55.5t-31 -52.5t-39 -51t-43.5 -31.5t-53 -14.5q-48 0 -169 41t-169 41q-53 0 -81 -20.5t-72 -82.5zM244 219q8 -63 44 -95t81 -32q69 0 124.5 21.5t141.5 81.5l4 256l-260 -62q-76 -19 -110 -62.5t-25 -107.5z" />
<glyph unicode="&#xe4;" horiz-adv-x="1024" d="M82 225q0 179 266 226l293 51l4 215q3 118 -57.5 182t-157.5 64q-65 0 -109 -25t-58.5 -58.5t-11 -67.5t24.5 -54q44 -41 -1 -86q-38 -36 -92 -41q-47 -5 -60 24q-10 28 -10.5 62t16.5 71.5t42 74t65.5 69t86.5 57.5t106 40t124 15q123 0 191 -73t65 -203l-10 -502 q-2 -78 22 -111.5t70 -32.5t113 11v-31q-105 -70 -154.5 -96t-91.5 -26q-123 0 -123 163h-4q-97 -86 -167.5 -124.5t-156.5 -38.5q-92 0 -158.5 71t-66.5 174zM193 1260q0 49 31 79.5t77 30.5q47 0 78 -30.5t31 -79.5q0 -47 -31.5 -77t-77.5 -30t-77 30t-31 77zM244 219 q8 -63 44 -95t81 -32q69 0 124.5 21.5t141.5 81.5l4 256l-260 -62q-76 -19 -110 -62.5t-25 -107.5zM590 1260q0 49 31 79.5t78 30.5q46 0 77 -30.5t31 -79.5q0 -47 -31 -77t-77 -30t-77.5 30t-31.5 77z" />
<glyph unicode="&#xe5;" horiz-adv-x="1024" d="M82 225q0 179 266 226l293 51l4 215q3 118 -57.5 182t-157.5 64q-65 0 -109 -25t-58.5 -58.5t-11 -67.5t24.5 -54q44 -41 -1 -86q-38 -36 -92 -41q-47 -5 -60 24q-10 28 -10.5 62t16.5 71.5t42 74t65.5 69t86.5 57.5t106 40t124 15q123 0 191 -73t65 -203l-10 -502 q-2 -78 22 -111.5t70 -32.5t113 11v-31q-105 -70 -154.5 -96t-91.5 -26q-123 0 -123 163h-4q-97 -86 -167.5 -124.5t-156.5 -38.5q-92 0 -158.5 71t-66.5 174zM244 219q8 -63 44 -95t81 -32q69 0 124.5 21.5t141.5 81.5l4 256l-260 -62q-76 -19 -110 -62.5t-25 -107.5z M322 1305q0 75 51.5 127.5t126.5 52.5t127.5 -52.5t52.5 -127.5t-52.5 -127t-127.5 -52t-126.5 52t-51.5 127zM383 1305q0 -49 33.5 -83t83.5 -34q51 0 85 33.5t34 83.5q0 51 -34 84.5t-85 33.5q-50 0 -83.5 -33.5t-33.5 -84.5z" />
<glyph unicode="&#xe6;" horiz-adv-x="1517" d="M82 225q0 179 266 226l293 51l4 215q3 118 -57.5 182t-157.5 64q-65 0 -109 -25t-58.5 -58.5t-11 -67.5t24.5 -54q44 -41 -1 -86q-38 -36 -92 -41q-47 -5 -60 24q-10 28 -10.5 62t16.5 71.5t42 74t65.5 69t86.5 57.5t106 40t124 15q87 0 147 -37.5t88 -107.5 q65 70 150.5 107.5t175.5 37.5q46 0 87.5 -9t82.5 -30t71 -54.5t52.5 -82.5t26 -114.5t-8.5 -149.5h-616q-8 -224 81.5 -357.5t250.5 -133.5q166 0 295 82v-62q-24 -22 -40.5 -36t-52.5 -39t-69 -39.5t-80.5 -26.5t-97.5 -12q-253 0 -373 198q-131 -111 -228 -154.5 t-188 -43.5q-92 0 -158.5 71t-66.5 174zM244 219q8 -63 44 -95t81 -32q156 0 331 127q-47 103 -53 230l-268 -60q-75 -17 -109.5 -61.5t-25.5 -108.5zM813 676h434q34 155 -6.5 231t-136.5 76q-117 0 -193.5 -83.5t-97.5 -223.5z" />
<glyph unicode="&#xe7;" horiz-adv-x="1024" d="M82 502q0 126 42.5 230.5t113 171.5t160 103.5t186.5 36.5q161 0 259.5 -76.5t98.5 -179.5q0 -50 -33 -76t-78 -26q-36 0 -61.5 17.5t-24.5 48.5q8 122 -26 176.5t-146 54.5q-152 0 -241.5 -113.5t-89.5 -294.5q0 -222 101.5 -342t270.5 -120q183 0 328 82v-62 q-33 -28 -59.5 -46.5t-75 -46t-108.5 -43.5t-126 -17v-62q0 -20 21.5 -30t52 -16.5t61 -18t52 -42.5t20.5 -81q-1 -61 -53.5 -112.5t-125 -80t-150.5 -39.5l-21 51q7 2 36.5 10.5t47.5 14.5t45.5 19.5t44 27t29 35.5t12.5 47t-10.5 43t-26 26.5t-33 19t-32.5 21t-24 32.5 t-7 53l4 84q-134 11 -234 86t-150 188t-50 246z" />
<glyph unicode="&#xe8;" horiz-adv-x="1024" d="M82 502q0 126 42.5 230.5t113 171.5t160 103.5t186.5 36.5q51 0 97.5 -9t92.5 -30t79 -54.5t57.5 -82.5t28.5 -114.5t-9 -149.5h-688q-11 -215 91.5 -353t280.5 -138q183 0 328 82v-62q-34 -28 -60 -47t-76.5 -47.5t-112.5 -43.5t-130 -15q-147 0 -258.5 73.5t-167 191 t-55.5 257.5zM250 676h506q36 152 -19 229.5t-164 77.5q-130 0 -214.5 -83t-108.5 -224zM292 1431q14 38 55 52q53 17 89 -33l2 -2l195 -303l-21 -19l-284 211q-55 41 -36 94z" />
<glyph unicode="&#xe9;" horiz-adv-x="1024" d="M82 502q0 126 42.5 230.5t113 171.5t160 103.5t186.5 36.5q51 0 97.5 -9t92.5 -30t79 -54.5t57.5 -82.5t28.5 -114.5t-9 -149.5h-688q-11 -215 91.5 -353t280.5 -138q183 0 328 82v-62q-34 -28 -60 -47t-76.5 -47.5t-112.5 -43.5t-130 -15q-147 0 -258.5 73.5t-167 191 t-55.5 257.5zM250 676h506q36 152 -19 229.5t-164 77.5q-130 0 -214.5 -83t-108.5 -224zM518 1145l20 -19l285 211q55 41 36 94q-15 39 -56 52q-53 16 -89 -33l-2 -2z" />
<glyph unicode="&#xea;" horiz-adv-x="1024" d="M82 502q0 126 42.5 230.5t113 171.5t160 103.5t186.5 36.5q51 0 97.5 -9t92.5 -30t79 -54.5t57.5 -82.5t28.5 -114.5t-9 -149.5h-688q-11 -215 91.5 -353t280.5 -138q183 0 328 82v-62q-34 -28 -60 -47t-76.5 -47.5t-112.5 -43.5t-130 -15q-147 0 -258.5 73.5t-167 191 t-55.5 257.5zM250 676h506q36 152 -19 229.5t-164 77.5q-130 0 -214.5 -83t-108.5 -224zM285 1126l256 369h41l256 -369h-41l-236 195l-235 -195h-41z" />
<glyph unicode="&#xeb;" horiz-adv-x="1024" d="M82 502q0 126 42.5 230.5t113 171.5t160 103.5t186.5 36.5q51 0 97.5 -9t92.5 -30t79 -54.5t57.5 -82.5t28.5 -114.5t-9 -149.5h-688q-11 -215 91.5 -353t280.5 -138q183 0 328 82v-62q-34 -28 -60 -47t-76.5 -47.5t-112.5 -43.5t-130 -15q-147 0 -258.5 73.5t-167 191 t-55.5 257.5zM250 676h506q36 152 -19 229.5t-164 77.5q-130 0 -214.5 -83t-108.5 -224zM262 1260q0 49 31 79.5t77 30.5q47 0 78 -30.5t31 -79.5q0 -47 -31.5 -77t-77.5 -30t-77 30t-31 77zM659 1260q0 49 31 79.5t78 30.5q46 0 77 -30.5t31 -79.5q0 -47 -31 -77t-77 -30 t-77.5 30t-31.5 77z" />
<glyph unicode="&#xec;" horiz-adv-x="614" d="M7 1431q14 38 55 52q53 17 89 -33l2 -2l195 -303l-21 -19l-284 211q-55 41 -36 94zM61 0v41q83 10 121.5 27.5t51 46.5t12.5 90v553q0 79 -30 108.5t-134 44.5v41l307 92h21v-839q0 -61 12 -90t50.5 -46.5t121.5 -27.5v-41h-533z" />
<glyph unicode="&#xed;" horiz-adv-x="614" d="M61 0v41q83 10 121.5 27.5t51 46.5t12.5 90v553q0 79 -30 108.5t-134 44.5v41l307 92h21v-839q0 -61 12 -90t50.5 -46.5t121.5 -27.5v-41h-533zM285 1145l20 -19l285 211q55 41 36 94q-15 39 -56 52q-53 16 -89 -33l-2 -2z" />
<glyph unicode="&#xee;" horiz-adv-x="614" d="M43 1126l256 369h41l256 -369h-41l-236 195l-235 -195h-41zM61 0v41q83 10 121.5 27.5t51 46.5t12.5 90v553q0 79 -30 108.5t-134 44.5v41l307 92h21v-839q0 -61 12 -90t50.5 -46.5t121.5 -27.5v-41h-533z" />
<glyph unicode="&#xef;" horiz-adv-x="614" d="M21 1260q0 49 31 79.5t77 30.5q47 0 78 -30.5t31 -79.5q0 -47 -31.5 -77t-77.5 -30t-77 30t-31 77zM61 0v41q83 10 121.5 27.5t51 46.5t12.5 90v553q0 79 -30 108.5t-134 44.5v41l307 92h21v-839q0 -61 12 -90t50.5 -46.5t121.5 -27.5v-41h-533zM418 1260q0 49 31 79.5 t78 30.5q46 0 77 -30.5t31 -79.5q0 -47 -31 -77t-77 -30t-77.5 30t-31.5 77z" />
<glyph unicode="&#xf0;" horiz-adv-x="1150" d="M84 492q3 222 144 367t356 145q104 0 196 -39q-57 162 -143 331l-260 -149l-35 63l262 152q-79 145 -133 215h102q10 -14 52 -68.5t71 -93.5l283 164l37 -63l-275 -160q328 -466 328 -824q0 -167 -66.5 -293.5t-180 -192.5t-257.5 -66q-141 0 -252.5 66t-171.5 183 t-57 263zM268 492q0 -225 80.5 -338t226.5 -113t227 113t81 338t-81 337.5t-227 112.5t-226.5 -112.5t-80.5 -337.5z" />
<glyph unicode="&#xf1;" horiz-adv-x="1269" d="M61 0v41q83 10 121.5 27.5t51 46.5t12.5 90v553q0 79 -30 108.5t-134 44.5v41l317 92h17l-6 -215h4q102 102 196.5 158.5t198.5 56.5q113 0 184.5 -74.5t71.5 -232.5v-532q0 -61 12 -90t50.5 -46.5t121.5 -27.5v-41h-491v41q28 6 47.5 11t35.5 12.5t25.5 12t16.5 16 t10.5 18.5t5.5 25.5t2 30v38.5v532q0 87 -38.5 136t-114.5 49q-81 0 -158.5 -34t-179.5 -120v-563q0 -61 12 -90t50.5 -46.5t121.5 -27.5v-41h-533zM303 1188q18 36 29.5 58.5t34 58t41.5 56t46 36.5t54 16q41 0 164 -41t163 -41q57 0 88 15t66 67l31 -20l-28.5 -55.5 t-31 -52.5t-39 -51t-43.5 -31.5t-53 -14.5q-48 0 -169 41t-169 41q-53 0 -81 -20.5t-72 -82.5z" />
<glyph unicode="&#xf2;" horiz-adv-x="1150" d="M84 512q2 146 66.5 267.5t178.5 193t255 71.5q140 0 252 -71.5t172.5 -192.5t58.5 -268q-3 -146 -67.5 -267.5t-179 -193t-255.5 -71.5t-252.5 71.5t-171.5 193t-57 267.5zM268 512q0 -227 81.5 -349t225.5 -122t226 122t82 349t-82 349t-226 122t-225.5 -122t-81.5 -349 zM310 1431q14 38 55 52q53 17 89 -33l2 -2l195 -303l-21 -19l-284 211q-55 41 -36 94z" />
<glyph unicode="&#xf3;" horiz-adv-x="1150" d="M84 512q2 146 66.5 267.5t178.5 193t255 71.5q140 0 252 -71.5t172.5 -192.5t58.5 -268q-3 -146 -67.5 -267.5t-179 -193t-255.5 -71.5t-252.5 71.5t-171.5 193t-57 267.5zM268 512q0 -227 81.5 -349t225.5 -122t226 122t82 349t-82 349t-226 122t-225.5 -122t-81.5 -349 zM541 1145l20 -19l285 211q55 41 36 94q-15 39 -56 52q-53 16 -89 -33l-2 -2z" />
<glyph unicode="&#xf4;" horiz-adv-x="1150" d="M84 512q2 146 66.5 267.5t178.5 193t255 71.5q140 0 252 -71.5t172.5 -192.5t58.5 -268q-3 -146 -67.5 -267.5t-179 -193t-255.5 -71.5t-252.5 71.5t-171.5 193t-57 267.5zM268 512q0 -227 81.5 -349t225.5 -122t226 122t82 349t-82 349t-226 122t-225.5 -122t-81.5 -349 zM318 1126l256 369h41l256 -369h-41l-236 195l-235 -195h-41z" />
<glyph unicode="&#xf5;" horiz-adv-x="1150" d="M84 512q2 146 66.5 267.5t178.5 193t255 71.5q140 0 252 -71.5t172.5 -192.5t58.5 -268q-3 -146 -67.5 -267.5t-179 -193t-255.5 -71.5t-252.5 71.5t-171.5 193t-57 267.5zM232 1188q18 36 29.5 58.5t34 58t41.5 56t46 36.5t54 16q41 0 164 -41t163 -41q57 0 88 15t66 67 l31 -20l-28.5 -55.5t-31 -52.5t-39 -51t-43.5 -31.5t-53 -14.5q-48 0 -169 41t-169 41q-53 0 -81 -20.5t-72 -82.5zM268 512q0 -227 81.5 -349t225.5 -122t226 122t82 349t-82 349t-226 122t-225.5 -122t-81.5 -349z" />
<glyph unicode="&#xf6;" horiz-adv-x="1150" d="M84 512q2 146 66.5 267.5t178.5 193t255 71.5q140 0 252 -71.5t172.5 -192.5t58.5 -268q-3 -146 -67.5 -267.5t-179 -193t-255.5 -71.5t-252.5 71.5t-171.5 193t-57 267.5zM268 512q0 -227 81.5 -349t225.5 -122t226 122t82 349t-82 349t-226 122t-225.5 -122t-81.5 -349 zM281 1260q0 49 31 79.5t77 30.5q47 0 78 -30.5t31 -79.5q0 -47 -31.5 -77t-77.5 -30t-77 30t-31 77zM678 1260q0 49 31 79.5t78 30.5q46 0 77 -30.5t31 -79.5q0 -47 -31 -77t-77 -30t-77.5 30t-31.5 77z" />
<glyph unicode="&#xf7;" horiz-adv-x="1146" d="M205 512v72h737v-72h-737zM485 248q0 42 28.5 71t70.5 29q41 0 69.5 -28.5t28.5 -71.5q0 -41 -28.5 -68.5t-69.5 -27.5q-42 0 -70.5 27.5t-28.5 68.5zM485 844q0 42 28.5 71t70.5 29q41 0 69.5 -28.5t28.5 -71.5q0 -41 -28.5 -68.5t-69.5 -27.5q-42 0 -70.5 27.5 t-28.5 68.5z" />
<glyph unicode="&#xf8;" horiz-adv-x="1150" d="M82 31l115 125q-119 151 -113 356q2 146 66.5 267.5t178.5 193t255 71.5q185 0 317 -122l115 122l51 -51l-115 -125q118 -150 115 -356q-3 -146 -67.5 -267.5t-179 -193t-255.5 -71.5q-188 0 -317 120l-111 -120zM268 512q0 -149 33 -244l518 563q-82 152 -244 152 q-144 0 -225.5 -122t-81.5 -349zM332 193q81 -152 243 -152q144 0 226 122t82 349q0 132 -33 244z" />
<glyph unicode="&#xf9;" d="M41 983v41h328v-737q0 -87 38.5 -136t114.5 -49q79 0 146 31.5t172 122.5v573q0 55 -12 82t-51.5 44.5t-121.5 27.5v41h349v-758q0 -69 23.5 -100.5t68.5 -34.5t112 2v-51l-348 -102h-20v215h-4q-69 -71 -118.5 -112.5t-117.5 -72t-139 -30.5q-113 0 -184.5 74.5 t-71.5 232.5v542q0 79 -30 109t-134 45zM273 1431q14 38 55 52q53 17 89 -33l2 -2l195 -303l-21 -19l-284 211q-55 41 -36 94z" />
<glyph unicode="&#xfa;" d="M41 983v41h328v-737q0 -87 38.5 -136t114.5 -49q79 0 146 31.5t172 122.5v573q0 55 -12 82t-51.5 44.5t-121.5 27.5v41h349v-758q0 -69 23.5 -100.5t68.5 -34.5t112 2v-51l-348 -102h-20v215h-4q-69 -71 -118.5 -112.5t-117.5 -72t-139 -30.5q-113 0 -184.5 74.5 t-71.5 232.5v542q0 79 -30 109t-134 45zM555 1145l20 -19l285 211q55 41 36 94q-15 39 -56 52q-53 16 -89 -33l-2 -2z" />
<glyph unicode="&#xfb;" d="M41 983v41h328v-737q0 -87 38.5 -136t114.5 -49q79 0 146 31.5t172 122.5v573q0 55 -12 82t-51.5 44.5t-121.5 27.5v41h349v-758q0 -69 23.5 -100.5t68.5 -34.5t112 2v-51l-348 -102h-20v215h-4q-69 -71 -118.5 -112.5t-117.5 -72t-139 -30.5q-113 0 -184.5 74.5 t-71.5 232.5v542q0 79 -30 109t-134 45zM322 1126l256 369h41l256 -369h-41l-236 195l-235 -195h-41z" />
<glyph unicode="&#xfc;" d="M41 983v41h328v-737q0 -87 38.5 -136t114.5 -49q79 0 146 31.5t172 122.5v573q0 55 -12 82t-51.5 44.5t-121.5 27.5v41h349v-758q0 -69 23.5 -100.5t68.5 -34.5t112 2v-51l-348 -102h-20v215h-4q-69 -71 -118.5 -112.5t-117.5 -72t-139 -30.5q-113 0 -184.5 74.5 t-71.5 232.5v542q0 79 -30 109t-134 45zM285 1260q0 49 31 79.5t77 30.5q47 0 78 -30.5t31 -79.5q0 -47 -31.5 -77t-77.5 -30t-77 30t-31 77zM682 1260q0 49 31 79.5t78 30.5q46 0 77 -30.5t31 -79.5q0 -47 -31 -77t-77 -30t-77.5 30t-31.5 77z" />
<glyph unicode="&#xfd;" horiz-adv-x="1167" d="M11 -418q21 42 65 29q320 -91 487 369l-389 880q-24 54 -52 77.5t-102 45.5v41h492v-41q-60 -7 -94.5 -22t-44.5 -40t-6 -52.5t22 -69.5l254 -615h4l234 615q30 80 -3.5 124.5t-140.5 59.5v41h410v-41q-76 -15 -108 -38.5t-56 -84.5l-348 -880q-45 -114 -102.5 -206 t-111.5 -149t-112.5 -97t-104 -58t-87.5 -23q-78 -10 -106 48q-22 45 0 87zM633 1145l20 -19l285 211q55 41 36 94q-15 39 -56 52q-53 16 -89 -33l-2 -2z" />
<glyph unicode="&#xfe;" d="M61 -492q105 15 134.5 46t29.5 118v1618q0 79 -30 109t-134 45v41l312 92h16v-676h4q61 64 147.5 103.5t176.5 39.5q196 0 313 -149t117 -383q0 -96 -28.5 -181t-78.5 -148.5t-116 -109.5t-142.5 -69.5t-156.5 -23.5q-61 0 -127 16t-109 45v-369q0 -61 12 -90t50.5 -46.5 t121.5 -27.5v-40h-512v40zM389 338q0 -68 16 -121.5t41 -85.5t58.5 -53t65.5 -29t65 -8q166 0 256 130t82 341q-7 194 -100.5 307t-227.5 113q-146 0 -256 -96v-498z" />
<glyph unicode="&#xff;" horiz-adv-x="1167" d="M11 -418q21 42 65 29q320 -91 487 369l-389 880q-24 54 -52 77.5t-102 45.5v41h492v-41q-60 -7 -94.5 -22t-44.5 -40t-6 -52.5t22 -69.5l254 -615h4l234 615q30 80 -3.5 124.5t-140.5 59.5v41h410v-41q-76 -15 -108 -38.5t-56 -84.5l-348 -880q-45 -114 -102.5 -206 t-111.5 -149t-112.5 -97t-104 -58t-87.5 -23q-78 -10 -106 48q-22 45 0 87zM320 1260q0 49 31 79.5t77 30.5q47 0 78 -30.5t31 -79.5q0 -47 -31.5 -77t-77.5 -30t-77 30t-31 77zM717 1260q0 49 31 79.5t78 30.5q46 0 77 -30.5t31 -79.5q0 -47 -31 -77t-77 -30t-77.5 30 t-31.5 77z" />
<glyph unicode="&#x152;" horiz-adv-x="1986" d="M102 717q0 158 55 296t149 234.5t222 151.5t271 55q47 0 111.5 -6t93.5 -14h860l10 -328h-51q-31 256 -256 256h-379v-604h205q105 0 156.5 43.5t64.5 161.5h51v-482h-51q-13 118 -64.5 161.5t-156.5 43.5h-205v-614h399q115 0 183 65.5t83 190.5h52l-21 -328h-880 q-29 -8 -93.5 -14t-111.5 -6q-143 0 -271 55t-222 151.5t-149 234.5t-55 296zM287 717q0 -191 68.5 -344t185.5 -237.5t258 -84.5q120 0 172.5 65.5t52.5 190.5v819q0 125 -52.5 190.5t-172.5 65.5q-216 0 -364 -188.5t-148 -476.5z" />
<glyph unicode="&#x153;" horiz-adv-x="1769" d="M84 512q2 148 61 268.5t168.5 192t249.5 71.5q121 0 218 -55t159 -151q65 99 168 152.5t221 53.5q51 0 97.5 -9t92.5 -30t79 -54.5t57.5 -82.5t28.5 -114.5t-9 -149.5h-647q-7 -144 26 -253t111 -173.5t195 -64.5q183 0 328 82v-62q-34 -28 -60 -47t-76.5 -47.5 t-112.5 -43.5t-130 -15q-130 0 -226 54.5t-153 151.5q-64 -97 -163.5 -151.5t-221.5 -54.5q-140 0 -247 71.5t-162 192t-52 268.5zM268 512q0 -231 72.5 -351t214.5 -120t214.5 120t72.5 351t-72.5 351t-214.5 120t-214.5 -120t-72.5 -351zM1036 676h465q36 152 -19 229.5 t-163 77.5q-125 0 -191.5 -79.5t-91.5 -227.5z" />
<glyph unicode="&#x178;" horiz-adv-x="1310" d="M20 1393q63 -24 95.5 -49.5t58.5 -73.5l430 -793v-272q0 -61 -12 -90t-50.5 -46.5t-121.5 -27.5v-41h532v41q-83 10 -121.5 27.5t-50.5 46.5t-12 90v360l338 705q32 58 70 83t114 40v41h-409v-41q70 -10 104 -37.5t32 -67t-24 -90.5l-274 -563h-4l-295 573 q-14 29 -21.5 47.5t-12.5 40t0 35t18.5 27t40.5 22t67 13.5v41h-492v-41zM399 1669q0 49 31.5 80t77.5 31t77 -31t31 -80q0 -47 -31 -76.5t-77 -29.5t-77.5 29.5t-31.5 76.5zM797 1669q0 49 31 80t77 31t77.5 -31t31.5 -80q0 -47 -31.5 -76.5t-77.5 -29.5t-77 29.5t-31 76.5 z" />
<glyph unicode="&#x2c6;" horiz-adv-x="962" d="M205 1126l256 369h41l256 -369h-41l-236 195l-235 -195h-41z" />
<glyph unicode="&#x2dc;" horiz-adv-x="1126" d="M205 1188q18 36 29.5 58.5t34 58t41.5 56t46 36.5t54 16q41 0 164 -41t163 -41q57 0 88 15t66 67l31 -20l-28.5 -55.5t-31 -52.5t-39 -51t-43.5 -31.5t-53 -14.5q-48 0 -169 41t-169 41q-53 0 -81 -20.5t-72 -82.5z" />
<glyph unicode="&#x2000;" horiz-adv-x="952" />
<glyph unicode="&#x2001;" horiz-adv-x="1905" />
<glyph unicode="&#x2002;" horiz-adv-x="952" />
<glyph unicode="&#x2003;" horiz-adv-x="1905" />
<glyph unicode="&#x2004;" horiz-adv-x="635" />
<glyph unicode="&#x2005;" horiz-adv-x="476" />
<glyph unicode="&#x2006;" horiz-adv-x="317" />
<glyph unicode="&#x2007;" horiz-adv-x="317" />
<glyph unicode="&#x2008;" horiz-adv-x="238" />
<glyph unicode="&#x2009;" horiz-adv-x="381" />
<glyph unicode="&#x200a;" horiz-adv-x="105" />
<glyph unicode="&#x2010;" horiz-adv-x="1146" d="M205 512v72h737v-72h-737z" />
<glyph unicode="&#x2011;" horiz-adv-x="1146" d="M205 512v72h737v-72h-737z" />
<glyph unicode="&#x2012;" horiz-adv-x="1146" d="M205 512v72h737v-72h-737z" />
<glyph unicode="&#x2013;" horiz-adv-x="1249" d="M205 512v72h839v-72h-839z" />
<glyph unicode="&#x2014;" horiz-adv-x="1843" d="M205 512v72h1433v-72h-1433z" />
<glyph unicode="&#x2018;" horiz-adv-x="696" d="M205 1229q0 130 79.5 231.5t176.5 136.5l20 -41q-99 -47 -145 -138q-37 -74 -15 -120q14 -28 48 -28q51 0 87 -36t36 -87t-36 -87t-87 -36q-49 0 -83 20t-50.5 52.5t-23.5 65t-7 67.5z" />
<glyph unicode="&#x2019;" horiz-adv-x="696" d="M205 1454q0 51 36 87t87 36q49 0 83 -20t50.5 -52.5t23.5 -65t7 -67.5q0 -130 -79.5 -231.5t-176.5 -136.5l-21 40q100 47 146 139q37 74 15 120q-14 28 -48 28q-51 0 -87 36t-36 87z" />
<glyph unicode="&#x201a;" horiz-adv-x="696" d="M205 123q0 51 36 87t87 36q49 0 83 -20t50.5 -52.5t23.5 -65t7 -67.5q0 -130 -80 -232t-176 -137l-21 41q100 47 146 139q37 74 15 120q-14 28 -48 28q-51 0 -87 36t-36 87z" />
<glyph unicode="&#x201c;" horiz-adv-x="1146" d="M205 1229q0 130 79.5 231.5t176.5 136.5l20 -41q-99 -47 -145 -138q-37 -74 -15 -120q14 -28 48 -28q51 0 87 -36t36 -87t-36 -87t-87 -36q-49 0 -83 20t-50.5 52.5t-23.5 65t-7 67.5zM655 1229q0 130 79.5 231.5t176.5 136.5l21 -41q-99 -47 -145 -138q-38 -74 -16 -120 q14 -28 48 -28q51 0 87 -36t36 -87t-36 -87t-87 -36q-49 0 -83 20t-50.5 52.5t-23.5 65t-7 67.5z" />
<glyph unicode="&#x201d;" horiz-adv-x="1146" d="M205 1454q0 51 36 87t87 36q49 0 83 -20t50.5 -52.5t23.5 -65t7 -67.5q0 -130 -79.5 -231.5t-176.5 -136.5l-21 40q100 47 146 139q37 74 15 120q-14 28 -48 28q-51 0 -87 36t-36 87zM655 1454q0 51 36 87t87 36q49 0 83 -20t50.5 -52.5t23.5 -65t7 -67.5 q0 -130 -79.5 -231.5t-176.5 -136.5l-20 40q99 47 145 138q37 74 15 120q-14 29 -48 29q-51 0 -87 36t-36 87z" />
<glyph unicode="&#x201e;" horiz-adv-x="1146" d="M205 123q0 51 36 87t87 36q49 0 83 -20t50.5 -52.5t23.5 -65t7 -67.5q0 -130 -80 -232t-176 -137l-21 41q100 47 146 139q37 74 15 120q-14 28 -48 28q-51 0 -87 36t-36 87zM655 123q0 51 36 87t87 36q49 0 83 -20t50.5 -52.5t23.5 -65t7 -67.5q0 -130 -80 -232 t-176 -137l-20 41q99 47 145 138q37 74 15 120q-14 29 -48 29q-51 0 -87 36t-36 87z" />
<glyph unicode="&#x2022;" horiz-adv-x="813" d="M205 475q0 85 58 144t143 59t143.5 -59t58.5 -144t-58.5 -143t-143.5 -58t-143 58t-58 143z" />
<glyph unicode="&#x2026;" horiz-adv-x="1638" d="M205 102q0 51 36 87t87 36t87 -36t36 -87t-36 -86.5t-87 -35.5t-87 35.5t-36 86.5zM696 102q0 51 36 87t87 36t87 -36t36 -87t-36 -86.5t-87 -35.5t-87 35.5t-36 86.5zM1188 102q0 51 36 87t87 36t87 -36t36 -87t-36 -86.5t-87 -35.5t-87 35.5t-36 86.5z" />
<glyph unicode="&#x202f;" horiz-adv-x="381" />
<glyph unicode="&#x2039;" horiz-adv-x="983" d="M205 528l573 -378v81l-356 320l356 315v82l-573 -379v-41z" />
<glyph unicode="&#x203a;" horiz-adv-x="983" d="M205 150v81l356 320l-356 315v82l573 -379v-41z" />
<glyph unicode="&#x205f;" horiz-adv-x="476" />
<glyph unicode="&#x20ac;" horiz-adv-x="1536" d="M123 553v72h147q-4 58 -4 92q0 28 4 82h-147v71h156q46 262 228 423t435 161q138 0 255.5 -37.5t195.5 -85.5l20 -287h-51q-16 65 -49 122.5t-83.5 107.5t-125 79t-162.5 29q-183 0 -314.5 -141t-166.5 -371h399v-71h-407q-2 -27 -2 -82q0 -63 4 -92h405v-72h-397 q37 -227 167 -364.5t312 -137.5q88 0 162.5 29t125 79t83.5 107.5t49 122.5h51l-20 -287q-77 -48 -195 -85t-256 -37q-250 0 -432 158t-229 415h-158z" />
<glyph unicode="&#x2122;" horiz-adv-x="1953" d="M205 1262h26q9 73 40.5 101t99.5 28h75v-490q0 -52 -19.5 -70.5t-88.5 -27.5v-23h313v23q-72 9 -91 27t-19 71v490h73q68 0 99.5 -28t38.5 -101h30l-6 172h-569zM879 780v23q71 9 89.5 27t18.5 71v412q0 51 -18.5 68.5t-89.5 27.5v25h225l225 -527l211 527h209v-25 q-69 -10 -88 -28t-19 -68v-412q0 -52 19 -70.5t88 -27.5v-23h-313v23q72 9 91 27t19 71v424l-225 -551h-47l-236 561v-434q0 -52 19.5 -70.5t89.5 -27.5v-23h-268z" />
<glyph unicode="&#x25fc;" horiz-adv-x="1024" d="M0 0v1024h1024v-1024h-1024z" />
</font>
</defs>
</svg>
